<?xml version="1.0" encoding="utf-8"?>
<!-- Generator: Adobe Illustrator 27.3.1, SVG Export Plug-In . SVG Version: 6.00 Build 0)  -->
<svg version="1.1" id="Layer_1" xmlns="http://www.w3.org/2000/svg" xmlns:xlink="http://www.w3.org/1999/xlink" x="0px" y="0px"
	 viewBox="0 0 443.6 380" style="enable-background:new 0 0 443.6 380;" xml:space="preserve">
<style type="text/css">
	.st0{fill:none;}
	.st1{fill:#D19A2C;}
</style>
<g>
	<path class="st0" d="M340.5,194c-6.3-4.4-12.8-8.7-19.3-12.8c-4.2-2.3-8.5-4.5-12.9-6.4c0.7,1,1.5,2,2.3,3c1.2,1.3,2.4,2.6,3.5,4
		c5.3,6.1,9.9,12.7,13.9,19.6c2.6,3.8,4.9,7.4,6.6,10.6c3,6,6,13,9.5,18.6c6.3,10.2,17.3,17.2,28.9,20.2c1.1,0.3,2.3-0.7,2.2-1.9
		c-3.3-17.8-12.6-35-26.1-47.5C346.3,198.8,343.4,196.4,340.5,194z M358.8,238.6c3.3,2.6,6.9,4.5,10.5,6.5c0.6,0.3,0.1,1.2-0.5,1
		c-8.1-2-15.1-9-20.1-15.4c-5.6-7.2-9.6-15.4-13.3-23.7c-0.3-0.6,0.6-1.1,0.9-0.5c4.2,7.7,8.1,15.7,13.5,22.7
		C352.5,232.7,355.5,235.9,358.8,238.6z"/>
	<path class="st0" d="M294.9,207.8c-0.8-3.2-1.3-6.8-1.8-10.5c0-0.2,0-0.3-0.1-0.5c-0.6-4.7-1.1-9.5-1.6-13.8
		c-0.7,2-1.1,4.2-1.9,6.2c-13.1,30.3-6.7,65.1,6.9,94.3c0,0,0.1,0.3,0.2,0.3c5-7.3,9.5-15.2,11.7-23.8c2.3-8.7,1.8-18.1-2.4-26.2
		C301.5,225.8,296.9,217.2,294.9,207.8z M297.4,275c-0.1,0.3-0.6,0.1-0.5-0.1c2.3-6.2,4.9-12.3,6.2-18.8c1.3-6.2,1-12.1-0.5-18.3
		c-0.1-0.4,0.6-0.7,0.7-0.3c2.2,5.5,2,11.9,1,17.6C303.2,262.1,300.4,268.6,297.4,275z"/>
	<path class="st0" d="M325.3,203.4c-7-9.7-16.2-20.6-22.1-28.3c-1.3-1.3-2.7-2.6-4.1-3.9c-0.9-0.8-1.4-1.7-2-0.6
		c-1.5,6.8-1.9,13.5-1.6,20.1c0.1,1.1,0.2,2.2,0.3,2.8c0.4,3.4,0.8,6.8,1.5,10.1c5.9,26.9,24.7,51.4,45.1,69.9l3,2.6
		c1,1.1,1.9,0.7,1.9-0.3C345.4,250.7,338.2,225.4,325.3,203.4z M328.6,252.6c-3.1-3.2-6-6.7-8.6-10.4c-11-15.3-18.7-33.6-20.4-52.4
		c0-0.3,0.5-0.3,0.5,0c2.3,11.6,5.7,23,10.9,33.7c4.9,10.2,11.4,19.4,18.7,28.1C330.4,252.3,329.3,253.3,328.6,252.6z"/>
	<path class="st0" d="M296.6,167.2h0.1c0,0-0.1,0-0.1-0.1C296.6,167.2,296.6,167.2,296.6,167.2z"/>
	<path class="st0" d="M285.3,191.3c0.7-1.6,1.3-3.3,1.8-5c-0.1,0-0.1,0-0.2,0.1c-0.2,0.1-0.8,0.5-1,0.6c-0.7,0.4-1.3,0.9-2,1.3
		c-0.7,0.5-1.4,0.9-2.1,1.3c-11.3,7.6-20.8,17.7-27.1,29.7c-6.5,11.1-6.8,23.9-6.5,36.5c-0.2,4.6-1,9.1-2.1,13.6
		c0,0.2,0,0.2,0.1,0.3c13.7-6.4,25-18.8,28-33.8c1.9-8.4,3.9-16.8,6.1-25.1C281.3,204.1,282.9,197.7,285.3,191.3z M267.3,209.5
		c-2.1,2.5-4.1,5.1-5.9,7.9c-3.7,5.5-7.2,11.3-10.2,17.3c-0.1,0.1-0.3,0-0.3-0.1c2.9-6.2,5.5-12.5,9.1-18.3c1.9-3,4-5.9,6.3-8.7
		c2.1-2.5,4.3-5.2,7.2-6.8c0.6-0.3,1.3,0.4,0.9,1C272.5,204.6,269.6,206.8,267.3,209.5z"/>
	<path class="st0" d="M319,174.5c13.6,8.6,26.5,18.5,38.9,28.5c6.3,5.2,13.6,8.8,21.7,9.8c6.5,0.9,13.2,0.4,19.6-1
		c0.6-0.1,0.9-0.7,0.6-1.2c-0.1-0.2-0.7-0.6-0.9-0.8c-6.9-4.7-12.1-11.5-17.4-17.6c-15.1-16.8-39.9-21.7-61.5-18
		C319.9,174.4,319.5,174.5,319,174.5z M342.7,177.6c7.9,0.3,15.5,2.4,22.4,6.3c3.4,1.9,6.6,4.2,9.5,6.7c2.8,2.5,6.1,5.5,7.7,9
		c0.3,0.6-0.5,1.1-1,0.6c-2.8-2.6-5-5.7-7.8-8.3c-2.8-2.5-5.8-4.7-9.1-6.6c-6.7-3.8-14.1-6.4-21.8-7.4
		C342.4,178,342.4,177.6,342.7,177.6z"/>
	<path class="st0" d="M123.6,245.5c7-7.5,15.5-14,23.4-20.7c-1.5,0.4-2.9,0.8-4.4,1.1C95,233.1,57.1,267.5,31.4,306
		c-0.2,0.3-0.5,0.8-0.5,0.8c-0.1,0.2,0.1,0.6,0.4,0.7h0.1h0.3H33c12.5,0.2,25.3-0.9,37.1-5c12.5-4.2,23.7-12.3,30.2-23.7
		C106.9,267.1,113.9,255.1,123.6,245.5z M77.5,262.5c-8.7,7.4-16.6,15.7-24.7,23.8c-0.5,0.5-1.3-0.2-0.9-0.7
		c4.1-5.1,8.5-9.8,13.2-14.4c8.3-8.1,17.2-15.6,26.9-21.9c9.5-6.1,20.1-11.6,31.4-13.6c0.3,0,0.5,0.4,0.2,0.5
		c-6,2.2-12,4.4-17.7,7.2C95.6,248.5,86.2,255.1,77.5,262.5z"/>
	<path class="st0" d="M5,246.8c4.7,2.9,9.9,5.2,15.2,6.9c12.3,4,26,4.5,37.5-1.7c12-5.5,24-10.9,36.1-16.2
		c12.3-5.2,24-11.3,37.1-14.7c4.3-1.1,9.3-1.6,13.4-2.9c-3.8-3.5-11.2-6.2-16.6-8c-12.3-4-25.3-6.2-38.2-5.5
		c-19.6,0.5-38.1,8-53.2,20.2c-5.1,4-10.3,8.5-15.9,11.9c-4.7,3-10.1,5.7-15,8.1C4.8,245.2,4.5,246.4,5,246.8z M45.6,223.4
		c3.2-2.7,6.9-4.9,10.6-6.8c9.7-4.9,20.3-7.9,31.2-8.8c5-0.4,10-0.3,14.9,0.2c3.5,0.3,7.5,0.6,10.8,2.1c0.2,0.1,0.2,0.4-0.1,0.4
		c-4.1,0.2-8.3-0.7-12.5-0.8c-10.7-0.2-21.5,1.4-31.5,4.8c-7.9,2.7-15,6.6-22.1,10.8C45.8,225.8,44.7,224.2,45.6,223.4z"/>
	<path class="st0" d="M136.4,121.7c4.3,0.3,8.6,0.1,12.8-0.5c-13.3-8-27.8-14.7-43.3-16.1c-4.2-0.7-16.4,0.8-23.9-0.7
		c8.2,3.2,16.6,6.2,24.7,9.7C116.2,118.1,126.1,121.6,136.4,121.7z"/>
	<path class="st0" d="M151.5,81.5c-18.9-9.4-41.6-4.3-58.9,6.1c-2.8,1.7-5.6,3.6-8.2,5.6c7.9-3.8,17.9-6.9,26.7-7.8
		c17.5-0.9,39.1,2.3,48.6,18.8c0.6,0.9,0.3,2.1-0.6,2.6c-0.6,0.4-1.4,0.4-2,0c-11.7-7.1-25-12.1-38.9-12.4
		c-13.8-0.4-27.8,1.5-40.7,6.3h-0.1v0.1c0.4,1,1.6,1.4,2.7,1.8c8.5,2.2,17.3,0.4,25.9,0.9c17.7,1.2,34.2,8.8,49.7,17.1
		c1.7,0.8,1.1,3.5-0.7,3.6c-11.5,1.4-23.2,0.8-34.3-2.7c-14.6-5.3-28.5-11.7-43-17.3c0.2,0.3,0.5,0.7,0.5,0.7
		c13,16.1,31.3,29,51.8,33.3c7.1,1.6,14.3,1.2,21.2-0.8c1.8-0.6,3,2.1,1.3,3c-17.1,10.8-39.3,4.6-54-7.5
		c-8.2-6.1-14.4-14.4-20.6-22.3c3.2,8.9,7.6,17.3,13.7,24.6c12.4,16.2,34,26.3,54.3,21.7c12.9-3,25.3-12.1,29.2-24.9
		C180.8,112.7,170.2,89.8,151.5,81.5z M152.9,108.1c-12.5-6.1-25.7-9.7-39.6-10.6c-0.7,0-0.7-1.1,0-1.1c13.9,0.1,28,3.9,40,11.1
		C153.8,107.7,153.3,108.3,152.9,108.1z M123.1,134.6c-7.5-1.8-14.6-5.3-21-9.5c-3.4-2.2-6.6-4.5-9.6-7.2c-2.2-2-4.5-4.2-6.1-6.7
		c-0.2-0.4,0.3-0.6,0.6-0.4c2.3,2,4.3,4.4,6.5,6.5c2.9,2.7,5.9,5.3,9.2,7.4c6.4,4.2,13.4,7,20.6,9.2
		C123.8,134.1,123.6,134.7,123.1,134.6z M169.3,104.5c-2.3-4.7-5.2-9-9-12.7c-3.8-3.6-8.5-6.6-13.3-8.7c-0.2-0.1-0.1-0.4,0.1-0.3
		c10.2,3.1,19.2,11.5,22.7,21.6C169.9,104.7,169.4,104.8,169.3,104.5z"/>
	<path class="st0" d="M176.5,224.6l0.6-2.8c0.2-0.9,0.4-2.1,0.4-2.1c0-0.5-0.7-1.1-1.3-0.8c-13.8,5.8-27.5,12.5-38.8,22.3
		c-33.5,28.4-50.5,71.6-58.6,113.8c-0.8,2.2,0.9,3.5,2.2,2.4l2.2-1.8c2.6-2.3,10.6-8.3,13.5-10.5C135.6,315,166.3,273,176.5,224.6z
		 M115.6,323.2c-4.4,4.5-8.8,8.9-13.4,13.2c-4.2,3.9-8.4,7.9-13.1,11.3c-0.9,0.7-2-0.5-1.2-1.3c4.1-4.1,8.5-7.8,12.7-11.8
		c4.5-4.2,8.9-8.5,13.2-12.9c8.1-8.3,16.1-16.7,23.8-25.4c0.3-0.3,0.9,0.2,0.6,0.5C131.2,306.1,123.7,314.9,115.6,323.2z
		 M169.3,227.5c-4.4,2.7-8.9,5.3-13.2,8.1c-10.4,6.8-20.3,14.4-28.2,24c-8,9.8-15.2,20.5-21.7,31.4c-0.3,0.4-0.9,0-0.7-0.4
		c3.4-6.9,7.1-13.5,11.4-19.9c7-10.4,15-19.8,24.9-27.5c8.3-6.5,17.4-12.1,27.2-16.2C169.4,226.8,169.6,227.3,169.3,227.5z"/>
	<path class="st0" d="M145.5,212.5c10.1,3.6,21.4,3.7,31.3-0.4l0.9-0.4c2.7-1.5,6.2,0.6,6.1,3.7c0.7,19.8,10.3,39.9,27.9,50.5
		c1.1-0.4,2.3-1.4,2.2-2.8c-1.3-8.2-6.5-16.2-7.3-25c-1.3-5.3,0.7-11.9-0.3-16.9c-2.4-10-9.5-19.9-18.6-25.3
		c-5.1-2.3-10.2-2.3-15.8-2.1c-5.9,0.2-11.8,0.2-17.7,0c-8.5,0.1-17.7-1.9-25.8,0.7c-6,3,1.9,9.1,4.8,11.5c0.8,0.6,1.6,1.1,2.4,1.7
		c1,0.4,2.1,0.8,3.1,1.2C140.4,209.8,143.1,211,145.5,212.5z M201.7,217.7c1.9,1.7,2.4,4.2,2.4,6.6c0,1.5-0.2,2.9-0.4,4.4
		s-0.3,3.1-0.3,4.6c0,0.5-0.8,0.6-0.9,0.1c-0.7-2.8,0.3-5.6,0.5-8.4c0.2-2.4,0-5.1-1.6-7C201.1,217.8,201.4,217.5,201.7,217.7z
		 M131,199.9c-0.1-0.2,0.1-0.4,0.3-0.3c1.8,1.3,3.4,3,5.3,4.3c2,1.4,4.1,2.5,6.3,3.4c4.4,1.8,9,2.1,13.7,2.5c0.7,0,0.8,1.1,0.1,1.2
		c-4.9,0.6-9.9-0.9-14.4-2.8c-2.3-1-4.5-2.2-6.5-3.7C134.2,203.2,132.2,201.8,131,199.9z"/>
	<path class="st0" d="M187.9,251.6c-0.2,2.4-0.4,4.9-0.6,7.3c-0.3,17.2-2.4,34.4-7.2,50.8c-0.6,3.1-1.1,6.2-1.7,9.3
		c-4.7,20.4,2.5,41.9,17.3,56.7c0.7,0.7,2,0.2,2.1-0.8c0.8-6.2,2.1-12.3,4-18.2c6.4-15.9,13-32.1,10.5-49.5
		C210.2,286.6,201.1,267.3,187.9,251.6z M205.4,291.4c8.5,19.2,2.1,40.8-5.1,59.3c-0.3,0.9-1.7,0.4-1.4-0.4
		c3.1-10.2,6.9-20.2,8.2-30.9c1.2-9.2,0.8-19-2.3-27.8C204.7,291.3,205.2,291.1,205.4,291.4z"/>
	<path class="st0" d="M181.6,261.3c0.1-6.7,0-13.5-0.8-20.2c-8.1,17.1-18.8,42.4-28.3,56.5c-9.2,12.9-20.2,25.6-23,41.5
		c-1.9,9.3-1.5,19.1,0.5,28.5c0.3,1.3,0.4,2.9,1.8,3.5c1.2,0.4,2.3,0.2,3.1-0.4c9.7-8,18.2-17.4,25.1-27.9
		c8.5-12.8,14-27.2,17.3-42.1c0.9-5.6,1.8-11.1,2.3-16.7C180.4,276.5,181.1,268.9,181.6,261.3z M160.3,297.8
		c-2.2,4.1-4.8,8-7.7,11.8c-2.8,3.7-6,6.9-8.7,10.6c-3.5,4.7-6,10.1-7.7,15.8c-1.7,5.8-1.9,11.6-3,17.5c-0.1,0.7-1.4,0.6-1.5-0.1
		c-0.8-6.4,0.7-13.3,2.7-19.4c1.8-5.4,4.5-10.6,8-15.1c2.9-3.7,6.3-6.9,9.3-10.5c6.5-8.2,11.2-17.8,14.8-27.6
		c0.2-0.4,0.8-0.2,0.7,0.2C165.4,286.9,163.2,292.5,160.3,297.8z"/>
	<path class="st0" d="M180.6,115.2c-0.9,1.9,0.4,5,0.6,7.6c0.1,5.7-1.6,10.9-4.2,15.7c-1.1,2.2-2.6,4.8-2.7,7
		c4.3-0.4,9.5-3.3,12.3-6.5C193.4,130.9,188.9,120.2,180.6,115.2z M187.2,129.6c0.1-0.2,0.4-0.2,0.5,0c0.6,1.8-0.1,3.8-0.9,5.4
		c-0.8,1.6-2.1,3.3-3.8,4.1c-0.5,0.2-0.9-0.4-0.5-0.7c0.6-0.6,1.3-1.2,1.9-1.8c0.6-0.6,1-1.4,1.4-2.1
		C186.6,132.9,186.7,131.2,187.2,129.6z"/>
	<path class="st0" d="M465,147.5c0.1,0.1,0,0.3-0.1,0.2c-26.8-10.7-52.4-24.7-76-41.3C371.6,95,355,82.2,341.5,66.5
		c-2.2,5.9-2.7,12.6,0.1,18.2c2.9,6,9.9,8.6,13.9,14.1c2.3,2.9,4.2,5.8,6,9c2.7,4.7,3.4,9.9,5.5,14.5c3.1,6.8,10,12.1,17.7,12.3
		c7.4,0.3,15.2,3.2,20.4,8.5c4.4,4.2,7.4,9.3,11.6,13.4c6.3,3.6,13.8,4.1,21.1,4.5c7.2,0.6,14.1,2.6,20.6,5.6c3.3,1.5,6.2,3.7,9,5
		c6.1,2.6,12.7,3.2,19.5,2.9c8.8-0.2,17.7,1.4,26.1,4.3c-3.1-3.9-5.7-8.2-7.8-12.6c-4-8.5-4.7-18.9-12.7-24.9
		c-7.9-5.9-15.8-12.4-21.6-20.7c-7.1-10.4-13-22.1-24.4-27.9c-3-1.2-6-1.1-9.3-2.1c-10.6-3.3-15.4-13.5-20.9-22.1l0,0l-0.1-0.1
		c-0.9-1.1-2-2.2-3.1-3.1c-3.3-2.9-7.8-5.9-11.9-6.3c-6-0.2-13.9,2.4-20.5,1.3c-7-0.3-14.3-3.7-20.4-6.2c-5.4-2.1-11.4,0.1-14.9,4.8
		c-0.4,0.5-0.7,1.1-1.1,1.7c16.3,13.4,32.3,27.5,48.4,40.7C415.5,118.5,439.7,133.9,465,147.5z"/>
	<path class="st0" d="M268.8,191.6c4-0.2,7.7-1.3,11.1-3.2c1.1-0.7,2.2-1.5,3.3-2.2c6.3-4.8,10.4-12.2,10.9-20.3
		c0.1-1.6,2.1-2.5,3.4-1.4c7.7,4.8,17.1,7.2,26.2,5.7c4.3-0.7,8.4-2.1,12.1-4.2c0.2-0.1,0.3-0.7,0-0.9c-7.1-7.3-16.4-12.3-26.6-13.7
		c-7.7-1.5-15.1-1.8-21.8,2.7C274.4,161.6,268.7,177.3,268.8,191.6z M284.1,177.8c2.7-3.8,4-8.2,5.8-12.5c0.3-0.7,1.4-0.4,1.2,0.4
		c-1.8,8-6.5,18.8-16,19.8c-0.7,0.1-0.9-0.8-0.2-1C278.6,183.4,281.8,180.9,284.1,177.8z"/>
	<path class="st0" d="M232.9,51.1c-11.9-3.7-24.3-4.8-36.3-8.1c-11.5-4-24.4-10-32.8-17.7c10.5,6.5,21.8,11.7,33.7,14.7
		c12.1,2.5,24.6,3.2,36.5,6.7c12.1,2.7,23.6,8.7,34.9,12.9c4.4,1.4,9,2.4,13.6,3.1c0.1-0.1,0.2-0.2,0.3-0.4c-0.3-1.9-3.8-4.8-6-6.3
		c-6.5-4.4-13.5-8.4-21.1-10.6c-3.8-1.1-7.8-1.8-12.1-3.3C233,38.9,225.4,30,219.3,21.4c-2.1-2.4-5.5-3.5-8.6-3.7
		c-3.7-0.1-7.7,1.7-11.7,1.9c-6.8,0.6-13.9-0.7-19.8-4.4c-3.8-2.4-6.5-4.4-10.2-5.2c-8.2-2.3-14.7,1.2-22.7,3.6
		c-11.1,2.9-22.8-0.6-32.2-6.6c3,6.1,6.8,11.8,11.5,16.8c5.7,6.1,12.7,11.2,21,13c4.4,0.9,9,2.7,12.5,5.8c3.5,2.8,5.1,7.3,8,10.2
		c2.7,2.5,6.5,4.3,10.3,4.2c1.9,0,4.3-0.4,6.7-0.1c7.1,0.6,13.3,5.2,17.9,10.2c5.8,5.7,14.5,7,22.3,6.1c4.3-0.4,7.4-2.3,11.4-4.2
		c4.3-1.9,8.9-3,13.7-3c4.5,0,8.8,1.4,13.1,1.6c3.9,0.2,8-0.4,12.1-1.3c0.7-0.1,1.6-0.4,2.6-0.6c-3.1-0.6-6.2-1.4-9.2-2.5
		C255.9,58.9,245.1,54,232.9,51.1z"/>
	<path class="st1" d="M184.3,136.5c-0.6,0.7-1.2,1.2-1.9,1.8c-0.4,0.3,0,0.9,0.5,0.7c1.7-0.8,3-2.4,3.8-4.1c0.8-1.6,1.5-3.7,0.9-5.4
		c-0.1-0.2-0.4-0.3-0.5,0c-0.5,1.7-0.6,3.3-1.5,4.9C185.3,135.2,184.8,135.9,184.3,136.5z"/>
	<path class="st1" d="M147.1,82.8c-0.2-0.1-0.3,0.3-0.1,0.3c4.8,2.1,9.5,5.1,13.3,8.7s6.6,8,9,12.7c0.1,0.3,0.6,0.1,0.5-0.2
		C166.3,94.3,157.3,85.9,147.1,82.8z"/>
	<path class="st1" d="M153.3,107.5c-11.9-7.1-26.1-11-40-11.1c-0.7,0-0.8,1.1,0,1.1c13.9,0.9,27.1,4.5,39.6,10.6
		C153.3,108.3,153.8,107.7,153.3,107.5z"/>
	<path class="st1" d="M123.3,134c-7.2-2.2-14.2-5-20.6-9.2c-3.3-2.2-6.3-4.8-9.2-7.4c-2.3-2.1-4.2-4.5-6.5-6.5
		c-0.3-0.2-0.8,0-0.6,0.4c1.6,2.5,3.9,4.7,6.1,6.7c3,2.7,6.2,5,9.6,7.2c6.4,4.2,13.5,7.7,21,9.5C123.6,134.7,123.8,134.1,123.3,134z
		"/>
	<path class="st1" d="M3.6,249.7l0.6,0.3l1.1,0.6c10.4,5.7,22.1,9.1,34,8.9c6.7,0.3,13.6-2,19.6-4.8c10.4-4.4,20.7-8.8,31.1-13.1
		c-19.9,13.2-37.1,30.6-51.4,49.4c-3.5,4.8-7.2,9.7-10.3,14.8c-0.7,2,0.9,4.2,3,4.2h0.3h1.3c6,0.1,12,0,17.9-0.7
		c15.7-1.4,31.7-6.9,43.3-17.5C86,310,80.5,329.4,76.5,348.6l-1,5.7c-0.2,0.7-0.5,2.4,0.1,3.7c1.1,2.8,4.8,4.1,7.5,2.5
		c12.9-6.9,24-16.6,34.8-26.3c6.3-5.8,12.3-12,17.9-18.5c-8.9,15.3-12.9,30.4-7.9,52.2l0.6,2.5c0.8,3.8,5.6,5.7,8.7,3
		c5-4,9.7-8.3,14-13c9.7-10.1,17.1-21.6,22.6-34c-0.2,3.1-0.3,6.3-0.1,9.5c1.3,14.9,8.8,28.6,18.7,39.6c1.1,1.3,2.6,3.1,4.6,2.7
		c1.6-0.1,3-1.6,3.2-3.1c1-6,2.4-11.9,4.4-17.6c7.1-16.1,14.1-32.7,12.1-50.9c-1.1-14.4-5.4-28.6-12.4-41.4c1.8,1.3,3.7,2.5,5.6,3.7
		c0.5,0.4,1.6,0.6,2.2,0.5c8.2-2,5.1-10.2,3.4-15.4c-1.8-5.5-3-11-3.1-16.5c-0.5-6,2.2-11.7,0.9-17.7c-1.9-9.5-7.8-17.4-15.4-23.2
		c0-0.1,0.1-0.1,0.1-0.2c11.5-24.2,26-47,43.1-67.6c12.3-14.9,26-28.5,40.9-40.9c-4.7,20.6-3.7,42.6,4.7,62.2
		c-0.4,0.2-0.8,0.4-1.1,0.6c-13.7,8.4-21.8,25.1-18.7,40.9c0.1,0.9,0.9,1.7,2,1.8c1.8-0.1,3.5-0.3,5.2-0.7
		c-15.5,12.4-27.5,30.1-28.3,50.1c-0.1,8.4,0.3,16.8-2,25c-1.2,3,1.7,5.5,4.4,4l1.4-0.8c13.3-7.3,24.3-19.7,27.2-34.7
		c0.9-4.2,1.8-8.3,2.8-12.5c-0.2,20.5,5.6,41.3,14.1,59.9c0.1,0.3,0.5,1,0.6,1.2c0.9,2.1,4,1.9,4.9,0.2c2.5-3.6,4.9-7.4,6.9-11.3
		c4.9-9.1,7.8-20.1,6.2-30.5c8.9,13,19.9,24.8,31.4,34.7c1.1,1.4,3.9,2,5.4,0.4c0.8-0.7,1.2-1.9,1.1-2.9c-0.4-4.6-0.8-9.3-1.5-13.9
		c-1.5-10.6-4-21.2-7.4-31.5c0.3,0.5,0.6,1,0.9,1.5c6.6,10,17.2,17.1,28.7,20.4c1.3,0.4,2.8,0.9,4.1,0.3c1.5-0.6,2.5-2.1,2.4-3.8
		c-1.7-9.5-4.8-18.3-9.2-26.8c-2.9-5.6-6.5-10.8-10.5-15.7c11.5,8.4,26.8,10.6,40.5,7.5l1.5-0.3c1.5-0.3,2.4-2.2,1.7-3.5
		c-0.3-0.5-0.9-1-1.4-1.3c-6.9-4.8-11.7-11.1-17.1-17.5c-12.4-14.2-31.6-20.8-50.3-21.1c1-0.4,2.1-0.9,3.1-1.4
		c1.2-0.6,2.6-1.4,2.6-2.8c0.3-1.3-1-2.5-1.8-3.3c-7.1-7.3-16.5-12.5-26.6-14.1c-6.7-1.7-14.7-2-21.2,0.9c-8-21.6-7.1-45.4,0.4-66.8
		c13.4-10.5,27.7-19.9,42.7-28.1c1.7,2.4,3.5,4.7,5.4,6.9c-3.9,8.3-4.4,18.5-0.7,26c1.7,3.5,4.7,6.6,7.6,8.7
		c5.6,3.9,9.3,8.8,12.5,14.6c2.5,4.2,3.2,9.6,5.4,14.2c3.1,7,9.6,12.3,16.9,14.6c5.1,1.3,10.2,0.4,15,2.6c8,2.8,12.3,10.4,17.8,16.4
		c1.1,1.4,3.4,3.1,4.9,3.6c6.7,2.9,14.1,3.5,21.1,3.8c6.6,0.4,13.1,2.3,19.2,4.9c5.8,3.1,12.7,7,19.8,7.4c7.1,0.8,13.7-0.5,20.7,0.5
		c5.9,0.6,11.7,2,17.3,3.9c0.7,0.2,1.4,0.5,2.2,0.7c0.7,0.2,1.5-0.1,1.9-0.3c0.1-0.4,0.1-1.2-0.3-1.8c-0.4-0.7-0.4-0.6-0.6-0.8
		l-0.7-0.9c-3.4-4.4-6.4-9.2-8.6-14.3c-3.7-9.1-4.6-20.1-13-26.7c-7.6-6.1-15-12.2-20.3-20.2c-5.9-9.5-12.2-20.3-21.5-27.5
		c-4-3.4-9.8-4.1-14.6-5.2c-9.2-2.7-14.1-15-18.1-20.4c-3.6-4.2-8-7.8-13.1-10.1c-8.7-4.3-17.7,0.9-26.4-0.5
		c-10.6-0.2-20.1-10-31-6.1c-4.3,1.6-7.9,4.6-10.6,8.5c-1.7-1.3-3.4-2.7-5-4c35-18.8,73.5-31.2,113.1-36.1c9.3-1.4,7.1-14.8-2-13.6
		c-53.5,7.7-104.3,29.1-147.4,60.6c-3.1,0.1-6.3,0-9.4-0.2c0.9-8.8-12.7-15.1-19.1-19.2c-10.5-6.6-24-6.1-33.5-14.1
		c-5-3.7-7.7-8.7-11.9-13.5c-5-5.5-13.9-7-20.6-4.7c-7.3,2.2-15,1.9-21.6-1.9c-3.5-2.1-7.8-4.9-12-5.6C162,2,152.9,6.2,145.4,9
		c-11.5,3.4-23.6-0.6-33.5-7.2c-1.1-0.8-2.7,0.5-2.1,1.7c3.2,8.2,7.8,15.9,13.8,22.4c3,3.3,6.3,6.3,10.1,8.8
		c6.8,5.5,16.7,5,23.2,10.7c3.3,2.8,4.5,7.1,7.8,10.2c3.6,3.4,8.3,5.6,13.2,5.5c6.3-0.7,12,0.6,16.8,4.7c3.2,2.8,6.2,6.7,10.2,8.7
		c10.4,5.5,23.4,4.8,33.4-0.9c8.1-3.9,15.8-1.7,24.2-0.5c4.8,0.4,9.4-0.4,13.7-1.2c3.8-0.9,8.5-1.9,11.2-4.9c2,0.2,4.1,0.3,6.1,0.4
		c-27,20.6-50.8,45.2-70.1,73c-5.1,1.5-10.5,1.9-15.9,1.1c-5.2-0.8-10.4-2.8-14.9-5.7c4.2-8.4-0.2-17.4-9.2-22.8
		c-1-0.8-2.3-1-3.4-0.6c-1.5-7.4-4.8-14.6-9.5-20.6c-13.7-17.7-39-22.2-59.5-15.4c-10.3,3.1-19.8,8.3-28.2,14.8
		c-1.6,1.2-3.1,2.5-4.6,3.8c-1,0.6-1.2,2.1-0.5,2.9c0.4,0.7,1.9,1.1,2.6,0.5c0.1-0.1,0.8-0.4,0.8-0.4c12.5-6.6,26.6-11,40.9-9.5
		c10.8,0.9,23,3.8,30.5,11.8c-10.8-4.7-22.3-7.9-34-7.7c-14.1,0-28.4,1.9-41.5,7.1c-0.2,0.1-0.5,0.2-0.6,0.6c0.1,1,0.7,1.8,1.5,2.4
		c-0.6-0.2-1.6,0.3-1.5,1.1c0,0.6,0.8,1.4,1,1.8c15.5,19,38.4,34.9,63.7,36.2c-17.7,4.8-36.8-5.6-49.3-18.1
		c-5.2-5.3-9.6-11.4-14.5-17.1c-0.2-0.3-0.5-0.4-0.9-0.3c-1.5,0.5-0.9,1.8-0.6,2.9c2.7,10,7.4,19.5,13.9,27.6
		c12.9,17.1,35.8,28,57.3,23.2c9.4-2.2,18.4-7.2,24.7-14.4c0,0.9,0.3,1.8,1.2,2.4c1.4,1,3.4,0.6,4.6,0.2c4.4-1.6,8.4-4,11.6-7.5
		c0.9-1,1.7-2,2.4-3.1c7.8,6.2,17.9,9.2,27.9,8.7c-9.9,14.9-18.5,30.7-25.7,47.2c-1.1-0.7-2.2-1.3-3.3-1.9
		c-5.3-3.7-12.5-3.2-18.5-2.5c-5.8,0.6-11.6,1.2-17.4,1.4c-8.8,0.9-17.9-0.8-26.6,2.1c-5.7,3-3.5,8,0.7,12.4c-12.6-4-25.8-6-39-5.3
		c-20.4,0.9-39.9,9.1-55.4,22.1c-9.3,8.4-19.4,15-30.6,20.6C0.9,244.3,0.9,248.2,3.6,249.7z M274.2,235.8c-3,15-14.3,27.4-28,33.8
		c-0.2-0.1-0.2-0.1-0.1-0.3c1.1-4.4,1.9-9,2.1-13.6c-0.4-12.5,0-25.4,6.5-36.5c6.3-12,15.9-22.1,27.1-29.7c0.7-0.4,1.4-0.9,2.1-1.3
		c0.7-0.4,1.3-0.9,2-1.3c0.2-0.1,0.8-0.5,1-0.6c0.1,0,0.1,0,0.2-0.1c-0.5,1.7-1.1,3.4-1.8,5c-2.4,6.3-4,12.8-5,19.4
		C278.1,219.1,276.1,227.5,274.2,235.8z M296.6,167.2v-0.1c0,0,0.1,0,0.1,0.1C296.6,167.2,296.6,167.2,296.6,167.2z M296.6,283.9
		c0-0.1-0.2-0.3-0.2-0.3c-13.6-29.3-20-64-6.9-94.3c0.8-2.1,1.2-4.2,1.9-6.2c0.5,4.3,0.9,9.1,1.6,13.8c0,0.2,0,0.3,0.1,0.5
		c0.5,3.7,1.1,7.3,1.8,10.5c2,9.3,6.6,18,10.9,26.1c4.3,8,4.8,17.4,2.4,26.2C306.1,268.7,301.6,276.6,296.6,283.9z M347.2,276
		c0,0.9-0.9,1.4-1.9,0.3l-3-2.6c-20.3-18.5-39.2-43-45.1-69.9c-0.6-3.3-1.1-6.7-1.5-10.1c-0.1-0.7-0.2-1.7-0.3-2.8
		c-0.4-6.6,0.1-13.3,1.6-20.1c0.6-1.1,1.1-0.2,2,0.6c1.4,1.3,2.8,2.6,4.1,3.9c5.9,7.7,15.1,18.7,22.1,28.3
		C338.2,225.4,345.4,250.7,347.2,276z M375.1,248.9c0.1,1.1-1.1,2.1-2.2,1.9c-11.6-3-22.5-9.9-28.9-20.2c-3.5-5.6-6.5-12.6-9.5-18.6
		c-1.7-3.2-4-6.8-6.6-10.6c-4.1-6.9-8.7-13.5-13.9-19.6c-1.1-1.4-2.3-2.7-3.5-4c-0.8-1-1.5-2-2.3-3c4.4,1.9,8.7,4.1,12.9,6.4
		c6.6,4.1,13,8.4,19.3,12.8c3,2.3,5.8,4.8,8.6,7.4C362.5,213.9,371.8,231.1,375.1,248.9z M381.6,192.3c5.3,6.2,10.5,12.9,17.4,17.6
		c0.2,0.1,0.8,0.6,0.9,0.8c0.3,0.5-0.1,1.1-0.6,1.2c-6.4,1.4-13.1,1.9-19.6,1c-8.1-1-15.4-4.7-21.7-9.8
		c-12.4-10.1-25.3-19.9-38.9-28.5c0.4-0.1,0.9-0.1,1-0.2C341.6,170.6,366.4,175.5,381.6,192.3z M309.2,151.5
		c10.2,1.4,19.5,6.4,26.6,13.7c0.3,0.2,0.2,0.8,0,0.9c-3.8,2.1-7.9,3.6-12.1,4.2c-9.1,1.5-18.4-0.9-26.2-5.7
		c-1.3-1.1-3.3-0.3-3.4,1.4c-0.4,8.1-4.6,15.6-10.9,20.3c-1.1,0.7-2.2,1.4-3.3,2.2c-3.3,1.8-7.1,3-11.1,3.2
		c-0.1-14.3,5.6-30,18.6-37.4C294.1,149.7,301.5,149.9,309.2,151.5z M345.4,58.8c3.5-4.7,9.5-6.9,14.9-4.8
		c6.1,2.5,13.4,5.9,20.4,6.2c6.5,1.1,14.5-1.5,20.5-1.3c4.1,0.5,8.6,3.5,11.9,6.3c1.1,0.9,2.2,2.1,3.1,3.1l0.1,0.1l0,0
		c5.4,8.5,10.3,18.7,20.9,22.1c3.3,1.1,6.4,0.9,9.3,2.1c11.4,5.8,17.3,17.5,24.4,27.9c5.8,8.2,13.7,14.8,21.6,20.7
		c8,6,8.7,16.4,12.7,24.9c2.1,4.5,4.8,8.7,7.8,12.6c-8.4-2.8-17.3-4.5-26.1-4.3c-6.7,0.3-13.4-0.3-19.5-2.9c-2.8-1.3-5.7-3.4-9-5
		c-6.5-3-13.4-5-20.6-5.6c-7.3-0.4-14.8-0.9-21.1-4.5c-4.2-4.1-7.2-9.2-11.6-13.4c-5.3-5.3-13.1-8.2-20.4-8.5
		c-7.7-0.2-14.6-5.5-17.7-12.3c-2.1-4.7-2.8-9.8-5.5-14.5c-1.8-3.2-3.6-6.1-6-9c-4.1-5.5-11-8.1-13.9-14.1
		c-2.8-5.6-2.3-12.2-0.1-18.2c13.5,15.7,30.1,28.5,47.4,39.9c23.7,16.5,49.2,30.5,76,41.3c0.2,0.1,0.3-0.2,0.1-0.2
		c-25.3-13.6-49.5-28.9-72.3-46.2c-16.1-13.1-32-27.3-48.4-40.7C344.7,60,345,59.4,345.4,58.8z M274.4,66.3
		c-4.1,0.9-8.2,1.6-12.1,1.3c-4.3-0.2-8.5-1.7-13.1-1.6c-4.8,0-9.4,1.1-13.7,3c-4,1.9-7.1,3.8-11.4,4.2c-7.8,0.9-16.5-0.5-22.3-6.1
		c-4.6-5-10.8-9.5-17.9-10.2c-2.5-0.2-4.8,0.1-6.7,0.1c-3.8,0.1-7.6-1.7-10.3-4.2c-3-2.9-4.6-7.4-8-10.2c-3.5-3.1-8.1-4.9-12.5-5.8
		c-8.2-1.8-15.3-6.9-21-13c-4.7-5-8.5-10.7-11.5-16.8c9.4,6,21.1,9.5,32.2,6.6c8-2.3,14.5-5.9,22.7-3.6c3.6,0.7,6.4,2.7,10.2,5.2
		c5.9,3.7,13,4.9,19.8,4.4c4-0.3,8-2.1,11.7-1.9c3.1,0.2,6.5,1.3,8.6,3.7c6.1,8.6,13.7,17.5,24.4,20.8c4.3,1.5,8.4,2.2,12.1,3.3
		c7.6,2.2,14.6,6.2,21.1,10.6c2.1,1.4,5.7,4.3,6,6.3c-0.1,0.1-0.2,0.2-0.3,0.4c-4.6-0.7-9.2-1.7-13.6-3.1
		c-11.4-4.2-22.9-10.2-34.9-12.9c-11.9-3.5-24.4-4.2-36.5-6.7c-11.9-3-23.2-8.2-33.7-14.7C172.2,33,185.1,39,196.6,43
		c12,3.3,24.4,4.4,36.3,8.1c12.2,2.9,23.1,7.8,35,12.1c3,1,6.1,1.8,9.2,2.5C276.1,65.9,275.2,66.1,274.4,66.3z M145.8,156.8
		c-20.3,4.6-41.8-5.5-54.3-21.7c-6.2-7.2-10.6-15.7-13.7-24.6c6.2,7.9,12.4,16.2,20.6,22.3c14.8,12.1,36.9,18.3,54,7.5
		c1.6-0.9,0.5-3.6-1.3-3c-6.9,2-14.1,2.4-21.2,0.8c-20.5-4.3-38.8-17.2-51.8-33.3c0,0-0.3-0.4-0.5-0.7c14.4,5.6,28.4,12,43,17.3
		c11.1,3.5,22.9,4.1,34.3,2.7c1.8-0.1,2.4-2.8,0.7-3.6c-15.5-8.2-31.9-15.8-49.7-17.1c-8.7-0.5-17.4,1.3-25.9-0.9
		c-1.1-0.4-2.3-0.8-2.7-1.8v-0.1h0.1c12.9-4.8,26.9-6.7,40.7-6.3c13.8,0.2,27.1,5.3,38.9,12.4c0.6,0.4,1.4,0.4,2,0
		c0.9-0.6,1.2-1.7,0.6-2.6c-9.5-16.5-31.1-19.6-48.6-18.8c-8.8,0.8-18.8,4-26.7,7.8c2.6-2,5.3-3.9,8.2-5.6
		c17.3-10.4,40-15.5,58.9-6.1c18.7,8.3,29.3,31.1,23.6,50.4C171.1,144.7,158.7,153.8,145.8,156.8z M82,104.5
		c7.5,1.5,19.8,0,23.9,0.7c15.5,1.4,30.1,8,43.3,16.1c-4.3,0.6-8.6,0.9-12.8,0.5c-10.3-0.1-20.2-3.6-29.7-7.6
		C98.6,110.6,90.2,107.7,82,104.5z M186.6,139.1c-2.8,3.1-8,6-12.3,6.5c0-2.3,1.6-4.8,2.7-7c2.6-4.8,4.3-10,4.2-15.7
		c-0.2-2.6-1.5-5.7-0.6-7.6C188.9,120.2,193.4,130.9,186.6,139.1z M70.1,302.5c-11.8,4-24.6,5.2-37.1,5h-1.3h-0.3h-0.1
		c-0.3,0-0.5-0.4-0.4-0.7c0,0,0.3-0.5,0.5-0.8c25.7-38.5,63.6-72.8,111.2-80.1c1.4-0.3,2.9-0.7,4.4-1.1
		c-7.9,6.7-16.4,13.2-23.4,20.7c-9.7,9.6-16.7,21.6-23.3,33.2C93.8,290.2,82.6,298.2,70.1,302.5z M96.7,345.1
		c-2.9,2.2-10.9,8.2-13.5,10.5l-2.2,1.8c-1.3,1.1-3-0.2-2.2-2.4c8.1-42.2,25.1-85.3,58.6-113.8c11.3-9.8,25.1-16.5,38.8-22.3
		c0.6-0.3,1.3,0.3,1.3,0.8c0.1,0-0.2,1.2-0.4,2.1l-0.6,2.8C166.3,273,135.6,315,96.7,345.1z M159.9,342.8
		c-6.9,10.5-15.4,19.9-25.1,27.9c-0.8,0.6-1.9,0.8-3.1,0.4c-1.4-0.5-1.4-2.2-1.8-3.5c-2-9.3-2.4-19.1-0.5-28.5
		c2.8-15.9,13.8-28.7,23-41.5c9.5-14.1,20.2-39.4,28.3-56.5c0.9,6.7,1,13.4,0.8,20.2c-0.6,7.6-1.2,15.2-2.1,22.8
		c-0.5,5.6-1.3,11.1-2.3,16.7C173.9,315.7,168.4,330,159.9,342.8z M212.2,307.1c2.5,17.4-4.1,33.7-10.5,49.5c-1.9,6-3.2,12.1-4,18.2
		c-0.1,1-1.4,1.5-2.1,0.8c-14.8-14.8-22-36.3-17.3-56.7c0.6-3.1,1.2-6.2,1.7-9.3c4.9-16.3,7-33.6,7.2-50.8c0.2-2.4,0.4-4.9,0.6-7.3
		C201.1,267.3,210.2,286.6,212.2,307.1z M133.2,206c-2.9-2.5-10.9-8.5-4.8-11.5c8-2.6,17.3-0.6,25.8-0.7c5.9,0.2,11.8,0.2,17.7,0
		c5.6-0.2,10.8-0.2,15.8,2.1c9.1,5.4,16.2,15.3,18.6,25.3c1,5-0.9,11.6,0.3,16.9c0.8,8.8,6,16.8,7.3,25c0.1,1.4-1.1,2.4-2.2,2.8
		c-17.6-10.6-27.1-30.7-27.9-50.5c0.1-3.1-3.4-5.2-6.1-3.7l-0.9,0.4c-9.9,4.1-21.2,3.9-31.3,0.4c-2.4-1.6-5.1-2.8-6.7-3.6
		c-1-0.4-2.1-0.8-3.1-1.2C134.8,207.1,134,206.6,133.2,206z M5.3,244.8c4.9-2.4,10.3-5.1,15-8.1c5.6-3.4,10.8-7.9,15.9-11.9
		c15.1-12.2,33.6-19.7,53.2-20.2c12.9-0.7,25.9,1.5,38.2,5.5c5.4,1.8,12.8,4.5,16.6,8c-4.1,1.2-9.1,1.8-13.4,2.9
		c-13.2,3.5-24.8,9.5-37.1,14.7c-12.1,5.3-24.1,10.8-36.1,16.2c-11.5,6.2-25.2,5.7-37.5,1.7c-5.3-1.7-10.4-4-15.2-6.9
		C4.5,246.4,4.8,245.2,5.3,244.8z"/>
	<path class="st1" d="M46.9,225.2c7.1-4.1,14.3-8.1,22.1-10.8c10.1-3.4,20.9-5.1,31.5-4.8c4.1,0.1,8.4,1,12.5,0.8
		c0.2,0,0.3-0.3,0.1-0.4c-3.3-1.5-7.2-1.7-10.8-2.1c-5-0.5-10-0.6-14.9-0.2c-10.9,0.9-21.5,3.9-31.2,8.8c-3.8,1.9-7.4,4.1-10.6,6.8
		C44.7,224.2,45.8,225.8,46.9,225.2z"/>
	<path class="st1" d="M123.5,235.7c-11.3,2-21.9,7.5-31.4,13.6c-9.8,6.3-18.7,13.8-26.9,21.9c-4.7,4.6-9.1,9.3-13.2,14.4
		c-0.4,0.5,0.4,1.2,0.9,0.7c8.1-8.1,15.9-16.4,24.7-23.8c8.7-7.4,18.1-14,28.4-19.1c5.7-2.8,11.7-5,17.7-7.2
		C123.9,236.1,123.7,235.7,123.5,235.7z"/>
	<path class="st1" d="M156.8,211c0.7-0.1,0.6-1.2-0.1-1.2c-4.7-0.3-9.3-0.6-13.7-2.5c-2.2-0.9-4.3-2.1-6.3-3.4
		c-1.9-1.3-3.4-3-5.3-4.3c-0.2-0.1-0.4,0.1-0.3,0.3c1.2,1.9,3.1,3.4,4.9,4.6c2,1.5,4.2,2.7,6.5,3.7C146.9,210.1,152,211.6,156.8,211
		z"/>
	<path class="st1" d="M169,227c-9.8,4.1-18.9,9.7-27.2,16.2c-9.9,7.7-17.9,17.2-24.9,27.5c-4.3,6.4-8,13-11.4,19.9
		c-0.2,0.4,0.4,0.9,0.7,0.4c6.4-10.9,13.7-21.6,21.7-31.4c7.9-9.6,17.8-17.2,28.2-24c4.3-2.8,8.8-5.5,13.2-8.1
		C169.6,227.3,169.4,226.8,169,227z"/>
	<path class="st1" d="M137.6,296.4c-7.7,8.6-15.7,17.1-23.8,25.4c-4.3,4.4-8.7,8.7-13.2,12.9c-4.2,4-8.6,7.7-12.7,11.8
		c-0.8,0.8,0.3,2,1.2,1.3c4.6-3.4,8.9-7.4,13.1-11.3c4.6-4.3,9-8.7,13.4-13.2c8.1-8.4,15.6-17.1,22.6-26.4
		C138.5,296.5,137.9,296,137.6,296.4z"/>
	<path class="st1" d="M166.5,280.9c-3.6,9.8-8.3,19.4-14.8,27.6c-2.9,3.7-6.4,6.9-9.3,10.5c-3.6,4.5-6.3,9.6-8,15.1
		c-2,6-3.5,13-2.7,19.4c0.1,0.7,1.3,0.8,1.5,0.1c1.1-5.9,1.3-11.7,3-17.5c1.7-5.6,4.2-11,7.7-15.8c2.7-3.7,6-6.9,8.7-10.6
		c2.8-3.8,5.4-7.7,7.7-11.8c2.9-5.3,5.2-10.9,6.9-16.8C167.2,280.7,166.6,280.5,166.5,280.9z"/>
	<path class="st1" d="M300.1,189.8c-0.1-0.3-0.5-0.3-0.5,0c1.7,18.8,9.4,37.1,20.4,52.4c2.6,3.7,5.4,7.1,8.6,10.4
		c0.7,0.7,1.8-0.3,1.2-1.1c-7.3-8.7-13.8-17.9-18.7-28.1C305.9,212.8,302.5,201.4,300.1,189.8z"/>
	<path class="st1" d="M273.7,200.8c-2.9,1.6-5.1,4.3-7.2,6.8c-2.3,2.7-4.4,5.7-6.3,8.7c-3.7,5.8-6.2,12.1-9.1,18.3
		c-0.1,0.1,0.2,0.3,0.3,0.1c3-5.9,6.5-11.7,10.2-17.3c1.8-2.7,3.7-5.4,5.9-7.9c2.3-2.7,5.1-4.9,7.2-7.7
		C275,201.2,274.3,200.4,273.7,200.8z"/>
	<path class="st1" d="M302.7,237.8c1.5,6.1,1.8,12.1,0.5,18.3c-1.4,6.5-3.9,12.7-6.2,18.8c-0.1,0.3,0.3,0.4,0.5,0.1
		c3-6.4,5.7-12.9,7-19.9c1-5.7,1.2-12.1-1-17.6C303.3,237.1,302.6,237.4,302.7,237.8z"/>
	<path class="st1" d="M335.5,207.1c3.7,8.3,7.7,16.4,13.3,23.7c5,6.4,12,13.4,20.1,15.4c0.6,0.2,1.1-0.7,0.5-1
		c-3.7-2-7.3-3.9-10.5-6.5c-3.3-2.7-6.3-5.9-8.9-9.3c-5.4-7-9.3-15-13.5-22.7C336.1,206.1,335.2,206.5,335.5,207.1z"/>
	<path class="st1" d="M364.4,185.4c3.2,1.9,6.3,4.1,9.1,6.6c2.8,2.6,5,5.7,7.8,8.3c0.5,0.4,1.2,0,1-0.6c-1.6-3.5-4.8-6.5-7.7-9
		c-2.9-2.6-6.1-4.8-9.5-6.7c-6.9-3.9-14.5-6-22.4-6.3c-0.3,0-0.3,0.4,0,0.4C350.3,178.9,357.8,181.6,364.4,185.4z"/>
	<path class="st1" d="M274.8,184.5c-0.7,0.2-0.4,1.1,0.2,1c9.5-1,14.2-11.8,16-19.8c0.2-0.8-0.9-1.1-1.2-0.4
		c-1.8,4.2-3.1,8.7-5.8,12.5C281.8,180.9,278.6,183.4,274.8,184.5z"/>
	<path class="st1" d="M202.9,225c-0.3,2.8-1.2,5.6-0.5,8.4c0.1,0.5,0.9,0.5,0.9-0.1c0-1.5,0.2-3.1,0.3-4.6c0.2-1.5,0.4-2.9,0.4-4.4
		c0-2.4-0.5-4.9-2.4-6.6c-0.2-0.2-0.5,0.1-0.3,0.3C202.9,219.9,203.2,222.6,202.9,225z"/>
	<path class="st1" d="M207.1,319.3c-1.4,10.7-5.1,20.7-8.2,30.9c-0.3,0.9,1.1,1.3,1.4,0.4c7.2-18.5,13.6-40.1,5.1-59.3
		c-0.1-0.3-0.7-0.1-0.6,0.2C208,300.4,208.3,310.2,207.1,319.3z"/>
</g>
</svg>
