<?xml version="1.0" encoding="utf-8"?>
<!-- Generator: Adobe Illustrator 27.3.1, SVG Export Plug-In . SVG Version: 6.00 Build 0)  -->
<svg version="1.1" id="Layer_1" xmlns="http://www.w3.org/2000/svg" xmlns:xlink="http://www.w3.org/1999/xlink" x="0px" y="0px"
	 viewBox="0 0 200 200" style="enable-background:new 0 0 200 200;" xml:space="preserve">
<style type="text/css">
	.st0{fill:none;}
	.st1{fill:#D19A2C;}
</style>
<g>
	<path class="st0" d="M98.7,87.2c5.3-11,13.1-20.8,21.2-29.7c1.2-1.3,2.8-3,4.4-4.8c-1.8,0.6-3.7,1.3-5.1,1.7
		C80.8,66.8,53.1,99.9,35.5,135l-0.8,1.7l0.1,0.2l0,0c11.4-1.3,22.9-3.6,33.1-8.8c10.4-5.2,19.2-13.5,23.6-24.3
		C93.8,98.4,96,92.6,98.7,87.2z M51.4,116c-0.5,0.6-1.5,0-1-0.7c6.9-11.4,15.4-21.9,25-31.1c4.7-4.5,9.8-8.7,15.2-12.4
		c5.3-3.6,10.9-6.8,17-8.6c0.3-0.1,0.4,0.4,0.2,0.5c-5.7,3.2-11.6,6.2-16.9,10.1C85.8,77.5,81,81.6,76.5,86
		C67.1,95.2,59.4,105.7,51.4,116z"/>
	<path class="st0" d="M146.7,77c3.1-11,5-22.4,5.8-33.9c0.1-0.1-0.3-0.4-0.5-0.2c-11.2,7-22.5,14.2-31.3,24.1
		c-26.2,28.8-36.5,68.7-39.1,106.8c-0.1,1.5,0,1.7,0.9,1.9c0.3,0,0.5-0.2,0.6-0.4l1.7-1.9c7.9-8.7,16.8-16.6,24.1-25.9
		C126.1,126.8,139.6,102.9,146.7,77z M127.1,115.7c-5.2,9.1-10.7,17.8-17,26.3c-3.3,4.4-6.6,8.7-10.1,13c-3.3,3.9-6.5,8-10.3,11.4
		c-0.8,0.8-2.1-0.4-1.4-1.3c3.1-4.2,6.7-8.1,10-12.2c3.4-4.2,6.7-8.4,10-12.7c6.2-8.2,12.3-16.6,18.2-25
		C126.7,114.8,127.3,115.3,127.1,115.7z M98.6,114.1c-0.2,0.5-1,0.2-0.8-0.3c2.1-6.4,4.5-12.5,7.4-18.5c4.9-9.9,10.7-19.1,18.4-27
		c6.7-7,14.4-13.2,22.8-18c0.3-0.2,0.6,0.3,0.3,0.5c-3.6,3-7.3,6-10.9,9.1c-8.3,7.2-16,15.1-21.9,24.5
		C108.2,93.8,103,103.9,98.6,114.1z"/>
	<path class="st0" d="M166.1,71.5c0.1,1.3,0.1,2.7,0.1,4c1.7,15.9,1.7,32.2-1,47.9c-0.1,2.4-0.3,4.8-0.4,7.2
		c-0.8,10.2,0.6,20.1,5.4,29.1c3.5,6.7,8.3,12.8,14.1,17.7l1.4,1.2c0.5,0.4,1.3-0.1,1.3-0.7c-0.3-10.8,2.5-21.3,5.2-31.7
		c6.4-27.5-6.2-55.7-25.9-74.6C166.3,71.6,166.2,71.6,166.1,71.5z M185.2,103.2c9.6,16,6.4,36,2,53.2c-0.2,0.9-1.7,0.5-1.6-0.4
		c1.5-9,3.6-17.8,3.8-27c0.2-8.6-1.1-17.7-4.9-25.5C184.3,103,184.9,102.8,185.2,103.2z"/>
	<path class="st0" d="M112.2,48.9c3.3-1.3,7.2-2.4,10.4-3.6c-1.6-1-3.9-1.8-6.1-2.5c-19-5.5-39.8-5.2-58.2,2
		c-10.6,4.1-19.8,11.1-27.8,19.1C23.7,71.4,15.7,78.7,7,84c-1.6,1-1.6,1-1.7,1.7c0,0.3,0.1,0.5,0.2,0.5c0.2,0.1,1.3,0.5,1.6,0.7
		c11.6,4.7,25.3,6.4,37.1,2c12.7-6.8,24.7-15.4,37.1-22.7C90.4,60.9,102.3,52.8,112.2,48.9z M51.2,54.6c-4,2.5-7.7,5.4-11.5,8.2
		c-1,0.8-2.7-0.6-1.8-1.6c7.4-8.4,18.3-14,28.9-17.2c5.6-1.7,11.3-2.6,17.2-2.9c3.7-0.2,8.2-0.7,11.7,0.7c0.2,0.1,0.2,0.4,0,0.4
		c-1.7,0.4-3.5,0.4-5.2,0.4c-2.2,0.1-4.4,0.3-6.6,0.5C78.5,43.8,73.1,45,68,46.8C62.1,48.8,56.5,51.4,51.2,54.6z"/>
	<path class="st0" d="M160.5,80.5c-0.5-5.6-1.3-11.1-2.5-16.5c-5.2,16-11.6,38-18.2,51c-3.9,7.3-8.8,15.3-11.8,22.9
		c-5.7,13.7-5,29.5,0.3,43.2c0.7,1.2,2.6,0.8,3.3,0.1l0.4-0.4l0.7-0.8c17-18.1,25.9-41.7,28.3-66C161.2,102.7,161.1,91.6,160.5,80.5
		z M136.8,132.3c-3.2,4.9-5.5,10.3-6.7,16c-0.6,2.9-0.9,5.9-1.1,8.9c-0.1,3,0.1,6-0.2,9c-0.1,0.8-1.3,1.1-1.6,0.3
		c-1.7-5.6-1-12.2,0.2-17.8c1.1-5.6,3.3-10.9,6.4-15.7c3.3-4.9,6.7-9.5,9.2-14.8c3-6.3,5.1-13.1,6.8-19.9c0.1-0.4,0.8-0.3,0.7,0.2
		C148.7,110.8,143.6,121.8,136.8,132.3z"/>
	<path class="st0" d="M129.8,23.1c-7.4,1-15.7,0.2-22.3,3.3c-0.9,0.6-1.4,1.3-1.6,2.3c-0.2,0.9,0.7,1.7,1.3,2.4
		c2.1,2.1,4.6,3.7,7.3,5.1c3.2,0.8,7,2,10,3.5c9.1,1.8,18.9,0.6,26.8-4l0.7-0.4c2.5-1.9,6.5-0.1,6.7,3c2.9,17.1,12.9,33.7,29.1,41.1
		c0.2-0.1,0.3-0.2,0.5-0.4c0.7-0.7,0.7-0.9,0.7-1.8c-0.3-1.8-1.6-4.2-2.8-6.4c-2.5-4.5-5.1-9.4-6.5-14.8c-1.7-4.4-0.9-10.7-2.2-14.8
		c-3.2-8.3-10.1-16.3-18.4-20C149.5,19,139.6,22.8,129.8,23.1z M133.9,37.8c-4.1,1.2-8.7,0.3-12.7-0.9c-2-0.6-4-1.4-5.8-2.4
		s-3.9-2.1-5.1-3.8c-0.1-0.2,0-0.5,0.3-0.4c1.8,0.9,3.3,2.2,5.1,3.2c1.8,0.9,3.7,1.7,5.7,2.2c4.1,1.2,8.2,0.8,12.4,0.6
		C134.6,36.4,134.7,37.5,133.9,37.8z M175.7,45.5c0-2.4-0.3-5.1-2.1-6.8c-0.2-0.2,0.1-0.5,0.3-0.4c2.1,1.4,2.8,3.9,3,6.3
		c0.1,2.5,0.1,5,0.2,7.4c0,0.6-0.8,0.9-1,0.3C175.2,50.2,175.6,47.8,175.7,45.5z"/>
	<path class="st1" d="M161,16.2c-5.1-2.8-11.5-1.5-16.7-0.1c-5,1.2-10,2.5-15,3.4c-7.7,1.9-15.8,1.5-23.1,5c-4.4,3.2-2.7,7,0.8,10.3
		c-16.9-3-34.8-1.5-50.7,5.2c-13.9,5.6-25.2,16.2-34.9,27.3c-5.6,6-11.9,10.5-18.5,15.3c-1.9,2.1-1.5,5.8,1.3,7
		c0.1,0.1,1.6,0.6,1.6,0.6c9.7,3.9,20.4,5.5,30.9,4c5.9-0.5,11.8-3.3,16.7-6.5c7.4-4.4,14.8-8.7,22.3-12.9
		c-10.2,9.4-19.2,20.1-26.9,31.6c-5.9,8.7-11.3,17.8-15.9,27.2c-0.4,0.9-0.7,1.2-1.1,2.4c-0.5,2.1,1.4,4,3.4,3.8h0.3l1.1-0.1
		c18.2-1.7,37.9-7.9,50.4-21.6c-5.2,18.1-7.8,37.1-8.8,55.6c-0.9,4.3,4.1,7.9,7.9,5c10.7-7.4,19.3-17.3,27.7-27.1
		c4-4.8,7.8-9.8,11.3-14.9c-5,14-5.9,27.6,1.1,45.5c1.2,3.5,5.9,4.8,8.4,1.8l0.4-0.4l0.8-0.8c3.5-3.7,6.8-7.7,9.8-11.9
		c7-9.3,11.9-19.6,15.4-30.3c1.8,15.1,9.9,29.1,21.6,38.9l1.5,1.3c1.7,1.4,4.4,0.7,5.3-1.3c0.4-0.7,0.4-1.7,0.4-2.5
		c0.2-10.5,3.4-20.2,6.2-30c6-22.2-0.1-46.3-13-65.3c1.2,0.6,2.4,1.1,3.6,1.7c2.7,0.9,5.1-1.5,6.1-3.7c1.3-3.9-1.3-7.9-2.5-10.8
		c-2.1-4.7-3.6-9.4-4.3-14.1c-1-5.3,0.8-10.6-1-15.9C181.3,27.7,171.7,20.2,161,16.2z M44.2,89c-11.8,4.4-25.6,2.7-37.1-2
		c-0.3-0.1-1.4-0.6-1.6-0.7c-0.1,0-0.2-0.2-0.2-0.5c0.1-0.7,0.1-0.7,1.7-1.7c8.6-5.3,16.7-12.6,23.5-20.1c8-8.1,17.1-15.1,27.8-19.1
		c18.5-7.2,39.2-7.5,58.2-2c2.2,0.7,4.5,1.5,6.1,2.5c-3.2,1.3-7.1,2.3-10.4,3.6c-9.9,3.9-21.8,12.1-30.9,17.4
		C68.9,73.6,56.9,82.2,44.2,89z M67.9,128c-10.3,5.1-21.8,7.5-33.1,8.8l0,0c-0.1,0-0.2-0.2-0.1-0.2l0.8-1.7
		c17.7-35.1,45.3-68.1,83.7-80.6c1.4-0.4,3.3-1,5.1-1.7c-1.7,1.8-3.3,3.5-4.4,4.8c-8.1,9-15.9,18.8-21.2,29.7
		c-2.8,5.4-4.9,11.2-7.2,16.5C87.2,114.5,78.4,122.9,67.9,128z M109,147.5c-7.3,9.3-16.2,17.2-24.1,25.9l-1.7,1.9
		c-0.1,0.2-0.3,0.4-0.6,0.4c-1-0.2-1.1-0.4-0.9-1.9c2.6-38.1,12.9-78,39.1-106.8c8.7-9.9,20-17.1,31.2-24.1c0.2-0.2,0.6,0.1,0.5,0.2
		c-0.8,11.5-2.7,22.9-5.8,33.9C139.6,102.9,126.1,126.8,109,147.5z M132.7,179.9l-0.7,0.8l-0.4,0.4c-0.7,0.8-2.6,1.2-3.3-0.1
		c-5.3-13.7-6-29.5-0.3-43.2c3.1-7.5,7.9-15.6,11.8-22.9c6.6-13,13-35,18.2-51c1.3,5.4,2,11,2.5,16.5c0.5,11.1,0.7,22.2,0.5,33.4
		C158.6,138.2,149.7,161.7,132.7,179.9z M192.2,146.1c-2.7,10.4-5.5,20.9-5.2,31.7c0,0.7-0.7,1.1-1.3,0.7l-1.4-1.2
		c-5.8-4.9-10.6-11-14.1-17.7c-4.8-9-6.2-18.9-5.4-29.1c0.2-2.4,0.3-4.8,0.4-7.2c2.7-15.7,2.7-32,1-47.9c0-1.3-0.1-2.7-0.1-4
		c0.1,0.1,0.2,0.1,0.2,0.1C186,90.5,198.6,118.7,192.2,146.1z M177.5,41.3c1.3,4.1,0.5,10.4,2.2,14.8c1.4,5.4,4,10.2,6.5,14.8
		c1.2,2.2,2.5,4.6,2.8,6.4c0.1,0.9,0,1.1-0.7,1.8c-0.2,0.2-0.3,0.3-0.5,0.4c-16.2-7.3-26.2-24-29.1-41.1c-0.2-3.2-4.2-4.9-6.7-3
		l-0.8,0.5c-7.8,4.6-17.7,5.8-26.8,4c-3-1.6-6.8-2.7-10-3.5c-2.6-1.4-5.1-3-7.3-5.1c-0.6-0.7-1.4-1.5-1.3-2.4c0.2-1,0.6-1.7,1.6-2.3
		c6.7-3.1,15-2.4,22.3-3.3c9.8-0.2,19.7-4.1,29.3-1.8C167.4,25,174.4,33,177.5,41.3z"/>
	<path class="st1" d="M90.5,42.6c1.8-0.1,3.5,0,5.2-0.4c0.2-0.1,0.2-0.3,0-0.4c-3.5-1.4-8-0.9-11.7-0.7c-5.8,0.3-11.6,1.3-17.2,2.9
		c-10.6,3.2-21.5,8.8-28.9,17.2c-1,1.1,0.7,2.4,1.8,1.6c3.8-2.8,7.5-5.7,11.5-8.2c5.2-3.2,10.8-5.9,16.7-7.9
		c5.2-1.8,10.5-3,15.9-3.7C86,42.8,88.2,42.6,90.5,42.6z"/>
	<path class="st1" d="M107.7,63.7c0.3-0.1,0.2-0.6-0.2-0.5c-6.2,1.8-11.7,5-17,8.6c-5.4,3.7-10.5,7.8-15.2,12.4
		c-9.5,9.2-18.1,19.7-25,31.1c-0.4,0.7,0.5,1.4,1,0.7c8-10.3,15.7-20.8,25-30c4.5-4.4,9.2-8.6,14.4-12.2
		C96.2,70,102,66.9,107.7,63.7z"/>
	<path class="st1" d="M133.7,36.4c-4.2,0.2-8.3,0.5-12.4-0.6c-2-0.5-3.9-1.3-5.7-2.2c-1.8-0.9-3.3-2.3-5.1-3.2
		c-0.2-0.1-0.4,0.2-0.3,0.4c1.2,1.7,3.3,2.8,5.1,3.8c1.9,1,3.8,1.8,5.8,2.4c4,1.1,8.6,2,12.7,0.9C134.7,37.5,134.6,36.4,133.7,36.4z
		"/>
	<path class="st1" d="M146.7,50.8c0.3-0.2,0-0.7-0.3-0.5c-8.5,4.7-16.1,11-22.8,18c-7.7,7.9-13.5,17.1-18.4,27
		c-3,6-5.4,12.2-7.4,18.5c-0.2,0.5,0.6,0.8,0.8,0.3c4.4-10.2,9.6-20.3,15.4-29.7s13.5-17.3,21.9-24.5
		C139.4,56.8,143.1,53.8,146.7,50.8z"/>
	<path class="st1" d="M126.3,115.2c-5.9,8.4-12,16.8-18.2,25c-3.2,4.3-6.6,8.5-10,12.7c-3.3,4.1-6.9,8-10,12.2
		c-0.6,0.9,0.6,2.1,1.4,1.3c3.8-3.5,7-7.5,10.3-11.4c3.5-4.2,6.9-8.6,10.1-13c6.3-8.4,11.9-17.1,17-26.3
		C127.3,115.3,126.7,114.8,126.3,115.2z"/>
	<path class="st1" d="M149.9,98.2c-1.6,6.8-3.8,13.6-6.8,19.9c-2.5,5.4-6,9.9-9.2,14.8c-3.2,4.8-5.3,10.1-6.4,15.7
		c-1.1,5.6-1.8,12.3-0.2,17.8c0.3,0.8,1.5,0.5,1.6-0.3c0.3-3,0.1-6,0.2-9c0.1-3,0.4-5.9,1.1-8.9c1.2-5.7,3.5-11.1,6.7-16
		c6.8-10.4,11.9-21.5,13.8-33.9C150.7,97.9,150,97.8,149.9,98.2z"/>
	<path class="st1" d="M177.1,52c-0.1-2.4-0.1-4.9-0.2-7.3c-0.2-2.4-0.9-4.8-3-6.3c-0.2-0.2-0.5,0.2-0.3,0.4c1.8,1.7,2.1,4.4,2.1,6.8
		c0,2.2-0.4,4.6,0.5,6.7C176.4,52.9,177.1,52.6,177.1,52z"/>
	<path class="st1" d="M185.6,156c-0.1,0.9,1.3,1.3,1.6,0.4c4.4-17.2,7.7-37.2-2-53.2c-0.2-0.4-0.9-0.1-0.7,0.3
		c3.8,7.8,5.1,16.9,4.9,25.5C189.2,138.1,187,147,185.6,156z"/>
</g>
</svg>
