<?xml version="1.0" encoding="utf-8"?>
<!-- Generator: Adobe Illustrator 27.3.1, SVG Export Plug-In . SVG Version: 6.00 Build 0)  -->
<svg version="1.1" id="Layer_1" xmlns="http://www.w3.org/2000/svg" xmlns:xlink="http://www.w3.org/1999/xlink" x="0px" y="0px"
	 viewBox="0 0 346 279" style="enable-background:new 0 0 346 279;" xml:space="preserve">
<style type="text/css">
	.st0{fill:none;}
	.st1{fill:#D19A2C;}
</style>
<g>
	<path class="st0" d="M102.5,182.5c3.1-4.3,6.4-8.5,9.8-12.6c2.2-2.4,4.5-4.8,7-7c-0.2,0.8-0.5,1.6-0.8,2.5c-0.5,1.1-1,2.2-1.4,3.4
		c-2.1,5.2-3.6,10.5-4.7,15.9c-0.9,3.1-1.6,5.9-2,8.4c-0.6,4.6-1,9.8-2.1,14.2c-1.9,8-7.5,15.1-14.4,19.6c-0.7,0.4-1.7,0.1-1.9-0.8
		c-1.8-12.3,0.5-25.6,6.5-36.8C99.7,186.9,101.1,184.7,102.5,182.5z M100.4,215.6c-1.6,2.4-3.5,4.5-5.4,6.6
		c-0.3,0.3,0.2,0.8,0.5,0.5c4.8-3.1,7.9-9.2,9.7-14.5c2.1-5.9,2.9-12.2,3.4-18.4c0.1-0.5-0.6-0.6-0.7-0.1c-1,6-1.8,12-3.8,17.8
		C103.2,210.4,102,213.1,100.4,215.6z"/>
	<path class="st0" d="M135.3,181.4c-0.2-2.3-0.7-4.7-1.2-7.2c0-0.1-0.1-0.2,0-0.3c-0.6-3.2-1.4-6.4-2-9.4c0.9,1.1,1.6,2.5,2.6,3.6
		c15.3,16.9,18.8,41,16.4,63c0,0,0,0.2-0.1,0.2c-4.9-3.7-9.6-7.8-12.9-12.9c-3.4-5.2-5.2-11.4-4.2-17.6
		C134.9,194.6,136,188,135.3,181.4z M148.5,225.8c0.1,0.2,0.4-0.1,0.3-0.2c-2.9-3.5-5.9-6.9-8.2-10.9c-2.2-3.8-3.3-7.7-3.7-12
		c0-0.3-0.5-0.3-0.5,0c-0.2,4.1,1.3,8.2,3.2,11.7C141.9,218.6,145.1,222.3,148.5,225.8z"/>
	<path class="st0" d="M114.5,185.2c2.4-7.9,6-17,8.1-23.4c0.6-1.1,1.2-2.3,1.8-3.5c0.4-0.7,0.5-1.4,1.2-0.8
		c2.5,4.1,4.2,8.4,5.5,12.8c0.2,0.7,0.4,1.5,0.4,1.9c0.5,2.3,1,4.6,1.3,6.9c2.1,18.9-4.7,39-13.9,55.6l-1.4,2.4
		c-0.4,0.9-1.1,0.9-1.3,0.2C111.8,220.6,110.9,202.5,114.5,185.2z M123.2,218.1c1.3-2.8,2.4-5.7,3.3-8.7c3.8-12.4,4.8-26.1,1.7-38.7
		c-0.1-0.2-0.4-0.1-0.3,0.1c1.1,8.1,1.4,16.3,0.4,24.4c-0.9,7.7-3.1,15.2-6,22.5C122,218.3,122.9,218.7,123.2,218.1z"/>
	<path class="st0" d="M137.9,168.5c-0.8-0.9-1.6-1.9-2.3-2.9c0.1,0,0.1,0,0.2,0c0.2,0,0.6,0.1,0.8,0.2c0.5,0.1,1,0.3,1.6,0.4
		c0.6,0.2,1.1,0.3,1.7,0.4c9.1,2.5,17.5,6.9,24.3,13.4c6.7,5.8,9.7,14.1,12.3,22.4c1.1,3,2.7,5.7,4.4,8.4c0,0.1,0,0.1,0,0.2
		c-10.4-1.1-20.5-6.7-25.8-15.8c-3.1-5.1-6.3-10.1-9.5-15C143.3,176,140.9,172.1,137.9,168.5z M153.6,176.4c1.9,1.2,3.8,2.4,5.6,3.8
		c3.6,2.8,7.2,5.8,10.5,9c0.1,0,0.2-0.1,0.2-0.1c-3.3-3.4-6.4-6.9-10-9.9c-1.9-1.5-3.9-3-6-4.3c-1.9-1.2-4-2.4-6.2-2.8
		c-0.5-0.1-0.8,0.5-0.4,0.9C149.2,174.3,151.5,175.1,153.6,176.4z"/>
	<path class="st0" d="M112.2,165c-7,8.6-13.2,17.9-19.1,27.2c-3,4.8-6.9,8.8-12,11.2c-4,2-8.5,3.2-13,3.7c-0.4,0.1-0.7-0.3-0.7-0.6
		c0-0.2,0.3-0.5,0.4-0.7c3.5-4.6,5.3-10.2,7.5-15.3c6.1-14.3,21.2-23,36.1-25.4C111.6,165.1,111.8,165.1,112.2,165z M97.4,172.3
		c-5.1,1.9-9.6,5-13.2,9.1c-1.8,2-3.4,4.2-4.7,6.5c-1.3,2.3-2.8,4.9-3,7.6c-0.1,0.5,0.6,0.6,0.8,0.2c1.3-2.3,2-4.8,3.2-7.1
		c1.3-2.3,2.7-4.4,4.5-6.3c3.5-4,7.8-7.3,12.6-9.7C97.7,172.5,97.6,172.2,97.4,172.3z"/>
	<path class="st0" d="M255.4,168c-6.2-3.3-13.2-5.7-19.9-8.3c1.1-0.1,2.1-0.1,3.1-0.3c32.6-5.8,65,8.2,90.3,27.6
		c0.2,0.2,0.5,0.4,0.5,0.4c0.1,0.1,0.1,0.4-0.1,0.5h-0.1L329,188l-0.8,0.3c-8.1,2.9-16.7,5-25.3,5c-9.1,0-18.2-2.8-25-8.8
		C271,178.4,263.8,172.1,255.4,168z M289.2,168.9c7.3,2.9,14.3,6.6,21.4,10.1c0.4,0.2,0.8-0.4,0.4-0.7c-3.8-2.4-7.7-4.5-11.8-6.5
		c-7.2-3.4-14.7-6.4-22.4-8.3c-7.5-1.9-15.7-3.1-23.5-1.9c-0.2,0.1-0.2,0.4,0,0.4c4.4,0.1,8.8,0.2,13.1,0.8
		C274.3,163.8,281.9,166,289.2,168.9z"/>
	<path class="st0" d="M333,142.6c-2.4,2.9-5.3,5.6-8.4,7.9c-7.1,5.3-16,8.7-24.8,7.2c-9-0.9-18.1-1.8-27.1-2.6
		c-9.2-0.7-18.2-2.1-27.5-1.4c-3,0.2-6.4,1-9.4,1.1c1.7-3.1,5.9-6.5,9.1-8.9c7.1-5.3,15.1-9.6,23.7-12.1c12.9-4,26.6-3.2,39.2,1.4
		c4.2,1.5,8.6,3.3,13,4.2c3.7,0.9,7.9,1.5,11.6,2C332.8,141.5,333.3,142.2,333,142.6z M301.4,136.3c-2.7-1.1-5.6-1.7-8.4-2.1
		c-7.4-1-15-0.7-22.3,1.2c-3.4,0.8-6.6,2-9.7,3.4c-2.2,1-4.8,2.1-6.6,3.8c-0.1,0.1,0,0.3,0.2,0.2c2.7-0.8,5.3-2.3,8-3.3
		c6.9-2.5,14.3-3.8,21.6-3.8c5.8,0,11.2,1,16.8,2.1C301.8,137.9,302.1,136.7,301.4,136.3z"/>
	<path class="st0" d="M219.6,90.1c-2.7,1.1-5.6,2-8.5,2.5c6.9-8.2,14.9-15.7,24.7-20.1c2.6-1.4,10.9-3.1,15.4-5.8
		c-4.6,3.9-9.5,7.7-14,11.8C232,83.3,226.3,87.8,219.6,90.1z"/>
	<path class="st0" d="M200.8,67.2c10.2-10.3,26.2-12,39.8-9.1c2.2,0.5,4.5,1.1,6.6,1.8c-6-0.7-13.2-0.5-19.1,0.8
		c-11.6,3.3-25,10.2-27.5,23c-0.2,0.7,0.3,1.4,1,1.6c0.5,0.1,1,0,1.3-0.4c6.1-7.2,13.6-13.4,22.6-16.7c8.9-3.3,18.5-5.2,27.9-4.9
		h0.1v0.1c0,0.7-0.7,1.3-1.4,1.8c-5.1,3.3-11.2,4.1-16.7,6.3c-11.3,4.7-20.4,13.3-28.6,22.2c-0.9,0.9,0.1,2.5,1.3,2.2
		c7.8-1.6,15.3-4.6,21.8-9.4c8.4-6.7,16-13.9,24.2-20.8c-0.1,0.2-0.2,0.6-0.2,0.6c-4.9,13.4-14,25.9-26.4,33.2
		c-4.3,2.6-9.1,4-14,4.2c-1.3,0-1.5,2-0.2,2.2c13.5,3.3,26.7-5.7,33.6-16.9c4-5.8,6.2-12.6,8.5-19.1c-0.1,6.5-1.1,13-3.5,19.1
		c-4.5,13.3-16.4,24.7-30.6,26.2c-9.1,0.9-19.2-2.3-24.6-9.8C188.6,94.1,190.5,76.8,200.8,67.2z M205.8,84.9
		c6.8-6.7,14.6-12,23.5-15.7c0.5-0.2,0.2-0.9-0.2-0.7c-9,3.1-17.4,8.7-23.6,16.1C205.1,84.8,205.6,85.1,205.8,84.9z M231.1,95.6
		c4.5-2.8,8.4-6.7,11.6-10.9c1.7-2.2,3.3-4.4,4.7-6.8c1-1.8,2-3.7,2.5-5.7c0-0.3-0.3-0.3-0.5-0.1c-1.1,1.8-1.8,3.8-2.8,5.7
		c-1.3,2.4-2.7,4.8-4.4,6.9c-3.2,4.2-7.2,7.5-11.4,10.6C230.6,95.4,230.8,95.7,231.1,95.6z M194.3,86.2c0.5-3.6,1.4-7,3.1-10.3
		c1.7-3.2,4.1-6.2,6.7-8.6c0.1-0.1,0-0.3-0.1-0.2c-6,4.3-10,11.8-10,19.1C194,86.4,194.3,86.4,194.3,86.2z"/>
	<path class="st0" d="M216.2,166.1l-1-1.7c-0.3-0.5-0.7-1.3-0.7-1.3c-0.1-0.3,0.2-0.9,0.7-0.8c10.3,0.7,20.7,2.1,30.3,6
		c28.1,11.1,48.8,35.5,63.4,61.3c1,1.3,0.2,2.5-0.9,2.1l-1.8-0.7c-2.2-0.9-8.8-3.1-11.1-3.9C262.9,216,233.6,195.4,216.2,166.1z
		 M277.8,216.9c3.9,2,7.7,3.9,11.7,5.6c3.6,1.6,7.2,3.3,11,4.5c0.7,0.3,1.2-0.8,0.5-1.1c-3.6-1.8-7.3-3.2-10.9-4.9
		c-3.9-1.7-7.7-3.6-11.5-5.5c-7.1-3.6-14.2-7.3-21.2-11.3c-0.3-0.1-0.5,0.3-0.3,0.5C263.8,209.2,270.7,213.3,277.8,216.9z
		 M221.6,166.4c3.5,0.8,7,1.5,10.4,2.4c8.3,2.1,16.4,4.9,23.7,9.4c7.4,4.6,14.5,10,21.1,15.7c0.3,0.2,0.6-0.2,0.4-0.4
		c-3.7-3.7-7.6-7.2-11.8-10.5c-6.9-5.2-14.2-9.6-22.3-12.4c-6.9-2.4-14-4-21.3-4.5C221.3,166,221.3,166.3,221.6,166.4z"/>
	<path class="st0" d="M233.8,151.4c-5.8,4.6-13.1,7.2-20.5,6.7l-0.7-0.1c-2.1-0.4-3.9,1.8-3.2,3.8c3.9,13.1,2.1,28.3-7,39.1
		c-0.8,0-1.8-0.4-2.1-1.3c-1-5.6,0.7-12-0.8-17.9c-0.3-3.7-3.1-7.6-3.5-11.1c-0.6-7.1,1.8-15.1,6.5-20.6c2.8-2.6,6.1-3.8,9.8-4.9
		c3.9-1.2,7.7-2.5,11.5-3.9c5.6-1.8,11.1-5.2,17-5.3c4.6,0.6,0.8,6.4-0.6,8.6c-0.4,0.6-0.8,1.1-1.2,1.6c-0.6,0.5-1.2,1-1.8,1.5
		C236.5,148.5,235,149.8,233.8,151.4z M198.3,167.2c-0.9,1.5-0.6,3.3-0.1,4.8c0.3,1,0.8,1.8,1.2,2.8c0.5,0.9,0.9,2,1.2,2.9
		c0.1,0.3,0.7,0.2,0.6-0.1c-0.2-2-1.4-3.6-2.2-5.4c-0.7-1.5-1.1-3.3-0.5-4.9C198.7,167.1,198.4,167,198.3,167.2z M240.4,139.9
		c0-0.2-0.2-0.2-0.3-0.1c-0.9,1.2-1.6,2.7-2.5,4c-1,1.4-2.1,2.5-3.4,3.6c-2.5,2.1-5.4,3.4-8.4,4.7c-0.5,0.2-0.3,0.9,0.2,0.8
		c3.3-0.7,6.3-2.8,8.8-5c1.3-1.2,2.4-2.4,3.4-3.9C239.1,142.8,240.1,141.4,240.4,139.9z"/>
	<path class="st0" d="M214.8,186.3c0.7,1.5,1.3,3.1,2,4.6c4,11.2,9.2,21.9,16,31.5c1.1,1.9,2.1,3.8,3.2,5.7
		c7.6,12.3,7.7,27.9,1.3,40.8c-0.3,0.6-1.3,0.6-1.5-0.1c-1.9-3.9-4.1-7.6-6.6-11c-7.7-9-15.6-18.1-17.8-30
		C208,214,209.6,199.4,214.8,186.3z M212.2,216.1c-1.3,14.4,7.7,27.1,16.5,37.6c0.4,0.5,1.2-0.1,0.8-0.6c-4.3-6-9-11.6-12.2-18.3
		c-2.8-5.7-4.7-12.2-4.7-18.6C212.6,215.9,212.2,215.9,212.2,216.1z"/>
	<path class="st0" d="M221,191.2c-1.5-4.3-3-8.8-4-13.4c9.1,9.4,21.7,23.5,31,30.6c8.9,6.4,18.8,12.2,24.2,22
		c3.3,5.6,5.2,12.1,6,18.7c0.1,0.9,0.4,2-0.4,2.7c-0.7,0.5-1.5,0.6-2.1,0.4c-8.1-3.1-15.7-7.3-22.6-12.6
		c-8.4-6.5-15.2-14.6-20.6-23.6c-1.8-3.5-3.6-6.8-5.2-10.4C225.2,200.8,223,196,221,191.2z M243,210.3c2.3,2.2,4.9,4.2,7.6,6
		c2.6,1.8,5.4,3.2,8,5c3.3,2.3,6.2,5.3,8.5,8.6c2.4,3.4,3.8,7.1,5.8,10.8c0.2,0.4,1,0.1,1-0.4c-0.9-4.4-3.4-8.5-6.1-12.1
		c-2.4-3.1-5.3-5.9-8.6-8.1c-2.7-1.8-5.6-3.1-8.4-4.8c-6.1-3.9-11.3-9.1-15.8-14.7c-0.2-0.2-0.6,0-0.4,0.3
		C237.3,204.3,239.9,207.5,243,210.3z"/>
	<path class="st0" d="M189.3,95.7c1,1,0.8,3.4,1.3,5.1c1.2,3.7,3.5,6.8,6.2,9.3c1.2,1.2,2.8,2.6,3.3,4c-2.9,0.7-6.9,0-9.5-1.5
		C184.4,108.7,185,100.8,189.3,95.7z M188.2,106.5c-0.1-0.1-0.3,0-0.3,0.1c0,1.3,0.9,2.5,1.8,3.3c0.9,0.9,2.1,1.7,3.4,1.8
		c0.4,0,0.5-0.5,0.2-0.6c-0.5-0.3-1.1-0.5-1.6-0.8s-1-0.7-1.4-1.1C189.3,108.5,188.9,107.4,188.2,106.5z"/>
	<path class="st0" d="M10.9,179.7c0,0.1,0.1,0.2,0.1,0.1c15.1-12.9,28.7-27.7,40.4-43.8c8.8-11.3,16.8-23.3,22.1-36.5
		c2.7,3.4,4.6,7.6,4,11.9c-0.6,4.6-4.6,7.8-5.9,12.3c-0.9,2.4-1.5,4.7-1.9,7.2c-0.7,3.7,0,7.2-0.4,10.7c-0.5,5.1-3.8,10.1-8.8,11.9
		c-4.8,1.8-9.2,5.5-11.4,10.1c-1.9,3.7-2.8,7.7-4.6,11.3c-3.3,3.7-8.1,5.7-12.8,7.6c-4.6,2-8.6,4.8-12.2,8.2
		c-1.8,1.7-3.2,3.8-4.8,5.3c-3.4,3-7.6,4.9-12.1,6.2c-5.8,1.8-11.2,4.8-16.1,8.6c1.2-3.2,1.9-6.6,2.3-9.9c0.7-6.4-1.1-13.4,2.8-19.1
		c3.8-5.6,7.6-11.6,9.5-18.3c2.3-8.4,3.6-17.3,9.7-23.6c1.7-1.4,3.7-2,5.6-3.4c6.2-4.5,7.1-12.2,8.7-19l0,0v-0.1
		c0.3-0.9,0.8-1.9,1.3-2.7c1.5-2.6,3.8-5.6,6.4-6.7c3.9-1.5,9.6-1.5,13.7-3.7c4.5-1.7,8.5-5.6,11.9-8.6c3.1-2.6,7.5-2.5,10.8-0.2
		c0.4,0.2,0.7,0.6,1.1,0.9c-7.7,12.4-15,25.1-22.6,37.3C36.8,149.8,24.4,165.3,10.9,179.7z"/>
	<path class="st0" d="M148.7,165c-2.7,0.8-5.3,0.9-8,0.4c-0.9-0.2-1.8-0.5-2.6-0.7c-5.2-1.7-9.5-5.7-11.6-10.8
		c-0.4-1-1.9-1.2-2.5-0.2c-4,4.8-9.6,8.5-15.8,9.5c-3,0.5-5.9,0.5-8.8-0.1c-0.2,0-0.4-0.4-0.2-0.6c3-6.3,8-11.7,14.3-14.8
		c4.7-2.7,9.5-4.5,14.8-3.1C138.4,146.7,145.6,155.7,148.7,165z M135.7,159.4c-2.6-1.9-4.4-4.5-6.6-6.9c-0.4-0.4-1,0-0.7,0.5
		c2.9,4.8,8.4,10.8,14.8,9.4c0.5-0.1,0.4-0.7-0.1-0.7C140.5,161.9,137.8,160.9,135.7,159.4z"/>
	<path class="st0" d="M141,65.4c6.9-5.1,14.8-8.5,21.9-13.3c6.6-5.2,13.7-11.9,17.5-18.8c-5.4,6.6-11.6,12.5-18.7,17.1
		c-7.3,4.3-15.3,7.5-22.3,12.5c-7.3,4.4-13.5,10.9-19.9,16.1c-2.6,1.9-5.3,3.6-8.2,5c-0.1,0-0.2-0.1-0.3-0.2c-0.2-1.3,1.4-4,2.5-5.4
		c3.3-4.3,6.9-8.5,11.4-11.6c2.2-1.6,4.7-2.9,7.2-4.8c6.2-4.4,9.2-11.9,11.3-18.9c0.8-2,2.8-3.5,4.8-4.3c2.4-0.9,5.4-0.6,8.1-1.4
		c4.6-1.1,8.9-3.5,11.9-7.3c1.9-2.4,3.3-4.3,5.5-5.7c4.8-3.3,9.9-2.5,15.6-2.7c7.9-0.6,14.7-5.4,19.5-11.4
		c-0.6,4.6-1.8,9.2-3.8,13.5c-2.4,5.2-5.8,10.1-10.8,13.1c-2.7,1.6-5.3,3.8-6.9,6.6c-1.7,2.6-1.7,5.9-3,8.4c-1.2,2.2-3.3,4.2-5.8,5
		c-1.2,0.4-2.9,0.7-4.4,1.4c-4.5,2-7.5,6.3-9.4,10.6c-2.5,5-7.9,7.8-13.2,8.9c-2.9,0.7-5.3,0.1-8.4-0.2c-3.2-0.3-6.5,0-9.6,1.1
		c-2.9,1-5.4,2.9-8.2,3.9c-2.5,1-5.3,1.5-8.2,1.8c-0.5,0.1-1.1,0.1-1.8,0.2c1.9-1.1,3.7-2.3,5.4-3.7C127.7,75.6,133.7,70,141,65.4z"
		/>
	<path class="st1" d="M191.6,110.4c0.5,0.3,1,0.5,1.6,0.8c0.3,0.1,0.2,0.6-0.2,0.6c-1.3-0.1-2.5-0.9-3.4-1.8s-1.8-2.1-1.8-3.3
		c0-0.2,0.2-0.3,0.3-0.1c0.7,1,1.1,2,2.1,2.9C190.7,109.7,191.2,110.1,191.6,110.4z"/>
	<path class="st1" d="M204,67.1c0.1-0.1,0.3,0.1,0.1,0.2c-2.7,2.4-5.1,5.4-6.7,8.6c-1.7,3.2-2.5,6.7-3.1,10.3c0,0.2-0.4,0.2-0.4,0
		C194,78.8,198,71.4,204,67.1z"/>
	<path class="st1" d="M205.4,84.6c6.2-7.3,14.6-13,23.6-16.1c0.5-0.2,0.8,0.5,0.2,0.7c-8.9,3.7-16.7,8.9-23.5,15.7
		C205.6,85.1,205.1,84.8,205.4,84.6z"/>
	<path class="st1" d="M230.9,95.2c4.2-3,8.2-6.4,11.4-10.6c1.7-2.2,3-4.5,4.4-6.9c1-1.9,1.7-3.9,2.8-5.7c0.2-0.2,0.5-0.2,0.5,0.1
		c-0.5,2-1.5,3.9-2.5,5.7c-1.4,2.4-2.9,4.6-4.7,6.8c-3.2,4.2-7.1,8-11.6,10.9C230.8,95.7,230.6,95.4,230.9,95.2z"/>
	<path class="st1" d="M334.6,144.2l-0.3,0.3l-0.6,0.6c-5.5,6-12.4,10.8-20.2,13.3c-4.3,1.7-9.3,1.7-13.9,1.2
		c-7.8-0.6-15.5-1.2-23.2-1.7c15.9,4.2,31,11.7,44.5,20.8c3.3,2.4,6.8,4.7,10,7.4c0.9,1.1,0.3,2.9-1,3.4l-0.2,0.1l-0.8,0.3
		c-3.9,1.4-7.8,2.7-11.8,3.5c-10.6,2.6-22.2,2.5-32.1-1.8c9.3,10.1,17.2,21.5,24.1,33.2l1.9,3.5c0.3,0.4,0.9,1.5,0.8,2.4
		c-0.1,2.1-2.2,3.7-4.3,3.3c-9.9-1.6-19.3-5.5-28.5-9.4c-5.4-2.4-10.7-5.1-15.8-8.1c9.2,8,15.2,17,16.7,32.3l0.2,1.8
		c0.3,2.7-2.4,5-5,3.9c-4.1-1.5-8.2-3.3-12-5.4c-8.6-4.4-15.9-10.3-22.3-17.2c0.8,2,1.6,4,2.2,6.2c2.5,10,0.6,20.6-3.4,30
		c-0.4,1.1-1,2.6-2.4,2.8c-1.1,0.3-2.3-0.4-2.8-1.3c-2-3.7-4.2-7.2-6.8-10.5c-8.2-8.9-16.4-18.2-19.2-30.5
		c-2.5-9.6-2.8-19.9-1.1-29.8c-0.9,1.2-1.9,2.5-2.8,3.7c-0.2,0.4-0.9,0.7-1.3,0.8c-5.8,0.5-5.6-5.5-5.6-9.3c0-4-0.5-7.8-1.6-11.5
		c-1-4-4-7.1-4.5-11.3c-0.9-6.6,1.2-13.1,4.9-18.5c0-0.1-0.1,0-0.1-0.1c-12.9-13.2-27.4-24.9-43.1-34.6c-11.3-7-23.3-12.8-35.7-17.6
		c7.6,12.4,11.9,27,10.7,41.6c0.3,0,0.6,0.1,0.9,0.1c10.8,2.4,19.8,11.5,21.3,22.5c0.1,0.6-0.2,1.3-0.9,1.6
		c-1.2,0.3-2.3,0.6-3.5,0.7c12.9,4.7,24.6,13.5,29.6,26.4c1.9,5.5,3.5,11,6.8,15.9c1.4,1.7,0.1,4-2,3.6l-1.1-0.2
		c-10.3-1.8-20.2-7.5-25.4-16.6c-1.5-2.5-3-5-4.6-7.5c4.7,13.3,5.5,28.2,4.1,42.2c0,0.2-0.1,0.8-0.1,0.9c-0.1,1.6-2.2,2.1-3.2,1.2
		c-2.4-1.8-4.8-3.7-7-5.8c-5.2-4.9-9.5-11.4-10.8-18.5c-2.9,10.5-7.5,20.6-12.8,29.6c-0.4,1.2-2.1,2.2-3.4,1.5
		c-0.7-0.3-1.2-1-1.4-1.6c-0.8-3.1-1.5-6.2-2.1-9.4c-1.4-7.2-2.1-14.7-2.2-22.2c-0.1,0.4-0.2,0.8-0.3,1.2c-2.1,8-7.4,15-14.2,19.7
		c-0.8,0.5-1.6,1.2-2.6,1.1c-1.1-0.1-2.1-0.8-2.4-1.9c-1-6.6-0.9-13,0.1-19.5c0.7-4.3,1.8-8.5,3.4-12.6c-5.6,8-15.1,12.9-24.8,13.9
		l-1,0.1c-1,0.1-2.1-0.9-1.9-1.9c0.1-0.4,0.4-0.9,0.6-1.2c3.4-4.7,5.2-9.8,7.3-15.2c4.9-12,16-20.6,28.1-24.9
		c-0.7,0-1.6-0.1-2.3-0.2c-0.9-0.1-2-0.3-2.3-1.3c-0.5-0.8,0.1-1.9,0.4-2.6c3-6.3,8-11.8,14.2-15.1c4-2.6,9.1-4.6,14-4.1
		c0.4-15.9-5.4-31.2-15.1-43.5c-11.1-3.9-22.5-6.8-34.1-8.9c-0.6,1.9-1.2,3.8-2,5.7c4.4,4.6,7,11.1,6.2,16.8c-0.3,2.7-1.6,5.3-3,7.4
		c-2.8,3.8-4.1,7.8-4.9,12.3c-0.7,3.3,0,7-0.4,10.5c-0.5,5.3-3.5,10.2-7.8,13.3c-3,2-6.6,2.5-9.2,5c-4.6,3.6-5.7,9.5-8,14.6
		c-0.4,1.2-1.5,2.8-2.4,3.4c-3.7,3.4-8.4,5.4-12.9,7.2c-4.2,1.7-8,4.4-11.4,7.5c-3.1,3.3-6.7,7.4-11.3,9.2c-4.5,2.1-9,2.7-13.4,4.9
		c-3.7,1.7-7.2,3.9-10.4,6.4c-0.4,0.3-0.8,0.6-1.3,0.9c-0.4,0.3-1,0.3-1.3,0.2c-0.2-0.2-0.3-0.8-0.2-1.2c0.1-0.5,0.1-0.5,0.2-0.7
		l0.3-0.7c1.2-3.6,2.1-7.4,2.4-11.2c0.4-6.8-1.5-14.1,2.6-20.3c3.6-5.7,7.1-11.3,8.8-17.7c1.7-7.5,3.5-15.9,7.9-22.7
		c1.9-3.1,5.5-4.8,8.4-6.6c5.4-3.8,5.9-12.9,7.3-17.3c1.4-3.5,3.5-6.9,6.3-9.5c4.7-4.7,11.7-3.3,17.1-6.2C52,98.2,56,89.7,64,89.9
		c3.2,0.1,6.2,1.3,8.8,3.2c0.8-1.2,1.6-2.5,2.4-3.7c-27-4.5-54.9-4.1-81.8,1.5c-6.4,1.1-7.9-8.1-1.7-9.3
		c36.6-6.8,74.5-4.1,109.6,6.9c2-0.6,4.1-1.4,6.1-2.2c-2.5-5.5,4.9-12.7,8.2-16.8c5.4-6.6,14.3-9.3,18.7-16.6
		c2.4-3.5,3.1-7.4,4.8-11.4c2-4.7,7.5-7.6,12.4-7.6c5.2-0.2,10.2-2.1,13.7-6c1.8-2.1,4-4.9,6.6-6.3c5.1-3.5,11.9-2.7,17.5-2.6
		C197,18.2,204,13,209,6.5c0.5-0.8,1.9-0.3,1.7,0.6c-0.3,6.1-1.6,12.1-4,17.7c-1.2,2.8-2.7,5.5-4.6,8c-3.2,5.1-9.8,7-12.8,12.1
		c-1.5,2.6-1.4,5.6-2.8,8.4c-1.6,3-4.2,5.5-7.4,6.5c-4.3,0.9-7.7,3-9.9,6.8c-1.5,2.5-2.6,5.7-4.7,7.9c-5.6,5.9-14.2,8.3-22,6.8
		c-6.1-0.7-10.7,2.4-15.9,5c-3,1.3-6.2,1.8-9.2,2.3c-2.7,0.3-6,0.6-8.4-0.7c-1.3,0.6-2.6,1.1-3.9,1.6c22.2,7.5,43.2,18.2,61.9,32.1
		c3.7-0.2,7.3-1.1,10.6-2.8c3.2-1.7,6.2-4.1,8.5-7c-4.6-4.5-3.7-11.4,1-16.9c0.5-0.7,1.3-1.2,2.1-1.1c-0.7-5.2-0.1-10.6,1.6-15.5
		c5-14.6,20.5-23.1,35.4-23.2c7.4-0.3,14.8,1,21.7,3.4c1.3,0.4,2.6,0.9,3.8,1.5c0.8,0.2,1.2,1.1,1,1.8c-0.1,0.5-1,1.1-1.6,0.9
		c-0.1,0-0.6-0.1-0.6-0.1c-9.6-1.5-19.8-1.3-28.8,2.9c-6.8,3-14.2,7.6-17.3,14.5c6-5.5,12.8-10.1,20.5-12.6
		c9.2-3.1,18.9-5.1,28.6-4.6c0.2,0,0.4,0,0.5,0.3c0.2,0.7-0.1,1.3-0.4,1.9c0.3-0.3,1.1-0.2,1.2,0.4c0.1,0.4-0.2,1.1-0.3,1.4
		c-5.9,15.8-17.3,31.3-33.5,37.7c12.6-0.8,22.8-11.8,28.2-22.7c2.2-4.6,3.7-9.6,5.7-14.4c0.1-0.2,0.2-0.4,0.5-0.4c1.1,0,1,1,1,1.8
		c0.5,7.1-0.5,14.4-3,21.1c-4.6,14-17.2,26.2-32.2,27.8c-6.6,0.6-13.6-0.6-19.3-3.9c0.2,0.6,0.2,1.2-0.3,1.8c-0.7,1-2.1,1.1-3,1.1
		c-3.2-0.1-6.4-0.7-9.2-2.3c-0.8-0.5-1.6-0.9-2.3-1.5c-3.7,5.8-9.6,10-16.3,11.9c9.8,7.5,18.9,15.9,27.2,25.1c0.6-0.7,1.1-1.3,1.7-2
		c2.6-3.6,7.4-4.9,11.5-5.7c3.9-0.9,7.8-1.8,11.7-2.9c5.9-1.4,11.5-4.5,17.8-4.5c4.4,0.7,4.1,4.4,2.3,8.2
		c7.3-5.4,15.5-9.6,24.3-12.1c13.5-3.9,28-2.9,41,2.1c7.9,3.4,16,5.5,24.5,6.7C335.1,140.1,336,142.6,334.6,144.2z M155,195.1
		c5.3,9.1,15.4,14.7,25.8,15.8c0.1-0.1,0.1-0.1,0-0.2c-1.7-2.6-3.2-5.5-4.4-8.4c-2.5-8.2-5.6-16.6-12.3-22.4
		c-6.8-6.4-15.3-10.9-24.3-13.4c-0.5-0.1-1.1-0.3-1.7-0.4c-0.5-0.1-1-0.3-1.6-0.4c-0.2,0-0.6-0.1-0.8-0.2c-0.1,0-0.1,0-0.2,0
		c0.7,1,1.5,2,2.3,2.9c3,3.6,5.4,7.5,7.6,11.5C148.7,185,151.9,190.1,155,195.1z M125.2,155.3L125.2,155.3
		C125.1,155.2,125.1,155.2,125.2,155.3L125.2,155.3z M151,231.4c0-0.1,0.1-0.2,0.1-0.2c2.4-22.1-1.1-46.2-16.4-63
		c-1-1.2-1.7-2.5-2.6-3.6c0.6,2.9,1.4,6.1,2,9.4c0,0.1,0.1,0.2,0,0.3c0.5,2.5,0.9,5,1.2,7.2c0.8,6.5-0.3,13.2-1.3,19.4
		s0.7,12.4,4.2,17.6C141.4,223.6,146.1,227.8,151,231.4z M116.3,237.5c0.2,0.6,0.9,0.7,1.3-0.2l1.4-2.4c9.1-16.6,16-36.7,13.9-55.6
		c-0.3-2.3-0.8-4.6-1.3-6.9c-0.1-0.5-0.2-1.2-0.4-1.9c-1.2-4.4-3-8.7-5.5-12.8c-0.6-0.6-0.8,0.1-1.2,0.8c-0.6,1.2-1.3,2.3-1.8,3.5
		c-2.1,6.3-5.7,15.5-8.1,23.4C110.9,202.5,111.8,220.6,116.3,237.5z M92,226c0.2,0.7,1.2,1.1,1.9,0.8c6.9-4.5,12.5-11.4,14.4-19.6
		c1-4.4,1.4-9.7,2.1-14.2c0.4-2.5,1.1-5.3,2-8.4c1.1-5.4,2.7-10.7,4.7-15.9c0.4-1.2,0.9-2.3,1.4-3.4c0.3-0.8,0.5-1.6,0.8-2.5
		c-2.4,2.2-4.8,4.6-7,7c-3.4,4.1-6.6,8.4-9.8,12.6c-1.4,2.2-2.7,4.4-4,6.7C92.5,200.3,90.3,213.6,92,226z M75.3,190.5
		c-2.1,5.2-4,10.7-7.5,15.3c-0.1,0.1-0.4,0.6-0.4,0.7c-0.1,0.4,0.3,0.7,0.7,0.6c4.5-0.5,9-1.7,13-3.7c5.1-2.4,9-6.5,12-11.2
		c5.9-9.3,12.1-18.6,19.1-27.2c-0.3,0-0.6,0.1-0.7,0.1C96.6,167.5,81.5,176.2,75.3,190.5z M113.5,147.8c-6.3,3.2-11.3,8.5-14.3,14.8
		c-0.2,0.2,0,0.6,0.2,0.6c2.9,0.5,6,0.6,8.8,0.1c6.3-1,11.8-4.7,15.8-9.5c0.6-1,2.1-0.9,2.5,0.2c2.1,5.2,6.5,9.2,11.6,10.8
		c0.9,0.2,1.7,0.4,2.6,0.7c2.6,0.4,5.3,0.4,8-0.4c-3.1-9.4-10.3-18.3-20.4-20.3C122.9,143.3,118.1,145.1,113.5,147.8z M69.3,95.4
		c-3.3-2.3-7.7-2.4-10.8,0.2c-3.4,3-7.4,6.8-11.9,8.6c-4,2.2-9.8,2.2-13.7,3.7c-2.6,1.2-4.8,4.2-6.4,6.7c-0.5,0.8-1,1.9-1.3,2.7v0.1
		l0,0c-1.6,6.7-2.6,14.5-8.7,19c-1.9,1.4-4,2-5.6,3.4c-6.2,6.3-7.4,15.2-9.7,23.6c-2,6.6-5.7,12.7-9.5,18.3
		c-3.9,5.7-2,12.6-2.8,19.1c-0.4,3.4-1.2,6.7-2.3,9.9c4.9-3.7,10.3-6.8,16.1-8.6c4.4-1.3,8.7-3.2,12.1-6.2c1.5-1.5,3-3.5,4.8-5.3
		c3.6-3.4,7.6-6.2,12.2-8.2c4.7-1.9,9.5-3.9,12.8-7.6c1.8-3.6,2.7-7.6,4.6-11.3c2.3-4.6,6.7-8.3,11.4-10.1c5-1.8,8.3-6.8,8.8-11.9
		c0.3-3.5-0.3-7,0.4-10.7c0.5-2.5,1-4.8,1.9-7.2c1.5-4.5,5.4-7.7,5.9-12.3c0.6-4.3-1.2-8.5-4-11.9c-5.3,13.2-13.3,25.3-22.1,36.5
		c-11.8,16-25.3,30.8-40.4,43.8c-0.1,0.1-0.2-0.1-0.1-0.1c13.5-14.5,25.9-29.8,36.9-46.2c7.6-12.1,14.8-24.9,22.6-37.3
		C70,96,69.7,95.7,69.3,95.4z M117.3,84.5c2.9-0.3,5.7-0.8,8.2-1.8c2.8-1.1,5.2-3,8.2-3.9c3.1-1.1,6.4-1.4,9.6-1.1
		c3,0.4,5.5,0.9,8.4,0.2c5.3-1.1,10.7-4,13.2-8.9c1.9-4.3,4.9-8.6,9.4-10.6c1.6-0.7,3.2-1,4.4-1.4c2.5-0.8,4.6-2.8,5.8-5
		c1.3-2.6,1.4-5.8,3-8.4c1.6-2.8,4.2-5,6.9-6.6c5-3,8.5-7.9,10.8-13.1c2-4.3,3.2-8.9,3.8-13.5c-4.8,6-11.7,10.9-19.5,11.4
		c-5.7,0.3-10.8-0.6-15.6,2.7c-2.2,1.3-3.6,3.2-5.5,5.7c-3,3.7-7.4,6.1-11.9,7.3c-2.7,0.7-5.7,0.4-8.1,1.4c-2,0.8-4,2.3-4.8,4.3
		c-2.1,7-5.1,14.5-11.3,19c-2.5,1.9-5,3.3-7.2,4.8c-4.5,3.1-8.2,7.3-11.4,11.6c-1.1,1.4-2.8,4.1-2.5,5.4c0.1,0,0.2,0.1,0.3,0.2
		c2.8-1.5,5.6-3.1,8.2-5c6.5-5.3,12.7-11.7,19.9-16.1c7-4.9,15-8.1,22.3-12.5c7.1-4.6,13.3-10.5,18.7-17.1
		c-3.9,6.8-10.9,13.6-17.6,18.8c-7.1,4.8-14.9,8.3-21.9,13.3c-7.3,4.6-13.3,10.2-20.2,15.6c-1.7,1.3-3.6,2.5-5.4,3.7
		C116.1,84.6,116.7,84.6,117.3,84.5z M221.2,115.1c14.3-1.5,26.1-12.8,30.6-26.2c2.4-6.1,3.4-12.6,3.5-19.1
		c-2.3,6.5-4.5,13.3-8.5,19.1c-7,11.2-20,20.1-33.6,16.9c-1.2-0.2-1.1-2.2,0.2-2.2c4.9-0.2,9.7-1.6,14-4.2
		c12.5-7.4,21.6-19.9,26.5-33.2c0,0,0.1-0.3,0.2-0.6c-8.2,6.8-15.9,14.1-24.2,20.8c-6.5,4.7-14,7.7-21.8,9.4
		c-1.2,0.3-2.2-1.3-1.3-2.2c8.3-8.8,17.3-17.4,28.6-22.2c5.6-2.3,11.6-3,16.7-6.3c0.6-0.5,1.3-1,1.4-1.8v-0.1h-0.1
		c-9.5-0.3-19,1.6-27.9,4.9c-9,3.2-16.5,9.5-22.6,16.7c-0.3,0.4-0.8,0.6-1.3,0.4c-0.7-0.2-1.2-0.8-1-1.6c2.5-12.9,15.9-19.7,27.5-23
		c5.9-1.4,13.2-1.6,19.1-0.8c-2.1-0.7-4.3-1.4-6.6-1.8c-13.6-3-29.5-1.3-39.8,9.1c-10.4,9.6-12.2,26.8-4.2,38.1
		C202,112.8,212.2,116,221.2,115.1z M251.3,66.8c-4.6,2.6-12.9,4.4-15.4,5.8c-9.8,4.3-17.9,11.9-24.7,20.1c2.9-0.6,5.8-1.3,8.5-2.5
		c6.7-2.3,12.4-6.8,17.7-11.5C241.8,74.5,246.6,70.7,251.3,66.8z M190.7,112.6c2.5,1.4,6.5,2.1,9.5,1.5c-0.5-1.5-2.1-2.8-3.3-4
		c-2.8-2.6-5-5.6-6.2-9.3c-0.4-1.7-0.3-4.1-1.3-5.1C185,100.8,184.4,108.7,190.7,112.6z M302.9,193.4c8.6,0,17.2-2.1,25.3-5l0.8-0.3
		l0.2-0.1h0.1c0.2-0.1,0.2-0.4,0.1-0.5c0,0-0.3-0.3-0.5-0.4c-25.3-19.4-57.6-33.4-90.3-27.6c-1,0.1-2,0.2-3.1,0.3
		c6.6,2.6,13.6,5,19.9,8.3c8.5,4.1,15.7,10.4,22.6,16.5C284.7,190.6,293.8,193.3,302.9,193.4z M295,227c2.4,0.8,8.9,2.9,11.1,3.9
		l1.8,0.7c1.1,0.4,1.9-0.8,0.9-2.1c-14.6-25.7-35.3-50.1-63.4-61.3c-9.5-3.9-20-5.2-30.3-6c-0.5-0.1-0.8,0.5-0.7,0.8
		c-0.1,0,0.4,0.7,0.7,1.3l1,1.7C233.6,195.4,262.9,216,295,227z M253.2,239.5c6.8,5.3,14.5,9.6,22.6,12.6c0.7,0.2,1.4,0.1,2.1-0.4
		c0.8-0.6,0.4-1.7,0.4-2.7c-0.8-6.5-2.7-13-6-18.7c-5.3-9.8-15.4-15.7-24.2-22c-9.3-7.1-21.9-21.2-31-30.6c0.9,4.6,2.3,9,4,13.4
		c2.1,4.8,4.2,9.7,6.4,14.4c1.6,3.5,3.3,7,5.2,10.4C238.1,225,244.9,233.1,253.2,239.5z M211.2,227.8c2.2,11.9,10.1,21.1,17.8,30
		c2.6,3.5,4.8,7.2,6.6,11c0.3,0.6,1.2,0.7,1.5,0.1c6.4-12.9,6.3-28.6-1.3-40.8c-1.1-1.9-2.2-3.8-3.2-5.7c-6.8-9.5-12-20.4-16-31.5
		c-0.7-1.5-1.3-3.1-2-4.6C209.6,199.4,208,214,211.2,227.8z M240.4,144.4c1.3-2.3,5.2-8,0.6-8.6c-5.8,0.1-11.4,3.4-17,5.3
		c-3.8,1.4-7.7,2.7-11.5,3.9c-3.7,1.1-7.1,2.3-9.8,4.9c-4.7,5.5-7.2,13.6-6.5,20.6c0.5,3.5,3.2,7.4,3.5,11.1
		c1.4,5.9-0.2,12.3,0.8,17.9c0.2,0.9,1.2,1.3,2.1,1.3c9.1-10.8,10.9-26,7-39.1c-0.8-2,1.1-4.1,3.2-3.8l0.7,0.1
		c7.4,0.5,14.7-2.2,20.5-6.7c1.2-1.6,2.7-3,3.6-3.8c0.6-0.5,1.2-1,1.8-1.5C239.6,145.5,240,145,240.4,144.4z M332.4,141.4
		c-3.7-0.5-7.8-1-11.6-2c-4.4-1-8.8-2.8-13-4.2c-12.6-4.6-26.3-5.4-39.2-1.4c-8.6,2.4-16.6,6.7-23.7,12.1c-3.1,2.4-7.4,5.8-9.1,8.9
		c2.9-0.1,6.3-0.8,9.4-1.1c9.4-0.6,18.3,0.7,27.5,1.4c9.1,0.8,18.1,1.7,27.1,2.6c8.9,1.5,17.7-1.9,24.8-7.2c3.1-2.3,5.9-4.9,8.4-7.9
		C333.3,142.2,332.8,141.5,332.4,141.4z"/>
	<path class="st1" d="M300.9,137.8c-5.5-1.1-11.1-2.1-16.8-2.1c-7.3,0-14.8,1.3-21.6,3.8c-2.7,1-5.3,2.5-8,3.3
		c-0.1,0-0.3-0.1-0.2-0.2c1.8-1.7,4.3-2.7,6.6-3.8c3.2-1.4,6.4-2.6,9.7-3.4c7.3-1.8,14.9-2.2,22.3-1.2c2.9,0.4,5.7,1,8.4,2.1
		C302.1,136.7,301.8,137.9,300.9,137.8z"/>
	<path class="st1" d="M253.3,161.6c7.8-1.2,15.9,0,23.5,1.9c7.8,1.9,15.3,4.9,22.4,8.3c4.1,2,8,4.1,11.8,6.5c0.4,0.2,0,0.9-0.4,0.7
		c-7.1-3.5-14-7.2-21.4-10.1c-7.3-2.9-14.9-5.1-22.8-6.2c-4.3-0.6-8.7-0.7-13.1-0.8C253.1,162,253.1,161.7,253.3,161.6z"/>
	<path class="st1" d="M226.1,152.9c-0.5,0.1-0.7-0.6-0.2-0.8c3-1.2,5.9-2.5,8.4-4.7c1.2-1.1,2.3-2.3,3.4-3.6c1-1.3,1.6-2.7,2.5-4
		c0.1-0.1,0.3,0,0.3,0.1c-0.4,1.5-1.3,2.9-2.2,4.1c-1,1.4-2.1,2.7-3.4,3.9C232.3,150.1,229.3,152.2,226.1,152.9z"/>
	<path class="st1" d="M221.6,166c7.3,0.5,14.5,2.1,21.3,4.5c8.2,2.8,15.5,7.3,22.3,12.4c4.2,3.2,8.1,6.7,11.8,10.5
		c0.2,0.2-0.1,0.7-0.4,0.4c-6.6-5.7-13.7-11.1-21.1-15.7c-7.3-4.5-15.4-7.3-23.7-9.4c-3.4-0.9-7-1.6-10.4-2.4
		C221.3,166.3,221.3,166,221.6,166z"/>
	<path class="st1" d="M257.5,204.3c6.9,3.9,14,7.7,21.2,11.3c3.8,1.9,7.6,3.7,11.5,5.5c3.6,1.7,7.3,3.1,10.9,4.9
		c0.7,0.3,0.2,1.4-0.5,1.1c-3.8-1.2-7.4-2.9-11-4.5c-4-1.8-7.8-3.7-11.7-5.6c-7.1-3.7-14-7.7-20.6-12.2
		C256.9,204.6,257.2,204.1,257.5,204.3z"/>
	<path class="st1" d="M235.2,200.6c4.5,5.6,9.7,10.8,15.8,14.7c2.7,1.8,5.7,3.1,8.4,4.8c3.3,2.1,6.2,4.9,8.6,8.1
		c2.6,3.5,5.2,7.7,6.1,12.1c0.1,0.5-0.7,0.8-1,0.4c-2-3.6-3.4-7.3-5.8-10.8c-2.3-3.3-5.2-6.2-8.5-8.6c-2.6-1.8-5.4-3.2-8-5
		c-2.7-1.9-5.2-3.8-7.6-6c-3.1-2.8-5.8-6-8.2-9.4C234.7,200.7,235.1,200.4,235.2,200.6z"/>
	<path class="st1" d="M127.9,170.8c0-0.2,0.3-0.3,0.3-0.1c3.1,12.6,2.1,26.3-1.7,38.7c-0.9,3-1.9,5.8-3.3,8.7
		c-0.3,0.6-1.2,0.2-1-0.5c2.8-7.3,5-14.7,6-22.5C129.2,187.1,128.9,178.9,127.9,170.8z"/>
	<path class="st1" d="M147.5,172.1c2.2,0.4,4.3,1.7,6.2,2.8c2.1,1.3,4.1,2.7,6,4.3c3.7,3,6.7,6.5,10,9.9c0.1,0-0.1,0.2-0.2,0.1
		c-3.3-3.2-6.8-6.2-10.5-9c-1.8-1.4-3.6-2.7-5.6-3.8c-2.1-1.3-4.4-2.1-6.4-3.4C146.8,172.7,147.1,172,147.5,172.1z"/>
	<path class="st1" d="M136.8,202.7c0.4,4.3,1.5,8.3,3.7,12c2.4,3.9,5.4,7.4,8.2,10.9c0.1,0.2-0.1,0.3-0.3,0.2
		c-3.4-3.5-6.6-7.2-9-11.4c-1.9-3.5-3.5-7.6-3.2-11.7C136.3,202.4,136.8,202.4,136.8,202.7z"/>
	<path class="st1" d="M108.6,189.9c-0.6,6.2-1.4,12.4-3.4,18.4c-1.8,5.3-4.9,11.4-9.7,14.5c-0.3,0.3-0.9-0.2-0.5-0.5
		c2-2.1,3.9-4.2,5.4-6.6c1.6-2.5,2.8-5.2,3.7-8c2-5.8,2.7-11.8,3.8-17.8C108,189.4,108.7,189.5,108.6,189.9z"/>
	<path class="st1" d="M85,182.2c-1.7,1.9-3.2,4.1-4.5,6.3c-1.3,2.3-2,4.8-3.2,7.1c-0.2,0.4-0.8,0.3-0.8-0.2c0.3-2.6,1.7-5.3,3-7.6
		s2.9-4.5,4.7-6.5c3.6-4.1,8.1-7.1,13.2-9.1c0.2-0.1,0.3,0.2,0.1,0.3C92.7,174.8,88.4,178.2,85,182.2z"/>
	<path class="st1" d="M143.2,161.7c0.5,0,0.5,0.6,0.1,0.7c-6.4,1.5-11.9-4.6-14.8-9.4c-0.3-0.5,0.3-0.9,0.7-0.5
		c2.1,2.3,3.9,5,6.6,6.9C137.8,160.9,140.5,161.9,143.2,161.7z"/>
	<path class="st1" d="M199.1,172.2c0.8,1.8,2,3.4,2.2,5.4c0,0.3-0.5,0.5-0.6,0.1c-0.3-1-0.8-2-1.2-2.9c-0.5-0.9-0.9-1.8-1.2-2.8
		c-0.5-1.6-0.8-3.3,0.1-4.8c0.1-0.2,0.3,0,0.3,0.1C198,168.9,198.4,170.7,199.1,172.2z"/>
	<path class="st1" d="M217.2,234.7c3.3,6.7,7.9,12.4,12.2,18.3c0.4,0.5-0.4,1.1-0.8,0.6c-8.8-10.5-17.8-23.1-16.5-37.6
		c0-0.2,0.4-0.2,0.4,0C212.5,222.5,214.4,229,217.2,234.7z"/>
</g>
</svg>
