<?xml version="1.0" encoding="utf-8"?>
<!-- Generator: Adobe Illustrator 27.3.1, SVG Export Plug-In . SVG Version: 6.00 Build 0)  -->
<svg version="1.1" id="Layer_1" xmlns="http://www.w3.org/2000/svg" xmlns:xlink="http://www.w3.org/1999/xlink" x="0px" y="0px"
	 viewBox="0 0 108.1 72.7" style="enable-background:new 0 0 108.1 72.7;" xml:space="preserve">
<style type="text/css">
	.st0{fill:#D19A2C;}
</style>
<g>
	<path class="st0" d="M92.8,18c-0.6-0.8-1.2-1.5-1.8-2.1c-2.7-2.9-6.1-4.9-9.7-6.1c-0.8-0.2-1.6-0.5-3-0.2c-1.1,0.3-1.7,0.9-2,1.7
		C71,5.9,63.9,2.3,56.5,0.7c-17.7-3.5-36,6-45.9,20.3C5.6,27.8,2,35.7,0.3,43.9c-0.3,1-0.6,2.3,0.8,2.7c0.4,0.1,0.8-0.1,1-0.4
		c3.8-4.8,7.2-9.8,11.2-14.1c9.2-9.6,22.4-17.8,36-15.9C30.1,18.4,11.9,32.8,1.1,47.7c-0.5,0.6,0,1.5,0.6,1.8
		c-0.3,0.3-0.5,0.7-0.6,1.1c0,0.1-0.2,0.2-0.1,0.8c0.2,0.4,0.5,0.4,0.6,0.5C2,52,2.3,52.1,2.7,52.3c-0.9,0.4-1.5,1.4-1.1,2.6
		c0.2,0.5,0.5,0.8,0.8,1c3.4,2.9,7.1,5.5,11,7.8c15,8.7,34.2,12.7,50.3,4.3c10.9-5.2,18.6-16.1,20.7-27.9c0.3,0,0.6,0.1,0.9,0
		c4.8-2.1,7.9-5.8,9.8-10.6c1-3.1,0.3-6.4-1.2-9.2c3.8-2.4,8-3.9,12.3-4.4c0.9-0.1,1.6-0.8,1.9-1.6l0,0c0.4-1.6-1.1-3.2-2.7-2.7
		C100.9,12.6,96.4,14.9,92.8,18z M62.1,64.5c-15.9,8.5-35.4,3.7-50.2-5.6c11.2,4.3,23.5,5.6,35.2,2.6c8.7-1.7,17.6-6.6,21.8-14.8
		c1.2-1.9-1.3-4.3-3.1-3c-9.1,6.1-19.5,10.5-30.6,11.1c-11,0.7-22.2-0.6-32.7-4.2c0.4-0.7,1.2-1,1.9-1.2c6.7-1.9,13.8-0.6,20.8-1.2
		c14.3-1.3,27.4-7.7,39.8-14.5c1.9-0.9,1.2-4.1-0.9-4.1c-9.4-0.8-18.8,0-27.7,3.2c-7.9,2.9-15.2,7-23,10.2
		c-3.4,1.4-6.8,2.9-10.2,4.5c12.6-16.8,35.7-33,57.3-27.3c1,0.3,2-0.3,2.3-1.3c0.2-0.9-0.2-1.7-0.9-2.1c-2.9-1.6-5.8-2.6-8.9-3.4
		C32.1,9,15.1,24.6,3.7,40.5C6,34.3,9.1,28.3,13.2,23c6.5-8.9,16-15.5,26.5-18c15.4-3.9,34.2,3.5,39.7,18.9
		C84.4,39.1,76.7,57.5,62.1,64.5z M7.9,53.8c8.9,2.4,18.2,3.3,27.4,3.1c8.4,0,16.7-2.2,24.4-5.4c-5.8,5-14.1,7.1-21.6,8
		C27.8,60.9,17.4,58.1,7.9,53.8z M7.6,47.2c5.9-2.5,12.2-4.9,18-7.6c10.3-4.9,21.1-7.5,32.2-6.4c-12.3,8-26.2,14.3-41.1,13.5
		C13.7,46.7,10.6,46.8,7.6,47.2z M85.2,36.7L85.2,36.7C85.3,36.8,85.3,36.8,85.2,36.7z M85.2,36.2c0-0.1,0-0.2,0-0.4
		c0-0.5,0-1.1,0-1.6c0.1-1,0.4-2.1,0.4-3.4c0-3.2-0.8-6.1-1.9-8.8c-1-2.8-3.5-6.3-4-8.9c3.2,0.5,7,2.3,9.1,4.7
		C93.9,23.9,90.8,32.1,85.2,36.2z"/>
</g>
</svg>
