<?xml version="1.0" encoding="utf-8"?>
<!-- Generator: Adobe Illustrator 27.2.0, SVG Export Plug-In . SVG Version: 6.00 Build 0)  -->
<svg version="1.1" id="Layer_1" xmlns="http://www.w3.org/2000/svg" xmlns:xlink="http://www.w3.org/1999/xlink" x="0px" y="0px"
	 viewBox="0 0 200 200" style="enable-background:new 0 0 200 200;" xml:space="preserve">
<style type="text/css">
	.st0{fill:none;}
	.st1{fill:#D19A2C;}
</style>
<g>
	<path class="st0" d="M101.3,87.2c-5.3-11-13.1-20.8-21.2-29.7c-1.2-1.3-2.8-3-4.4-4.8c1.8,0.6,3.7,1.3,5.1,1.7
		c38.4,12.4,66.1,45.5,83.7,80.6l0.8,1.7c0,0-0.1,0.2-0.1,0.2l0,0c-11.4-1.3-22.9-3.6-33.1-8.8c-10.4-5.2-19.2-13.5-23.6-24.3
		C106.2,98.4,104,92.6,101.3,87.2z M148.6,116c0.5,0.6,1.5,0,1-0.7c-6.9-11.4-15.4-21.9-25-31.1c-4.7-4.5-9.8-8.7-15.2-12.4
		c-5.3-3.6-10.9-6.8-17-8.6c-0.3-0.1-0.4,0.4-0.2,0.5c5.7,3.2,11.6,6.2,16.9,10.1c5.1,3.7,9.9,7.8,14.4,12.2
		C132.9,95.2,140.6,105.7,148.6,116z"/>
	<path class="st0" d="M53.3,77c-3.1-11-5-22.4-5.8-33.9c-0.1-0.1,0.3-0.4,0.5-0.2C59.2,49.9,70.5,57.1,79.3,67
		c26.2,28.8,36.5,68.7,39.1,106.8c0.1,1.5,0,1.7-0.9,1.9c-0.3,0-0.5-0.2-0.6-0.4l-1.7-1.9c-7.9-8.7-16.8-16.6-24.1-25.9
		C73.9,126.8,60.4,102.9,53.3,77z M72.9,115.7c5.2,9.1,10.7,17.8,17,26.3c3.3,4.4,6.6,8.7,10.1,13c3.3,3.9,6.5,8,10.3,11.4
		c0.8,0.8,2.1-0.4,1.4-1.3c-3.1-4.2-6.7-8.1-10-12.2c-3.4-4.2-6.7-8.4-10-12.7c-6.2-8.2-12.3-16.6-18.2-25
		C73.3,114.8,72.7,115.3,72.9,115.7z M101.4,114.1c0.2,0.5,1,0.2,0.8-0.3c-2.1-6.4-4.5-12.5-7.4-18.5c-4.9-9.9-10.7-19.1-18.4-27
		c-6.7-7-14.4-13.2-22.8-18c-0.3-0.2-0.6,0.3-0.3,0.5c3.6,3,7.3,6,10.9,9.1c8.3,7.2,16,15.1,21.9,24.5
		C91.8,93.8,97,103.9,101.4,114.1z"/>
	<path class="st0" d="M33.9,71.5c-0.1,1.3-0.1,2.7-0.1,4c-1.7,15.9-1.7,32.2,1,47.9c0.1,2.4,0.3,4.8,0.4,7.2
		c0.8,10.2-0.6,20.1-5.4,29.1c-3.5,6.7-8.3,12.8-14.1,17.7l-1.4,1.2c-0.5,0.4-1.3-0.1-1.3-0.7c0.3-10.8-2.5-21.3-5.2-31.7
		C1.4,118.7,14,90.5,33.7,71.6C33.7,71.6,33.8,71.6,33.9,71.5z M14.8,103.2c-9.6,16-6.4,36-2,53.2c0.2,0.9,1.7,0.5,1.6-0.4
		c-1.5-9-3.6-17.8-3.8-27c-0.2-8.6,1.1-17.7,4.9-25.5C15.7,103,15.1,102.8,14.8,103.2z"/>
	<path class="st0" d="M87.8,48.9c-3.3-1.3-7.2-2.4-10.4-3.6c1.6-1,3.9-1.8,6.1-2.5c19-5.5,39.8-5.2,58.2,2
		c10.6,4.1,19.8,11.1,27.8,19.1c6.8,7.5,14.8,14.8,23.5,20.1c1.6,1,1.6,1,1.7,1.7c0,0.3-0.1,0.5-0.2,0.5c-0.2,0.1-1.3,0.5-1.6,0.7
		c-11.6,4.7-25.3,6.4-37.1,2c-12.7-6.8-24.7-15.4-37.1-22.7C109.6,60.9,97.7,52.8,87.8,48.9z M148.8,54.6c4,2.5,7.7,5.4,11.5,8.2
		c1,0.8,2.7-0.6,1.8-1.6c-7.4-8.4-18.3-14-28.9-17.2c-5.6-1.7-11.3-2.6-17.2-2.9c-3.7-0.2-8.2-0.7-11.7,0.7c-0.2,0.1-0.2,0.4,0,0.4
		c1.7,0.4,3.5,0.4,5.2,0.4c2.2,0.1,4.4,0.3,6.6,0.5c5.4,0.7,10.8,1.9,15.9,3.7C137.9,48.8,143.5,51.4,148.8,54.6z"/>
	<path class="st0" d="M39.5,80.5c0.5-5.6,1.3-11.1,2.5-16.5c5.2,16,11.6,38,18.2,51c3.9,7.3,8.8,15.3,11.8,22.9
		c5.7,13.7,5,29.5-0.3,43.2c-0.7,1.2-2.6,0.8-3.3,0.1l-0.4-0.4l-0.7-0.8c-17-18.1-25.9-41.7-28.3-66C38.8,102.7,38.9,91.6,39.5,80.5
		z M63.2,132.3c3.2,4.9,5.5,10.3,6.7,16c0.6,2.9,0.9,5.9,1.1,8.9c0.1,3-0.1,6,0.2,9c0.1,0.8,1.3,1.1,1.6,0.3
		c1.7-5.6,1-12.2-0.2-17.8c-1.1-5.6-3.3-10.9-6.4-15.7c-3.3-4.9-6.7-9.5-9.2-14.8c-3-6.3-5.1-13.1-6.8-19.9
		c-0.1-0.4-0.8-0.3-0.7,0.2C51.3,110.8,56.4,121.8,63.2,132.3z"/>
	<path class="st0" d="M70.2,23.1c7.4,1,15.7,0.2,22.3,3.3c0.9,0.6,1.4,1.3,1.6,2.3c0.2,0.9-0.7,1.7-1.3,2.4
		c-2.1,2.1-4.6,3.7-7.3,5.1c-3.2,0.8-7,2-10,3.5c-9.1,1.8-18.9,0.6-26.8-4L48,35.3c-2.5-1.9-6.5-0.1-6.7,3
		c-2.9,17.1-12.9,33.7-29.1,41.1c-0.2-0.1-0.3-0.2-0.5-0.4c-0.7-0.7-0.7-0.9-0.7-1.8c0.3-1.8,1.6-4.2,2.8-6.4
		c2.5-4.5,5.1-9.4,6.5-14.8c1.7-4.4,0.9-10.7,2.2-14.8c3.2-8.3,10.1-16.3,18.4-20C50.5,19,60.4,22.8,70.2,23.1z M66.1,37.8
		c4.1,1.2,8.7,0.3,12.7-0.9c2-0.6,4-1.4,5.8-2.4c1.8-1,3.9-2.1,5.1-3.8c0.1-0.2,0-0.5-0.3-0.4c-1.8,0.9-3.3,2.2-5.1,3.2
		c-1.8,0.9-3.7,1.7-5.7,2.2c-4.1,1.2-8.2,0.8-12.4,0.6C65.4,36.4,65.3,37.5,66.1,37.8z M24.3,45.5c0-2.4,0.3-5.1,2.1-6.8
		c0.2-0.2-0.1-0.5-0.3-0.4c-2.1,1.4-2.8,3.9-3,6.3C23,47.1,23,49.6,22.9,52c0,0.6,0.8,0.9,1,0.3C24.8,50.2,24.4,47.8,24.3,45.5z"/>
	<path class="st1" d="M39,16.2c5.1-2.8,11.5-1.5,16.7-0.1c5,1.2,10,2.5,15,3.4c7.7,1.9,15.8,1.5,23.1,5c4.4,3.2,2.7,7-0.8,10.3
		c16.9-3,34.8-1.5,50.7,5.2c13.9,5.6,25.2,16.2,34.9,27.3c5.6,6,11.9,10.5,18.5,15.3c1.9,2.1,1.5,5.8-1.3,7
		c-0.1,0.1-1.6,0.6-1.6,0.6c-9.7,3.9-20.4,5.5-30.9,4c-5.9-0.5-11.8-3.3-16.7-6.5c-7.4-4.4-14.8-8.7-22.3-12.9
		c10.2,9.4,19.2,20.1,26.9,31.6c5.9,8.7,11.3,17.8,15.9,27.2c0.4,0.9,0.7,1.2,1.1,2.4c0.5,2.1-1.4,4-3.4,3.8l-0.3,0
		c0,0-1.1-0.1-1.1-0.1c-18.2-1.7-37.9-7.9-50.4-21.6c5.2,18.1,7.8,37.1,8.8,55.6c0.9,4.3-4.1,7.9-7.9,5
		c-10.7-7.4-19.3-17.3-27.7-27.1c-4-4.8-7.8-9.8-11.3-14.9c5,14,5.9,27.6-1.1,45.5c-1.2,3.5-5.9,4.8-8.4,1.8l-0.4-0.4l-0.8-0.8
		c-3.5-3.7-6.8-7.7-9.8-11.9c-7-9.3-11.9-19.6-15.4-30.3c-1.8,15.1-9.9,29.1-21.6,38.9c0,0-1.5,1.3-1.5,1.3
		c-1.7,1.4-4.4,0.7-5.3-1.3c-0.4-0.7-0.4-1.7-0.4-2.5C10,166.5,6.8,156.8,4,147c-6-22.2,0.1-46.3,13-65.3c-1.2,0.6-2.4,1.1-3.6,1.7
		c-2.7,0.9-5.1-1.5-6.1-3.7C6,75.8,8.6,71.8,9.8,68.9c2.1-4.7,3.6-9.4,4.3-14.1c1-5.3-0.8-10.6,1-15.9C18.7,27.7,28.3,20.2,39,16.2z
		 M155.8,89c11.8,4.4,25.6,2.7,37.1-2c0.3-0.1,1.4-0.6,1.6-0.7c0.1,0,0.2-0.2,0.2-0.5c-0.1-0.7-0.1-0.7-1.7-1.7
		c-8.6-5.3-16.7-12.6-23.5-20.1c-8-8.1-17.1-15.1-27.8-19.1c-18.5-7.2-39.2-7.5-58.2-2c-2.2,0.7-4.5,1.5-6.1,2.5
		c3.2,1.3,7.1,2.3,10.4,3.6c9.9,3.9,21.8,12.1,30.9,17.4C131.1,73.6,143.1,82.2,155.8,89z M132.1,128c10.3,5.1,21.8,7.5,33.1,8.8
		l0,0c0.1,0,0.2-0.2,0.1-0.2l-0.8-1.7c-17.7-35.1-45.3-68.1-83.7-80.6c-1.4-0.4-3.3-1-5.1-1.7c1.7,1.8,3.3,3.5,4.4,4.8
		c8.1,9,15.9,18.8,21.2,29.7c2.8,5.4,4.9,11.2,7.2,16.5C112.8,114.5,121.6,122.9,132.1,128z M91,147.5c7.3,9.3,16.2,17.2,24.1,25.9
		l1.7,1.9c0.1,0.2,0.3,0.4,0.6,0.4c1-0.2,1.1-0.4,0.9-1.9c-2.6-38.1-12.9-78-39.1-106.8C70.5,57.1,59.2,49.9,48,42.9
		c-0.2-0.2-0.6,0.1-0.5,0.2C48.3,54.6,50.2,66,53.3,77C60.4,102.9,73.9,126.8,91,147.5z M67.3,179.9l0.7,0.8l0.4,0.4
		c0.7,0.8,2.6,1.2,3.3-0.1c5.3-13.7,6-29.5,0.3-43.2c-3.1-7.5-7.9-15.6-11.8-22.9c-6.6-13-13-35-18.2-51c-1.3,5.4-2,11-2.5,16.5
		c-0.5,11.1-0.7,22.2-0.5,33.4C41.4,138.2,50.3,161.7,67.3,179.9z M7.8,146.1c2.7,10.4,5.5,20.9,5.2,31.7c0,0.7,0.7,1.1,1.3,0.7
		l1.4-1.2c5.8-4.9,10.6-11,14.1-17.7c4.8-9,6.2-18.9,5.4-29.1c-0.2-2.4-0.3-4.8-0.4-7.2c-2.7-15.7-2.7-32-1-47.9
		c0-1.3,0.1-2.7,0.1-4c-0.1,0.1-0.2,0.1-0.2,0.1C14,90.5,1.4,118.7,7.8,146.1z M22.5,41.3c-1.3,4.1-0.5,10.4-2.2,14.8
		c-1.4,5.4-4,10.2-6.5,14.8c-1.2,2.2-2.5,4.6-2.8,6.4c-0.1,0.9,0,1.1,0.7,1.8c0.2,0.2,0.3,0.3,0.5,0.4c16.2-7.3,26.2-24,29.1-41.1
		c0.2-3.2,4.2-4.9,6.7-3l0.8,0.5c7.8,4.6,17.7,5.8,26.8,4c3-1.6,6.8-2.7,10-3.5c2.6-1.4,5.1-3,7.3-5.1c0.6-0.7,1.4-1.5,1.3-2.4
		c-0.2-1-0.6-1.7-1.6-2.3c-6.7-3.1-15-2.4-22.3-3.3c-9.8-0.2-19.7-4.1-29.3-1.8C32.6,25,25.6,33,22.5,41.3z"/>
	<path class="st1" d="M109.5,42.6c-1.8-0.1-3.5,0-5.2-0.4c-0.2-0.1-0.2-0.3,0-0.4c3.5-1.4,8-0.9,11.7-0.7c5.8,0.3,11.6,1.3,17.2,2.9
		c10.6,3.2,21.5,8.8,28.9,17.2c1,1.1-0.7,2.4-1.8,1.6c-3.8-2.8-7.5-5.7-11.5-8.2c-5.2-3.2-10.8-5.9-16.7-7.9
		c-5.2-1.8-10.5-3-15.9-3.7C114,42.8,111.8,42.6,109.5,42.6z"/>
	<path class="st1" d="M92.3,63.7c-0.3-0.1-0.2-0.6,0.2-0.5c6.2,1.8,11.7,5,17,8.6c5.4,3.7,10.5,7.8,15.2,12.4
		c9.5,9.2,18.1,19.7,25,31.1c0.4,0.7-0.5,1.4-1,0.7c-8-10.3-15.7-20.8-25-30c-4.5-4.4-9.2-8.6-14.4-12.2C103.8,70,98,66.9,92.3,63.7
		z"/>
	<path class="st1" d="M66.3,36.4c4.2,0.2,8.3,0.5,12.4-0.6c2-0.5,3.9-1.3,5.7-2.2c1.8-0.9,3.3-2.3,5.1-3.2c0.2-0.1,0.4,0.2,0.3,0.4
		c-1.2,1.7-3.3,2.8-5.1,3.8c-1.9,1-3.8,1.8-5.8,2.4c-4,1.1-8.6,2-12.7,0.9C65.3,37.5,65.4,36.4,66.3,36.4z"/>
	<path class="st1" d="M53.3,50.8c-0.3-0.2,0-0.7,0.3-0.5c8.5,4.7,16.1,11,22.8,18c7.7,7.9,13.5,17.1,18.4,27c3,6,5.4,12.2,7.4,18.5
		c0.2,0.5-0.6,0.8-0.8,0.3C97,103.9,91.8,93.8,86,84.4c-5.8-9.4-13.5-17.3-21.9-24.5C60.6,56.8,56.9,53.8,53.3,50.8z"/>
	<path class="st1" d="M73.7,115.2c5.9,8.4,12,16.8,18.2,25c3.2,4.3,6.6,8.5,10,12.7c3.3,4.1,6.9,8,10,12.2c0.6,0.9-0.6,2.1-1.4,1.3
		c-3.8-3.5-7-7.5-10.3-11.4c-3.5-4.2-6.9-8.6-10.1-13c-6.3-8.4-11.9-17.1-17-26.3C72.7,115.3,73.3,114.8,73.7,115.2z"/>
	<path class="st1" d="M50.1,98.2c1.6,6.8,3.8,13.6,6.8,19.9c2.5,5.4,6,9.9,9.2,14.8c3.2,4.8,5.3,10.1,6.4,15.7
		c1.1,5.6,1.8,12.3,0.2,17.8c-0.3,0.8-1.5,0.5-1.6-0.3c-0.3-3-0.1-6-0.2-9c-0.1-3-0.4-5.9-1.1-8.9c-1.2-5.7-3.5-11.1-6.7-16
		c-6.8-10.4-11.9-21.5-13.8-33.9C49.3,97.9,50,97.8,50.1,98.2z"/>
	<path class="st1" d="M22.9,52c0.1-2.4,0.1-4.9,0.2-7.3c0.2-2.4,0.9-4.8,3-6.3c0.2-0.2,0.5,0.2,0.3,0.4c-1.8,1.7-2.1,4.4-2.1,6.8
		c0,2.2,0.4,4.6-0.5,6.7C23.6,52.9,22.9,52.6,22.9,52z"/>
	<path class="st1" d="M14.4,156c0.1,0.9-1.3,1.3-1.6,0.4c-4.4-17.2-7.7-37.2,2-53.2c0.2-0.4,0.9-0.1,0.7,0.3
		c-3.8,7.8-5.1,16.9-4.9,25.5C10.8,138.1,13,147,14.4,156z"/>
</g>
</svg>
