<?xml version="1.0" encoding="utf-8"?>
<!-- Generator: Adobe Illustrator 27.3.1, SVG Export Plug-In . SVG Version: 6.00 Build 0)  -->
<svg version="1.1" id="Layer_1" xmlns="http://www.w3.org/2000/svg" xmlns:xlink="http://www.w3.org/1999/xlink" x="0px" y="0px"
	 viewBox="0 0 461 380" style="enable-background:new 0 0 461 380;" xml:space="preserve">
<style type="text/css">
	.st0{fill:none;}
	.st1{fill:#D19A2C;}
</style>
<g>
	<path class="st0" d="M234.3,106.2c-1.2,2-2.5,4-3.8,5.9c0.1-0.7,0.1-1.5,0.2-2.3c0.1-0.7,0.3-1.4,0.4-2.1c1-6,1.4-12,1.3-18
		c0.3-5.7,0.2-11.2-0.4-16c-0.8-7.2-1.4-14.4,1.2-21c2.1-5.4,5.2-11.1,9.7-14.7c0.5-0.1,0.9,0.2,1.1,0.6c2.3,6.4,3.9,13.7,4.2,20.8
		c0.4,9.7-1.5,19.1-4.8,28.1C240.5,93.9,237.5,100.1,234.3,106.2z M235.7,82.2c-0.2-6.6-0.7-13.3-0.1-20c0.3-3.3,1-6.6,2-9.7
		c1.1-3.3,2.9-6.1,4.5-9.1c0.3-0.7-0.5-1.3-1-0.8c-4.8,4.3-6.6,12.2-7.3,18.3c-0.9,7.2-0.2,14.3,0.8,21.4
		C234.6,83,235.7,82.8,235.7,82.2z"/>
	<path class="st0" d="M251.7,76.3c3.3-10.6,12.2-18.3,22.6-21.8c0.1,0,1.4-0.6,1.5-0.3c0.4,0.2,0,0.8-0.1,1.1
		c-2.6,5.9-3.5,12.5-4.6,18.7c-3.1,16.9-17.4,29.5-32.9,35.5C243.5,98.7,247.8,87.5,251.7,76.3z M251.2,98.9
		c-0.2,0.2,0.1,0.5,0.3,0.3c5.3-3.3,9.7-7.7,12.8-13.2c1.6-2.8,2.8-5.7,3.7-8.7c0.8-2.6,1.8-5.9,1.2-8.7c-0.1-0.7-1-0.6-1.2,0
		c-1,2.7-1.1,5.7-1.9,8.4c-0.9,2.9-2,5.7-3.5,8.3C259.6,90.5,255.8,95.2,251.2,98.9z"/>
	<path class="st0" d="M203.6,75.9c0.1,10.8,2.4,22.4,7.4,32.3c0.6,1.3,1.6,3.5,2.5,5.5c-0.6-0.6-1.2-1.2-1.9-1.7
		c-20.8-15-30.5-40.5-33.4-65.2c6,2.8,11.9,6.3,16.6,10.9C199.8,62.6,203.2,69,203.6,75.9z M194.5,61.9c-3.6-4.1-8.1-7.4-12.7-10.4
		c-0.2-0.2-0.5,0.2-0.3,0.4c4,3.3,8.2,6.4,11.7,10.2c1.6,1.8,3.1,3.7,4.3,5.8s2,4.3,2.7,6.6c0.2,0.5,0.9,0.3,0.8-0.2
		C200.5,69.7,197.5,65.3,194.5,61.9z"/>
	<path class="st0" d="M209.7,115c-0.4,0-0.9,0-1.4,0c-0.7-0.1-1.4-0.1-2.1-0.1c-16.7-1.1-34.7-8-44-22.6
		c-3.3-5.7-6.9-11.8-11.7-16.5c11.2-0.6,23.5,2.8,31.4,11.6c4.4,4.6,8.9,9.2,13.5,13.7c3.5,4.4,7.4,8.5,11.9,12
		C208.1,113.6,208.9,114.3,209.7,115z M196.3,109.7c-2.3-1.2-5.1-1.5-7.5-2.3c-2.6-0.8-5.1-1.9-7.5-3.1c-4.7-2.3-9.5-4.6-13.9-7.4
		c-0.2-0.1-0.3,0.2-0.2,0.3c2.3,1.6,4.4,3.4,6.7,4.9c2.2,1.5,4.5,2.8,6.9,4.1c2.4,1.2,4.9,2.3,7.4,3.3c2.4,0.9,5.1,2,7.7,1.7
		C196.6,111,197.1,110.1,196.3,109.7z"/>
	<path class="st0" d="M224,136.2c-11.5,0.2-21.2-8-27.2-17.3c2.9-1.1,5.9-1.7,8.9-1.8c0.7,0,1.5,0.1,2.2,0.1c2,0.2,3.9,0.6,5.8,1.4
		c0.6,0.5,1.3,0.8,2,1c2.7,1.5,5.2,3.7,7.4,6.7c0.5,0.9,1.9,1.5,2.9,0.8c0.8-0.6,1.6-2.6,2.5-3.9c2.8-4.7,7.2-8.4,12.2-10.7
		c0.3-0.1,0.6-0.3,1-0.4c3.1-1.3,6.4-2,9.7-2c-1.6,7.6-6,14.7-12.2,19.5C234.8,133.6,230.2,136.6,224,136.2z M221.9,127.5
		c-4.3-4.9-12.3-10.4-19-7c-0.6,0.3-0.2,1.2,0.4,1.1c2.9-0.7,6.1-0.3,8.8,0.9c3.4,1.5,6,4,9,6.1C221.8,129,222.4,128,221.9,127.5z"
		/>
	<path class="st0" d="M354.5,54.4c0.1-0.1-0.1-0.3-0.3-0.2c-14.1,17.5-25.7,36.9-35,57.4c-7,13.9-13,28.5-15.3,44
		c-3-2.8-5.2-6.4-5.6-10.3c-0.5-5,3.1-9.5,3.6-14.8c0.8-5.7,0.5-11.8-1.2-17.1c-0.6-2.3-0.9-4.6-0.7-6.8c0.3-3.2,1.9-6.6,4-9.1
		c1.6-1.8,4.3-2.9,6.1-4.8c7.6-6.4,7.6-16.2,9.2-25c2.7-4.7,7.3-7.9,12-11.1c6.8-4.6,12-12.1,15.6-19c4.4-6.6,12.4-9.2,18.4-14.1
		c2.9-2.3,5.5-4.8,7.9-7.6c-0.6,6-0.2,12.2,1.4,18c2.6,7.5,0.2,13.8-2.7,20.8c-3.9,9.4-3.3,20.8-4.2,30.5c-0.8,4.2-1.6,9.6-4.1,12.9
		c-1.5,1.9-3.5,3-5.3,5.1c-5.8,6.5-5.1,15.5-5.3,23.5v0.6c0-0.2,0-0.4,0-0.6l0,0v0.1v0.2l-0.1,0.4l-0.2,0.9
		c-0.9,3.6-2.8,8.1-5.5,10.2c-3.7,2.3-10.4,3.9-14.2,7.2c-4.5,2.9-8.3,8.3-11.3,12.3c-2.5,3.3-6.8,4-10.8,2.4
		c-0.2-0.1-0.4-0.2-0.5-0.3c5.9-14.9,10.5-30.2,15.6-45.6C333.9,93.7,343.6,73.8,354.5,54.4z"/>
	<path class="st0" d="M172,192.3c0.1-0.1,0.2-0.2,0.3-0.2c0.4-0.2,0.9-0.5,1.3-0.8c0.9-0.4,1.9-0.8,3-1.4c2.6-1.7,4.5-3.8,6.2-6.2
		c1.7-2.3,3.3-6.1,5.1-7.9c1.3,2.9,1.7,6.9,0.9,9.8C186.6,193,178.4,194.7,172,192.3z M184.6,188.9c-0.4,0.5-0.9,1-1.3,1.5
		c-0.1,0.2,0.1,0.4,0.3,0.4c1.5-0.3,2.6-1.8,3.3-3c0.7-1.3,1.3-3,0.9-4.5c-0.1-0.5-0.8-0.5-0.9,0c-0.2,0.7-0.3,1.3-0.4,2
		c-0.2,0.7-0.4,1.3-0.7,1.9C185.4,187.8,185,188.3,184.6,188.9z"/>
	<path class="st0" d="M171.7,192.6L171.7,192.6C171.7,192.7,171.6,192.7,171.7,192.6z"/>
	<path class="st0" d="M131.7,278.6c1.4-2.5,2.7-5.5,4-8c5.7,21.1,0.2,50.1-16,67.2c-4.8,5.3-11.5,10.3-17.4,14.6
		c-5.2,4-9.9,8.7-14.1,13.7c-1.1,1.3-0.9,1.2-1.5,1.2c-0.3-0.1-0.3-0.1-0.3-0.2c-1.1-4-1.9-8.2-2.1-12.4c-0.4-7.2,0.8-15.1,4.3-21.4
		c7.4-10.3,16.3-19.7,24.2-29.7C118.6,296.2,127.1,286.8,131.7,278.6z M134.3,297.9c-0.3,1.9-0.7,3.8-1.2,5.7
		c-1.3,4.9-3.1,9.6-5.4,14.1c-2.5,4.9-5.5,9.6-9.1,13.8c-2.5,2.9-5.3,5.6-7.9,8.4c-0.9,1,0.2,2.7,1.4,1.9c8-5.2,14.2-14.1,18.1-22.7
		c2.2-4.7,3.8-9.7,4.7-14.8c0.6-3.3,1.7-7.6,0.8-10.8c0-0.2-0.3-0.2-0.4-0.1C134.7,295,134.5,296.4,134.3,297.9z"/>
	<path class="st0" d="M124.9,271c1-0.6,2.1-1.5,3.4-2.4c-0.5,1-0.9,1.9-1.3,2.8c-14.6,30.9-44.9,50.9-76.1,62.4l-3.7,1.3
		c0,0-1.7,0.5-1.5,0.5c2.4-9.7,5.8-19.5,11.5-27.8c5.7-8.5,14-15.1,23.9-17.6C96.4,287,112,280.5,124.9,271z M66.2,324.7
		c10.7-4.5,20.7-10.8,29.9-18c4.6-3.6,8.9-7.7,12.8-12c3.7-4.2,7.2-8.7,9.4-13.8c0.1-0.3-0.3-0.6-0.5-0.3
		c-3.5,4.6-6.9,9.3-10.8,13.6c-3.8,4-8,7.7-12.4,11.1c-9.1,7.1-19.2,12.5-29,18.4C64.9,324.1,65.5,325,66.2,324.7z"/>
	<path class="st0" d="M128.7,166.2c-6.5-7.7-9.8-17.6-11.2-27.5c2.7,8.5,6.8,16.5,11.7,23.8c4.4,6.8,10.5,12.4,17.1,17
		C139.3,177.5,133.3,171.9,128.7,166.2z"/>
	<path class="st0" d="M231.8,304.6c0,0.2,0.2,0.2,0.3,0.1c5.7-17.3,8.8-35.5,9.9-53.7c1.3-12.2,1.7-24.6-1.3-36.6
		c2.4,1.2,4.5,2.9,5.7,5.3c1.8,3.6,0.4,8,1.7,12.1c1.1,4.6,3.3,9.3,6.1,12.7c1.1,1.5,2,3.1,2.5,4.7c0.9,3.1,0.5,7.3-1.5,9.8
		c-0.7,0.9-1.4,2.1-1.9,3.3c-3.8,7.1-1,14.7,0.6,21.9c-0.6,4.1-3.1,7.9-5.6,11.6c-3.8,5.5-5.5,12.9-6.1,19.2
		c-1.3,6.2-6.5,10.6-9.5,16.1c-1.3,2.3-2.4,4.7-3.3,7.2c-1.4-4.4-3.4-8.6-6.2-12.3c-4.1-4.8-4.2-10.2-4-16.2
		c0.2-8.2-3.7-16.9-5.9-24.3c-0.6-3.3-1.6-7.6-0.7-10.7c0.6-1.9,1.7-3.2,2.5-5.4c2.5-6.8-0.7-13.5-3-19.6l-0.2-0.6
		c0.1,0.1,0.2,0.5,0.2,0.5c-0.1-0.6-0.1-0.7-0.2-1.2c-0.4-2.8-0.3-6.7,1.1-8.9c2-2.7,6.7-6.1,8.5-9.6c5.2-7.1,2.9-17.4,11.5-17.4
		c-0.3,12.8,0.9,25.5,1.9,38.4C235,268.8,233.8,286.7,231.8,304.6z"/>
	<path class="st0" d="M82.5,228.8c9.4,1.2,18.8,2.6,28.1,4.4c3.9,1,7.7,2.1,11.4,3.5c-16.9,3.1-38,6.2-52.3,12.5
		c-16.4,7.5-33.8,9.1-50.2,0.5c-0.9-0.5-2.1-0.8-2-1.9c0.2-1.1,0.6-1.4,1.2-1.8c16-11.2,35.3-17.6,54.9-17.5
		C76.6,228.5,79.5,228.6,82.5,228.8z M47,251.1c-2.7,0.2-5.4,0.2-8-0.1c-2.7-0.2-5.4-0.8-8.1-0.9c-0.8,0-1.2,1.2-0.4,1.5
		c4.5,2.2,10.4,2.3,15.4,2c5.1-0.3,10.1-1.6,14.7-3.8c4.7-2.3,9.1-4.8,14.2-6.4c5.8-1.8,11.9-2.9,17.9-3.6c0.5-0.1,0.5-0.8,0-0.8
		c-10.9,0.2-21.1,3.2-30.8,7.9C57.1,249.2,52.1,250.6,47,251.1z"/>
	<path class="st0" d="M141,244.3c-7.5,8.8-15,17.8-24.6,24.3c-26.8,18.6-61,23.5-93.1,22l-4.5-0.3c-1.3,0-1.3-0.2-1.4-0.8
		c0-0.2,0.2-0.2,0.4-0.3c9.3-6,17.7-13.5,27.3-19.1C73.3,252.1,108,241.7,141,244.3z M73.1,283.5c6-1.1,11.9-2.5,17.7-4.5
		c17-5.8,32.7-15.9,43.4-30.6c0.2-0.3-0.2-0.6-0.5-0.4c-8.2,7.4-16.2,15-25.7,20.7c-5.2,3.1-10.8,5.4-16.5,7.5
		c-6.2,2.3-12.4,4.6-18.7,6.5C72.3,282.9,72.5,283.6,73.1,283.5z M74.8,257.6c-8.5,3.4-16.7,7.1-24.7,11.6c-4.4,2.4-8.7,4.9-13,7.6
		c-3.8,2.4-7.6,4.7-11,7.6c-0.9,0.7,0.2,2.1,1.2,1.6c4.1-2.2,7.8-4.8,11.8-7.2c4.1-2.5,8.2-5,12.3-7.3c7.9-4.4,15.8-8.8,23.8-13
		C75.5,258.2,75.3,257.4,74.8,257.6z"/>
	<path class="st0" d="M115.2,227.9c-14.1-3.5-28.5-5.3-42.6-4.7c-2.1-0.2-4.3-0.3-6.4-0.5c-15.7-0.4-30.1-9.1-38.4-22.3l-0.9-1.4
		c-0.1-0.2-0.1-0.3,0-0.5c0.2-0.6,1.1-0.2,1.5-0.2c9.1,1.4,18.4,0.1,27.4-0.9c24.4-2.4,47.1,11.8,61.3,30.8
		C116.4,228.1,115.8,228,115.2,227.9z M92.6,208.4c-12.8-10.3-30.6-10-46.1-8c-1,0.1-1.1,1.6,0,1.6c7.8-0.2,15.6-1,23.4-0.2
		c7.7,0.8,15.8,2.9,22.3,7.2C92.5,209.2,92.9,208.7,92.6,208.4z"/>
	<path class="st0" d="M137.1,188.3c-15.2-8.5-21.5-26.8-21.6-43.7c2.4,11.3,7.7,21.9,16.2,29.9c5.9,6.2,14.5,10.9,23.4,10
		c2.2,0,2.8-3.3,0.8-4.1c-9.7-4.2-18.7-10.4-24.9-19.1c-6.3-8.6-11.1-18.3-13.6-28.7c0.7-0.1,1.4,0.4,2,0.9
		c5.1,4.5,7.7,10.9,11.8,16.2c8.5,10.9,20.5,18.3,32.5,24.8c1.8,1.1,3.9-1.1,2.9-2.9c-4.2-8-9.8-15.3-17-20.9
		c-6.5-4.9-13.6-8.7-20.2-13.3c-2.9-2-5.9-4-8.9-6c20.2,1.5,45.4,11.8,52,32.4c0.3,1,1.3,1.5,2.3,1.2c0.8-0.3,1.3-1,1.2-1.9
		c-0.2-3.1-0.9-6.1-1.9-9.1c-7.3-19.2-28.8-25-47.7-25.9c6.3-1.4,12.7-2,19.1-1.4c10.6,0.6,20.9,4.9,28.4,12.2
		c11.2,10.4,14.9,29.6,5.3,42.1C169.4,193.2,150.3,196.5,137.1,188.3z M154.7,177.8c-4.8-2.8-9.5-6-13.7-9.7
		c-3.8-3.3-7.2-7.1-10.4-11.1c-0.4-0.6-1.4,0.2-1,0.7c6,9,14.7,16.5,24.6,20.8C154.7,178.7,155.2,178.1,154.7,177.8z M158.9,146.9
		c-4.3-4-9.6-6.9-15.1-9.2c-3-1.3-6-2.4-9.2-3.2c-2.2-0.5-4.6-1.1-6.9-0.9c-0.4,0-0.5,0.6-0.1,0.7c2.2,0.7,4.7,0.8,6.9,1.3
		c2.9,0.6,5.8,1.3,8.5,2.4c5.7,2.2,10.6,5.7,15.3,9.4C158.8,147.8,159.2,147.2,158.9,146.9z M159.4,189.9c-4.1,0.5-8.2,0.6-12.2-0.2
		c-2-0.4-4-1.1-5.9-1.9c-1.8-0.8-3.7-1.7-5.4-2.7c-0.2-0.1-0.4,0.2-0.2,0.3c0.8,0.7,1.6,1.4,2.5,2s1.9,1.1,2.9,1.5
		c1.9,0.8,3.9,1.4,5.9,1.9c4.1,0.9,8.5,1,12.5-0.3C159.8,190.4,159.8,189.9,159.4,189.9z"/>
	<path class="st0" d="M160.3,168.6c-12.9-5.8-25.2-13.8-32.4-26.4c-1.6-2.4-3.3-4.9-5.2-7.1c5.1,3.5,10.3,7.4,15.6,10.7
		C147.6,151.6,155.3,159,160.3,168.6z"/>
	<path class="st0" d="M155.7,266c-1.7,6.3-1.9,13.6-5.4,19.1c-0.6,0.7-1.2,1-2.1,1c-0.8,0-1.3-0.8-1.9-1.4c-1.4-1.9-2.5-4-3.3-6.2
		c-0.3-3.3-0.9-7.5-2.2-10.6c-0.3-7.8,2.1-15.9,6.8-21.9l0.5-0.6c2.1-2.2,0.9-6.2-2.1-6.8c-14.2-4.5-27.5-14.6-32.2-29.3
		c0,0-0.1-0.2-0.1-0.4c0.4-0.4,1-0.9,1.8-0.6c1.5,0.4,3.4,1.8,5.2,3.1c5.5,4.2,12.1,8.6,19.4,9.8c2.6,0.4,3.8,0.6,5.4,1.5
		c6.7,3.7,13,10.6,15.2,18.1C161.4,249.3,157,257.5,155.7,266z M147.7,225.8c-1-1.9-2.9-2.9-4.9-3.3c-1.1-0.3-2.2-0.4-3.4-0.6
		c-1.1-0.2-2.2-0.4-3.3-0.6c-0.6-0.1-0.9,0.6-0.4,1c1.8,1.1,4.1,1,6.1,1.2c2,0.3,4.1,0.9,5.4,2.6C147.5,226.3,147.8,226,147.7,225.8
		z M144.8,261.1c0.1-0.7-0.9-1.3-1.2-0.5c-1.6,3.5-1.3,7.6-0.8,11.2c0.3,1.9,0.8,3.8,1.5,5.6c0.6,1.6,1.4,3.6,2.7,4.8
		c0.2,0.2,0.5,0,0.4-0.2c-0.5-1.7-1.6-3.2-2.2-4.9c-0.6-1.7-1-3.4-1.3-5.2c-0.3-1.8-0.2-3.7,0-5.5
		C144.1,264.6,144.5,262.9,144.8,261.1z"/>
	<path class="st0" d="M225.3,117.2c0,0.1,0,0.2,0,0.3c-0.4,1.4-0.8,2.8-1.2,4.1c-3.9-4.2-7-8.8-9.5-13.7c-0.2-0.4-0.4-0.8-0.5-1
		c-0.4-0.7-0.7-1.5-1-2.2c-0.4-0.8-0.8-1.7-1.1-2.5c-0.1-0.3-0.2-0.6-0.3-0.8c-8.1-21.6-4.9-47.4,2.1-69.2c0.2-0.7,0.2-0.6,0.2-0.6
		c0.1,0,0.2-0.1,0.3,0.1l0.7,1.4c8.6,17.1,13.7,36.6,14,55.9C228,98.3,226.2,109.7,225.3,117.2z M212.1,81.3
		c-0.8-8.9-0.1-17.7,1.1-26.5c0.1-1.1-1.4-1.6-1.7-0.5c-2.2,8.9-2.3,18.3-1.3,27.3c1,9.2,3.3,18.2,7.5,26.4c0.1,0.3,0.6,0.1,0.5-0.2
		C215.3,99.2,213,90.3,212.1,81.3z"/>
	<path class="st1" d="M186.8,183.3c0.1-0.5,0.8-0.5,0.9,0c0.4,1.5-0.2,3.2-0.9,4.5c-0.7,1.2-1.8,2.7-3.3,3c-0.2,0-0.4-0.2-0.3-0.4
		c0.4-0.6,0.8-1,1.3-1.5c0.4-0.5,0.8-1.1,1.1-1.7c0.3-0.6,0.6-1.2,0.7-1.9C186.6,184.7,186.7,184,186.8,183.3z"/>
	<path class="st1" d="M147,190.8c-2-0.4-4-1-5.9-1.9c-1-0.4-2-0.9-2.9-1.5s-1.7-1.3-2.5-2c-0.2-0.1,0.1-0.4,0.2-0.3
		c1.7,1,3.6,1.9,5.4,2.7c1.9,0.8,3.9,1.5,5.9,1.9c4,0.8,8.1,0.7,12.2,0.2c0.3,0,0.4,0.5,0.1,0.6C155.4,191.8,151.1,191.6,147,190.8z
		"/>
	<path class="st1" d="M154.3,178.5c-9.9-4.3-18.6-11.8-24.6-20.8c-0.4-0.6,0.5-1.3,1-0.7c3.2,4,6.6,7.8,10.4,11.1
		c4.2,3.7,8.9,6.8,13.7,9.7C155.2,178.1,154.7,178.7,154.3,178.5z"/>
	<path class="st1" d="M158.4,147.5c-4.8-3.7-9.7-7.2-15.3-9.4c-2.7-1.1-5.6-1.8-8.5-2.4c-2.3-0.5-4.7-0.6-6.9-1.3
		c-0.4-0.1-0.3-0.7,0.1-0.7c2.3-0.3,4.7,0.4,6.9,0.9c3.2,0.7,6.2,1.9,9.2,3.2c5.4,2.3,10.7,5.2,15.1,9.2
		C159.2,147.2,158.8,147.8,158.4,147.5z"/>
	<path class="st1" d="M218.2,107.8c0.1,0.3-0.4,0.5-0.5,0.2c-4.2-8.2-6.5-17.2-7.5-26.4c-1-9-0.9-18.5,1.3-27.3
		c0.3-1.1,1.8-0.6,1.7,0.5c-1.2,8.8-1.9,17.6-1.1,26.5C213,90.3,215.3,99.2,218.2,107.8z"/>
	<path class="st1" d="M188.3,109.4c-2.5-0.9-5-2-7.4-3.3c-2.4-1.2-4.7-2.6-6.9-4.1c-2.3-1.6-4.4-3.4-6.7-4.9c-0.2-0.1,0-0.4,0.2-0.3
		c4.4,2.8,9.2,5.1,13.9,7.4c2.4,1.2,4.9,2.2,7.5,3.1c2.5,0.8,5.2,1.1,7.5,2.3c0.7,0.4,0.3,1.4-0.4,1.4
		C193.4,111.4,190.6,110.3,188.3,109.4z"/>
	<path class="st1" d="M200.3,74.5c-0.8-2.3-1.5-4.5-2.7-6.6s-2.7-4-4.3-5.8c-3.5-3.8-7.7-7-11.7-10.2c-0.2-0.2,0.1-0.6,0.3-0.4
		c4.6,3,9,6.2,12.7,10.4c3,3.4,6,7.8,6.6,12.4C201.2,74.9,200.4,75.1,200.3,74.5z"/>
	<path class="st1" d="M234.5,82.3c-1.1-7.1-1.7-14.3-0.8-21.4c0.7-6.2,2.5-14,7.3-18.3c0.6-0.5,1.3,0.1,1,0.8
		c-1.5,3.1-3.4,5.9-4.5,9.1c-1.1,3.1-1.7,6.4-2,9.7c-0.6,6.6-0.1,13.3,0.1,20C235.7,82.8,234.6,83,234.5,82.3z"/>
	<path class="st1" d="M267.9,68.7c0.2-0.5,1.1-0.7,1.2,0c0.6,2.8-0.4,6-1.2,8.7c-0.9,3-2.2,6-3.7,8.7c-3.1,5.5-7.4,9.9-12.8,13.2
		c-0.2,0.1-0.4-0.2-0.3-0.3c4.6-3.7,8.4-8.4,11.3-13.5c1.5-2.6,2.7-5.4,3.5-8.3C266.8,74.4,266.9,71.3,267.9,68.7z"/>
	<path class="st1" d="M221.1,128.5c-3-2-5.6-4.6-9-6.1c-2.8-1.2-5.9-1.6-8.8-0.9c-0.6,0.1-1-0.8-0.4-1.1c6.7-3.4,14.7,2.1,19,7
		C222.4,128,221.8,129,221.1,128.5z"/>
	<path class="st1" d="M135.7,293.6c1,3.3-0.1,7.6-0.8,10.8c-1,5.1-2.6,10.1-4.7,14.8c-4,8.6-10.1,17.4-18.1,22.7
		c-1.2,0.8-2.3-1-1.4-1.9c2.6-2.8,5.4-5.5,7.9-8.4c3.6-4.2,6.6-8.9,9.1-13.8c2.3-4.5,4.1-9.3,5.4-14.1c0.5-1.9,0.9-3.8,1.2-5.7
		c0.3-1.5,0.4-3,1-4.4C135.4,293.4,135.7,293.5,135.7,293.6z"/>
	<path class="st1" d="M94.6,305.3c4.4-3.4,8.6-7.1,12.4-11.1c4-4.2,7.3-9,10.8-13.6c0.2-0.3,0.6,0,0.5,0.3
		c-2.2,5.2-5.7,9.7-9.4,13.8c-3.9,4.4-8.2,8.4-12.8,12c-9.1,7.2-19.2,13.4-29.9,18c-0.7,0.3-1.3-0.7-0.6-1.1
		C75.5,317.7,85.6,312.4,94.6,305.3z"/>
	<path class="st1" d="M145.2,277.1c0.6,1.7,1.7,3.2,2.2,4.9c0.1,0.3-0.2,0.4-0.4,0.2c-1.3-1.2-2.1-3.2-2.7-4.8
		c-0.7-1.8-1.2-3.7-1.5-5.6c-0.5-3.7-0.8-7.8,0.8-11.2c0.3-0.8,1.3-0.2,1.2,0.5c-0.3,1.8-0.7,3.5-0.9,5.3s-0.2,3.7,0,5.5
		C144.2,273.7,144.6,275.4,145.2,277.1z"/>
	<path class="st1" d="M91.5,276.2c5.7-2.1,11.3-4.4,16.5-7.5c9.5-5.7,17.5-13.3,25.7-20.7c0.2-0.2,0.7,0.1,0.5,0.4
		c-10.7,14.7-26.4,24.8-43.4,30.6c-5.8,2-11.7,3.4-17.7,4.5c-0.5,0.1-0.7-0.7-0.2-0.8C79.1,280.8,85.4,278.6,91.5,276.2z"/>
	<path class="st1" d="M51.3,271.4c-4.2,2.4-8.3,4.8-12.3,7.3c-3.9,2.4-7.7,5.1-11.8,7.2c-1,0.5-2.1-0.8-1.2-1.6
		c3.4-2.9,7.3-5.2,11-7.6c4.3-2.7,8.6-5.2,13-7.6c8-4.4,16.2-8.2,24.7-11.6c0.5-0.2,0.8,0.6,0.3,0.8
		C67.1,262.6,59.2,266.9,51.3,271.4z"/>
	<path class="st1" d="M92.6,239.1c0.5,0,0.5,0.7,0,0.8c-6.1,0.7-12.1,1.7-17.9,3.6c-5,1.6-9.5,4.1-14.2,6.4
		c-4.6,2.3-9.6,3.5-14.7,3.8c-4.9,0.3-10.8,0.2-15.4-2c-0.8-0.4-0.4-1.5,0.4-1.5c2.7,0,5.4,0.6,8.1,0.9c2.7,0.2,5.4,0.3,8,0.1
		c5.2-0.4,10.1-1.8,14.8-4.1C71.5,242.3,81.8,239.2,92.6,239.1z"/>
	<path class="st1" d="M147.3,226.1c-1.2-1.6-3.4-2.3-5.4-2.6s-4.3-0.1-6.1-1.2c-0.5-0.3-0.2-1.1,0.4-1c1.1,0.2,2.2,0.4,3.3,0.6
		c1.1,0.2,2.3,0.3,3.4,0.6c2,0.5,3.9,1.4,4.9,3.3C147.8,226,147.5,226.3,147.3,226.1z"/>
	<path class="st1" d="M92.1,209c-6.5-4.3-14.6-6.5-22.3-7.2c-7.8-0.8-15.6,0-23.4,0.2c-1.1,0-1-1.5,0-1.6c15.5-2,33.3-2.3,46.1,8
		C92.9,208.7,92.5,209.2,92.1,209z"/>
	<path class="st1" d="M462,156c-50.8,6.4-101.8,11.9-151.8,23.5c-25,5.7-49.8,12.9-74,21.5c0.8,1.8,1.5,3.7,2.1,5.6
		c5.8,1.4,11.3,5.2,13.8,10.3c1.2,2.4,1.7,5.4,1.6,7.7c-0.2,4.3,0.8,7.5,2.4,11.3c1.1,2.8,3.6,5.2,5.1,8.1
		c2.5,4.6,2.8,10.3,0.9,15.1c-0.8,2.3-2.5,3.8-3.4,5.7c-1.2,2.5-1.9,5.2-1.5,7.9c0.4,3.7,1.9,7.5,2.1,11.4
		c-1.1,9.9-9.9,15.9-11.6,25.5c-0.7,3.9-1.5,9.3-4,12.9c-4.8,6.6-10.2,12.3-12.5,20.3l-0.3,0.7l-0.1,0.2c-0.1,0.7-1.1,1.6-1.7,1.7
		c-0.4-0.1-1.1-0.5-1.4-1.2c-0.3-0.7-0.2-0.6-0.3-0.8l-0.2-0.7c-0.9-3.3-2.3-6.5-4-9.5c-3.3-5.4-8.6-10.2-8.8-17.1l-0.3-6.2
		c-0.2-10.5-6.6-19.1-7.7-29.6c-0.3-2-0.5-4.8,0.2-7.3c0.4-2.1,1.9-4.1,2.6-5.9c1.8-5.5-1.8-10.8-3.4-15.9l0.2,0.6
		c-0.1-0.2-0.2-0.4-0.2-0.6c-0.1-0.5-0.2-1.3-0.4-1.8c-0.5-4.6-0.6-8.8,1.8-13.2c1.6-2.6,3.6-4,4.9-5.4c4.7-4.4,6.1-9.6,7.7-15.8
		c2.1-6.3,7.5-9,13.3-9c0.1-1.3,0.2-2.6,0.3-3.9c-8,2.9-15.9,6-23.8,9.2c-0.2,0.1-0.4,0.2-0.7,0.3c-14.8,6-29.3,12.6-43.6,19.7
		c-0.9,0.4-1.7,0.5-2.3,0.3c1.1,2.6,2.1,5.4,2.7,8.1c0.7,2.5,1.2,5.4,0.4,7.9c-1.9,6.9-5,12.8-7.1,19.5c-2.6,6.5-3.2,13.6-7.2,19.6
		c-3.2,3.3-6.2,1.8-8.6-1.3c0.5,14.9-2.9,30.2-10.5,43.1c-5.3,9.3-13.2,16.8-21.7,22.9c-3.7,2.5-9,6.1-12.2,9.1
		c-2.8,2.5-5.5,5.2-8,8c-0.9,1.3-2.8,2.8-4.8,2.4c-1.3-0.1-2.8-1.3-3.1-2.8c0-0.1-0.3-1.4-0.4-1.4c-2.2-9-2.4-18.6,0.1-27.5
		c1.1-5.1,4.3-10,7.7-13.9c4.2-5.4,8.4-10.8,12.5-16.2c-9,7.2-18.9,13.3-29.2,18.3c-8.3,4.2-16.9,7.8-25.7,10.7
		c-0.9,0.3-1.1,0.4-2.2,0.7c-2,0.2-3.5-1.8-3.1-3.6l0.1-0.2l0.2-1c3.6-15.4,11.1-31.6,23.9-41c-16.1,2.2-32.6,2.2-48.6,1
		c-4,0.3-6.7-4.8-3.6-7.9c7.6-8.6,17.4-14.9,26.9-21.2c4.1-2.6,8.2-4.9,12.5-7.1c-9.6,1.6-19.5,1.2-28.7-2.7c-2.4-0.9-4.8-2-7.1-3.2
		c-2.2-1-4.8-2.7-4.4-5.6c0.2-1.8,1.7-3.1,3.2-4.1c12-8.9,25.1-14.2,38.7-16.9c-12.6-3.5-23.4-12.2-30.4-23.4l-1-1.5
		c-1.1-1.7-0.1-4.1,1.8-4.7c0.7-0.3,1.6-0.1,2.3-0.1c9.1,1.1,17.9-0.6,26.8-1.9c19.8-2.6,39.9,5.2,54.9,18.2
		c-0.1-0.4-0.3-0.9-0.4-1.3c-0.3-0.9-0.6-2.1-0.2-3c3.4-6.2,9.4-2.3,13.3,0.2c3.9,2.4,7.8,4.2,11.8,5.3c4.6,1.4,9.4,0.4,13.8,2.6
		c5.3,2.5,9.3,6.6,12.2,11.5c0.2-0.8,0.8-1.5,1.7-1.9c13.8-6.3,27.8-12.4,41.8-18.2c-2.5-6.7-7.8-12.6-14.7-15.8
		c-1.5,2.7-3.7,4.9-6.8,5.7c-4.9,1-9.5,0.4-13.7-2.4c-0.2-0.2-0.4-0.5-0.5-0.7c-10.7,4.5-23.6,3.9-33.5-2.3
		c-15.2-8.8-22-26.5-22.7-43.2c-0.2-4.3,0-8.7,0.5-13c0-0.4,0.1-0.8,0.4-1.2c0.7-0.9,1.8-1,2.6-0.4c-0.1-0.4-0.2-0.7-0.3-1.1
		c0-0.1-0.1-0.4,0.1-0.8c0.4-0.4,0.6-0.3,0.7-0.4c0.4-0.1,0.8-0.1,1.2,0c-0.2-0.7,0.3-1.5,1.1-1.4c17.7,0.9,39,8.2,50.7,22.7
		c-5.5-12-19.1-18.5-31.7-21c-5.6-1-11.5-1.2-17.3-1.7c-0.4,0-0.7-0.3-0.9-0.6c-0.4-1.3,0.8-1.7,1.8-2c7.6-2.8,15.9-4.1,24-3.5
		c16.8,0.6,34.1,10.6,40.5,26.7c2.6,6.8,3.3,14.5,1.7,21.6c0.8-0.2,1.6,0,2.4,0.7c1,1,1.1,1.8,1.4,2.6c0.9,3.6,1,7.3,0.1,11
		c-0.2,0.9-0.5,1.7-0.8,2.6c7.9,2.4,15,8.2,19,15.9c11.5-4.7,23.2-9.2,34.9-13.3c2.4-0.8,4.7-1.7,7.1-2.5
		c-14.1-12.7-24.3-29.9-26.9-48.7c-0.3,0-0.5,0-0.8,0c-12.7-0.3-25.4-8.3-29.3-20.6c-0.3-0.8-0.1-1.8,0.8-2.4
		c0.8-0.4,1.7-0.8,2.5-1.1c-14.9-2.5-29.8-9.5-38.1-22.5c-3.5-5.8-6.6-11.2-11.5-15.9c-0.4-0.5-0.9-0.9-1.1-1.6
		c-0.7-1.8,1.1-3.7,2.7-3.6c5.6-0.2,11.1,0.3,16.5,1.9c6.6,1.9,12.7,5.8,17.3,10.8c1.5,1.6,2.9,3.1,4.4,4.6
		c-6.8-12.3-10.8-26.3-12.6-40.1c-0.1-0.7-0.4-3.2-0.4-3.8c-0.2-1.4,1.1-2.8,2.4-2.8c1,0,1.4,0.3,2,0.6c9.8,4.3,19.8,11.3,24.5,21
		c0.7-10.6,2.9-21.1,5.9-30.9c0.6-1.4,0.8-4.1,2.1-5.1c1.6-1.3,4.2-0.7,5,1.1l0.7,1.4c3.2,6.5,6.1,13.3,8.3,20.3
		c1,3.2,1.9,6.4,2.7,9.6c1-8.8,4.4-17.3,10.9-23.7c1.5-2.3,4.8-2.8,6.3-0.2c2.8,7.2,4.2,14.3,4.8,21.8c0.3,4,0.2,8.1-0.2,12.1
		c2.5-4.6,5.9-8.8,10.1-11.9c4.3-3.2,9.1-5.5,14.2-7.1c1.7-0.6,3.5,1.3,2.7,2.9c-5.2,12-3.4,26.3-12.1,37
		c-4.3,6.1-9.8,11.4-16.1,15.5c0.7,0,1.4-0.1,2.1-0.1c0.8,0,1.5,0.5,1.9,1c0.8,0.9,0.5,2.2,0.2,3.2c-1.8,7.8-6,15.1-12.1,20.3
		c-3.7,3.7-8.9,7.1-14.4,7.9c3.9,18.6,15.4,34.8,30.5,46.1c0.2,0.2,0.3,0.4,0.5,0.6c14.6-5.1,29.4-9.8,44.3-14.2
		c0-3.1,0.2-6.2,0.5-9.3c-6-4.2-10.4-10.9-11-17.7c-0.7-5.9,3-10.9,3.7-16.2c0.3-2.2,0.4-5,0.3-7.4c0-3.8-1.7-7.6-2.1-11.6
		c-0.8-6.2,1.5-12.6,5.7-17.2c2-2.2,4.6-3.1,6.5-5c2.5-2.4,4.7-5.3,5.5-8.7c1.3-4.4,1.2-9.4,2.7-14C320,54.9,332.8,52,339,41.7
		c2.6-4.3,5.9-9.9,10.4-12.9c4.4-3.4,9.4-5,13.7-8.4c3.6-2.7,7-5.9,9.9-9.3l0.6-0.7l0.2-0.2c0.3-0.7,1.7-1.2,2.3-1
		c0.3,0.3,0.8,1,0.8,1.7c0,0.8-0.1,0.7-0.1,0.9l-0.1,0.9c-0.5,4.3-0.4,8.6,0.2,12.8c0.6,5.1,3,9.7,3.2,15.1
		c0.6,5.3-1.9,10.7-3.5,15.5c-4.7,12.1-1.2,24.9-4.8,37.5c-0.5,2.4-1.6,5.6-3.4,8c-1.5,2.2-4,3.8-5.6,5.5c-4.9,5.3-3,16-3.6,20.4
		c-1.2,6.1-3.2,11.7-8.2,16c-5.3,3.6-9.7,3.7-14.3,7.4c-7,4.4-9.5,14.9-18.6,16.5c-3.5,0.6-7.1,0.1-10.4-1.3c-0.8,2-1.7,3.9-2.6,5.9
		c65.2-18.9,133-29.8,200.8-22c0.7,0,0.7,1.2,0,1.2C505.9,151,462,156,462,156z M221.4,229.9c-1.9,3.5-6.5,7-8.5,9.6
		c-1.3,2.2-1.5,6.1-1.1,8.9c0.1,0.5,0.1,0.7,0.2,1.2c0-0.1-0.1-0.4-0.2-0.5l0.2,0.6c2.4,6.1,5.5,12.8,3,19.6
		c-0.8,2.1-1.9,3.5-2.5,5.4c-0.9,3.1,0.1,7.4,0.7,10.7c2.1,7.5,6.1,16.1,5.9,24.3c-0.1,6-0.1,11.4,4,16.2c2.7,3.6,4.8,7.9,6.2,12.3
		c0.9-2.5,2-4.9,3.3-7.2c3-5.5,8.3-9.9,9.5-16.1c0.6-6.3,2.3-13.6,6.1-19.2c2.5-3.7,5-7.5,5.6-11.6c-1.5-7.1-4.4-14.7-0.6-21.9
		c0.5-1.2,1.3-2.4,1.9-3.3c2-2.5,2.3-6.7,1.5-9.8c-0.5-1.7-1.4-3.3-2.5-4.7c-2.9-3.5-5-8.2-6.1-12.7c-1.3-4.1,0.1-8.5-1.7-12.1
		c-1.2-2.4-3.3-4.1-5.7-5.3c2.9,12,2.5,24.4,1.3,36.6c-1,18.2-4.1,36.4-9.9,53.7c0,0.2-0.3,0.1-0.3-0.1c2-17.9,3.3-35.8,3-53.8
		c-1-12.9-2.2-25.6-1.9-38.4C224.3,212.5,226.6,222.8,221.4,229.9z M84.3,354.7c0.2,4.2,1,8.4,2.1,12.4c0,0.1,0,0.1,0.3,0.2
		c0.6,0,0.4,0.1,1.5-1.2c4.2-5,8.9-9.7,14.1-13.7c5.9-4.3,12.5-9.2,17.4-14.6c16.2-17.1,21.7-46.1,16-67.2c-1.3,2.5-2.6,5.5-4,8
		c-4.6,8.2-13.1,17.6-18.9,24.9c-7.9,10-16.8,19.4-24.2,29.7C85.2,339.6,84,347.4,84.3,354.7z M45.8,335.8c-0.3,0,1.5-0.5,1.5-0.5
		L51,334c31.2-11.5,61.6-31.5,76.1-62.4c0.4-0.9,0.8-1.9,1.3-2.8c-1.3,0.9-2.5,1.7-3.4,2.4c-12.9,9.4-28.5,16-43.8,19.3
		c-9.9,2.5-18.1,9.2-23.9,17.6C51.6,316.3,48.2,326,45.8,335.8z M17.8,289.2c-0.2,0-0.3,0.1-0.4,0.3c0,0.7,0.1,0.8,1.4,0.8l4.5,0.3
		c32.1,1.5,66.3-3.4,93.1-22c9.6-6.5,17.2-15.5,24.6-24.3c-32.9-2.6-67.7,7.8-95.9,25.8C35.5,275.7,27.1,283.2,17.8,289.2z
		 M18.7,245.9c-0.7,0.5-1.1,0.8-1.2,1.8c-0.1,1.1,1.2,1.4,2,1.9c16.3,8.6,33.8,7,50.2-0.5c14.4-6.4,35.4-9.4,52.3-12.5
		c-3.7-1.4-7.6-2.5-11.4-3.5c-9.3-1.8-18.7-3.2-28.1-4.4c-2.9-0.2-5.9-0.3-8.8-0.3C54.1,228.4,34.8,234.7,18.7,245.9z M55.8,197.5
		c-9.1,1-18.3,2.3-27.4,0.9c-0.4,0-1.3-0.4-1.5,0.2c-0.1,0.2-0.1,0.3,0,0.5l0.9,1.4c8.3,13.2,22.7,21.9,38.4,22.3
		c2.1,0.1,4.3,0.3,6.4,0.5c14.1-0.6,28.5,1.3,42.6,4.7c0.6,0.1,1.3,0.2,1.9,0.3C102.9,209.2,80.2,195.1,55.8,197.5z M145.4,222.7
		c-1.6-0.8-2.7-1-5.4-1.5c-7.3-1.2-13.8-5.6-19.4-9.8c-1.8-1.3-3.7-2.7-5.2-3.1c-0.7-0.3-1.4,0.2-1.8,0.6c0.1,0.2,0.1,0.4,0.1,0.4
		c4.7,14.7,17.9,24.8,32.2,29.3c3,0.6,4.2,4.6,2.1,6.8l-0.5,0.6c-4.7,6-7.1,14-6.8,21.9c1.3,3.1,1.8,7.3,2.2,10.6
		c0.9,2.2,1.9,4.3,3.3,6.2c0.6,0.6,1.1,1.4,1.9,1.4c0.9,0,1.5-0.3,2.1-1c3.5-5.5,3.8-12.8,5.4-19.1c1.3-8.4,5.7-16.7,4.9-25.2
		C158.5,233.2,152.1,226.3,145.4,222.7z M171.7,192.6L171.7,192.6C171.6,192.7,171.7,192.7,171.7,192.6z M173.8,139.1
		c-7.5-7.3-17.9-11.5-28.4-12.2c-6.4-0.6-12.9,0-19.1,1.4c18.9,1,40.4,6.7,47.7,25.9c1,3,1.7,5.9,1.9,9.1c0.1,0.8-0.4,1.6-1.2,1.9
		c-0.9,0.3-2-0.2-2.3-1.2c-6.6-20.5-31.8-30.9-52-32.4c3,1.9,6,4,8.9,6c6.6,4.6,13.7,8.4,20.2,13.3c7.2,5.6,12.8,12.9,17,20.9
		c1.1,1.7-1.1,4-2.9,2.9c-12-6.5-24-13.8-32.5-24.8c-4.1-5.3-6.7-11.8-11.8-16.2c-0.6-0.5-1.3-1-2-0.9c2.5,10.4,7.3,20.1,13.6,28.7
		c6.2,8.7,15.2,14.9,24.9,19.1c2,0.8,1.4,4.1-0.8,4.1c-8.8,0.9-17.4-3.8-23.4-10c-8.5-8-13.8-18.6-16.2-29.9
		c0.1,16.9,6.4,35.3,21.6,43.7c13.3,8.2,32.3,4.9,42-7.2C188.8,168.7,185,149.5,173.8,139.1z M122.7,135.1c2,2.2,3.6,4.7,5.2,7.1
		c7.1,12.6,19.4,20.6,32.4,26.4c-4.9-9.6-12.7-17-22-22.8C133,142.5,127.8,138.6,122.7,135.1z M117.5,138.8
		c1.4,9.9,4.6,19.8,11.2,27.5c4.6,5.6,10.7,11.3,17.7,13.4c-6.7-4.6-12.7-10.2-17.1-17C124.3,155.2,120.2,147.2,117.5,138.8z
		 M188.8,185.7c0.8-3,0.3-6.9-0.9-9.8c-1.8,1.8-3.4,5.6-5.1,7.9c-1.7,2.3-3.6,4.4-6.2,6.2c-1,0.6-2.1,1-3,1.4
		c-0.4,0.3-0.9,0.5-1.3,0.8c-0.1,0.1-0.2,0.1-0.3,0.2C178.4,194.7,186.6,193,188.8,185.7z M181.9,87.4c-7.9-8.8-20.2-12.2-31.4-11.6
		c4.8,4.7,8.4,10.8,11.7,16.5c9.3,14.6,27.2,21.5,44,22.6c0.7,0,1.4,0,2.1,0.1c0.5,0,0.9,0,1.4,0c-0.8-0.7-1.6-1.4-2.4-1.9
		c-4.5-3.5-8.4-7.6-11.9-12C190.8,96.6,186.3,92,181.9,87.4z M178.2,46.8c2.9,24.7,12.6,50.2,33.4,65.2c0.7,0.5,1.3,1.1,1.9,1.7
		c-0.9-2-1.9-4.1-2.5-5.5c-5-9.9-7.2-21.5-7.4-32.3c-0.4-7-3.8-13.4-8.8-18.3C190.1,53,184.2,49.6,178.2,46.8z M214.9,32.9l-0.7-1.4
		c-0.1-0.2-0.2-0.1-0.3-0.1c0,0,0-0.1-0.2,0.6c-7,21.8-10.2,47.5-2.1,69.2c0.1,0.3,0.2,0.6,0.3,0.8c0.3,0.9,0.7,1.7,1.1,2.5
		c0.3,0.7,0.7,1.5,1,2.2c0.1,0.3,0.3,0.6,0.5,1c2.5,4.9,5.6,9.5,9.5,13.7c0.4-1.4,0.8-2.7,1.2-4.1c0-0.1,0-0.2,0-0.3
		c0.8-7.5,2.7-18.9,3.5-28.4C228.6,69.5,223.5,50.1,214.9,32.9z M248.1,59.5c-0.3-7.1-1.9-14.4-4.2-20.8c-0.2-0.4-0.6-0.6-1.1-0.6
		c-4.6,3.5-7.6,9.3-9.7,14.7c-2.6,6.7-1.9,13.8-1.2,21c0.7,4.8,0.7,10.3,0.4,16c0,6-0.3,12.1-1.3,18c-0.1,0.7-0.3,1.4-0.4,2.1
		c-0.1,0.8-0.2,1.5-0.2,2.3c1.3-1.9,2.6-3.9,3.8-5.9c3.2-6.1,6.2-12.3,9.1-18.6C246.6,78.6,248.5,69.1,248.1,59.5z M271.1,73.9
		c1-6.2,1.9-12.9,4.6-18.7c0.1-0.3,0.5-0.8,0.1-1.1c-0.1-0.3-1.4,0.4-1.5,0.3c-10.4,3.5-19.2,11.2-22.6,21.8
		c-3.9,11.2-8.3,22.4-13.5,33.2C253.8,103.4,268,90.8,271.1,73.9z M239.3,129.6c6.2-4.8,10.5-11.9,12.2-19.5c-3.3,0-6.6,0.7-9.7,2
		c-0.3,0.2-0.6,0.3-1,0.4c-5,2.3-9.4,6-12.2,10.7c-1,1.2-1.7,3.3-2.5,3.9c-1,0.7-2.4,0.2-2.9-0.8c-2.2-3-4.7-5.2-7.4-6.7
		c-0.7-0.1-1.5-0.5-2-1c-1.9-0.8-3.8-1.2-5.8-1.4c-0.7,0-1.5,0-2.2-0.1c-3,0-5.9,0.7-8.9,1.8c6.1,9.2,15.7,17.4,27.2,17.3
		C230.2,136.6,234.8,133.6,239.3,129.6z M310.8,160.2c4,1.6,8.3,0.8,10.8-2.4c3-4,6.8-9.4,11.3-12.3c3.8-3.2,10.5-4.9,14.2-7.2
		c2.8-2.1,4.7-6.6,5.5-10.2l0.2-0.9l0.1-0.4v-0.2v-0.1l0,0c0,0.2,0,0.4,0,0.6v-0.6c0.1-8-0.6-16.9,5.3-23.5c1.8-2.1,3.8-3.1,5.3-5.1
		c2.5-3.4,3.4-8.7,4.1-12.9c0.9-9.6,0.3-21.1,4.2-30.5c3-7,5.3-13.2,2.7-20.8c-1.6-5.8-2-11.9-1.4-18c-2.4,2.7-5,5.3-7.9,7.6
		c-6,4.9-14.1,7.5-18.4,14.1c-3.6,6.9-8.8,14.4-15.6,19c-4.7,3.1-9.3,6.4-12,11.1c-1.6,8.9-1.6,18.6-9.2,25c-1.8,1.9-4.5,3-6.1,4.8
		c-2.1,2.5-3.7,5.8-4,9.1c-0.2,2.2,0.1,4.6,0.7,6.8c1.7,5.3,1.9,11.4,1.2,17.1c-0.4,5.3-4,9.8-3.6,14.8c0.3,3.9,2.6,7.5,5.6,10.3
		c2.3-15.5,8.3-30.1,15.3-44c9.3-20.4,20.9-39.9,35-57.4c0.1-0.1,0.3,0,0.3,0.2c-10.9,19.4-20.6,39.3-28.6,60
		c-5.1,15.3-9.7,30.6-15.6,45.6C310.4,160,310.6,160.1,310.8,160.2z"/>
</g>
</svg>
