<?xml version="1.0" encoding="utf-8"?>
<!-- Generator: Adobe Illustrator 27.3.1, SVG Export Plug-In . SVG Version: 6.00 Build 0)  -->
<svg version="1.1" id="Layer_1" xmlns="http://www.w3.org/2000/svg" xmlns:xlink="http://www.w3.org/1999/xlink" x="0px" y="0px"
	 viewBox="0 0 473 279" style="enable-background:new 0 0 473 279;" xml:space="preserve">
<style type="text/css">
	.st0{fill:none;}
	.st1{fill:#D19A2C;}
	.st2{fill:#C09C53;}
</style>
<g>
	<path class="st0" d="M369.5,182.5c-3.1-4.3-6.4-8.5-9.8-12.6c-2.2-2.4-4.5-4.8-7-7c0.2,0.8,0.5,1.6,0.8,2.5c0.5,1.1,1,2.2,1.4,3.4
		c2.1,5.2,3.6,10.5,4.7,15.9c0.9,3.1,1.6,5.9,2,8.4c0.6,4.6,1,9.8,2.1,14.2c1.9,8,7.5,15.1,14.4,19.6c0.7,0.4,1.7,0.1,1.9-0.8
		c1.8-12.3-0.5-25.6-6.5-36.8C372.3,186.9,370.9,184.7,369.5,182.5z M371.6,215.6c1.6,2.4,3.5,4.5,5.4,6.6c0.3,0.3-0.2,0.8-0.5,0.5
		c-4.8-3.1-7.9-9.2-9.7-14.5c-2.1-5.9-2.9-12.2-3.4-18.4c-0.1-0.5,0.6-0.6,0.7-0.1c1,6,1.8,12,3.8,17.8
		C368.8,210.4,370,213.1,371.6,215.6z"/>
	<path class="st0" d="M336.7,181.4c0.2-2.3,0.7-4.7,1.2-7.2c0-0.1,0.1-0.2,0-0.3c0.6-3.2,1.4-6.4,2-9.4c-0.9,1.1-1.6,2.5-2.6,3.6
		c-15.3,16.9-18.8,41-16.4,63c0,0,0,0.2,0.1,0.2c4.9-3.7,9.6-7.8,12.9-12.9c3.4-5.2,5.2-11.4,4.2-17.6
		C337.1,194.6,336,188,336.7,181.4z M323.5,225.8c-0.1,0.2-0.4-0.1-0.3-0.2c2.9-3.5,5.9-6.9,8.2-10.9c2.2-3.8,3.3-7.7,3.7-12
		c0-0.3,0.5-0.3,0.5,0c0.2,4.1-1.3,8.2-3.2,11.7C330.1,218.6,326.9,222.3,323.5,225.8z"/>
	<path class="st0" d="M357.5,185.2c-2.4-7.9-6-17-8.1-23.4c-0.6-1.1-1.2-2.3-1.8-3.5c-0.4-0.7-0.5-1.4-1.2-0.8
		c-2.5,4.1-4.2,8.4-5.5,12.8c-0.2,0.7-0.4,1.5-0.4,1.9c-0.5,2.3-1,4.6-1.3,6.9c-2.1,18.9,4.7,39,13.9,55.6l1.4,2.4
		c0.4,0.9,1.1,0.9,1.3,0.2C360.2,220.6,361.1,202.5,357.5,185.2z M348.8,218.1c-1.3-2.8-2.4-5.7-3.3-8.7
		c-3.8-12.4-4.8-26.1-1.7-38.7c0.1-0.2,0.4-0.1,0.3,0.1c-1.1,8.1-1.4,16.3-0.4,24.4c0.9,7.7,3.1,15.2,6,22.5
		C350,218.3,349.1,218.7,348.8,218.1z"/>
	<path class="st0" d="M334.1,168.5c0.8-0.9,1.6-1.9,2.3-2.9c-0.1,0-0.1,0-0.2,0c-0.2,0-0.6,0.1-0.8,0.2c-0.5,0.1-1,0.3-1.6,0.4
		c-0.6,0.2-1.1,0.3-1.7,0.4c-9.1,2.5-17.5,6.9-24.3,13.4c-6.7,5.8-9.7,14.1-12.3,22.4c-1.1,3-2.7,5.7-4.4,8.4c0,0.1,0,0.1,0,0.2
		c10.4-1.1,20.5-6.7,25.8-15.8c3.1-5.1,6.3-10.1,9.5-15C328.7,176,331.1,172.1,334.1,168.5z M318.4,176.4c-1.9,1.2-3.8,2.4-5.6,3.8
		c-3.6,2.8-7.2,5.8-10.5,9c-0.1,0-0.2-0.1-0.2-0.1c3.3-3.4,6.4-6.9,10-9.9c1.9-1.5,3.9-3,6-4.3c1.9-1.2,4-2.4,6.2-2.8
		c0.5-0.1,0.8,0.5,0.4,0.9C322.8,174.3,320.5,175.1,318.4,176.4z"/>
	<path class="st0" d="M359.8,165c7,8.6,13.2,17.9,19.1,27.2c3,4.8,6.9,8.8,12,11.2c4,2,8.5,3.2,13,3.7c0.4,0.1,0.7-0.3,0.7-0.6
		c0-0.2-0.3-0.5-0.4-0.7c-3.5-4.6-5.3-10.2-7.5-15.3c-6.1-14.3-21.2-23-36.1-25.4C360.4,165.1,360.2,165.1,359.8,165z M374.6,172.3
		c5.1,1.9,9.6,5,13.2,9.1c1.8,2,3.4,4.2,4.7,6.5c1.3,2.3,2.8,4.9,3,7.6c0.1,0.5-0.6,0.6-0.8,0.2c-1.3-2.3-2-4.8-3.2-7.1
		c-1.3-2.3-2.7-4.4-4.5-6.3c-3.5-4-7.8-7.3-12.6-9.7C374.3,172.5,374.4,172.2,374.6,172.3z"/>
	<path class="st0" d="M216.6,168c6.2-3.3,13.2-5.7,19.9-8.3c-1.1-0.1-2.1-0.1-3.1-0.3c-32.6-5.8-65,8.2-90.3,27.6
		c-0.2,0.2-0.5,0.4-0.5,0.4c-0.1,0.1-0.1,0.4,0.1,0.5h0.1l0.2,0.1l0.8,0.3c8.1,2.9,16.7,5,25.3,5c9.1,0,18.2-2.8,25-8.8
		C201,178.4,208.2,172.1,216.6,168z M182.8,168.9c-7.3,2.9-14.3,6.6-21.4,10.1c-0.4,0.2-0.8-0.4-0.4-0.7c3.8-2.4,7.7-4.5,11.8-6.5
		c7.2-3.4,14.7-6.4,22.4-8.3c7.5-1.9,15.7-3.1,23.5-1.9c0.2,0.1,0.2,0.4,0,0.4c-4.4,0.1-8.8,0.2-13.1,0.8
		C197.7,163.8,190.1,166,182.8,168.9z"/>
	<path class="st0" d="M139,142.6c2.4,2.9,5.3,5.6,8.4,7.9c7.1,5.3,16,8.7,24.8,7.2c9-0.9,18.1-1.8,27.1-2.6
		c9.2-0.7,18.2-2.1,27.5-1.4c3,0.2,6.4,1,9.4,1.1c-1.7-3.1-5.9-6.5-9.1-8.9c-7.1-5.3-15.1-9.6-23.7-12.1c-12.9-4-26.6-3.2-39.2,1.4
		c-4.2,1.5-8.6,3.3-13,4.2c-3.7,0.9-7.9,1.5-11.6,2C139.2,141.5,138.7,142.2,139,142.6z M170.6,136.3c2.7-1.1,5.6-1.7,8.4-2.1
		c7.4-1,15-0.7,22.3,1.2c3.4,0.8,6.6,2,9.7,3.4c2.2,1,4.8,2.1,6.6,3.8c0.1,0.1,0,0.3-0.2,0.2c-2.7-0.8-5.3-2.3-8-3.3
		c-6.9-2.5-14.3-3.8-21.6-3.8c-5.8,0-11.2,1-16.8,2.1C170.2,137.9,169.9,136.7,170.6,136.3z"/>
	<path class="st0" d="M252.4,90.1c2.7,1.1,5.6,2,8.5,2.5c-6.9-8.2-14.9-15.7-24.7-20.1c-2.6-1.4-10.9-3.1-15.4-5.8
		c4.6,3.9,9.5,7.7,14,11.8C240,83.3,245.7,87.8,252.4,90.1z"/>
	<path class="st0" d="M271.2,67.2c-10.2-10.3-26.2-12-39.8-9.1c-2.2,0.5-4.5,1.1-6.6,1.8c6-0.7,13.2-0.5,19.1,0.8
		c11.6,3.3,25,10.2,27.5,23c0.2,0.7-0.3,1.4-1,1.6c-0.5,0.1-1,0-1.3-0.4c-6.1-7.2-13.6-13.4-22.6-16.7c-8.9-3.3-18.5-5.2-27.9-4.9
		h-0.1v0.1c0,0.7,0.7,1.3,1.4,1.8c5.1,3.3,11.2,4.1,16.7,6.3c11.3,4.7,20.4,13.3,28.6,22.2c0.9,0.9-0.1,2.5-1.3,2.2
		c-7.8-1.6-15.3-4.6-21.8-9.4c-8.4-6.7-16-13.9-24.2-20.8c0.1,0.2,0.2,0.6,0.2,0.6c4.9,13.4,14,25.9,26.4,33.2c4.3,2.6,9.1,4,14,4.2
		c1.3,0,1.5,2,0.2,2.2c-13.5,3.3-26.7-5.7-33.6-16.9c-4-5.8-6.2-12.6-8.5-19.1c0.1,6.5,1.1,13,3.5,19.1
		c4.5,13.3,16.4,24.7,30.6,26.2c9.1,0.9,19.2-2.3,24.6-9.8C283.4,94.1,281.5,76.8,271.2,67.2z M266.2,84.9
		c-6.8-6.7-14.6-12-23.5-15.7c-0.5-0.2-0.2-0.9,0.2-0.7c9,3.1,17.4,8.7,23.6,16.1C266.9,84.8,266.4,85.1,266.2,84.9z M240.9,95.6
		c-4.5-2.8-8.4-6.7-11.6-10.9c-1.7-2.2-3.3-4.4-4.7-6.8c-1-1.8-2-3.7-2.5-5.7c0-0.3,0.3-0.3,0.5-0.1c1.1,1.8,1.8,3.8,2.8,5.7
		c1.3,2.4,2.7,4.8,4.4,6.9c3.2,4.2,7.2,7.5,11.4,10.6C241.4,95.4,241.2,95.7,240.9,95.6z M277.7,86.2c-0.5-3.6-1.4-7-3.1-10.3
		c-1.7-3.2-4.1-6.2-6.7-8.6c-0.1-0.1,0-0.3,0.1-0.2c6,4.3,10,11.8,10,19.1C278,86.4,277.7,86.4,277.7,86.2z"/>
	<path class="st0" d="M255.8,166.1l1-1.7c0.3-0.5,0.7-1.3,0.7-1.3c0.1-0.3-0.2-0.9-0.7-0.8c-10.3,0.7-20.7,2.1-30.3,6
		c-28.1,11.1-48.8,35.5-63.4,61.3c-1,1.3-0.2,2.5,0.9,2.1l1.8-0.7c2.2-0.9,8.8-3.1,11.1-3.9C209.1,216,238.4,195.4,255.8,166.1z
		 M194.2,216.9c-3.9,2-7.7,3.9-11.7,5.6c-3.6,1.6-7.2,3.3-11,4.5c-0.7,0.3-1.2-0.8-0.5-1.1c3.6-1.8,7.3-3.2,10.9-4.9
		c3.9-1.7,7.7-3.6,11.5-5.5c7.1-3.6,14.2-7.3,21.2-11.3c0.3-0.1,0.5,0.3,0.3,0.5C208.2,209.2,201.3,213.3,194.2,216.9z M250.4,166.4
		c-3.5,0.8-7,1.5-10.4,2.4c-8.3,2.1-16.4,4.9-23.7,9.4c-7.4,4.6-14.5,10-21.1,15.7c-0.3,0.2-0.6-0.2-0.4-0.4
		c3.7-3.7,7.6-7.2,11.8-10.5c6.9-5.2,14.2-9.6,22.3-12.4c6.9-2.4,14-4,21.3-4.5C250.7,166,250.7,166.3,250.4,166.4z"/>
	<path class="st0" d="M238.2,151.4c5.8,4.6,13.1,7.2,20.5,6.7l0.7-0.1c2.1-0.4,3.9,1.8,3.2,3.8c-3.9,13.1-2.1,28.3,7,39.1
		c0.8,0,1.8-0.4,2.1-1.3c1-5.6-0.7-12,0.8-17.9c0.3-3.7,3.1-7.6,3.5-11.1c0.6-7.1-1.8-15.1-6.5-20.6c-2.8-2.6-6.1-3.8-9.8-4.9
		c-3.9-1.2-7.7-2.5-11.5-3.9c-5.6-1.8-11.1-5.2-17-5.3c-4.6,0.6-0.8,6.4,0.6,8.6c0.4,0.6,0.8,1.1,1.2,1.6c0.6,0.5,1.2,1,1.8,1.5
		C235.5,148.5,237,149.8,238.2,151.4z M273.7,167.2c0.9,1.5,0.6,3.3,0.1,4.8c-0.3,1-0.8,1.8-1.2,2.8c-0.5,0.9-0.9,2-1.2,2.9
		c-0.1,0.3-0.7,0.2-0.6-0.1c0.2-2,1.4-3.6,2.2-5.4c0.7-1.5,1.1-3.3,0.5-4.9C273.3,167.1,273.6,167,273.7,167.2z M231.6,139.9
		c0-0.2,0.2-0.2,0.3-0.1c0.9,1.2,1.6,2.7,2.5,4c1,1.4,2.1,2.5,3.4,3.6c2.5,2.1,5.4,3.4,8.4,4.7c0.5,0.2,0.3,0.9-0.2,0.8
		c-3.3-0.7-6.3-2.8-8.8-5c-1.3-1.2-2.4-2.4-3.4-3.9C232.9,142.8,231.9,141.4,231.6,139.9z"/>
	<path class="st0" d="M257.2,186.3c-0.7,1.5-1.3,3.1-2,4.6c-4,11.2-9.2,21.9-16,31.5c-1.1,1.9-2.1,3.8-3.2,5.7
		c-7.6,12.3-7.7,27.9-1.3,40.8c0.3,0.6,1.3,0.6,1.5-0.1c1.9-3.9,4.1-7.6,6.6-11c7.7-9,15.6-18.1,17.8-30
		C264,214,262.4,199.4,257.2,186.3z M259.8,216.1c1.3,14.4-7.7,27.1-16.5,37.6c-0.4,0.5-1.2-0.1-0.8-0.6c4.3-6,9-11.6,12.2-18.3
		c2.8-5.7,4.7-12.2,4.7-18.6C259.4,215.9,259.8,215.9,259.8,216.1z"/>
	<path class="st0" d="M251,191.2c1.5-4.3,3-8.8,4-13.4c-9.1,9.4-21.7,23.5-31,30.6c-8.9,6.4-18.8,12.2-24.2,22
		c-3.3,5.6-5.2,12.1-6,18.7c-0.1,0.9-0.4,2,0.4,2.7c0.7,0.5,1.5,0.6,2.1,0.4c8.1-3.1,15.7-7.3,22.6-12.6
		c8.4-6.5,15.2-14.6,20.6-23.6c1.8-3.5,3.6-6.8,5.2-10.4C246.8,200.8,249,196,251,191.2z M229,210.3c-2.3,2.2-4.9,4.2-7.6,6
		c-2.6,1.8-5.4,3.2-8,5c-3.3,2.3-6.2,5.3-8.5,8.6c-2.4,3.4-3.8,7.1-5.8,10.8c-0.2,0.4-1,0.1-1-0.4c0.9-4.4,3.4-8.5,6.1-12.1
		c2.4-3.1,5.3-5.9,8.6-8.1c2.7-1.8,5.6-3.1,8.4-4.8c6.1-3.9,11.3-9.1,15.8-14.7c0.2-0.2,0.6,0,0.4,0.3
		C234.7,204.3,232.1,207.5,229,210.3z"/>
	<path class="st0" d="M282.7,95.7c-1,1-0.8,3.4-1.3,5.1c-1.2,3.7-3.5,6.8-6.2,9.3c-1.2,1.2-2.8,2.6-3.3,4c2.9,0.7,6.9,0,9.5-1.5
		C287.6,108.7,287,100.8,282.7,95.7z M283.8,106.5c0.1-0.1,0.3,0,0.3,0.1c0,1.3-0.9,2.5-1.8,3.3c-0.9,0.9-2.1,1.7-3.4,1.8
		c-0.4,0-0.5-0.5-0.2-0.6c0.5-0.3,1.1-0.5,1.6-0.8s1-0.7,1.4-1.1C282.7,108.5,283.1,107.4,283.8,106.5z"/>
	<path class="st0" d="M461.1,179.7c0,0.1-0.1,0.2-0.1,0.1c-15.1-12.9-28.7-27.7-40.4-43.8c-8.8-11.3-16.8-23.3-22.1-36.5
		c-2.7,3.4-4.6,7.6-4,11.9c0.6,4.6,4.6,7.8,5.9,12.3c0.9,2.4,1.5,4.7,1.9,7.2c0.7,3.7,0,7.2,0.4,10.7c0.5,5.1,3.8,10.1,8.8,11.9
		c4.8,1.8,9.2,5.5,11.4,10.1c1.9,3.7,2.8,7.7,4.6,11.3c3.3,3.7,8.1,5.7,12.8,7.6c4.6,2,8.6,4.8,12.2,8.2c1.8,1.7,3.2,3.8,4.8,5.3
		c3.4,3,7.6,4.9,12.1,6.2c5.8,1.8,11.2,4.8,16.1,8.6c-1.2-3.2-1.9-6.6-2.3-9.9c-0.7-6.4,1.1-13.4-2.8-19.1
		c-3.8-5.6-7.6-11.6-9.5-18.3c-2.3-8.4-3.6-17.3-9.7-23.6c-1.7-1.4-3.7-2-5.6-3.4c-6.2-4.5-7.1-12.2-8.7-19l0,0v-0.1
		c-0.3-0.9-0.8-1.9-1.3-2.7c-1.5-2.6-3.8-5.6-6.4-6.7c-3.9-1.5-9.6-1.5-13.7-3.7c-4.5-1.7-8.5-5.6-11.9-8.6
		c-3.1-2.6-7.5-2.5-10.8-0.2c-0.4,0.2-0.7,0.6-1.1,0.9c7.7,12.4,15,25.1,22.6,37.3C435.2,149.8,447.6,165.3,461.1,179.7z"/>
	<path class="st0" d="M323.3,165c2.7,0.8,5.3,0.9,8,0.4c0.9-0.2,1.8-0.5,2.6-0.7c5.2-1.7,9.5-5.7,11.6-10.8c0.4-1,1.9-1.2,2.5-0.2
		c4,4.8,9.6,8.5,15.8,9.5c3,0.5,5.9,0.5,8.8-0.1c0.2,0,0.4-0.4,0.2-0.6c-3-6.3-8-11.7-14.3-14.8c-4.7-2.7-9.5-4.5-14.8-3.1
		C333.6,146.7,326.4,155.7,323.3,165z M336.3,159.4c2.6-1.9,4.4-4.5,6.6-6.9c0.4-0.4,1,0,0.7,0.5c-2.9,4.8-8.4,10.8-14.8,9.4
		c-0.5-0.1-0.4-0.7,0.1-0.7C331.5,161.9,334.2,160.9,336.3,159.4z"/>
	<path class="st0" d="M331,65.4c-6.9-5.1-14.8-8.5-21.9-13.3c-6.6-5.2-13.7-11.9-17.5-18.8c5.4,6.6,11.6,12.5,18.7,17.1
		c7.3,4.3,15.3,7.5,22.3,12.5c7.3,4.4,13.5,10.9,19.9,16.1c2.6,1.9,5.3,3.6,8.2,5c0.1,0,0.2-0.1,0.3-0.2c0.2-1.3-1.4-4-2.5-5.4
		c-3.3-4.3-6.9-8.5-11.4-11.6c-2.2-1.6-4.7-2.9-7.2-4.8c-6.2-4.4-9.2-11.9-11.3-18.9c-0.8-2-2.8-3.5-4.8-4.3
		c-2.4-0.9-5.4-0.6-8.1-1.4c-4.6-1.1-8.9-3.5-11.9-7.3c-1.9-2.4-3.3-4.3-5.5-5.7c-4.8-3.3-9.9-2.5-15.6-2.7
		c-7.9-0.6-14.7-5.4-19.5-11.4c0.6,4.6,1.8,9.2,3.8,13.5c2.4,5.2,5.8,10.1,10.8,13.1c2.7,1.6,5.3,3.8,6.9,6.6c1.7,2.6,1.7,5.9,3,8.4
		c1.2,2.2,3.3,4.2,5.8,5c1.2,0.4,2.9,0.7,4.4,1.4c4.5,2,7.5,6.3,9.4,10.6c2.5,5,7.9,7.8,13.2,8.9c2.9,0.7,5.3,0.1,8.4-0.2
		c3.2-0.3,6.5,0,9.6,1.1c2.9,1,5.4,2.9,8.2,3.9c2.5,1,5.3,1.5,8.2,1.8c0.5,0.1,1.1,0.1,1.8,0.2c-1.9-1.1-3.7-2.3-5.4-3.7
		C344.3,75.6,338.3,70,331,65.4z"/>
	<path class="st1" d="M280.4,110.4c-0.5,0.3-1,0.5-1.6,0.8c-0.3,0.1-0.2,0.6,0.2,0.6c1.3-0.1,2.5-0.9,3.4-1.8
		c0.9-0.9,1.8-2.1,1.8-3.3c0-0.2-0.2-0.3-0.3-0.1c-0.7,1-1.1,2-2.1,2.9C281.3,109.7,280.8,110.1,280.4,110.4z"/>
	<path class="st1" d="M268,67.1c-0.1-0.1-0.3,0.1-0.1,0.2c2.7,2.4,5.1,5.4,6.7,8.6c1.7,3.2,2.5,6.7,3.1,10.3c0,0.2,0.4,0.2,0.4,0
		C278,78.8,274,71.4,268,67.1z"/>
	<path class="st1" d="M266.6,84.6c-6.2-7.3-14.6-13-23.6-16.1c-0.5-0.2-0.8,0.5-0.2,0.7c8.9,3.7,16.7,8.9,23.5,15.7
		C266.4,85.1,266.9,84.8,266.6,84.6z"/>
	<path class="st1" d="M241.1,95.2c-4.2-3-8.2-6.4-11.4-10.6c-1.7-2.2-3-4.5-4.4-6.9c-1-1.9-1.7-3.9-2.8-5.7
		c-0.2-0.2-0.5-0.2-0.5,0.1c0.5,2,1.5,3.9,2.5,5.7c1.4,2.4,2.9,4.6,4.7,6.8c3.2,4.2,7.1,8,11.6,10.9
		C241.2,95.7,241.4,95.4,241.1,95.2z"/>
	<path class="st1" d="M137.4,144.2l0.3,0.3l0.6,0.6c5.5,6,12.4,10.8,20.2,13.3c4.3,1.7,9.3,1.7,13.9,1.2c7.8-0.6,15.5-1.2,23.2-1.7
		c-15.9,4.2-31,11.7-44.5,20.8c-3.3,2.4-6.8,4.7-10,7.4c-0.9,1.1-0.3,2.9,1,3.4l0.2,0.1l0.8,0.3c3.9,1.4,7.8,2.7,11.8,3.5
		c10.6,2.6,22.2,2.5,32.1-1.8c-9.3,10.1-17.2,21.5-24.1,33.2l-1.9,3.5c-0.3,0.4-0.9,1.5-0.8,2.4c0.1,2.1,2.2,3.7,4.3,3.3
		c9.9-1.6,19.3-5.5,28.5-9.4c5.4-2.4,10.7-5.1,15.8-8.1c-9.2,8-15.2,17-16.7,32.3l-0.2,1.8c-0.3,2.7,2.4,5,5,3.9
		c4.1-1.5,8.2-3.3,12-5.4c8.6-4.4,15.9-10.3,22.3-17.2c-0.8,2-1.6,4-2.2,6.2c-2.5,10-0.6,20.6,3.4,30c0.4,1.1,1,2.6,2.4,2.8
		c1.1,0.3,2.3-0.4,2.8-1.3c2-3.7,4.2-7.2,6.8-10.5c8.2-8.9,16.4-18.2,19.2-30.5c2.5-9.6,2.8-19.9,1.1-29.8c0.9,1.2,1.9,2.5,2.8,3.7
		c0.2,0.4,0.9,0.7,1.3,0.8c5.8,0.5,5.6-5.5,5.6-9.3c0-4,0.5-7.8,1.6-11.5c1-4,4-7.1,4.5-11.3c0.9-6.6-1.2-13.1-4.9-18.5
		c0-0.1,0.1,0,0.1-0.1c12.9-13.2,27.4-24.9,43.1-34.6c11.3-7,23.3-12.8,35.7-17.6c-7.6,12.4-11.9,27-10.7,41.6
		c-0.3,0-0.6,0.1-0.9,0.1c-10.8,2.4-19.8,11.5-21.3,22.5c-0.1,0.6,0.2,1.3,0.9,1.6c1.2,0.3,2.3,0.6,3.5,0.7
		c-12.9,4.7-24.6,13.5-29.6,26.4c-1.9,5.5-3.5,11-6.8,15.9c-1.4,1.7-0.1,4,2,3.6l1.1-0.2c10.3-1.8,20.2-7.5,25.4-16.6
		c1.5-2.5,3-5,4.6-7.5c-4.7,13.3-5.5,28.2-4.1,42.2c0,0.2,0.1,0.8,0.1,0.9c0.1,1.6,2.2,2.1,3.2,1.2c2.4-1.8,4.8-3.7,7-5.8
		c5.2-4.9,9.5-11.4,10.8-18.5c2.9,10.5,7.5,20.6,12.8,29.6c0.4,1.2,2.1,2.2,3.4,1.5c0.7-0.3,1.2-1,1.4-1.6c0.8-3.1,1.5-6.2,2.1-9.4
		c1.4-7.2,2.1-14.7,2.2-22.2c0.1,0.4,0.2,0.8,0.3,1.2c2.1,8,7.4,15,14.2,19.7c0.8,0.5,1.6,1.2,2.6,1.1c1.1-0.1,2.1-0.8,2.4-1.9
		c1-6.6,0.9-13-0.1-19.5c-0.7-4.3-1.8-8.5-3.4-12.6c5.6,8,15.1,12.9,24.8,13.9l1,0.1c1,0.1,2.1-0.9,1.9-1.9
		c-0.1-0.4-0.4-0.9-0.6-1.2c-3.4-4.7-5.2-9.8-7.3-15.2c-4.9-12-16-20.6-28.1-24.9c0.7,0,1.6-0.1,2.3-0.2c0.9-0.1,2-0.3,2.3-1.3
		c0.5-0.8-0.1-1.9-0.4-2.6c-3-6.3-8-11.8-14.2-15.1c-4-2.6-9.1-4.6-14-4.1c-0.4-15.9,5.4-31.2,15.1-43.5c11.1-3.9,22.5-6.8,34.1-8.9
		c0.6,1.9,1.2,3.8,2,5.7c-4.4,4.6-7,11.1-6.2,16.8c0.3,2.7,1.6,5.3,3,7.4c2.8,3.8,4.1,7.8,4.9,12.3c0.7,3.3,0,7,0.4,10.5
		c0.5,5.3,3.5,10.2,7.8,13.3c3,2,6.6,2.5,9.2,5c4.6,3.6,5.7,9.5,8,14.6c0.4,1.2,1.5,2.8,2.4,3.4c3.7,3.4,8.4,5.4,12.9,7.2
		c4.2,1.7,8,4.4,11.4,7.5c3.1,3.3,6.7,7.4,11.3,9.2c4.5,2.1,9,2.7,13.4,4.9c3.7,1.7,7.2,3.9,10.4,6.4c0.4,0.3,0.8,0.6,1.3,0.9
		c0.4,0.3,1,0.3,1.3,0.2c0.2-0.2,0.3-0.8,0.2-1.2c-0.1-0.5-0.1-0.5-0.2-0.7l-0.3-0.7c-1.2-3.6-2.1-7.4-2.4-11.2
		c-0.4-6.8,1.5-14.1-2.6-20.3c-3.6-5.7-7.1-11.3-8.8-17.7c-1.7-7.5-3.5-15.9-7.9-22.7c-1.9-3.1-5.5-4.8-8.4-6.6
		c-5.4-3.8-5.9-12.9-7.3-17.3c-1.4-3.5-3.5-6.9-6.3-9.5c-4.7-4.7-11.7-3.3-17.1-6.2c-6.9-2.5-10.9-11-18.9-10.8
		c-3.2,0.1-6.2,1.3-8.8,3.2c-0.8-1.2-1.6-2.5-2.4-3.7c27-4.5,54.9-4.1,81.8,1.5c6.4,1.1,7.9-8.1,1.7-9.3
		c-36.6-6.8-74.5-4.1-109.6,6.9c-2-0.6-4.1-1.4-6.1-2.2c2.5-5.5-4.9-12.7-8.2-16.8c-5.4-6.6-14.3-9.3-18.7-16.6
		c-2.4-3.5-3.1-7.4-4.8-11.4c-2-4.7-7.5-7.6-12.4-7.6c-5.2-0.2-10.2-2.1-13.7-6c-1.8-2.1-4-4.9-6.6-6.3c-5.1-3.5-11.9-2.7-17.5-2.6
		C275,18.2,268,13,263,6.5c-0.5-0.8-1.9-0.3-1.7,0.6c0.3,6.1,1.6,12.1,4,17.7c1.2,2.8,2.7,5.5,4.6,8c3.2,5.1,9.8,7,12.8,12.1
		c1.5,2.6,1.4,5.6,2.8,8.4c1.6,3,4.2,5.5,7.4,6.5c4.3,0.9,7.7,3,9.9,6.8c1.5,2.5,2.6,5.7,4.7,7.9c5.6,5.9,14.2,8.3,22,6.8
		c6.1-0.7,10.7,2.4,15.9,5c3,1.3,6.2,1.8,9.2,2.3c2.7,0.3,6,0.6,8.4-0.7c1.3,0.6,2.6,1.1,3.9,1.6c-22.2,7.5-43.2,18.2-61.9,32.1
		c-3.7-0.2-7.3-1.1-10.6-2.8c-3.2-1.7-6.2-4.1-8.5-7c4.6-4.5,3.7-11.4-1-16.9c-0.5-0.7-1.3-1.2-2.1-1.1c0.7-5.2,0.1-10.6-1.6-15.5
		c-5-14.6-20.5-23.1-35.4-23.2c-7.4-0.3-14.8,1-21.7,3.4c-1.3,0.4-2.6,0.9-3.8,1.5c-0.8,0.2-1.2,1.1-1,1.8c0.1,0.5,1,1.1,1.6,0.9
		c0.1,0,0.6-0.1,0.6-0.1c9.6-1.5,19.8-1.3,28.8,2.9c6.8,3,14.2,7.6,17.3,14.5c-6-5.5-12.8-10.1-20.5-12.6
		c-9.2-3.1-18.9-5.1-28.6-4.6c-0.2,0-0.4,0-0.5,0.3c-0.2,0.7,0.1,1.3,0.4,1.9c-0.3-0.3-1.1-0.2-1.2,0.4c-0.1,0.4,0.2,1.1,0.3,1.4
		c5.9,15.8,17.3,31.3,33.5,37.7c-12.6-0.8-22.8-11.8-28.2-22.7c-2.2-4.6-3.7-9.6-5.7-14.4c-0.1-0.2-0.2-0.4-0.5-0.4
		c-1.1,0-1,1-1,1.8c-0.5,7.1,0.5,14.4,3,21.1c4.6,14,17.2,26.2,32.2,27.8c6.6,0.6,13.6-0.6,19.3-3.9c-0.2,0.6-0.2,1.2,0.3,1.8
		c0.7,1,2.1,1.1,3,1.1c3.2-0.1,6.4-0.7,9.2-2.3c0.8-0.5,1.6-0.9,2.3-1.5c3.7,5.8,9.6,10,16.3,11.9c-9.8,7.5-18.9,15.9-27.2,25.1
		c-0.6-0.7-1.1-1.3-1.7-2c-2.6-3.6-7.4-4.9-11.5-5.7c-3.9-0.9-7.8-1.8-11.7-2.9c-5.9-1.4-11.5-4.5-17.8-4.5
		c-4.4,0.7-4.1,4.4-2.3,8.2c-7.3-5.4-15.5-9.6-24.3-12.1c-13.5-3.9-28-2.9-41,2.1c-7.9,3.4-16,5.5-24.5,6.7
		C136.9,140.1,136,142.6,137.4,144.2z M317,195.1c-5.3,9.1-15.4,14.7-25.8,15.8c-0.1-0.1-0.1-0.1,0-0.2c1.7-2.6,3.2-5.5,4.4-8.4
		c2.5-8.2,5.6-16.6,12.3-22.4c6.8-6.4,15.3-10.9,24.3-13.4c0.5-0.1,1.1-0.3,1.7-0.4c0.5-0.1,1-0.3,1.6-0.4c0.2,0,0.6-0.1,0.8-0.2
		c0.1,0,0.1,0,0.2,0c-0.7,1-1.5,2-2.3,2.9c-3,3.6-5.4,7.5-7.6,11.5C323.3,185,320.1,190.1,317,195.1z M346.8,155.3L346.8,155.3
		C346.9,155.2,346.9,155.2,346.8,155.3L346.8,155.3z M321,231.4c0-0.1-0.1-0.2-0.1-0.2c-2.4-22.1,1.1-46.2,16.4-63
		c1-1.2,1.7-2.5,2.6-3.6c-0.6,2.9-1.4,6.1-2,9.4c0,0.1-0.1,0.2,0,0.3c-0.5,2.5-0.9,5-1.2,7.2c-0.8,6.5,0.3,13.2,1.3,19.4
		s-0.7,12.4-4.2,17.6C330.6,223.6,325.9,227.8,321,231.4z M355.7,237.5c-0.2,0.6-0.9,0.7-1.3-0.2l-1.4-2.4
		c-9.1-16.6-16-36.7-13.9-55.6c0.3-2.3,0.8-4.6,1.3-6.9c0.1-0.5,0.2-1.2,0.4-1.9c1.2-4.4,3-8.7,5.5-12.8c0.6-0.6,0.8,0.1,1.2,0.8
		c0.6,1.2,1.3,2.3,1.8,3.5c2.1,6.3,5.7,15.5,8.1,23.4C361.1,202.5,360.2,220.6,355.7,237.5z M380,226c-0.2,0.7-1.2,1.1-1.9,0.8
		c-6.9-4.5-12.5-11.4-14.4-19.6c-1-4.4-1.4-9.7-2.1-14.2c-0.4-2.5-1.1-5.3-2-8.4c-1.1-5.4-2.7-10.7-4.7-15.9
		c-0.4-1.2-0.9-2.3-1.4-3.4c-0.3-0.8-0.5-1.6-0.8-2.5c2.4,2.2,4.8,4.6,7,7c3.4,4.1,6.6,8.4,9.8,12.6c1.4,2.2,2.7,4.4,4,6.7
		C379.5,200.3,381.7,213.6,380,226z M396.7,190.5c2.1,5.2,4,10.7,7.5,15.3c0.1,0.1,0.4,0.6,0.4,0.7c0.1,0.4-0.3,0.7-0.7,0.6
		c-4.5-0.5-9-1.7-13-3.7c-5.1-2.4-9-6.5-12-11.2c-5.9-9.3-12.1-18.6-19.1-27.2c0.3,0,0.6,0.1,0.7,0.1
		C375.4,167.5,390.5,176.2,396.7,190.5z M358.5,147.8c6.3,3.2,11.3,8.5,14.3,14.8c0.2,0.2,0,0.6-0.2,0.6c-2.9,0.5-6,0.6-8.8,0.1
		c-6.3-1-11.8-4.7-15.8-9.5c-0.6-1-2.1-0.9-2.5,0.2c-2.1,5.2-6.5,9.2-11.6,10.8c-0.9,0.2-1.7,0.4-2.6,0.7c-2.6,0.4-5.3,0.4-8-0.4
		c3.1-9.4,10.3-18.3,20.4-20.3C349.1,143.3,353.9,145.1,358.5,147.8z M402.7,95.4c3.3-2.3,7.7-2.4,10.8,0.2c3.4,3,7.4,6.8,11.9,8.6
		c4,2.2,9.8,2.2,13.7,3.7c2.6,1.2,4.8,4.2,6.4,6.7c0.5,0.8,1,1.9,1.3,2.7v0.1l0,0c1.6,6.7,2.6,14.5,8.7,19c1.9,1.4,4,2,5.6,3.4
		c6.2,6.3,7.4,15.2,9.7,23.6c2,6.6,5.7,12.7,9.5,18.3c3.9,5.7,2,12.6,2.8,19.1c0.4,3.4,1.2,6.7,2.3,9.9c-4.9-3.7-10.3-6.8-16.1-8.6
		c-4.4-1.3-8.7-3.2-12.1-6.2c-1.5-1.5-3-3.5-4.8-5.3c-3.6-3.4-7.6-6.2-12.2-8.2c-4.7-1.9-9.5-3.9-12.8-7.6
		c-1.8-3.6-2.7-7.6-4.6-11.3c-2.3-4.6-6.7-8.3-11.4-10.1c-5-1.8-8.3-6.8-8.8-11.9c-0.3-3.5,0.3-7-0.4-10.7c-0.5-2.5-1-4.8-1.9-7.2
		c-1.5-4.5-5.4-7.7-5.9-12.3c-0.6-4.3,1.2-8.5,4-11.9c5.3,13.2,13.3,25.3,22.1,36.5c11.8,16,25.3,30.8,40.4,43.8
		c0.1,0.1,0.2-0.1,0.1-0.1c-13.5-14.5-25.9-29.8-36.9-46.2c-7.6-12.1-14.8-24.9-22.6-37.3C402,96,402.3,95.7,402.7,95.4z
		 M354.7,84.5c-2.9-0.3-5.7-0.8-8.2-1.8c-2.8-1.1-5.2-3-8.2-3.9c-3.1-1.1-6.4-1.4-9.6-1.1c-3,0.4-5.5,0.9-8.4,0.2
		c-5.3-1.1-10.7-4-13.2-8.9c-1.9-4.3-4.9-8.6-9.4-10.6c-1.6-0.7-3.2-1-4.4-1.4c-2.5-0.8-4.6-2.8-5.8-5c-1.3-2.6-1.4-5.8-3-8.4
		c-1.6-2.8-4.2-5-6.9-6.6c-5-3-8.5-7.9-10.8-13.1c-2-4.3-3.2-8.9-3.8-13.5c4.8,6,11.7,10.9,19.5,11.4c5.7,0.3,10.8-0.6,15.6,2.7
		c2.2,1.3,3.6,3.2,5.5,5.7c3,3.7,7.4,6.1,11.9,7.3c2.7,0.7,5.7,0.4,8.1,1.4c2,0.8,4,2.3,4.8,4.3c2.1,7,5.1,14.5,11.3,19
		c2.5,1.9,5,3.3,7.2,4.8c4.5,3.1,8.2,7.3,11.4,11.6c1.1,1.4,2.8,4.1,2.5,5.4c-0.1,0-0.2,0.1-0.3,0.2c-2.8-1.5-5.6-3.1-8.2-5
		c-6.5-5.3-12.7-11.7-19.9-16.1c-7-4.9-15-8.1-22.3-12.5c-7.1-4.6-13.3-10.5-18.7-17.1c3.9,6.8,10.9,13.6,17.6,18.8
		c7.1,4.8,14.9,8.3,21.9,13.3c7.3,4.6,13.3,10.2,20.2,15.6c1.7,1.3,3.6,2.5,5.4,3.7C355.9,84.6,355.3,84.6,354.7,84.5z M250.8,115.1
		c-14.3-1.5-26.1-12.8-30.6-26.2c-2.4-6.1-3.4-12.6-3.5-19.1c2.3,6.5,4.5,13.3,8.5,19.1c7,11.2,20,20.1,33.6,16.9
		c1.2-0.2,1.1-2.2-0.2-2.2c-4.9-0.2-9.7-1.6-14-4.2C232.1,92,223,79.5,218.1,66.2c0,0-0.1-0.3-0.2-0.6c8.2,6.8,15.9,14.1,24.2,20.8
		c6.5,4.7,14,7.7,21.8,9.4c1.2,0.3,2.2-1.3,1.3-2.2c-8.3-8.8-17.3-17.4-28.6-22.2c-5.6-2.3-11.6-3-16.7-6.3c-0.6-0.5-1.3-1-1.4-1.8
		v-0.1h0.1c9.5-0.3,19,1.6,27.9,4.9c9,3.2,16.5,9.5,22.6,16.7c0.3,0.4,0.8,0.6,1.3,0.4c0.7-0.2,1.2-0.8,1-1.6
		c-2.5-12.9-15.9-19.7-27.5-23c-5.9-1.4-13.2-1.6-19.1-0.8c2.1-0.7,4.3-1.4,6.6-1.8c13.6-3,29.5-1.3,39.8,9.1
		c10.4,9.6,12.2,26.8,4.2,38.1C270,112.8,259.8,116,250.8,115.1z M220.7,66.8c4.6,2.6,12.9,4.4,15.4,5.8
		c9.8,4.3,17.9,11.9,24.7,20.1c-2.9-0.6-5.8-1.3-8.5-2.5c-6.7-2.3-12.4-6.8-17.7-11.5C230.2,74.5,225.4,70.7,220.7,66.8z
		 M281.3,112.6c-2.5,1.4-6.5,2.1-9.5,1.5c0.5-1.5,2.1-2.8,3.3-4c2.8-2.6,5-5.6,6.2-9.3c0.4-1.7,0.3-4.1,1.3-5.1
		C287,100.8,287.6,108.7,281.3,112.6z M169.1,193.4c-8.6,0-17.2-2.1-25.3-5l-0.8-0.3l-0.2-0.1h-0.1c-0.2-0.1-0.2-0.4-0.1-0.5
		c0,0,0.3-0.3,0.5-0.4c25.3-19.4,57.6-33.4,90.3-27.6c1,0.1,2,0.2,3.1,0.3c-6.6,2.6-13.6,5-19.9,8.3c-8.5,4.1-15.7,10.4-22.6,16.5
		C187.3,190.6,178.2,193.3,169.1,193.4z M177,227c-2.4,0.8-8.9,2.9-11.1,3.9l-1.8,0.7c-1.1,0.4-1.9-0.8-0.9-2.1
		c14.6-25.7,35.3-50.1,63.4-61.3c9.5-3.9,20-5.2,30.3-6c0.5-0.1,0.8,0.5,0.7,0.8c0.1,0-0.4,0.7-0.7,1.3l-1,1.7
		C238.4,195.4,209.1,216,177,227z M218.8,239.5c-6.8,5.3-14.5,9.6-22.6,12.6c-0.7,0.2-1.4,0.1-2.1-0.4c-0.8-0.6-0.4-1.7-0.4-2.7
		c0.8-6.5,2.7-13,6-18.7c5.3-9.8,15.4-15.7,24.2-22c9.3-7.1,21.9-21.2,31-30.6c-0.9,4.6-2.3,9-4,13.4c-2.1,4.8-4.2,9.7-6.4,14.4
		c-1.6,3.5-3.3,7-5.2,10.4C233.9,225,227.1,233.1,218.8,239.5z M260.8,227.8c-2.2,11.9-10.1,21.1-17.8,30c-2.6,3.5-4.8,7.2-6.6,11
		c-0.3,0.6-1.2,0.7-1.5,0.1c-6.4-12.9-6.3-28.6,1.3-40.8c1.1-1.9,2.2-3.8,3.2-5.7c6.8-9.5,12-20.4,16-31.5c0.7-1.5,1.3-3.1,2-4.6
		C262.4,199.4,264,214,260.8,227.8z M231.6,144.4c-1.3-2.3-5.2-8-0.6-8.6c5.8,0.1,11.4,3.4,17,5.3c3.8,1.4,7.7,2.7,11.5,3.9
		c3.7,1.1,7.1,2.3,9.8,4.9c4.7,5.5,7.2,13.6,6.5,20.6c-0.5,3.5-3.2,7.4-3.5,11.1c-1.4,5.9,0.2,12.3-0.8,17.9
		c-0.2,0.9-1.2,1.3-2.1,1.3c-9.1-10.8-10.9-26-7-39.1c0.8-2-1.1-4.1-3.2-3.8l-0.7,0.1c-7.4,0.5-14.7-2.2-20.5-6.7
		c-1.2-1.6-2.7-3-3.6-3.8c-0.6-0.5-1.2-1-1.8-1.5C232.4,145.5,232,145,231.6,144.4z M139.6,141.4c3.7-0.5,7.8-1,11.6-2
		c4.4-1,8.8-2.8,13-4.2c12.6-4.6,26.3-5.4,39.2-1.4c8.6,2.4,16.6,6.7,23.7,12.1c3.1,2.4,7.4,5.8,9.1,8.9c-2.9-0.1-6.3-0.8-9.4-1.1
		c-9.4-0.6-18.3,0.7-27.5,1.4c-9.1,0.8-18.1,1.7-27.1,2.6c-8.9,1.5-17.7-1.9-24.8-7.2c-3.1-2.3-5.9-4.9-8.4-7.9
		C138.7,142.2,139.2,141.5,139.6,141.4z"/>
	<path class="st1" d="M171.1,137.8c5.5-1.1,11.1-2.1,16.8-2.1c7.3,0,14.8,1.3,21.6,3.8c2.7,1,5.3,2.5,8,3.3c0.1,0,0.3-0.1,0.2-0.2
		c-1.8-1.7-4.3-2.7-6.6-3.8c-3.2-1.4-6.4-2.6-9.7-3.4c-7.3-1.8-14.9-2.2-22.3-1.2c-2.9,0.4-5.7,1-8.4,2.1
		C169.9,136.7,170.2,137.9,171.1,137.8z"/>
	<path class="st1" d="M218.7,161.6c-7.8-1.2-15.9,0-23.5,1.9c-7.8,1.9-15.3,4.9-22.4,8.3c-4.1,2-8,4.1-11.8,6.5
		c-0.4,0.2,0,0.9,0.4,0.7c7.1-3.5,14-7.2,21.4-10.1c7.3-2.9,14.9-5.1,22.8-6.2c4.3-0.6,8.7-0.7,13.1-0.8
		C218.9,162,218.9,161.7,218.7,161.6z"/>
	<path class="st1" d="M245.9,152.9c0.5,0.1,0.7-0.6,0.2-0.8c-3-1.2-5.9-2.5-8.4-4.7c-1.2-1.1-2.3-2.3-3.4-3.6c-1-1.3-1.6-2.7-2.5-4
		c-0.1-0.1-0.3,0-0.3,0.1c0.4,1.5,1.3,2.9,2.2,4.1c1,1.4,2.1,2.7,3.4,3.9C239.7,150.1,242.7,152.2,245.9,152.9z"/>
	<path class="st1" d="M250.4,166c-7.3,0.5-14.5,2.1-21.3,4.5c-8.2,2.8-15.5,7.3-22.3,12.4c-4.2,3.2-8.1,6.7-11.8,10.5
		c-0.2,0.2,0.1,0.7,0.4,0.4c6.6-5.7,13.7-11.1,21.1-15.7c7.3-4.5,15.4-7.3,23.7-9.4c3.4-0.9,7-1.6,10.4-2.4
		C250.7,166.3,250.7,166,250.4,166z"/>
	<path class="st1" d="M214.5,204.3c-6.9,3.9-14,7.7-21.2,11.3c-3.8,1.9-7.6,3.7-11.5,5.5c-3.6,1.7-7.3,3.1-10.9,4.9
		c-0.7,0.3-0.2,1.4,0.5,1.1c3.8-1.2,7.4-2.9,11-4.5c4-1.8,7.8-3.7,11.7-5.6c7.1-3.7,14-7.7,20.6-12.2
		C215.1,204.6,214.8,204.1,214.5,204.3z"/>
	<path class="st1" d="M236.8,200.6c-4.5,5.6-9.7,10.8-15.8,14.7c-2.7,1.8-5.7,3.1-8.4,4.8c-3.3,2.1-6.2,4.9-8.6,8.1
		c-2.6,3.5-5.2,7.7-6.1,12.1c-0.1,0.5,0.7,0.8,1,0.4c2-3.6,3.4-7.3,5.8-10.8c2.3-3.3,5.2-6.2,8.5-8.6c2.6-1.8,5.4-3.2,8-5
		c2.7-1.9,5.2-3.8,7.6-6c3.1-2.8,5.8-6,8.2-9.4C237.3,200.7,236.9,200.4,236.8,200.6z"/>
	<path class="st1" d="M344.1,170.8c0-0.2-0.3-0.3-0.3-0.1c-3.1,12.6-2.1,26.3,1.7,38.7c0.9,3,1.9,5.8,3.3,8.7c0.3,0.6,1.2,0.2,1-0.5
		c-2.8-7.3-5-14.7-6-22.5C342.8,187.1,343.1,178.9,344.1,170.8z"/>
	<path class="st1" d="M324.5,172.1c-2.2,0.4-4.3,1.7-6.2,2.8c-2.1,1.3-4.1,2.7-6,4.3c-3.7,3-6.7,6.5-10,9.9c-0.1,0,0.1,0.2,0.2,0.1
		c3.3-3.2,6.8-6.2,10.5-9c1.8-1.4,3.6-2.7,5.6-3.8c2.1-1.3,4.4-2.1,6.4-3.4C325.2,172.7,324.9,172,324.5,172.1z"/>
	<path class="st1" d="M335.2,202.7c-0.4,4.3-1.5,8.3-3.7,12c-2.4,3.9-5.4,7.4-8.2,10.9c-0.1,0.2,0.1,0.3,0.3,0.2
		c3.4-3.5,6.6-7.2,9-11.4c1.9-3.5,3.5-7.6,3.2-11.7C335.7,202.4,335.2,202.4,335.2,202.7z"/>
	<path class="st1" d="M363.4,189.9c0.6,6.2,1.4,12.4,3.4,18.4c1.8,5.3,4.9,11.4,9.7,14.5c0.3,0.3,0.9-0.2,0.5-0.5
		c-2-2.1-3.9-4.2-5.4-6.6c-1.6-2.5-2.8-5.2-3.7-8c-2-5.8-2.7-11.8-3.8-17.8C364,189.4,363.3,189.5,363.4,189.9z"/>
	<path class="st1" d="M387,182.2c1.7,1.9,3.2,4.1,4.5,6.3c1.3,2.3,2,4.8,3.2,7.1c0.2,0.4,0.8,0.3,0.8-0.2c-0.3-2.6-1.7-5.3-3-7.6
		s-2.9-4.5-4.7-6.5c-3.6-4.1-8.1-7.1-13.2-9.1c-0.2-0.1-0.3,0.2-0.1,0.3C379.3,174.8,383.6,178.2,387,182.2z"/>
	<path class="st1" d="M328.8,161.7c-0.5,0-0.5,0.6-0.1,0.7c6.4,1.5,11.9-4.6,14.8-9.4c0.3-0.5-0.3-0.9-0.7-0.5
		c-2.1,2.3-3.9,5-6.6,6.9C334.2,160.9,331.5,161.9,328.8,161.7z"/>
	<path class="st1" d="M272.9,172.2c-0.8,1.8-2,3.4-2.2,5.4c0,0.3,0.5,0.5,0.6,0.1c0.3-1,0.8-2,1.2-2.9c0.5-0.9,0.9-1.8,1.2-2.8
		c0.5-1.6,0.8-3.3-0.1-4.8c-0.1-0.2-0.3,0-0.3,0.1C274,168.9,273.6,170.7,272.9,172.2z"/>
	<path class="st1" d="M254.8,234.7c-3.3,6.7-7.9,12.4-12.2,18.3c-0.4,0.5,0.4,1.1,0.8,0.6c8.8-10.5,17.8-23.1,16.5-37.6
		c0-0.2-0.4-0.2-0.4,0C259.5,222.5,257.6,229,254.8,234.7z"/>
</g>
<g>
	<path class="st0" d="M42.1,73.2c4.5,3.4,9.8,5.7,15,7.7c0.8,0.3,1.8,0.6,2.8,1c-0.9,0.1-1.8,0.3-2.5,0.4C39,85.4,20.6,77.7,5.9,67
		l-0.7-0.5v-0.1l0,0c5-1.9,10.2-3.4,15.4-3.4c5.4-0.1,10.7,1.5,14.8,5C37.7,69.6,39.8,71.5,42.1,73.2z M16.6,71.4
		c-0.3-0.1-0.6,0.3-0.3,0.5c5.3,3.2,11,5.7,16.9,7.4c2.9,0.8,5.9,1.5,8.9,1.9c2.9,0.4,5.9,0.5,8.8-0.1c0.1,0,0.1-0.2,0-0.2
		c-3-0.1-6.1-0.1-9.1-0.6c-2.9-0.4-5.7-1.1-8.5-1.9C27.4,76.6,22,73.9,16.6,71.4z"/>
	<path class="st0" d="M63.9,67.2c3.6,3.9,6.8,8.1,9.6,12.7c0.1,0,0,0.2-0.2,0.2c-6.1-0.5-12.2-1-18-3.2
		c-16.8-6.4-29.5-20.5-38.6-35.6c-0.4-0.6-0.4-0.7,0-1c0.1-0.1,0.2,0,0.3,0l1.1,0.4c5.1,1.9,10.4,3.2,15.4,5.5
		C44.9,51.1,55.5,58,63.9,67.2z M47.7,55.4c-4.1-2.6-8.2-5-12.6-7.2c-2.3-1.1-4.6-2.2-6.9-3.2c-2.2-0.9-4.4-1.9-6.6-2.5
		c-0.5-0.2-0.8,0.6-0.3,0.8c2.2,1.1,4.5,1.9,6.7,2.9c2.3,1,4.5,2,6.8,3.1c4.3,2,8.6,4.2,12.8,6.4C47.7,55.9,47.9,55.6,47.7,55.4z
		 M36.3,62.2c-0.2-0.2-0.5,0.1-0.3,0.3c2.2,2.2,4.5,4.2,7,6c4.1,3,8.4,5.6,13.3,7.2c4.2,1.4,8.7,2.4,13.2,2.5c0.2,0,0.2-0.3,0-0.3
		c-2.1-0.5-4.3-0.9-6.4-1.4c-4.9-1.2-9.8-2.8-14.2-5.4C44.6,68.4,40.3,65.4,36.3,62.2z"/>
	<path class="st0" d="M73.1,65.3c-0.2-0.6-0.5-1.1-0.8-1.7c-2.7-6.9-6.1-13.6-10.6-19.4c-0.6-1-1.1-1.9-1.7-2.9c-2.5-4-4-8.4-4-13.1
		c0-3.5,0.7-7,2-10.3l0.3-0.8c0.1-0.3,0.6-0.2,0.7,0c2.2,4.5,5.6,8.2,8.9,11.9C76.4,39,77.2,53.3,73.1,65.3
		C73.1,65.2,73.1,65.2,73.1,65.3z M74.2,48.2c0.5-8.6-5-16.1-10.5-22.2c-0.3-0.3-0.8,0.2-0.6,0.5c2.5,3.4,5.3,6.5,7.3,10.3
		c1.9,3.5,3.3,7.5,3.4,11.5C73.9,48.5,74.1,48.5,74.2,48.2z"/>
	<path class="st0" d="M55.8,86c1.6-0.2,3.5-0.5,5-0.7c-0.4,0.8-1.2,1.6-2,2.3c-6.6,6.3-15.2,10.6-24.3,11.5
		C29.3,99.7,24,98.8,19,97.2c-4.4-1.6-9.2-2.9-13.9-3.3c-0.9-0.1-0.9-0.1-1.1-0.3c-0.1-0.1-0.1-0.2,0-0.2c0.1-0.1,0.4-0.5,0.5-0.6
		c3.8-4.4,9-8,14.8-8.7c6.7,0.1,13.4,1.1,20,1.4C44.3,85.7,50.9,86.5,55.8,86z M29.5,96.6c-2.2-0.2-4.3-0.6-6.5-0.9
		c-0.6-0.1-1,0.8-0.4,1c4.8,1.9,10.5,1.9,15.5,0.9c2.7-0.5,5.2-1.3,7.7-2.5c1.6-0.7,3.5-1.5,4.7-2.8c0.1-0.1,0-0.2-0.1-0.2
		c-0.8,0.2-1.5,0.6-2.2,0.9c-0.9,0.4-1.9,0.8-2.8,1.2c-2.4,0.9-4.8,1.5-7.3,1.9C35.2,96.7,32.4,96.8,29.5,96.6z"/>
	<path class="st0" d="M68.9,62.8c1,2.4,1.8,4.8,2.5,7.3C65.8,64.6,58.5,57,53,53c-3.2-2.2-6.9-4.4-9.7-6.9c-5.2-4.4-8.3-11-9.1-17.8
		c0-0.6,0.9-0.9,1.3-0.7l0.2,0.1l0.5,0.2C47,31.7,55.7,39.5,61.8,49C64.4,53.5,66.8,58.1,68.9,62.8z M48.1,46.6
		c-2.4-1.3-4.4-3.1-6.1-5.1c-0.9-1.1-1.6-2.2-2.3-3.4c-0.7-1.2-1.2-2.5-2-3.6c-0.2-0.3-0.8-0.2-0.7,0.2c0.5,2.7,2.2,5.2,3.9,7.3
		c1.6,2.1,3.7,3.8,6,5.1c2.4,1.3,4.8,2.5,6.9,4.1c2.6,1.9,4.9,4.3,7,6.7c0.1,0.1,0.4,0,0.2-0.2C57.6,52.9,53.2,49.4,48.1,46.6z"/>
	<path class="st0" d="M68.5,92.9c-3.2,1.2-6.5,3.3-9.8,3.4c-0.5-0.1-0.9-0.2-1.1-0.6c-0.3-0.3-0.1-0.8,0-1.3
		c0.4-1.3,1.1-2.5,1.9-3.6c1.1-1,2.4-2.3,3.4-3.6c3.4-2.7,7.6-4.3,11.8-4.1h0.4c1.4,0.2,2.7-1.3,2.1-2.7c-2.4-7.6-1.9-16.6,3.2-23
		c0.1,0,0.2,0,0.3,0.1c0.4,0.1,0.5,0.2,0.7,0.6c0.3,0.8,0.2,2.1,0.2,3.2c-0.1,2.4-0.1,4.9,0.5,7.5c0.2,2.2,1.9,4.6,2.2,6.5
		c0.5,4.1-0.7,8.8-3.3,12.1C77.4,90.4,72.5,90.9,68.5,92.9z M67,86c-1.9,0.4-3.6,1.7-5,3.1c-0.7,0.7-1.3,1.4-1.9,2.2
		c-0.5,0.8-1.2,1.7-1.3,2.6c0,0.1,0.1,0.2,0.2,0.1c0.5-0.8,0.9-1.6,1.4-2.4s1.2-1.5,1.9-2.1c1.4-1.4,3.2-2.1,5-2.9
		C67.6,86.4,67.4,85.9,67,86z M82.5,73.9c0.5,1,1,2.2,0.6,3.2c0,0.1,0.1,0.2,0.2,0.1c0.6-1,0.3-2.2-0.1-3.2c-0.5-1-1-2.1-1.5-3.1
		c-0.1-0.2-0.5-0.2-0.5,0.1C81.3,72.1,82,73,82.5,73.9z"/>
	<path class="st2" d="M82.7,89.1c-1.5,2.2-4.4,3.1-6.8,3.6c-2.3,0.6-4.6,1.1-6.9,1.8c-3.6,0.9-6.8,2.7-10.5,2.9
		C56,97,55.9,95.1,56.6,93c-6.3,4.8-14,8-21.9,8.6c-6.9,0.7-13.8-1.3-20.1-3.8C11,96.5,7.5,96,3.8,95.5c-1.2-0.5-1.8-2.1-1-3.1
		c0-0.1,0.5-0.6,0.5-0.6c3.2-3.8,7.2-6.7,11.9-8.3c2.5-1,5.5-1.2,8.2-0.9c4,0.2,7.9,0.4,11.9,0.6C29.1,81.5,23.2,79,17.6,76
		c-4.3-2.3-8.4-4.9-12.3-7.8c-0.4-0.3-0.5-0.3-1-0.8c-0.7-0.8-0.3-1.9,0.6-2.3L5,65l0.5-0.2c7.8-3.2,17.2-4.8,25.3-1.8
		c-6-6.3-11.1-13.6-15.4-20.9c-1.3-1.6,0-4.1,2.2-3.7c6,0.8,11.6,3,17.1,5.2c2.7,1.1,5.3,2.4,7.8,3.7c-5-4.7-8.3-10.1-9.2-18.9
		c-0.3-1.7,1.4-3.2,3.1-2.5l0.2,0.1l0.5,0.2c2.2,0.8,4.4,1.7,6.5,2.8c4.8,2.3,9,5.5,12.8,9.2c-2.5-6.6-2.1-14,0.6-20.5l0.3-0.9
		c0.4-0.9,1.7-1.2,2.5-0.6c0.3,0.2,0.5,0.6,0.7,0.9c2.3,4.3,5.7,7.6,8.9,11c7.2,7.8,9.8,19,8.5,29.5c0.4-0.5,0.8-1,1.1-1.5
		c0.9-0.9,2.4-0.5,3.3,0.2c1.4,1.3,1.1,3.5,1.3,5c0.1,2.4,0.5,4.6,1.2,6.7c0.7,2.4,2.6,4.2,3,6.7C88.6,80,86.3,85.2,82.7,89.1z
		 M19.4,84c-5.8,0.7-11.1,4.3-14.8,8.7c-0.1,0.1-0.4,0.5-0.5,0.6c0,0,0,0.1,0,0.2c0.2,0.3,0.2,0.3,1.1,0.3c4.7,0.3,9.5,1.6,13.9,3.3
		c5,1.6,10.2,2.6,15.5,1.9c9.1-1,17.7-5.3,24.3-11.5c0.8-0.8,1.5-1.6,2-2.3c-1.6,0.1-3.4,0.6-5,0.7c-4.9,0.5-11.5-0.3-16.4-0.6
		C32.8,85.1,26,84.1,19.4,84z M20.8,63c-5.3,0.1-10.5,1.5-15.5,3.4l0,0v0.1L6,67c14.7,10.7,33.1,18.3,51.5,15.3
		c0.7-0.1,1.6-0.3,2.5-0.4c-1.1-0.4-2.1-0.7-2.8-1c-5.2-2-10.5-4.3-15-7.7c-2.3-1.6-4.4-3.6-6.5-5.2C31.6,64.4,26.2,62.8,20.8,63z
		 M33.5,46.2c-5-2.3-10.3-3.6-15.4-5.5L17,40.3c-0.1-0.1-0.2-0.1-0.3,0c-0.4,0.3-0.4,0.4,0,1c9.2,15.1,21.9,29.3,38.7,35.5
		c5.7,2.2,11.8,2.8,17.9,3.3c0.1,0,0.2-0.2,0.2-0.2c-2.8-4.5-6-8.8-9.6-12.7C55.5,58,44.9,51.1,33.5,46.2z M36.3,27.9l-0.5-0.2
		l-0.2-0.1c-0.5-0.2-1.3,0.1-1.3,0.7c0.7,6.7,3.8,13.4,9.1,17.8c2.9,2.4,6.6,4.7,9.7,6.9c5.4,4,12.7,11.7,18.3,17.1
		c-0.6-2.5-1.5-4.9-2.5-7.3c-2.2-4.7-4.4-9.3-6.9-13.8C55.8,39.5,47.2,31.8,36.3,27.9z M67.9,29.1c-3.3-3.7-6.7-7.4-8.9-11.9
		c-0.1-0.3-0.5-0.3-0.7,0L58,18c-1.3,3.2-2,6.8-2,10.3c-0.1,4.7,1.5,9.1,4,13.1c0.6,0.9,1.1,1.9,1.7,2.9c4.4,5.9,7.9,12.6,10.6,19.4
		c0.3,0.5,0.5,1.1,0.8,1.7c0-0.1,0.1-0.1,0.1-0.1C77.2,53.3,76.4,39,67.9,29.1z M84.2,75.3c-0.3-2-2-4.4-2.2-6.5
		c-0.6-2.5-0.5-5-0.5-7.5c0-1.2,0-2.4-0.2-3.2c-0.2-0.4-0.2-0.5-0.7-0.6c-0.1,0-0.2-0.1-0.3-0.1c-5.1,6.4-5.6,15.4-3.2,23
		c0.6,1.4-0.7,2.9-2.1,2.7h-0.5c-4.2-0.2-8.5,1.4-11.8,4.1c-0.9,1.3-2.2,2.6-3.4,3.6c-0.8,1.1-1.5,2.3-1.9,3.6
		c-0.1,0.4-0.3,0.9,0,1.3s0.6,0.6,1.1,0.6c3.4-0.2,6.7-2.2,9.8-3.4c4.1-2,9-2.5,12.4-5.5C83.5,84.1,84.7,79.3,84.2,75.3z"/>
	<path class="st2" d="M48.2,93.2c0.8-0.3,1.4-0.7,2.2-0.9c0.1,0,0.1,0.1,0.1,0.2c-1.1,1.3-3.1,2.1-4.7,2.8c-2.4,1.1-5,1.9-7.7,2.5
		c-5,0.9-10.7,1-15.5-0.9c-0.6-0.2-0.2-1.1,0.4-1c2.2,0.3,4.3,0.7,6.5,0.9c2.8,0.2,5.7,0.1,8.5-0.3c2.5-0.4,4.9-1,7.3-1.9
		C46.3,94.1,47.3,93.7,48.2,93.2z"/>
	<path class="st2" d="M50.8,80.9c0.1,0,0.2,0.2,0,0.2c-2.9,0.6-5.9,0.4-8.8,0.1c-3-0.4-6-1-8.9-1.9c-5.8-1.7-11.6-4.2-16.8-7.4
		c-0.3-0.2-0.1-0.7,0.3-0.5c5.5,2.5,10.9,5.2,16.6,7c2.8,0.8,5.6,1.6,8.5,1.9C44.7,80.8,47.8,80.8,50.8,80.9z"/>
	<path class="st2" d="M67.2,86.6c-1.8,0.8-3.5,1.6-5,2.9c-0.7,0.6-1.3,1.4-1.9,2.1c-0.5,0.8-0.9,1.6-1.4,2.4c-0.1,0.1-0.2,0-0.2-0.1
		c0.1-1,0.8-1.8,1.3-2.6c0.6-0.8,1.2-1.5,1.9-2.2c1.4-1.3,3.1-2.6,5-3.1C67.4,85.9,67.6,86.4,67.2,86.6z"/>
	<path class="st2" d="M69.5,77.9c0.2,0,0.1,0.3,0,0.3c-4.5-0.1-8.9-1.1-13.2-2.5c-4.8-1.6-9.2-4.1-13.3-7.2c-2.5-1.8-4.8-3.9-7-6
		c-0.2-0.2,0.1-0.5,0.3-0.3c4,3.2,8.3,6.3,12.6,8.9c4.4,2.6,9.2,4.2,14.2,5.4C65.2,77,67.4,77.4,69.5,77.9z"/>
	<path class="st2" d="M47.5,55.8c-4.2-2.2-8.5-4.3-12.8-6.4c-2.2-1.1-4.5-2.1-6.8-3.1c-2.2-1-4.5-1.8-6.7-2.9
		c-0.4-0.2-0.2-1,0.3-0.8c2.3,0.6,4.5,1.6,6.6,2.5c2.3,1,4.7,2.1,6.9,3.2c4.4,2.1,8.5,4.5,12.6,7.2C47.9,55.6,47.7,55.9,47.5,55.8z"
		/>
	<path class="st2" d="M60.8,57.8c-2.1-2.4-4.4-4.8-7-6.7c-2.2-1.7-4.6-2.8-6.9-4.1c-2.3-1.3-4.3-3-6-5.1c-1.6-2.1-3.4-4.7-3.9-7.3
		c0-0.4,0.5-0.5,0.7-0.2c0.8,1.2,1.3,2.4,2,3.6s1.4,2.3,2.3,3.4c1.7,2.1,3.8,3.8,6.1,5.1c5,2.8,9.4,6.3,12.9,11
		C61.1,57.7,60.9,57.9,60.8,57.8z"/>
	<path class="st2" d="M81.7,71c0.5,1,1,2,1.5,3c0.4,1,0.7,2.2,0.1,3.2c0,0.1-0.2,0-0.2-0.1c0.4-1.1-0.1-2.3-0.6-3.2
		s-1.1-1.8-1.2-2.9C81.3,70.7,81.6,70.7,81.7,71z"/>
	<path class="st2" d="M63.1,26.5c-0.2-0.3,0.3-0.8,0.6-0.5c5.5,6.1,11.1,13.6,10.5,22.2c0,0.2-0.3,0.2-0.4,0c-0.1-4-1.5-8-3.4-11.5
		C68.4,33.1,65.6,29.9,63.1,26.5z"/>
</g>
</svg>
