<?xml version="1.0" encoding="utf-8"?>
<!-- Generator: Adobe Illustrator 27.3.1, SVG Export Plug-In . SVG Version: 6.00 Build 0)  -->
<svg version="1.1" id="Layer_1" xmlns="http://www.w3.org/2000/svg" xmlns:xlink="http://www.w3.org/1999/xlink" x="0px" y="0px"
	 viewBox="0 0 9 20" style="enable-background:new 0 0 9 20;" xml:space="preserve">
<style type="text/css">
	.st0{fill:#163A24;}
</style>
<path class="st0" d="M2,10.1v9.4c0,0.1,0.1,0.2,0.2,0.2h3.5c0.1,0,0.2-0.1,0.2-0.2V9.9h2.6c0.1,0,0.2-0.1,0.2-0.2l0.2-2.9
	c0-0.1-0.1-0.3-0.2-0.3H5.9v-2c0-0.5,0.4-0.9,0.9-0.9h2C8.9,3.6,9,3.5,9,3.4V0.5c0-0.1-0.1-0.2-0.2-0.2H5.5C3.5,0.2,2,1.8,2,3.8v2.8
	H0.2C0.1,6.6,0,6.7,0,6.8v2.9c0,0.1,0.1,0.2,0.2,0.2H2V10.1z"/>
</svg>
