<?xml version="1.0" encoding="utf-8"?>
<!-- Generator: Adobe Illustrator 27.2.0, SVG Export Plug-In . SVG Version: 6.00 Build 0)  -->
<svg version="1.1" id="Layer_1" xmlns="http://www.w3.org/2000/svg" xmlns:xlink="http://www.w3.org/1999/xlink" x="0px" y="0px"
	 viewBox="0 0 20 20" style="enable-background:new 0 0 20 20;" xml:space="preserve">
<style type="text/css">
	.st0{fill:#569348;}
	.st1{fill:#163A24;}
</style>
<path class="st1" d="M17.9,13.9c0,2.2-1.8,4-4,4H6.1c-2.2,0-4-1.8-4-4V6.1c0-2.2,1.8-4,4-4h7.8c2.2,0,4,1.8,4,4V13.9z M19.8,6.1
	c0-3.2-2.6-5.9-5.9-5.9H6.1c-3.2,0-5.9,2.6-5.9,5.9v7.8c0,3.2,2.6,5.9,5.9,5.9h7.8c3.2,0,5.9-2.6,5.9-5.9V6.1z M10,13.2
	c-1.7,0-3.1-1.4-3.1-3.1C6.9,8.4,8.3,7,10,7c1.7,0,3.1,1.4,3.1,3.1C13.1,11.8,11.7,13.2,10,13.2 M10,5.3c-2.7,0-4.8,2.2-4.8,4.8
	s2.2,4.8,4.8,4.8c2.7,0,4.8-2.2,4.8-4.8S12.7,5.3,10,5.3 M15.1,3.8C14.5,3.8,14,4.4,14,5s0.5,1.1,1.1,1.1s1.1-0.5,1.1-1.1
	S15.8,3.8,15.1,3.8"/>
</svg>
