<?xml version="1.0" encoding="utf-8"?>
<!-- Generator: Adobe Illustrator 27.3.1, SVG Export Plug-In . SVG Version: 6.00 Build 0)  -->
<svg version="1.1" id="Layer_1" xmlns="http://www.w3.org/2000/svg" xmlns:xlink="http://www.w3.org/1999/xlink" x="0px" y="0px"
	 viewBox="0 0 306.3 350" style="enable-background:new 0 0 306.3 350;" xml:space="preserve">
<style type="text/css">
	.st0{opacity:0.3;}
	.st1{fill:#F4DF6C;}
</style>
<g class="st0">
	<g>
		<path class="st1" d="M212.2,207.8c0.8,0.4,1.4-1,0.6-1.3c-3.6-1.8-6.7-4.4-9.5-7.1c-6.2-6.3-11.2-13.7-15.6-21.4
			c1.4,0.7,3.1,1.7,4.8,2.7c5.7,3.9,5.6,6.5,10.2,8.7c4.8,2.3,7,0.6,10,3.3c2,1.9,1.3,3,3.9,6.3c2.9,3.6,4.3,3.2,6.2,6.1
			c2,3.1,1.3,5,2.4,8c1.1,2.7,3.7,6.3,10.7,9.3c-8.6,1.1-13.5-0.8-16.6-2.7c-3.5-2.3-4.9-5.1-10-7.4c-0.7-0.2-1.4-0.5-2.4-0.8
			c-5.7-1.9-7-1.8-9.2-2.6c-4.8-2-7-6.9-7.5-8.1c-1.9-4.3,0-5.1-2.1-10c-1.5-3.5-3.2-4.5-4-8.2c-0.2-0.8-0.4-1.7-0.4-2.4
			C191.1,191.1,200.5,202.6,212.2,207.8z"/>
		<path class="st1" d="M214.6,161.3c-0.1,0.2,0,0.5,0.4,0.5c1.9,0,5.2,0.2,8.6,2c5.7,3.1,7.3,8.7,7.6,10.6c0,0.2-0.1,0.6-0.5,0.7
			c-2.4,0.5-6.2,1-10.5-0.1c-1-0.2-7.7-1.9-12-7.5c-0.7-0.8-1.8-2.4-2.5-4.6c-0.6-2.1-0.6-3.9-0.5-6.4c0.1-1.5,0.1-3.8,0.8-6.4
			c0.5-2,1.8-5.8,5.4-10.1c0.4-0.5,1.1-0.5,1.4,0c1.5,2,3.8,6,4,11.3C217,155.6,215.5,159.3,214.6,161.3z"/>
		<path class="st1" d="M226.4,156c-1.4,0-3,0-4.5-0.2c-0.7-0.1-1.1-1-0.7-1.5c1.3-1.8,2.9-3.7,4.5-5.5c12.9-13.7,29.5-18.3,39.9-20
			c0.8-0.1,1.4,0.8,1,1.5C261,138,246.3,155.7,226.4,156z"/>
		<path class="st1" d="M225.8,128c-1.7,2.7-3.9,6.8-6.5,11.9c-0.2,0.5-1,0.5-1.2-0.1c-1.1-3.5-2.1-9.1-1-15.6
			c0.4-1.8,0.8-3.5,1.3-4.9c0.8-2.5,2.3-4.9,3.9-6.9c0.2-0.2,0.5-0.5,0.6-0.7c0.4-0.5,0.7-0.8,1.1-1.2c0.7-0.7,1.4-1.4,1.8-1.8
			c0.8-0.8,1.7-1.2,7-3.9c1.1-0.6,1.8-0.8,2.4-0.6c0.5,0.2,0.6,0.8,0.6,2c-0.1,4.3-3,8.5-3,8.5C228.9,120.3,227,126,225.8,128z"/>
		<path class="st1" d="M233.6,166.7c6.3,0.5,11.6,0.6,15.1,0.6c8.9,0,12.3-0.7,16.8,1c4.8,1.8,7.9,5,9.9,7.7
			c0.4,0.6-0.1,1.3-0.8,1.3c-3.8,0-6.7,0.5-8.7,1.1c-0.8,0.2-2.4,0.7-4.6,1.1c-0.4,0.1-0.7,0.1-1.1,0.2c-3,0.5-6.1,0.4-8.9-0.2
			c-1.7-0.4-3.5-0.8-5.2-1.5c-6.5-2.6-10.8-6.9-13.1-9.9C232.5,167.4,232.9,166.7,233.6,166.7z"/>
		<path class="st1" d="M238.4,133c-3.7,2.1-10.5,8.5-16.3,13.6c-0.4,0.4-1,0-0.8-0.5c1.9-5.7,8-19.6,19.2-27c4.5-3,8.8-4.6,12.4-5.6
			c1-0.2,1.8,0.6,1.5,1.4c-0.6,2.9-1.7,6.2-4,9.4C247.1,128.4,243.6,129.9,238.4,133z"/>
		<path class="st1" d="M268.5,157.9c-3.3,1.7-6.5,2.9-9.3,3.7c-6,1.9-14.8,3.5-24.5,0.8c-1.4-0.4-4.6-0.4-4.2-1.3
			c0.6-0.7,9.3-1.8,15.1-4.8c5.5-2.9,6.9-5.1,10.7-6.4c3.9-1.4,10-1.8,19.3,3c0.4,0.2,0.5,0.7,0.1,1
			C273.7,155.3,271.3,156.6,268.5,157.9z"/>
		<path class="st1" d="M15.7,132.4c10.6-6.4,27.4-1.7,30.5,11c3.8,15.6-8.7,28.3-23.7,30c-5.2,0.7-10.6,0.2-15.5-1.1
			c-0.1,0-0.2-0.1-0.1-0.2c0.1-0.4,5.1-0.7,5.7-0.7c1.9-0.2,3.7-0.5,5.6-1c9.6-2.4,18.5-9.2,21-19.2c0.2-1.1,0.2-1.9,0.2-1.9
			c-0.2-1-0.8-2-1.9-1.4c-2,1-3,4.2-4,6c-3.9,6.5-10.1,11.6-16.9,14.6c-1,0.5-8.6,2.4-10.7,2.5c-0.2,0-0.4-0.4-0.1-0.5
			c3-2.1,5.6-4.4,8.5-6.5c6.4-4.8,12.6-9.2,16.6-16.3c0.5-0.8,1.3-2,1.4-3c0-0.4-0.1-0.7-0.4-0.8c-0.4-0.1-0.6,0-1,0.2
			c-7.3,4.2-14.8,9.4-18.9,17c-1.1,1.9-5,9.8-7.3,9.1c0,0-0.2,0-0.2-0.1c1.7-10.2,6-21,15.1-26.7c2-1.3,4.3-2.4,6.2-3.9
			c0.5-0.4,1-0.7,0.8-1.3c-0.1-1.5-2.4-1.4-3.5-1.2c-1.3,0.2-2.6,0.8-3.8,1.5c-2.1,1.2-3.9,2.9-5.6,4.5c-6.4,6.4-10.4,16.1-10,25.2
			c0,0.4-0.6,0.5-0.7,0C0.4,155.4,3.3,139.3,15.7,132.4z"/>
		<path class="st1" d="M44.4,134.2c-1.2-1.7-2.6-3.2-4.3-4.2c-1.2-0.7-2.6-0.8-3.8-1.7c-0.1-0.1-0.4-0.2-0.5-0.5
			c-0.2-0.5,0-1,0.5-1.1c1.2-0.6,3.2-1.4,5.8-1.3c0.2,0,0.6,0,0.8,0.1c2.3,0.2,4.8,2.3,5.7,5.4c0.6,1.9,0.5,3.5,0.5,4.3
			c-0.1,1-0.2,2.5-0.7,3.2C47.2,139.9,45.1,135.1,44.4,134.2z"/>
		<path class="st1" d="M88.5,230.9c-0.4,0-0.7-0.4-1.1-0.8c-2.1-2.6,1.5-8,6-16.2c7.3-13.5,6.8-16.7,12-20.2
			c3.7-2.5,7.5-3.3,8.9-3.7c1.9-0.5,6.4-1.4,11.6-0.1c4.8,1.2,4.6,3,10.1,5.5c9.3,4.3,17.1,2.5,18.3,6.2c0.2,1,0.2,2.1-0.2,2.4
			c-3.8,2.3-11.3,5.8-21.1,5.6c-8.1-0.2-14.4-2.9-17.7-4.8c-0.5-0.2-1,0-1,0.5c-0.4,3.2-1.3,8.6-5.1,13.9
			C102.3,228.5,92,230.4,88.5,230.9z"/>
		<path class="st1" d="M117.4,222.7c0.1-2.1,0.4-4.3,0.8-6.5c0.2-1.1,1.7-1.5,2.6-0.8c3,2.1,5.8,4.5,8.7,7.1
			c21.6,20,27.9,44.8,29.8,60c0.1,1.3-1.4,2-2.6,1.2C144.4,274.7,116.1,251.6,117.4,222.7z"/>
		<path class="st1" d="M182.7,238.5c-7.1-2-10.7-5.6-21.7-13c-4.4-3-10.8-7.3-19.2-12c-0.8-0.5-0.7-1.7,0.4-1.8
			c5.8-1.1,15.2-1.9,26,1c3,0.8,5.7,1.8,8.1,2.7c4.2,1.8,8,4.2,11.2,7.1c0.4,0.4,0.8,0.7,1.2,1.1c2.4,2.3,3.8,3.9,4.6,4.9
			c1.9,2.1,4.9,5.1,9.6,8.3c0.8,0.6,0.6,1.8-0.4,2C197.3,239.9,190.3,240.7,182.7,238.5z"/>
		<path class="st1" d="M84,248.8c4.8-9.3,12-14.8,17-17.7c0.8-0.5,2,0.4,1.9,1.3c-1.2,9.3-1.7,16.9-1.9,22.3
			c-0.5,13.1,0.5,18.3-2.6,24.7c-3.1,6.7-8.7,10.7-13.3,13.2c-1,0.5-2.3-0.4-2.1-1.4c0.2-5.7-0.5-10-1.2-13c-0.4-1.3-1-3.6-1.4-6.9
			c-0.1-0.6-0.1-1.2-0.2-1.7c-0.5-4.5-0.2-8.9,1-13.1C81.7,253.9,82.6,251.4,84,248.8z"/>
		<path class="st1" d="M154.5,242.7c-3.2-5.5-12.6-15.7-20.2-24.7c-0.5-0.6,0.1-1.3,1-1.1c8.9,3.3,30.5,13.5,41.4,30
			c4.4,6.7,6.7,13,7.9,18.1c0.4,1.3-1.1,2.4-2.5,2c-4.4-1.1-9.8-3.1-14.6-6.8C161.1,255.5,159,250.4,154.5,242.7z"/>
		<path class="st1" d="M111.1,227.4c0,0.1,0,0.1,0.1,0.2c0.7,1.8,1.1,3.7,1.5,5.6c1.3,5.8,2.5,11.8,5.4,17.3c3.5,6.4,9.1,12,10,19.3
			c1,7.9-2.1,16.4-6.9,22.9c-0.1,0.1-0.2,0.2-0.4,0.4c-0.4,0.1-0.8-0.2-1.1-0.6c-6.1-9.5-10.5-20-12.4-30.7
			c-1.9-10.7-1.2-21.8,2.6-32C110.3,228.9,110.5,228,111.1,227.4z"/>
		<path class="st1" d="M43.2,188.5c1-4,2.9-6.8,3.8-8c3.9-5,6.5-4,11.2-8.2c5.6-4.8,4-8.1,11-13.6c1.7-1.3,5-3.8,7.7-4.3
			c-16.6,20.2-24.5,46.3-24.3,72.5c0,0.7,1.1,0.8,1.1,0c0.8-13.5,3.8-26.8,8.9-39.1C67,177,73.2,167,80.9,158.3
			c0.1,2.3-0.4,5.2-0.7,7.5c-2.1,12.9-7.1,14.4-7.4,23.8c-0.1,8.8,4,10.6,1.9,16.4c-1.8,5.1-5.2,4.8-8.3,11.3
			c-3.1,7.1,0,9.3-2.5,15.8c-2.6,7.4-7.1,7.4-10,15.1c-1.3,3.6-2.3,9.3-0.4,17.4c-2.6-3.1-6.4-8.5-8.9-16.2c-0.5-1.4-1.2-3.8-1.4-7
			c-0.6-6.2,0.8-7.5,0.6-12c-0.2-7.1-3.9-7.6-3.9-14.3c0.1-6.1,3.2-5.8,3.9-12.5C44.7,197.3,41.7,195.3,43.2,188.5z"/>
		<path class="st1" d="M68.9,88c0.7,0.5,1.7-0.7,1-1.2c-9.3-6.3-21.6-10.7-34.3-12c-6.5-0.7-13.2-0.6-19.6,0.4
			c0.7-0.5,1.5-1,2.5-1.3c5-2.1,8.3-1.2,14.3-2.3c8.5-1.2,7.6-4.2,15.6-4.8c2.1-0.2,11.8-0.6,18.6,4.5c2.9,2.3,3.8,4,9.8,10.5
			c1,1.1,1.7,1.9,2.4,2.6c5.6,5.7,10.1,6.4,14.5,10.1c3.6,3.2,7.4,9.3,3.8,19.9c-3-7.9-8.9-10-12.9-10.2c-4.4-0.2-6.8,1.5-11.2,0.6
			c-4-0.8-4-2.9-9.4-4.4c-5.1-1.3-6,0.4-9.1-1c-4.8-1.8-4-5.6-10.2-9.9c-6.2-3.9-8.8-1.8-18.6-5.1c-3.6-1.1-6.8-2.4-9.6-3.5
			C33.2,76.8,54.1,79.2,68.9,88z"/>
		<path class="st1" d="M190.3,133.2c-2.6,2.6-3.6,2-7.4,4.9c-5.1,3.6-4.6,5.4-9.1,8c-0.4,0.2-0.7,0.4-1.1,0.6c0,0-0.4,0.1-0.7,0.4
			c-1.2,0.5-6.5,0.4-9.6,0.6c-2.5,0.2-4.3,1.1-5.1,1.5c-2.3,1.1-2,1.8-4.5,2.6c-2.3,0.7-4.4,0.6-4.9,0.5c-1.2-0.1-2-0.2-2.6-0.5
			c-2.6-0.7-3.7-1.4-6-2.3c-1.9-0.8-3.6-1.3-5.1-1.8c-5.6-1.8-7.3-0.8-11.1-2.4c-3-1.2-4.9-3.1-6.2-4.8c14.8,3.6,29.9,3.1,43-0.7
			c6.2-1.8,12-4.2,17.4-7.3c1-0.5,0.1-1.8-0.8-1.2c-17.5,9.1-40.5,11.4-62,4.3c-0.5-1.5-0.6-3.5,0.8-4.9c2.4-2.3,6.3,0,11.2-2.4
			c3.8-1.9,3.5-3.9,7.1-4.3c2.9-0.2,5.8,0.4,5.8,0.4c2.3,0.5,3,1.2,5.8,1.7c1.3,0.2,2.9,0.4,4.4,0.1c2.6-0.5,2.7-1.8,5.4-2.4
			c1-0.2,1.8-0.2,3.1-0.4c7.4-0.5,9.5,1.4,17.4-0.2c4.3-1.1,5.1-2,8.2-2.1c3.2-0.2,4.8,0.6,9.1,0.2c3-0.2,5.5-1.1,7-1.7
			c-1.1,1.1-2.9,3-4.5,5.4C192.7,129,193,130.4,190.3,133.2z"/>
		<path class="st1" d="M1.8,85.4c0.8,0.1,1.5,0.4,2.4,0.5c31.2,7,60,27,81,52.6c7,6.8,14.9,12.7,23.5,17.5
			c9.2,5.4,19.2,9.3,29.5,11.8c10.4,2.6,21.1,3.6,31.7,3.2c2.7-0.1,5.6-0.4,8.3-0.6c1.8-0.2,3.6-0.5,5.4-0.7c6.1-1,12-2.3,17.9-4.2
			c0.7-0.2,1.5,0.1,1.8,0.8c0.2,0.7-0.1,1.5-0.8,1.8c-5.6,2-11.3,3.6-17.1,4.6c-1.7,0.4-3.5,0.6-5.1,0.8c-3.3,0.5-6.7,0.8-10,1.1
			c-11,0.7-22.2-0.2-32.9-2.6c-10.8-2.4-21.2-6.5-30.8-12c-3.3-1.9-6.7-4-9.8-6.3c5.7,8.8,10.5,18,14.2,27.3c0.7,1.8-1.9,3-2.7,1.3
			c-6-10.6-12.7-20.7-20.4-30.1c-15-18.8-33.6-34.5-54.5-46.6c-10.5-6.1-21.6-10.7-32.5-16c-1.9-0.8-1.7-3.2-0.4-4.2
			C0.6,85.5,1.2,85.2,1.8,85.4z"/>
	</g>
</g>
</svg>
