<?xml version="1.0" encoding="utf-8"?>
<!-- Generator: Adobe Illustrator 27.3.1, SVG Export Plug-In . SVG Version: 6.00 Build 0)  -->
<svg version="1.1" id="Layer_1" xmlns="http://www.w3.org/2000/svg" xmlns:xlink="http://www.w3.org/1999/xlink" x="0px" y="0px"
	 viewBox="0 0 209.5 435.4" style="enable-background:new 0 0 209.5 435.4;" xml:space="preserve">
<style type="text/css">
	.st0{opacity:0.3;}
	.st1{fill:#F4DF6C;}
</style>
<g class="st0">
	<g>
		<g>
			<path class="st1" d="M140.4,232.8c-0.1,0.8,1.2,1.1,1.4,0.3c0.8-3.7,2.6-7.2,4.6-10.5c4.6-7.2,10.3-13.5,16.6-19.3
				c-0.4,1.5-0.8,3.2-1.6,5c-2.3,6.2-4.8,6.7-5.9,11.5c-1,4.9,1,6.7-0.9,10.2c-1.3,2.3-2.4,1.9-5,5.1c-2.7,3.4-2.1,4.8-4.3,7.1
				c-2.4,2.6-4.4,2.3-6.9,4c-2.3,1.6-5.1,4.8-6.2,12c-3-7.7-2.2-12.8-1-16c1.4-3.7,3.7-5.7,4.7-11c0.1-0.7,0.2-1.5,0.3-2.3
				c0.6-5.8,0.1-7,0.5-9.1c0.8-4.9,4.9-8.1,5.9-8.9c3.5-2.7,4.8-1.1,8.9-4.2c2.9-2.2,3.5-4,6.7-5.6c0.7-0.4,1.5-0.7,2.1-0.9
				C151.3,209.5,142.7,220.8,140.4,232.8z"/>
			<path class="st1" d="M184.2,224.7c-0.3-0.1-0.5,0.2-0.4,0.5c0.5,1.8,0.9,4.9,0,8.4c-1.7,6.1-6.4,8.7-8.2,9.5
				c-0.3,0.1-0.6,0-0.7-0.3c-0.9-2.1-2.2-5.5-2.2-9.8c0-1,0.1-7.6,4.4-12.9c0.7-0.8,1.9-2.2,3.8-3.4c1.9-1.1,3.5-1.4,5.9-1.9
				c1.5-0.3,3.6-0.7,6.2-0.7c2.1,0,5.9,0.4,10.6,2.7c0.5,0.3,0.7,0.9,0.4,1.3c-1.5,1.9-4.7,4.9-9.7,6.3
				C190.1,225.7,186.4,225.2,184.2,224.7z"/>
			<path class="st1" d="M191.9,234.6c-0.4-1.4-0.6-2.8-0.7-4.3c-0.1-0.7,0.7-1.2,1.3-0.9c2.1,0.8,4,1.9,6.2,3
				c15.6,8.9,23.6,23.5,27.6,32.8c0.4,0.7-0.5,1.6-1.2,1.2C216.4,262.8,196.6,253.2,191.9,234.6z"/>
			<path class="st1" d="M217.9,227.8c-2.9-0.9-7.2-2.2-12.5-3.4c-0.6-0.1-0.7-0.8-0.2-1.1c3-1.8,8-4,14.4-4.4c1.8-0.1,3.4,0,4.8,0.1
				c2.6,0.3,5,1,7.4,2.1c0.3,0.1,0.6,0.3,0.8,0.5c0.5,0.3,0.9,0.5,1.3,0.7c0.8,0.5,1.7,1,2.1,1.3c0.9,0.7,1.5,1.3,5.2,5.7
				c0.7,0.9,1.2,1.5,1,2.1c-0.2,0.5-0.7,0.8-1.8,1c-4.1,0.8-8.6-0.9-8.6-0.9C225.8,229,220,228.5,217.9,227.8z"/>
			<path class="st1" d="M183.5,243.7c0.9,6.1,2.1,10.9,2.8,14.3c2.1,8.3,3.4,11.4,2.9,15.9c-0.6,4.8-2.9,8.4-5,10.9
				c-0.5,0.5-1.3,0.2-1.4-0.5c-0.8-3.6-2-6.2-2.9-7.9c-0.4-0.7-1.1-2.1-2.1-4c-0.2-0.4-0.3-0.7-0.4-1c-1-2.7-1.7-5.5-1.8-8.4
				c0-1.6,0-3.4,0.3-5.3c1-6.7,4.1-11.6,6.3-14.4C182.6,242.8,183.4,243.1,183.5,243.7z"/>
			<path class="st1" d="M216,240.7c-2.9-3-10.3-7.9-16.2-12.3c-0.4-0.3-0.2-0.9,0.3-0.8c5.8,0.6,20,3.1,29.5,11.8
				c3.7,3.5,6.2,7.3,7.9,10.3c0.4,0.7-0.2,1.8-1,1.8c-2.8,0.1-6.2-0.2-9.7-1.7C222.3,247.8,220,244.9,216,240.7z"/>
			<path class="st1" d="M199.4,274.3c-2.2-2.8-4.1-5.4-5.5-7.8c-3.1-5.1-6.4-13.1-6.2-22.7c0-1.5-0.7-4.4,0.4-4.2
				c0.8,0.5,3.6,8.3,7.8,13.1c3.8,4.5,6.2,5.3,8.4,8.6c2.1,3.4,3.9,8.9,1.5,18.6c-0.1,0.4-0.7,0.6-0.9,0.3
				C203.1,278.5,201.2,276.6,199.4,274.3z"/>
			<path class="st1" d="M167.3,32.8c8.3,8.5,7.6,25.2-3.5,30.9c-13.7,7-28.4-1.9-33.3-15.4c-1.9-4.8-2.6-9.8-2.4-14.7
				c0-0.1,0.1-0.2,0.2-0.2c0.4,0,1.8,4.7,2,5.1c0.7,1.7,1.3,3.4,2.1,4.9c4.4,8.5,12.7,15.2,22.5,15.4c1,0,1.8-0.2,1.8-0.2
				c0.8-0.5,1.8-1.2,0.9-2.1c-1.4-1.6-4.6-1.9-6.5-2.4c-7-2.2-13.1-6.8-17.4-12.6c-0.7-0.7-4.2-7.5-4.8-9.4
				c-0.1-0.2,0.2-0.4,0.4-0.2c2.6,2.2,5.3,4.2,7.9,6.4c5.9,4.8,11.3,9.7,18.8,11.7c0.9,0.3,2.1,0.7,3.2,0.7c0.3,0,0.7-0.2,0.7-0.6
				c0.1-0.3-0.2-0.6-0.4-0.8c-5.5-5.9-12.1-11.7-20-14c-2.1-0.6-10.3-2.5-10.1-4.8c0-0.1-0.1-0.3,0.1-0.3c10-0.7,20.9,0.9,28.2,8.2
				c1.7,1.7,3.2,3.4,5,4.9c0.4,0.4,0.9,0.7,1.4,0.6c1.4-0.4,0.8-2.6,0.4-3.4c-0.6-1.2-1.4-2.2-2.3-3.3c-1.6-1.7-3.5-3.1-5.5-4.3
				c-7.5-4.6-17.2-6.1-25.7-3.8c-0.4,0.1-0.6-0.5-0.2-0.6C142.3,23.5,158.1,22.7,167.3,32.8z"/>
			<path class="st1" d="M171.8,60c1.3-1.5,2.4-3.2,3-4.9c0.4-1.3,0.2-2.6,0.7-3.9c0.1-0.2,0.2-0.4,0.3-0.5c0.5-0.4,0.8-0.2,1.1,0.1
				c0.8,1,2.1,2.7,2.5,5.1c0.1,0.3,0.1,0.6,0.1,0.7c0.3,2.1-1,4.8-3.7,6.5c-1.6,1-3.2,1.2-3.9,1.4c-0.9,0.2-2.3,0.4-3.2,0
				C167.2,63.8,171.2,60.7,171.8,60z"/>
			<path class="st1" d="M91.5,122.5c-0.1-0.4,0.2-0.7,0.6-1.2c2.1-2.5,7.7-0.3,16.4,2c14.2,3.7,17.1,2.6,21.5,6.7
				c3.1,2.9,4.8,6.2,5.4,7.5c0.8,1.7,2.7,5.7,2.7,10.8c0,4.8-1.8,4.9-2.9,10.6c-2,9.7,1.5,16.6-1.8,18.5c-0.8,0.5-2,0.7-2.3,0.3
				c-3-3.1-7.9-9.2-9.9-18.4c-1.6-7.6-0.5-14.1,0.6-17.6c0.1-0.5-0.3-0.9-0.7-0.8c-3,0.5-8.4,0.7-14.2-1.8
				C96.8,134.9,92.7,125.7,91.5,122.5z"/>
			<path class="st1" d="M105.5,147.7c2-0.4,4.1-0.7,6.3-0.7c1,0,1.8,1.2,1.3,2.2c-1.3,3.2-2.9,6.4-4.8,9.7
				C94.5,183.4,72.8,194.8,59,200c-1.1,0.5-2.2-0.9-1.7-2.1C62.9,184.4,78.3,152.8,105.5,147.7z"/>
			<path class="st1" d="M105.3,212.1c0.4-7.2,2.9-11.3,7.4-23c1.9-4.8,4.4-11.7,7-20.5c0.3-0.9,1.4-1,1.8-0.1
				c2.2,5.2,5.1,13.8,4.8,24.4c-0.1,3-0.4,5.7-0.8,8.1c-0.7,4.3-2.1,8.3-4.2,12c-0.3,0.5-0.5,0.9-0.7,1.4c-1.6,2.7-2.9,4.4-3.5,5.4
				c-1.6,2.3-3.6,5.7-5.6,10.8c-0.4,0.9-1.5,1-2,0.1C107.2,226,104.9,219.6,105.3,212.1z"/>
			<path class="st1" d="M73.8,122.3c9.7,2.3,16.4,7.9,20.3,12c0.7,0.7,0.2,2-0.7,2.1c-8.9,0.9-16.1,2.2-21.2,3.2
				c-12.3,2.4-17,4.5-23.6,3.1c-6.9-1.5-11.9-5.8-15.3-9.5c-0.7-0.7-0.2-2.1,0.8-2.3c5.3-1,9.2-2.6,11.8-4c1.1-0.6,3.2-1.7,6.2-2.9
				c0.6-0.2,1-0.4,1.5-0.6c4.1-1.5,8.3-2.2,12.4-2.1C68.6,121.2,71.1,121.6,73.8,122.3z"/>
			<path class="st1" d="M95.1,186.7c4.4-4.2,11.8-15.3,18.5-24.3c0.5-0.6,1.3-0.2,1.2,0.6c-1.1,9.1-5.8,31.4-18.8,45.3
				c-5.2,5.6-10.7,9.1-15.2,11.4c-1.1,0.6-2.4-0.5-2.4-1.9c0.1-4.4,0.7-9.8,3.2-15.1C84.6,195.8,88.9,192.7,95.1,186.7z"/>
			<path class="st1" d="M99.7,142.8c-0.1,0-0.1,0.1-0.2,0.1c-1.5,1-3.2,1.9-4.8,2.6c-5.2,2.5-10.4,4.9-14.9,8.8
				c-5.2,4.6-9.2,11.1-15.8,13.6c-7.2,2.6-15.8,1.7-22.8-1.3c-0.1-0.1-0.3-0.1-0.4-0.3c-0.3-0.4,0.1-0.8,0.4-1.1
				c7.6-7.8,16.3-14.3,25.9-18.4c9.6-4.1,20.1-6,30.4-4.7C98.2,142.3,98.9,142.4,99.7,142.8z"/>
			<path class="st1" d="M120.9,70.8c4,0,6.9,1.2,8.3,1.8c5.6,2.5,5.3,5.2,10.2,8.6c5.7,4.2,8.4,2,15.1,7.2c1.6,1.2,4.7,3.8,5.7,6.3
				c-22.6-11-48.7-12.7-73-6.6c-0.7,0.2-0.6,1.2,0.2,1c12.8-2.2,25.8-2.3,38.5-0.3c11,1.7,21.7,5.2,31.6,10.5
				c-2.1,0.7-4.9,0.8-7.2,0.9c-12.4,0.8-15-3.4-23.9-1.6c-8.2,1.9-8.9,6.2-14.9,5.4c-5.2-0.6-5.6-3.8-12.4-5.2
				c-7.4-1.3-8.7,2.1-15.4,1.2c-7.5-0.7-8.5-5-16.4-6c-3.6-0.5-9.1,0-16.3,3.4c2.3-3.2,6.4-7.9,13.1-11.9c1.2-0.7,3.4-1.9,6.2-3
				c5.6-2,7.2-0.9,11.4-2.1c6.6-1.8,6.3-5.3,12.5-6.8c5.7-1.2,6.2,1.8,12.5,0.9C113.1,74.2,114.3,71,120.9,70.8z"/>
			<path class="st1" d="M205.1,195.8c-3-1.9-2.7-2.9-6.2-5.9c-4.5-4-6-3.1-9.5-6.7c-0.3-0.3-0.6-0.6-0.7-0.8c0,0-0.3-0.3-0.5-0.7
				c-0.7-1-1.7-6-2.7-8.9c-0.8-2.3-2-3.7-2.6-4.5c-1.5-1.9-2.1-1.4-3.4-3.6c-1.1-2-1.5-4-1.6-4.4c-0.2-1.1-0.2-2-0.2-2.6
				c0.1-2.6,0.5-3.8,0.8-6.1c0.4-2,0.4-3.5,0.5-5.2c0.4-5.7-0.8-7-0.3-10.8c0.5-3,1.8-5.2,3.1-6.8c-0.1,14.6,3.7,28.5,10.2,40
				c3,5.4,6.5,10.3,10.6,14.6c0.7,0.7,1.7-0.4,0.9-1.1c-12.3-14.3-19.7-35.2-17.8-57c1.3-0.7,3.1-1.4,4.7-0.3
				c2.6,1.7,1.4,5.9,4.8,10c2.6,3.1,4.4,2.3,5.5,5.8c0.9,2.7,0.9,5.5,0.9,5.5c0,2.2-0.5,3.1-0.3,5.8c0.1,1.3,0.3,2.7,0.8,4.2
				c1,2.3,2.2,2.1,3.4,4.5c0.5,0.8,0.7,1.6,0.9,2.8c2.1,6.8,0.7,9.2,4.1,16.2c2,3.7,3,4.4,3.9,7.3c0.9,3,0.6,4.6,1.8,8.5
				c0.9,2.7,2.1,4.8,3.1,6.2c-1.3-0.7-3.4-2.1-6-3C209.6,197.1,208.4,197.8,205.1,195.8z"/>
			<path class="st1" d="M208,9.4c0,0.7,0,1.6,0,2.3c0.4,30.7-11.9,62-31.1,87.3c-4.8,8.1-8.6,16.7-11.2,25.7
				c-2.9,9.8-4.5,20-4.5,30.1c-0.1,10.2,1.3,20.4,4.1,30.3c0.7,2.6,1.6,5.1,2.4,7.6c0.6,1.6,1.2,3.2,1.9,4.8
				c2.2,5.4,4.8,10.7,7.8,15.8c0.4,0.7,0.2,1.4-0.5,1.9c-0.7,0.4-1.5,0.2-1.9-0.4c-3.1-4.8-5.8-9.8-8.2-14.9c-0.7-1.5-1.3-3.1-2-4.7
				c-1.2-3-2.2-6-3.2-9c-3.1-10.1-4.8-20.7-4.8-31.3c-0.1-10.6,1.5-21.3,4.4-31.4c1-3.5,2.3-7.1,3.7-10.5
				c-6.9,7.3-14.4,13.7-22.3,19.2c-1.5,1-3.2-1.1-1.9-2.3c8.6-7.9,16.5-16.5,23.7-25.6c14.3-18.2,24.8-39.1,31.3-61.2
				c3.3-11.1,5.2-22.5,7.6-33.8c0.4-2,2.6-2.2,3.7-1.2C207.7,8.3,208,8.7,208,9.4z"/>
		</g>
	</g>
	<g>
		<path class="st1" d="M68.5,367.8c0-0.3-0.3-0.4-0.5-0.3c-1.8,0.8-5,1.6-8.7,1.1c-6.5-0.9-10-5.6-10.9-7.2
			c-0.2-0.3-0.1-0.7,0.2-0.8c2.1-1.3,5.5-3.1,9.8-3.6c1-0.1,7.9-0.9,13.9,2.8c0.9,0.5,2.5,1.5,3.9,3.5c1.4,1.8,2,3.4,2.7,5.8
			c0.4,1.5,1.2,3.7,1.5,6.3c0.3,2.1,0.3,6.1-1.4,11.4c-0.2,0.5-0.9,0.9-1.4,0.5c-2.1-1.3-5.8-4.2-7.8-9.2
			C68.2,373.9,68.3,370,68.5,367.8z"/>
		<path class="st1" d="M59.3,377c1.4-0.5,2.7-1,4.4-1.4c0.8-0.2,1.4,0.4,1.2,1.2c-0.7,2.2-1.4,4.5-2.3,6.8
			c-7.2,17.3-21.2,27.6-30.4,32.9c-0.8,0.4-1.6-0.3-1.4-1.1C33.2,406.1,40.7,384.2,59.3,377z"/>
		<path class="st1" d="M69.7,403c0.5-3.2,1.4-7.7,2-13.5c0.1-0.5,0.8-0.8,1.1-0.3c2.2,2.8,5.2,7.8,6.4,14.3c0.3,1.9,0.4,3.5,0.5,5.1
			c0.1,2.7-0.3,5.4-1.2,7.9c-0.1,0.3-0.2,0.7-0.3,0.9c-0.2,0.5-0.3,1-0.5,1.4c-0.3,0.9-0.9,1.9-1.1,2.3c-0.5,1-1.1,1.8-5.3,6.2
			c-0.9,0.9-1.4,1.5-2.1,1.4c-0.4-0.1-0.9-0.5-1.3-1.6c-1.4-4-0.1-9-0.1-9C69.6,411.3,69.3,405.3,69.7,403z"/>
		<path class="st1" d="M48.7,369.4c-6.1,1.8-11,3.5-14.3,4.8c-8.3,3.2-11.3,5-16.1,5c-5,0-9.1-2-11.9-3.8c-0.5-0.3-0.3-1.3,0.3-1.5
			c3.6-1.4,6.1-2.8,7.8-4c0.8-0.5,2.1-1.5,3.9-2.6c0.3-0.2,0.7-0.3,1-0.5c2.7-1.5,5.6-2.5,8.4-2.8c1.6-0.3,3.5-0.3,5.5-0.3
			c7.1,0.2,12.5,2.7,15.8,4.6C49.6,368.5,49.4,369.3,48.7,369.4z"/>
		<path class="st1" d="M56.2,402.7c2.7-3.3,6.9-11.6,10.6-18.5c0.3-0.4,0.9-0.3,0.9,0.2c0.2,6-0.5,21.1-8.4,32.1
			c-3.2,4.4-6.7,7.4-9.6,9.5c-0.8,0.5-1.9,0.1-2-0.9c-0.4-2.8-0.7-6.4,0.5-10.3C49.6,410.1,52.3,407.5,56.2,402.7z"/>
		<path class="st1" d="M19.2,389.9c2.6-2.7,5.1-4.9,7.4-6.8c4.9-3.9,12.6-8.4,22.7-9.4c1.5-0.2,4.5-1.3,4.4-0.2
			c-0.3,0.9-8.1,4.9-12.5,9.8c-4,4.5-4.7,7.1-7.8,9.8c-3.3,2.7-8.8,5.2-19.1,3.9c-0.4-0.1-0.7-0.5-0.4-0.9
			C15.2,394.3,17.1,392.2,19.2,389.9z"/>
	</g>
</g>
</svg>
