<?xml version="1.0" encoding="utf-8"?>
<!-- Generator: Adobe Illustrator 27.3.1, SVG Export Plug-In . SVG Version: 6.00 Build 0)  -->
<svg version="1.1" id="Layer_1" xmlns="http://www.w3.org/2000/svg" xmlns:xlink="http://www.w3.org/1999/xlink" x="0px" y="0px"
	 viewBox="0 0 90 90" style="enable-background:new 0 0 90 90;" xml:space="preserve">
<style type="text/css">
	.st0{fill:#F4DF6C;}
</style>
<g>
	<path class="st0" d="M73.1,68.2c0.1,0.3-0.1,0.6-0.5,0.6c-2-0.2-5.6-0.3-9.3,1.4c-6.4,2.9-8.5,8.7-9.1,10.7
		c-0.1,0.3,0.1,0.7,0.4,0.7c2.5,0.7,6.5,1.5,11.1,0.7c1.1-0.2,8.4-1.4,13.5-7c0.8-0.9,2.1-2.4,3.1-4.8c0.9-2.2,1-4.1,1-6.9
		c0-1.7,0.2-4.1-0.3-6.9c-0.3-2.2-1.4-6.5-4.8-11.3c-0.4-0.5-1.1-0.6-1.5-0.2c-1.8,2-4.6,6-5.2,11.8C71,61.9,72.1,65.9,73.1,68.2z"
		/>
	<path class="st0" d="M60.8,61.5c1.6,0.2,3.2,0.2,4.9,0.1c0.8,0,1.3-0.9,0.9-1.6c-1.3-2-2.8-4.2-4.4-6.2
		C49.7,38.2,32.2,31.8,21.2,29c-0.9-0.3-1.6,0.8-1.1,1.6C25.4,39.3,39.6,59.6,60.8,61.5z"/>
	<path class="st0" d="M63.9,31.6c1.5,3.1,3.6,7.6,6,13.3c0.3,0.5,1,0.5,1.2,0c1.3-3.6,3-9.5,2.3-16.6c-0.2-2-0.6-3.8-0.9-5.4
		c-0.7-2.8-2-5.5-3.6-7.7c-0.2-0.3-0.4-0.6-0.7-0.8c-0.4-0.5-0.7-0.9-1-1.3c-0.7-0.8-1.4-1.7-1.8-2.1c-0.9-0.9-1.7-1.5-7.2-4.8
		c-1.1-0.6-1.9-1.1-2.5-0.8c-0.5,0.2-0.8,0.9-0.8,2.1c-0.2,4.6,2.6,9.3,2.6,9.3C61.2,23.1,62.7,29.3,63.9,31.6z"/>
	<path class="st0" d="M52.2,72.3c-6.8,0-12.4-0.4-16.2-0.6c-9.5-0.8-13.1-1.8-18.1-0.4C12.7,72.8,9,76,6.7,78.8
		c-0.5,0.6,0,1.5,0.8,1.5c4.2,0.4,7.1,1.2,9.2,1.9c0.9,0.4,2.5,1,4.8,1.5c0.4,0.1,0.8,0.2,1.2,0.3c3.1,0.8,6.4,0.9,9.5,0.5
		c1.8-0.2,3.8-0.7,5.8-1.3c7.2-2.3,12.1-6.5,14.8-9.5C53.4,73.2,52.9,72.3,52.2,72.3z"/>
	<path class="st0" d="M49.9,35.9c3.8,2.7,10.5,9.9,16.4,15.8c0.4,0.4,1,0,0.9-0.5c-1.6-6.3-6.9-21.6-18.2-30.6
		c-4.6-3.6-9.1-5.7-12.8-6.9c-0.9-0.4-1.9,0.4-1.8,1.4c0.4,3,1.2,6.8,3.5,10.4C41,30.2,44.7,32.1,49.9,35.9z"/>
	<path class="st0" d="M15.7,60c3.5,2,6.8,3.6,9.7,4.7c6.2,2.5,15.5,4.9,26.1,3c1.6-0.3,5,0,4.6-1.1c-0.7-0.8-9.8-2.6-15.8-6.4
		c-5.6-3.5-6.9-6-11-7.8c-4.1-1.8-10.6-2.8-20.9,1.6c-0.5,0.2-0.5,0.8-0.1,1.1C10.4,56.7,12.9,58.4,15.7,60z"/>
</g>
</svg>
