<?xml version="1.0" encoding="utf-8"?>
<!-- Generator: Adobe Illustrator 27.3.1, SVG Export Plug-In . SVG Version: 6.00 Build 0)  -->
<svg version="1.1" id="Layer_1" xmlns="http://www.w3.org/2000/svg" xmlns:xlink="http://www.w3.org/1999/xlink" x="0px" y="0px"
	 viewBox="0 0 272.3 493.5" style="enable-background:new 0 0 272.3 493.5;" xml:space="preserve">
<style type="text/css">
	.st0{fill:#F4DF6C;}
</style>
<g>
	<g>
		<path class="st0" d="M156.8,237.5c-0.1,0.9,1.3,1.2,1.5,0.3c0.9-4,2.8-7.7,4.9-11.3c4.9-7.7,11.1-14.5,17.8-20.7
			c-0.4,1.6-0.9,3.4-1.7,5.4c-2.5,6.7-5.2,7.2-6.3,12.3c-1.1,5.3,1.1,7.2-1,10.9c-1.4,2.5-2.6,2-5.4,5.5c-2.9,3.7-2.2,5.1-4.6,7.6
			c-2.6,2.8-4.7,2.5-7.4,4.3c-2.5,1.7-5.5,5.2-6.7,12.9c-3.2-8.3-2.4-13.7-1.1-17.2c1.5-4,4-6.1,5-11.8c0.1-0.7,0.2-1.6,0.3-2.5
			c0.6-6.2,0.1-7.5,0.5-9.8c0.9-5.3,5.3-8.7,6.3-9.5c3.8-2.9,5.1-1.2,9.5-4.5c3.1-2.4,3.8-4.3,7.2-6c0.8-0.4,1.6-0.7,2.3-1
			C168.5,212.5,159.2,224.6,156.8,237.5z"/>
		<path class="st0" d="M203.8,228.8c-0.3-0.1-0.5,0.2-0.4,0.5c0.5,1.9,1,5.3,0,9c-1.8,6.5-6.9,9.3-8.8,10.2c-0.3,0.1-0.6,0-0.8-0.3
			c-1-2.2-2.4-5.9-2.4-10.5c0-1.1,0.1-8.2,4.7-13.8c0.7-0.9,2-2.4,4.1-3.6c2-1.2,3.8-1.5,6.3-2c1.6-0.3,3.9-0.7,6.6-0.7
			c2.2,0,6.3,0.4,11.4,2.9c0.5,0.3,0.7,1,0.4,1.4c-1.6,2-5,5.3-10.4,6.8C210.1,229.9,206.1,229.3,203.8,228.8z"/>
		<path class="st0" d="M212,239.4c-0.4-1.5-0.6-3-0.8-4.6c-0.1-0.8,0.7-1.3,1.4-1c2.2,0.9,4.3,2,6.6,3.2
			c16.7,9.6,25.3,25.2,29.6,35.2c0.4,0.8-0.5,1.7-1.3,1.3C238.3,269.7,217,259.3,212,239.4z"/>
		<path class="st0" d="M239.9,232.1c-3.1-1-7.7-2.4-13.4-3.7c-0.6-0.1-0.7-0.9-0.2-1.2c3.2-1.9,8.6-4.3,15.4-4.7
			c1.9-0.1,3.7,0,5.2,0.1c2.8,0.3,5.4,1.1,7.9,2.3c0.3,0.1,0.6,0.3,0.9,0.5c0.5,0.3,1,0.5,1.4,0.8c0.9,0.5,1.8,1.1,2.2,1.4
			c1,0.7,1.6,1.4,5.6,6.1c0.8,1,1.3,1.6,1.1,2.2c-0.2,0.5-0.7,0.9-1.9,1.1c-4.4,0.9-9.2-1-9.2-1
			C248.4,233.4,242.2,232.9,239.9,232.1z"/>
		<path class="st0" d="M203,249.2c1,6.5,2.2,11.7,3,15.3c2.2,8.9,3.6,12.2,3.1,17.1c-0.6,5.1-3.1,9-5.4,11.7
			c-0.5,0.5-1.4,0.2-1.5-0.5c-0.9-3.9-2.1-6.6-3.1-8.5c-0.4-0.8-1.2-2.2-2.2-4.3c-0.2-0.4-0.3-0.7-0.4-1.1c-1.1-2.9-1.8-5.9-1.9-9
			c0-1.7,0-3.6,0.3-5.7c1.1-7.2,4.4-12.4,6.8-15.5C202,248.2,202.9,248.5,203,249.2z"/>
		<path class="st0" d="M237.9,245.9c-3.1-3.2-11-8.5-17.4-13.2c-0.4-0.3-0.2-1,0.3-0.9c6.2,0.6,21.5,3.3,31.6,12.7
			c4,3.8,6.7,7.8,8.5,11.1c0.4,0.8-0.2,1.9-1.1,1.9c-3,0.1-6.6-0.2-10.4-1.8C244.6,253.6,242.2,250.4,237.9,245.9z"/>
		<path class="st0" d="M220.1,282c-2.4-3-4.4-5.8-5.9-8.4c-3.3-5.5-6.9-14-6.6-24.3c0-1.6-0.7-4.7,0.4-4.5c0.9,0.5,3.9,8.9,8.4,14
			c4.1,4.8,6.7,5.7,9,9.2c2.3,3.6,4.2,9.6,1.6,20c-0.1,0.4-0.7,0.6-1,0.3C224,286.5,222,284.4,220.1,282z"/>
		<path class="st0" d="M185.6,22.9c8.9,9.1,8.2,27-3.8,33.1c-14.7,7.5-30.5-2-35.7-16.5c-2-5.1-2.8-10.5-2.6-15.8
			c0-0.1,0.1-0.2,0.2-0.2c0.4,0,1.9,5,2.1,5.5c0.7,1.8,1.4,3.6,2.3,5.3c4.7,9.1,13.6,16.3,24.1,16.5c1.1,0,1.9-0.2,1.9-0.2
			c0.9-0.5,1.9-1.3,1-2.3c-1.5-1.7-4.9-2-7-2.6c-7.5-2.4-14-7.3-18.7-13.5c-0.7-0.8-4.5-8-5.1-10.1c-0.1-0.2,0.2-0.4,0.4-0.2
			c2.8,2.4,5.7,4.5,8.5,6.9c6.3,5.2,12.1,10.4,20.2,12.6c1,0.3,2.3,0.8,3.4,0.7c0.3,0,0.7-0.2,0.7-0.6c0.1-0.3-0.2-0.6-0.4-0.9
			c-5.9-6.3-13-12.6-21.5-15c-2.2-0.6-11-2.7-10.8-5.1c0-0.1-0.1-0.3,0.1-0.3c10.7-0.8,22.4,1,30.3,8.8c1.8,1.8,3.4,3.7,5.4,5.3
			c0.4,0.4,1,0.7,1.5,0.6c1.5-0.4,0.9-2.8,0.4-3.7c-0.6-1.3-1.5-2.4-2.5-3.5c-1.7-1.8-3.8-3.3-5.9-4.6c-8-4.9-18.5-6.5-27.6-4.1
			c-0.4,0.1-0.6-0.5-0.2-0.6C158.8,13,175.7,12.1,185.6,22.9z"/>
		<path class="st0" d="M190.5,52.1c1.4-1.6,2.6-3.4,3.2-5.3c0.4-1.4,0.2-2.8,0.7-4.2c0.1-0.2,0.2-0.4,0.3-0.5
			c0.5-0.4,0.9-0.2,1.2,0.1c0.9,1.1,2.2,2.9,2.7,5.5c0.1,0.3,0.1,0.6,0.1,0.8c0.3,2.3-1.1,5.2-4,7c-1.7,1.1-3.4,1.3-4.2,1.5
			c-1,0.2-2.5,0.4-3.4,0C185.5,56.2,189.8,52.9,190.5,52.1z"/>
		<path class="st0" d="M104.3,119.2c-0.1-0.4,0.2-0.8,0.6-1.3c2.2-2.7,8.3-0.3,17.6,2.1c15.2,4,18.3,2.8,23.1,7.2
			c3.3,3.1,5.2,6.7,5.8,8c0.9,1.8,2.9,6.1,2.9,11.6c0,5.1-1.9,5.3-3.1,11.4c-2.1,10.4,1.6,17.8-1.9,19.8c-0.9,0.5-2.1,0.7-2.5,0.3
			c-3.2-3.3-8.5-9.9-10.6-19.7c-1.7-8.2-0.5-15.1,0.6-18.9c0.1-0.5-0.3-1-0.8-0.9c-3.2,0.5-9,0.7-15.2-1.9
			C110,132.4,105.6,122.6,104.3,119.2z"/>
		<path class="st0" d="M119.3,146.2c2.1-0.4,4.4-0.7,6.8-0.8c1.1,0,1.9,1.3,1.4,2.4c-1.4,3.4-3.1,6.9-5.1,10.4
			c-14.9,26.3-38.1,38.5-52.9,44.1c-1.2,0.5-2.4-1-1.8-2.3C73.6,185.5,90.1,151.7,119.3,146.2z"/>
		<path class="st0" d="M119.1,215.3c0.4-7.7,3.1-12.1,7.9-24.7c2-5.1,4.7-12.6,7.5-22c0.3-1,1.5-1.1,1.9-0.1
			c2.4,5.6,5.5,14.8,5.2,26.2c-0.1,3.2-0.4,6.1-0.9,8.7c-0.8,4.6-2.3,8.9-4.5,12.9c-0.3,0.5-0.5,1-0.8,1.5c-1.7,2.9-3.1,4.7-3.8,5.8
			c-1.7,2.5-3.9,6.1-6,11.6c-0.4,1-1.6,1.1-2.1,0.1C121.1,230.2,118.7,223.3,119.1,215.3z"/>
		<path class="st0" d="M85.3,118.9c10.4,2.5,17.6,8.5,21.8,12.9c0.7,0.7,0.2,2.1-0.8,2.2c-9.6,1-17.3,2.4-22.7,3.4
			c-13.2,2.6-18.2,4.8-25.3,3.3c-7.4-1.6-12.8-6.2-16.4-10.2c-0.7-0.8-0.2-2.3,0.9-2.5c5.7-1.1,9.9-2.8,12.7-4.3
			c1.2-0.6,3.4-1.8,6.6-3.1c0.6-0.2,1.1-0.4,1.6-0.6c4.4-1.6,8.9-2.4,13.3-2.2C79.7,117.8,82.4,118.2,85.3,118.9z"/>
		<path class="st0" d="M108.2,188c4.7-4.5,12.7-16.4,19.8-26.1c0.5-0.6,1.4-0.2,1.3,0.6c-1.2,9.8-6.2,33.7-20.2,48.6
			c-5.6,6-11.5,9.8-16.3,12.2c-1.2,0.6-2.6-0.5-2.6-2c0.1-4.7,0.8-10.5,3.4-16.2C96.9,197.8,101.5,194.4,108.2,188z"/>
		<path class="st0" d="M113.1,140.9c-0.1,0-0.1,0.1-0.2,0.1c-1.6,1.1-3.4,2-5.2,2.8c-5.6,2.7-11.2,5.3-16,9.4
			c-5.6,4.9-9.9,11.9-16.9,14.6c-7.7,2.8-16.9,1.8-24.5-1.4c-0.1-0.1-0.3-0.1-0.4-0.3c-0.3-0.4,0.1-0.9,0.4-1.2
			c8.1-8.4,17.5-15.3,27.8-19.7s21.6-6.4,32.6-5C111.5,140.4,112.3,140.5,113.1,140.9z"/>
		<path class="st0" d="M135.9,63.7c4.3,0,7.4,1.3,8.9,1.9c6,2.7,5.7,5.6,10.9,9.2c6.1,4.5,9,2.1,16.2,7.7c1.7,1.3,5,4.1,6.1,6.8
			c-24.2-11.8-52.2-13.6-78.3-7.1c-0.8,0.2-0.6,1.3,0.2,1.1c13.7-2.4,27.7-2.5,41.3-0.3c11.8,1.8,23.3,5.6,33.9,11.3
			c-2.3,0.7-5.3,0.9-7.7,1c-13.3,0.9-16.1-3.7-25.6-1.7c-8.8,2-9.6,6.6-16,5.8c-5.6-0.6-6-4.1-13.3-5.6c-7.9-1.4-9.3,2.2-16.5,1.3
			c-8-0.8-9.1-5.4-17.6-6.4c-3.9-0.5-9.8,0-17.5,3.7c2.5-3.4,6.9-8.5,14.1-12.8c1.3-0.8,3.6-2,6.7-3.2c6-2.1,7.7-1,12.2-2.2
			c7.1-1.9,6.8-5.7,13.4-7.3c6.1-1.3,6.7,1.9,13.4,1C127.5,67.3,128.8,63.9,135.9,63.7z"/>
		<path class="st0" d="M226.2,197.8c-3.2-2-2.9-3.1-6.6-6.3c-4.8-4.3-6.4-3.3-10.2-7.2c-0.3-0.3-0.6-0.6-0.8-0.9
			c0,0-0.3-0.3-0.5-0.7c-0.8-1.1-1.8-6.4-2.9-9.5c-0.9-2.5-2.1-4-2.8-4.8c-1.6-2-2.3-1.5-3.7-3.9c-1.2-2.1-1.6-4.3-1.7-4.7
			c-0.2-1.2-0.2-2.1-0.2-2.8c0.1-2.8,0.5-4.1,0.9-6.5c0.4-2.1,0.4-3.8,0.5-5.6c0.4-6.1-0.9-7.5-0.3-11.6c0.5-3.2,1.9-5.6,3.3-7.3
			c-0.1,15.7,4,30.6,10.9,42.9c3.2,5.8,7,11.1,11.4,15.7c0.7,0.8,1.8-0.4,1-1.2c-13.2-15.3-21.1-37.8-19.1-61.1
			c1.4-0.8,3.3-1.5,5-0.3c2.8,1.8,1.5,6.3,5.1,10.7c2.8,3.3,4.7,2.5,5.9,6.2c1,2.9,1,5.9,1,5.9c0,2.4-0.5,3.3-0.3,6.2
			c0.1,1.4,0.3,2.9,0.9,4.5c1.1,2.5,2.4,2.3,3.6,4.8c0.5,0.9,0.7,1.7,1,3c2.2,7.3,0.8,9.9,4.4,17.4c2.1,4,3.2,4.7,4.2,7.8
			c1,3.2,0.6,4.9,1.9,9.1c1,2.9,2.3,5.2,3.3,6.7c-1.4-0.8-3.7-2.2-6.4-3.2C231,199.2,229.7,199.9,226.2,197.8z"/>
		<path class="st0" d="M229.3-2.2c0,0.8,0,1.7,0,2.5c0.4,32.9-12.8,66.5-33.4,93.6c-5.1,8.7-9.2,17.9-12,27.6
			c-3.1,10.5-4.8,21.4-4.8,32.3c-0.1,10.9,1.4,21.9,4.4,32.5c0.8,2.8,1.7,5.5,2.6,8.2c0.6,1.7,1.3,3.4,2,5.1
			c2.4,5.8,5.1,11.5,8.4,16.9c0.4,0.7,0.2,1.5-0.5,2c-0.7,0.4-1.6,0.2-2-0.4c-3.3-5.1-6.2-10.5-8.8-16c-0.7-1.6-1.4-3.3-2.1-5
			c-1.3-3.2-2.4-6.4-3.4-9.7c-3.3-10.8-5.1-22.2-5.2-33.6c-0.1-11.4,1.6-22.8,4.7-33.7c1.1-3.8,2.5-7.6,4-11.3
			c-7.4,7.8-15.5,14.7-23.9,20.6c-1.6,1.1-3.4-1.2-2-2.5c9.2-8.5,17.7-17.7,25.4-27.5c15.3-19.5,26.6-41.9,33.6-65.6
			c3.5-11.9,5.6-24.1,8.2-36.3c0.4-2.1,2.8-2.4,4-1.3C229-3.4,229.3-2.9,229.3-2.2z"/>
	</g>
</g>
<g>
	<path class="st0" d="M103.9,418.1c0-0.3-0.3-0.5-0.6-0.4c-2.1,0.9-5.8,1.9-10.1,1.3c-7.6-1.1-11.6-6.5-12.7-8.4
		c-0.2-0.3-0.1-0.8,0.2-0.9c2.4-1.5,6.4-3.6,11.4-4.2c1.2-0.1,9.2-1.1,16.2,3.3c1.1,0.6,2.9,1.8,4.6,4.1c1.6,2.1,2.3,4,3.1,6.8
		c0.5,1.7,1.4,4.3,1.7,7.3c0.3,2.5,0.4,7.1-1.6,13.3c-0.2,0.6-1,1-1.6,0.6c-2.5-1.5-6.7-4.9-9.1-10.7
		C103.6,425.2,103.7,420.7,103.9,418.1z"/>
	<path class="st0" d="M93.2,428.8c1.6-0.6,3.2-1.2,5.1-1.6c0.9-0.2,1.6,0.5,1.4,1.4c-0.8,2.6-1.6,5.2-2.7,7.9
		c-8.4,20.2-24.7,32.1-35.4,38.3c-0.9,0.5-1.9-0.3-1.6-1.3C62.8,462.7,71.5,437.2,93.2,428.8z"/>
	<path class="st0" d="M105.3,459.1c0.6-3.7,1.6-9,2.3-15.7c0.1-0.6,0.9-0.9,1.3-0.3c2.6,3.3,6,9.1,7.4,16.6c0.4,2.2,0.5,4.1,0.6,5.9
		c0.1,3.1-0.4,6.3-1.4,9.2c-0.1,0.3-0.2,0.8-0.4,1.1c-0.2,0.6-0.4,1.2-0.6,1.6c-0.4,1.1-1,2.2-1.3,2.7c-0.6,1.2-1.3,2.1-6.2,7.2
		c-1,1.1-1.6,1.7-2.4,1.6c-0.5-0.1-1.1-0.6-1.5-1.9c-1.6-4.7-0.1-10.5-0.1-10.5C105.2,468.8,104.9,461.8,105.3,459.1z"/>
	<path class="st0" d="M80.9,420c-7.1,2.1-12.8,4.1-16.7,5.6c-9.7,3.7-13.2,5.8-18.8,5.8c-5.8,0-10.6-2.3-13.9-4.4
		c-0.6-0.4-0.4-1.5,0.3-1.8c4.2-1.6,7.1-3.3,9.1-4.7c0.9-0.6,2.4-1.7,4.5-3c0.4-0.2,0.8-0.4,1.2-0.6c3.1-1.7,6.5-2.9,9.8-3.3
		c1.9-0.3,4.1-0.4,6.4-0.4c8.3,0.2,14.6,3.1,18.4,5.4C81.9,418.9,81.7,419.8,80.9,420z"/>
	<path class="st0" d="M89.6,458.8c3.1-3.9,8-13.5,12.3-21.5c0.3-0.5,1.1-0.3,1.1,0.2c0.2,7-0.6,24.6-9.8,37.4
		c-3.7,5.1-7.8,8.6-11.2,11.1c-0.9,0.6-2.2,0.1-2.3-1c-0.5-3.3-0.8-7.4,0.6-12C81.9,467.4,85.1,464.3,89.6,458.8z"/>
	<path class="st0" d="M46.5,443.9c3-3.1,5.9-5.7,8.6-7.9c5.7-4.5,14.7-9.8,26.4-10.9c1.7-0.2,5.2-1.5,5.1-0.2
		c-0.4,1.1-9.4,5.7-14.6,11.4c-4.7,5.3-5.5,8.3-9.1,11.4c-3.8,3.1-10.3,6-22.3,4.6c-0.5-0.1-0.8-0.6-0.5-1.1
		C41.9,449,44,446.5,46.5,443.9z"/>
</g>
</svg>
