<?xml version="1.0" encoding="utf-8"?>
<!-- Generator: Adobe Illustrator 27.3.1, SVG Export Plug-In . SVG Version: 6.00 Build 0)  -->
<svg version="1.1" id="Layer_1" xmlns="http://www.w3.org/2000/svg" xmlns:xlink="http://www.w3.org/1999/xlink" x="0px" y="0px"
	 viewBox="0 0 342.6 350" style="enable-background:new 0 0 342.6 350;" xml:space="preserve">
<style type="text/css">
	.st0{display:none;}
	.st1{display:inline;}
	.st2{fill:none;}
	.st3{fill:#00703C;}
</style>
<g id="WPQMeN.tif" class="st0">
	
		<image style="display:inline;overflow:visible;" width="1550" height="866" id="Layer_0" xlink:href="8F53F229421F4423.png"  transform="matrix(0.6121 0 0 0.6121 -600.1274 -143.6795)">
	</image>
</g>
<g id="WPQMeN.tif_00000031926529411774364930000016899248470545533351_" class="st0">
	
		<image style="display:inline;overflow:visible;" width="1550" height="866" id="Layer_0_00000016788947644796122280000017322645955425553593_" xlink:href="8F53F229421F4421.png"  transform="matrix(0.6121 0 0 0.6121 0 -143.6795)">
	</image>
</g>
<g class="st0">
	<g class="st1">
		<path class="st2" d="M339.2,170.2c-2.9-1.4-5.9-2.7-9-3.9c-1.9-0.6-3.9-1.3-5.8-1.7c0.4,0.3,0.8,0.7,1.2,1.1
			c0.6,0.5,1.2,0.9,1.7,1.4c2.6,2.2,5.1,4.6,7.2,7.2c1.3,1.4,2.5,2.8,3.5,3.9c1.7,2.3,3.4,5,5.3,7c3.4,3.8,8.5,5.9,13.5,6.3
			c0.5,0,0.9-0.5,0.8-0.9c-2.7-7.2-7.7-13.7-14.3-17.9C342,171.8,340.6,170.9,339.2,170.2z M350.1,187.4c1.6,0.9,3.2,1.4,4.9,2
			c0.3,0.1,0.2,0.5-0.2,0.5c-3.6-0.2-7-2.7-9.5-5c-2.8-2.6-5.1-5.7-7.3-8.9c-0.2-0.2,0.2-0.5,0.3-0.2c2.3,2.9,4.5,5.9,7.3,8.5
			C347,185.4,348.4,186.5,350.1,187.4z"/>
		<path class="st2" d="M321.3,179.2c-0.6-1.3-1-2.8-1.5-4.3c0-0.1-0.1-0.2-0.1-0.2c-0.6-1.9-1.2-3.9-1.7-5.6
			c-0.2,0.9-0.2,1.8-0.3,2.8c-3.3,13.6,1.9,27.6,9.6,38.8c0,0,0.1,0.1,0.1,0.2c1.6-3.4,2.8-7,3.2-10.7c0.3-3.8-0.6-7.7-2.9-10.7
			S322.8,183,321.3,179.2z M327.1,207c0,0.2-0.2,0.1-0.2,0c0.6-2.8,1.1-5.5,1.3-8.3c0.1-2.7-0.5-5.1-1.5-7.6
			c-0.1-0.2,0.2-0.3,0.3-0.2c1.3,2.1,1.7,4.8,1.7,7.3C328.6,201.2,327.9,204.2,327.1,207z"/>
		<path class="st2" d="M333.6,175.2c-3.6-3.6-8.2-7.4-11.2-10.2c-0.6-0.5-1.3-0.9-2-1.3c-0.5-0.2-0.7-0.6-0.9-0.1
			c-0.2,2.9,0.2,5.8,0.8,8.5c0.2,0.5,0.2,0.9,0.3,1.2c0.4,1.4,0.9,2.8,1.3,4.1c4.4,10.8,14,19.7,23.8,25.9l1.4,0.9
			c0.5,0.4,0.8,0.2,0.8-0.2C345.4,193.4,340.5,183.4,333.6,175.2z M338.5,195.4c-1.6-1.1-3-2.4-4.3-3.7
			c-5.7-5.6-10.2-12.6-12.2-20.4c0-0.2,0.2-0.2,0.2-0.1c1.8,4.7,4,9.2,7,13.3c2.8,3.9,6.2,7.3,9.8,10.3
			C339.2,195.1,338.8,195.7,338.5,195.4z"/>
		<path class="st2" d="M319,162.2C319,162.1,319.1,162.1,319,162.2C319.1,162.1,319,162.1,319,162.2C319,162.1,319,162.1,319,162.2z
			"/>
		<path class="st2" d="M316.1,173c0.2-0.7,0.3-1.4,0.4-2.2h-0.1c-0.1,0.1-0.3,0.2-0.4,0.3c-0.2,0.2-0.5,0.5-0.7,0.7
			s-0.5,0.5-0.8,0.7c-4.2,3.9-7.4,8.8-9.2,14.3c-1.9,5.1-1.1,10.4-0.1,15.6c0.2,1.9,0.2,3.9,0.1,5.8c0,0.1,0,0.1,0.1,0.1
			c5.2-3.6,9.1-9.6,9.2-16.1c0.2-3.6,0.4-7.3,0.7-10.9C315.3,178.6,315.5,175.8,316.1,173z M309.9,181.9c-0.7,1.2-1.3,2.4-1.9,3.7
			c-1.1,2.6-2.1,5.2-3,7.9c0,0.1-0.2,0-0.1,0c0.8-2.8,1.3-5.6,2.5-8.3c0.6-1.4,1.3-2.8,2-4.1c0.7-1.2,1.4-2.4,2.5-3.3
			c0.2-0.2,0.6,0.1,0.5,0.3C311.6,179.4,310.6,180.6,309.9,181.9z"/>
		<path class="st2" d="M328.9,163.6c6.2,2.6,12.3,5.8,18.2,9.1c3,1.7,6.3,2.7,9.7,2.5c2.8-0.1,5.5-0.8,8.1-1.8
			c0.2-0.1,0.3-0.4,0.2-0.6c-0.1-0.1-0.3-0.2-0.4-0.2c-3.2-1.5-5.8-3.9-8.5-6.1c-7.5-5.9-18.2-6.2-26.9-3.1
			C329.3,163.5,329.1,163.6,328.9,163.6z M339,163.2c3.3-0.5,6.6-0.1,9.8,1c1.6,0.6,3,1.3,4.4,2.1c1.3,0.9,2.9,1.8,3.9,3.2
			c0.2,0.2-0.1,0.5-0.3,0.3c-1.3-0.9-2.4-2.1-3.9-2.9c-1.3-0.9-2.8-1.5-4.3-2.1c-3.1-1.1-6.3-1.7-9.6-1.5
			C338.9,163.3,338.9,163.2,339,163.2z"/>
		<path class="st2" d="M252.6,207.2c2.4-3.6,5.5-7,8.2-10.3c-0.6,0.3-1.2,0.6-1.7,0.8c-19.3,6.5-32.6,23.5-40.5,41.4
			c-0.1,0.2-0.2,0.4-0.2,0.4c0,0.1,0.1,0.2,0.2,0.2l0,0h0.2l0.6-0.1c5.2-0.8,10.4-2.2,15.1-4.7c4.9-2.7,9-6.9,10.9-12.1
			C247.2,217.4,249.2,211.9,252.6,207.2z M234.6,217.7c-3.1,3.7-5.8,7.7-8.5,11.7c-0.2,0.2-0.6,0-0.4-0.2c1.3-2.4,2.8-4.7,4.4-7
			c2.8-3.9,6-7.7,9.6-11.1c3.6-3.2,7.5-6.2,12.1-7.9c0.1-0.1,0.2,0.2,0.1,0.2c-2.4,1.3-4.7,2.7-6.9,4.3
			C241.2,210.5,237.7,213.9,234.6,217.7z"/>
		<path class="st2" d="M203.3,216.3c2.1,0.9,4.5,1.4,6.8,1.7c5.5,0.8,11.1,0,15.5-3.4c4.6-3.2,9.2-6.3,13.8-9.3
			c4.7-3.1,9.2-6.4,14.4-8.8c1.7-0.8,3.8-1.3,5.4-2.1c-1.8-1.2-5.1-1.7-7.5-2.1c-5.5-0.8-11-0.7-16.3,0.5
			c-8.1,1.7-15.3,6.1-20.7,12.2c-1.8,2.1-3.6,4.3-5.8,6.1c-1.7,1.6-3.8,3.1-5.7,4.4C203.1,215.7,203.1,216.2,203.3,216.3z
			 M218.5,203.7c1.2-1.3,2.5-2.5,3.9-3.6c3.7-2.8,7.9-4.7,12.3-5.9c2.1-0.6,4.1-0.9,6.2-1c1.5-0.1,3.2-0.3,4.7,0.1
			c0.1,0,0.1,0.2,0,0.2c-1.7,0.4-3.6,0.3-5.3,0.6c-4.5,0.6-8.8,2.1-12.8,4.3c-3.1,1.7-5.8,3.9-8.5,6.1
			C218.7,204.6,218.2,204.1,218.5,203.7z"/>
		<path class="st2" d="M249,154.8c1.8-0.2,3.6-0.6,5.3-1.1c-6.1-2.4-12.6-4.1-19.2-3.6c-1.8,0-6.8,1.5-10,1.4
			c3.6,0.7,7.3,1.3,11,2.3C240.3,154.7,244.7,155.4,249,154.8z"/>
		<path class="st2" d="M252.4,136.9c-8.5-2.5-17.6,1.3-24.1,6.8c-1,0.9-2.1,1.9-3,2.9c3-2.1,7-4.2,10.6-5.1
			c7.2-1.6,16.4-1.9,21.6,4.3c0.3,0.3,0.2,0.9-0.1,1.1c-0.2,0.2-0.6,0.2-0.9,0.2c-5.4-2.1-11.3-3.2-17.1-2.4
			c-5.8,0.8-11.5,2.6-16.5,5.5l0,0v0.1c0.2,0.4,0.8,0.5,1.3,0.6c3.7,0.3,7.2-1.1,10.8-1.5c7.4-0.8,14.9,1.2,21.9,3.6
			c0.8,0.2,0.7,1.3,0,1.5c-4.7,1.4-9.6,2.1-14.5,1.3c-6.4-1.2-12.6-2.8-19-4.1c0.1,0.2,0.2,0.2,0.2,0.2c6.6,5.8,15.2,9.9,24,10.1
			c3.1,0.2,6-0.6,8.8-1.9c0.7-0.4,1.4,0.6,0.8,1.1c-6.3,5.7-16,4.7-23.1,0.8c-3.9-2-7-5-10.2-7.8c2,3.5,4.4,6.7,7.5,9.2
			c6.3,5.8,16,8.5,24.2,5.1c5.1-2.2,9.6-6.9,10.3-12.5C266.8,147.8,260.8,139.1,252.4,136.9z M254.9,147.9
			c-5.6-1.7-11.4-2.2-17.2-1.6c-0.3,0-0.4-0.4-0.1-0.5c5.8-0.9,11.9-0.4,17.5,1.7C255.2,147.7,255.1,148,254.9,147.9z M244.4,161.1
			c-3.2-0.2-6.5-1.2-9.4-2.4c-1.6-0.7-3.1-1.4-4.5-2.3c-1-0.7-2.2-1.4-3-2.4c-0.2-0.2,0.1-0.3,0.2-0.2c1.1,0.7,2.1,1.6,3.2,2.3
			c1.4,0.9,2.8,1.7,4.3,2.4c2.9,1.3,6.1,1.9,9.2,2.4C244.6,160.8,244.6,161.1,244.4,161.1z M261.5,145.2c-1.3-1.7-2.8-3.4-4.7-4.7
			s-4-2.1-6.2-2.7c-0.1,0-0.1-0.2,0-0.2c4.5,0.6,8.8,3.4,11,7.3C261.7,145.2,261.6,145.3,261.5,145.2z"/>
		<path class="st2" d="M273.2,194.7l0.1-1.2c0-0.4,0-0.9,0-0.9c0-0.2-0.4-0.4-0.6-0.2c-5.3,3.4-10.6,7.2-14.5,12.1
			c-11.9,14.2-15.9,33.4-16.2,51.6c-0.2,0.9,0.6,1.3,1.1,0.9l0.8-0.9c0.9-1.2,3.8-4.3,4.9-5.4C262.6,235.3,272.4,215.6,273.2,194.7z
			 M254.9,240.2c-1.5,2.2-3,4.3-4.7,6.5c-1.5,2-2.9,3.9-4.7,5.7c-0.3,0.3-0.9-0.1-0.6-0.5c1.4-2,2.9-3.9,4.4-5.8
			c1.6-2.1,3.1-4.2,4.6-6.3c2.8-4,5.5-8.1,8.1-12.3c0.1-0.2,0.4,0,0.3,0.2C260.1,232,257.7,236.1,254.9,240.2z M270.3,196.4
			c-1.7,1.4-3.3,2.8-4.9,4.3c-3.8,3.6-7.4,7.4-10,12c-2.6,4.7-4.9,9.6-6.8,14.6c-0.1,0.2-0.4,0.1-0.3-0.2c0.9-3.1,2-6.2,3.3-9.1
			c2.1-4.8,4.8-9.3,8.4-13.3c3-3.3,6.4-6.3,10.2-8.7C270.3,196.2,270.5,196.3,270.3,196.4z"/>
		<path class="st2" d="M259.3,191.9c4.4,0.8,9.2,0,13-2.4l0.4-0.2c1-0.8,2.6-0.2,2.8,1.1c1.7,8.2,7.2,15.9,15.2,19
			c0.4-0.2,0.9-0.8,0.7-1.3c-1.1-3.3-3.9-6.3-4.8-9.9c-0.9-2.1-0.6-5-1.3-7c-1.7-4-5.4-7.6-9.6-9.2c-2.3-0.6-4.4-0.2-6.7,0.2
			c-2.4,0.5-4.9,0.9-7.3,1.3c-3.6,0.6-7.5,0.5-10.7,2.1c-2.3,1.7,1.4,3.6,2.8,4.4c0.4,0.2,0.7,0.4,1.1,0.6c0.5,0.1,0.9,0.2,1.4,0.3
			C257.1,191.1,258.2,191.4,259.3,191.9z M283.1,190c0.9,0.6,1.3,1.6,1.5,2.6c0.1,0.6,0.1,1.3,0.2,1.8c0,0.6,0.1,1.3,0.2,2
			c0,0.2-0.3,0.3-0.4,0.1c-0.5-1.1-0.3-2.4-0.4-3.6c-0.1-1-0.4-2.1-1.2-2.8C282.9,190.1,283,189.9,283.1,190z M252.4,187.7
			c-0.1-0.1,0-0.2,0.1-0.2c0.9,0.4,1.7,1,2.5,1.4c0.9,0.4,1.9,0.8,2.8,0.9c2,0.5,3.9,0.2,5.9,0c0.3,0,0.4,0.4,0.2,0.5
			c-2,0.6-4.2,0.3-6.2-0.2c-1-0.2-2.1-0.6-3-1C254,188.8,253,188.4,252.4,187.7z"/>
		<path class="st2" d="M279.8,205.2c0.1,1,0.2,2.1,0.2,3.1c1.1,7.2,1.5,14.5,0.6,21.6c0,1.3,0,2.7-0.1,4c-0.5,8.8,4,17.2,11.3,22.4
			c0.3,0.2,0.9-0.1,0.8-0.5c-0.1-2.6,0-5.3,0.4-7.9c1.5-7,3.1-14.3,0.8-21.4C291.6,218.1,286.4,210.7,279.8,205.2z M290,220.4
			c4.9,7.4,3.8,16.8,2.1,25c-0.1,0.4-0.6,0.3-0.6-0.1c0.6-4.5,1.4-8.9,1.2-13.4c-0.2-3.9-1-8-3-11.4
			C289.7,220.4,289.9,220.3,290,220.4z"/>
		<path class="st2" d="M277.9,209.6c-0.4-2.8-0.9-5.6-1.8-8.4c-2.1,7.7-4.8,19-7.7,25.6c-2.9,6-6.6,12.1-6.6,19
			c-0.1,4,0.7,8.1,2.3,11.8c0.2,0.6,0.4,1.2,1,1.3c0.6,0.1,0.9-0.1,1.3-0.4c3.5-4,6.3-8.6,8.5-13.4c2.6-5.9,3.9-12.3,4.2-18.8
			c0-2.4-0.1-4.7-0.2-7.1C278.5,216.1,278.2,212.8,277.9,209.6z M271.7,226.4c-0.6,1.9-1.4,3.7-2.4,5.5c-0.9,1.7-2,3.3-2.8,5.1
			c-1.1,2.2-1.8,4.7-2.1,7.1c-0.3,2.5,0,5,0,7.5c0,0.3-0.6,0.4-0.6,0.1c-0.8-2.6-0.7-5.6-0.3-8.2c0.3-2.4,1.1-4.7,2.3-6.9
			c0.9-1.7,2.1-3.3,3.1-5.1c2.1-3.9,3.4-8.2,4.2-12.6c0-0.2,0.3-0.2,0.3,0.1C273,221.5,272.5,224,271.7,226.4z"/>
		<path class="st2" d="M267,148.9c-0.2,0.9,0.6,2.1,0.8,3.1c0.5,2.4,0.2,4.7-0.6,6.8c-0.3,1-0.8,2.1-0.6,3.1
			c1.7-0.5,3.7-2.1,4.7-3.6C273.4,154.5,270.8,150.4,267,148.9z M270.7,154.4c0-0.1,0.2-0.1,0.2,0c0.4,0.7,0.2,1.6,0,2.3
			c-0.2,0.7-0.6,1.5-1.3,2c-0.2,0.2-0.4-0.1-0.2-0.2c0.2-0.3,0.5-0.6,0.6-0.9s0.3-0.6,0.5-0.9C270.7,155.8,270.6,155.1,270.7,154.4z
			"/>
		<path class="st2" d="M387.7,141.8C387.8,141.8,387.7,142,387.7,141.8c-11.9-2.4-23.6-6.5-34.6-11.6c-8.1-3.5-15.9-7.7-22.6-13.2
			c-0.5,2.6-0.2,5.5,1.3,7.6c1.7,2.3,4.7,2.8,6.8,4.9c1.2,1,2.1,2.1,3.2,3.3c1.5,1.7,2.1,3.9,3.3,5.7c1.7,2.6,5.1,4.3,8.3,3.9
			c3.1-0.4,6.6,0.2,9.2,2.1c2.1,1.4,3.8,3.3,5.8,4.7c2.8,1,6.1,0.7,9.2,0.4c3-0.3,6.1,0.1,9,0.9c1.5,0.4,2.8,1.1,4.1,1.4
			c2.7,0.6,5.5,0.4,8.3-0.2c3.6-0.7,7.5-0.7,11.1-0.1c-1.6-1.4-3-3-4.2-4.7c-2.3-3.2-3.3-7.5-7.1-9.4c-3.7-1.9-7.5-4-10.5-7
			c-3.7-3.9-7-8.3-12.2-9.9c-1.3-0.3-2.6,0-4-0.2c-4.7-0.6-7.4-4.5-10.3-7.7l0,0h-0.1c-0.5-0.4-1-0.8-1.5-1.1
			c-1.6-0.9-3.6-1.9-5.5-1.8c-2.5,0.3-5.6,2-8.5,2.1c-2.9,0.4-6.2-0.5-8.9-1.1c-2.4-0.5-4.7,0.9-5.8,3.1c-0.2,0.2-0.2,0.6-0.3,0.8
			c7.7,4.4,15.4,9.2,23.1,13.4C365,133.4,376.2,138,387.7,141.8z"/>
		<path class="st2" d="M309.2,174.3c1.7-0.4,3.2-1.1,4.3-2.1c0.4-0.4,0.8-0.8,1.3-1.1c2.3-2.4,3.5-5.8,3.1-9.2
			c-0.1-0.7,0.7-1.2,1.3-0.8c3.6,1.4,7.7,1.8,11.3,0.5c1.7-0.6,3.3-1.5,4.7-2.6c0.1-0.1,0.1-0.3-0.1-0.4c-3.5-2.5-7.7-3.9-12.1-3.8
			c-3.3-0.1-6.4,0.3-8.8,2.7C309.3,161.4,308.1,168.4,309.2,174.3z M314.6,167.5c0.9-1.7,1-3.7,1.5-5.6c0.1-0.3,0.6-0.2,0.6,0.1
			c-0.2,3.5-1.3,8.3-5.3,9.4c-0.2,0.1-0.5-0.3-0.2-0.4C312.7,170.2,313.8,168.9,314.6,167.5z"/>
		<path class="st2" d="M284.1,118.4c-5.2-0.7-10.4-0.2-15.6-0.8c-5.1-0.9-10.9-2.4-14.9-5c4.8,2,10,3.3,15.1,3.7
			c5.2,0.2,10.5-0.4,15.7,0.2c5.2,0.2,10.4,2,15.5,2.8c2,0.2,3.9,0.4,5.9,0.3c0-0.1,0.1-0.1,0.1-0.2c-0.2-0.8-2-1.7-2.9-2.2
			c-3-1.4-6.2-2.5-9.6-2.9c-1.7-0.2-3.4-0.2-5.3-0.6c-4.7-0.6-8.5-3.8-11.6-6.9c-1-0.9-2.5-1-3.9-0.9c-1.6,0.2-3.1,1.3-4.7,1.7
			c-2.8,0.7-5.8,0.7-8.6-0.4c-1.7-0.7-3-1.3-4.6-1.4c-3.6-0.4-6,1.6-9.2,3.1c-4.4,2-9.6,1.4-13.9-0.5c1.7,2.4,3.7,4.4,6,6.2
			c2.8,2.1,6.1,3.7,9.6,3.9c1.9,0.1,3.9,0.5,5.6,1.5c1.7,0.9,2.6,2.7,4.1,3.7c1.3,0.9,3,1.3,4.6,1c0.8-0.2,1.7-0.5,2.8-0.6
			c3-0.2,5.9,1.2,8.2,2.9c2.8,2,6.6,1.9,9.7,0.9c1.7-0.5,2.9-1.5,4.4-2.6c1.7-1.1,3.5-1.9,5.5-2.2c1.9-0.3,3.8,0,5.5-0.2
			c1.7-0.2,3.3-0.8,4.9-1.4c0.3-0.1,0.6-0.2,1-0.5c-1.3-0.1-2.7-0.2-4-0.4C294.3,120,289.4,118.7,284.1,118.4z"/>
		<g>
			<path class="st3" d="M269.9,156.9c-0.2,0.3-0.4,0.6-0.6,0.9c-0.2,0.2,0.1,0.4,0.2,0.2c0.6-0.5,1.1-1.3,1.3-2
				c0.2-0.7,0.3-1.7,0-2.3c-0.1-0.1-0.2-0.1-0.2,0c-0.1,0.7,0,1.4-0.2,2.1C270.2,156.3,270.2,156.6,269.9,156.9z"/>
			<path class="st3" d="M250.6,137.2c-0.1,0-0.1,0.2,0,0.2c2.1,0.6,4.3,1.4,6.2,2.7c1.8,1.3,3.3,2.8,4.7,4.7c0.1,0.1,0.2,0,0.2-0.1
				C259.4,140.6,255.1,137.7,250.6,137.2z"/>
			<path class="st3" d="M254.9,147c-5.5-2.1-11.6-2.7-17.5-1.7c-0.2,0-0.2,0.5,0.1,0.5c5.8-0.6,11.6-0.1,17.2,1.6
				C255,147.4,255.2,147.1,254.9,147z"/>
			<path class="st3" d="M244.4,160.2c-3.2-0.4-6.3-1-9.2-2.4c-1.5-0.6-3-1.5-4.3-2.4c-1.1-0.7-2.1-1.6-3.2-2.3
				c-0.2-0.1-0.3,0.1-0.2,0.2c0.9,0.9,2,1.7,3,2.4c1.4,0.9,2.9,1.7,4.5,2.3c3,1.3,6.2,2.2,9.4,2.4
				C244.5,160.5,244.6,160.2,244.4,160.2z"/>
			<path class="st3" d="M202.9,217l0.2,0.1l0.5,0.2c4.7,1.6,9.9,2.2,14.9,1.3c2.8-0.3,5.5-1.8,7.8-3.4c4-2.6,8-5.1,12-7.7
				c-7.3,7-13.3,15.4-17.9,24.3c-1.1,2.2-2.3,4.6-3.2,6.9c-0.2,0.9,0.7,1.7,1.6,1.6h0.2l0.6-0.1c2.5-0.4,5-0.9,7.4-1.6
				c6.4-1.7,12.7-5.1,16.7-10.4c-2.1,8.1-3,16.7-3.2,25v2.4c0,0.3-0.1,1,0.3,1.6c0.6,1.1,2.3,1.3,3.3,0.5c4.9-3.8,8.8-8.6,12.6-13.4
				c2.2-2.8,4.3-5.8,6.2-9c-2.6,7-3.2,13.6,0.5,22.4l0.4,0.9c0.6,1.5,2.8,2,3.8,0.6c1.7-2.1,3.4-4.2,4.9-6.4
				c3.3-4.9,5.6-10.2,7-15.8c0.2,1.3,0.3,2.6,0.6,3.9c1.6,6.2,5.7,11.3,10.7,15.2c0.6,0.5,1.3,1.1,2.1,0.8c0.6-0.2,1.2-0.9,1.1-1.6
				c0-2.6,0.2-5.1,0.6-7.7c1.8-7.2,3.5-14.6,1.3-22c-1.5-5.9-4.3-11.5-8.1-16.4c0.9,0.4,1.7,0.8,2.6,1.1c0.2,0.2,0.7,0.2,0.9,0.1
				c3.2-1.4,1.4-4.6,0.3-6.6c-1.1-2.1-2.1-4.3-2.5-6.6c-0.6-2.4,0.1-5.1-0.9-7.4c-1.5-3.8-4.5-6.7-8.1-8.5c0,0,0-0.1,0.1-0.1
				c3-10.9,7.4-21.4,13-31.3c4-7.1,8.8-13.7,14.1-20c-0.5,8.9,1.6,18,6.5,25.6c-0.2,0.1-0.3,0.2-0.4,0.3c-5.1,4.5-7.3,12-4.9,18.4
				c0.2,0.4,0.6,0.6,0.9,0.6c0.7-0.2,1.4-0.4,2.1-0.7c-5.5,6.3-9.3,14.5-8.2,22.9c0.6,3.5,1.3,7,0.9,10.6c-0.3,1.3,1.1,2.1,2.1,1.3
				l0.6-0.4c5.1-3.9,8.7-10,8.8-16.4c0.1-1.8,0.2-3.6,0.2-5.4c1.4,8.5,5.3,16.8,10.2,23.9c0.1,0.1,0.2,0.4,0.3,0.5
				c0.5,0.8,1.8,0.6,2.1-0.2c0.8-1.7,1.5-3.4,2.1-5.2c1.4-4.2,1.8-8.9,0.4-13.1c4.7,4.7,10.1,8.8,15.6,12.2c0.6,0.5,1.7,0.6,2.3-0.2
				c0.3-0.4,0.4-0.9,0.2-1.3c-0.5-1.9-1-3.8-1.7-5.7c-1.4-4.3-3.2-8.5-5.4-12.6c0.2,0.2,0.3,0.4,0.5,0.6c3.5,3.7,8.4,5.9,13.4,6.4
				c0.6,0.1,1.3,0.2,1.7-0.2c0.6-0.3,0.9-1.1,0.7-1.7c-1.4-3.9-3.3-7.3-5.8-10.5c-1.6-2.1-3.5-4-5.5-5.8c5.4,2.7,11.9,2.5,17.4,0.2
				l0.6-0.2c0.6-0.2,0.9-1.1,0.5-1.6c-0.2-0.2-0.5-0.3-0.6-0.5c-3.2-1.5-5.7-3.8-8.4-6.1c-6.2-5.1-14.6-6.4-22.5-5.1
				c0.4-0.2,0.8-0.6,1.2-0.8c0.5-0.3,0.9-0.8,0.9-1.3c0-0.6-0.6-0.9-1-1.3c-3.5-2.5-7.7-4-12.1-3.9c-2.9-0.2-6.2,0.2-8.8,1.9
				c-4.9-8.4-6.2-18.4-4.7-27.9c4.8-5.4,10.1-10.3,15.7-14.8c0.9,0.9,1.8,1.7,2.8,2.5c-1,3.7-0.6,8.1,1.6,10.9
				c0.9,1.3,2.4,2.4,3.8,3.1c2.6,1.3,4.5,3,6.2,5.1c1.3,1.6,2.1,3.7,3.2,5.5c1.8,2.7,4.9,4.4,8.1,4.8c2.2,0.2,4.3-0.6,6.5,0
				c3.6,0.6,5.8,3.4,8.6,5.5c0.6,0.5,1.7,1,2.3,1.1c3,0.7,6.2,0.4,9.1,0.1c2.8-0.3,5.6,0,8.4,0.6c2.6,0.9,5.8,2,8.8,1.7
				c3-0.2,5.7-1.2,8.6-1.3c2.4-0.2,5,0,7.5,0.4c0.3,0.1,0.6,0.2,0.9,0.2s0.6-0.2,0.8-0.2c0-0.2-0.1-0.5-0.2-0.7
				c-0.2-0.2-0.2-0.2-0.3-0.3l-0.4-0.3c-1.7-1.6-3.3-3.4-4.6-5.3c-2.2-3.6-3.4-8.1-7.3-10.2c-3.6-2-7.1-4-10-7
				c-3.2-3.6-6.6-7.6-10.9-9.9c-1.9-1.1-4.3-1-6.5-1.1c-4-0.5-7-5.2-9-7.2c-1.8-1.5-3.9-2.7-6.2-3.2c-3.9-1.2-7.3,1.7-11.1,1.7
				c-4.4,0.7-9.1-2.8-13.3-0.3c-1.7,0.9-3,2.5-3.8,4.3c-0.8-0.5-1.6-0.9-2.4-1.3c13.3-10.7,28.5-18.6,44.7-23.5
				c3.7-1.3,1.9-6.6-1.8-5.5c-21.7,7-41.3,19.6-57,35.9c-1.3,0.2-2.6,0.5-3.9,0.6c-0.2-3.7-6.4-5.4-9.3-6.6
				c-4.8-2-10.4-0.8-14.9-3.5c-2.4-1.2-3.8-3.1-5.9-4.7c-2.4-1.9-6.3-1.9-8.9-0.5c-2.8,1.4-6.1,1.9-9.1,0.8
				c-1.6-0.6-3.6-1.5-5.5-1.4c-3.8-0.4-7.3,2.1-10.2,3.7c-4.6,2.2-9.9,1.4-14.5-0.6c-0.6-0.2-1.1,0.4-0.7,0.9
				c1.9,3.2,4.3,6.1,7.3,8.4c1.5,1.2,3.1,2.2,4.8,2.9c3.2,1.8,7.3,0.9,10.4,2.8c1.6,0.9,2.4,2.6,3.9,3.7c1.7,1.2,3.9,1.7,5.9,1.3
				c2.6-0.7,5.1-0.6,7.3,0.8c1.5,0.9,3.1,2.4,4.9,2.9c4.7,1.5,10.1,0.3,13.8-2.8c3.1-2.2,6.5-1.8,10-2c2.1-0.2,3.9-0.8,5.6-1.5
				c1.5-0.6,3.4-1.4,4.3-2.8c0.9-0.1,1.7-0.2,2.6-0.3c-9.8,10.5-17.9,22.5-23.9,35.5c-2,0.9-4.3,1.6-6.6,1.6
				c-2.2,0.1-4.5-0.4-6.6-1.3c1.1-3.8-1.3-7.3-5.5-8.8c-0.5-0.2-1-0.2-1.4,0c-1.1-3-3-5.8-5.5-7.9c-7-6.4-17.9-6.4-25.9-2.1
				c-4,2.1-7.7,4.9-10.7,8.2c-0.6,0.6-1.1,1.3-1.7,1.9c-0.4,0.3-0.3,0.9,0,1.3c0.2,0.2,0.9,0.3,1.1,0c0-0.1,0.3-0.2,0.3-0.2
				c4.7-3.6,10.3-6.5,16.4-7c4.6-0.4,9.9-0.1,13.6,2.8c-4.8-1.2-9.9-1.7-14.7-0.8c-5.8,1-11.7,2.8-16.7,5.9
				c-0.1,0.1-0.2,0.1-0.2,0.3c0.2,0.4,0.4,0.7,0.8,0.9c-0.2-0.1-0.6,0.2-0.6,0.6c0,0.2,0.5,0.6,0.6,0.7c7.8,6.8,18.6,11.8,29.1,10.5
				c-7,3.3-15.7,0.3-21.8-3.9c-2.5-1.8-4.8-4-7.3-6.1c-0.2-0.1-0.4-0.1-0.6-0.1c-0.6,0.3-0.2,0.8-0.1,1.3c1.8,3.9,4.5,7.6,7.7,10.5
				c6.6,6.2,16.9,9.1,25.5,5.5c3.7-1.6,7.1-4.3,9.2-7.7c0.1,0.4,0.2,0.7,0.6,0.9c0.6,0.3,1.4,0,1.9-0.2c1.7-0.9,3.2-2.3,4.3-3.9
				c0.3-0.5,0.6-0.9,0.8-1.4c3.7,2,8.1,2.5,12.2,1.6c-3.1,7-5.5,14.1-7.3,21.5c-0.5-0.2-1-0.4-1.5-0.6c-2.5-1.2-5.5-0.4-7.9,0.3
				c-2.4,0.6-4.7,1.3-7.2,1.8c-3.6,1-7.5,0.9-10.9,2.8c-2.2,1.7-0.9,3.6,1.2,5.1c-5.5-0.8-11.2-0.6-16.7,0.6
				c-8.5,1.8-16,6.6-21.5,13.2c-3.2,4.2-7,7.7-11.3,10.7C201.4,215,201.6,216.6,202.9,217z M314.6,191.8c-0.2,6.5-4,12.4-9.2,16.1
				c-0.1,0-0.1,0-0.1-0.1c0.2-1.9,0.2-3.9-0.1-5.8c-1-5.2-1.8-10.6,0.1-15.6c1.7-5.5,5.1-10.3,9.2-14.3c0.2-0.2,0.6-0.5,0.8-0.7
				c0.2-0.2,0.5-0.5,0.7-0.7c0.1-0.1,0.3-0.2,0.4-0.3h0.1c-0.1,0.8-0.2,1.5-0.4,2.2c-0.6,2.8-0.8,5.6-0.6,8.5
				C315,184.5,314.7,188.1,314.6,191.8z M318.9,161.6L318.9,161.6L318.9,161.6L318.9,161.6z M327.4,210.2l-0.1-0.2
				c-7.7-11.2-13-25.2-9.6-38.8c0.2-0.9,0.2-1.8,0.3-2.8c0.5,1.7,1,3.7,1.7,5.6c0,0.1,0.1,0.2,0.1,0.2c0.5,1.5,0.9,3,1.5,4.3
				c1.5,3.7,4,7,6.4,10.1c2.4,3,3.2,7,2.9,10.7C330.2,203.1,328.9,206.8,327.4,210.2z M347.8,203.2c0.1,0.4-0.2,0.6-0.8,0.2
				l-1.4-0.9c-9.8-6.2-19.4-15.1-23.8-25.9c-0.5-1.3-0.9-2.7-1.3-4.1c-0.1-0.2-0.2-0.7-0.3-1.2c-0.6-2.7-0.9-5.5-0.8-8.5
				c0.2-0.6,0.5-0.2,0.9,0.1c0.7,0.4,1.3,0.9,2,1.3c3,2.8,7.7,6.7,11.2,10.2C340.5,182.8,345.2,192.9,347.8,203.2z M357.5,189.9
				c0.2,0.5-0.3,0.9-0.8,0.9c-5.1-0.4-10.1-2.5-13.5-6.3c-1.9-2.1-3.6-4.7-5.3-7c-0.9-1.2-2.1-2.5-3.5-3.9c-2.2-2.6-4.6-5-7.2-7.2
				c-0.6-0.5-1.2-0.9-1.7-1.4c-0.4-0.4-0.8-0.7-1.2-1.1c2,0.5,3.9,1.1,5.8,1.7c3,1.3,6,2.5,9,3.9c1.4,0.8,2.8,1.6,4.1,2.4
				C349.8,176.3,354.8,182.7,357.5,189.9z M356.1,165.9c2.6,2.2,5.3,4.7,8.5,6.1c0.1,0.1,0.4,0.2,0.4,0.2c0.2,0.2,0.1,0.5-0.2,0.6
				c-2.6,1-5.3,1.7-8.1,1.8c-3.5,0.2-6.7-0.9-9.7-2.5c-5.9-3.3-12-6.5-18.2-9.1c0.2-0.1,0.3-0.2,0.4-0.2
				C337.9,159.8,348.6,160,356.1,165.9z M323,154.2c4.3-0.2,8.5,1.3,12.1,3.8c0.2,0.1,0.2,0.3,0.1,0.4c-1.4,1.1-3,2.1-4.7,2.6
				c-3.6,1.3-7.7,0.9-11.3-0.5c-0.6-0.4-1.4,0.2-1.3,0.8c0.4,3.4-0.8,6.8-3.1,9.2c-0.4,0.4-0.8,0.7-1.3,1.1c-1.3,1-2.8,1.7-4.3,2.1
				c-1.1-5.9,0.2-12.9,5.1-16.9C316.6,154.5,319.7,154.1,323,154.2z M331.5,112.9c1.1-2.2,3.5-3.6,5.8-3.1c2.7,0.6,6,1.5,8.9,1.1
				c2.8,0,5.9-1.7,8.5-2.1c1.7-0.1,3.9,0.8,5.5,1.8c0.6,0.3,1,0.7,1.5,1.1h0.1l0,0c2.8,3.2,5.6,7,10.3,7.7c1.4,0.2,2.7-0.1,4,0.2
				c5.1,1.6,8.5,6.1,12.2,9.9c3,3,6.8,5.1,10.5,7c3.8,1.9,4.8,6.2,7.1,9.4c1.2,1.7,2.6,3.3,4.2,4.7c-3.7-0.6-7.5-0.6-11.1,0.1
				c-2.8,0.6-5.6,0.9-8.3,0.2c-1.3-0.3-2.6-1-4.1-1.4c-2.9-0.8-5.9-1.1-9-0.9c-3.1,0.3-6.2,0.7-9.2-0.4c-2.1-1.4-3.7-3.3-5.8-4.7
				c-2.6-1.8-6-2.5-9.2-2.1c-3.2,0.5-6.5-1.3-8.3-3.9c-1.2-1.8-1.8-3.9-3.3-5.7c-1-1.2-2-2.3-3.2-3.3c-2.1-2-5.2-2.6-6.8-4.9
				c-1.6-2.1-1.8-4.9-1.3-7.6c6.8,5.6,14.6,9.7,22.6,13.2c11.1,5.2,22.7,9.2,34.6,11.7c0.1,0,0.1-0.1,0-0.1
				c-11.5-3.9-22.7-8.5-33.4-14.1c-7.7-4.3-15.3-9.1-23.1-13.4C331.2,113.5,331.3,113.2,331.5,112.9z M302.4,121.1
				c-1.7,0.6-3.3,1.3-4.9,1.4c-1.8,0.2-3.6-0.1-5.5,0.2c-2,0.4-3.9,1.1-5.5,2.2c-1.5,1.1-2.7,2.1-4.4,2.6c-3.2,0.9-7,1-9.7-0.9
				c-2.3-1.7-5.1-3.2-8.2-2.9c-1,0.1-2,0.4-2.8,0.6c-1.6,0.3-3.3-0.2-4.6-1c-1.4-0.9-2.4-2.8-4.1-3.7c-1.7-0.9-3.7-1.4-5.6-1.4
				c-3.6-0.2-6.9-1.7-9.6-3.9c-2.3-1.7-4.3-3.9-6-6.2c4.3,1.8,9.5,2.4,13.9,0.5c3.2-1.6,5.6-3.5,9.2-3.1c1.6,0.1,2.8,0.7,4.6,1.4
				c2.8,1.1,5.8,1.1,8.6,0.4c1.7-0.4,3.2-1.4,4.7-1.7c1.3-0.2,2.8,0.1,3.9,0.9c3.2,3.2,7,6.3,11.6,6.9c1.9,0.3,3.6,0.3,5.3,0.6
				c3.3,0.4,6.5,1.5,9.6,2.9c0.9,0.4,2.7,1.4,2.9,2.2c0,0.1-0.1,0.1-0.1,0.2c-2,0.1-3.9,0-5.9-0.3c-5.1-0.9-10.3-2.6-15.5-2.8
				c-5.2-0.6-10.5,0-15.7-0.2c-5.1-0.4-10.3-1.7-15.1-3.7c4,2.6,9.9,4.1,14.9,5c5.2,0.6,10.5,0.1,15.6,0.8
				c5.3,0.3,10.2,1.6,15.4,2.5c1.3,0.2,2.7,0.3,4,0.4C303.1,120.9,302.7,121.1,302.4,121.1z M255.4,168.1
				c-8.1,3.4-17.9,0.7-24.2-5.1c-3.1-2.5-5.5-5.8-7.5-9.2c3.2,2.8,6.3,5.8,10.2,7.8c7,4,16.7,5,23.1-0.8c0.6-0.5-0.1-1.5-0.8-1.1
				c-2.8,1.3-5.7,2.1-8.8,1.9c-8.8-0.3-17.4-4.4-24-10.1c0,0-0.2-0.2-0.2-0.2c6.4,1.3,12.7,2.9,19.1,4.1c4.9,0.7,9.8,0.1,14.5-1.3
				c0.8-0.2,0.8-1.3,0-1.5c-7-2.3-14.5-4.3-21.9-3.6c-3.6,0.4-7.2,1.8-10.8,1.5c-0.5-0.1-1-0.2-1.3-0.6c0,0,0,0,0-0.1l0,0
				c5.1-2.9,10.7-4.7,16.5-5.5c5.8-0.9,11.7,0.2,17.1,2.4c0.3,0.1,0.6,0.1,0.9-0.2c0.3-0.3,0.4-0.8,0.1-1.1
				c-5.1-6.2-14.4-5.9-21.6-4.3c-3.6,0.9-7.5,3-10.6,5.1c0.9-1,2-2,3-2.9c6.5-5.5,15.6-9.3,24.1-6.8c8.4,2.1,14.5,10.8,13.4,19.3
				C265,161.3,260.5,165.9,255.4,168.1z M225.1,150.9c3.2,0.1,8.2-1.4,10-1.4c6.6-0.6,13.1,1.2,19.2,3.6c-1.7,0.6-3.5,0.9-5.3,1.1
				c-4.3,0.7-8.7-0.1-12.9-1C232.4,152.3,228.7,151.6,225.1,150.9z M271.1,157.8c-0.9,1.5-2.9,3.1-4.7,3.6c-0.2-0.9,0.3-2.1,0.6-3.1
				c0.7-2.2,1-4.5,0.6-6.8c-0.2-1.1-1-2.3-0.8-3.1C270.7,149.8,273.3,153.9,271.1,157.8z M234.3,234.3c-4.7,2.5-9.9,3.9-15.1,4.7
				l-0.6,0.1h-0.2l0,0c-0.2,0-0.2-0.2-0.2-0.2c0,0,0.1-0.2,0.2-0.4c7.9-17.9,21.2-34.9,40.5-41.4c0.6-0.2,1.2-0.5,1.7-0.8
				c-2.8,3.4-5.8,6.7-8.2,10.3c-3.3,4.7-5.5,10.2-7.3,15.6C243.3,227.4,239.3,231.6,234.3,234.3z M248.4,250c-1,1.1-3.9,4.2-4.9,5.4
				l-0.8,0.9c-0.5,0.6-1.3,0.2-1.1-0.9c0.3-18.2,4.3-37.4,16.2-51.6c4-4.9,9.2-8.7,14.5-12.1c0.2-0.2,0.6,0,0.6,0.2c0,0,0,0.5,0,0.9
				l-0.1,1.2C272.3,215.1,262.5,234.7,248.4,250z M274.7,244.6c-2.1,4.9-5,9.4-8.5,13.4c-0.3,0.3-0.7,0.5-1.3,0.4
				c-0.6-0.2-0.8-0.8-1-1.3c-1.5-3.7-2.4-7.8-2.3-11.8c0-6.9,3.7-13,6.6-19c2.9-6.6,5.6-17.9,7.7-25.6c0.9,2.7,1.3,5.5,1.8,8.4
				c0.3,3.2,0.6,6.4,0.8,9.6c0.2,2.4,0.2,4.7,0.2,7.1C278.5,232.3,277.3,238.6,274.7,244.6z M293.9,226c2.3,7.1,0.7,14.3-0.8,21.4
				c-0.4,2.6-0.5,5.3-0.4,7.9c0.1,0.4-0.5,0.7-0.8,0.5c-7.3-5.1-11.8-13.5-11.3-22.4c0-1.3,0-2.7,0.1-4c0.9-7.1,0.5-14.5-0.6-21.6
				c-0.1-1-0.2-2.1-0.2-3.1C286.4,210.2,291.6,217.5,293.9,226z M253.7,189.5c-1.4-0.8-5.1-2.8-2.8-4.4c3.2-1.7,7.1-1.5,10.7-2.1
				c2.4-0.3,5-0.8,7.3-1.3c2.3-0.5,4.5-0.9,6.7-0.2c4.2,1.6,7.8,5.2,9.6,9.2c0.8,2,0.5,4.9,1.3,7c0.9,3.6,3.7,6.6,4.8,9.9
				c0.2,0.6-0.3,1.1-0.7,1.3c-8.1-3.2-13.5-10.8-15.2-19c-0.2-1.3-1.8-1.9-2.8-1.1l-0.4,0.2c-3.8,2.4-8.5,3.2-13,2.4
				c-1.1-0.5-2.3-0.8-3.1-1c-0.5-0.1-0.9-0.2-1.4-0.3C254.4,189.9,254,189.7,253.7,189.5z M203.2,214.9c1.9-1.3,3.9-2.8,5.7-4.4
				c2.1-1.8,3.9-4,5.8-6.1c5.4-6.2,12.6-10.6,20.7-12.2c5.4-1.2,10.9-1.3,16.3-0.5c2.4,0.4,5.7,0.9,7.5,2.1
				c-1.6,0.8-3.6,1.4-5.4,2.1c-5.2,2.4-9.6,5.8-14.4,8.8c-4.7,3.1-9.2,6.2-13.8,9.3c-4.3,3.4-10.1,4.2-15.5,3.4
				c-2.3-0.3-4.7-0.9-6.8-1.7C203,215.6,203,215.1,203.2,214.9z"/>
			<path class="st3" d="M219.1,203.8c2.7-2.2,5.4-4.4,8.5-6.1c3.9-2.1,8.3-3.6,12.8-4.3c1.7-0.2,3.6-0.2,5.3-0.6
				c0.1,0,0.1-0.2,0-0.2c-1.5-0.4-3.2-0.2-4.7-0.1c-2.1,0.2-4.2,0.5-6.2,1c-4.4,1.2-8.7,3.2-12.3,5.9c-1.4,1-2.8,2.2-3.9,3.6
				C218.1,203.4,218.7,204.1,219.1,203.8z"/>
			<path class="st3" d="M251.8,202.6c-4.6,1.7-8.5,4.7-12.1,7.9c-3.6,3.3-6.8,7.1-9.6,11.1c-1.7,2.2-3.1,4.5-4.4,7
				c-0.2,0.2,0.2,0.5,0.4,0.2c2.8-3.9,5.5-8,8.5-11.7s6.6-7.2,10.5-10c2.2-1.6,4.5-2.9,6.9-4.3C252,202.7,251.8,202.6,251.8,202.6z"
				/>
			<path class="st3" d="M263.8,189.9c0.3-0.1,0.2-0.6-0.2-0.5c-2,0.2-3.9,0.4-5.9,0c-1-0.2-2-0.6-2.8-0.9c-0.9-0.4-1.7-1-2.5-1.4
				c-0.1-0.1-0.2,0.1-0.1,0.2c0.6,0.7,1.6,1.2,2.4,1.6c0.9,0.5,2,0.8,3,1C259.7,190.3,261.9,190.5,263.8,189.9z"/>
			<path class="st3" d="M270.1,195.6c-3.8,2.4-7.2,5.4-10.2,8.7c-3.6,3.9-6.2,8.5-8.4,13.3c-1.3,3-2.4,6-3.3,9.1
				c-0.1,0.2,0.2,0.3,0.3,0.2c1.9-5,4.1-10,6.8-14.6c2.6-4.6,6.2-8.5,10-12c1.6-1.5,3.2-2.9,4.9-4.3
				C270.3,195.8,270.2,195.5,270.1,195.6z"/>
			<path class="st3" d="M262,226.8c-2.6,4.2-5.3,8.3-8.1,12.3c-1.5,2.1-3,4.3-4.6,6.3c-1.5,2-3,3.8-4.4,5.8
				c-0.3,0.4,0.2,0.8,0.6,0.5c1.7-1.7,3.2-3.7,4.7-5.7c1.6-2.1,3.2-4.3,4.7-6.5c2.8-4,5.2-8.2,7.5-12.6
				C262.4,226.8,262.1,226.7,262,226.8z"/>
			<path class="st3" d="M272.9,218.3c-0.8,4.3-2.1,8.7-4.2,12.6c-0.9,1.7-2.1,3.3-3.1,5.1c-1.2,2.1-1.9,4.4-2.3,6.9
				c-0.4,2.7-0.6,5.7,0.3,8.2c0.1,0.3,0.6,0.2,0.6-0.1c0-2.5-0.3-5,0-7.5c0.3-2.4,0.9-4.9,2.1-7.1c0.9-1.7,2-3.3,2.8-5.1
				c0.9-1.7,1.7-3.6,2.4-5.5c0.8-2.4,1.3-4.9,1.7-7.5C273.2,218.1,272.9,218.1,272.9,218.3z"/>
			<path class="st3" d="M322.1,170.7c-0.1-0.1-0.2-0.1-0.2,0.1c2.1,7.7,6.6,14.8,12.2,20.4c1.3,1.3,2.8,2.6,4.3,3.7
				c0.3,0.2,0.7-0.2,0.4-0.6c-3.6-3.1-7-6.5-9.8-10.3C326.1,179.9,323.9,175.4,322.1,170.7z"/>
			<path class="st3" d="M311.8,177.2c-1.1,0.9-1.8,2.1-2.5,3.3c-0.8,1.3-1.4,2.7-2,4.1c-1.1,2.7-1.7,5.5-2.5,8.3
				c0,0.1,0.1,0.1,0.1,0c0.8-2.7,1.9-5.4,3-7.9c0.6-1.3,1.2-2.5,1.9-3.7c0.8-1.3,1.7-2.4,2.4-3.7C312.3,177.3,312,177.1,311.8,177.2
				z"/>
			<path class="st3" d="M326.6,190.6c1.1,2.4,1.6,4.9,1.5,7.6c-0.1,2.8-0.7,5.5-1.3,8.3c0,0.2,0.2,0.2,0.2,0
				c0.8-2.8,1.5-5.8,1.5-8.8c0-2.4-0.4-5.1-1.7-7.3C326.7,190.3,326.5,190.4,326.6,190.6z"/>
			<path class="st3" d="M338,175.4c2.1,3.2,4.3,6.3,7.3,8.9c2.5,2.3,5.9,4.7,9.5,5c0.2,0,0.4-0.4,0.2-0.5c-1.7-0.6-3.3-1.1-4.9-2
				c-1.6-0.9-3.1-2-4.3-3.2c-2.8-2.5-5-5.6-7.3-8.5C338.2,174.9,337.9,175.2,338,175.4z"/>
			<path class="st3" d="M348.5,164.3c1.5,0.6,2.9,1.3,4.3,2.1c1.3,0.9,2.5,2.1,3.9,2.9c0.2,0.2,0.5-0.1,0.3-0.3
				c-0.9-1.3-2.4-2.4-3.9-3.2c-1.4-0.9-2.9-1.6-4.4-2.1c-3.2-1.1-6.5-1.4-9.8-1c-0.1,0-0.1,0.2,0,0.2
				C342.1,162.6,345.4,163.2,348.5,164.3z"/>
			<path class="st3" d="M311.1,170.3c-0.2,0.2-0.1,0.5,0.2,0.4c3.9-1.1,5.1-5.9,5.3-9.4c0-0.3-0.5-0.4-0.6-0.1
				c-0.5,1.9-0.6,3.9-1.5,5.6C313.8,168.4,312.6,169.6,311.1,170.3z"/>
			<path class="st3" d="M284.1,192.4c0.1,1.2-0.1,2.4,0.4,3.6c0.1,0.2,0.4,0.2,0.4-0.1c-0.1-0.6-0.2-1.3-0.2-2
				c0-0.6-0.1-1.3-0.2-1.8c-0.2-1-0.6-2-1.5-2.6c-0.1-0.1-0.2,0.1-0.1,0.2C283.7,190.3,284,191.4,284.1,192.4z"/>
			<path class="st3" d="M292.6,231.4c0.2,4.5-0.6,9-1.2,13.4c-0.1,0.4,0.6,0.5,0.6,0.1c1.7-8.2,2.8-17.7-2.1-25
				c-0.1-0.2-0.3,0-0.2,0.2C291.6,223.4,292.4,227.5,292.6,231.4z"/>
		</g>
	</g>
	<g class="st1">
		<path class="st2" d="M61.2,292.4c3.2,0.7,6.5,0.7,9.8,0.5c0.5,0,1.1-0.1,1.7-0.1c-0.4,0.3-0.9,0.6-1.2,0.8c-9,6-20.6,6.3-30.9,4.1
			l-0.5-0.1c0,0,0,0,0-0.1l0,0c2.2-2.2,4.6-4.2,7.3-5.5c2.8-1.3,6.1-1.8,9.1-0.9C58.1,291.6,59.6,292.1,61.2,292.4z M47.2,297.6
			c-0.2,0-0.2,0.3,0,0.4c3.6,0.4,7.2,0.4,10.7-0.1c1.7-0.2,3.4-0.6,5.2-1.1c1.6-0.5,3.3-1.1,4.7-2.1c0.1-0.1,0-0.2-0.1-0.2
			c-1.6,0.7-3.2,1.4-5,1.9c-1.6,0.5-3.3,0.8-5,1C54.3,297.7,50.8,297.6,47.2,297.6z"/>
		<path class="st2" d="M71.4,284c2.9,1.2,5.6,2.7,8.1,4.4c0,0,0,0.1,0,0.1c-3.3,1.2-6.7,2.4-10.3,2.5c-10.4,0.8-20.5-3.7-29-9.6
			c-0.3-0.2-0.4-0.3-0.3-0.5c0.1-0.1,0.1,0,0.2,0l0.7,0c3.1-0.2,6.3-0.7,9.5-0.7C57.4,280,64.7,281.2,71.4,284z M60,281.7
			c-2.8-0.4-5.6-0.7-8.4-0.8c-1.4,0-3-0.1-4.4,0c-1.4,0-2.8,0-4.2,0.2c-0.3,0-0.2,0.5,0,0.5c1.4,0.1,2.8,0,4.2-0.1
			c1.4,0,2.9,0,4.4,0c2.8,0.1,5.5,0.2,8.3,0.4C60.1,281.9,60.1,281.7,60,281.7z M55.6,288c-0.1,0-0.2,0.2-0.1,0.2
			c1.7,0.6,3.4,1.2,5.1,1.5c2.9,0.6,5.8,1,8.8,0.6c2.6-0.2,5.2-0.8,7.6-1.8c0.1,0,0-0.2-0.1-0.2c-1.3,0.3-2.5,0.6-3.7,0.8
			c-2.9,0.5-5.8,0.8-8.8,0.5C61.4,289.3,58.4,288.7,55.6,288z"/>
		<path class="st2" d="M75.8,280.8c-0.3-0.3-0.6-0.4-0.9-0.7c-3.1-3-6.5-5.7-10.2-7.8c-0.5-0.4-1-0.7-1.6-1.1
			c-2.3-1.5-4.1-3.5-5.2-6c-0.8-1.9-1.3-3.9-1.3-5.9l0-0.5c0-0.2,0.3-0.3,0.4-0.2c2.2,1.9,4.9,3,7.5,4.2
			C71.3,266.1,75.1,273.5,75.8,280.8L75.8,280.8z M72.3,271.5c-1.8-4.7-6.5-7.3-10.9-9.3c-0.2-0.1-0.4,0.3-0.2,0.4
			c2.1,1.2,4.4,2.2,6.3,3.7c1.9,1.4,3.5,3.2,4.5,5.3C72.2,271.7,72.4,271.6,72.3,271.5z"/>
		<path class="st2" d="M71.6,296c0.8-0.5,1.7-1.1,2.5-1.6c-0.1,0.5-0.3,1.1-0.5,1.7c-2,4.9-5.5,9.2-10.2,11.9
			c-2.6,1.5-5.6,2.3-8.7,2.6c-2.8,0.2-5.6,0.6-8.2,1.6c-0.5,0.2-0.5,0.2-0.7,0.1c0,0-0.1-0.1-0.1-0.2c0,0,0.1-0.3,0.1-0.4
			c0.9-3.2,2.9-6.4,5.7-8.2c3.5-1.5,7.3-2.6,11-4C65.4,298.5,69.1,297.4,71.6,296z M60.1,307.8c-1.2,0.4-2.4,0.7-3.6,1.1
			c-0.3,0.1-0.3,0.7,0.1,0.7c3-0.2,6-1.5,8.4-3.2c1.3-0.9,2.4-2,3.5-3.1c0.7-0.7,1.5-1.6,1.8-2.6c0,0,0-0.1-0.1-0.1
			c-0.4,0.3-0.7,0.7-1,1.1c-0.4,0.4-0.8,0.9-1.3,1.3c-1.1,1-2.2,1.9-3.4,2.7C63.2,306.6,61.7,307.3,60.1,307.8z"/>
		<path class="st2" d="M73,280.5c1.1,1,2.1,2.1,3,3.3c-4.2-1.6-9.9-3.9-13.7-4.7c-2.2-0.4-4.7-0.7-6.8-1.3c-3.8-1.1-7-3.8-9-7.3
			c-0.1-0.3,0.3-0.7,0.5-0.7l0.2,0l0.2,0c6.7-0.5,13.2,1.5,18.7,5.1C68.4,276.7,70.7,278.5,73,280.5z M58.1,276.8
			c-1.6-0.2-3.1-0.6-4.5-1.3c-0.7-0.4-1.4-0.8-2-1.3c-0.7-0.5-1.2-1-1.9-1.5c-0.2-0.1-0.5,0.1-0.3,0.3c0.9,1.3,2.4,2.3,3.8,3
			c1.4,0.7,2.8,1.1,4.3,1.3c1.6,0.2,3.1,0.2,4.7,0.5c1.9,0.4,3.6,1.1,5.3,1.9c0.1,0,0.2-0.1,0.1-0.2
			C64.6,277.9,61.4,277.2,58.1,276.8z"/>
		<path class="st2" d="M79.9,296.6c-1.4,1.4-2.6,3.2-4.4,4.2c-0.3,0.1-0.5,0.1-0.7-0.1c-0.2-0.1-0.3-0.5-0.3-0.7
			c-0.1-0.8,0-1.6,0.2-2.4c0.3-0.8,0.7-1.8,0.9-2.7c1.1-2.2,3-4.1,5.3-5l0.2-0.1c0.8-0.2,1.1-1.3,0.5-1.9c-3.2-3.5-5-8.3-3.8-13
			c0,0,0.1,0,0.2,0c0.3-0.1,0.3,0,0.5,0.2c0.3,0.4,0.6,1,0.9,1.6c0.5,1.3,1.1,2.6,2,3.8c0.6,1.1,2.1,2,2.8,2.9
			c1.2,2,1.8,4.9,1.1,7.2C84.1,293.1,81.6,294.5,79.9,296.6z M77.5,293.3c-0.9,0.7-1.5,1.8-2,2.8c-0.2,0.5-0.4,1.1-0.5,1.6
			c-0.1,0.5-0.2,1.1-0.1,1.7c0,0.1,0.1,0.1,0.1,0c0.1-0.5,0.1-1.1,0.2-1.6s0.3-1.1,0.5-1.6c0.5-1.1,1.2-1.9,1.9-2.7
			C77.9,293.4,77.7,293.1,77.5,293.3z M82.8,283.2c0.5,0.4,1,0.9,1.1,1.6c0,0.1,0.1,0,0.2,0c0-0.7-0.3-1.3-0.8-1.7
			c-0.5-0.4-1-0.8-1.5-1.3c-0.1-0.1-0.3,0-0.2,0.2C81.8,282.5,82.3,282.8,82.8,283.2z"/>
		<g>
			<path class="st3" d="M74.4,275.2c-0.3,1.5-1.6,2.7-2.7,3.5c-1.1,0.9-2.2,1.7-3.2,2.6c-1.7,1.3-2.9,3.1-4.9,4
				c-1.4,0.4-1.9-0.6-2-1.8c-2.2,4-5.5,7.6-9.6,9.8c-3.5,2-7.6,2.6-11.6,2.8c-2.2,0.2-4.2,0.7-6.4,1.3c-0.8,0-1.5-0.7-1.3-1.5
				c0,0,0.1-0.4,0.1-0.4c0.8-2.7,2.3-5.2,4.3-7.1c1.1-1.2,2.7-1.9,4.2-2.4c2.2-0.8,4.3-1.7,6.4-2.5c-3.7,0.6-7.4,0.7-11.2,0.4
				c-2.8-0.2-5.6-0.6-8.4-1.2c-0.2-0.1-0.4-0.1-0.7-0.2c-0.5-0.2-0.6-0.9-0.2-1.3l0,0l0.2-0.2c3.4-3.5,8-6.6,13-7
				c-4.7-1.9-9.1-4.6-13.1-7.4c-1.1-0.5-1-2.2,0.3-2.5c3.4-1,6.9-1.2,10.4-1.3c1.7,0,3.3,0,5,0.1c-3.8-1.3-6.8-3.4-9.4-7.8
				c-0.5-0.9,0-2,1-2.1l0.2,0l0.3,0c1.4-0.1,2.8-0.1,4.1-0.1c3.1,0.1,6.1,0.8,9,1.8c-2.9-2.8-4.5-6.9-4.6-11.1l0-0.5
				c0-0.6,0.6-1,1.2-0.9c0.2,0,0.4,0.2,0.6,0.3c2.2,1.7,4.8,2.7,7.3,3.7c5.7,2.5,9.7,7.8,11.5,13.6c0.1-0.4,0.2-0.7,0.3-1
				c0.3-0.7,1.2-0.8,1.8-0.7c1,0.4,1.4,1.6,1.8,2.3c0.6,1.3,1.4,2.3,2.2,3.3c0.9,1.1,2.4,1.6,3.2,2.9
				C75.4,269,75.3,272.3,74.4,275.2z M39.5,287.6c-2.9,1.7-4.8,4.9-5.7,8.2c0,0.1-0.1,0.4-0.1,0.5c0,0,0,0.1,0.1,0.2
				c0.2,0.1,0.2,0.1,0.7-0.1c2.6-0.9,5.4-1.4,8.2-1.6c3.1-0.3,6-1.1,8.7-2.6c4.6-2.8,8.1-7.1,10.1-12c0.2-0.6,0.4-1.2,0.5-1.7
				c-0.8,0.5-1.7,1.1-2.5,1.6c-2.5,1.4-6.2,2.6-8.8,3.6C46.9,285,43.1,286.1,39.5,287.6z M35.3,276.1c-2.8,1.3-5.2,3.3-7.3,5.5l0,0
				l0,0.1l0.5,0.1c10.3,2.2,21.9,1.8,30.9-4.1c0.3-0.2,0.8-0.5,1.2-0.8c-0.7,0.1-1.3,0.1-1.7,0.1c-3.2,0.2-6.6,0.2-9.8-0.5
				c-1.6-0.3-3.2-0.9-4.7-1.2C41.4,274.3,38.1,274.8,35.3,276.1z M38.1,264.2c-3.2,0-6.3,0.5-9.5,0.7l-0.7,0c-0.1,0-0.2,0-0.2,0
				c-0.1,0.2-0.1,0.3,0.3,0.5c8.4,5.8,18.5,10.3,29,9.6c3.5-0.2,6.9-1.4,10.3-2.5c0.1,0,0.1-0.2,0-0.1c-2.5-1.8-5.3-3.3-8.1-4.4
				C52.5,265.2,45.3,264.1,38.1,264.2z M35.2,253.8l-0.3,0l-0.2,0c-0.3,0.1-0.7,0.3-0.5,0.7c2,3.4,5.2,6.2,9,7.3
				c2.1,0.6,4.6,0.9,6.8,1.3c3.8,0.8,9.5,3.1,13.7,4.7c-1-1.2-2-2.2-3-3.3c-2.2-1.9-4.6-3.9-6.9-5.7
				C48.3,255.4,41.9,253.3,35.2,253.8z M52.2,246.9c-2.6-1.2-5.3-2.3-7.5-4.2c-0.1-0.1-0.4,0-0.4,0.2l0.1,0.5
				c0.1,2.1,0.6,4.1,1.3,5.9c1.1,2.5,2.9,4.4,5.2,6c0.6,0.4,1,0.7,1.6,1.1c3.8,2.1,7.2,4.8,10.2,7.8c0.3,0.3,0.6,0.4,0.9,0.7l0-0.1
				C62.9,257.6,59.1,250.2,52.2,246.9z M71.8,267.6c-0.6-0.9-2.1-1.8-2.8-2.9c-0.9-1.2-1.5-2.5-2-3.8c-0.3-0.6-0.5-1.3-0.9-1.6
				C66,259,66,259,65.6,259c-0.1,0-0.1,0-0.2,0c-1.2,4.7,0.7,9.5,3.8,13c0.7,0.6,0.3,1.7-0.5,1.9l-0.2,0.1c-2.3,0.9-4.2,2.7-5.3,5
				c-0.1,0.9-0.6,1.9-0.9,2.7c-0.1,0.8-0.2,1.6-0.2,2.4c0.1,0.3,0.1,0.6,0.3,0.7c0.2,0.1,0.5,0.1,0.7,0.1c1.8-0.9,3-2.8,4.4-4.2
				c1.7-2,4.1-3.4,5.3-5.8C73.6,272.4,73.1,269.6,71.8,267.6z"/>
			<path class="st3" d="M57,285.7c0.3-0.4,0.6-0.7,1-1.1c0,0,0.1,0,0.1,0.1c-0.3,1-1.2,1.8-1.8,2.6c-1.1,1.2-2.2,2.2-3.5,3.1
				c-2.4,1.7-5.4,3-8.4,3.2c-0.4,0-0.4-0.6-0.1-0.7c1.2-0.3,2.4-0.6,3.6-1.1c1.6-0.6,3-1.3,4.4-2.2c1.2-0.8,2.4-1.7,3.4-2.7
				C56.3,286.5,56.7,286.1,57,285.7z"/>
			<path class="st3" d="M55.5,278.5c0.1,0,0.2,0.1,0.1,0.2c-1.4,1-3,1.6-4.7,2.1c-1.6,0.5-3.4,0.9-5.2,1.1c-3.5,0.5-7.2,0.5-10.7,0
				c-0.2,0-0.2-0.3,0-0.4c3.5,0.1,7,0.2,10.5-0.3c1.7-0.2,3.4-0.5,5-1C52.3,279.9,53.9,279.2,55.5,278.5z"/>
			<path class="st3" d="M65.6,277.6c-0.7,0.9-1.5,1.6-1.9,2.7c-0.2,0.5-0.3,1-0.5,1.6c-0.1,0.5-0.1,1.1-0.2,1.6c0,0.1-0.1,0-0.1,0
				c-0.2-0.5-0.1-1.2,0.1-1.7c0.1-0.6,0.3-1.1,0.5-1.6c0.4-1,1-2.2,2-2.8C65.5,277.2,65.7,277.4,65.6,277.6z"/>
			<path class="st3" d="M64.7,272.5c0.1,0,0.1,0.1,0.1,0.2c-2.4,1-5,1.5-7.6,1.8c-2.9,0.3-5.8,0-8.8-0.6c-1.7-0.4-3.5-0.9-5.1-1.5
				c-0.2-0.1-0.1-0.3,0.1-0.2c2.9,0.7,5.9,1.4,8.8,1.7c2.9,0.4,5.9,0.1,8.8-0.5C62.3,273,63.5,272.7,64.7,272.5z"/>
			<path class="st3" d="M47.8,266c-2.7-0.2-5.5-0.3-8.3-0.4c-1.4,0-2.9,0-4.4,0c-1.4,0-2.8,0.1-4.2,0.1c-0.3,0-0.3-0.5,0-0.5
				c1.4-0.2,2.7-0.2,4.2-0.2c1.5,0,3,0,4.4,0c2.8,0.1,5.6,0.4,8.4,0.8C47.9,265.7,47.9,266,47.8,266z"/>
			<path class="st3" d="M55.3,263.8c-1.7-0.8-3.5-1.5-5.3-1.9c-1.5-0.4-3.1-0.4-4.7-0.5c-1.5-0.1-3-0.6-4.3-1.3
				c-1.4-0.7-2.9-1.6-3.8-3c-0.1-0.2,0.1-0.4,0.3-0.3c0.7,0.5,1.3,1,1.9,1.5c0.6,0.4,1.3,0.9,2,1.3c1.4,0.7,2.9,1.1,4.5,1.3
				c3.4,0.3,6.5,1.1,9.4,2.8C55.5,263.7,55.3,263.9,55.3,263.8z"/>
			<path class="st3" d="M69.5,265.8c0.5,0.4,1,0.8,1.5,1.3s0.9,1,0.8,1.7c0,0-0.1,0-0.1,0c-0.1-0.7-0.6-1.2-1.1-1.6
				c-0.5-0.4-1-0.7-1.3-1.2C69.2,265.9,69.4,265.7,69.5,265.8z"/>
			<path class="st3" d="M49.1,246.7c-0.2-0.1-0.1-0.5,0.2-0.4c4.3,1.9,9.1,4.6,10.9,9.3c0,0.1-0.1,0.2-0.2,0.1
				c-1-2.1-2.7-3.9-4.5-5.3C53.4,248.9,51.2,247.9,49.1,246.7z"/>
		</g>
	</g>
	
		<image style="display:inline;overflow:visible;" width="188" height="350" xlink:href="../../../../MINTERO Final Project Content/About/Images/carfreshenersolo.png"  transform="matrix(0.6013 0.2434 -0.2434 0.6013 157.3696 -120.9528)">
	</image>
	
		<image style="display:inline;overflow:visible;" width="164" height="350" xlink:href="../../../../MINTERO Final Project Content/About/Images/essentialoil.png"  transform="matrix(0.4137 -0.1773 0.1773 0.4137 30.4241 206.9573)">
	</image>
</g>
<g>
	<g>
		<path class="st2" d="M29.8,240c2.1-2.2,4.3-4.2,6.6-6.3c1.5-1.1,3-2.3,4.6-3.4c-0.2,0.4-0.5,0.9-0.7,1.3c-0.3,0.6-0.7,1.2-1.1,1.8
			c-1.6,2.8-3,5.6-4,8.5c-0.7,1.7-1.3,3.2-1.8,4.5c-0.7,2.5-1.4,5.4-2.4,7.8c-1.8,4.4-5.5,7.8-9.8,9.8c-0.4,0.1-1-0.1-1-0.6
			c0.1-7.1,2.5-14.4,6.9-20.2C27.9,242.2,28.8,241,29.8,240z M25.7,258.4c-1.1,1.3-2.3,2.2-3.7,3.3c-0.3,0.2,0,0.5,0.3,0.4
			c3-1.3,5.2-4.5,6.7-7.3c1.7-3.2,2.7-6.6,3.5-10.1c0.1-0.3-0.3-0.4-0.4-0.1c-1.1,3.3-2.1,6.6-3.7,9.7
			C27.7,255.8,26.8,257.2,25.7,258.4z"/>
		<path class="st2" d="M48.3,242.2c0.1-1.3,0-2.7,0-4.2c0-0.1,0-0.2,0-0.2c0-1.9-0.2-3.8-0.3-5.4c0.4,0.7,0.7,1.5,1.1,2.3
			c7.2,10.8,7,24.7,3.8,36.9c0,0,0,0.1,0,0.2c-2.5-2.5-4.7-5.3-6.1-8.4c-1.5-3.2-1.9-6.9-0.8-10.3C47,249.6,48.2,246,48.3,242.2z
			 M51.9,268.3c0,0.1,0.2,0,0.2-0.1c-1.4-2.2-2.7-4.5-3.7-6.9c-0.9-2.3-1.2-4.6-1.1-7.1c0-0.2-0.2-0.2-0.3,0
			c-0.5,2.3,0.1,4.7,0.8,6.9C48.8,263.8,50.3,266.1,51.9,268.3z"/>
		<path class="st2" d="M36.2,242.5c2.1-4.3,4.8-9.1,6.6-12.4c0.4-0.6,0.9-1.2,1.3-1.8c0.3-0.4,0.4-0.8,0.7-0.3
			c1.1,2.5,1.7,5.1,2,7.6c0,0.5,0.1,0.8,0.1,1.1c0.1,1.4,0.1,2.7,0.1,4c-0.5,10.9-6,21.6-12.6,30.1l-1,1.2c-0.3,0.5-0.6,0.4-0.8,0
			C31.7,262.2,32.8,251.9,36.2,242.5z M38.3,261.8c1-1.5,1.9-3,2.6-4.6c3.2-6.7,4.9-14.3,4.3-21.7c0-0.1-0.2-0.1-0.2,0
			c-0.1,4.6-0.6,9.3-1.9,13.8c-1.2,4.3-3.1,8.3-5.3,12.1C37.6,261.8,38.2,262.1,38.3,261.8z"/>
		<path class="st2" d="M44.9,226.6C44.9,226.5,44.9,226.6,44.9,226.6C44.9,226.6,44.9,226.5,44.9,226.6
			C44.9,226.5,44.9,226.5,44.9,226.6z"/>
		<path class="st2" d="M50.9,235.2c-0.4-0.6-0.7-1.1-1-1.8l0.1,0c0.1,0,0.4,0.1,0.4,0.2c0.3,0.1,0.6,0.3,0.8,0.4
			c0.3,0.1,0.6,0.3,0.9,0.4c4.9,2.1,9.3,5.4,12.5,9.6c3.3,3.9,4.2,8.8,5,13.7c0.4,1.7,1,3.5,1.7,5.1c0,0.1,0,0.1,0,0.1
			c-5.7-1.5-11-5.6-13.2-11.2c-1.3-3.1-2.6-6.2-4.1-9.3C53.4,239.8,52.3,237.4,50.9,235.2z M59.1,241c1,0.8,1.9,1.7,2.8,2.6
			c1.8,1.9,3.5,3.9,5.1,6c0,0.1,0.1,0,0.1,0c-1.6-2.2-2.9-4.5-4.8-6.5c-0.9-1.1-2-2-3-3c-1-0.8-2-1.7-3.3-2.1
			c-0.3-0.1-0.5,0.2-0.3,0.4C56.8,239.4,58.1,240.1,59.1,241z"/>
		<path class="st2" d="M36.8,231c-4.6,4.2-9,8.9-13.1,13.7c-2.1,2.4-4.7,4.3-7.7,5.3c-2.4,0.8-5.1,1-7.7,1c-0.2,0-0.4-0.2-0.3-0.4
			c0-0.1,0.2-0.3,0.3-0.3c2.4-2.3,3.9-5.2,5.5-8c4.7-7.5,13.9-11.1,22.6-11.2C36.4,231,36.5,231,36.8,231z M27.8,233.7
			c-3.1,0.6-5.8,2-8.2,4c-1.2,1-2.2,2-3.2,3.3c-0.9,1.2-2,2.5-2.4,4c-0.1,0.3,0.2,0.4,0.4,0.2c0.9-1.2,1.5-2.6,2.5-3.8
			c0.9-1.2,1.9-2.2,3.1-3.1c2.3-1.9,5-3.4,8-4.3C27.9,233.9,27.8,233.7,27.8,233.7z"/>
		<path class="st2" d="M117.1,245.1c-3.2-2.4-7-4.4-10.4-6.5c0.6,0.1,1.2,0.1,1.8,0.1c18.9-0.4,35.9,10.2,48.5,23.4
			c0.1,0.1,0.3,0.3,0.3,0.3c0,0.1,0,0.2-0.1,0.3l0,0l-0.1,0l-0.5,0.1c-4.8,1-9.8,1.3-14.7,0.6c-5.1-0.8-10-3.2-13.3-7.1
			C125.1,252.3,121.6,248.1,117.1,245.1z M136.2,248.5c3.9,2.3,7.5,5,11.1,7.5c0.2,0.2,0.5-0.2,0.3-0.3c-1.9-1.6-4-3.2-6.1-4.7
			c-3.7-2.6-7.7-4.9-11.9-6.6c-4.1-1.7-8.5-3.1-13.1-3.1c-0.1,0-0.2,0.2,0,0.2c2.5,0.4,4.9,0.9,7.4,1.6
			C128.2,244.3,132.3,246.3,136.2,248.5z"/>
		<path class="st2" d="M163.1,237.5c-1.6,1.4-3.5,2.7-5.4,3.7c-4.5,2.4-9.7,3.5-14.6,1.9c-5-1.3-10-2.6-15-3.8
			c-5.1-1.2-10-2.7-15.4-3.2c-1.8-0.1-3.7,0-5.4-0.2c1.2-1.6,3.9-3.1,5.9-4.2c4.5-2.4,9.4-4.1,14.4-4.7c7.6-1.1,15.3,0.5,22,4.2
			c2.2,1.2,4.5,2.6,7,3.5c2,0.8,4.3,1.5,6.4,2.1C163.1,236.9,163.3,237.3,163.1,237.5z M145.9,231.2c-1.5-0.8-3-1.4-4.6-1.9
			c-4.1-1.2-8.4-1.7-12.6-1.3c-2,0.2-3.9,0.5-5.8,1.1c-1.3,0.4-2.9,0.7-4.1,1.5c-0.1,0,0,0.2,0,0.1c1.6-0.2,3.2-0.8,4.8-1.2
			c4.1-0.9,8.4-0.9,12.5-0.3c3.2,0.5,6.3,1.6,9.3,2.7C145.9,232.2,146.3,231.5,145.9,231.2z"/>
		<path class="st2" d="M103.8,198.1c-1.6,0.4-3.3,0.6-5,0.7c4.6-4,9.8-7.6,15.7-9.2c1.6-0.6,6.4-0.8,9.2-1.9c-3,1.8-6,3.5-8.9,5.5
			C111.4,195.3,107.7,197.3,103.8,198.1z"/>
		<path class="st2" d="M95.2,183.6c6.7-4.9,15.8-4.4,23.2-1.6c1.2,0.5,2.4,1,3.5,1.6c-3.3-0.9-7.4-1.5-10.9-1.2
			c-6.8,0.9-15,3.5-17.5,10.6c-0.2,0.4,0.1,0.8,0.4,0.9c0.3,0.1,0.6,0,0.8-0.1c4-3.6,8.9-6.4,14.2-7.4c5.3-1.1,10.8-1.3,16.2-0.4
			l0,0l0,0.1c-0.1,0.4-0.5,0.7-0.9,0.9c-3.1,1.4-6.6,1.3-9.9,2.1c-6.7,1.6-12.6,5.7-18,10c-0.6,0.5-0.2,1.4,0.5,1.3
			c4.5-0.2,9.1-1.2,13.1-3.4c5.2-3.1,10.2-6.5,15.4-9.6c0,0.2-0.1,0.3-0.1,0.3c-3.9,7.1-10.2,13.4-17.8,16.4
			c-2.6,1.1-5.4,1.4-8.3,1.1c-0.7-0.1-1,1-0.3,1.2c7.3,3,15.5-0.9,20.4-6.6c2.8-2.9,4.6-6.6,6.4-10c-0.6,3.7-1.8,7.3-3.7,10.4
			c-3.7,7.1-11.3,12.5-19.5,12.1c-5.2-0.3-10.6-3-13-7.7C86,197.6,88.5,188.1,95.2,183.6z M96.5,194c4.4-3.2,9.2-5.5,14.6-6.8
			c0.3-0.1,0.2-0.5-0.1-0.4c-5.3,1-10.6,3.4-14.7,7C96.1,193.8,96.3,194.1,96.5,194z M109.8,202.2c2.8-1.2,5.3-3.1,7.4-5.1
			c1.2-1.1,2.2-2.2,3.2-3.4c0.7-0.9,1.5-1.9,1.9-3c0.1-0.2-0.2-0.3-0.3-0.1c-0.7,1-1.4,2.1-2,3c-1,1.2-1.9,2.4-3,3.5
			c-2.2,2-4.7,3.6-7.3,5C109.5,202,109.6,202.3,109.8,202.2z M89.9,193.7c0.6-1.9,1.4-3.9,2.6-5.5c1.2-1.7,2.9-3.1,4.5-4.3
			c0.1,0,0-0.2,0-0.1c-3.8,1.9-6.7,5.8-7.3,9.9C89.7,193.7,89.8,193.8,89.9,193.7z"/>
		<path class="st2" d="M95.2,240.6l-0.4-1c-0.1-0.3-0.3-0.8-0.3-0.8c-0.1-0.2,0.2-0.5,0.5-0.4c5.7,1.3,11.5,3,16.5,6
			c14.9,8.7,24.4,24.2,30.4,40c0.4,0.8-0.1,1.4-0.7,1.1l-1-0.5c-1.2-0.7-4.7-2.5-6-3.2C117.3,272.8,102.5,258.6,95.2,240.6z
			 M125.5,274.6c2,1.5,4,2.9,6.1,4.2c1.9,1.3,3.8,2.5,5.9,3.5c0.4,0.2,0.7-0.3,0.4-0.6c-1.9-1.3-3.8-2.5-5.7-3.7c-2-1.3-4-2.7-6-4.1
			c-3.7-2.7-7.4-5.4-10.9-8.2c-0.1-0.1-0.3,0.1-0.2,0.2C118.4,269.1,121.8,272,125.5,274.6z M98.3,241.2c1.9,0.7,3.8,1.4,5.6,2.3
			c4.4,1.9,8.8,4.2,12.6,7.3c3.7,3.3,7.3,6.9,10.5,10.6c0.1,0.2,0.4-0.1,0.2-0.2c-1.7-2.4-3.7-4.8-5.8-6.9c-3.4-3.5-7.1-6.6-11.5-9
			c-3.7-2-7.6-3.5-11.6-4.4C98.2,241,98.1,241.2,98.3,241.2z"/>
		<path class="st2" d="M106.4,233.8c-3.6,2.1-8,2.9-12.2,2l-0.4-0.1c-1.1-0.4-2.4,0.6-2.1,1.8c1.1,7.7-1.3,16.1-7.3,21.4
			c-0.4-0.1-1-0.4-1-1c-0.1-3.2,1.4-6.7,1.1-10.2c0.1-2.1-1.1-4.5-1-6.6c0.3-4.1,2.3-8.3,5.5-11c1.8-1.2,3.8-1.6,5.9-1.9
			c2.3-0.4,4.6-0.7,6.8-1.2c3.3-0.6,6.7-1.9,10-1.5c2.6,0.8-0.1,3.6-1.1,4.8c-0.3,0.3-0.5,0.6-0.8,0.8c-0.4,0.2-0.8,0.4-1.1,0.7
			C108.2,232.4,107.3,233.1,106.4,233.8z M85.1,239.6c-0.6,0.8-0.7,1.8-0.5,2.8c0.1,0.6,0.3,1.1,0.4,1.6c0.2,0.6,0.3,1.1,0.5,1.8
			c0.1,0.2,0.4,0.2,0.4-0.1c0.1-1.1-0.5-2.2-0.8-3.2c-0.3-0.9-0.3-2,0.2-2.8C85.3,239.6,85.1,239.5,85.1,239.6z M111.2,228
			c0-0.1,0-0.1-0.1-0.1c-0.6,0.6-1.1,1.4-1.8,2c-0.7,0.6-1.4,1.3-2.2,1.7c-1.6,1-3.3,1.4-5.2,1.9c-0.3,0.1-0.2,0.5,0,0.5
			c1.9-0.1,3.8-1,5.3-2.1c0.8-0.5,1.6-1.2,2.3-1.8C110.2,229.4,110.8,228.7,111.2,228z"/>
		<path class="st2" d="M92.7,251.9c0.3,0.9,0.5,1.8,0.8,2.8c1.3,6.6,3.3,13.2,6.3,19.1c0.4,1.2,0.8,2.3,1.3,3.5
			c3.2,7.6,1.9,16.3-2.8,23.1c-0.2,0.3-0.8,0.2-0.8-0.2c-0.8-2.3-1.7-4.6-2.8-6.8c-3.5-5.7-7.2-11.5-7.4-18.5
			C86.4,266.9,88.7,258.8,92.7,251.9z M88.6,268.4c-1.9,8,2,15.9,6,22.6c0.2,0.3,0.7,0.1,0.5-0.3c-1.9-3.8-4.1-7.4-5.3-11.4
			c-1.1-3.4-1.6-7.3-1-10.9C88.9,268.3,88.7,268.3,88.6,268.4z"/>
		<path class="st2" d="M95.8,255.1c-0.5-2.6-0.9-5.2-1-7.9c4.3,6.1,10.2,15.1,14.8,19.9c4.4,4.3,9.5,8.5,11.7,14.5
			c1.3,3.5,1.9,7.3,1.7,11.1c0,0.6,0,1.2-0.5,1.5c-0.5,0.2-0.9,0.2-1.2,0.1c-4.3-2.4-8.2-5.5-11.6-9.1c-4.1-4.4-7.3-9.6-9.6-15.1
			c-0.7-2.1-1.4-4.2-2-6.3C97.3,261,96.5,258.1,95.8,255.1z M106.5,267.8c1.1,1.5,2.4,2.8,3.8,4c1.3,1.2,2.8,2.3,4.1,3.5
			c1.7,1.6,3.1,3.5,4,5.6c1.1,2.1,1.6,4.4,2.4,6.6c0.1,0.3,0.6,0.2,0.6-0.1c-0.1-2.5-1.1-5.1-2.3-7.3c-1-2-2.5-3.8-4.2-5.3
			c-1.4-1.2-2.9-2.2-4.3-3.5c-3.1-2.7-5.6-6.1-7.6-9.7c0-0.1-0.3,0-0.3,0.2C103.8,263.9,105.1,266,106.5,267.8z"/>
		<path class="st2" d="M86.2,198.6c0.5,0.7,0.2,2,0.3,2.9c0.3,2.2,1.3,4.1,2.7,5.7c0.6,0.8,1.4,1.6,1.5,2.5
			c-1.7,0.1-3.9-0.6-5.2-1.6C82.4,205.5,83.3,201.1,86.2,198.6z M84.7,204.6c0-0.1-0.2,0-0.1,0c-0.1,0.7,0.3,1.5,0.7,2
			c0.4,0.5,1,1.1,1.7,1.3c0.2,0.1,0.3-0.2,0.1-0.3c-0.3-0.2-0.6-0.3-0.8-0.6c-0.2-0.2-0.5-0.5-0.7-0.7
			C85.1,205.8,85,205.2,84.7,204.6z"/>
		<path class="st2" d="M-21.6,230.4C-21.6,230.5-21.5,230.6-21.6,230.4c9.7-5.9,18.6-13.1,26.6-21c6-5.6,11.5-11.7,15.6-18.6
			c1.2,2.1,1.9,4.7,1.2,7.1c-0.7,2.5-3.2,4-4.4,6.4c-0.7,1.3-1.2,2.5-1.7,3.9c-0.8,2-0.6,4.1-1.1,6c-0.7,2.8-3.1,5.4-6,6
			c-2.8,0.6-5.7,2.3-7.4,4.7c-1.4,1.9-2.3,4.1-3.6,6c-2.2,1.8-5.1,2.5-7.9,3.2c-2.7,0.7-5.3,2-7.6,3.6c-1.2,0.8-2.1,1.9-3.1,2.5
			c-2.1,1.4-4.7,2.1-7.3,2.5c-3.4,0.5-6.8,1.7-9.8,3.4c0.9-1.7,1.7-3.6,2.2-5.5c1-3.6,0.5-7.6,3.3-10.5c2.6-2.8,5.3-5.9,7-9.5
			c2-4.6,3.5-9.5,7.5-12.5c1.1-0.7,2.3-0.8,3.4-1.5c3.9-2,5.1-6.3,6.6-9.9l0,0l0.1,0c0.3-0.5,0.6-1,1-1.4c1.1-1.3,2.6-2.8,4.2-3.3
			c2.3-0.5,5.5,0,8-0.9c2.7-0.6,5.3-2.4,7.5-3.8c2-1.2,4.4-0.7,6.1,0.9c0.2,0.2,0.4,0.4,0.5,0.6c-5.4,6.3-10.6,12.9-15.9,19
			C-4.4,215.9-12.7,223.4-21.6,230.4z"/>
		<path class="st2" d="M57.3,234.1c-1.6,0.2-3.1,0-4.5-0.5c-0.5-0.2-0.9-0.4-1.5-0.6c-2.8-1.4-4.9-4-5.6-7.1c-0.2-0.6-1-0.8-1.4-0.3
			c-2.7,2.4-6.1,4-9.7,4c-1.7,0.1-3.4-0.3-5-0.8c-0.1,0-0.2-0.3-0.1-0.4c2.2-3.3,5.5-5.9,9.4-7.1c2.9-1.1,5.7-1.7,8.6-0.4
			C53.1,222.9,56.4,228.6,57.3,234.1z M50.5,229.9c-1.3-1.2-2.1-2.9-3.1-4.4c-0.2-0.3-0.6,0-0.5,0.2c1.2,3,3.8,6.8,7.6,6.6
			c0.2,0,0.3-0.4,0-0.4C53,231.6,51.5,230.9,50.5,229.9z"/>
		<path class="st2" d="M61.6,177.3c4.3-2.3,9-3.5,13.4-5.6c4.1-2.4,8.8-5.5,11.5-9.1c-3.6,3.2-7.7,6-12,8c-4.5,1.8-9.3,3-13.7,5.1
			c-4.5,1.8-8.5,5-12.6,7.4c-1.7,0.8-3.3,1.6-5.1,2.1c0-0.1-0.1,0-0.1-0.1c0-0.8,1.2-2.1,1.9-2.9c2.2-2.2,4.7-4.2,7.4-5.6
			c1.4-0.7,2.9-1.2,4.5-2.1c3.9-2,6.3-6,8-9.7c0.6-1.1,1.9-1.7,3.1-2c1.5-0.3,3.1,0.1,4.7,0c2.7-0.3,5.3-1.2,7.4-3.1
			c1.3-1.2,2.2-2.1,3.6-2.7c3-1.5,5.7-0.5,9-0.2c4.5,0.3,8.8-1.8,12-4.8c-0.7,2.6-1.9,5-3.3,7.3c-1.8,2.8-4.1,5.2-7.2,6.4
			c-1.6,0.7-3.3,1.7-4.4,3.1c-1.2,1.3-1.4,3.2-2.4,4.5c-0.9,1.2-2.2,2.1-3.7,2.3c-0.7,0.1-1.7,0.1-2.6,0.4c-2.7,0.7-4.8,2.9-6.3,5.1
			c-1.9,2.6-5.1,3.7-8.2,3.9c-1.7,0.1-3-0.4-4.7-0.9c-1.8-0.4-3.6-0.6-5.5-0.2c-1.8,0.3-3.3,1.2-4.9,1.5c-1.5,0.4-3.1,0.4-4.7,0.3
			c-0.3,0-0.6,0-1-0.1c1.1-0.5,2.3-1,3.4-1.6C53.3,182,57.1,179.3,61.6,177.3z"/>
		<g>
			<path class="st3" d="M86.2,206.5c0.2,0.2,0.5,0.4,0.8,0.6c0.2,0.1,0.1,0.4-0.1,0.3c-0.7-0.2-1.4-0.8-1.7-1.3
				c-0.4-0.5-0.8-1.4-0.7-2c0-0.1,0.1-0.1,0.1,0c0.3,0.6,0.4,1.2,0.9,1.8C85.7,206.1,85.9,206.3,86.2,206.5z"/>
			<path class="st3" d="M96.9,183.2c0.1,0,0.1,0.1,0,0.1c-1.7,1.2-3.4,2.6-4.5,4.3c-1.2,1.7-2,3.5-2.6,5.5c0,0.1-0.2,0.1-0.2,0
				C90.2,188.9,93.1,185.1,96.9,183.2z"/>
			<path class="st3" d="M96.2,193.2c4.1-3.6,9.3-6,14.7-7c0.2-0.1,0.3,0.4,0.1,0.4c-5.3,1.3-10.2,3.6-14.6,6.8
				C96.2,193.5,96,193.3,96.2,193.2z"/>
			<path class="st3" d="M109.5,201.4c2.6-1.3,5.2-2.9,7.3-5c1.1-1,2.2-2.3,3-3.5c0.7-1,1.3-2,2-3c0.1-0.1,0.3,0,0.3,0.1
				c-0.5,1.1-1.2,2.1-1.9,3c-0.9,1.3-2,2.4-3.2,3.4c-2.2,2-4.7,3.9-7.4,5.1C109.6,201.7,109.4,201.5,109.5,201.4z"/>
			<path class="st3" d="M163.7,238l-0.2,0.1l-0.4,0.3c-3.6,2.9-7.9,5-12.6,5.8c-2.6,0.6-5.4,0.2-7.9-0.5c-4.3-1-8.6-2-12.9-2.9
				c8.6,3.8,16.5,9.3,23.3,15.7c1.7,1.6,3.4,3.3,5,5c0.4,0.7-0.1,1.7-0.9,1.9l-0.1,0l-0.5,0.1c-2.3,0.5-4.6,0.8-7,1
				c-6.1,0.5-12.7-0.5-17.9-3.8c4.4,6.5,7.9,13.6,10.7,20.8l0.8,2.1c0.1,0.3,0.4,0.9,0.2,1.5c-0.2,1.2-1.6,1.9-2.8,1.5
				c-5.5-1.8-10.4-4.8-15.2-7.8c-2.8-1.8-5.6-3.8-8.2-5.9c4.5,5.3,7,10.9,6.6,19.7l0,1c-0.1,1.5-1.8,2.6-3.1,1.7
				c-2.2-1.2-4.3-2.6-6.3-4.1c-4.4-3.2-8.1-7.1-11.1-11.6c0.3,1.2,0.5,2.4,0.7,3.7c0.6,5.9-1.4,11.7-4.6,16.6
				c-0.3,0.6-0.8,1.4-1.5,1.3c-0.6,0.1-1.3-0.4-1.5-1c-0.8-2.3-1.8-4.4-2.9-6.5c-3.9-5.7-7.6-11.7-8.1-18.8
				c-0.6-5.7,0.2-11.5,2-16.9c-0.6,0.6-1.3,1.2-1.9,1.8c-0.2,0.2-0.6,0.4-0.8,0.4c-3.3-0.2-2.7-3.6-2.4-5.7c0.3-2.2,0.4-4.4,0.1-6.6
				c-0.2-2.3-1.7-4.4-1.6-6.8c0.1-3.8,1.8-7.3,4.4-10c0,0,0-0.1-0.1,0c-6.1-8.6-13.2-16.4-21.2-23.2c-5.8-4.9-12-9.3-18.6-13
				c3.2,7.7,4.3,16.2,2.4,24.4c0.2,0,0.4,0.1,0.4,0.2c5.9,2.3,10.1,8.2,10.1,14.6c0,0.4-0.3,0.7-0.6,0.9c-0.7,0.1-1.4,0.1-2.1,0
				c6.8,3.8,12.7,9.8,14.4,17.4c0.6,3.2,1,6.5,2.5,9.6c0.7,1.1-0.3,2.2-1.4,1.8l-0.6-0.2c-5.7-1.9-10.7-6-12.9-11.6
				c-0.6-1.6-1.3-3.1-1.9-4.6c1.4,7.9,0.7,16.4-1.4,24.1c0,0.1-0.1,0.4-0.1,0.5c-0.2,0.8-1.4,1.1-1.9,0.4c-1.2-1.2-2.4-2.5-3.4-3.9
				c-2.6-3.2-4.4-7.2-4.5-11.3c-2.6,5.6-6.1,10.9-9.8,15.6c-0.3,0.6-1.3,1-2.1,0.5c-0.4-0.2-0.6-0.6-0.6-1c-0.2-1.8-0.3-3.6-0.3-5.5
				c-0.1-4.2,0.1-8.5,0.7-12.7c-0.1,0.2-0.2,0.4-0.2,0.6c-1.9,4.3-5.5,7.8-9.7,9.8c-0.5,0.2-1.1,0.5-1.6,0.4
				c-0.6-0.1-1.1-0.7-1.2-1.3c0-3.8,0.6-7.4,1.7-11c0.7-2.4,1.8-4.6,3-6.8c-3.9,4-9.6,6-15.1,5.6l-0.6,0c-0.6,0-1.1-0.7-0.9-1.2
				c0.1-0.3,0.3-0.4,0.4-0.6c2.4-2.3,3.8-5.1,5.4-8c3.9-6.4,10.8-10.2,18.1-11.6c-0.4-0.1-0.9-0.2-1.3-0.3c-0.5-0.1-1.1-0.4-1.2-0.9
				c-0.2-0.5,0.2-1,0.5-1.4c2.2-3.3,5.5-6,9.3-7.3c2.5-1.1,5.5-1.8,8.3-1.1c1.6-8.9-0.3-18.1-4.7-25.8c-5.9-3.2-12.1-5.8-18.4-8
				c-0.5,1-1.1,2-1.6,3.1c2.1,2.9,3,6.9,2.1,10c-0.4,1.5-1.4,2.8-2.3,3.9c-1.9,1.9-3,4-3.8,6.5c-0.7,1.8-0.6,3.9-1.1,5.9
				c-0.7,2.9-2.9,5.4-5.5,6.7c-1.9,0.8-3.9,0.9-5.7,2c-2.9,1.7-4,4.8-5.8,7.5c-0.3,0.6-1.1,1.4-1.7,1.7c-2.4,1.6-5.3,2.3-7.9,2.9
				c-2.5,0.6-4.9,1.8-7.1,3.2c-2,1.6-4.5,3.6-7.1,4.2c-2.7,0.8-5.3,0.8-7.9,1.6c-2.2,0.6-4.4,1.6-6.4,2.7c-0.3,0.2-0.5,0.3-0.8,0.4
				c-0.3,0.1-0.6,0.1-0.8,0c0-0.1-0.1-0.4,0-0.7c0.1-0.3,0.1-0.3,0.2-0.4l0.2-0.4c1-1.9,1.8-4,2.3-6.1c0.8-3.8,0.4-8.1,3.2-11.2
				c2.6-2.9,4.9-5.8,6.5-9.2c1.6-4.1,3.3-8.7,6.4-12.1c1.3-1.6,3.5-2.3,5.3-3c3.4-1.7,4.4-6.7,5.6-9.1c1.1-1.9,2.5-3.6,4.4-4.8
				c3.1-2.3,6.9-0.9,10.2-2c4.1-0.8,7.1-5.3,11.6-4.5c1.7,0.3,3.4,1.3,4.7,2.5c0.5-0.7,1.1-1.3,1.6-1.9c-15-5.1-30.8-7.3-46.5-6.5
				c-3.6,0.1-3.7-5.2-0.2-5.4c21.2-0.7,42.3,4.1,61.2,13.4c1.2-0.2,2.4-0.4,3.7-0.7c-1-3.3,3.9-6.7,6.1-8.7c3.6-3.2,8.9-4,12-7.7
				c1.7-1.8,2.3-3.9,3.7-6c1.5-2.4,4.9-3.6,7.7-3.2c2.9,0.3,5.9-0.3,8.2-2.2c1.2-1,2.6-2.4,4.3-3c3.2-1.5,7-0.5,10.1,0
				c4.7,0.5,9.1-1.9,12.4-5.1c0.4-0.4,1.1,0,0.9,0.5c-0.7,3.4-1.9,6.7-3.8,9.6c-0.9,1.5-2,2.9-3.3,4.1c-2.3,2.6-6.1,3.1-8.2,5.7
				c-1.1,1.3-1.3,3-2.3,4.5c-1.1,1.6-2.8,2.7-4.8,3c-2.5,0.2-4.6,1-6.2,3c-1,1.3-1.9,3-3.4,4.1c-3.7,2.8-8.7,3.5-13,1.9
				c-3.4-1-6.2,0.5-9.4,1.4c-1.8,0.5-3.6,0.5-5.4,0.5c-1.5-0.1-3.4-0.2-4.7-1.1c-0.8,0.2-1.6,0.4-2.4,0.5
				c11.9,6.1,22.8,14,32.1,23.5c2,0.2,4.2,0,6.2-0.7c2-0.6,3.8-1.8,5.4-3.3c-2.2-3-1.1-6.8,2-9.5c0.3-0.4,0.8-0.5,1.2-0.4
				c0-3,0.8-6,2.3-8.6c4.1-7.8,13.6-11.2,22-10c4.2,0.5,8.2,1.9,11.9,3.8c0.7,0.4,1.4,0.8,2,1.1c0.4,0.2,0.6,0.7,0.4,1.1
				c-0.1,0.3-0.7,0.5-1,0.3c0-0.1-0.4-0.1-0.4-0.1c-5.3-1.7-11-2.4-16.5-0.9c-4.1,1.1-8.7,3-11,6.7c3.8-2.6,8.1-4.6,12.6-5.3
				c5.4-0.9,11.1-1.2,16.5-0.1c0.1,0,0.2,0,0.3,0.2c0,0.4-0.1,0.7-0.4,1c0.2-0.1,0.6,0,0.7,0.3c0.1,0.2-0.2,0.6-0.3,0.8
				c-4.7,8.4-12.5,16.1-22.2,18.4c7.2,0.7,13.8-4.7,17.8-10.3c1.6-2.4,2.9-5,4.4-7.6c0.2-0.1,0.3-0.2,0.5-0.2
				c0.6,0.1,0.5,0.6,0.5,1.1c-0.3,4-1.5,8-3.5,11.6c-3.8,7.5-11.9,13.3-20.6,12.9c-3.7-0.2-7.6-1.5-10.5-3.9c0.1,0.4,0,0.7-0.3,1
				c-0.5,0.5-1.2,0.4-1.7,0.4c-1.8-0.3-3.6-1-5-2.1c-0.4-0.3-0.8-0.7-1.1-1c-2.6,2.9-6.3,4.8-10.2,5.2c4.9,5.1,9.3,10.6,13.1,16.5
				c0.3-0.4,0.8-0.7,1.1-1c1.8-1.8,4.6-2.1,7-2.2c2.3-0.2,4.6-0.3,6.9-0.7c3.5-0.2,6.9-1.5,10.4-1c2.5,0.8,1.9,2.8,0.6,4.9
				c4.6-2.4,9.6-4.1,14.8-4.7c8-1.1,16,0.8,22.9,4.8c4.1,2.6,8.6,4.5,13.3,5.8C164.4,235.7,164.7,237.3,163.7,238z M58.1,251.1
				c2.2,5.6,7.4,9.6,13.2,11.2c0.1,0,0.1,0,0-0.1c-0.7-1.6-1.4-3.3-1.7-5.1c-0.7-4.9-1.7-9.8-5-13.7c-3.2-4.2-7.7-7.5-12.5-9.6
				c-0.3-0.1-0.6-0.2-0.9-0.4c-0.3-0.1-0.6-0.3-0.8-0.4c-0.1,0-0.4-0.1-0.4-0.2l-0.1,0c0.3,0.7,0.7,1.2,1,1.8
				c1.4,2.3,2.5,4.7,3.2,7.2C55.5,244.8,56.8,247.9,58.1,251.1z M44.8,226L44.8,226L44.8,226L44.8,226z M52.7,271.2l0-0.2
				c3.2-12.2,3.4-26.1-3.8-36.9c-0.4-0.8-0.7-1.5-1.1-2.3c0.1,1.7,0.3,3.6,0.3,5.4c0,0.1,0,0.2,0,0.2c0.1,1.5,0.1,2.9,0,4.2
				c-0.1,3.7-1.3,7.4-2.4,10.9c-1.1,3.4-0.6,7.1,0.8,10.3C48,265.9,50.3,268.7,52.7,271.2z M32.6,271.5c0.1,0.4,0.4,0.5,0.8,0l1-1.2
				C41,261.8,46.6,251,47,240.2c0-1.3,0-2.6-0.1-4c0-0.2-0.1-0.7-0.1-1.1c-0.3-2.5-0.9-5.1-2-7.6c-0.3-0.4-0.5,0-0.7,0.3
				c-0.5,0.6-0.9,1.2-1.3,1.8c-1.8,3.4-4.6,8.3-6.6,12.4C32.6,251.4,31.7,261.7,32.6,271.5z M20,263c0,0.5,0.6,0.7,1,0.6
				c4.3-1.9,8-5.4,9.8-9.8c1-2.4,1.7-5.3,2.4-7.8c0.5-1.3,1.1-2.9,1.8-4.5c1.1-3,2.4-5.8,4-8.5c0.3-0.6,0.7-1.2,1.1-1.8
				c0.2-0.5,0.5-0.9,0.7-1.3c-1.6,1-3,2.2-4.6,3.4c-2.2,2-4.5,4.1-6.6,6.3c-1,1.1-1.9,2.3-2.8,3.4C22.4,248.6,20.1,255.9,20,263z
				 M13.7,241.6c-1.6,2.8-3.2,5.7-5.5,8c0,0.1-0.3,0.3-0.3,0.3c-0.1,0.2,0.1,0.4,0.3,0.4c2.6,0.1,5.2-0.1,7.7-1
				c3.1-1,5.6-2.9,7.7-5.3c4.1-4.8,8.5-9.4,13.1-13.7c-0.2,0-0.3,0-0.4,0C27.6,230.4,18.3,234,13.7,241.6z M38.9,220.8
				c-3.8,1.2-7.1,3.8-9.4,7.1c-0.1,0.1,0,0.3,0.1,0.4c1.6,0.5,3.3,0.9,5,0.8c3.6,0,7.1-1.6,9.7-4c0.4-0.5,1.3-0.3,1.4,0.3
				c0.7,3.1,2.8,5.7,5.6,7.1c0.5,0.2,0.9,0.4,1.5,0.6c1.4,0.5,3,0.6,4.5,0.5c-0.9-5.5-4.2-11.2-9.7-13.2
				C44.6,219.1,41.8,219.7,38.9,220.8z M18.5,187.4c-1.7-1.6-4.2-2-6.1-0.9c-2.1,1.4-4.8,3.2-7.5,3.8c-2.4,0.9-5.7,0.4-8,0.9
				c-1.5,0.5-3.1,1.9-4.2,3.3c-0.4,0.5-0.7,0.9-1,1.4l-0.1,0l0,0c-1.5,3.7-2.7,7.9-6.6,9.9c-1.2,0.7-2.4,0.8-3.4,1.5
				c-4,3-5.5,8-7.5,12.5c-1.7,3.6-4.3,6.6-7,9.5c-2.7,2.9-2.3,6.9-3.3,10.5c-0.5,1.9-1.2,3.7-2.2,5.5c3.1-1.7,6.4-2.9,9.8-3.4
				c2.6-0.3,5.2-1,7.3-2.5c1-0.7,2-1.7,3.1-2.5c2.3-1.6,4.8-2.8,7.6-3.6c2.8-0.7,5.7-1.3,7.9-3.2c1.3-1.9,2.2-4.1,3.6-6
				c1.7-2.4,4.5-4.1,7.4-4.7c3-0.6,5.3-3.1,6-6c0.5-2,0.4-4,1.1-6c0.5-1.4,1-2.6,1.7-3.9c1.2-2.4,3.7-3.9,4.4-6.4
				c0.7-2.4,0-4.9-1.2-7.1c-4.2,7-9.7,13.1-15.6,18.6c-8,8-16.9,15.1-26.6,21.1c-0.1,0-0.1,0,0-0.1c8.9-7,17.2-14.5,24.8-22.8
				c5.3-6.2,10.5-12.8,15.9-19C18.9,187.9,18.7,187.6,18.5,187.4z M46.5,185.5c1.6,0,3.3,0.1,4.7-0.3c1.7-0.4,3.2-1.2,4.9-1.5
				c1.9-0.3,3.7-0.3,5.5,0.2c1.7,0.5,3,1,4.7,0.9c3.1-0.2,6.4-1.3,8.2-3.9c1.5-2.2,3.5-4.4,6.3-5.1c0.9-0.3,1.9-0.3,2.6-0.4
				c1.5-0.2,2.9-1.2,3.7-2.3c0.9-1.3,1.3-3.2,2.4-4.5c1.2-1.4,2.8-2.4,4.5-3c3.1-1.3,5.5-3.7,7.2-6.4c1.5-2.2,2.5-4.7,3.3-7.3
				c-3.2,3-7.5,5.1-12,4.8c-3.3-0.4-6-1.3-9,0.2c-1.4,0.6-2.3,1.5-3.6,2.7c-2.1,1.8-4.7,2.8-7.4,3.1c-1.6,0.2-3.2-0.2-4.7,0
				c-1.2,0.3-2.4,0.9-3.1,2c-1.8,3.8-4.1,7.7-8,9.7c-1.6,0.9-3.1,1.4-4.5,2.1c-2.8,1.4-5.2,3.4-7.4,5.6c-0.7,0.6-1.9,2.1-1.9,2.9
				c0,0.1,0.1,0,0.1,0.1c1.8-0.6,3.5-1.2,5.1-2.1c4.1-2.4,8.2-5.5,12.6-7.4c4.4-2.1,9.2-3.3,13.7-5.1c4.4-2,8.4-4.8,12-8
				c-2.7,3.5-7.3,6.7-11.5,9.1c-4.4,2.1-9.2,3.4-13.4,5.6c-4.5,1.9-8.4,4.6-12.7,7.1c-1.1,0.6-2.2,1.1-3.4,1.6
				C45.8,185.5,46.2,185.5,46.5,185.5z M102.4,211.8c8.2,0.4,15.8-5,19.5-12.1c1.9-3.2,3-6.8,3.7-10.4c-1.9,3.5-3.7,7.1-6.4,10
				c-4.9,5.7-13,9.6-20.4,6.6c-0.7-0.2-0.4-1.3,0.3-1.2c2.8,0.3,5.6,0,8.3-1.1c7.6-3.1,13.8-9.3,17.8-16.4c0,0,0.1-0.2,0.1-0.3
				c-5.2,3.1-10.2,6.6-15.4,9.6c-4.1,2.2-8.5,3.2-13.1,3.4c-0.7,0.1-1.1-0.9-0.5-1.3c5.4-4.2,11.3-8.3,18-10
				c3.3-0.8,6.9-0.7,9.9-2.1c0.4-0.2,0.8-0.5,0.9-0.9c0,0,0,0,0-0.1l0,0c-5.3-1-10.9-0.8-16.2,0.4c-5.3,1.1-10.1,3.9-14.2,7.4
				c-0.3,0.2-0.5,0.3-0.8,0.1c-0.4-0.2-0.6-0.6-0.4-0.9c2.5-7,10.7-9.7,17.5-10.6c3.5-0.3,7.5,0.3,10.9,1.2
				c-1.2-0.6-2.3-1.1-3.5-1.6c-7.4-2.8-16.5-3.3-23.2,1.6c-6.6,4.5-9.2,14-5.7,21.1C91.8,208.8,97.2,211.5,102.4,211.8z
				 M123.5,187.2c-2.8,1.1-7.6,1.3-9.2,1.9c-5.9,1.6-11.1,5.2-15.7,9.2c1.7-0.1,3.3-0.3,5-0.7c4-0.7,7.6-2.8,10.9-5
				C117.5,190.7,120.6,188.9,123.5,187.2z M85.4,207.7c1.3,1,3.5,1.8,5.2,1.6c-0.2-0.9-0.9-1.8-1.5-2.5c-1.3-1.7-2.3-3.6-2.7-5.7
				c-0.1-1,0.2-2.3-0.3-2.9C83.2,200.6,82.3,205,85.4,207.7z M141.7,263c4.9,0.7,9.9,0.3,14.7-0.6l0.5-0.1l0.1,0l0,0
				c0.1,0,0.2-0.2,0.1-0.3c0,0-0.1-0.2-0.3-0.3c-12.5-13.1-29.6-23.8-48.5-23.4c-0.6,0-1.2,0-1.8-0.1c3.5,2.1,7.2,4,10.4,6.5
				c4.4,3,8,7.2,11.3,11.3C131.6,259.8,136.5,262.2,141.7,263z M134.3,281.2c1.2,0.6,4.8,2.4,6,3.2l1,0.5c0.6,0.3,1.2-0.3,0.7-1.1
				c-6-15.8-15.5-31.3-30.4-40c-5.1-3-10.8-4.7-16.5-6c-0.3-0.1-0.5,0.2-0.5,0.4c0,0,0.1,0.4,0.3,0.8l0.4,1
				C102.4,258.1,117.2,272.2,134.3,281.2z M109.6,284.7c3.4,3.6,7.3,6.7,11.6,9.1c0.4,0.2,0.8,0.2,1.2-0.1c0.5-0.3,0.4-0.9,0.5-1.5
				c0.1-3.7-0.4-7.6-1.7-11.1c-2.2-6-7.3-10.2-11.7-14.5c-4.6-4.8-10.5-13.8-14.8-19.9c0.1,2.6,0.6,5.3,1,7.9
				c0.7,2.9,1.5,5.8,2.3,8.7c0.5,2.1,1.3,4.2,2,6.3C102.4,275.1,105.5,280.3,109.6,284.7z M87,274.4c0.2,6.9,3.9,12.7,7.4,18.5
				c1.2,2.2,2.1,4.5,2.8,6.8c0.1,0.4,0.6,0.5,0.8,0.2c4.7-6.8,6-15.5,2.8-23.1c-0.4-1.2-0.8-2.3-1.3-3.5c-3-5.9-5-12.6-6.3-19.1
				c-0.3-0.9-0.5-1.8-0.8-2.8C88.6,258.3,86.3,266.3,87,274.4z M110.7,230c1-1.1,3.6-4,1.1-4.8c-3.3-0.5-6.7,0.9-10,1.5
				c-2.2,0.5-4.6,0.9-6.8,1.2c-2.2,0.3-4.2,0.7-5.9,1.9c-3.2,2.7-5.2,7-5.5,11c-0.1,2,1.1,4.4,1,6.6c0.3,3.5-1.2,6.9-1.1,10.2
				c0,0.5,0.6,0.9,1,1c6.1-5.3,8.4-13.7,7.3-21.4c-0.3-1.2,1-2.2,2.1-1.8l0.4,0.1c4.1,0.9,8.5,0.1,12.2-2c0.8-0.8,1.8-1.4,2.4-1.9
				c0.4-0.2,0.8-0.4,1.1-0.7C110.1,230.5,110.4,230.2,110.7,230z M162.8,236.2c-2.1-0.6-4.3-1.2-6.4-2.1c-2.4-0.9-4.7-2.3-7-3.5
				c-6.6-3.7-14.3-5.3-22-4.2c-5.1,0.7-9.9,2.3-14.4,4.7c-1.9,1.1-4.7,2.6-5.9,4.2c1.6,0.2,3.6,0.1,5.4,0.2c5.3,0.4,10.2,2,15.4,3.2
				c5,1.2,10,2.5,15,3.8c4.9,1.6,10.2,0.5,14.6-1.9c1.9-1,3.8-2.3,5.4-3.7C163.1,236.8,163,236.3,162.8,236.2z"/>
			<path class="st3" d="M145.4,231.5c-3-1.1-6.1-2.2-9.3-2.7c-4.1-0.6-8.4-0.6-12.5,0.3c-1.6,0.3-3.2,1-4.8,1.2
				c-0.1,0-0.1-0.1,0-0.1c1.2-0.8,2.7-1.2,4.1-1.5c1.9-0.5,3.8-0.9,5.8-1.1c4.2-0.4,8.6,0,12.6,1.3c1.6,0.5,3.1,1.1,4.6,1.9
				C146.1,230.9,145.8,231.6,145.4,231.5z"/>
			<path class="st3" d="M116.4,240.8c4.5,0,8.9,1.4,13.1,3.1c4.2,1.8,8.2,4.1,11.9,6.6c2.1,1.4,4.1,3,6.1,4.7
				c0.2,0.2-0.1,0.5-0.3,0.3c-3.7-2.6-7.3-5.3-11.1-7.5s-8-4.2-12.3-5.5c-2.4-0.7-4.9-1.1-7.4-1.6
				C116.3,241,116.4,240.8,116.4,240.8z"/>
			<path class="st3" d="M101.9,233.4c-0.3,0-0.3-0.4,0-0.5c1.8-0.4,3.6-0.9,5.2-1.9c0.8-0.5,1.6-1.1,2.2-1.7c0.6-0.6,1.1-1.4,1.8-2
				c0-0.1,0.2,0,0.1,0.1c-0.3,0.8-1,1.5-1.6,2.1c-0.7,0.7-1.5,1.3-2.3,1.8C105.6,232.5,103.8,233.4,101.9,233.4z"/>
			<path class="st3" d="M98.2,240.4c4.1,0.9,8,2.4,11.6,4.4c4.4,2.3,8.1,5.4,11.5,9c2.1,2.2,4,4.5,5.8,6.9c0.1,0.1-0.1,0.4-0.2,0.2
				c-3.2-3.8-6.7-7.4-10.5-10.6c-3.7-3.2-8-5.5-12.6-7.3c-1.9-0.8-3.8-1.5-5.6-2.3C98.1,240.7,98.1,240.4,98.2,240.4z"/>
			<path class="st3" d="M115.1,265.2c3.6,2.8,7.2,5.6,10.9,8.2c2,1.4,4,2.8,6,4.1c1.9,1.3,3.8,2.4,5.7,3.7c0.4,0.2,0,0.8-0.4,0.6
				c-2-1-3.9-2.3-5.9-3.5c-2.1-1.4-4.1-2.7-6.1-4.2c-3.7-2.7-7.1-5.5-10.5-8.7C114.7,265.3,115,265.1,115.1,265.2z"/>
			<path class="st3" d="M102.9,261.2c2.1,3.6,4.5,7,7.6,9.7c1.4,1.2,2.9,2.2,4.3,3.5c1.7,1.5,3.1,3.3,4.2,5.3
				c1.2,2.2,2.3,4.8,2.3,7.3c0,0.3-0.5,0.4-0.6,0.1c-0.8-2.2-1.3-4.5-2.4-6.6c-1-2-2.4-4-4-5.6c-1.3-1.2-2.8-2.3-4.1-3.5
				c-1.3-1.2-2.6-2.6-3.8-4c-1.5-1.9-2.7-3.9-3.8-6C102.5,261.1,102.8,261,102.9,261.2z"/>
			<path class="st3" d="M44.9,235c0-0.1,0.2-0.1,0.2,0c0.6,7.3-1.1,15-4.3,21.7c-0.8,1.6-1.6,3.1-2.6,4.6c-0.2,0.3-0.7,0-0.5-0.4
				c2.2-3.8,4.1-7.9,5.3-12.1C44.3,244.3,44.8,239.7,44.9,235z"/>
			<path class="st3" d="M56,237.5c1.2,0.4,2.3,1.3,3.3,2.1c1.1,0.9,2.1,1.9,3,3c1.8,2,3.2,4.2,4.8,6.5c0,0.1,0,0.1-0.1,0
				c-1.5-2.1-3.3-4.1-5.1-6c-0.9-0.9-1.8-1.8-2.8-2.6c-1.1-0.9-2.3-1.6-3.3-2.5C55.5,237.7,55.7,237.4,56,237.5z"/>
			<path class="st3" d="M47.2,253.8c-0.2,2.5,0.2,4.8,1.1,7.1c0.9,2.4,2.4,4.6,3.7,6.9c0,0.1-0.1,0.2-0.2,0.1
				c-1.6-2.2-3.1-4.6-4.1-7.2c-0.8-2.1-1.3-4.6-0.8-6.9C47,253.6,47.3,253.6,47.2,253.8z"/>
			<path class="st3" d="M32.5,244.1c-0.9,3.4-1.8,6.9-3.5,10.1c-1.5,2.8-3.7,6-6.7,7.3c-0.2,0.1-0.5-0.2-0.3-0.4
				c1.3-1,2.6-2,3.7-3.3c1.1-1.3,2.1-2.7,2.8-4.2c1.6-3.1,2.6-6.5,3.7-9.7C32.2,243.8,32.5,243.9,32.5,244.1z"/>
			<path class="st3" d="M19.8,237.7c-1.1,1-2.2,2-3.1,3.1c-0.9,1.2-1.6,2.6-2.5,3.8c-0.2,0.2-0.4,0.1-0.4-0.2c0.3-1.4,1.4-2.8,2.4-4
				c1-1.2,2.1-2.3,3.2-3.3c2.4-2,5.2-3.3,8.2-4c0.1,0,0.1,0.1,0,0.1C24.8,234.2,22.1,235.8,19.8,237.7z"/>
			<path class="st3" d="M54.4,231.2c0.3,0.1,0.2,0.4,0,0.4c-3.7,0.3-6.3-3.6-7.6-6.6c-0.1-0.3,0.3-0.5,0.5-0.2
				c1,1.5,1.8,3.2,3.1,4.4C51.4,230.4,52.9,231.1,54.4,231.2z"/>
			<path class="st3" d="M85,242c0.3,1.1,0.8,2.1,0.8,3.2c0,0.2-0.3,0.3-0.4,0.1c-0.1-0.6-0.3-1.2-0.5-1.8c-0.2-0.6-0.3-1.1-0.4-1.6
				c-0.2-0.9-0.1-1.9,0.5-2.8c0-0.1,0.2,0,0.1,0.1C84.6,240,84.7,241.1,85,242z"/>
			<path class="st3" d="M89.8,278.8c1.2,4,3.4,7.7,5.3,11.4c0.2,0.3-0.3,0.6-0.5,0.3c-4-6.7-8-14.6-6-22.6c0-0.2,0.3-0.1,0.3,0.1
				C88.2,271.5,88.7,275.3,89.8,278.8z"/>
		</g>
	</g>
	<g>
		<path class="st2" d="M255,305.7c-3.6,1.9-6.7,4.6-9.6,7.4c-0.4,0.4-1,0.9-1.5,1.5c0.2-0.6,0.4-1.3,0.5-1.8
			c3.7-12.9,14.4-22.5,25.8-28.8l0.6-0.3c0,0,0.1,0,0.1,0.1l0,0c-0.3,3.8-1,7.7-2.5,11.1c-1.6,3.5-4.3,6.6-7.8,8.2
			C258.6,303.9,256.8,304.7,255,305.7z M264,289.5c0.2-0.2-0.1-0.5-0.3-0.3c-3.7,2.5-7.1,5.5-10.1,8.7c-1.5,1.6-2.7,3.3-4,5.2
			c-1.1,1.8-2.1,3.7-2.7,5.8c0,0.1,0.1,0.1,0.2,0.1c1-2,1.9-3.9,3.2-5.8c1.1-1.7,2.5-3.4,3.9-4.9C257.2,295,260.6,292.4,264,289.5z"
			/>
		<path class="st2" d="M252.1,321.7c-3.6,1.2-7.4,2-11.2,2.4c-0.1,0-0.1-0.1-0.1-0.1c2.1-3.8,4.4-7.7,7.6-10.7
			c9.2-9.1,22.4-13,35-14.3c0.5-0.1,0.5-0.1,0.7,0.3c0,0.1-0.1,0.1-0.1,0.2l-0.6,0.6c-2.8,2.7-5.3,5.8-8.3,8.3
			C268.5,314.3,260.7,319,252.1,321.7z M264.8,314.8c3-1.8,5.8-3.8,8.5-6c1.4-1.1,2.9-2.3,4.2-3.5c1.3-1.1,2.6-2.2,3.7-3.6
			c0.3-0.3-0.2-0.7-0.5-0.5c-1.4,1.1-2.7,2.3-3.9,3.4c-1.3,1.2-2.7,2.3-4.1,3.5c-2.6,2.2-5.4,4.3-8.1,6.3
			C264.5,314.6,264.7,314.9,264.8,314.8z M263.9,305.3c0.1-0.1,0.1-0.3-0.1-0.3c-2.1,0.8-4.1,1.7-6.1,2.7c-3.2,1.8-6.2,3.8-8.8,6.4
			c-2.2,2.3-4.2,4.9-5.7,7.8c-0.1,0.1,0.1,0.2,0.2,0.1c1-1.3,1.9-2.5,2.9-3.7c2.3-2.8,4.8-5.5,7.8-7.6
			C257.3,308.7,260.6,306.9,263.9,305.3z"/>
		<path class="st2" d="M250.6,328.3c0.5,0,0.9,0,1.4,0c5.3,0.3,10.8,0.2,15.9-0.9c0.8,0,1.6-0.2,2.4-0.2c3.4-0.4,6.7,0,9.8,1.4
			c2.3,1.1,4.4,2.6,6,4.5l0.4,0.5c0.1,0.2,0,0.5-0.2,0.5c-3.6,0-7.1,1.1-10.5,2.1C266.7,338.6,257.1,334.7,250.6,328.3L250.6,328.3z
			 M261.4,334.3c5.4,3,12,1.7,17.7,0c0.3-0.1,0.2-0.6-0.1-0.5c-2.9,0.6-5.9,1.4-8.9,1.6c-2.9,0.2-5.9-0.2-8.6-1.3
			C261.3,334,261.2,334.2,261.4,334.3z"/>
		<path class="st2" d="M242.4,310.6c-0.4,1.1-0.7,2.4-1.1,3.5c-0.3-0.6-0.6-1.3-0.9-2c-2.1-6.3-2.2-13.1,0-19.4
			c1.3-3.6,3.5-6.7,6-9.5c2.4-2.4,4.8-5.1,6.4-8.1c0.3-0.5,0.3-0.5,0.6-0.6c0.1,0,0.1,0,0.2,0.1c0,0.1,0.1,0.4,0.2,0.5
			c1.7,3.8,2.4,8.3,1.2,12.3c-2.1,4.3-4.8,8.4-7.1,12.6C246.1,303.2,243.5,307.3,242.4,310.6z M243.6,290.3c0.8-1.3,1.7-2.6,2.6-4
			c0.2-0.3-0.2-0.9-0.6-0.6c-2.7,2.6-4.5,6.3-5.4,9.8c-0.5,1.9-0.7,3.8-0.8,5.8c0,1.2-0.1,2.7,0.4,3.9c0,0.1,0.1,0.1,0.1,0
			c0.2-0.6,0.1-1.2,0-1.8c0-0.7,0-1.5,0.1-2.2c0.2-1.8,0.5-3.6,1-5.4C241.7,293.9,242.5,292,243.6,290.3z"/>
		<path class="st2" d="M253.5,326.4c-1.8-0.1-3.7-0.3-5.5-0.6c5.2-1.9,12.5-4.3,16.7-6.6c2.4-1.4,5-3.1,7.5-4.2
			c4.5-2.1,9.7-2.1,14.4-0.4c0.4,0.2,0.3,0.9,0,1.1l-0.1,0.1l-0.2,0.2c-5.9,5.9-13.6,9.2-21.7,10.3
			C260.9,326.3,257.2,326.4,253.5,326.4z M270.5,317.8c1.6-1.1,3.4-2,5.2-2.5c1-0.2,1.9-0.4,2.9-0.5c1-0.1,2,0,3-0.2
			c0.3-0.1,0.4-0.5,0.1-0.5c-1.9-0.5-4.1-0.2-5.9,0.3c-1.9,0.4-3.6,1.2-5.1,2.3c-1.6,1.1-3.1,2.4-4.8,3.3c-2.1,1.1-4.3,1.9-6.5,2.5
			c-0.1,0.1-0.1,0.3,0.1,0.3C263.5,322,267.1,320.2,270.5,317.8z"/>
		<path class="st2" d="M234,316.8c0.2-2.4-0.1-5.2,0.8-7.5c0.2-0.3,0.4-0.5,0.8-0.5c0.3-0.1,0.6,0.2,0.8,0.4
			c0.7,0.7,1.3,1.5,1.8,2.4c0.3,1,0.8,2.3,1.3,3.2c0.7,3,0.4,6.3-1,9l-0.1,0.3c-0.6,0.9,0,2.2,1.1,2.2c5.8,0.7,11.4,3.8,14.1,9.1
			c0,0.1-0.1,0.1-0.1,0.2c-0.2,0.3-0.3,0.3-0.6,0.3c-0.6-0.1-1.4-0.4-2.2-0.8c-1.5-0.8-3.2-1.6-5-2c-1.5-0.5-3.5-0.2-5-0.5
			c-2.8-1-5.6-3.1-6.9-5.9C232.9,323.4,234.1,320.1,234,316.8z M239,318c0.3-1.4,0-2.9-0.4-4.2c-0.2-0.7-0.5-1.3-0.8-1.9
			c-0.3-0.6-0.7-1.2-1.3-1.7c-0.1-0.1-0.1,0-0.1,0.1c0.3,0.6,0.8,1.1,1.1,1.7c0.3,0.6,0.6,1.2,0.8,1.9c0.4,1.4,0.3,2.7,0.4,4.1
			C238.5,318.2,238.9,318.3,239,318z M242.1,331.8c-0.8,0-1.7,0-2.3-0.6c-0.1-0.1-0.1,0.1-0.1,0.1c0.5,0.7,1.3,0.9,2.2,0.9
			s1.6,0,2.5,0c0.2,0,0.3-0.3,0.1-0.3C243.6,331.6,242.8,331.7,242.1,331.8z"/>
		<g>
			<path class="st3" d="M256.4,332.5c-1-1.7-0.6-3.8-0.3-5.5c0.3-1.7,0.7-3.3,1-5c0.5-2.6,0.3-5.2,1.4-7.7c1-1.5,2.3-1,3.4,0.1
				c-1.2-5.6-0.9-11.5,1.1-16.9c1.7-4.7,5.1-8.6,8.6-12c2-1.9,3.4-4.1,4.9-6.3c0.7-0.7,1.9-0.6,2.4,0.3c0,0,0.2,0.5,0.3,0.5
				c1.4,3.2,2.1,6.7,1.7,10.2c-0.1,2-1,4-2,5.7c-1.4,2.6-2.7,5-4,7.6c3-3.5,6.4-6.6,10.2-9.3c2.8-2.1,5.8-4,8.9-5.6
				c0.3-0.1,0.4-0.3,0.8-0.4c0.7-0.2,1.4,0.4,1.3,1.1l0,0.1l0,0.4c-0.4,6.1-2.2,12.7-6.6,17.1c6-2,12.2-3,18.4-3.6
				c1.4-0.4,2.7,1.3,1.8,2.6c-2.3,3.7-5.5,6.7-8.7,9.6c-1.5,1.4-3.1,2.7-4.8,4c4.6-1.9,9.1-2.3,15.1-0.2c1.2,0.4,1.7,1.9,0.7,2.7
				l-0.1,0.1l-0.3,0.3c-1.2,1.2-2.5,2.3-3.8,3.4c-3,2.4-6.4,4.2-9.9,5.5c5,0.3,9.8,2.9,13.3,6.7l0.5,0.5c0.5,0.6,0.3,1.4-0.4,1.8
				c-0.2,0.1-0.5,0.1-0.8,0.2c-3.5,0.2-6.6,1.3-9.9,2.4c-7.4,2.3-15.4,0.5-21.9-3.5c0.2,0.4,0.4,0.8,0.6,1.2
				c0.3,0.9-0.5,1.8-1.1,2.1c-1.3,0.4-2.6-0.3-3.6-0.7c-1.6-0.7-3.2-1.1-4.7-1.3c-1.8-0.3-3.6,0.4-5.3-0.1
				C260.5,339.1,257.9,335.9,256.4,332.5z M279.2,292.7c1.3-4,0.6-8.5-1.2-12.3c-0.1-0.1-0.2-0.5-0.3-0.6c0,0-0.1-0.1-0.2-0.1
				c-0.3,0.1-0.2,0.1-0.6,0.6c-1.6,3-4,5.7-6.4,8.1c-2.6,2.8-4.8,5.9-6,9.5c-2.1,6.3-1.9,13.2,0.2,19.4c0.3,0.7,0.6,1.4,0.9,2
				c0.4-1.1,0.7-2.4,1.1-3.5c1.2-3.3,3.7-7.4,5.4-10.5C274.4,301.1,277.1,297,279.2,292.7z M292.5,300.1c1.6-3.5,2.2-7.3,2.5-11.1
				l0,0l-0.1-0.1l-0.6,0.3c-11.5,6.3-22.1,15.9-25.8,28.8c-0.1,0.5-0.3,1.2-0.5,1.8c0.6-0.6,1.1-1.1,1.5-1.5c2.9-2.8,6-5.5,9.6-7.4
				c1.8-1,3.7-1.7,5.4-2.6C288.3,306.7,290.9,303.6,292.5,300.1z M299.5,313.5c3-2.5,5.5-5.6,8.3-8.3l0.6-0.6
				c0.1-0.1,0.1-0.1,0.1-0.2c-0.1-0.3-0.1-0.3-0.7-0.3c-12.6,1.3-25.8,5.2-35.1,14.3c-3.1,3.1-5.4,6.9-7.6,10.7
				c-0.1,0.1,0.1,0.2,0.1,0.1c3.8-0.4,7.6-1.2,11.2-2.4C285.1,324.3,292.8,319.5,299.5,313.5z M310.6,321.1l0.3-0.3l0.1-0.1
				c0.2-0.3,0.4-0.9,0-1.1c-4.6-1.6-9.9-1.6-14.4,0.4c-2.5,1.1-5.1,2.8-7.5,4.2c-4.2,2.3-11.5,4.7-16.7,6.6c1.8,0.3,3.7,0.5,5.5,0.6
				c3.7,0,7.4-0.1,11.1-0.2C297,330.2,304.7,326.9,310.6,321.1z M300.1,341.2c3.4-1,6.9-2.1,10.5-2.1c0.2,0,0.3-0.3,0.2-0.5
				l-0.5-0.4c-1.7-1.9-3.8-3.4-6-4.5c-3-1.5-6.4-1.8-9.8-1.4c-0.8,0.1-1.6,0.2-2.4,0.2c-5.2,1.1-10.6,1.3-15.9,0.9
				c-0.5,0-0.9,0-1.4,0l0.1,0.1C281.5,339.8,291,343.7,300.1,341.2z M265,337.6c1.4,0.4,3.5,0,5,0.5c1.8,0.4,3.4,1.2,5,2
				c0.7,0.4,1.5,0.8,2.2,0.8c0.3,0,0.3,0,0.6-0.3c0.1-0.1,0.1-0.1,0.1-0.2c-2.7-5.3-8.3-8.4-14-9.2c-1.1,0-1.7-1.3-1.1-2.2l0.1-0.3
				c1.4-2.7,1.7-6,1-9c-0.6-1-1-2.2-1.3-3.2c-0.5-0.8-1-1.7-1.8-2.4c-0.3-0.2-0.5-0.5-0.8-0.4c-0.3,0.1-0.6,0.3-0.8,0.5
				c-0.9,2.3-0.6,5-0.8,7.5c0,3.3-1.1,6.6-0.3,9.7C259.4,334.5,262.2,336.7,265,337.6z"/>
			<path class="st3" d="M264.4,308.6c0,0.6,0,1.2,0,1.8c0,0.1-0.1,0.1-0.1,0c-0.5-1.2-0.4-2.7-0.4-3.9c0.1-2,0.3-3.9,0.8-5.8
				c0.9-3.6,2.6-7.2,5.4-9.8c0.3-0.3,0.8,0.2,0.6,0.6c-0.9,1.3-1.8,2.5-2.6,4c-1,1.8-1.8,3.7-2.4,5.7c-0.5,1.8-0.8,3.5-1,5.4
				C264.4,307.2,264.3,308,264.4,308.6z"/>
			<path class="st3" d="M271.6,314.2c-0.1,0.1-0.2,0.1-0.2-0.1c0.5-2.1,1.5-4,2.7-5.8s2.5-3.6,4-5.2c3-3.3,6.4-6.2,10-8.7
				c0.2-0.1,0.5,0.1,0.3,0.3c-3.3,2.8-6.8,5.5-9.6,8.7c-1.4,1.5-2.7,3.2-3.9,4.9C273.5,310.3,272.6,312.2,271.6,314.2z"/>
			<path class="st3" d="M262.8,323.1c0-1.4,0.1-2.7-0.4-4.1c-0.2-0.6-0.5-1.2-0.8-1.9c-0.3-0.6-0.8-1.1-1.1-1.7
				c-0.1-0.1,0.1-0.1,0.1-0.1c0.6,0.4,1,1,1.3,1.7c0.3,0.6,0.6,1.2,0.8,1.9c0.4,1.3,0.8,2.8,0.4,4.2
				C263.2,323.5,262.8,323.4,262.8,323.1z"/>
			<path class="st3" d="M267.8,327.3c-0.1,0.1-0.2,0-0.2-0.1c1.4-2.9,3.5-5.5,5.7-7.8c2.5-2.7,5.5-4.7,8.8-6.4c1.9-1,4-1.9,6.1-2.7
				c0.2-0.1,0.3,0.2,0.1,0.3c-3.3,1.6-6.6,3.4-9.7,5.5s-5.6,4.7-7.9,7.6C269.7,324.8,268.7,326,267.8,327.3z"/>
			<path class="st3" d="M289,319.7c2.7-2,5.4-4.2,8.1-6.3c1.4-1.1,2.7-2.3,4.1-3.5c1.3-1.1,2.6-2.4,3.9-3.4c0.3-0.2,0.7,0.2,0.5,0.5
				c-1.1,1.3-2.4,2.4-3.7,3.6c-1.4,1.2-2.8,2.4-4.2,3.5c-2.7,2.2-5.6,4.1-8.5,6C289,320.1,288.8,319.8,289,319.7z"/>
			<path class="st3" d="M283.6,327.8c2.3-0.6,4.5-1.4,6.5-2.5c1.7-0.9,3.3-2.1,4.8-3.3c1.5-1.1,3.3-1.9,5.1-2.3
				c1.9-0.4,4-0.8,5.9-0.3c0.3,0.1,0.2,0.5-0.1,0.5c-1,0.1-2,0.1-3,0.2c-1,0.1-2,0.2-2.9,0.5c-1.9,0.5-3.6,1.3-5.2,2.5
				c-3.4,2.4-7,4.2-11.1,5C283.5,328,283.5,327.8,283.6,327.8z"/>
			<path class="st3" d="M268.6,337.4c-0.8,0-1.6,0-2.5,0c-0.8,0-1.6-0.2-2.2-0.9c0-0.1,0.1-0.1,0.1-0.1c0.6,0.6,1.5,0.7,2.3,0.6
				c0.8,0,1.5-0.2,2.2,0.1C268.9,337.1,268.8,337.4,268.6,337.4z"/>
			<path class="st3" d="M303.2,338.9c0.3-0.1,0.5,0.4,0.1,0.5c-5.6,1.7-12.3,3-17.7,0c-0.1-0.1-0.1-0.3,0.1-0.2
				c2.6,1.2,5.7,1.4,8.6,1.3C297.4,340.3,300.3,339.5,303.2,338.9z"/>
		</g>
	</g>
	<path class="st3" d="M335.9,18.5c-0.4-0.3-0.9-0.5-1.4-0.8c-1.8-0.9-3.8-1.2-5.7-1.1c-0.5,0.1-1.4,0.2-1.7,0.8
		c-0.2,0.4-0.2,0.8-0.1,1.2c-3.6-1.8-8-2.4-12-1.6c-9.3,1.6-16.5,9.6-18.8,18.4c-1.3,4.2-1.6,8.7-1,13.1c0.1,0.5,0.1,1.1,0.7,1
		c0.2,0,0.2-0.2,0.3-0.2c0.9-3.1,1.7-6.1,2.9-9.1c2.9-6.9,8.7-14.1,16.4-15.1c-9.7,4.5-16.2,14.4-19.2,24.4c0,0.2-0.2,0.6-0.1,0.9
		c0.1,0.3,0.5,0.4,0.8,0.2c-0.2,0.4-0.3,0.8-0.2,1.2c0.2,0.2,0.2,0.2,0.3,0.2c6-0.1,11.9-1.6,17.4-3.9c4.6-1.8,8.6-4.9,12.1-8.5
		c-1.6,4.4-6,7.5-10.1,9.6c-5.3,2.9-11.6,3.5-17.6,2.8c-0.1,0-0.3,0-0.4-0.1c-0.4-0.1-0.9,0.3-0.9,0.6c-0.2,0.4,0.2,0.9,0.6,1
		c0.8,0.2,1.6,0.5,2.4,0.8c4.4,1.2,9,1.6,13.5,1.3c9.1-0.5,18.4-6.4,20.9-15.5c0.9-3.1,1-6.4,0.4-9.6c0.5,0,0.9-0.3,1.3-0.8
		c2.7-3.6,2.9-7.8-0.1-10.4c1-1.5,2.4-2.8,3.8-3.9c0.3-0.2,0.4-0.7,0.1-1l0,0c-0.2-0.3-0.7-0.3-1-0.1
		C338.1,15.3,336.9,16.8,335.9,18.5z M329.5,46.9c-5.9,6.8-15.6,8.4-24.1,7.1c-1.4-0.2-2.7-0.5-4.1-0.9c3.7,0.2,8.2-0.2,11.7-1.3
		c7-2.4,15-7.2,16-15.2c0.1-0.5-0.2-0.9-0.7-0.9c-0.3-0.1-0.6,0.1-0.8,0.3c-3.5,4.6-7.9,8.8-13.3,11.2c-5.3,2.4-11.2,3.9-17,4.1l0,0
		v-0.1c0-0.5,0.4-0.8,0.8-1.2c3-2.2,6.8-2.9,10.1-4.6c6.8-3.4,12-9,16.7-14.7c0.5-0.5-0.1-1.6-0.9-1.3c-4.7,1.3-9.3,3.5-13,6.6
		c-4.9,4.6-9.3,9.3-14.1,13.8c0-0.2,0.1-0.4,0.1-0.4c2.5-8.4,7.6-16.5,15-21.4c2.5-1.8,5.4-2.7,8.5-3.1c0.8-0.1,0.8-1.3,0-1.4
		c-8.5-1.3-16.2,4.6-20,11.8c-2.2,3.7-3.4,8-4.5,12.1c-0.2-4,0.2-8,1.4-11.9c2.3-8.3,9.1-15.9,17.8-17.3c5.6-0.9,11.9,0.7,15.5,5
		C335.9,30,335.5,40.7,329.5,46.9z M298.5,49.1c2.7-2.6,5.6-5.1,8.2-7.8c3.1-3.1,6.4-6,10.4-7.8c1.6-0.8,3.4-1.4,5.1-1.9
		C318.3,37,313.6,42,307.7,45C306.2,45.9,301.1,47.3,298.5,49.1z M335.5,29c-0.6-0.6-0.6-2-1-3.1c-0.9-2.3-2.4-4-4.2-5.5
		c-0.8-0.7-1.8-1.4-2.2-2.4c1.7-0.5,4.2-0.2,5.9,0.5C338,20.8,337.9,25.7,335.5,29z"/>
	
		<image style="display:none;overflow:visible;" width="127" height="500" xlink:href="../../../../MINTERO Final Project Content/About/Images/whiteperfume.png"  transform="matrix(0.5564 -0.134 0.134 0.5564 128.6897 21.0114)">
	</image>
</g>
</svg>
