<?xml version="1.0" encoding="utf-8"?>
<!-- Generator: Adobe Illustrator 27.3.1, SVG Export Plug-In . SVG Version: 6.00 Build 0)  -->
<svg version="1.1" id="Layer_1" xmlns="http://www.w3.org/2000/svg" xmlns:xlink="http://www.w3.org/1999/xlink" x="0px" y="0px"
	 viewBox="0 0 374 208" style="enable-background:new 0 0 374 208;" xml:space="preserve">
<style type="text/css">
	.st0{display:none;}
	.st1{display:inline;}
	.st2{fill:none;}
	.st3{fill:#00703C;}
	.st4{display:inline;fill:none;}
</style>
<g id="oFd2rn.tif" class="st0">
	
		<image style="display:inline;overflow:visible;" width="400" height="282" id="Layer_0" xlink:href="97335E1453D4540F.png"  transform="matrix(1.1123 0 0 1.1123 -34.1 -29.6657)">
	</image>
</g>
<g class="st0">
	<g class="st1">
		<path class="st2" d="M339.2,120.2c-2.9-1.4-5.9-2.7-9-3.9c-1.9-0.6-3.9-1.3-5.8-1.7c0.4,0.3,0.8,0.7,1.2,1.1
			c0.6,0.5,1.2,0.9,1.7,1.4c2.6,2.2,5.1,4.6,7.2,7.2c1.3,1.4,2.5,2.8,3.5,3.9c1.7,2.3,3.4,5,5.3,7c3.4,3.8,8.5,5.9,13.5,6.3
			c0.5,0,0.9-0.5,0.8-0.9c-2.7-7.2-7.7-13.7-14.3-17.9C342,121.8,340.6,120.9,339.2,120.2z M350.1,137.4c1.6,0.9,3.2,1.4,4.9,2
			c0.3,0.1,0.2,0.5-0.2,0.5c-3.6-0.2-7-2.7-9.5-5c-2.8-2.6-5.1-5.7-7.3-8.9c-0.2-0.2,0.2-0.5,0.3-0.2c2.3,2.9,4.5,5.9,7.3,8.5
			C347,135.4,348.4,136.5,350.1,137.4z"/>
		<path class="st2" d="M321.3,129.2c-0.6-1.3-1-2.8-1.5-4.3c0-0.1-0.1-0.2-0.1-0.2c-0.6-1.9-1.2-3.9-1.7-5.6
			c-0.2,0.9-0.2,1.8-0.3,2.8c-3.3,13.6,1.9,27.6,9.6,38.8c0,0,0.1,0.1,0.1,0.2c1.6-3.4,2.8-7,3.2-10.7c0.3-3.8-0.6-7.7-2.9-10.7
			S322.8,133,321.3,129.2z M327.1,157c0,0.2-0.2,0.1-0.2,0c0.6-2.8,1.1-5.5,1.3-8.3c0.1-2.7-0.5-5.1-1.5-7.6
			c-0.1-0.2,0.2-0.3,0.3-0.2c1.3,2.1,1.7,4.8,1.7,7.3C328.6,151.2,327.9,154.2,327.1,157z"/>
		<path class="st2" d="M333.6,125.2c-3.6-3.6-8.2-7.4-11.2-10.2c-0.6-0.5-1.3-0.9-2-1.3c-0.5-0.2-0.7-0.6-0.9-0.1
			c-0.2,2.9,0.2,5.8,0.8,8.5c0.2,0.5,0.2,0.9,0.3,1.2c0.4,1.4,0.9,2.8,1.3,4.1c4.4,10.8,14,19.7,23.8,25.9l1.4,0.9
			c0.5,0.4,0.8,0.2,0.8-0.2C345.4,143.4,340.5,133.4,333.6,125.2z M338.5,145.4c-1.6-1.1-3-2.4-4.3-3.7
			c-5.7-5.6-10.2-12.6-12.2-20.4c0-0.2,0.2-0.2,0.2-0.1c1.8,4.7,4,9.2,7,13.3c2.8,3.9,6.2,7.3,9.8,10.3
			C339.2,145.1,338.8,145.7,338.5,145.4z"/>
		<path class="st2" d="M319,112.2C319,112.1,319.1,112.1,319,112.2C319.1,112.1,319,112.1,319,112.2C319,112.1,319,112.1,319,112.2z
			"/>
		<path class="st2" d="M316.1,123c0.2-0.7,0.3-1.4,0.4-2.2h-0.1c-0.1,0.1-0.3,0.2-0.4,0.3c-0.2,0.2-0.5,0.5-0.7,0.7
			s-0.5,0.5-0.8,0.7c-4.2,3.9-7.4,8.8-9.2,14.3c-1.9,5.1-1.1,10.4-0.1,15.6c0.2,1.9,0.2,3.9,0.1,5.8c0,0.1,0,0.1,0.1,0.1
			c5.2-3.6,9.1-9.6,9.2-16.1c0.2-3.6,0.4-7.3,0.7-10.9C315.3,128.6,315.5,125.8,316.1,123z M309.9,131.9c-0.7,1.2-1.3,2.4-1.9,3.7
			c-1.1,2.6-2.1,5.2-3,7.9c0,0.1-0.2,0-0.1,0c0.8-2.8,1.3-5.6,2.5-8.3c0.6-1.4,1.3-2.8,2-4.1c0.7-1.2,1.4-2.4,2.5-3.3
			c0.2-0.2,0.6,0.1,0.5,0.3C311.6,129.4,310.6,130.6,309.9,131.9z"/>
		<path class="st2" d="M328.9,113.6c6.2,2.6,12.3,5.8,18.2,9.1c3,1.7,6.3,2.7,9.7,2.5c2.8-0.1,5.5-0.8,8.1-1.8
			c0.2-0.1,0.3-0.4,0.2-0.6c-0.1-0.1-0.3-0.2-0.4-0.2c-3.2-1.5-5.8-3.9-8.5-6.1c-7.5-5.9-18.2-6.2-26.9-3.1
			C329.3,113.5,329.1,113.6,328.9,113.6z M339,113.2c3.3-0.5,6.6-0.1,9.8,1c1.6,0.6,3,1.3,4.4,2.1c1.3,0.9,2.9,1.8,3.9,3.2
			c0.2,0.2-0.1,0.5-0.3,0.3c-1.3-0.9-2.4-2.1-3.9-2.9c-1.3-0.9-2.8-1.5-4.3-2.1c-3.1-1.1-6.3-1.7-9.6-1.5
			C338.9,113.3,338.9,113.2,339,113.2z"/>
		<path class="st2" d="M252.6,157.2c2.4-3.6,5.5-7,8.2-10.3c-0.6,0.3-1.2,0.6-1.7,0.8c-19.3,6.5-32.6,23.5-40.5,41.4
			c-0.1,0.2-0.2,0.4-0.2,0.4c0,0.1,0.1,0.2,0.2,0.2l0,0h0.2l0.6-0.1c5.2-0.8,10.4-2.2,15.1-4.7c4.9-2.7,9-6.9,10.9-12.1
			C247.2,167.4,249.2,161.9,252.6,157.2z M234.6,167.7c-3.1,3.7-5.8,7.7-8.5,11.7c-0.2,0.2-0.6,0-0.4-0.2c1.3-2.4,2.8-4.7,4.4-7
			c2.8-3.9,6-7.7,9.6-11.1c3.6-3.2,7.5-6.2,12.1-7.9c0.1-0.1,0.2,0.2,0.1,0.2c-2.4,1.3-4.7,2.7-6.9,4.3
			C241.2,160.5,237.7,163.9,234.6,167.7z"/>
		<path class="st2" d="M203.3,166.3c2.1,0.9,4.5,1.4,6.8,1.7c5.5,0.8,11.1,0,15.5-3.4c4.6-3.2,9.2-6.3,13.8-9.3
			c4.7-3.1,9.2-6.4,14.4-8.8c1.7-0.8,3.8-1.3,5.4-2.1c-1.8-1.2-5.1-1.7-7.5-2.1c-5.5-0.8-11-0.7-16.3,0.5
			c-8.1,1.7-15.3,6.1-20.7,12.2c-1.8,2.1-3.6,4.3-5.8,6.1c-1.7,1.6-3.8,3.1-5.7,4.4C203.1,165.7,203.1,166.2,203.3,166.3z
			 M218.5,153.7c1.2-1.3,2.5-2.5,3.9-3.6c3.7-2.8,7.9-4.7,12.3-5.9c2.1-0.6,4.1-0.9,6.2-1c1.5-0.1,3.2-0.3,4.7,0.1
			c0.1,0,0.1,0.2,0,0.2c-1.7,0.4-3.6,0.3-5.3,0.6c-4.5,0.6-8.8,2.1-12.8,4.3c-3.1,1.7-5.8,3.9-8.5,6.1
			C218.7,154.6,218.2,154.1,218.5,153.7z"/>
		<path class="st2" d="M249,104.8c1.8-0.2,3.6-0.6,5.3-1.1c-6.1-2.4-12.6-4.1-19.2-3.6c-1.8,0-6.8,1.5-10,1.4
			c3.6,0.7,7.3,1.3,11,2.3C240.3,104.7,244.7,105.4,249,104.8z"/>
		<path class="st2" d="M252.4,86.9c-8.5-2.5-17.6,1.3-24.1,6.8c-1,0.9-2.1,1.9-3,2.9c3-2.1,7-4.2,10.6-5.1
			c7.2-1.6,16.4-1.9,21.6,4.3c0.3,0.3,0.2,0.9-0.1,1.1c-0.2,0.2-0.6,0.2-0.9,0.2c-5.4-2.1-11.3-3.2-17.1-2.4s-11.5,2.6-16.5,5.5l0,0
			v0.1c0.2,0.4,0.8,0.5,1.3,0.6c3.7,0.3,7.2-1.1,10.8-1.5c7.4-0.8,14.9,1.2,21.9,3.6c0.8,0.2,0.7,1.3,0,1.5
			c-4.7,1.4-9.6,2.1-14.5,1.3c-6.4-1.2-12.6-2.8-19-4.1c0.1,0.2,0.2,0.2,0.2,0.2c6.6,5.8,15.2,9.9,24,10.1c3.1,0.2,6-0.6,8.8-1.9
			c0.7-0.4,1.4,0.6,0.8,1.1c-6.3,5.7-16,4.7-23.1,0.8c-3.9-2-7-5-10.2-7.8c2,3.5,4.4,6.7,7.5,9.2c6.3,5.8,16,8.5,24.2,5.1
			c5.1-2.2,9.6-6.9,10.3-12.5C266.8,97.8,260.8,89.1,252.4,86.9z M254.9,97.9c-5.6-1.7-11.4-2.2-17.2-1.6c-0.3,0-0.4-0.4-0.1-0.5
			c5.8-0.9,11.9-0.4,17.5,1.7C255.2,97.7,255.1,98,254.9,97.9z M244.4,111.1c-3.2-0.2-6.5-1.2-9.4-2.4c-1.6-0.7-3.1-1.4-4.5-2.3
			c-1-0.7-2.2-1.4-3-2.4c-0.2-0.2,0.1-0.3,0.2-0.2c1.1,0.7,2.1,1.6,3.2,2.3c1.4,0.9,2.8,1.7,4.3,2.4c2.9,1.3,6.1,1.9,9.2,2.4
			C244.6,110.8,244.6,111.1,244.4,111.1z M261.5,95.2c-1.3-1.7-2.8-3.4-4.7-4.7s-4-2.1-6.2-2.7c-0.1,0-0.1-0.2,0-0.2
			c4.5,0.6,8.8,3.4,11,7.3C261.7,95.2,261.6,95.3,261.5,95.2z"/>
		<path class="st2" d="M273.2,144.7l0.1-1.2c0-0.4,0-0.9,0-0.9c0-0.2-0.4-0.4-0.6-0.2c-5.3,3.4-10.6,7.2-14.5,12.1
			c-11.9,14.2-15.9,33.4-16.2,51.6c-0.2,0.9,0.6,1.3,1.1,0.9l0.8-0.9c0.9-1.2,3.8-4.3,4.9-5.4C262.6,185.3,272.4,165.6,273.2,144.7z
			 M254.9,190.2c-1.5,2.2-3,4.3-4.7,6.5c-1.5,2-2.9,3.9-4.7,5.7c-0.3,0.3-0.9-0.1-0.6-0.5c1.4-2,2.9-3.9,4.4-5.8
			c1.6-2.1,3.1-4.2,4.6-6.3c2.8-4,5.5-8.1,8.1-12.3c0.1-0.2,0.4,0,0.3,0.2C260.1,182,257.7,186.1,254.9,190.2z M270.3,146.4
			c-1.7,1.4-3.3,2.8-4.9,4.3c-3.8,3.6-7.4,7.4-10,12c-2.6,4.7-4.9,9.6-6.8,14.6c-0.1,0.2-0.4,0.1-0.3-0.2c0.9-3.1,2-6.2,3.3-9.1
			c2.1-4.8,4.8-9.3,8.4-13.3c3-3.3,6.4-6.3,10.2-8.7C270.3,146.2,270.5,146.3,270.3,146.4z"/>
		<path class="st2" d="M259.3,141.9c4.4,0.8,9.2,0,13-2.4l0.4-0.2c1-0.8,2.6-0.2,2.8,1.1c1.7,8.2,7.2,15.9,15.2,19
			c0.4-0.2,0.9-0.8,0.7-1.3c-1.1-3.3-3.9-6.3-4.8-9.9c-0.9-2.1-0.6-5-1.3-7c-1.7-4-5.4-7.6-9.6-9.2c-2.3-0.6-4.4-0.2-6.7,0.2
			c-2.4,0.5-4.9,0.9-7.3,1.3c-3.6,0.6-7.5,0.5-10.7,2.1c-2.3,1.7,1.4,3.6,2.8,4.4c0.4,0.2,0.7,0.4,1.1,0.6c0.5,0.1,0.9,0.2,1.4,0.3
			C257.1,141.1,258.2,141.4,259.3,141.9z M283.1,140c0.9,0.6,1.3,1.6,1.5,2.6c0.1,0.6,0.1,1.3,0.2,1.8c0,0.6,0.1,1.3,0.2,2
			c0,0.2-0.3,0.3-0.4,0.1c-0.5-1.1-0.3-2.4-0.4-3.6c-0.1-1-0.4-2.1-1.2-2.8C282.9,140.1,283,139.9,283.1,140z M252.4,137.7
			c-0.1-0.1,0-0.2,0.1-0.2c0.9,0.4,1.7,1,2.5,1.4c0.9,0.4,1.9,0.8,2.8,0.9c2,0.5,3.9,0.2,5.9,0c0.3,0,0.4,0.4,0.2,0.5
			c-2,0.6-4.2,0.3-6.2-0.2c-1-0.2-2.1-0.6-3-1C254,138.8,253,138.4,252.4,137.7z"/>
		<path class="st2" d="M279.8,155.2c0.1,1,0.2,2.1,0.2,3.1c1.1,7.2,1.5,14.5,0.6,21.6c0,1.3,0,2.7-0.1,4c-0.5,8.8,4,17.2,11.3,22.4
			c0.3,0.2,0.9-0.1,0.8-0.5c-0.1-2.6,0-5.3,0.4-7.9c1.5-7,3.1-14.3,0.8-21.4C291.6,168.1,286.4,160.7,279.8,155.2z M290,170.4
			c4.9,7.4,3.8,16.8,2.1,25c-0.1,0.4-0.6,0.3-0.6-0.1c0.6-4.5,1.4-8.9,1.2-13.4c-0.2-3.9-1-8-3-11.4
			C289.7,170.4,289.9,170.3,290,170.4z"/>
		<path class="st2" d="M277.9,159.6c-0.4-2.8-0.9-5.6-1.8-8.4c-2.1,7.7-4.8,19-7.7,25.6c-2.9,6-6.6,12.1-6.6,19
			c-0.1,4,0.7,8.1,2.3,11.8c0.2,0.6,0.4,1.2,1,1.3c0.6,0.1,0.9-0.1,1.3-0.4c3.5-4,6.3-8.6,8.5-13.4c2.6-5.9,3.9-12.3,4.2-18.8
			c0-2.4-0.1-4.7-0.2-7.1C278.5,166.1,278.2,162.8,277.9,159.6z M271.7,176.4c-0.6,1.9-1.4,3.7-2.4,5.5c-0.9,1.7-2,3.3-2.8,5.1
			c-1.1,2.2-1.8,4.7-2.1,7.1c-0.3,2.5,0,5,0,7.5c0,0.3-0.6,0.4-0.6,0.1c-0.8-2.6-0.7-5.6-0.3-8.2c0.3-2.4,1.1-4.7,2.3-6.9
			c0.9-1.7,2.1-3.3,3.1-5.1c2.1-3.9,3.4-8.2,4.2-12.6c0-0.2,0.3-0.2,0.3,0.1C273,171.5,272.5,174,271.7,176.4z"/>
		<path class="st2" d="M267,98.9c-0.2,0.9,0.6,2.1,0.8,3.1c0.5,2.4,0.2,4.7-0.6,6.8c-0.3,1-0.8,2.1-0.6,3.1c1.7-0.5,3.7-2.1,4.7-3.6
			C273.4,104.5,270.8,100.4,267,98.9z M270.7,104.4c0-0.1,0.2-0.1,0.2,0c0.4,0.7,0.2,1.6,0,2.3s-0.6,1.5-1.3,2
			c-0.2,0.2-0.4-0.1-0.2-0.2c0.2-0.3,0.5-0.6,0.6-0.9s0.3-0.6,0.5-0.9C270.7,105.8,270.6,105.1,270.7,104.4z"/>
		<path class="st2" d="M387.7,91.8C387.8,91.8,387.7,92,387.7,91.8c-11.9-2.4-23.6-6.5-34.6-11.6c-8.1-3.5-15.9-7.7-22.6-13.2
			c-0.5,2.6-0.2,5.5,1.3,7.6c1.7,2.3,4.7,2.8,6.8,4.9c1.2,1,2.1,2.1,3.2,3.3c1.5,1.7,2.1,3.9,3.3,5.7c1.7,2.6,5.1,4.3,8.3,3.9
			c3.1-0.4,6.6,0.2,9.2,2.1c2.1,1.4,3.8,3.3,5.8,4.7c2.8,1,6.1,0.7,9.2,0.4c3-0.3,6.1,0.1,9,0.9c1.5,0.4,2.8,1.1,4.1,1.4
			c2.7,0.6,5.5,0.4,8.3-0.2c3.6-0.7,7.5-0.7,11.1-0.1c-1.6-1.4-3-3-4.2-4.7c-2.3-3.2-3.3-7.5-7.1-9.4c-3.7-1.9-7.5-4-10.5-7
			c-3.7-3.9-7-8.3-12.2-9.9c-1.3-0.3-2.6,0-4-0.2c-4.7-0.6-7.4-4.5-10.3-7.7l0,0h-0.1c-0.5-0.4-1-0.8-1.5-1.1
			c-1.6-0.9-3.6-1.9-5.5-1.8c-2.5,0.3-5.6,2-8.5,2.1c-2.9,0.4-6.2-0.5-8.9-1.1c-2.4-0.5-4.7,0.9-5.8,3.1c-0.2,0.2-0.2,0.6-0.3,0.8
			c7.7,4.4,15.4,9.2,23.1,13.4C365,83.4,376.2,88,387.7,91.8z"/>
		<path class="st2" d="M309.2,124.3c1.7-0.4,3.2-1.1,4.3-2.1c0.4-0.4,0.8-0.8,1.3-1.1c2.3-2.4,3.5-5.8,3.1-9.2
			c-0.1-0.7,0.7-1.2,1.3-0.8c3.6,1.4,7.7,1.8,11.3,0.5c1.7-0.6,3.3-1.5,4.7-2.6c0.1-0.1,0.1-0.3-0.1-0.4c-3.5-2.5-7.7-3.9-12.1-3.8
			c-3.3-0.1-6.4,0.3-8.8,2.7C309.3,111.4,308.1,118.4,309.2,124.3z M314.6,117.5c0.9-1.7,1-3.7,1.5-5.6c0.1-0.3,0.6-0.2,0.6,0.1
			c-0.2,3.5-1.3,8.3-5.3,9.4c-0.2,0.1-0.5-0.3-0.2-0.4C312.7,120.2,313.8,118.9,314.6,117.5z"/>
		<path class="st2" d="M284.1,68.4c-5.2-0.7-10.4-0.2-15.6-0.8c-5.1-0.9-10.9-2.4-14.9-5c4.8,2,10,3.3,15.1,3.7
			c5.2,0.2,10.5-0.4,15.7,0.2c5.2,0.2,10.4,2,15.5,2.8c2,0.2,3.9,0.4,5.9,0.3c0-0.1,0.1-0.1,0.1-0.2c-0.2-0.8-2-1.7-2.9-2.2
			c-3-1.4-6.2-2.5-9.6-2.9c-1.7-0.2-3.4-0.2-5.3-0.6c-4.7-0.6-8.5-3.8-11.6-6.9c-1-0.9-2.5-1-3.9-0.9c-1.6,0.2-3.1,1.3-4.7,1.7
			c-2.8,0.7-5.8,0.7-8.6-0.4c-1.7-0.7-3-1.3-4.6-1.4c-3.6-0.4-6,1.6-9.2,3.1c-4.4,2-9.6,1.4-13.9-0.5c1.7,2.4,3.7,4.4,6,6.2
			c2.8,2.1,6.1,3.7,9.6,3.9c1.9,0.1,3.9,0.5,5.6,1.5c1.7,0.9,2.6,2.7,4.1,3.7c1.3,0.9,3,1.3,4.6,1c0.8-0.2,1.7-0.5,2.8-0.6
			c3-0.2,5.9,1.2,8.2,2.9c2.8,2,6.6,1.9,9.7,0.9c1.7-0.5,2.9-1.5,4.4-2.6c1.7-1.1,3.5-1.9,5.5-2.2c1.9-0.3,3.8,0,5.5-0.2
			s3.3-0.8,4.9-1.4c0.3-0.1,0.6-0.2,1-0.5c-1.3-0.1-2.7-0.2-4-0.4C294.3,70,289.4,68.7,284.1,68.4z"/>
		<g>
			<path class="st3" d="M269.9,106.9c-0.2,0.3-0.4,0.6-0.6,0.9c-0.2,0.2,0.1,0.4,0.2,0.2c0.6-0.5,1.1-1.3,1.3-2
				c0.2-0.7,0.3-1.7,0-2.3c-0.1-0.1-0.2-0.1-0.2,0c-0.1,0.7,0,1.4-0.2,2.1C270.2,106.3,270.2,106.6,269.9,106.9z"/>
			<path class="st3" d="M250.6,87.2c-0.1,0-0.1,0.2,0,0.2c2.1,0.6,4.3,1.4,6.2,2.7c1.8,1.3,3.3,2.8,4.7,4.7c0.1,0.1,0.2,0,0.2-0.1
				C259.4,90.6,255.1,87.7,250.6,87.2z"/>
			<path class="st3" d="M254.9,97c-5.5-2.1-11.6-2.7-17.5-1.7c-0.2,0-0.2,0.5,0.1,0.5c5.8-0.6,11.6-0.1,17.2,1.6
				C255,97.4,255.2,97.1,254.9,97z"/>
			<path class="st3" d="M244.4,110.2c-3.2-0.4-6.3-1-9.2-2.4c-1.5-0.6-3-1.5-4.3-2.4c-1.1-0.7-2.1-1.6-3.2-2.3
				c-0.2-0.1-0.3,0.1-0.2,0.2c0.9,0.9,2,1.7,3,2.4c1.4,0.9,2.9,1.7,4.5,2.3c3,1.3,6.2,2.2,9.4,2.4
				C244.5,110.5,244.6,110.2,244.4,110.2z"/>
			<path class="st3" d="M202.9,167l0.2,0.1l0.5,0.2c4.7,1.6,9.9,2.2,14.9,1.3c2.8-0.3,5.5-1.8,7.8-3.4c4-2.6,8-5.1,12-7.7
				c-7.3,7-13.3,15.4-17.9,24.3c-1.1,2.2-2.3,4.6-3.2,6.9c-0.2,0.9,0.7,1.7,1.6,1.6h0.2l0.6-0.1c2.5-0.4,5-0.9,7.4-1.6
				c6.4-1.7,12.7-5.1,16.7-10.4c-2.1,8.1-3,16.7-3.2,25v2.4c0,0.3-0.1,1,0.3,1.6c0.6,1.1,2.3,1.3,3.3,0.5c4.9-3.8,8.8-8.6,12.6-13.4
				c2.2-2.8,4.3-5.8,6.2-9c-2.6,7-3.2,13.6,0.5,22.4l0.4,0.9c0.6,1.5,2.8,2,3.8,0.6c1.7-2.1,3.4-4.2,4.9-6.4
				c3.3-4.9,5.6-10.2,7-15.8c0.2,1.3,0.3,2.6,0.6,3.9c1.6,6.2,5.7,11.3,10.7,15.2c0.6,0.5,1.3,1.1,2.1,0.8c0.6-0.2,1.2-0.9,1.1-1.6
				c0-2.6,0.2-5.1,0.6-7.7c1.8-7.2,3.5-14.6,1.3-22c-1.5-5.9-4.3-11.5-8.1-16.4c0.9,0.4,1.7,0.8,2.6,1.1c0.2,0.2,0.7,0.2,0.9,0.1
				c3.2-1.4,1.4-4.6,0.3-6.6c-1.1-2.1-2.1-4.3-2.5-6.6c-0.6-2.4,0.1-5.1-0.9-7.4c-1.5-3.8-4.5-6.7-8.1-8.5c0,0,0-0.1,0.1-0.1
				c3-10.9,7.4-21.4,13-31.3c4-7.1,8.8-13.7,14.1-20c-0.5,8.9,1.6,18,6.5,25.6c-0.2,0.1-0.3,0.2-0.4,0.3c-5.1,4.5-7.3,12-4.9,18.4
				c0.2,0.4,0.6,0.6,0.9,0.6c0.7-0.2,1.4-0.4,2.1-0.7c-5.5,6.3-9.3,14.5-8.2,22.9c0.6,3.5,1.3,7,0.9,10.6c-0.3,1.3,1.1,2.1,2.1,1.3
				l0.6-0.4c5.1-3.9,8.7-10,8.8-16.4c0.1-1.8,0.2-3.6,0.2-5.4c1.4,8.5,5.3,16.8,10.2,23.9c0.1,0.1,0.2,0.4,0.3,0.5
				c0.5,0.8,1.8,0.6,2.1-0.2c0.8-1.7,1.5-3.4,2.1-5.2c1.4-4.2,1.8-8.9,0.4-13.1c4.7,4.7,10.1,8.8,15.6,12.2c0.6,0.5,1.7,0.6,2.3-0.2
				c0.3-0.4,0.4-0.9,0.2-1.3c-0.5-1.9-1-3.8-1.7-5.7c-1.4-4.3-3.2-8.5-5.4-12.6c0.2,0.2,0.3,0.4,0.5,0.6c3.5,3.7,8.4,5.9,13.4,6.4
				c0.6,0.1,1.3,0.2,1.7-0.2c0.6-0.3,0.9-1.1,0.7-1.7c-1.4-3.9-3.3-7.3-5.8-10.5c-1.6-2.1-3.5-4-5.5-5.8c5.4,2.7,11.9,2.5,17.4,0.2
				l0.6-0.2c0.6-0.2,0.9-1.1,0.5-1.6c-0.2-0.2-0.5-0.3-0.6-0.5c-3.2-1.5-5.7-3.8-8.4-6.1c-6.2-5.1-14.6-6.4-22.5-5.1
				c0.4-0.2,0.8-0.6,1.2-0.8c0.5-0.3,0.9-0.8,0.9-1.3c0-0.6-0.6-0.9-1-1.3c-3.5-2.5-7.7-4-12.1-3.9c-2.9-0.2-6.2,0.2-8.8,1.9
				c-4.9-8.4-6.2-18.4-4.7-27.9c4.8-5.4,10.1-10.3,15.7-14.8c0.9,0.9,1.8,1.7,2.8,2.5c-1,3.7-0.6,8.1,1.6,10.9
				c0.9,1.3,2.4,2.4,3.8,3.1c2.6,1.3,4.5,3,6.2,5.1c1.3,1.6,2.1,3.7,3.2,5.5c1.8,2.7,4.9,4.4,8.1,4.8c2.2,0.2,4.3-0.6,6.5,0
				c3.6,0.6,5.8,3.4,8.6,5.5c0.6,0.5,1.7,1,2.3,1.1c3,0.7,6.2,0.4,9.1,0.1c2.8-0.3,5.6,0,8.4,0.6c2.6,0.9,5.8,2,8.8,1.7
				c3-0.2,5.7-1.2,8.6-1.3c2.4-0.2,5,0,7.5,0.4c0.3,0.1,0.6,0.2,0.9,0.2s0.6-0.2,0.8-0.2c0-0.2-0.1-0.5-0.2-0.7
				c-0.2-0.2-0.2-0.2-0.3-0.3l-0.4-0.3c-1.7-1.6-3.3-3.4-4.6-5.3c-2.2-3.6-3.4-8.1-7.3-10.2c-3.6-2-7.1-4-10-7
				c-3.2-3.6-6.6-7.6-10.9-9.9c-1.9-1.1-4.3-1-6.5-1.1c-4-0.5-7-5.2-9-7.2c-1.8-1.5-3.9-2.7-6.2-3.2c-3.9-1.2-7.3,1.7-11.1,1.7
				c-4.4,0.7-9.1-2.8-13.3-0.3c-1.7,0.9-3,2.5-3.8,4.3c-0.8-0.5-1.6-0.9-2.4-1.3c13.3-10.7,28.5-18.6,44.7-23.5
				c3.7-1.3,1.9-6.6-1.8-5.5c-21.7,7-41.3,19.6-57,35.9c-1.3,0.2-2.6,0.5-3.9,0.6c-0.2-3.7-6.4-5.4-9.3-6.6
				c-4.8-2-10.4-0.8-14.9-3.5c-2.4-1.2-3.8-3.1-5.9-4.7c-2.4-1.9-6.3-1.9-8.9-0.5c-2.8,1.4-6.1,1.9-9.1,0.8
				c-1.6-0.6-3.6-1.5-5.5-1.4c-3.8-0.4-7.3,2.1-10.2,3.7c-4.6,2.2-9.9,1.4-14.5-0.6c-0.6-0.2-1.1,0.4-0.7,0.9
				c1.9,3.2,4.3,6.1,7.3,8.4c1.5,1.2,3.1,2.2,4.8,2.9c3.2,1.8,7.3,0.9,10.4,2.8c1.6,0.9,2.4,2.6,3.9,3.7c1.7,1.2,3.9,1.7,5.9,1.3
				c2.6-0.7,5.1-0.6,7.3,0.8c1.5,0.9,3.1,2.4,4.9,2.9c4.7,1.5,10.1,0.3,13.8-2.8c3.1-2.2,6.5-1.8,10-2c2.1-0.2,3.9-0.8,5.6-1.5
				c1.5-0.6,3.4-1.4,4.3-2.8c0.9-0.1,1.7-0.2,2.6-0.3c-9.8,10.5-17.9,22.5-23.9,35.5c-2,0.9-4.3,1.6-6.6,1.6
				c-2.2,0.1-4.5-0.4-6.6-1.3c1.1-3.8-1.3-7.3-5.5-8.8c-0.5-0.2-1-0.2-1.4,0c-1.1-3-3-5.8-5.5-7.9c-7-6.4-17.9-6.4-25.9-2.1
				c-4,2.1-7.7,4.9-10.7,8.2c-0.6,0.6-1.1,1.3-1.7,1.9c-0.4,0.3-0.3,0.9,0,1.3c0.2,0.2,0.9,0.3,1.1,0c0-0.1,0.3-0.2,0.3-0.2
				c4.7-3.6,10.3-6.5,16.4-7c4.6-0.4,9.9-0.1,13.6,2.8c-4.8-1.2-9.9-1.7-14.7-0.8c-5.8,1-11.7,2.8-16.7,5.9
				c-0.1,0.1-0.2,0.1-0.2,0.3c0.2,0.4,0.4,0.7,0.8,0.9c-0.2-0.1-0.6,0.2-0.6,0.6c0,0.2,0.5,0.6,0.6,0.7c7.8,6.8,18.6,11.8,29.1,10.5
				c-7,3.3-15.7,0.3-21.8-3.9c-2.5-1.8-4.8-4-7.3-6.1c-0.2-0.1-0.4-0.1-0.6-0.1c-0.6,0.3-0.2,0.8-0.1,1.3c1.8,3.9,4.5,7.6,7.7,10.5
				c6.6,6.2,16.9,9.1,25.5,5.5c3.7-1.6,7.1-4.3,9.2-7.7c0.1,0.4,0.2,0.7,0.6,0.9c0.6,0.3,1.4,0,1.9-0.2c1.7-0.9,3.2-2.3,4.3-3.9
				c0.3-0.5,0.6-0.9,0.8-1.4c3.7,2,8.1,2.5,12.2,1.6c-3.1,7-5.5,14.1-7.3,21.5c-0.5-0.2-1-0.4-1.5-0.6c-2.5-1.2-5.5-0.4-7.9,0.3
				c-2.4,0.6-4.7,1.3-7.2,1.8c-3.6,1-7.5,0.9-10.9,2.8c-2.2,1.7-0.9,3.6,1.2,5.1c-5.5-0.8-11.2-0.6-16.7,0.6
				c-8.5,1.8-16,6.6-21.5,13.2c-3.2,4.2-7,7.7-11.3,10.7C201.4,165,201.6,166.6,202.9,167z M314.6,141.8c-0.2,6.5-4,12.4-9.2,16.1
				c-0.1,0-0.1,0-0.1-0.1c0.2-1.9,0.2-3.9-0.1-5.8c-1-5.2-1.8-10.6,0.1-15.6c1.7-5.5,5.1-10.3,9.2-14.3c0.2-0.2,0.6-0.5,0.8-0.7
				c0.2-0.2,0.5-0.5,0.7-0.7c0.1-0.1,0.3-0.2,0.4-0.3h0.1c-0.1,0.8-0.2,1.5-0.4,2.2c-0.6,2.8-0.8,5.6-0.6,8.5
				C315,134.5,314.7,138.1,314.6,141.8z M318.9,111.6L318.9,111.6L318.9,111.6L318.9,111.6z M327.4,160.2l-0.1-0.2
				c-7.7-11.2-13-25.2-9.6-38.8c0.2-0.9,0.2-1.8,0.3-2.8c0.5,1.7,1,3.7,1.7,5.6c0,0.1,0.1,0.2,0.1,0.2c0.5,1.5,0.9,3,1.5,4.3
				c1.5,3.7,4,7,6.4,10.1c2.4,3,3.2,7,2.9,10.7C330.2,153.1,328.9,156.8,327.4,160.2z M347.8,153.2c0.1,0.4-0.2,0.6-0.8,0.2
				l-1.4-0.9c-9.8-6.2-19.4-15.1-23.8-25.9c-0.5-1.3-0.9-2.7-1.3-4.1c-0.1-0.2-0.2-0.7-0.3-1.2c-0.6-2.7-0.9-5.5-0.8-8.5
				c0.2-0.6,0.5-0.2,0.9,0.1c0.7,0.4,1.3,0.9,2,1.3c3,2.8,7.7,6.7,11.2,10.2C340.5,132.8,345.2,142.9,347.8,153.2z M357.5,139.9
				c0.2,0.5-0.3,0.9-0.8,0.9c-5.1-0.4-10.1-2.5-13.5-6.3c-1.9-2.1-3.6-4.7-5.3-7c-0.9-1.2-2.1-2.5-3.5-3.9c-2.2-2.6-4.6-5-7.2-7.2
				c-0.6-0.5-1.2-0.9-1.7-1.4c-0.4-0.4-0.8-0.7-1.2-1.1c2,0.5,3.9,1.1,5.8,1.7c3,1.3,6,2.5,9,3.9c1.4,0.8,2.8,1.6,4.1,2.4
				C349.8,126.3,354.8,132.7,357.5,139.9z M356.1,115.9c2.6,2.2,5.3,4.7,8.5,6.1c0.1,0.1,0.4,0.2,0.4,0.2c0.2,0.2,0.1,0.5-0.2,0.6
				c-2.6,1-5.3,1.7-8.1,1.8c-3.5,0.2-6.7-0.9-9.7-2.5c-5.9-3.3-12-6.5-18.2-9.1c0.2-0.1,0.3-0.2,0.4-0.2
				C337.9,109.8,348.6,110,356.1,115.9z M323,104.2c4.3-0.2,8.5,1.3,12.1,3.8c0.2,0.1,0.2,0.3,0.1,0.4c-1.4,1.1-3,2.1-4.7,2.6
				c-3.6,1.3-7.7,0.9-11.3-0.5c-0.6-0.4-1.4,0.2-1.3,0.8c0.4,3.4-0.8,6.8-3.1,9.2c-0.4,0.4-0.8,0.7-1.3,1.1c-1.3,1-2.8,1.7-4.3,2.1
				c-1.1-5.9,0.2-12.9,5.1-16.9C316.6,104.5,319.7,104.1,323,104.2z M331.5,62.9c1.1-2.2,3.5-3.6,5.8-3.1c2.7,0.6,6,1.5,8.9,1.1
				c2.8,0,5.9-1.7,8.5-2.1c1.7-0.1,3.9,0.8,5.5,1.8c0.6,0.3,1,0.7,1.5,1.1h0.1l0,0c2.8,3.2,5.6,7,10.3,7.7c1.4,0.2,2.7-0.1,4,0.2
				c5.1,1.6,8.5,6.1,12.2,9.9c3,3,6.8,5.1,10.5,7c3.8,1.9,4.8,6.2,7.1,9.4c1.2,1.7,2.6,3.3,4.2,4.7c-3.7-0.6-7.5-0.6-11.1,0.1
				c-2.8,0.6-5.6,0.9-8.3,0.2c-1.3-0.3-2.6-1-4.1-1.4c-2.9-0.8-5.9-1.1-9-0.9c-3.1,0.3-6.2,0.7-9.2-0.4c-2.1-1.4-3.7-3.3-5.8-4.7
				c-2.6-1.8-6-2.5-9.2-2.1c-3.2,0.5-6.5-1.3-8.3-3.9c-1.2-1.8-1.8-3.9-3.3-5.7c-1-1.2-2-2.3-3.2-3.3c-2.1-2-5.2-2.6-6.8-4.9
				c-1.6-2.1-1.8-4.9-1.3-7.6c6.8,5.6,14.6,9.7,22.6,13.2c11.1,5.2,22.7,9.2,34.6,11.7c0.1,0,0.1-0.1,0-0.1
				c-11.5-3.9-22.7-8.5-33.4-14.1c-7.7-4.3-15.3-9.1-23.1-13.4C331.2,63.5,331.3,63.2,331.5,62.9z M302.4,71.1
				c-1.7,0.6-3.3,1.3-4.9,1.4c-1.8,0.2-3.6-0.1-5.5,0.2c-2,0.4-3.9,1.1-5.5,2.2c-1.5,1.1-2.7,2.1-4.4,2.6c-3.2,0.9-7,1-9.7-0.9
				c-2.3-1.7-5.1-3.2-8.2-2.9c-1,0.1-2,0.4-2.8,0.6c-1.6,0.3-3.3-0.2-4.6-1c-1.4-0.9-2.4-2.8-4.1-3.7c-1.7-0.9-3.7-1.4-5.6-1.4
				c-3.6-0.2-6.9-1.7-9.6-3.9c-2.3-1.7-4.3-3.9-6-6.2c4.3,1.8,9.5,2.4,13.9,0.5c3.2-1.6,5.6-3.5,9.2-3.1c1.6,0.1,2.8,0.7,4.6,1.4
				c2.8,1.1,5.8,1.1,8.6,0.4c1.7-0.4,3.2-1.4,4.7-1.7c1.3-0.2,2.8,0.1,3.9,0.9c3.2,3.2,7,6.3,11.6,6.9c1.9,0.3,3.6,0.3,5.3,0.6
				c3.3,0.4,6.5,1.5,9.6,2.9c0.9,0.4,2.7,1.4,2.9,2.2c0,0.1-0.1,0.1-0.1,0.2c-2,0.1-3.9,0-5.9-0.3c-5.1-0.9-10.3-2.6-15.5-2.8
				c-5.2-0.6-10.5,0-15.7-0.2c-5.1-0.4-10.3-1.7-15.1-3.7c4,2.6,9.9,4.1,14.9,5c5.2,0.6,10.5,0.1,15.6,0.8
				c5.3,0.3,10.2,1.6,15.4,2.5c1.3,0.2,2.7,0.3,4,0.4C303.1,70.9,302.7,71.1,302.4,71.1z M255.4,118.1c-8.1,3.4-17.9,0.7-24.2-5.1
				c-3.1-2.5-5.5-5.8-7.5-9.2c3.2,2.8,6.3,5.8,10.2,7.8c7,4,16.7,5,23.1-0.8c0.6-0.5-0.1-1.5-0.8-1.1c-2.8,1.3-5.7,2.1-8.8,1.9
				c-8.8-0.3-17.4-4.4-24-10.1l-0.2-0.2c6.4,1.3,12.7,2.9,19.1,4.1c4.9,0.7,9.8,0.1,14.5-1.3c0.8-0.2,0.8-1.3,0-1.5
				c-7-2.3-14.5-4.3-21.9-3.6c-3.6,0.4-7.2,1.8-10.8,1.5c-0.5-0.1-1-0.2-1.3-0.6c0,0,0,0,0-0.1l0,0c5.1-2.9,10.7-4.7,16.5-5.5
				c5.8-0.9,11.7,0.2,17.1,2.4c0.3,0.1,0.6,0.1,0.9-0.2s0.4-0.8,0.1-1.1c-5.1-6.2-14.4-5.9-21.6-4.3c-3.6,0.9-7.5,3-10.6,5.1
				c0.9-1,2-2,3-2.9c6.5-5.5,15.6-9.3,24.1-6.8c8.4,2.1,14.5,10.8,13.4,19.3C265,111.3,260.5,115.9,255.4,118.1z M225.1,100.9
				c3.2,0.1,8.2-1.4,10-1.4c6.6-0.6,13.1,1.2,19.2,3.6c-1.7,0.6-3.5,0.9-5.3,1.1c-4.3,0.7-8.7-0.1-12.9-1
				C232.4,102.3,228.7,101.6,225.1,100.9z M271.1,107.8c-0.9,1.5-2.9,3.1-4.7,3.6c-0.2-0.9,0.3-2.1,0.6-3.1c0.7-2.2,1-4.5,0.6-6.8
				c-0.2-1.1-1-2.3-0.8-3.1C270.7,99.8,273.3,103.9,271.1,107.8z M234.3,184.3c-4.7,2.5-9.9,3.9-15.1,4.7l-0.6,0.1h-0.2l0,0
				c-0.2,0-0.2-0.2-0.2-0.2s0.1-0.2,0.2-0.4c7.9-17.9,21.2-34.9,40.5-41.4c0.6-0.2,1.2-0.5,1.7-0.8c-2.8,3.4-5.8,6.7-8.2,10.3
				c-3.3,4.7-5.5,10.2-7.3,15.6C243.3,177.4,239.3,181.6,234.3,184.3z M248.4,200c-1,1.1-3.9,4.2-4.9,5.4l-0.8,0.9
				c-0.5,0.6-1.3,0.2-1.1-0.9c0.3-18.2,4.3-37.4,16.2-51.6c4-4.9,9.2-8.7,14.5-12.1c0.2-0.2,0.6,0,0.6,0.2c0,0,0,0.5,0,0.9l-0.1,1.2
				C272.3,165.1,262.5,184.7,248.4,200z M274.7,194.6c-2.1,4.9-5,9.4-8.5,13.4c-0.3,0.3-0.7,0.5-1.3,0.4c-0.6-0.2-0.8-0.8-1-1.3
				c-1.5-3.7-2.4-7.8-2.3-11.8c0-6.9,3.7-13,6.6-19c2.9-6.6,5.6-17.9,7.7-25.6c0.9,2.7,1.3,5.5,1.8,8.4c0.3,3.2,0.6,6.4,0.8,9.6
				c0.2,2.4,0.2,4.7,0.2,7.1C278.5,182.3,277.3,188.6,274.7,194.6z M293.9,176c2.3,7.1,0.7,14.3-0.8,21.4c-0.4,2.6-0.5,5.3-0.4,7.9
				c0.1,0.4-0.5,0.7-0.8,0.5c-7.3-5.1-11.8-13.5-11.3-22.4c0-1.3,0-2.7,0.1-4c0.9-7.1,0.5-14.5-0.6-21.6c-0.1-1-0.2-2.1-0.2-3.1
				C286.4,160.2,291.6,167.5,293.9,176z M253.7,139.5c-1.4-0.8-5.1-2.8-2.8-4.4c3.2-1.7,7.1-1.5,10.7-2.1c2.4-0.3,5-0.8,7.3-1.3
				s4.5-0.9,6.7-0.2c4.2,1.6,7.8,5.2,9.6,9.2c0.8,2,0.5,4.9,1.3,7c0.9,3.6,3.7,6.6,4.8,9.9c0.2,0.6-0.3,1.1-0.7,1.3
				c-8.1-3.2-13.5-10.8-15.2-19c-0.2-1.3-1.8-1.9-2.8-1.1l-0.4,0.2c-3.8,2.4-8.5,3.2-13,2.4c-1.1-0.5-2.3-0.8-3.1-1
				c-0.5-0.1-0.9-0.2-1.4-0.3C254.4,139.9,254,139.7,253.7,139.5z M203.2,164.9c1.9-1.3,3.9-2.8,5.7-4.4c2.1-1.8,3.9-4,5.8-6.1
				c5.4-6.2,12.6-10.6,20.7-12.2c5.4-1.2,10.9-1.3,16.3-0.5c2.4,0.4,5.7,0.9,7.5,2.1c-1.6,0.8-3.6,1.4-5.4,2.1
				c-5.2,2.4-9.6,5.8-14.4,8.8c-4.7,3.1-9.2,6.2-13.8,9.3c-4.3,3.4-10.1,4.2-15.5,3.4c-2.3-0.3-4.7-0.9-6.8-1.7
				C203,165.6,203,165.1,203.2,164.9z"/>
			<path class="st3" d="M219.1,153.8c2.7-2.2,5.4-4.4,8.5-6.1c3.9-2.1,8.3-3.6,12.8-4.3c1.7-0.2,3.6-0.2,5.3-0.6
				c0.1,0,0.1-0.2,0-0.2c-1.5-0.4-3.2-0.2-4.7-0.1c-2.1,0.2-4.2,0.5-6.2,1c-4.4,1.2-8.7,3.2-12.3,5.9c-1.4,1-2.8,2.2-3.9,3.6
				C218.1,153.4,218.7,154.1,219.1,153.8z"/>
			<path class="st3" d="M251.8,152.6c-4.6,1.7-8.5,4.7-12.1,7.9c-3.6,3.3-6.8,7.1-9.6,11.1c-1.7,2.2-3.1,4.5-4.4,7
				c-0.2,0.2,0.2,0.5,0.4,0.2c2.8-3.9,5.5-8,8.5-11.7s6.6-7.2,10.5-10c2.2-1.6,4.5-2.9,6.9-4.3C252,152.7,251.8,152.6,251.8,152.6z"
				/>
			<path class="st3" d="M263.8,139.9c0.3-0.1,0.2-0.6-0.2-0.5c-2,0.2-3.9,0.4-5.9,0c-1-0.2-2-0.6-2.8-0.9c-0.9-0.4-1.7-1-2.5-1.4
				c-0.1-0.1-0.2,0.1-0.1,0.2c0.6,0.7,1.6,1.2,2.4,1.6c0.9,0.5,2,0.8,3,1C259.7,140.3,261.9,140.5,263.8,139.9z"/>
			<path class="st3" d="M270.1,145.6c-3.8,2.4-7.2,5.4-10.2,8.7c-3.6,3.9-6.2,8.5-8.4,13.3c-1.3,3-2.4,6-3.3,9.1
				c-0.1,0.2,0.2,0.3,0.3,0.2c1.9-5,4.1-10,6.8-14.6c2.6-4.6,6.2-8.5,10-12c1.6-1.5,3.2-2.9,4.9-4.3
				C270.3,145.8,270.2,145.5,270.1,145.6z"/>
			<path class="st3" d="M262,176.8c-2.6,4.2-5.3,8.3-8.1,12.3c-1.5,2.1-3,4.3-4.6,6.3c-1.5,2-3,3.8-4.4,5.8
				c-0.3,0.4,0.2,0.8,0.6,0.5c1.7-1.7,3.2-3.7,4.7-5.7c1.6-2.1,3.2-4.3,4.7-6.5c2.8-4,5.2-8.2,7.5-12.6
				C262.4,176.8,262.1,176.7,262,176.8z"/>
			<path class="st3" d="M272.9,168.3c-0.8,4.3-2.1,8.7-4.2,12.6c-0.9,1.7-2.1,3.3-3.1,5.1c-1.2,2.1-1.9,4.4-2.3,6.9
				c-0.4,2.7-0.6,5.7,0.3,8.2c0.1,0.3,0.6,0.2,0.6-0.1c0-2.5-0.3-5,0-7.5c0.3-2.4,0.9-4.9,2.1-7.1c0.9-1.7,2-3.3,2.8-5.1
				c0.9-1.7,1.7-3.6,2.4-5.5c0.8-2.4,1.3-4.9,1.7-7.5C273.2,168.1,272.9,168.1,272.9,168.3z"/>
			<path class="st3" d="M322.1,120.7c-0.1-0.1-0.2-0.1-0.2,0.1c2.1,7.7,6.6,14.8,12.2,20.4c1.3,1.3,2.8,2.6,4.3,3.7
				c0.3,0.2,0.7-0.2,0.4-0.6c-3.6-3.1-7-6.5-9.8-10.3C326.1,129.9,323.9,125.4,322.1,120.7z"/>
			<path class="st3" d="M311.8,127.2c-1.1,0.9-1.8,2.1-2.5,3.3c-0.8,1.3-1.4,2.7-2,4.1c-1.1,2.7-1.7,5.5-2.5,8.3
				c0,0.1,0.1,0.1,0.1,0c0.8-2.7,1.9-5.4,3-7.9c0.6-1.3,1.2-2.5,1.9-3.7c0.8-1.3,1.7-2.4,2.4-3.7C312.3,127.3,312,127.1,311.8,127.2
				z"/>
			<path class="st3" d="M326.6,140.6c1.1,2.4,1.6,4.9,1.5,7.6c-0.1,2.8-0.7,5.5-1.3,8.3c0,0.2,0.2,0.2,0.2,0
				c0.8-2.8,1.5-5.8,1.5-8.8c0-2.4-0.4-5.1-1.7-7.3C326.7,140.3,326.5,140.4,326.6,140.6z"/>
			<path class="st3" d="M338,125.4c2.1,3.2,4.3,6.3,7.3,8.9c2.5,2.3,5.9,4.7,9.5,5c0.2,0,0.4-0.4,0.2-0.5c-1.7-0.6-3.3-1.1-4.9-2
				s-3.1-2-4.3-3.2c-2.8-2.5-5-5.6-7.3-8.5C338.2,124.9,337.9,125.2,338,125.4z"/>
			<path class="st3" d="M348.5,114.3c1.5,0.6,2.9,1.3,4.3,2.1c1.3,0.9,2.5,2.1,3.9,2.9c0.2,0.2,0.5-0.1,0.3-0.3
				c-0.9-1.3-2.4-2.4-3.9-3.2c-1.4-0.9-2.9-1.6-4.4-2.1c-3.2-1.1-6.5-1.4-9.8-1c-0.1,0-0.1,0.2,0,0.2
				C342.1,112.6,345.4,113.2,348.5,114.3z"/>
			<path class="st3" d="M311.1,120.3c-0.2,0.2-0.1,0.5,0.2,0.4c3.9-1.1,5.1-5.9,5.3-9.4c0-0.3-0.5-0.4-0.6-0.1
				c-0.5,1.9-0.6,3.9-1.5,5.6C313.8,118.4,312.6,119.6,311.1,120.3z"/>
			<path class="st3" d="M284.1,142.4c0.1,1.2-0.1,2.4,0.4,3.6c0.1,0.2,0.4,0.2,0.4-0.1c-0.1-0.6-0.2-1.3-0.2-2
				c0-0.6-0.1-1.3-0.2-1.8c-0.2-1-0.6-2-1.5-2.6c-0.1-0.1-0.2,0.1-0.1,0.2C283.7,140.3,284,141.4,284.1,142.4z"/>
			<path class="st3" d="M292.6,181.4c0.2,4.5-0.6,9-1.2,13.4c-0.1,0.4,0.6,0.5,0.6,0.1c1.7-8.2,2.8-17.7-2.1-25
				c-0.1-0.2-0.3,0-0.2,0.2C291.6,173.4,292.4,177.5,292.6,181.4z"/>
		</g>
	</g>
	<g class="st1">
		<path class="st2" d="M61.2,242.4c3.2,0.7,6.5,0.7,9.8,0.5c0.5,0,1.1-0.1,1.7-0.1c-0.4,0.3-0.9,0.6-1.2,0.8c-9,6-20.6,6.3-30.9,4.1
			l-0.5-0.1c0,0,0,0,0-0.1l0,0c2.2-2.2,4.6-4.2,7.3-5.5c2.8-1.3,6.1-1.8,9.1-0.9C58.1,241.6,59.6,242.1,61.2,242.4z M47.2,247.6
			c-0.2,0-0.2,0.3,0,0.4c3.6,0.4,7.2,0.4,10.7-0.1c1.7-0.2,3.4-0.6,5.2-1.1c1.6-0.5,3.3-1.1,4.7-2.1c0.1-0.1,0-0.2-0.1-0.2
			c-1.6,0.7-3.2,1.4-5,1.9c-1.6,0.5-3.3,0.8-5,1C54.3,247.7,50.8,247.6,47.2,247.6z"/>
		<path class="st2" d="M71.4,234c2.9,1.2,5.6,2.7,8.1,4.4v0.1c-3.3,1.2-6.7,2.4-10.3,2.5c-10.4,0.8-20.5-3.7-29-9.6
			c-0.3-0.2-0.4-0.3-0.3-0.5c0.1-0.1,0.1,0,0.2,0h0.7c3.1-0.2,6.3-0.7,9.5-0.7C57.4,230,64.7,231.2,71.4,234z M60,231.7
			c-2.8-0.4-5.6-0.7-8.4-0.8c-1.4,0-3-0.1-4.4,0c-1.4,0-2.8,0-4.2,0.2c-0.3,0-0.2,0.5,0,0.5c1.4,0.1,2.8,0,4.2-0.1
			c1.4,0,2.9,0,4.4,0c2.8,0.1,5.5,0.2,8.3,0.4C60.1,231.9,60.1,231.7,60,231.7z M55.6,238c-0.1,0-0.2,0.2-0.1,0.2
			c1.7,0.6,3.4,1.2,5.1,1.5c2.9,0.6,5.8,1,8.8,0.6c2.6-0.2,5.2-0.8,7.6-1.8c0.1,0,0-0.2-0.1-0.2c-1.3,0.3-2.5,0.6-3.7,0.8
			c-2.9,0.5-5.8,0.8-8.8,0.5C61.4,239.3,58.4,238.7,55.6,238z"/>
		<path class="st2" d="M75.8,230.8c-0.3-0.3-0.6-0.4-0.9-0.7c-3.1-3-6.5-5.7-10.2-7.8c-0.5-0.4-1-0.7-1.6-1.1
			c-2.3-1.5-4.1-3.5-5.2-6c-0.8-1.9-1.3-3.9-1.3-5.9v-0.5c0-0.2,0.3-0.3,0.4-0.2c2.2,1.9,4.9,3,7.5,4.2
			C71.3,216.1,75.1,223.5,75.8,230.8L75.8,230.8z M72.3,221.5c-1.8-4.7-6.5-7.3-10.9-9.3c-0.2-0.1-0.4,0.3-0.2,0.4
			c2.1,1.2,4.4,2.2,6.3,3.7c1.9,1.4,3.5,3.2,4.5,5.3C72.2,221.7,72.4,221.6,72.3,221.5z"/>
		<path class="st2" d="M71.6,246c0.8-0.5,1.7-1.1,2.5-1.6c-0.1,0.5-0.3,1.1-0.5,1.7c-2,4.9-5.5,9.2-10.2,11.9
			c-2.6,1.5-5.6,2.3-8.7,2.6c-2.8,0.2-5.6,0.6-8.2,1.6c-0.5,0.2-0.5,0.2-0.7,0.1c0,0-0.1-0.1-0.1-0.2c0,0,0.1-0.3,0.1-0.4
			c0.9-3.2,2.9-6.4,5.7-8.2c3.5-1.5,7.3-2.6,11-4C65.4,248.5,69.1,247.4,71.6,246z M60.1,257.8c-1.2,0.4-2.4,0.7-3.6,1.1
			c-0.3,0.1-0.3,0.7,0.1,0.7c3-0.2,6-1.5,8.4-3.2c1.3-0.9,2.4-2,3.5-3.1c0.7-0.7,1.5-1.6,1.8-2.6c0,0,0-0.1-0.1-0.1
			c-0.4,0.3-0.7,0.7-1,1.1c-0.4,0.4-0.8,0.9-1.3,1.3c-1.1,1-2.2,1.9-3.4,2.7C63.2,256.6,61.7,257.3,60.1,257.8z"/>
		<path class="st2" d="M73,230.5c1.1,1,2.1,2.1,3,3.3c-4.2-1.6-9.9-3.9-13.7-4.7c-2.2-0.4-4.7-0.7-6.8-1.3c-3.8-1.1-7-3.8-9-7.3
			c-0.1-0.3,0.3-0.7,0.5-0.7h0.2h0.2c6.7-0.5,13.2,1.5,18.7,5.1C68.4,226.7,70.7,228.5,73,230.5z M58.1,226.8
			c-1.6-0.2-3.1-0.6-4.5-1.3c-0.7-0.4-1.4-0.8-2-1.3c-0.7-0.5-1.2-1-1.9-1.5c-0.2-0.1-0.5,0.1-0.3,0.3c0.9,1.3,2.4,2.3,3.8,3
			c1.4,0.7,2.8,1.1,4.3,1.3c1.6,0.2,3.1,0.2,4.7,0.5c1.9,0.4,3.6,1.1,5.3,1.9c0.1,0,0.2-0.1,0.1-0.2
			C64.6,227.9,61.4,227.2,58.1,226.8z"/>
		<path class="st2" d="M79.9,246.6c-1.4,1.4-2.6,3.2-4.4,4.2c-0.3,0.1-0.5,0.1-0.7-0.1c-0.2-0.1-0.3-0.5-0.3-0.7
			c-0.1-0.8,0-1.6,0.2-2.4c0.3-0.8,0.7-1.8,0.9-2.7c1.1-2.2,3-4.1,5.3-5l0.2-0.1c0.8-0.2,1.1-1.3,0.5-1.9c-3.2-3.5-5-8.3-3.8-13
			c0,0,0.1,0,0.2,0c0.3-0.1,0.3,0,0.5,0.2c0.3,0.4,0.6,1,0.9,1.6c0.5,1.3,1.1,2.6,2,3.8c0.6,1.1,2.1,2,2.8,2.9
			c1.2,2,1.8,4.9,1.1,7.2C84.1,243.1,81.6,244.5,79.9,246.6z M77.5,243.3c-0.9,0.7-1.5,1.8-2,2.8c-0.2,0.5-0.4,1.1-0.5,1.6
			s-0.2,1.1-0.1,1.7c0,0.1,0.1,0.1,0.1,0c0.1-0.5,0.1-1.1,0.2-1.6s0.3-1.1,0.5-1.6c0.5-1.1,1.2-1.9,1.9-2.7
			C77.9,243.4,77.7,243.1,77.5,243.3z M82.8,233.2c0.5,0.4,1,0.9,1.1,1.6c0,0.1,0.1,0,0.2,0c0-0.7-0.3-1.3-0.8-1.7
			c-0.5-0.4-1-0.8-1.5-1.3c-0.1-0.1-0.3,0-0.2,0.2C81.8,232.5,82.3,232.8,82.8,233.2z"/>
		<g>
			<path class="st3" d="M74.4,225.2c-0.3,1.5-1.6,2.7-2.7,3.5c-1.1,0.9-2.2,1.7-3.2,2.6c-1.7,1.3-2.9,3.1-4.9,4
				c-1.4,0.4-1.9-0.6-2-1.8c-2.2,4-5.5,7.6-9.6,9.8c-3.5,2-7.6,2.6-11.6,2.8c-2.2,0.2-4.2,0.7-6.4,1.3c-0.8,0-1.5-0.7-1.3-1.5
				l0.1-0.4c0.8-2.7,2.3-5.2,4.3-7.1c1.1-1.2,2.7-1.9,4.2-2.4c2.2-0.8,4.3-1.7,6.4-2.5c-3.7,0.6-7.4,0.7-11.2,0.4
				c-2.8-0.2-5.6-0.6-8.4-1.2c-0.2-0.1-0.4-0.1-0.7-0.2c-0.5-0.2-0.6-0.9-0.2-1.3l0,0l0.2-0.2c3.4-3.5,8-6.6,13-7
				c-4.7-1.9-9.1-4.6-13.1-7.4c-1.1-0.5-1-2.2,0.3-2.5c3.4-1,6.9-1.2,10.4-1.3c1.7,0,3.3,0,5,0.1c-3.8-1.3-6.8-3.4-9.4-7.8
				c-0.5-0.9,0-2,1-2.1h0.2h0.3c1.4-0.1,2.8-0.1,4.1-0.1c3.1,0.1,6.1,0.8,9,1.8c-2.9-2.8-4.5-6.9-4.6-11.1v-0.5c0-0.6,0.6-1,1.2-0.9
				c0.2,0,0.4,0.2,0.6,0.3c2.2,1.7,4.8,2.7,7.3,3.7c5.7,2.5,9.7,7.8,11.5,13.6c0.1-0.4,0.2-0.7,0.3-1c0.3-0.7,1.2-0.8,1.8-0.7
				c1,0.4,1.4,1.6,1.8,2.3c0.6,1.3,1.4,2.3,2.2,3.3c0.9,1.1,2.4,1.6,3.2,2.9C75.4,219,75.3,222.3,74.4,225.2z M39.5,237.6
				c-2.9,1.7-4.8,4.9-5.7,8.2c0,0.1-0.1,0.4-0.1,0.5c0,0,0,0.1,0.1,0.2c0.2,0.1,0.2,0.1,0.7-0.1c2.6-0.9,5.4-1.4,8.2-1.6
				c3.1-0.3,6-1.1,8.7-2.6c4.6-2.8,8.1-7.1,10.1-12c0.2-0.6,0.4-1.2,0.5-1.7c-0.8,0.5-1.7,1.1-2.5,1.6c-2.5,1.4-6.2,2.6-8.8,3.6
				C46.9,235,43.1,236.1,39.5,237.6z M35.3,226.1c-2.8,1.3-5.2,3.3-7.3,5.5l0,0v0.1l0.5,0.1c10.3,2.2,21.9,1.8,30.9-4.1
				c0.3-0.2,0.8-0.5,1.2-0.8c-0.7,0.1-1.3,0.1-1.7,0.1c-3.2,0.2-6.6,0.2-9.8-0.5c-1.6-0.3-3.2-0.9-4.7-1.2
				C41.4,224.3,38.1,224.8,35.3,226.1z M38.1,214.2c-3.2,0-6.3,0.5-9.5,0.7h-0.7c-0.1,0-0.2,0-0.2,0c-0.1,0.2-0.1,0.3,0.3,0.5
				c8.4,5.8,18.5,10.3,29,9.6c3.5-0.2,6.9-1.4,10.3-2.5c0.1,0,0.1-0.2,0-0.1c-2.5-1.8-5.3-3.3-8.1-4.4
				C52.5,215.2,45.3,214.1,38.1,214.2z M35.2,203.8h-0.3h-0.2c-0.3,0.1-0.7,0.3-0.5,0.7c2,3.4,5.2,6.2,9,7.3
				c2.1,0.6,4.6,0.9,6.8,1.3c3.8,0.8,9.5,3.1,13.7,4.7c-1-1.2-2-2.2-3-3.3c-2.2-1.9-4.6-3.9-6.9-5.7
				C48.3,205.4,41.9,203.3,35.2,203.8z M52.2,196.9c-2.6-1.2-5.3-2.3-7.5-4.2c-0.1-0.1-0.4,0-0.4,0.2l0.1,0.5
				c0.1,2.1,0.6,4.1,1.3,5.9c1.1,2.5,2.9,4.4,5.2,6c0.6,0.4,1,0.7,1.6,1.1c3.8,2.1,7.2,4.8,10.2,7.8c0.3,0.3,0.6,0.4,0.9,0.7v-0.1
				C62.9,207.6,59.1,200.2,52.2,196.9z M71.8,217.6c-0.6-0.9-2.1-1.8-2.8-2.9c-0.9-1.2-1.5-2.5-2-3.8c-0.3-0.6-0.5-1.3-0.9-1.6
				C66,209,66,209,65.6,209c-0.1,0-0.1,0-0.2,0c-1.2,4.7,0.7,9.5,3.8,13c0.7,0.6,0.3,1.7-0.5,1.9l-0.2,0.1c-2.3,0.9-4.2,2.7-5.3,5
				c-0.1,0.9-0.6,1.9-0.9,2.7c-0.1,0.8-0.2,1.6-0.2,2.4c0.1,0.3,0.1,0.6,0.3,0.7s0.5,0.1,0.7,0.1c1.8-0.9,3-2.8,4.4-4.2
				c1.7-2,4.1-3.4,5.3-5.8C73.6,222.4,73.1,219.6,71.8,217.6z"/>
			<path class="st3" d="M57,235.7c0.3-0.4,0.6-0.7,1-1.1c0,0,0.1,0,0.1,0.1c-0.3,1-1.2,1.8-1.8,2.6c-1.1,1.2-2.2,2.2-3.5,3.1
				c-2.4,1.7-5.4,3-8.4,3.2c-0.4,0-0.4-0.6-0.1-0.7c1.2-0.3,2.4-0.6,3.6-1.1c1.6-0.6,3-1.3,4.4-2.2c1.2-0.8,2.4-1.7,3.4-2.7
				C56.3,236.5,56.7,236.1,57,235.7z"/>
			<path class="st3" d="M55.5,228.5c0.1,0,0.2,0.1,0.1,0.2c-1.4,1-3,1.6-4.7,2.1c-1.6,0.5-3.4,0.9-5.2,1.1c-3.5,0.5-7.2,0.5-10.7,0
				c-0.2,0-0.2-0.3,0-0.4c3.5,0.1,7,0.2,10.5-0.3c1.7-0.2,3.4-0.5,5-1C52.3,229.9,53.9,229.2,55.5,228.5z"/>
			<path class="st3" d="M65.6,227.6c-0.7,0.9-1.5,1.6-1.9,2.7c-0.2,0.5-0.3,1-0.5,1.6c-0.1,0.5-0.1,1.1-0.2,1.6c0,0.1-0.1,0-0.1,0
				c-0.2-0.5-0.1-1.2,0.1-1.7c0.1-0.6,0.3-1.1,0.5-1.6c0.4-1,1-2.2,2-2.8C65.5,227.2,65.7,227.4,65.6,227.6z"/>
			<path class="st3" d="M64.7,222.5c0.1,0,0.1,0.1,0.1,0.2c-2.4,1-5,1.5-7.6,1.8c-2.9,0.3-5.8,0-8.8-0.6c-1.7-0.4-3.5-0.9-5.1-1.5
				c-0.2-0.1-0.1-0.3,0.1-0.2c2.9,0.7,5.9,1.4,8.8,1.7c2.9,0.4,5.9,0.1,8.8-0.5C62.3,223,63.5,222.7,64.7,222.5z"/>
			<path class="st3" d="M47.8,216c-2.7-0.2-5.5-0.3-8.3-0.4c-1.4,0-2.9,0-4.4,0c-1.4,0-2.8,0.1-4.2,0.1c-0.3,0-0.3-0.5,0-0.5
				c1.4-0.2,2.7-0.2,4.2-0.2s3,0,4.4,0c2.8,0.1,5.6,0.4,8.4,0.8C47.9,215.7,47.9,216,47.8,216z"/>
			<path class="st3" d="M55.3,213.8c-1.7-0.8-3.5-1.5-5.3-1.9c-1.5-0.4-3.1-0.4-4.7-0.5c-1.5-0.1-3-0.6-4.3-1.3
				c-1.4-0.7-2.9-1.6-3.8-3c-0.1-0.2,0.1-0.4,0.3-0.3c0.7,0.5,1.3,1,1.9,1.5c0.6,0.4,1.3,0.9,2,1.3c1.4,0.7,2.9,1.1,4.5,1.3
				c3.4,0.3,6.5,1.1,9.4,2.8C55.5,213.7,55.3,213.9,55.3,213.8z"/>
			<path class="st3" d="M69.5,215.8c0.5,0.4,1,0.8,1.5,1.3s0.9,1,0.8,1.7h-0.1c-0.1-0.7-0.6-1.2-1.1-1.6s-1-0.7-1.3-1.2
				C69.2,215.9,69.4,215.7,69.5,215.8z"/>
			<path class="st3" d="M49.1,196.7c-0.2-0.1-0.1-0.5,0.2-0.4c4.3,1.9,9.1,4.6,10.9,9.3c0,0.1-0.1,0.2-0.2,0.1
				c-1-2.1-2.7-3.9-4.5-5.3C53.4,198.9,51.2,197.9,49.1,196.7z"/>
		</g>
	</g>
	
		<image style="display:inline;overflow:visible;enable-background:new    ;" width="188" height="350" xlink:href="../../../../MINTERO Final Project Content/About/Images/carfreshenersolo.png"  transform="matrix(0.6013 0.2434 -0.2434 0.6013 157.3696 -170.9528)">
	</image>
	
		<image style="display:inline;overflow:visible;enable-background:new    ;" width="164" height="350" xlink:href="../../../../MINTERO Final Project Content/About/Images/essentialoil.png"  transform="matrix(0.4137 -0.1773 0.1773 0.4137 30.4241 156.9573)">
	</image>
</g>
<g>
	<g>
		<path class="st2" d="M29.8,131.7c2.1-2.2,4.3-4.2,6.6-6.3c1.5-1.1,3-2.3,4.6-3.4c-0.2,0.4-0.5,0.9-0.7,1.3
			c-0.3,0.6-0.7,1.2-1.1,1.8c-1.6,2.8-3,5.6-4,8.5c-0.7,1.7-1.3,3.2-1.8,4.5c-0.7,2.5-1.4,5.4-2.4,7.8c-1.8,4.4-5.5,7.8-9.8,9.8
			c-0.4,0.1-1-0.1-1-0.6c0.1-7.1,2.5-14.4,6.9-20.2C27.9,133.9,28.8,132.7,29.8,131.7z M25.7,150.1c-1.1,1.3-2.3,2.2-3.7,3.3
			c-0.3,0.2,0,0.5,0.3,0.4c3-1.3,5.2-4.5,6.7-7.3c1.7-3.2,2.7-6.6,3.5-10.1c0.1-0.3-0.3-0.4-0.4-0.1c-1.1,3.3-2.1,6.6-3.7,9.7
			C27.7,147.5,26.8,148.9,25.7,150.1z"/>
		<path class="st2" d="M48.3,133.9c0.1-1.3,0-2.7,0-4.2c0-0.1,0-0.2,0-0.2c0-1.9-0.2-3.8-0.3-5.4c0.4,0.7,0.7,1.5,1.1,2.3
			c7.2,10.8,7,24.7,3.8,36.9c0,0,0,0.1,0,0.2c-2.5-2.5-4.7-5.3-6.1-8.4c-1.5-3.2-1.9-6.9-0.8-10.3C47,141.3,48.2,137.7,48.3,133.9z
			 M51.9,160c0,0.1,0.2,0,0.2-0.1c-1.4-2.2-2.7-4.5-3.7-6.9c-0.9-2.3-1.2-4.6-1.1-7.1c0-0.2-0.2-0.2-0.3,0c-0.5,2.3,0.1,4.7,0.8,6.9
			C48.8,155.5,50.3,157.8,51.9,160z"/>
		<path class="st2" d="M36.2,134.2c2.1-4.3,4.8-9.1,6.6-12.4c0.4-0.6,0.9-1.2,1.3-1.8c0.3-0.4,0.4-0.8,0.7-0.3
			c1.1,2.5,1.7,5.1,2,7.6c0,0.5,0.1,0.8,0.1,1.1c0.1,1.4,0.1,2.7,0.1,4c-0.5,10.9-6,21.6-12.6,30.1l-1,1.2c-0.3,0.5-0.6,0.4-0.8,0
			C31.7,153.9,32.8,143.6,36.2,134.2z M38.3,153.5c1-1.5,1.9-3,2.6-4.6c3.2-6.7,4.9-14.3,4.3-21.7c0-0.1-0.2-0.1-0.2,0
			c-0.1,4.6-0.6,9.3-1.9,13.8c-1.2,4.3-3.1,8.3-5.3,12.1C37.6,153.5,38.2,153.8,38.3,153.5z"/>
		<path class="st2" d="M44.9,118.3C44.9,118.2,44.9,118.3,44.9,118.3S44.9,118.2,44.9,118.3C44.9,118.2,44.9,118.2,44.9,118.3z"/>
		<path class="st2" d="M50.9,126.9c-0.4-0.6-0.7-1.1-1-1.8H50c0.1,0,0.4,0.1,0.4,0.2c0.3,0.1,0.6,0.3,0.8,0.4
			c0.3,0.1,0.6,0.3,0.9,0.4c4.9,2.1,9.3,5.4,12.5,9.6c3.3,3.9,4.2,8.8,5,13.7c0.4,1.7,1,3.5,1.7,5.1c0,0.1,0,0.1,0,0.1
			c-5.7-1.5-11-5.6-13.2-11.2c-1.3-3.1-2.6-6.2-4.1-9.3C53.4,131.5,52.3,129.1,50.9,126.9z M59.1,132.7c1,0.8,1.9,1.7,2.8,2.6
			c1.8,1.9,3.5,3.9,5.1,6c0,0.1,0.1,0,0.1,0c-1.6-2.2-2.9-4.5-4.8-6.5c-0.9-1.1-2-2-3-3c-1-0.8-2-1.7-3.3-2.1
			c-0.3-0.1-0.5,0.2-0.3,0.4C56.8,131.1,58.1,131.8,59.1,132.7z"/>
		<path class="st2" d="M36.8,122.7c-4.6,4.2-9,8.9-13.1,13.7c-2.1,2.4-4.7,4.3-7.7,5.3c-2.4,0.8-5.1,1-7.7,1c-0.2,0-0.4-0.2-0.3-0.4
			c0-0.1,0.2-0.3,0.3-0.3c2.4-2.3,3.9-5.2,5.5-8c4.7-7.5,13.9-11.1,22.6-11.2C36.4,122.7,36.5,122.7,36.8,122.7z M27.8,125.4
			c-3.1,0.6-5.8,2-8.2,4c-1.2,1-2.2,2-3.2,3.3c-0.9,1.2-2,2.5-2.4,4c-0.1,0.3,0.2,0.4,0.4,0.2c0.9-1.2,1.5-2.6,2.5-3.8
			c0.9-1.2,1.9-2.2,3.1-3.1c2.3-1.9,5-3.4,8-4.3C27.9,125.6,27.8,125.4,27.8,125.4z"/>
		<path class="st2" d="M117.1,136.8c-3.2-2.4-7-4.4-10.4-6.5c0.6,0.1,1.2,0.1,1.8,0.1c18.9-0.4,35.9,10.2,48.5,23.4
			c0.1,0.1,0.3,0.3,0.3,0.3c0,0.1,0,0.2-0.1,0.3l0,0h-0.1l-0.5,0.1c-4.8,1-9.8,1.3-14.7,0.6c-5.1-0.8-10-3.2-13.3-7.1
			C125.1,144,121.6,139.8,117.1,136.8z M136.2,140.2c3.9,2.3,7.5,5,11.1,7.5c0.2,0.2,0.5-0.2,0.3-0.3c-1.9-1.6-4-3.2-6.1-4.7
			c-3.7-2.6-7.7-4.9-11.9-6.6c-4.1-1.7-8.5-3.1-13.1-3.1c-0.1,0-0.2,0.2,0,0.2c2.5,0.4,4.9,0.9,7.4,1.6
			C128.2,136,132.3,138,136.2,140.2z"/>
		<path class="st2" d="M163.1,129.2c-1.6,1.4-3.5,2.7-5.4,3.7c-4.5,2.4-9.7,3.5-14.6,1.9c-5-1.3-10-2.6-15-3.8
			c-5.1-1.2-10-2.7-15.4-3.2c-1.8-0.1-3.7,0-5.4-0.2c1.2-1.6,3.9-3.1,5.9-4.2c4.5-2.4,9.4-4.1,14.4-4.7c7.6-1.1,15.3,0.5,22,4.2
			c2.2,1.2,4.5,2.6,7,3.5c2,0.8,4.3,1.5,6.4,2.1C163.1,128.6,163.3,129,163.1,129.2z M145.9,122.9c-1.5-0.8-3-1.4-4.6-1.9
			c-4.1-1.2-8.4-1.7-12.6-1.3c-2,0.2-3.9,0.5-5.8,1.1c-1.3,0.4-2.9,0.7-4.1,1.5c-0.1,0,0,0.2,0,0.1c1.6-0.2,3.2-0.8,4.8-1.2
			c4.1-0.9,8.4-0.9,12.5-0.3c3.2,0.5,6.3,1.6,9.3,2.7C145.9,123.9,146.3,123.2,145.9,122.9z"/>
		<path class="st2" d="M103.8,89.8c-1.6,0.4-3.3,0.6-5,0.7c4.6-4,9.8-7.6,15.7-9.2c1.6-0.6,6.4-0.8,9.2-1.9c-3,1.8-6,3.5-8.9,5.5
			C111.4,87,107.7,89,103.8,89.8z"/>
		<path class="st2" d="M95.2,75.3c6.7-4.9,15.8-4.4,23.2-1.6c1.2,0.5,2.4,1,3.5,1.6c-3.3-0.9-7.4-1.5-10.9-1.2
			c-6.8,0.9-15,3.5-17.5,10.6c-0.2,0.4,0.1,0.8,0.4,0.9c0.3,0.1,0.6,0,0.8-0.1c4-3.6,8.9-6.4,14.2-7.4c5.3-1.1,10.8-1.3,16.2-0.4
			l0,0v0.1c-0.1,0.4-0.5,0.7-0.9,0.9c-3.1,1.4-6.6,1.3-9.9,2.1c-6.7,1.6-12.6,5.7-18,10c-0.6,0.5-0.2,1.4,0.5,1.3
			c4.5-0.2,9.1-1.2,13.1-3.4c5.2-3.1,10.2-6.5,15.4-9.6c0,0.2-0.1,0.3-0.1,0.3c-3.9,7.1-10.2,13.4-17.8,16.4
			c-2.6,1.1-5.4,1.4-8.3,1.1c-0.7-0.1-1,1-0.3,1.2c7.3,3,15.5-0.9,20.4-6.6c2.8-2.9,4.6-6.6,6.4-10c-0.6,3.7-1.8,7.3-3.7,10.4
			c-3.7,7.1-11.3,12.5-19.5,12.1c-5.2-0.3-10.6-3-13-7.7C86,89.3,88.5,79.8,95.2,75.3z M96.5,85.7c4.4-3.2,9.2-5.5,14.6-6.8
			c0.3-0.1,0.2-0.5-0.1-0.4c-5.3,1-10.6,3.4-14.7,7C96.1,85.5,96.3,85.8,96.5,85.7z M109.8,93.9c2.8-1.2,5.3-3.1,7.4-5.1
			c1.2-1.1,2.2-2.2,3.2-3.4c0.7-0.9,1.5-1.9,1.9-3c0.1-0.2-0.2-0.3-0.3-0.1c-0.7,1-1.4,2.1-2,3c-1,1.2-1.9,2.4-3,3.5
			c-2.2,2-4.7,3.6-7.3,5C109.5,93.7,109.6,94,109.8,93.9z M89.9,85.4c0.6-1.9,1.4-3.9,2.6-5.5c1.2-1.7,2.9-3.1,4.5-4.3
			c0.1,0,0-0.2,0-0.1c-3.8,1.9-6.7,5.8-7.3,9.9C89.7,85.4,89.8,85.5,89.9,85.4z"/>
		<path class="st2" d="M95.2,132.3l-0.4-1c-0.1-0.3-0.3-0.8-0.3-0.8c-0.1-0.2,0.2-0.5,0.5-0.4c5.7,1.3,11.5,3,16.5,6
			c14.9,8.7,24.4,24.2,30.4,40c0.4,0.8-0.1,1.4-0.7,1.1l-1-0.5c-1.2-0.7-4.7-2.5-6-3.2C117.3,164.5,102.5,150.3,95.2,132.3z
			 M125.5,166.3c2,1.5,4,2.9,6.1,4.2c1.9,1.3,3.8,2.5,5.9,3.5c0.4,0.2,0.7-0.3,0.4-0.6c-1.9-1.3-3.8-2.5-5.7-3.7c-2-1.3-4-2.7-6-4.1
			c-3.7-2.7-7.4-5.4-10.9-8.2c-0.1-0.1-0.3,0.1-0.2,0.2C118.4,160.8,121.8,163.7,125.5,166.3z M98.3,132.9c1.9,0.7,3.8,1.4,5.6,2.3
			c4.4,1.9,8.8,4.2,12.6,7.3c3.7,3.3,7.3,6.9,10.5,10.6c0.1,0.2,0.4-0.1,0.2-0.2c-1.7-2.4-3.7-4.8-5.8-6.9c-3.4-3.5-7.1-6.6-11.5-9
			c-3.7-2-7.6-3.5-11.6-4.4C98.2,132.7,98.1,132.9,98.3,132.9z"/>
		<path class="st2" d="M106.4,125.5c-3.6,2.1-8,2.9-12.2,2l-0.4-0.1c-1.1-0.4-2.4,0.6-2.1,1.8c1.1,7.7-1.3,16.1-7.3,21.4
			c-0.4-0.1-1-0.4-1-1c-0.1-3.2,1.4-6.7,1.1-10.2c0.1-2.1-1.1-4.5-1-6.6c0.3-4.1,2.3-8.3,5.5-11c1.8-1.2,3.8-1.6,5.9-1.9
			c2.3-0.4,4.6-0.7,6.8-1.2c3.3-0.6,6.7-1.9,10-1.5c2.6,0.8-0.1,3.6-1.1,4.8c-0.3,0.3-0.5,0.6-0.8,0.8c-0.4,0.2-0.8,0.4-1.1,0.7
			C108.2,124.1,107.3,124.8,106.4,125.5z M85.1,131.3c-0.6,0.8-0.7,1.8-0.5,2.8c0.1,0.6,0.3,1.1,0.4,1.6c0.2,0.6,0.3,1.1,0.5,1.8
			c0.1,0.2,0.4,0.2,0.4-0.1c0.1-1.1-0.5-2.2-0.8-3.2c-0.3-0.9-0.3-2,0.2-2.8C85.3,131.3,85.1,131.2,85.1,131.3z M111.2,119.7
			c0-0.1,0-0.1-0.1-0.1c-0.6,0.6-1.1,1.4-1.8,2c-0.7,0.6-1.4,1.3-2.2,1.7c-1.6,1-3.3,1.4-5.2,1.9c-0.3,0.1-0.2,0.5,0,0.5
			c1.9-0.1,3.8-1,5.3-2.1c0.8-0.5,1.6-1.2,2.3-1.8C110.2,121.1,110.8,120.4,111.2,119.7z"/>
		<path class="st2" d="M92.7,143.6c0.3,0.9,0.5,1.8,0.8,2.8c1.3,6.6,3.3,13.2,6.3,19.1c0.4,1.2,0.8,2.3,1.3,3.5
			c3.2,7.6,1.9,16.3-2.8,23.1c-0.2,0.3-0.8,0.2-0.8-0.2c-0.8-2.3-1.7-4.6-2.8-6.8c-3.5-5.7-7.2-11.5-7.4-18.5
			C86.4,158.6,88.7,150.5,92.7,143.6z M88.6,160.1c-1.9,8,2,15.9,6,22.6c0.2,0.3,0.7,0.1,0.5-0.3c-1.9-3.8-4.1-7.4-5.3-11.4
			c-1.1-3.4-1.6-7.3-1-10.9C88.9,160,88.7,160,88.6,160.1z"/>
		<path class="st2" d="M95.8,146.8c-0.5-2.6-0.9-5.2-1-7.9c4.3,6.1,10.2,15.1,14.8,19.9c4.4,4.3,9.5,8.5,11.7,14.5
			c1.3,3.5,1.9,7.3,1.7,11.1c0,0.6,0,1.2-0.5,1.5c-0.5,0.2-0.9,0.2-1.2,0.1c-4.3-2.4-8.2-5.5-11.6-9.1c-4.1-4.4-7.3-9.6-9.6-15.1
			c-0.7-2.1-1.4-4.2-2-6.3C97.3,152.7,96.5,149.8,95.8,146.8z M106.5,159.5c1.1,1.5,2.4,2.8,3.8,4c1.3,1.2,2.8,2.3,4.1,3.5
			c1.7,1.6,3.1,3.5,4,5.6c1.1,2.1,1.6,4.4,2.4,6.6c0.1,0.3,0.6,0.2,0.6-0.1c-0.1-2.5-1.1-5.1-2.3-7.3c-1-2-2.5-3.8-4.2-5.3
			c-1.4-1.2-2.9-2.2-4.3-3.5c-3.1-2.7-5.6-6.1-7.6-9.7c0-0.1-0.3,0-0.3,0.2C103.8,155.6,105.1,157.7,106.5,159.5z"/>
		<path class="st2" d="M86.2,90.3c0.5,0.7,0.2,2,0.3,2.9c0.3,2.2,1.3,4.1,2.7,5.7c0.6,0.8,1.4,1.6,1.5,2.5c-1.7,0.1-3.9-0.6-5.2-1.6
			C82.4,97.2,83.3,92.8,86.2,90.3z M84.7,96.3C84.7,96.2,84.5,96.3,84.7,96.3c-0.2,0.7,0.2,1.5,0.6,2c0.4,0.5,1,1.1,1.7,1.3
			c0.2,0.1,0.3-0.2,0.1-0.3c-0.3-0.2-0.6-0.3-0.8-0.6c-0.2-0.2-0.5-0.5-0.7-0.7C85.1,97.5,85,96.9,84.7,96.3z"/>
		<path class="st2" d="M-21.6,122.1C-21.6,122.2-21.5,122.3-21.6,122.1c9.7-5.9,18.6-13.1,26.6-21c6-5.6,11.5-11.7,15.6-18.6
			c1.2,2.1,1.9,4.7,1.2,7.1c-0.7,2.5-3.2,4-4.4,6.4c-0.7,1.3-1.2,2.5-1.7,3.9c-0.8,2-0.6,4.1-1.1,6c-0.7,2.8-3.1,5.4-6,6
			c-2.8,0.6-5.7,2.3-7.4,4.7c-1.4,1.9-2.3,4.1-3.6,6c-2.2,1.8-5.1,2.5-7.9,3.2c-2.7,0.7-5.3,2-7.6,3.6c-1.2,0.8-2.1,1.9-3.1,2.5
			c-2.1,1.4-4.7,2.1-7.3,2.5c-3.4,0.5-6.8,1.7-9.8,3.4c0.9-1.7,1.7-3.6,2.2-5.5c1-3.6,0.5-7.6,3.3-10.5c2.6-2.8,5.3-5.9,7-9.5
			c2-4.6,3.5-9.5,7.5-12.5c1.1-0.7,2.3-0.8,3.4-1.5c3.9-2,5.1-6.3,6.6-9.9l0,0H-8c0.3-0.5,0.6-1,1-1.4c1.1-1.3,2.6-2.8,4.2-3.3
			c2.3-0.5,5.5,0,8-0.9c2.7-0.6,5.3-2.4,7.5-3.8c2-1.2,4.4-0.7,6.1,0.9c0.2,0.2,0.4,0.4,0.5,0.6c-5.4,6.3-10.6,12.9-15.9,19
			C-4.4,107.6-12.7,115.1-21.6,122.1z"/>
		<path class="st2" d="M57.3,125.8c-1.6,0.2-3.1,0-4.5-0.5c-0.5-0.2-0.9-0.4-1.5-0.6c-2.8-1.4-4.9-4-5.6-7.1c-0.2-0.6-1-0.8-1.4-0.3
			c-2.7,2.4-6.1,4-9.7,4c-1.7,0.1-3.4-0.3-5-0.8c-0.1,0-0.2-0.3-0.1-0.4c2.2-3.3,5.5-5.9,9.4-7.1c2.9-1.1,5.7-1.7,8.6-0.4
			C53.1,114.6,56.4,120.3,57.3,125.8z M50.5,121.6c-1.3-1.2-2.1-2.9-3.1-4.4c-0.2-0.3-0.6,0-0.5,0.2c1.2,3,3.8,6.8,7.6,6.6
			c0.2,0,0.3-0.4,0-0.4C53,123.3,51.5,122.6,50.5,121.6z"/>
		<path class="st2" d="M61.6,69c4.3-2.3,9-3.5,13.4-5.6c4.1-2.4,8.8-5.5,11.5-9.1c-3.6,3.2-7.7,6-12,8c-4.5,1.8-9.3,3-13.7,5.1
			c-4.5,1.8-8.5,5-12.6,7.4c-1.7,0.8-3.3,1.6-5.1,2.1c0-0.1-0.1,0-0.1-0.1c0-0.8,1.2-2.1,1.9-2.9c2.2-2.2,4.7-4.2,7.4-5.6
			c1.4-0.7,2.9-1.2,4.5-2.1c3.9-2,6.3-6,8-9.7c0.6-1.1,1.9-1.7,3.1-2c1.5-0.3,3.1,0.1,4.7,0c2.7-0.3,5.3-1.2,7.4-3.1
			c1.3-1.2,2.2-2.1,3.6-2.7c3-1.5,5.7-0.5,9-0.2c4.5,0.3,8.8-1.8,12-4.8c-0.7,2.6-1.9,5-3.3,7.3c-1.8,2.8-4.1,5.2-7.2,6.4
			c-1.6,0.7-3.3,1.7-4.4,3.1c-1.2,1.3-1.4,3.2-2.4,4.5c-0.9,1.2-2.2,2.1-3.7,2.3c-0.7,0.1-1.7,0.1-2.6,0.4c-2.7,0.7-4.8,2.9-6.3,5.1
			c-1.9,2.6-5.1,3.7-8.2,3.9c-1.7,0.1-3-0.4-4.7-0.9c-1.8-0.4-3.6-0.6-5.5-0.2c-1.8,0.3-3.3,1.2-4.9,1.5c-1.5,0.4-3.1,0.4-4.7,0.3
			c-0.3,0-0.6,0-1-0.1c1.1-0.5,2.3-1,3.4-1.6C53.3,73.7,57.1,71,61.6,69z"/>
		<g>
			<path class="st3" d="M86.2,98.2c0.2,0.2,0.5,0.4,0.8,0.6c0.2,0.1,0.1,0.4-0.1,0.3c-0.7-0.2-1.4-0.8-1.7-1.3
				c-0.4-0.5-0.8-1.4-0.7-2c0-0.1,0.1-0.1,0.1,0c0.3,0.6,0.4,1.2,0.9,1.8C85.7,97.8,85.9,98,86.2,98.2z"/>
			<path class="st3" d="M96.9,74.9c0.1,0,0.1,0.1,0,0.1c-1.7,1.2-3.4,2.6-4.5,4.3c-1.2,1.7-2,3.5-2.6,5.5c0,0.1-0.2,0.1-0.2,0
				C90.2,80.6,93.1,76.8,96.9,74.9z"/>
			<path class="st3" d="M96.2,84.9c4.1-3.6,9.3-6,14.7-7c0.2-0.1,0.3,0.4,0.1,0.4c-5.3,1.3-10.2,3.6-14.6,6.8
				C96.2,85.2,96,85,96.2,84.9z"/>
			<path class="st3" d="M109.5,93.1c2.6-1.3,5.2-2.9,7.3-5c1.1-1,2.2-2.3,3-3.5c0.7-1,1.3-2,2-3c0.1-0.1,0.3,0,0.3,0.1
				c-0.5,1.1-1.2,2.1-1.9,3c-0.9,1.3-2,2.4-3.2,3.4c-2.2,2-4.7,3.9-7.4,5.1C109.6,93.4,109.4,93.2,109.5,93.1z"/>
			<path class="st3" d="M163.7,129.7l-0.2,0.1l-0.4,0.3c-3.6,2.9-7.9,5-12.6,5.8c-2.6,0.6-5.4,0.2-7.9-0.5c-4.3-1-8.6-2-12.9-2.9
				c8.6,3.8,16.5,9.3,23.3,15.7c1.7,1.6,3.4,3.3,5,5c0.4,0.7-0.1,1.7-0.9,1.9H157l-0.5,0.1c-2.3,0.5-4.6,0.8-7,1
				c-6.1,0.5-12.7-0.5-17.9-3.8c4.4,6.5,7.9,13.6,10.7,20.8l0.8,2.1c0.1,0.3,0.4,0.9,0.2,1.5c-0.2,1.2-1.6,1.9-2.8,1.5
				c-5.5-1.8-10.4-4.8-15.2-7.8c-2.8-1.8-5.6-3.8-8.2-5.9c4.5,5.3,7,10.9,6.6,19.7v1c-0.1,1.5-1.8,2.6-3.1,1.7
				c-2.2-1.2-4.3-2.6-6.3-4.1c-4.4-3.2-8.1-7.1-11.1-11.6c0.3,1.2,0.5,2.4,0.7,3.7c0.6,5.9-1.4,11.7-4.6,16.6
				c-0.3,0.6-0.8,1.4-1.5,1.3c-0.6,0.1-1.3-0.4-1.5-1c-0.8-2.3-1.8-4.4-2.9-6.5c-3.9-5.7-7.6-11.7-8.1-18.8
				c-0.6-5.7,0.2-11.5,2-16.9c-0.6,0.6-1.3,1.2-1.9,1.8c-0.2,0.2-0.6,0.4-0.8,0.4c-3.3-0.2-2.7-3.6-2.4-5.7c0.3-2.2,0.4-4.4,0.1-6.6
				c-0.2-2.3-1.7-4.4-1.6-6.8c0.1-3.8,1.8-7.3,4.4-10c0,0,0-0.1-0.1,0c-6.1-8.6-13.2-16.4-21.2-23.2c-5.8-4.9-12-9.3-18.6-13
				c3.2,7.7,4.3,16.2,2.4,24.4c0.2,0,0.4,0.1,0.4,0.2c5.9,2.3,10.1,8.2,10.1,14.6c0,0.4-0.3,0.7-0.6,0.9c-0.7,0.1-1.4,0.1-2.1,0
				c6.8,3.8,12.7,9.8,14.4,17.4c0.6,3.2,1,6.5,2.5,9.6c0.7,1.1-0.3,2.2-1.4,1.8l-0.6-0.2c-5.7-1.9-10.7-6-12.9-11.6
				c-0.6-1.6-1.3-3.1-1.9-4.6c1.4,7.9,0.7,16.4-1.4,24.1c0,0.1-0.1,0.4-0.1,0.5c-0.2,0.8-1.4,1.1-1.9,0.4c-1.2-1.2-2.4-2.5-3.4-3.9
				c-2.6-3.2-4.4-7.2-4.5-11.3c-2.6,5.6-6.1,10.9-9.8,15.6c-0.3,0.6-1.3,1-2.1,0.5c-0.4-0.2-0.6-0.6-0.6-1c-0.2-1.8-0.3-3.6-0.3-5.5
				c-0.1-4.2,0.1-8.5,0.7-12.7c-0.1,0.2-0.2,0.4-0.2,0.6c-1.9,4.3-5.5,7.8-9.7,9.8c-0.5,0.2-1.1,0.5-1.6,0.4
				c-0.6-0.1-1.1-0.7-1.2-1.3c0-3.8,0.6-7.4,1.7-11c0.7-2.4,1.8-4.6,3-6.8c-3.9,4-9.6,6-15.1,5.6H8.4c-0.6,0-1.1-0.7-0.9-1.2
				c0.1-0.3,0.3-0.4,0.4-0.6c2.4-2.3,3.8-5.1,5.4-8c3.9-6.4,10.8-10.2,18.1-11.6c-0.4-0.1-0.9-0.2-1.3-0.3c-0.5-0.1-1.1-0.4-1.2-0.9
				c-0.2-0.5,0.2-1,0.5-1.4c2.2-3.3,5.5-6,9.3-7.3c2.5-1.1,5.5-1.8,8.3-1.1c1.6-8.9-0.3-18.1-4.7-25.8c-5.9-3.2-12.1-5.8-18.4-8
				c-0.5,1-1.1,2-1.6,3.1c2.1,2.9,3,6.9,2.1,10c-0.4,1.5-1.4,2.8-2.3,3.9c-1.9,1.9-3,4-3.8,6.5c-0.7,1.8-0.6,3.9-1.1,5.9
				c-0.7,2.9-2.9,5.4-5.5,6.7c-1.9,0.8-3.9,0.9-5.7,2c-2.9,1.7-4,4.8-5.8,7.5c-0.3,0.6-1.1,1.4-1.7,1.7c-2.4,1.6-5.3,2.3-7.9,2.9
				c-2.5,0.6-4.9,1.8-7.1,3.2c-2,1.6-4.5,3.6-7.1,4.2c-2.7,0.8-5.3,0.8-7.9,1.6c-2.2,0.6-4.4,1.6-6.4,2.7c-0.3,0.2-0.5,0.3-0.8,0.4
				c-0.3,0.1-0.6,0.1-0.8,0c0-0.1-0.1-0.4,0-0.7s0.1-0.3,0.2-0.4l0.2-0.4c1-1.9,1.8-4,2.3-6.1c0.8-3.8,0.4-8.1,3.2-11.2
				c2.6-2.9,4.9-5.8,6.5-9.2c1.6-4.1,3.3-8.7,6.4-12.1c1.3-1.6,3.5-2.3,5.3-3c3.4-1.7,4.4-6.7,5.6-9.1c1.1-1.9,2.5-3.6,4.4-4.8
				c3.1-2.3,6.9-0.9,10.2-2c4.1-0.8,7.1-5.3,11.6-4.5c1.7,0.3,3.4,1.3,4.7,2.5c0.5-0.7,1.1-1.3,1.6-1.9c-15-5.1-30.8-7.3-46.5-6.5
				c-3.6,0.1-3.7-5.2-0.2-5.4c21.2-0.7,42.3,4.1,61.2,13.4c1.2-0.2,2.4-0.4,3.7-0.7c-1-3.3,3.9-6.7,6.1-8.7c3.6-3.2,8.9-4,12-7.7
				c1.7-1.8,2.3-3.9,3.7-6c1.5-2.4,4.9-3.6,7.7-3.2c2.9,0.3,5.9-0.3,8.2-2.2c1.2-1,2.6-2.4,4.3-3c3.2-1.5,7-0.5,10.1,0
				c4.7,0.5,9.1-1.9,12.4-5.1c0.4-0.4,1.1,0,0.9,0.5c-0.7,3.4-1.9,6.7-3.8,9.6c-0.9,1.5-2,2.9-3.3,4.1c-2.3,2.6-6.1,3.1-8.2,5.7
				c-1.1,1.3-1.3,3-2.3,4.5c-1.1,1.6-2.8,2.7-4.8,3c-2.5,0.2-4.6,1-6.2,3c-1,1.3-1.9,3-3.4,4.1c-3.7,2.8-8.7,3.5-13,1.9
				c-3.4-1-6.2,0.5-9.4,1.4c-1.8,0.5-3.6,0.5-5.4,0.5c-1.5-0.1-3.4-0.2-4.7-1.1c-0.8,0.2-1.6,0.4-2.4,0.5
				c11.9,6.1,22.8,14,32.1,23.5c2,0.2,4.2,0,6.2-0.7c2-0.6,3.8-1.8,5.4-3.3c-2.2-3-1.1-6.8,2-9.5c0.3-0.4,0.8-0.5,1.2-0.4
				c0-3,0.8-6,2.3-8.6c4.1-7.8,13.6-11.2,22-10c4.2,0.5,8.2,1.9,11.9,3.8c0.7,0.4,1.4,0.8,2,1.1c0.4,0.2,0.6,0.7,0.4,1.1
				c-0.1,0.3-0.7,0.5-1,0.3c0-0.1-0.4-0.1-0.4-0.1c-5.3-1.7-11-2.4-16.5-0.9c-4.1,1.1-8.7,3-11,6.7c3.8-2.6,8.1-4.6,12.6-5.3
				c5.4-0.9,11.1-1.2,16.5-0.1c0.1,0,0.2,0,0.3,0.2c0,0.4-0.1,0.7-0.4,1c0.2-0.1,0.6,0,0.7,0.3c0.1,0.2-0.2,0.6-0.3,0.8
				c-4.7,8.4-12.5,16.1-22.2,18.4c7.2,0.7,13.8-4.7,17.8-10.3c1.6-2.4,2.9-5,4.4-7.6c0.2-0.1,0.3-0.2,0.5-0.2
				c0.6,0.1,0.5,0.6,0.5,1.1c-0.3,4-1.5,8-3.5,11.6c-3.8,7.5-11.9,13.3-20.6,12.9c-3.7-0.2-7.6-1.5-10.5-3.9c0.1,0.4,0,0.7-0.3,1
				c-0.5,0.5-1.2,0.4-1.7,0.4c-1.8-0.3-3.6-1-5-2.1c-0.4-0.3-0.8-0.7-1.1-1c-2.6,2.9-6.3,4.8-10.2,5.2c4.9,5.1,9.3,10.6,13.1,16.5
				c0.3-0.4,0.8-0.7,1.1-1c1.8-1.8,4.6-2.1,7-2.2c2.3-0.2,4.6-0.3,6.9-0.7c3.5-0.2,6.9-1.5,10.4-1c2.5,0.8,1.9,2.8,0.6,4.9
				c4.6-2.4,9.6-4.1,14.8-4.7c8-1.1,16,0.8,22.9,4.8c4.1,2.6,8.6,4.5,13.3,5.8C164.4,127.4,164.7,129,163.7,129.7z M58.1,142.8
				c2.2,5.6,7.4,9.6,13.2,11.2c0.1,0,0.1,0,0-0.1c-0.7-1.6-1.4-3.3-1.7-5.1c-0.7-4.9-1.7-9.8-5-13.7c-3.2-4.2-7.7-7.5-12.5-9.6
				c-0.3-0.1-0.6-0.2-0.9-0.4c-0.3-0.1-0.6-0.3-0.8-0.4c-0.1,0-0.4-0.1-0.4-0.2h-0.1c0.3,0.7,0.7,1.2,1,1.8c1.4,2.3,2.5,4.7,3.2,7.2
				C55.5,136.5,56.8,139.6,58.1,142.8z M44.8,117.7L44.8,117.7L44.8,117.7L44.8,117.7z M52.7,162.9v-0.2c3.2-12.2,3.4-26.1-3.8-36.9
				c-0.4-0.8-0.7-1.5-1.1-2.3c0.1,1.7,0.3,3.6,0.3,5.4c0,0.1,0,0.2,0,0.2c0.1,1.5,0.1,2.9,0,4.2c-0.1,3.7-1.3,7.4-2.4,10.9
				c-1.1,3.4-0.6,7.1,0.8,10.3C48,157.6,50.3,160.4,52.7,162.9z M32.6,163.2c0.1,0.4,0.4,0.5,0.8,0l1-1.2
				c6.6-8.5,12.2-19.3,12.6-30.1c0-1.3,0-2.6-0.1-4c0-0.2-0.1-0.7-0.1-1.1c-0.3-2.5-0.9-5.1-2-7.6c-0.3-0.4-0.5,0-0.7,0.3
				c-0.5,0.6-0.9,1.2-1.3,1.8c-1.8,3.4-4.6,8.3-6.6,12.4C32.6,143.1,31.7,153.4,32.6,163.2z M20,154.7c0,0.5,0.6,0.7,1,0.6
				c4.3-1.9,8-5.4,9.8-9.8c1-2.4,1.7-5.3,2.4-7.8c0.5-1.3,1.1-2.9,1.8-4.5c1.1-3,2.4-5.8,4-8.5c0.3-0.6,0.7-1.2,1.1-1.8
				c0.2-0.5,0.5-0.9,0.7-1.3c-1.6,1-3,2.2-4.6,3.4c-2.2,2-4.5,4.1-6.6,6.3c-1,1.1-1.9,2.3-2.8,3.4C22.4,140.3,20.1,147.6,20,154.7z
				 M13.7,133.3c-1.6,2.8-3.2,5.7-5.5,8c0,0.1-0.3,0.3-0.3,0.3C7.8,141.8,8,142,8.2,142c2.6,0.1,5.2-0.1,7.7-1
				c3.1-1,5.6-2.9,7.7-5.3c4.1-4.8,8.5-9.4,13.1-13.7c-0.2,0-0.3,0-0.4,0C27.6,122.1,18.3,125.7,13.7,133.3z M38.9,112.5
				c-3.8,1.2-7.1,3.8-9.4,7.1c-0.1,0.1,0,0.3,0.1,0.4c1.6,0.5,3.3,0.9,5,0.8c3.6,0,7.1-1.6,9.7-4c0.4-0.5,1.3-0.3,1.4,0.3
				c0.7,3.1,2.8,5.7,5.6,7.1c0.5,0.2,0.9,0.4,1.5,0.6c1.4,0.5,3,0.6,4.5,0.5c-0.9-5.5-4.2-11.2-9.7-13.2
				C44.6,110.8,41.8,111.4,38.9,112.5z M18.5,79.1c-1.7-1.6-4.2-2-6.1-0.9c-2.1,1.4-4.8,3.2-7.5,3.8c-2.4,0.9-5.7,0.4-8,0.9
				c-1.5,0.5-3.1,1.9-4.2,3.3c-0.4,0.5-0.7,0.9-1,1.4h-0.1l0,0c-1.5,3.7-2.7,7.9-6.6,9.9c-1.2,0.7-2.4,0.8-3.4,1.5
				c-4,3-5.5,8-7.5,12.5c-1.7,3.6-4.3,6.6-7,9.5s-2.3,6.9-3.3,10.5c-0.5,1.9-1.2,3.7-2.2,5.5c3.1-1.7,6.4-2.9,9.8-3.4
				c2.6-0.3,5.2-1,7.3-2.5c1-0.7,2-1.7,3.1-2.5c2.3-1.6,4.8-2.8,7.6-3.6c2.8-0.7,5.7-1.3,7.9-3.2c1.3-1.9,2.2-4.1,3.6-6
				c1.7-2.4,4.5-4.1,7.4-4.7c3-0.6,5.3-3.1,6-6c0.5-2,0.4-4,1.1-6c0.5-1.4,1-2.6,1.7-3.9c1.2-2.4,3.7-3.9,4.4-6.4
				c0.7-2.4,0-4.9-1.2-7.1c-4.2,7-9.7,13.1-15.6,18.6c-8,8-16.9,15.1-26.6,21.1c-0.1,0-0.1,0,0-0.1c8.9-7,17.2-14.5,24.8-22.8
				c5.3-6.2,10.5-12.8,15.9-19C18.9,79.6,18.7,79.3,18.5,79.1z M46.5,77.2c1.6,0,3.3,0.1,4.7-0.3c1.7-0.4,3.2-1.2,4.9-1.5
				c1.9-0.3,3.7-0.3,5.5,0.2c1.7,0.5,3,1,4.7,0.9c3.1-0.2,6.4-1.3,8.2-3.9c1.5-2.2,3.5-4.4,6.3-5.1c0.9-0.3,1.9-0.3,2.6-0.4
				c1.5-0.2,2.9-1.2,3.7-2.3c0.9-1.3,1.3-3.2,2.4-4.5c1.2-1.4,2.8-2.4,4.5-3c3.1-1.3,5.5-3.7,7.2-6.4c1.5-2.2,2.5-4.7,3.3-7.3
				c-3.2,3-7.5,5.1-12,4.8c-3.3-0.4-6-1.3-9,0.2c-1.4,0.6-2.3,1.5-3.6,2.7c-2.1,1.8-4.7,2.8-7.4,3.1c-1.6,0.2-3.2-0.2-4.7,0
				c-1.2,0.3-2.4,0.9-3.1,2c-1.8,3.8-4.1,7.7-8,9.7c-1.6,0.9-3.1,1.4-4.5,2.1c-2.8,1.4-5.2,3.4-7.4,5.6c-0.7,0.6-1.9,2.1-1.9,2.9
				c0,0.1,0.1,0,0.1,0.1c1.8-0.6,3.5-1.2,5.1-2.1c4.1-2.4,8.2-5.5,12.6-7.4c4.4-2.1,9.2-3.3,13.7-5.1c4.4-2,8.4-4.8,12-8
				c-2.7,3.5-7.3,6.7-11.5,9.1c-4.4,2.1-9.2,3.4-13.4,5.6c-4.5,1.9-8.4,4.6-12.7,7.1c-1.1,0.6-2.2,1.1-3.4,1.6
				C45.8,77.2,46.2,77.2,46.5,77.2z M102.4,103.5c8.2,0.4,15.8-5,19.5-12.1c1.9-3.2,3-6.8,3.7-10.4c-1.9,3.5-3.7,7.1-6.4,10
				c-4.9,5.7-13,9.6-20.4,6.6c-0.7-0.2-0.4-1.3,0.3-1.2c2.8,0.3,5.6,0,8.3-1.1c7.6-3.1,13.8-9.3,17.8-16.4c0,0,0.1-0.2,0.1-0.3
				c-5.2,3.1-10.2,6.6-15.4,9.6c-4.1,2.2-8.5,3.2-13.1,3.4c-0.7,0.1-1.1-0.9-0.5-1.3c5.4-4.2,11.3-8.3,18-10
				c3.3-0.8,6.9-0.7,9.9-2.1c0.4-0.2,0.8-0.5,0.9-0.9c0,0,0,0,0-0.1l0,0c-5.3-1-10.9-0.8-16.2,0.4c-5.3,1.1-10.1,3.9-14.2,7.4
				c-0.3,0.2-0.5,0.3-0.8,0.1c-0.4-0.2-0.6-0.6-0.4-0.9c2.5-7,10.7-9.7,17.5-10.6c3.5-0.3,7.5,0.3,10.9,1.2
				c-1.2-0.6-2.3-1.1-3.5-1.6c-7.4-2.8-16.5-3.3-23.2,1.6c-6.6,4.5-9.2,14-5.7,21.1C91.8,100.5,97.2,103.2,102.4,103.5z M123.5,78.9
				c-2.8,1.1-7.6,1.3-9.2,1.9c-5.9,1.6-11.1,5.2-15.7,9.2c1.7-0.1,3.3-0.3,5-0.7c4-0.7,7.6-2.8,10.9-5
				C117.5,82.4,120.6,80.6,123.5,78.9z M85.4,99.4c1.3,1,3.5,1.8,5.2,1.6c-0.2-0.9-0.9-1.8-1.5-2.5c-1.3-1.7-2.3-3.6-2.7-5.7
				c-0.1-1,0.2-2.3-0.3-2.9C83.2,92.3,82.3,96.7,85.4,99.4z M141.7,154.7c4.9,0.7,9.9,0.3,14.7-0.6l0.5-0.1h0.1l0,0
				c0.1,0,0.2-0.2,0.1-0.3c0,0-0.1-0.2-0.3-0.3c-12.5-13.1-29.6-23.8-48.5-23.4c-0.6,0-1.2,0-1.8-0.1c3.5,2.1,7.2,4,10.4,6.5
				c4.4,3,8,7.2,11.3,11.3C131.6,151.5,136.5,153.9,141.7,154.7z M134.3,172.9c1.2,0.6,4.8,2.4,6,3.2l1,0.5c0.6,0.3,1.2-0.3,0.7-1.1
				c-6-15.8-15.5-31.3-30.4-40c-5.1-3-10.8-4.7-16.5-6c-0.3-0.1-0.5,0.2-0.5,0.4c0,0,0.1,0.4,0.3,0.8l0.4,1
				C102.4,149.8,117.2,163.9,134.3,172.9z M109.6,176.4c3.4,3.6,7.3,6.7,11.6,9.1c0.4,0.2,0.8,0.2,1.2-0.1c0.5-0.3,0.4-0.9,0.5-1.5
				c0.1-3.7-0.4-7.6-1.7-11.1c-2.2-6-7.3-10.2-11.7-14.5c-4.6-4.8-10.5-13.8-14.8-19.9c0.1,2.6,0.6,5.3,1,7.9
				c0.7,2.9,1.5,5.8,2.3,8.7c0.5,2.1,1.3,4.2,2,6.3C102.4,166.8,105.5,172,109.6,176.4z M87,166.1c0.2,6.9,3.9,12.7,7.4,18.5
				c1.2,2.2,2.1,4.5,2.8,6.8c0.1,0.4,0.6,0.5,0.8,0.2c4.7-6.8,6-15.5,2.8-23.1c-0.4-1.2-0.8-2.3-1.3-3.5c-3-5.9-5-12.6-6.3-19.1
				c-0.3-0.9-0.5-1.8-0.8-2.8C88.6,150,86.3,158,87,166.1z M110.7,121.7c1-1.1,3.6-4,1.1-4.8c-3.3-0.5-6.7,0.9-10,1.5
				c-2.2,0.5-4.6,0.9-6.8,1.2c-2.2,0.3-4.2,0.7-5.9,1.9c-3.2,2.7-5.2,7-5.5,11c-0.1,2,1.1,4.4,1,6.6c0.3,3.5-1.2,6.9-1.1,10.2
				c0,0.5,0.6,0.9,1,1c6.1-5.3,8.4-13.7,7.3-21.4c-0.3-1.2,1-2.2,2.1-1.8l0.4,0.1c4.1,0.9,8.5,0.1,12.2-2c0.8-0.8,1.8-1.4,2.4-1.9
				c0.4-0.2,0.8-0.4,1.1-0.7C110.1,122.2,110.4,121.9,110.7,121.7z M162.8,127.9c-2.1-0.6-4.3-1.2-6.4-2.1c-2.4-0.9-4.7-2.3-7-3.5
				c-6.6-3.7-14.3-5.3-22-4.2c-5.1,0.7-9.9,2.3-14.4,4.7c-1.9,1.1-4.7,2.6-5.9,4.2c1.6,0.2,3.6,0.1,5.4,0.2c5.3,0.4,10.2,2,15.4,3.2
				c5,1.2,10,2.5,15,3.8c4.9,1.6,10.2,0.5,14.6-1.9c1.9-1,3.8-2.3,5.4-3.7C163.1,128.5,163,128,162.8,127.9z"/>
			<path class="st3" d="M145.4,123.2c-3-1.1-6.1-2.2-9.3-2.7c-4.1-0.6-8.4-0.6-12.5,0.3c-1.6,0.3-3.2,1-4.8,1.2
				c-0.1,0-0.1-0.1,0-0.1c1.2-0.8,2.7-1.2,4.1-1.5c1.9-0.5,3.8-0.9,5.8-1.1c4.2-0.4,8.6,0,12.6,1.3c1.6,0.5,3.1,1.1,4.6,1.9
				C146.1,122.6,145.8,123.3,145.4,123.2z"/>
			<path class="st3" d="M116.4,132.5c4.5,0,8.9,1.4,13.1,3.1c4.2,1.8,8.2,4.1,11.9,6.6c2.1,1.4,4.1,3,6.1,4.7
				c0.2,0.2-0.1,0.5-0.3,0.3c-3.7-2.6-7.3-5.3-11.1-7.5s-8-4.2-12.3-5.5c-2.4-0.7-4.9-1.1-7.4-1.6
				C116.3,132.7,116.4,132.5,116.4,132.5z"/>
			<path class="st3" d="M101.9,125.1c-0.3,0-0.3-0.4,0-0.5c1.8-0.4,3.6-0.9,5.2-1.9c0.8-0.5,1.6-1.1,2.2-1.7c0.6-0.6,1.1-1.4,1.8-2
				c0-0.1,0.2,0,0.1,0.1c-0.3,0.8-1,1.5-1.6,2.1c-0.7,0.7-1.5,1.3-2.3,1.8C105.6,124.2,103.8,125.1,101.9,125.1z"/>
			<path class="st3" d="M98.2,132.1c4.1,0.9,8,2.4,11.6,4.4c4.4,2.3,8.1,5.4,11.5,9c2.1,2.2,4,4.5,5.8,6.9c0.1,0.1-0.1,0.4-0.2,0.2
				c-3.2-3.8-6.7-7.4-10.5-10.6c-3.7-3.2-8-5.5-12.6-7.3c-1.9-0.8-3.8-1.5-5.6-2.3C98.1,132.4,98.1,132.1,98.2,132.1z"/>
			<path class="st3" d="M115.1,156.9c3.6,2.8,7.2,5.6,10.9,8.2c2,1.4,4,2.8,6,4.1c1.9,1.3,3.8,2.4,5.7,3.7c0.4,0.2,0,0.8-0.4,0.6
				c-2-1-3.9-2.3-5.9-3.5c-2.1-1.4-4.1-2.7-6.1-4.2c-3.7-2.7-7.1-5.5-10.5-8.7C114.7,157,115,156.8,115.1,156.9z"/>
			<path class="st3" d="M102.9,152.9c2.1,3.6,4.5,7,7.6,9.7c1.4,1.2,2.9,2.2,4.3,3.5c1.7,1.5,3.1,3.3,4.2,5.3
				c1.2,2.2,2.3,4.8,2.3,7.3c0,0.3-0.5,0.4-0.6,0.1c-0.8-2.2-1.3-4.5-2.4-6.6c-1-2-2.4-4-4-5.6c-1.3-1.2-2.8-2.3-4.1-3.5
				c-1.3-1.2-2.6-2.6-3.8-4c-1.5-1.9-2.7-3.9-3.8-6C102.5,152.8,102.8,152.7,102.9,152.9z"/>
			<path class="st3" d="M44.9,126.7c0-0.1,0.2-0.1,0.2,0c0.6,7.3-1.1,15-4.3,21.7c-0.8,1.6-1.6,3.1-2.6,4.6c-0.2,0.3-0.7,0-0.5-0.4
				c2.2-3.8,4.1-7.9,5.3-12.1C44.3,136,44.8,131.4,44.9,126.7z"/>
			<path class="st3" d="M56,129.2c1.2,0.4,2.3,1.3,3.3,2.1c1.1,0.9,2.1,1.9,3,3c1.8,2,3.2,4.2,4.8,6.5c0,0.1,0,0.1-0.1,0
				c-1.5-2.1-3.3-4.1-5.1-6c-0.9-0.9-1.8-1.8-2.8-2.6c-1.1-0.9-2.3-1.6-3.3-2.5C55.5,129.4,55.7,129.1,56,129.2z"/>
			<path class="st3" d="M47.2,145.5c-0.2,2.5,0.2,4.8,1.1,7.1c0.9,2.4,2.4,4.6,3.7,6.9c0,0.1-0.1,0.2-0.2,0.1
				c-1.6-2.2-3.1-4.6-4.1-7.2c-0.8-2.1-1.3-4.6-0.8-6.9C47,145.3,47.3,145.3,47.2,145.5z"/>
			<path class="st3" d="M32.5,135.8c-0.9,3.4-1.8,6.9-3.5,10.1c-1.5,2.8-3.7,6-6.7,7.3c-0.2,0.1-0.5-0.2-0.3-0.4
				c1.3-1,2.6-2,3.7-3.3s2.1-2.7,2.8-4.2c1.6-3.1,2.6-6.5,3.7-9.7C32.2,135.5,32.5,135.6,32.5,135.8z"/>
			<path class="st3" d="M19.8,129.4c-1.1,1-2.2,2-3.1,3.1c-0.9,1.2-1.6,2.6-2.5,3.8c-0.2,0.2-0.4,0.1-0.4-0.2c0.3-1.4,1.4-2.8,2.4-4
				s2.1-2.3,3.2-3.3c2.4-2,5.2-3.3,8.2-4c0.1,0,0.1,0.1,0,0.1C24.8,125.9,22.1,127.5,19.8,129.4z"/>
			<path class="st3" d="M54.4,122.9c0.3,0.1,0.2,0.4,0,0.4c-3.7,0.3-6.3-3.6-7.6-6.6c-0.1-0.3,0.3-0.5,0.5-0.2
				c1,1.5,1.8,3.2,3.1,4.4C51.4,122.1,52.9,122.8,54.4,122.9z"/>
			<path class="st3" d="M85,133.7c0.3,1.1,0.8,2.1,0.8,3.2c0,0.2-0.3,0.3-0.4,0.1c-0.1-0.6-0.3-1.2-0.5-1.8s-0.3-1.1-0.4-1.6
				c-0.2-0.9-0.1-1.9,0.5-2.8c0-0.1,0.2,0,0.1,0.1C84.6,131.7,84.7,132.8,85,133.7z"/>
			<path class="st3" d="M89.8,170.5c1.2,4,3.4,7.7,5.3,11.4c0.2,0.3-0.3,0.6-0.5,0.3c-4-6.7-8-14.6-6-22.6c0-0.2,0.3-0.1,0.3,0.1
				C88.2,163.2,88.7,167,89.8,170.5z"/>
		</g>
	</g>
	<g class="st0">
		<path class="st4" d="M255,197.4c-3.6,1.9-6.7,4.6-9.6,7.4c-0.4,0.4-1,0.9-1.5,1.5c0.2-0.6,0.4-1.3,0.5-1.8
			c3.7-12.9,14.4-22.5,25.8-28.8l0.6-0.3c0,0,0.1,0,0.1,0.1l0,0c-0.3,3.8-1,7.7-2.5,11.1c-1.6,3.5-4.3,6.6-7.8,8.2
			C258.6,195.6,256.8,196.4,255,197.4z M264,181.2c0.2-0.2-0.1-0.5-0.3-0.3c-3.7,2.5-7.1,5.5-10.1,8.7c-1.5,1.6-2.7,3.3-4,5.2
			c-1.1,1.8-2.1,3.7-2.7,5.8c0,0.1,0.1,0.1,0.2,0.1c1-2,1.9-3.9,3.2-5.8c1.1-1.7,2.5-3.4,3.9-4.9C257.2,186.7,260.6,184.1,264,181.2
			z"/>
		<path class="st4" d="M252.1,213.4c-3.6,1.2-7.4,2-11.2,2.4c-0.1,0-0.1-0.1-0.1-0.1c2.1-3.8,4.4-7.7,7.6-10.7
			c9.2-9.1,22.4-13,35-14.3c0.5-0.1,0.5-0.1,0.7,0.3c0,0.1-0.1,0.1-0.1,0.2l-0.6,0.6c-2.8,2.7-5.3,5.8-8.3,8.3
			C268.5,206,260.7,210.7,252.1,213.4z M264.8,206.5c3-1.8,5.8-3.8,8.5-6c1.4-1.1,2.9-2.3,4.2-3.5c1.3-1.1,2.6-2.2,3.7-3.6
			c0.3-0.3-0.2-0.7-0.5-0.5c-1.4,1.1-2.7,2.3-3.9,3.4c-1.3,1.2-2.7,2.3-4.1,3.5c-2.6,2.2-5.4,4.3-8.1,6.3
			C264.5,206.3,264.7,206.6,264.8,206.5z M263.9,197c0.1-0.1,0.1-0.3-0.1-0.3c-2.1,0.8-4.1,1.7-6.1,2.7c-3.2,1.8-6.2,3.8-8.8,6.4
			c-2.2,2.3-4.2,4.9-5.7,7.8c-0.1,0.1,0.1,0.2,0.2,0.1c1-1.3,1.9-2.5,2.9-3.7c2.3-2.8,4.8-5.5,7.8-7.6
			C257.3,200.4,260.6,198.6,263.9,197z"/>
		<path class="st4" d="M250.6,220c0.5,0,0.9,0,1.4,0c5.3,0.3,10.8,0.2,15.9-0.9c0.8,0,1.6-0.2,2.4-0.2c3.4-0.4,6.7,0,9.8,1.4
			c2.3,1.1,4.4,2.6,6,4.5l0.4,0.5c0.1,0.2,0,0.5-0.2,0.5c-3.6,0-7.1,1.1-10.5,2.1C266.7,230.3,257.1,226.4,250.6,220L250.6,220z
			 M261.4,226c5.4,3,12,1.7,17.7,0c0.3-0.1,0.2-0.6-0.1-0.5c-2.9,0.6-5.9,1.4-8.9,1.6c-2.9,0.2-5.9-0.2-8.6-1.3
			C261.3,225.7,261.2,225.9,261.4,226z"/>
		<path class="st4" d="M242.4,202.3c-0.4,1.1-0.7,2.4-1.1,3.5c-0.3-0.6-0.6-1.3-0.9-2c-2.1-6.3-2.2-13.1,0-19.4
			c1.3-3.6,3.5-6.7,6-9.5c2.4-2.4,4.8-5.1,6.4-8.1c0.3-0.5,0.3-0.5,0.6-0.6c0.1,0,0.1,0,0.2,0.1c0,0.1,0.1,0.4,0.2,0.5
			c1.7,3.8,2.4,8.3,1.2,12.3c-2.1,4.3-4.8,8.4-7.1,12.6C246.1,194.9,243.5,199,242.4,202.3z M243.6,182c0.8-1.3,1.7-2.6,2.6-4
			c0.2-0.3-0.2-0.9-0.6-0.6c-2.7,2.6-4.5,6.3-5.4,9.8c-0.5,1.9-0.7,3.8-0.8,5.8c0,1.2-0.1,2.7,0.4,3.9c0,0.1,0.1,0.1,0.1,0
			c0.2-0.6,0.1-1.2,0-1.8c0-0.7,0-1.5,0.1-2.2c0.2-1.8,0.5-3.6,1-5.4C241.7,185.6,242.5,183.7,243.6,182z"/>
		<path class="st4" d="M253.5,218.1c-1.8-0.1-3.7-0.3-5.5-0.6c5.2-1.9,12.5-4.3,16.7-6.6c2.4-1.4,5-3.1,7.5-4.2
			c4.5-2.1,9.7-2.1,14.4-0.4c0.4,0.2,0.3,0.9,0,1.1l-0.1,0.1l-0.2,0.2c-5.9,5.9-13.6,9.2-21.7,10.3
			C260.9,218,257.2,218.1,253.5,218.1z M270.5,209.5c1.6-1.1,3.4-2,5.2-2.5c1-0.2,1.9-0.4,2.9-0.5s2,0,3-0.2
			c0.3-0.1,0.4-0.5,0.1-0.5c-1.9-0.5-4.1-0.2-5.9,0.3c-1.9,0.4-3.6,1.2-5.1,2.3c-1.6,1.1-3.1,2.4-4.8,3.3c-2.1,1.1-4.3,1.9-6.5,2.5
			c-0.1,0.1-0.1,0.3,0.1,0.3C263.5,213.7,267.1,211.9,270.5,209.5z"/>
		<path class="st4" d="M234,208.5c0.2-2.4-0.1-5.2,0.8-7.5c0.2-0.3,0.4-0.5,0.8-0.5c0.3-0.1,0.6,0.2,0.8,0.4
			c0.7,0.7,1.3,1.5,1.8,2.4c0.3,1,0.8,2.3,1.3,3.2c0.7,3,0.4,6.3-1,9l-0.1,0.3c-0.6,0.9,0,2.2,1.1,2.2c5.8,0.7,11.4,3.8,14.1,9.1
			c0,0.1-0.1,0.1-0.1,0.2c-0.2,0.3-0.3,0.3-0.6,0.3c-0.6-0.1-1.4-0.4-2.2-0.8c-1.5-0.8-3.2-1.6-5-2c-1.5-0.5-3.5-0.2-5-0.5
			c-2.8-1-5.6-3.1-6.9-5.9C232.9,215.1,234.1,211.8,234,208.5z M239,209.7c0.3-1.4,0-2.9-0.4-4.2c-0.2-0.7-0.5-1.3-0.8-1.9
			s-0.7-1.2-1.3-1.7c-0.1-0.1-0.1,0-0.1,0.1c0.3,0.6,0.8,1.1,1.1,1.7s0.6,1.2,0.8,1.9c0.4,1.4,0.3,2.7,0.4,4.1
			C238.5,209.9,238.9,210,239,209.7z M242.1,223.5c-0.8,0-1.7,0-2.3-0.6c-0.1-0.1-0.1,0.1-0.1,0.1c0.5,0.7,1.3,0.9,2.2,0.9
			s1.6,0,2.5,0c0.2,0,0.3-0.3,0.1-0.3C243.6,223.3,242.8,223.4,242.1,223.5z"/>
		<g class="st1">
			<path class="st3" d="M256.4,224.2c-1-1.7-0.6-3.8-0.3-5.5c0.3-1.7,0.7-3.3,1-5c0.5-2.6,0.3-5.2,1.4-7.7c1-1.5,2.3-1,3.4,0.1
				c-1.2-5.6-0.9-11.5,1.1-16.9c1.7-4.7,5.1-8.6,8.6-12c2-1.9,3.4-4.1,4.9-6.3c0.7-0.7,1.9-0.6,2.4,0.3c0,0,0.2,0.5,0.3,0.5
				c1.4,3.2,2.1,6.7,1.7,10.2c-0.1,2-1,4-2,5.7c-1.4,2.6-2.7,5-4,7.6c3-3.5,6.4-6.6,10.2-9.3c2.8-2.1,5.8-4,8.9-5.6
				c0.3-0.1,0.4-0.3,0.8-0.4c0.7-0.2,1.4,0.4,1.3,1.1v0.1v0.4c-0.4,6.1-2.2,12.7-6.6,17.1c6-2,12.2-3,18.4-3.6
				c1.4-0.4,2.7,1.3,1.8,2.6c-2.3,3.7-5.5,6.7-8.7,9.6c-1.5,1.4-3.1,2.7-4.8,4c4.6-1.9,9.1-2.3,15.1-0.2c1.2,0.4,1.7,1.9,0.7,2.7
				l-0.1,0.1l-0.3,0.3c-1.2,1.2-2.5,2.3-3.8,3.4c-3,2.4-6.4,4.2-9.9,5.5c5,0.3,9.8,2.9,13.3,6.7l0.5,0.5c0.5,0.6,0.3,1.4-0.4,1.8
				c-0.2,0.1-0.5,0.1-0.8,0.2c-3.5,0.2-6.6,1.3-9.9,2.4c-7.4,2.3-15.4,0.5-21.9-3.5c0.2,0.4,0.4,0.8,0.6,1.2
				c0.3,0.9-0.5,1.8-1.1,2.1c-1.3,0.4-2.6-0.3-3.6-0.7c-1.6-0.7-3.2-1.1-4.7-1.3c-1.8-0.3-3.6,0.4-5.3-0.1
				C260.5,230.8,257.9,227.6,256.4,224.2z M279.2,184.4c1.3-4,0.6-8.5-1.2-12.3c-0.1-0.1-0.2-0.5-0.3-0.6c0,0-0.1-0.1-0.2-0.1
				c-0.3,0.1-0.2,0.1-0.6,0.6c-1.6,3-4,5.7-6.4,8.1c-2.6,2.8-4.8,5.9-6,9.5c-2.1,6.3-1.9,13.2,0.2,19.4c0.3,0.7,0.6,1.4,0.9,2
				c0.4-1.1,0.7-2.4,1.1-3.5c1.2-3.3,3.7-7.4,5.4-10.5C274.4,192.8,277.1,188.7,279.2,184.4z M292.5,191.8c1.6-3.5,2.2-7.3,2.5-11.1
				l0,0l-0.1-0.1l-0.6,0.3c-11.5,6.3-22.1,15.9-25.8,28.8c-0.1,0.5-0.3,1.2-0.5,1.8c0.6-0.6,1.1-1.1,1.5-1.5c2.9-2.8,6-5.5,9.6-7.4
				c1.8-1,3.7-1.7,5.4-2.6C288.3,198.4,290.9,195.3,292.5,191.8z M299.5,205.2c3-2.5,5.5-5.6,8.3-8.3l0.6-0.6
				c0.1-0.1,0.1-0.1,0.1-0.2c-0.1-0.3-0.1-0.3-0.7-0.3c-12.6,1.3-25.8,5.2-35.1,14.3c-3.1,3.1-5.4,6.9-7.6,10.7
				c-0.1,0.1,0.1,0.2,0.1,0.1c3.8-0.4,7.6-1.2,11.2-2.4C285.1,216,292.8,211.2,299.5,205.2z M310.6,212.8l0.3-0.3l0.1-0.1
				c0.2-0.3,0.4-0.9,0-1.1c-4.6-1.6-9.9-1.6-14.4,0.4c-2.5,1.1-5.1,2.8-7.5,4.2c-4.2,2.3-11.5,4.7-16.7,6.6c1.8,0.3,3.7,0.5,5.5,0.6
				c3.7,0,7.4-0.1,11.1-0.2C297,221.9,304.7,218.6,310.6,212.8z M300.1,232.9c3.4-1,6.9-2.1,10.5-2.1c0.2,0,0.3-0.3,0.2-0.5
				l-0.5-0.4c-1.7-1.9-3.8-3.4-6-4.5c-3-1.5-6.4-1.8-9.8-1.4c-0.8,0.1-1.6,0.2-2.4,0.2c-5.2,1.1-10.6,1.3-15.9,0.9
				c-0.5,0-0.9,0-1.4,0l0.1,0.1C281.5,231.5,291,235.4,300.1,232.9z M265,229.3c1.4,0.4,3.5,0,5,0.5c1.8,0.4,3.4,1.2,5,2
				c0.7,0.4,1.5,0.8,2.2,0.8c0.3,0,0.3,0,0.6-0.3c0.1-0.1,0.1-0.1,0.1-0.2c-2.7-5.3-8.3-8.4-14-9.2c-1.1,0-1.7-1.3-1.1-2.2l0.1-0.3
				c1.4-2.7,1.7-6,1-9c-0.6-1-1-2.2-1.3-3.2c-0.5-0.8-1-1.7-1.8-2.4c-0.3-0.2-0.5-0.5-0.8-0.4s-0.6,0.3-0.8,0.5
				c-0.9,2.3-0.6,5-0.8,7.5c0,3.3-1.1,6.6-0.3,9.7C259.4,226.2,262.2,228.4,265,229.3z"/>
			<path class="st3" d="M264.4,200.3c0,0.6,0,1.2,0,1.8c0,0.1-0.1,0.1-0.1,0c-0.5-1.2-0.4-2.7-0.4-3.9c0.1-2,0.3-3.9,0.8-5.8
				c0.9-3.6,2.6-7.2,5.4-9.8c0.3-0.3,0.8,0.2,0.6,0.6c-0.9,1.3-1.8,2.5-2.6,4c-1,1.8-1.8,3.7-2.4,5.7c-0.5,1.8-0.8,3.5-1,5.4
				C264.4,198.9,264.3,199.7,264.4,200.3z"/>
			<path class="st3" d="M271.6,205.9c-0.1,0.1-0.2,0.1-0.2-0.1c0.5-2.1,1.5-4,2.7-5.8s2.5-3.6,4-5.2c3-3.3,6.4-6.2,10-8.7
				c0.2-0.1,0.5,0.1,0.3,0.3c-3.3,2.8-6.8,5.5-9.6,8.7c-1.4,1.5-2.7,3.2-3.9,4.9C273.5,202,272.6,203.9,271.6,205.9z"/>
			<path class="st3" d="M262.8,214.8c0-1.4,0.1-2.7-0.4-4.1c-0.2-0.6-0.5-1.2-0.8-1.9c-0.3-0.6-0.8-1.1-1.1-1.7
				c-0.1-0.1,0.1-0.1,0.1-0.1c0.6,0.4,1,1,1.3,1.7c0.3,0.6,0.6,1.2,0.8,1.9c0.4,1.3,0.8,2.8,0.4,4.2
				C263.2,215.2,262.8,215.1,262.8,214.8z"/>
			<path class="st3" d="M267.8,219c-0.1,0.1-0.2,0-0.2-0.1c1.4-2.9,3.5-5.5,5.7-7.8c2.5-2.7,5.5-4.7,8.8-6.4c1.9-1,4-1.9,6.1-2.7
				c0.2-0.1,0.3,0.2,0.1,0.3c-3.3,1.6-6.6,3.4-9.7,5.5s-5.6,4.7-7.9,7.6C269.7,216.5,268.7,217.7,267.8,219z"/>
			<path class="st3" d="M289,211.4c2.7-2,5.4-4.2,8.1-6.3c1.4-1.1,2.7-2.3,4.1-3.5c1.3-1.1,2.6-2.4,3.9-3.4c0.3-0.2,0.7,0.2,0.5,0.5
				c-1.1,1.3-2.4,2.4-3.7,3.6c-1.4,1.2-2.8,2.4-4.2,3.5c-2.7,2.2-5.6,4.1-8.5,6C289,211.8,288.8,211.5,289,211.4z"/>
			<path class="st3" d="M283.6,219.5c2.3-0.6,4.5-1.4,6.5-2.5c1.7-0.9,3.3-2.1,4.8-3.3c1.5-1.1,3.3-1.9,5.1-2.3
				c1.9-0.4,4-0.8,5.9-0.3c0.3,0.1,0.2,0.5-0.1,0.5c-1,0.1-2,0.1-3,0.2s-2,0.2-2.9,0.5c-1.9,0.5-3.6,1.3-5.2,2.5
				c-3.4,2.4-7,4.2-11.1,5C283.5,219.7,283.5,219.5,283.6,219.5z"/>
			<path class="st3" d="M268.6,229.1c-0.8,0-1.6,0-2.5,0c-0.8,0-1.6-0.2-2.2-0.9c0-0.1,0.1-0.1,0.1-0.1c0.6,0.6,1.5,0.7,2.3,0.6
				c0.8,0,1.5-0.2,2.2,0.1C268.9,228.8,268.8,229.1,268.6,229.1z"/>
			<path class="st3" d="M303.2,230.6c0.3-0.1,0.5,0.4,0.1,0.5c-5.6,1.7-12.3,3-17.7,0c-0.1-0.1-0.1-0.3,0.1-0.2
				c2.6,1.2,5.7,1.4,8.6,1.3C297.4,232,300.3,231.2,303.2,230.6z"/>
		</g>
	</g>
	<path class="st3" d="M358.8,16.6c-0.4-0.3-0.9-0.5-1.4-0.8c-1.8-0.9-3.8-1.2-5.7-1.1c-0.5,0.1-1.4,0.2-1.7,0.8
		c-0.2,0.4-0.2,0.8-0.1,1.2c-3.6-1.8-8-2.4-12-1.6c-9.3,1.6-16.5,9.6-18.8,18.4c-1.3,4.2-1.6,8.7-1,13.1c0.1,0.5,0.1,1.1,0.7,1
		c0.2,0,0.2-0.2,0.3-0.2c0.9-3.1,1.7-6.1,2.9-9.1c2.9-6.9,8.7-14.1,16.4-15.1c-9.7,4.5-16.2,14.4-19.2,24.4c0,0.2-0.2,0.6-0.1,0.9
		c0.1,0.3,0.5,0.4,0.8,0.2c-0.2,0.4-0.3,0.8-0.2,1.2c0.2,0.2,0.2,0.2,0.3,0.2c6-0.1,11.9-1.6,17.4-3.9c4.6-1.8,8.6-4.9,12.1-8.5
		c-1.6,4.4-6,7.5-10.1,9.6c-5.3,2.9-11.6,3.5-17.6,2.8c-0.1,0-0.3,0-0.4-0.1c-0.4-0.1-0.9,0.3-0.9,0.6c-0.2,0.4,0.2,0.9,0.6,1
		c0.8,0.2,1.6,0.5,2.4,0.8c4.4,1.2,9,1.6,13.5,1.3c9.1-0.5,18.4-6.4,20.9-15.5c0.9-3.1,1-6.4,0.4-9.6c0.5,0,0.9-0.3,1.3-0.8
		c2.7-3.6,2.9-7.8-0.1-10.4c1-1.5,2.4-2.8,3.8-3.9c0.3-0.2,0.4-0.7,0.1-1l0,0c-0.2-0.3-0.7-0.3-1-0.1
		C361,13.4,359.8,14.9,358.8,16.6z M352.4,45c-5.9,6.8-15.6,8.4-24.1,7.1c-1.4-0.2-2.7-0.5-4.1-0.9c3.7,0.2,8.2-0.2,11.7-1.3
		c7-2.4,15-7.2,16-15.2c0.1-0.5-0.2-0.9-0.7-0.9c-0.3-0.1-0.6,0.1-0.8,0.3c-3.5,4.6-7.9,8.8-13.3,11.2c-5.3,2.4-11.2,3.9-17,4.1l0,0
		v-0.1c0-0.5,0.4-0.8,0.8-1.2c3-2.2,6.8-2.9,10.1-4.6c6.8-3.4,12-9,16.7-14.7c0.5-0.5-0.1-1.6-0.9-1.3c-4.7,1.3-9.3,3.5-13,6.6
		c-4.9,4.6-9.3,9.3-14.1,13.8c0-0.2,0.1-0.4,0.1-0.4c2.5-8.4,7.6-16.5,15-21.4c2.5-1.8,5.4-2.7,8.5-3.1c0.8-0.1,0.8-1.3,0-1.4
		c-8.5-1.3-16.2,4.6-20,11.8c-2.2,3.7-3.4,8-4.5,12.1c-0.2-4,0.2-8,1.4-11.9c2.3-8.3,9.1-15.9,17.8-17.3c5.6-0.9,11.9,0.7,15.5,5
		C358.8,28.1,358.4,38.8,352.4,45z M321.4,47.2c2.7-2.6,5.6-5.1,8.2-7.8c3.1-3.1,6.4-6,10.4-7.8c1.6-0.8,3.4-1.4,5.1-1.9
		c-3.9,5.4-8.6,10.4-14.5,13.4C329.1,44,324,45.4,321.4,47.2z M358.4,27.1c-0.6-0.6-0.6-2-1-3.1c-0.9-2.3-2.4-4-4.2-5.5
		c-0.8-0.7-1.8-1.4-2.2-2.4c1.7-0.5,4.2-0.2,5.9,0.5C360.9,18.9,360.8,23.8,358.4,27.1z"/>
	
		<image style="display:none;overflow:visible;enable-background:new    ;" width="127" height="500" xlink:href="../../../../MINTERO Final Project Content/About/Images/whiteperfume.png"  transform="matrix(0.5564 -0.134 0.134 0.5564 128.6897 -87.2848)">
	</image>
</g>
</svg>
