<?xml version="1.0" encoding="utf-8"?>
<!-- Generator: Adobe Illustrator 27.3.1, SVG Export Plug-In . SVG Version: 6.00 Build 0)  -->
<svg version="1.1" id="Layer_1" xmlns="http://www.w3.org/2000/svg" xmlns:xlink="http://www.w3.org/1999/xlink" x="0px" y="0px"
	 viewBox="0 0 342.6 500" style="enable-background:new 0 0 342.6 500;" xml:space="preserve">
<style type="text/css">
	.st0{display:none;}
	.st1{fill:none;}
	.st2{fill:#00703C;}
</style>
<g id="WPQMeN.tif" class="st0">
	
		<image style="display:inline;overflow:visible;" width="1550" height="866" id="Layer_0" xlink:href="62F57030CBA19F38.png"  transform="matrix(0.6121 0 0 0.6121 -600.1274 -22.7267)">
	</image>
</g>
<g>
	<path class="st1" d="M339.2,291.1c-2.9-1.4-5.9-2.7-9-3.9c-1.9-0.6-3.9-1.3-5.8-1.7c0.4,0.3,0.8,0.7,1.2,1.1
		c0.6,0.5,1.2,0.9,1.7,1.4c2.6,2.2,5.1,4.6,7.2,7.2c1.3,1.4,2.5,2.8,3.5,3.9c1.7,2.3,3.4,5,5.3,7c3.4,3.8,8.5,5.9,13.5,6.3
		c0.5,0,0.9-0.5,0.8-0.9c-2.7-7.2-7.7-13.7-14.3-17.9C342,292.7,340.6,291.9,339.2,291.1z M350.1,308.4c1.6,0.9,3.2,1.4,4.9,2
		c0.3,0.1,0.2,0.5-0.2,0.5c-3.6-0.2-7-2.7-9.5-5c-2.8-2.6-5.1-5.7-7.3-8.9c-0.2-0.2,0.2-0.5,0.3-0.2c2.3,2.9,4.5,5.9,7.3,8.5
		C347,306.4,348.4,307.5,350.1,308.4z"/>
	<path class="st1" d="M321.3,300.1c-0.6-1.3-1-2.8-1.5-4.3c0-0.1-0.1-0.2-0.1-0.2c-0.6-1.9-1.2-3.9-1.7-5.6
		c-0.2,0.9-0.2,1.8-0.3,2.8c-3.3,13.6,1.9,27.6,9.6,38.8c0,0,0.1,0.1,0.1,0.2c1.6-3.4,2.8-7,3.2-10.7c0.3-3.8-0.6-7.7-2.9-10.7
		C325.3,307.2,322.8,303.9,321.3,300.1z M327.1,328c0,0.2-0.2,0.1-0.2,0c0.6-2.8,1.1-5.5,1.3-8.3c0.1-2.7-0.5-5.1-1.5-7.6
		c-0.1-0.2,0.2-0.3,0.3-0.2c1.3,2.1,1.7,4.8,1.7,7.3C328.6,322.2,327.9,325.1,327.1,328z"/>
	<path class="st1" d="M333.6,296.1c-3.6-3.6-8.2-7.4-11.2-10.2c-0.6-0.5-1.3-0.9-2-1.3c-0.5-0.2-0.7-0.6-0.9-0.1
		c-0.2,2.9,0.2,5.8,0.8,8.5c0.2,0.5,0.2,0.9,0.3,1.2c0.4,1.4,0.9,2.8,1.3,4.1c4.4,10.8,14,19.7,23.8,25.9l1.4,0.9
		c0.5,0.4,0.8,0.2,0.8-0.2C345.4,314.4,340.5,304.3,333.6,296.1z M338.5,316.3c-1.6-1.1-3-2.4-4.3-3.7c-5.7-5.6-10.2-12.6-12.2-20.4
		c0-0.2,0.2-0.2,0.2-0.1c1.8,4.7,4,9.2,7,13.3c2.8,3.9,6.2,7.3,9.8,10.3C339.2,316.1,338.8,316.7,338.5,316.3z"/>
	<path class="st1" d="M319,283.2C319,283.1,319.1,283.1,319,283.2C319.1,283.1,319,283.1,319,283.2C319,283.1,319,283.1,319,283.2z"
		/>
	<path class="st1" d="M316.1,294c0.2-0.7,0.3-1.4,0.4-2.2h-0.1c-0.1,0.1-0.3,0.2-0.4,0.3c-0.2,0.2-0.5,0.5-0.7,0.7
		c-0.2,0.2-0.5,0.5-0.8,0.7c-4.2,3.9-7.4,8.8-9.2,14.3c-1.9,5.1-1.1,10.4-0.1,15.6c0.2,1.9,0.2,3.9,0.1,5.8c0,0.1,0,0.1,0.1,0.1
		c5.2-3.6,9.1-9.6,9.2-16.1c0.2-3.6,0.4-7.3,0.7-10.9C315.3,299.6,315.5,296.7,316.1,294z M309.9,302.8c-0.7,1.2-1.3,2.4-1.9,3.7
		c-1.1,2.6-2.1,5.2-3,7.9c0,0.1-0.2,0-0.1,0c0.8-2.8,1.3-5.6,2.5-8.3c0.6-1.4,1.3-2.8,2-4.1c0.7-1.2,1.4-2.4,2.5-3.3
		c0.2-0.2,0.6,0.1,0.5,0.3C311.6,300.4,310.6,301.6,309.9,302.8z"/>
	<path class="st1" d="M328.9,284.6c6.2,2.6,12.3,5.8,18.2,9.1c3,1.7,6.3,2.7,9.7,2.5c2.8-0.1,5.5-0.8,8.1-1.8
		c0.2-0.1,0.3-0.4,0.2-0.6c-0.1-0.1-0.3-0.2-0.4-0.2c-3.2-1.5-5.8-3.9-8.5-6.1c-7.5-5.9-18.2-6.2-26.9-3.1
		C329.3,284.4,329.1,284.5,328.9,284.6z M339,284.1c3.3-0.5,6.6-0.1,9.8,1c1.6,0.6,3,1.3,4.4,2.1c1.3,0.9,2.9,1.8,3.9,3.2
		c0.2,0.2-0.1,0.5-0.3,0.3c-1.3-0.9-2.4-2.1-3.9-2.9c-1.3-0.9-2.8-1.5-4.3-2.1c-3.1-1.1-6.3-1.7-9.6-1.5
		C338.9,284.3,338.9,284.1,339,284.1z"/>
	<path class="st1" d="M252.6,328.2c2.4-3.6,5.5-7,8.2-10.3c-0.6,0.3-1.2,0.6-1.7,0.8c-19.3,6.5-32.6,23.5-40.5,41.4
		c-0.1,0.2-0.2,0.4-0.2,0.4c0,0.1,0.1,0.2,0.2,0.2l0,0h0.2l0.6-0.1c5.2-0.8,10.4-2.2,15.1-4.7c4.9-2.7,9-6.9,10.9-12.1
		C247.2,338.4,249.2,332.8,252.6,328.2z M234.6,338.6c-3.1,3.7-5.8,7.7-8.5,11.7c-0.2,0.2-0.6,0-0.4-0.2c1.3-2.4,2.8-4.7,4.4-7
		c2.8-3.9,6-7.7,9.6-11.1c3.6-3.2,7.5-6.2,12.1-7.9c0.1-0.1,0.2,0.2,0.1,0.2c-2.4,1.3-4.7,2.7-6.9,4.3
		C241.2,331.4,237.7,334.9,234.6,338.6z"/>
	<path class="st1" d="M203.3,337.3c2.1,0.9,4.5,1.4,6.8,1.7c5.5,0.8,11.1,0,15.5-3.4c4.6-3.2,9.2-6.3,13.8-9.3
		c4.7-3.1,9.2-6.4,14.4-8.8c1.7-0.8,3.8-1.3,5.4-2.1c-1.8-1.2-5.1-1.7-7.5-2.1c-5.5-0.8-11-0.7-16.3,0.5
		c-8.1,1.7-15.3,6.1-20.7,12.2c-1.8,2.1-3.6,4.3-5.8,6.1c-1.7,1.6-3.8,3.1-5.7,4.4C203.1,336.6,203.1,337.1,203.3,337.3z
		 M218.5,324.6c1.2-1.3,2.5-2.5,3.9-3.6c3.7-2.8,7.9-4.7,12.3-5.9c2.1-0.6,4.1-0.9,6.2-1c1.5-0.1,3.2-0.3,4.7,0.1
		c0.1,0,0.1,0.2,0,0.2c-1.7,0.4-3.6,0.3-5.3,0.6c-4.5,0.6-8.8,2.1-12.8,4.3c-3.1,1.7-5.8,3.9-8.5,6.1
		C218.7,325.6,218.2,325,218.5,324.6z"/>
	<path class="st1" d="M249,275.7c1.8-0.2,3.6-0.6,5.3-1.1c-6.1-2.4-12.6-4.1-19.2-3.6c-1.8,0-6.8,1.5-10,1.4c3.6,0.7,7.3,1.3,11,2.3
		C240.3,275.7,244.7,276.4,249,275.7z"/>
	<path class="st1" d="M252.4,257.9c-8.5-2.5-17.6,1.3-24.1,6.8c-1,0.9-2.1,1.9-3,2.9c3-2.1,7-4.2,10.6-5.1
		c7.2-1.6,16.4-1.9,21.6,4.3c0.3,0.3,0.2,0.9-0.1,1.1c-0.2,0.2-0.6,0.2-0.9,0.2c-5.4-2.1-11.3-3.2-17.1-2.4
		c-5.8,0.8-11.5,2.6-16.5,5.5l0,0v0.1c0.2,0.4,0.8,0.5,1.3,0.6c3.7,0.3,7.2-1.1,10.8-1.5c7.4-0.8,14.9,1.2,21.9,3.6
		c0.8,0.2,0.7,1.3,0,1.5c-4.7,1.4-9.6,2.1-14.5,1.3c-6.4-1.2-12.6-2.8-19-4.1c0.1,0.2,0.2,0.2,0.2,0.2c6.6,5.8,15.2,9.9,24,10.1
		c3.1,0.2,6-0.6,8.8-1.9c0.7-0.4,1.4,0.6,0.8,1.1c-6.3,5.7-16,4.7-23.1,0.8c-3.9-2-7-5-10.2-7.8c2,3.5,4.4,6.7,7.5,9.2
		c6.3,5.8,16,8.5,24.2,5.1c5.1-2.2,9.6-6.9,10.3-12.5C266.8,268.7,260.8,260,252.4,257.9z M254.9,268.9c-5.6-1.7-11.4-2.2-17.2-1.6
		c-0.3,0-0.4-0.4-0.1-0.5c5.8-0.9,11.9-0.4,17.5,1.7C255.2,268.6,255.1,268.9,254.9,268.9z M244.4,282.1c-3.2-0.2-6.5-1.2-9.4-2.4
		c-1.6-0.7-3.1-1.4-4.5-2.3c-1-0.7-2.2-1.4-3-2.4c-0.2-0.2,0.1-0.3,0.2-0.2c1.1,0.7,2.1,1.6,3.2,2.3c1.4,0.9,2.8,1.7,4.3,2.4
		c2.9,1.3,6.1,1.9,9.2,2.4C244.6,281.7,244.6,282.1,244.4,282.1z M261.5,266.2c-1.3-1.7-2.8-3.4-4.7-4.7c-1.8-1.3-4-2.1-6.2-2.7
		c-0.1,0-0.1-0.2,0-0.2c4.5,0.6,8.8,3.4,11,7.3C261.7,266.2,261.6,266.3,261.5,266.2z"/>
	<path class="st1" d="M273.2,315.6l0.1-1.2c0-0.4,0-0.9,0-0.9c0-0.2-0.4-0.4-0.6-0.2c-5.3,3.4-10.6,7.2-14.5,12.1
		c-11.9,14.2-15.9,33.4-16.2,51.6c-0.2,0.9,0.6,1.3,1.1,0.9l0.8-0.9c0.9-1.2,3.8-4.3,4.9-5.4C262.6,356.2,272.4,336.6,273.2,315.6z
		 M254.9,361.1c-1.5,2.2-3,4.3-4.7,6.5c-1.5,2-2.9,3.9-4.7,5.7c-0.3,0.3-0.9-0.1-0.6-0.5c1.4-2,2.9-3.9,4.4-5.8
		c1.6-2.1,3.1-4.2,4.6-6.3c2.8-4,5.5-8.1,8.1-12.3c0.1-0.2,0.4,0,0.3,0.2C260.1,352.9,257.7,357.1,254.9,361.1z M270.3,317.4
		c-1.7,1.4-3.3,2.8-4.9,4.3c-3.8,3.6-7.4,7.4-10,12c-2.6,4.7-4.9,9.6-6.8,14.6c-0.1,0.2-0.4,0.1-0.3-0.2c0.9-3.1,2-6.2,3.3-9.1
		c2.1-4.8,4.8-9.3,8.4-13.3c3-3.3,6.4-6.3,10.2-8.7C270.3,317.1,270.5,317.3,270.3,317.4z"/>
	<path class="st1" d="M259.3,312.9c4.4,0.8,9.2,0,13-2.4l0.4-0.2c1-0.8,2.6-0.2,2.8,1.1c1.7,8.2,7.2,15.9,15.2,19
		c0.4-0.2,0.9-0.8,0.7-1.3c-1.1-3.3-3.9-6.3-4.8-9.9c-0.9-2.1-0.6-5-1.3-7c-1.7-4-5.4-7.6-9.6-9.2c-2.3-0.6-4.4-0.2-6.7,0.2
		c-2.4,0.5-4.9,0.9-7.3,1.3c-3.6,0.6-7.5,0.5-10.7,2.1c-2.3,1.7,1.4,3.6,2.8,4.4c0.4,0.2,0.7,0.4,1.1,0.6c0.5,0.1,0.9,0.2,1.4,0.3
		C257.1,312.1,258.2,312.4,259.3,312.9z M283.1,311c0.9,0.6,1.3,1.6,1.5,2.6c0.1,0.6,0.1,1.3,0.2,1.8c0,0.6,0.1,1.3,0.2,2
		c0,0.2-0.3,0.3-0.4,0.1c-0.5-1.1-0.3-2.4-0.4-3.6c-0.1-1-0.4-2.1-1.2-2.8C282.9,311,283,310.9,283.1,311z M252.4,308.7
		c-0.1-0.1,0-0.2,0.1-0.2c0.9,0.4,1.7,1,2.5,1.4c0.9,0.4,1.9,0.8,2.8,0.9c2,0.5,3.9,0.2,5.9,0c0.3,0,0.4,0.4,0.2,0.5
		c-2,0.6-4.2,0.3-6.2-0.2c-1-0.2-2.1-0.6-3-1C254,309.8,253,309.3,252.4,308.7z"/>
	<path class="st1" d="M279.8,326.1c0.1,1,0.2,2.1,0.2,3.1c1.1,7.2,1.5,14.5,0.6,21.6c0,1.3,0,2.7-0.1,4c-0.5,8.8,4,17.2,11.3,22.4
		c0.3,0.2,0.9-0.1,0.8-0.5c-0.1-2.6,0-5.3,0.4-7.9c1.5-7,3.1-14.3,0.8-21.4C291.6,339.1,286.4,331.7,279.8,326.1z M290,341.4
		c4.9,7.4,3.8,16.8,2.1,25c-0.1,0.4-0.6,0.3-0.6-0.1c0.6-4.5,1.4-8.9,1.2-13.4c-0.2-3.9-1-8-3-11.4
		C289.7,341.4,289.9,341.3,290,341.4z"/>
	<path class="st1" d="M277.9,330.6c-0.4-2.8-0.9-5.6-1.8-8.4c-2.1,7.7-4.8,19-7.7,25.6c-2.9,6-6.6,12.1-6.6,19
		c-0.1,4,0.7,8.1,2.3,11.8c0.2,0.6,0.4,1.2,1,1.3c0.6,0.1,0.9-0.1,1.3-0.4c3.5-4,6.3-8.6,8.5-13.4c2.6-5.9,3.9-12.3,4.2-18.8
		c0-2.4-0.1-4.7-0.2-7.1C278.5,337,278.2,333.8,277.9,330.6z M271.7,347.3c-0.6,1.9-1.4,3.7-2.4,5.5c-0.9,1.7-2,3.3-2.8,5.1
		c-1.1,2.2-1.8,4.7-2.1,7.1c-0.3,2.5,0,5,0,7.5c0,0.3-0.6,0.4-0.6,0.1c-0.8-2.6-0.7-5.6-0.3-8.2c0.3-2.4,1.1-4.7,2.3-6.9
		c0.9-1.7,2.1-3.3,3.1-5.1c2.1-3.9,3.4-8.2,4.2-12.6c0-0.2,0.3-0.2,0.3,0.1C273,342.4,272.5,344.9,271.7,347.3z"/>
	<path class="st1" d="M267,269.8c-0.2,0.9,0.6,2.1,0.8,3.1c0.5,2.4,0.2,4.7-0.6,6.8c-0.3,1-0.8,2.1-0.6,3.1c1.7-0.5,3.7-2.1,4.7-3.6
		C273.4,275.4,270.8,271.3,267,269.8z M270.7,275.3c0-0.1,0.2-0.1,0.2,0c0.4,0.7,0.2,1.6,0,2.3c-0.2,0.7-0.6,1.5-1.3,2
		c-0.2,0.2-0.4-0.1-0.2-0.2c0.2-0.3,0.5-0.6,0.6-0.9c0.2-0.3,0.3-0.6,0.5-0.9C270.7,276.8,270.6,276.1,270.7,275.3z"/>
	<path class="st1" d="M387.7,262.8C387.8,262.8,387.7,262.9,387.7,262.8c-11.9-2.4-23.6-6.5-34.6-11.6c-8.1-3.5-15.9-7.7-22.6-13.2
		c-0.5,2.6-0.2,5.5,1.3,7.6c1.7,2.3,4.7,2.8,6.8,4.9c1.2,1,2.1,2.1,3.2,3.3c1.5,1.7,2.1,3.9,3.3,5.7c1.7,2.6,5.1,4.3,8.3,3.9
		c3.1-0.4,6.6,0.2,9.2,2.1c2.1,1.4,3.8,3.3,5.8,4.7c2.8,1,6.1,0.7,9.2,0.4c3-0.3,6.1,0.1,9,0.9c1.5,0.4,2.8,1.1,4.1,1.4
		c2.7,0.6,5.5,0.4,8.3-0.2c3.6-0.7,7.5-0.7,11.1-0.1c-1.6-1.4-3-3-4.2-4.7c-2.3-3.2-3.3-7.5-7.1-9.4c-3.7-1.9-7.5-4-10.5-7
		c-3.7-3.9-7-8.3-12.2-9.9c-1.3-0.3-2.6,0-4-0.2c-4.7-0.6-7.4-4.5-10.3-7.7l0,0h-0.1c-0.5-0.4-1-0.8-1.5-1.1
		c-1.6-0.9-3.6-1.9-5.5-1.8c-2.5,0.3-5.6,2-8.5,2.1c-2.9,0.4-6.2-0.5-8.9-1.1c-2.4-0.5-4.7,0.9-5.8,3.1c-0.2,0.2-0.2,0.6-0.3,0.8
		c7.7,4.4,15.4,9.2,23.1,13.4C365,254.3,376.2,258.9,387.7,262.8z"/>
	<path class="st1" d="M309.2,295.2c1.7-0.4,3.2-1.1,4.3-2.1c0.4-0.4,0.8-0.8,1.3-1.1c2.3-2.4,3.5-5.8,3.1-9.2
		c-0.1-0.7,0.7-1.2,1.3-0.8c3.6,1.4,7.7,1.8,11.3,0.5c1.7-0.6,3.3-1.5,4.7-2.6c0.1-0.1,0.1-0.3-0.1-0.4c-3.5-2.5-7.7-3.9-12.1-3.8
		c-3.3-0.1-6.4,0.3-8.8,2.7C309.3,282.4,308.1,289.3,309.2,295.2z M314.6,288.5c0.9-1.7,1-3.7,1.5-5.6c0.1-0.3,0.6-0.2,0.6,0.1
		c-0.2,3.5-1.3,8.3-5.3,9.4c-0.2,0.1-0.5-0.3-0.2-0.4C312.7,291.1,313.8,289.9,314.6,288.5z"/>
	<path class="st1" d="M284.1,239.3c-5.2-0.7-10.4-0.2-15.6-0.8c-5.1-0.9-10.9-2.4-14.9-5c4.8,2,10,3.3,15.1,3.7
		c5.2,0.2,10.5-0.4,15.7,0.2c5.2,0.2,10.4,2,15.5,2.8c2,0.2,3.9,0.4,5.9,0.3c0-0.1,0.1-0.1,0.1-0.2c-0.2-0.8-2-1.7-2.9-2.2
		c-3-1.4-6.2-2.5-9.6-2.9c-1.7-0.2-3.4-0.2-5.3-0.6c-4.7-0.6-8.5-3.8-11.6-6.9c-1-0.9-2.5-1-3.9-0.9c-1.6,0.2-3.1,1.3-4.7,1.7
		c-2.8,0.7-5.8,0.7-8.6-0.4c-1.7-0.7-3-1.3-4.6-1.4c-3.6-0.4-6,1.6-9.2,3.1c-4.4,2-9.6,1.4-13.9-0.5c1.7,2.4,3.7,4.4,6,6.2
		c2.8,2.1,6.1,3.7,9.6,3.9c1.9,0.1,3.9,0.5,5.6,1.5c1.7,0.9,2.6,2.7,4.1,3.7c1.3,0.9,3,1.3,4.6,1c0.8-0.2,1.7-0.5,2.8-0.6
		c3-0.2,5.9,1.2,8.2,2.9c2.8,2,6.6,1.9,9.7,0.9c1.7-0.5,2.9-1.5,4.4-2.6c1.7-1.1,3.5-1.9,5.5-2.2c1.9-0.3,3.8,0,5.5-0.2
		c1.7-0.2,3.3-0.8,4.9-1.4c0.3-0.1,0.6-0.2,1-0.5c-1.3-0.1-2.7-0.2-4-0.4C294.3,241,289.4,239.6,284.1,239.3z"/>
	<g>
		<path class="st2" d="M269.9,277.9c-0.2,0.3-0.4,0.6-0.6,0.9c-0.2,0.2,0.1,0.4,0.2,0.2c0.6-0.5,1.1-1.3,1.3-2
			c0.2-0.7,0.3-1.7,0-2.3c-0.1-0.1-0.2-0.1-0.2,0c-0.1,0.7,0,1.4-0.2,2.1C270.2,277.2,270.2,277.6,269.9,277.9z"/>
		<path class="st2" d="M250.6,258.1c-0.1,0-0.1,0.2,0,0.2c2.1,0.6,4.3,1.4,6.2,2.7c1.8,1.3,3.3,2.8,4.7,4.7c0.1,0.1,0.2,0,0.2-0.1
			C259.4,261.5,255.1,258.7,250.6,258.1z"/>
		<path class="st2" d="M254.9,268c-5.5-2.1-11.6-2.7-17.5-1.7c-0.2,0-0.2,0.5,0.1,0.5c5.8-0.6,11.6-0.1,17.2,1.6
			C255,268.3,255.2,268.1,254.9,268z"/>
		<path class="st2" d="M244.4,281.2c-3.2-0.4-6.3-1-9.2-2.4c-1.5-0.6-3-1.5-4.3-2.4c-1.1-0.7-2.1-1.6-3.2-2.3
			c-0.2-0.1-0.3,0.1-0.2,0.2c0.9,0.9,2,1.7,3,2.4c1.4,0.9,2.9,1.7,4.5,2.3c3,1.3,6.2,2.2,9.4,2.4
			C244.5,281.5,244.6,281.2,244.4,281.2z"/>
		<path class="st2" d="M202.9,338l0.2,0.1l0.5,0.2c4.7,1.6,9.9,2.2,14.9,1.3c2.8-0.3,5.5-1.8,7.8-3.4c4-2.6,8-5.1,12-7.7
			c-7.3,7-13.3,15.4-17.9,24.3c-1.1,2.2-2.3,4.6-3.2,6.9c-0.2,0.9,0.7,1.7,1.6,1.6h0.2l0.6-0.1c2.5-0.4,5-0.9,7.4-1.6
			c6.4-1.7,12.7-5.1,16.7-10.4c-2.1,8.1-3,16.7-3.2,25v2.4c0,0.3-0.1,1,0.3,1.6c0.6,1.1,2.3,1.3,3.3,0.5c4.9-3.8,8.8-8.6,12.6-13.4
			c2.2-2.8,4.3-5.8,6.2-9c-2.6,7-3.2,13.6,0.5,22.4l0.4,0.9c0.6,1.5,2.8,2,3.8,0.6c1.7-2.1,3.4-4.2,4.9-6.4c3.3-4.9,5.6-10.2,7-15.8
			c0.2,1.3,0.3,2.6,0.6,3.9c1.6,6.2,5.7,11.3,10.7,15.2c0.6,0.5,1.3,1.1,2.1,0.8c0.6-0.2,1.2-0.9,1.1-1.6c0-2.6,0.2-5.1,0.6-7.7
			c1.8-7.2,3.5-14.6,1.3-22c-1.5-5.9-4.3-11.5-8.1-16.4c0.9,0.4,1.7,0.8,2.6,1.1c0.2,0.2,0.7,0.2,0.9,0.1c3.2-1.4,1.4-4.6,0.3-6.6
			c-1.1-2.1-2.1-4.3-2.5-6.6c-0.6-2.4,0.1-5.1-0.9-7.4c-1.5-3.8-4.5-6.7-8.1-8.5c0,0,0-0.1,0.1-0.1c3-10.9,7.4-21.4,13-31.3
			c4-7.1,8.8-13.7,14.1-20c-0.5,8.9,1.6,18,6.5,25.6c-0.2,0.1-0.3,0.2-0.4,0.3c-5.1,4.5-7.3,12-4.9,18.4c0.2,0.4,0.6,0.6,0.9,0.6
			c0.7-0.2,1.4-0.4,2.1-0.7c-5.5,6.3-9.3,14.5-8.2,22.9c0.6,3.5,1.3,7,0.9,10.6c-0.3,1.3,1.1,2.1,2.1,1.3l0.6-0.4
			c5.1-3.9,8.7-10,8.8-16.4c0.1-1.8,0.2-3.6,0.2-5.4c1.4,8.5,5.3,16.8,10.2,23.9c0.1,0.1,0.2,0.4,0.3,0.5c0.5,0.8,1.8,0.6,2.1-0.2
			c0.8-1.7,1.5-3.4,2.1-5.2c1.4-4.2,1.8-8.9,0.4-13.1c4.7,4.7,10.1,8.8,15.6,12.2c0.6,0.5,1.7,0.6,2.3-0.2c0.3-0.4,0.4-0.9,0.2-1.3
			c-0.5-1.9-1-3.8-1.7-5.7c-1.4-4.3-3.2-8.5-5.4-12.6c0.2,0.2,0.3,0.4,0.5,0.6c3.5,3.7,8.4,5.9,13.4,6.4c0.6,0.1,1.3,0.2,1.7-0.2
			c0.6-0.3,0.9-1.1,0.7-1.7c-1.4-3.9-3.3-7.3-5.8-10.5c-1.6-2.1-3.5-4-5.5-5.8c5.4,2.7,11.9,2.5,17.4,0.2l0.6-0.2
			c0.6-0.2,0.9-1.1,0.5-1.6c-0.2-0.2-0.5-0.3-0.6-0.5c-3.2-1.5-5.7-3.8-8.4-6.1c-6.2-5.1-14.6-6.4-22.5-5.1c0.4-0.2,0.8-0.6,1.2-0.8
			c0.5-0.3,0.9-0.8,0.9-1.3c0-0.6-0.6-0.9-1-1.3c-3.5-2.5-7.7-4-12.1-3.9c-2.9-0.2-6.2,0.2-8.8,1.9c-4.9-8.4-6.2-18.4-4.7-27.9
			c4.8-5.4,10.1-10.3,15.7-14.8c0.9,0.9,1.8,1.7,2.8,2.5c-1,3.7-0.6,8.1,1.6,10.9c0.9,1.3,2.4,2.4,3.8,3.1c2.6,1.3,4.5,3,6.2,5.1
			c1.3,1.6,2.1,3.7,3.2,5.5c1.8,2.7,4.9,4.4,8.1,4.8c2.2,0.2,4.3-0.6,6.5,0c3.6,0.6,5.8,3.4,8.6,5.5c0.6,0.5,1.7,1,2.3,1.1
			c3,0.7,6.2,0.4,9.1,0.1c2.8-0.3,5.6,0,8.4,0.6c2.6,0.9,5.8,2,8.8,1.7c3-0.2,5.7-1.2,8.6-1.3c2.4-0.2,5,0,7.5,0.4
			c0.3,0.1,0.6,0.2,0.9,0.2s0.6-0.2,0.8-0.2c0-0.2-0.1-0.5-0.2-0.7c-0.2-0.2-0.2-0.2-0.3-0.3l-0.4-0.3c-1.7-1.6-3.3-3.4-4.6-5.3
			c-2.2-3.6-3.4-8.1-7.3-10.2c-3.6-2-7.1-4-10-7c-3.2-3.6-6.6-7.6-10.9-9.9c-1.9-1.1-4.3-1-6.5-1.1c-4-0.5-7-5.2-9-7.2
			c-1.8-1.5-3.9-2.7-6.2-3.2c-3.9-1.2-7.3,1.7-11.1,1.7c-4.4,0.7-9.1-2.8-13.3-0.3c-1.7,0.9-3,2.5-3.8,4.3c-0.8-0.5-1.6-0.9-2.4-1.3
			c13.3-10.7,28.5-18.6,44.7-23.5c3.7-1.3,1.9-6.6-1.8-5.5c-21.7,7-41.3,19.6-57,35.9c-1.3,0.2-2.6,0.5-3.9,0.6
			c-0.2-3.7-6.4-5.4-9.3-6.6c-4.8-2-10.4-0.8-14.9-3.5c-2.4-1.2-3.8-3.1-5.9-4.7c-2.4-1.9-6.3-1.9-8.9-0.5c-2.8,1.4-6.1,1.9-9.1,0.8
			c-1.6-0.6-3.6-1.5-5.5-1.4c-3.8-0.4-7.3,2.1-10.2,3.7c-4.6,2.2-9.9,1.4-14.5-0.6c-0.6-0.2-1.1,0.4-0.7,0.9
			c1.9,3.2,4.3,6.1,7.3,8.4c1.5,1.2,3.1,2.2,4.8,2.9c3.2,1.8,7.3,0.9,10.4,2.8c1.6,0.9,2.4,2.6,3.9,3.7c1.7,1.2,3.9,1.7,5.9,1.3
			c2.6-0.7,5.1-0.6,7.3,0.8c1.5,0.9,3.1,2.4,4.9,2.9c4.7,1.5,10.1,0.3,13.8-2.8c3.1-2.2,6.5-1.8,10-2c2.1-0.2,3.9-0.8,5.6-1.5
			c1.5-0.6,3.4-1.4,4.3-2.8c0.9-0.1,1.7-0.2,2.6-0.3c-9.8,10.5-17.9,22.5-23.9,35.5c-2,0.9-4.3,1.6-6.6,1.6
			c-2.2,0.1-4.5-0.4-6.6-1.3c1.1-3.8-1.3-7.3-5.5-8.8c-0.5-0.2-1-0.2-1.4,0c-1.1-3-3-5.8-5.5-7.9c-7-6.4-17.9-6.4-25.9-2.1
			c-4,2.1-7.7,4.9-10.7,8.2c-0.6,0.6-1.1,1.3-1.7,1.9c-0.4,0.3-0.3,0.9,0,1.3c0.2,0.2,0.9,0.3,1.1,0c0-0.1,0.3-0.2,0.3-0.2
			c4.7-3.6,10.3-6.5,16.4-7c4.6-0.4,9.9-0.1,13.6,2.8c-4.8-1.2-9.9-1.7-14.7-0.8c-5.8,1-11.7,2.8-16.7,5.9c-0.1,0.1-0.2,0.1-0.2,0.3
			c0.2,0.4,0.4,0.7,0.8,0.9c-0.2-0.1-0.6,0.2-0.6,0.6c0,0.2,0.5,0.6,0.6,0.7c7.8,6.8,18.6,11.8,29.1,10.5c-7,3.3-15.7,0.3-21.8-3.9
			c-2.5-1.8-4.8-4-7.3-6.1c-0.2-0.1-0.4-0.1-0.6-0.1c-0.6,0.3-0.2,0.8-0.1,1.3c1.8,3.9,4.5,7.6,7.7,10.5c6.6,6.2,16.9,9.1,25.5,5.5
			c3.7-1.6,7.1-4.3,9.2-7.7c0.1,0.4,0.2,0.7,0.6,0.9c0.6,0.3,1.4,0,1.9-0.2c1.7-0.9,3.2-2.3,4.3-3.9c0.3-0.5,0.6-0.9,0.8-1.4
			c3.7,2,8.1,2.5,12.2,1.6c-3.1,7-5.5,14.1-7.3,21.5c-0.5-0.2-1-0.4-1.5-0.6c-2.5-1.2-5.5-0.4-7.9,0.3c-2.4,0.6-4.7,1.3-7.2,1.8
			c-3.6,1-7.5,0.9-10.9,2.8c-2.2,1.7-0.9,3.6,1.2,5.1c-5.5-0.8-11.2-0.6-16.7,0.6c-8.5,1.8-16,6.6-21.5,13.2
			c-3.2,4.2-7,7.7-11.3,10.7C201.4,335.9,201.6,337.6,202.9,338z M314.6,312.7c-0.2,6.5-4,12.4-9.2,16.1c-0.1,0-0.1,0-0.1-0.1
			c0.2-1.9,0.2-3.9-0.1-5.8c-1-5.2-1.8-10.6,0.1-15.6c1.7-5.5,5.1-10.3,9.2-14.3c0.2-0.2,0.6-0.5,0.8-0.7c0.2-0.2,0.5-0.5,0.7-0.7
			c0.1-0.1,0.3-0.2,0.4-0.3h0.1c-0.1,0.8-0.2,1.5-0.4,2.2c-0.6,2.8-0.8,5.6-0.6,8.5C315,305.4,314.7,309.1,314.6,312.7z
			 M318.9,282.5L318.9,282.5L318.9,282.5L318.9,282.5z M327.4,331.1l-0.1-0.2c-7.7-11.2-13-25.2-9.6-38.8c0.2-0.9,0.2-1.8,0.3-2.8
			c0.5,1.7,1,3.7,1.7,5.6c0,0.1,0.1,0.2,0.1,0.2c0.5,1.5,0.9,3,1.5,4.3c1.5,3.7,4,7,6.4,10.1c2.4,3,3.2,7,2.9,10.7
			C330.2,324.1,328.9,327.7,327.4,331.1z M347.8,324.2c0.1,0.4-0.2,0.6-0.8,0.2l-1.4-0.9c-9.8-6.2-19.4-15.1-23.8-25.9
			c-0.5-1.3-0.9-2.7-1.3-4.1c-0.1-0.2-0.2-0.7-0.3-1.2c-0.6-2.7-0.9-5.5-0.8-8.5c0.2-0.6,0.5-0.2,0.9,0.1c0.7,0.4,1.3,0.9,2,1.3
			c3,2.8,7.7,6.7,11.2,10.2C340.5,303.8,345.2,313.8,347.8,324.2z M357.5,310.9c0.2,0.5-0.3,0.9-0.8,0.9c-5.1-0.4-10.1-2.5-13.5-6.3
			c-1.9-2.1-3.6-4.7-5.3-7c-0.9-1.2-2.1-2.5-3.5-3.9c-2.2-2.6-4.6-5-7.2-7.2c-0.6-0.5-1.2-0.9-1.7-1.4c-0.4-0.4-0.8-0.7-1.2-1.1
			c2,0.5,3.9,1.1,5.8,1.7c3,1.3,6,2.5,9,3.9c1.4,0.8,2.8,1.6,4.1,2.4C349.8,297.2,354.8,303.7,357.5,310.9z M356.1,286.9
			c2.6,2.2,5.3,4.7,8.5,6.1c0.1,0.1,0.4,0.2,0.4,0.2c0.2,0.2,0.1,0.5-0.2,0.6c-2.6,1-5.3,1.7-8.1,1.8c-3.5,0.2-6.7-0.9-9.7-2.5
			c-5.9-3.3-12-6.5-18.2-9.1c0.2-0.1,0.3-0.2,0.4-0.2C337.9,280.7,348.6,280.9,356.1,286.9z M323,275.1c4.3-0.2,8.5,1.3,12.1,3.8
			c0.2,0.1,0.2,0.3,0.1,0.4c-1.4,1.1-3,2.1-4.7,2.6c-3.6,1.3-7.7,0.9-11.3-0.5c-0.6-0.4-1.4,0.2-1.3,0.8c0.4,3.4-0.8,6.8-3.1,9.2
			c-0.4,0.4-0.8,0.7-1.3,1.1c-1.3,1-2.8,1.7-4.3,2.1c-1.1-5.9,0.2-12.9,5.1-16.9C316.6,275.4,319.7,275,323,275.1z M331.5,233.9
			c1.1-2.2,3.5-3.6,5.8-3.1c2.7,0.6,6,1.5,8.9,1.1c2.8,0,5.9-1.7,8.5-2.1c1.7-0.1,3.9,0.8,5.5,1.8c0.6,0.3,1,0.7,1.5,1.1h0.1l0,0
			c2.8,3.2,5.6,7,10.3,7.7c1.4,0.2,2.7-0.1,4,0.2c5.1,1.6,8.5,6.1,12.2,9.9c3,3,6.8,5.1,10.5,7c3.8,1.9,4.8,6.2,7.1,9.4
			c1.2,1.7,2.6,3.3,4.2,4.7c-3.7-0.6-7.5-0.6-11.1,0.1c-2.8,0.6-5.6,0.9-8.3,0.2c-1.3-0.3-2.6-1-4.1-1.4c-2.9-0.8-5.9-1.1-9-0.9
			c-3.1,0.3-6.2,0.7-9.2-0.4c-2.1-1.4-3.7-3.3-5.8-4.7c-2.6-1.8-6-2.5-9.2-2.1c-3.2,0.5-6.5-1.3-8.3-3.9c-1.2-1.8-1.8-3.9-3.3-5.7
			c-1-1.2-2-2.3-3.2-3.3c-2.1-2-5.2-2.6-6.8-4.9c-1.6-2.1-1.8-4.9-1.3-7.6c6.8,5.6,14.6,9.7,22.6,13.2c11.1,5.2,22.7,9.2,34.6,11.7
			c0.1,0,0.1-0.1,0-0.1c-11.5-3.9-22.7-8.5-33.4-14.1c-7.7-4.3-15.3-9.1-23.1-13.4C331.2,234.4,331.3,234.1,331.5,233.9z
			 M302.4,242.1c-1.7,0.6-3.3,1.3-4.9,1.4c-1.8,0.2-3.6-0.1-5.5,0.2c-2,0.4-3.9,1.1-5.5,2.2c-1.5,1.1-2.7,2.1-4.4,2.6
			c-3.2,0.9-7,1-9.7-0.9c-2.3-1.7-5.1-3.2-8.2-2.9c-1,0.1-2,0.4-2.8,0.6c-1.6,0.3-3.3-0.2-4.6-1c-1.4-0.9-2.4-2.8-4.1-3.7
			s-3.7-1.4-5.6-1.4c-3.6-0.2-6.9-1.7-9.6-3.9c-2.3-1.7-4.3-3.9-6-6.2c4.3,1.8,9.5,2.4,13.9,0.5c3.2-1.6,5.6-3.5,9.2-3.1
			c1.6,0.1,2.8,0.7,4.6,1.4c2.8,1.1,5.8,1.1,8.6,0.4c1.7-0.4,3.2-1.4,4.7-1.7c1.3-0.2,2.8,0.1,3.9,0.9c3.2,3.2,7,6.3,11.6,6.9
			c1.9,0.3,3.6,0.3,5.3,0.6c3.3,0.4,6.5,1.5,9.6,2.9c0.9,0.4,2.7,1.4,2.9,2.2c0,0.1-0.1,0.1-0.1,0.2c-2,0.1-3.9,0-5.9-0.3
			c-5.1-0.9-10.3-2.6-15.5-2.8c-5.2-0.6-10.5,0-15.7-0.2c-5.1-0.4-10.3-1.7-15.1-3.7c4,2.6,9.9,4.1,14.9,5
			c5.2,0.6,10.5,0.1,15.6,0.8c5.3,0.3,10.2,1.6,15.4,2.5c1.3,0.2,2.7,0.3,4,0.4C303.1,241.8,302.7,242,302.4,242.1z M255.4,289.1
			c-8.1,3.4-17.9,0.7-24.2-5.1c-3.1-2.5-5.5-5.8-7.5-9.2c3.2,2.8,6.3,5.8,10.2,7.8c7,4,16.7,5,23.1-0.8c0.6-0.5-0.1-1.5-0.8-1.1
			c-2.8,1.3-5.7,2.1-8.8,1.9c-8.8-0.3-17.4-4.4-24-10.1c0,0-0.2-0.2-0.2-0.2c6.4,1.3,12.7,2.9,19.1,4.1c4.9,0.7,9.8,0.1,14.5-1.3
			c0.8-0.2,0.8-1.3,0-1.5c-7-2.3-14.5-4.3-21.9-3.6c-3.6,0.4-7.2,1.8-10.8,1.5c-0.5-0.1-1-0.2-1.3-0.6c0,0,0,0,0-0.1l0,0
			c5.1-2.9,10.7-4.7,16.5-5.5c5.8-0.9,11.7,0.2,17.1,2.4c0.3,0.1,0.6,0.1,0.9-0.2c0.3-0.3,0.4-0.8,0.1-1.1
			c-5.1-6.2-14.4-5.9-21.6-4.3c-3.6,0.9-7.5,3-10.6,5.1c0.9-1,2-2,3-2.9c6.5-5.5,15.6-9.3,24.1-6.8c8.4,2.1,14.5,10.8,13.4,19.3
			C265,282.2,260.5,286.9,255.4,289.1z M225.1,271.9c3.2,0.1,8.2-1.4,10-1.4c6.6-0.6,13.1,1.2,19.2,3.6c-1.7,0.6-3.5,0.9-5.3,1.1
			c-4.3,0.7-8.7-0.1-12.9-1C232.4,273.2,228.7,272.6,225.1,271.9z M271.1,278.7c-0.9,1.5-2.9,3.1-4.7,3.6c-0.2-0.9,0.3-2.1,0.6-3.1
			c0.7-2.2,1-4.5,0.6-6.8c-0.2-1.1-1-2.3-0.8-3.1C270.7,270.8,273.3,274.9,271.1,278.7z M234.3,355.2c-4.7,2.5-9.9,3.9-15.1,4.7
			l-0.6,0.1h-0.2l0,0c-0.2,0-0.2-0.2-0.2-0.2c0,0,0.1-0.2,0.2-0.4c7.9-17.9,21.2-34.9,40.5-41.4c0.6-0.2,1.2-0.5,1.7-0.8
			c-2.8,3.4-5.8,6.7-8.2,10.3c-3.3,4.7-5.5,10.2-7.3,15.6C243.3,348.3,239.3,352.5,234.3,355.2z M248.4,371c-1,1.1-3.9,4.2-4.9,5.4
			l-0.8,0.9c-0.5,0.6-1.3,0.2-1.1-0.9c0.3-18.2,4.3-37.4,16.2-51.6c4-4.9,9.2-8.7,14.5-12.1c0.2-0.2,0.6,0,0.6,0.2c0,0,0,0.5,0,0.9
			l-0.1,1.2C272.3,336,262.5,355.7,248.4,371z M274.7,365.6c-2.1,4.9-5,9.4-8.5,13.4c-0.3,0.3-0.7,0.5-1.3,0.4
			c-0.6-0.2-0.8-0.8-1-1.3c-1.5-3.7-2.4-7.8-2.3-11.8c0-6.9,3.7-13,6.6-19c2.9-6.6,5.6-17.9,7.7-25.6c0.9,2.7,1.3,5.5,1.8,8.4
			c0.3,3.2,0.6,6.4,0.8,9.6c0.2,2.4,0.2,4.7,0.2,7.1C278.5,353.2,277.3,359.5,274.7,365.6z M293.9,346.9c2.3,7.1,0.7,14.3-0.8,21.4
			c-0.4,2.6-0.5,5.3-0.4,7.9c0.1,0.4-0.5,0.7-0.8,0.5c-7.3-5.1-11.8-13.5-11.3-22.4c0-1.3,0-2.7,0.1-4c0.9-7.1,0.5-14.5-0.6-21.6
			c-0.1-1-0.2-2.1-0.2-3.1C286.4,331.1,291.6,338.5,293.9,346.9z M253.7,310.5c-1.4-0.8-5.1-2.8-2.8-4.4c3.2-1.7,7.1-1.5,10.7-2.1
			c2.4-0.3,5-0.8,7.3-1.3c2.3-0.5,4.5-0.9,6.7-0.2c4.2,1.6,7.8,5.2,9.6,9.2c0.8,2,0.5,4.9,1.3,7c0.9,3.6,3.7,6.6,4.8,9.9
			c0.2,0.6-0.3,1.1-0.7,1.3c-8.1-3.2-13.5-10.8-15.2-19c-0.2-1.3-1.8-1.9-2.8-1.1l-0.4,0.2c-3.8,2.4-8.5,3.2-13,2.4
			c-1.1-0.5-2.3-0.8-3.1-1c-0.5-0.1-0.9-0.2-1.4-0.3C254.4,310.8,254,310.7,253.7,310.5z M203.2,335.8c1.9-1.3,3.9-2.8,5.7-4.4
			c2.1-1.8,3.9-4,5.8-6.1c5.4-6.2,12.6-10.6,20.7-12.2c5.4-1.2,10.9-1.3,16.3-0.5c2.4,0.4,5.7,0.9,7.5,2.1c-1.6,0.8-3.6,1.4-5.4,2.1
			c-5.2,2.4-9.6,5.8-14.4,8.8c-4.7,3.1-9.2,6.2-13.8,9.3c-4.3,3.4-10.1,4.2-15.5,3.4c-2.3-0.3-4.7-0.9-6.8-1.7
			C203,336.6,203,336,203.2,335.8z"/>
		<path class="st2" d="M219.1,324.7c2.7-2.2,5.4-4.4,8.5-6.1c3.9-2.1,8.3-3.6,12.8-4.3c1.7-0.2,3.6-0.2,5.3-0.6c0.1,0,0.1-0.2,0-0.2
			c-1.5-0.4-3.2-0.2-4.7-0.1c-2.1,0.2-4.2,0.5-6.2,1c-4.4,1.2-8.7,3.2-12.3,5.9c-1.4,1-2.8,2.2-3.9,3.6
			C218.1,324.4,218.7,325,219.1,324.7z"/>
		<path class="st2" d="M251.8,323.5c-4.6,1.7-8.5,4.7-12.1,7.9c-3.6,3.3-6.8,7.1-9.6,11.1c-1.7,2.2-3.1,4.5-4.4,7
			c-0.2,0.2,0.2,0.5,0.4,0.2c2.8-3.9,5.5-8,8.5-11.7s6.6-7.2,10.5-10c2.2-1.6,4.5-2.9,6.9-4.3C252,323.7,251.8,323.5,251.8,323.5z"
			/>
		<path class="st2" d="M263.8,310.8c0.3-0.1,0.2-0.6-0.2-0.5c-2,0.2-3.9,0.4-5.9,0c-1-0.2-2-0.6-2.8-0.9c-0.9-0.4-1.7-1-2.5-1.4
			c-0.1-0.1-0.2,0.1-0.1,0.2c0.6,0.7,1.6,1.2,2.4,1.6c0.9,0.5,2,0.8,3,1C259.7,311.2,261.9,311.4,263.8,310.8z"/>
		<path class="st2" d="M270.1,316.6c-3.8,2.4-7.2,5.4-10.2,8.7c-3.6,3.9-6.2,8.5-8.4,13.3c-1.3,3-2.4,6-3.3,9.1
			c-0.1,0.2,0.2,0.3,0.3,0.2c1.9-5,4.1-10,6.8-14.6c2.6-4.6,6.2-8.5,10-12c1.6-1.5,3.2-2.9,4.9-4.3
			C270.3,316.7,270.2,316.5,270.1,316.6z"/>
		<path class="st2" d="M262,347.8c-2.6,4.2-5.3,8.3-8.1,12.3c-1.5,2.1-3,4.3-4.6,6.3c-1.5,2-3,3.8-4.4,5.8c-0.3,0.4,0.2,0.8,0.6,0.5
			c1.7-1.7,3.2-3.7,4.7-5.7c1.6-2.1,3.2-4.3,4.7-6.5c2.8-4,5.2-8.2,7.5-12.6C262.4,347.8,262.1,347.6,262,347.8z"/>
		<path class="st2" d="M272.9,339.2c-0.8,4.3-2.1,8.7-4.2,12.6c-0.9,1.7-2.1,3.3-3.1,5.1c-1.2,2.1-1.9,4.4-2.3,6.9
			c-0.4,2.7-0.6,5.7,0.3,8.2c0.1,0.3,0.6,0.2,0.6-0.1c0-2.5-0.3-5,0-7.5c0.3-2.4,0.9-4.9,2.1-7.1c0.9-1.7,2-3.3,2.8-5.1
			c0.9-1.7,1.7-3.6,2.4-5.5c0.8-2.4,1.3-4.9,1.7-7.5C273.2,339.1,272.9,339.1,272.9,339.2z"/>
		<path class="st2" d="M322.1,291.7c-0.1-0.1-0.2-0.1-0.2,0.1c2.1,7.7,6.6,14.8,12.2,20.4c1.3,1.3,2.8,2.6,4.3,3.7
			c0.3,0.2,0.7-0.2,0.4-0.6c-3.6-3.1-7-6.5-9.8-10.3C326.1,300.9,323.9,296.4,322.1,291.7z"/>
		<path class="st2" d="M311.8,298.2c-1.1,0.9-1.8,2.1-2.5,3.3c-0.8,1.3-1.4,2.7-2,4.1c-1.1,2.7-1.7,5.5-2.5,8.3c0,0.1,0.1,0.1,0.1,0
			c0.8-2.7,1.9-5.4,3-7.9c0.6-1.3,1.2-2.5,1.9-3.7c0.8-1.3,1.7-2.4,2.4-3.7C312.3,298.2,312,298,311.8,298.2z"/>
		<path class="st2" d="M326.6,311.5c1.1,2.4,1.6,4.9,1.5,7.6c-0.1,2.8-0.7,5.5-1.3,8.3c0,0.2,0.2,0.2,0.2,0c0.8-2.8,1.5-5.8,1.5-8.8
			c0-2.4-0.4-5.1-1.7-7.3C326.7,311.2,326.5,311.4,326.6,311.5z"/>
		<path class="st2" d="M338,296.4c2.1,3.2,4.3,6.3,7.3,8.9c2.5,2.3,5.9,4.7,9.5,5c0.2,0,0.4-0.4,0.2-0.5c-1.7-0.6-3.3-1.1-4.9-2
			c-1.6-0.9-3.1-2-4.3-3.2c-2.8-2.5-5-5.6-7.3-8.5C338.2,295.9,337.9,296.1,338,296.4z"/>
		<path class="st2" d="M348.5,285.2c1.5,0.6,2.9,1.3,4.3,2.1c1.3,0.9,2.5,2.1,3.9,2.9c0.2,0.2,0.5-0.1,0.3-0.3
			c-0.9-1.3-2.4-2.4-3.9-3.2c-1.4-0.9-2.9-1.6-4.4-2.1c-3.2-1.1-6.5-1.4-9.8-1c-0.1,0-0.1,0.2,0,0.2
			C342.1,283.6,345.4,284.1,348.5,285.2z"/>
		<path class="st2" d="M311.1,291.3c-0.2,0.2-0.1,0.5,0.2,0.4c3.9-1.1,5.1-5.9,5.3-9.4c0-0.3-0.5-0.4-0.6-0.1
			c-0.5,1.9-0.6,3.9-1.5,5.6C313.8,289.3,312.6,290.6,311.1,291.3z"/>
		<path class="st2" d="M284.1,313.3c0.1,1.2-0.1,2.4,0.4,3.6c0.1,0.2,0.4,0.2,0.4-0.1c-0.1-0.6-0.2-1.3-0.2-2c0-0.6-0.1-1.3-0.2-1.8
			c-0.2-1-0.6-2-1.5-2.6c-0.1-0.1-0.2,0.1-0.1,0.2C283.7,311.2,284,312.3,284.1,313.3z"/>
		<path class="st2" d="M292.6,352.4c0.2,4.5-0.6,9-1.2,13.4c-0.1,0.4,0.6,0.5,0.6,0.1c1.7-8.2,2.8-17.7-2.1-25
			c-0.1-0.2-0.3,0-0.2,0.2C291.6,344.4,292.4,348.4,292.6,352.4z"/>
	</g>
</g>
<g>
	<path class="st1" d="M61.2,413.4c3.2,0.7,6.5,0.7,9.8,0.5c0.5,0,1.1-0.1,1.7-0.1c-0.4,0.3-0.9,0.6-1.2,0.8c-9,6-20.6,6.3-30.9,4.1
		l-0.5-0.1c0,0,0,0,0-0.1l0,0c2.2-2.2,4.6-4.2,7.3-5.5c2.8-1.3,6.1-1.8,9.1-0.9C58.1,412.5,59.6,413,61.2,413.4z M47.2,418.5
		c-0.2,0-0.2,0.3,0,0.4c3.6,0.4,7.2,0.4,10.7-0.1c1.7-0.2,3.4-0.6,5.2-1.1c1.6-0.5,3.3-1.1,4.7-2.1c0.1-0.1,0-0.2-0.1-0.2
		c-1.6,0.7-3.2,1.4-5,1.9c-1.6,0.5-3.3,0.8-5,1C54.3,418.7,50.8,418.5,47.2,418.5z"/>
	<path class="st1" d="M71.4,405c2.9,1.2,5.6,2.7,8.1,4.4c0,0,0,0.1,0,0.1c-3.3,1.2-6.7,2.4-10.3,2.5c-10.4,0.8-20.5-3.7-29-9.6
		c-0.3-0.2-0.4-0.3-0.3-0.5c0.1-0.1,0.1,0,0.2,0l0.7,0c3.1-0.2,6.3-0.7,9.5-0.7C57.4,401,64.7,402.1,71.4,405z M60,402.6
		c-2.8-0.4-5.6-0.7-8.4-0.8c-1.4,0-3-0.1-4.4,0c-1.4,0-2.8,0-4.2,0.2c-0.3,0-0.2,0.5,0,0.5c1.4,0.1,2.8,0,4.2-0.1c1.4,0,2.9,0,4.4,0
		c2.8,0.1,5.5,0.2,8.3,0.4C60.1,402.9,60.1,402.6,60,402.6z M55.6,408.9c-0.1,0-0.2,0.2-0.1,0.2c1.7,0.6,3.4,1.2,5.1,1.5
		c2.9,0.6,5.8,1,8.8,0.6c2.6-0.2,5.2-0.8,7.6-1.8c0.1,0,0-0.2-0.1-0.2c-1.3,0.3-2.5,0.6-3.7,0.8c-2.9,0.5-5.8,0.8-8.8,0.5
		C61.4,410.3,58.4,409.7,55.6,408.9z"/>
	<path class="st1" d="M75.8,401.8c-0.3-0.3-0.6-0.4-0.9-0.7c-3.1-3-6.5-5.7-10.2-7.8c-0.5-0.4-1-0.7-1.6-1.1c-2.3-1.5-4.1-3.5-5.2-6
		c-0.8-1.9-1.3-3.9-1.3-5.9l0-0.5c0-0.2,0.3-0.3,0.4-0.2c2.2,1.9,4.9,3,7.5,4.2C71.3,387.1,75.1,394.4,75.8,401.8L75.8,401.8z
		 M72.3,392.5c-1.8-4.7-6.5-7.3-10.9-9.3c-0.2-0.1-0.4,0.3-0.2,0.4c2.1,1.2,4.4,2.2,6.3,3.7c1.9,1.4,3.5,3.2,4.5,5.3
		C72.2,392.7,72.4,392.6,72.3,392.5z"/>
	<path class="st1" d="M71.6,416.9c0.8-0.5,1.7-1.1,2.5-1.6c-0.1,0.5-0.3,1.1-0.5,1.7c-2,4.9-5.5,9.2-10.2,11.9
		c-2.6,1.5-5.6,2.3-8.7,2.6c-2.8,0.2-5.6,0.6-8.2,1.6c-0.5,0.2-0.5,0.2-0.7,0.1c0,0-0.1-0.1-0.1-0.2c0,0,0.1-0.3,0.1-0.4
		c0.9-3.2,2.9-6.4,5.7-8.2c3.5-1.5,7.3-2.6,11-4C65.4,419.5,69.1,418.4,71.6,416.9z M60.1,428.8c-1.2,0.4-2.4,0.7-3.6,1.1
		c-0.3,0.1-0.3,0.7,0.1,0.7c3-0.2,6-1.5,8.4-3.2c1.3-0.9,2.4-2,3.5-3.1c0.7-0.7,1.5-1.6,1.8-2.6c0,0,0-0.1-0.1-0.1
		c-0.4,0.3-0.7,0.7-1,1.1c-0.4,0.4-0.8,0.9-1.3,1.3c-1.1,1-2.2,1.9-3.4,2.7C63.2,427.5,61.7,428.2,60.1,428.8z"/>
	<path class="st1" d="M73,401.5c1.1,1,2.1,2.1,3,3.3c-4.2-1.6-9.9-3.9-13.7-4.7c-2.2-0.4-4.7-0.7-6.8-1.3c-3.8-1.1-7-3.8-9-7.3
		c-0.1-0.3,0.3-0.7,0.5-0.7l0.2,0l0.2,0c6.7-0.5,13.2,1.5,18.7,5.1C68.4,397.6,70.7,399.5,73,401.5z M58.1,397.8
		c-1.6-0.2-3.1-0.6-4.5-1.3c-0.7-0.4-1.4-0.8-2-1.3c-0.7-0.5-1.2-1-1.9-1.5c-0.2-0.1-0.5,0.1-0.3,0.3c0.9,1.3,2.4,2.3,3.8,3
		c1.4,0.7,2.8,1.1,4.3,1.3c1.6,0.2,3.1,0.2,4.7,0.5c1.9,0.4,3.6,1.1,5.3,1.9c0.1,0,0.2-0.1,0.1-0.2
		C64.6,398.9,61.4,398.1,58.1,397.8z"/>
	<path class="st1" d="M79.9,417.5c-1.4,1.4-2.6,3.2-4.4,4.2c-0.3,0.1-0.5,0.1-0.7-0.1c-0.2-0.1-0.3-0.5-0.3-0.7
		c-0.1-0.8,0-1.6,0.2-2.4c0.3-0.8,0.7-1.8,0.9-2.7c1.1-2.2,3-4.1,5.3-5l0.2-0.1c0.8-0.2,1.1-1.3,0.5-1.9c-3.2-3.5-5-8.3-3.8-13
		c0,0,0.1,0,0.2,0c0.3-0.1,0.3,0,0.5,0.2c0.3,0.4,0.6,1,0.9,1.6c0.5,1.3,1.1,2.6,2,3.8c0.6,1.1,2.1,2,2.8,2.9c1.2,2,1.8,4.9,1.1,7.2
		C84.1,414.1,81.6,415.5,79.9,417.5z M77.5,414.2c-0.9,0.7-1.5,1.8-2,2.8c-0.2,0.5-0.4,1.1-0.5,1.6c-0.1,0.5-0.2,1.1-0.1,1.7
		c0,0.1,0.1,0.1,0.1,0c0.1-0.5,0.1-1.1,0.2-1.6s0.3-1.1,0.5-1.6c0.5-1.1,1.2-1.9,1.9-2.7C77.9,414.3,77.7,414.1,77.5,414.2z
		 M82.8,404.1c0.5,0.4,1,0.9,1.1,1.6c0,0.1,0.1,0,0.2,0c0-0.7-0.3-1.3-0.8-1.7c-0.5-0.4-1-0.8-1.5-1.3c-0.1-0.1-0.3,0-0.2,0.2
		C81.8,403.4,82.3,403.8,82.8,404.1z"/>
	<g>
		<path class="st2" d="M74.4,396.2c-0.3,1.5-1.6,2.7-2.7,3.5c-1.1,0.9-2.2,1.7-3.2,2.6c-1.7,1.3-2.9,3.1-4.9,4
			c-1.4,0.4-1.9-0.6-2-1.8c-2.2,4-5.5,7.6-9.6,9.8c-3.5,2-7.6,2.6-11.6,2.8c-2.2,0.2-4.2,0.7-6.4,1.3c-0.8,0-1.5-0.7-1.3-1.5
			c0,0,0.1-0.4,0.1-0.4c0.8-2.7,2.3-5.2,4.3-7.1c1.1-1.2,2.7-1.9,4.2-2.4c2.2-0.8,4.3-1.7,6.4-2.5c-3.7,0.6-7.4,0.7-11.2,0.4
			c-2.8-0.2-5.6-0.6-8.4-1.2c-0.2-0.1-0.4-0.1-0.7-0.2c-0.5-0.2-0.6-0.9-0.2-1.3l0,0l0.2-0.2c3.4-3.5,8-6.6,13-7
			c-4.7-1.9-9.1-4.6-13.1-7.4c-1.1-0.5-1-2.2,0.3-2.5c3.4-1,6.9-1.2,10.4-1.3c1.7,0,3.3,0,5,0.1c-3.8-1.3-6.8-3.4-9.4-7.8
			c-0.5-0.9,0-2,1-2.1l0.2,0l0.3,0c1.4-0.1,2.8-0.1,4.1-0.1c3.1,0.1,6.1,0.8,9,1.8c-2.9-2.8-4.5-6.9-4.6-11.1l0-0.5
			c0-0.6,0.6-1,1.2-0.9c0.2,0,0.4,0.2,0.6,0.3c2.2,1.7,4.8,2.7,7.3,3.7c5.7,2.5,9.7,7.8,11.5,13.6c0.1-0.4,0.2-0.7,0.3-1
			c0.3-0.7,1.2-0.8,1.8-0.7c1,0.4,1.4,1.6,1.8,2.3c0.6,1.3,1.4,2.3,2.2,3.3c0.9,1.1,2.4,1.6,3.2,2.9C75.4,390,75.3,393.3,74.4,396.2
			z M39.5,408.6c-2.9,1.7-4.8,4.9-5.7,8.2c0,0.1-0.1,0.4-0.1,0.5c0,0,0,0.1,0.1,0.2c0.2,0.1,0.2,0.1,0.7-0.1
			c2.6-0.9,5.4-1.4,8.2-1.6c3.1-0.3,6-1.1,8.7-2.6c4.6-2.8,8.1-7.1,10.1-12c0.2-0.6,0.4-1.2,0.5-1.7c-0.8,0.5-1.7,1.1-2.5,1.6
			c-2.5,1.4-6.2,2.6-8.8,3.6C46.9,406,43.1,407.1,39.5,408.6z M35.3,397c-2.8,1.3-5.2,3.3-7.3,5.5l0,0l0,0.1l0.5,0.1
			c10.3,2.2,21.9,1.8,30.9-4.1c0.3-0.2,0.8-0.5,1.2-0.8c-0.7,0.1-1.3,0.1-1.7,0.1c-3.2,0.2-6.6,0.2-9.8-0.5
			c-1.6-0.3-3.2-0.9-4.7-1.2C41.4,395.3,38.1,395.7,35.3,397z M38.1,385.2c-3.2,0-6.3,0.5-9.5,0.7l-0.7,0c-0.1,0-0.2,0-0.2,0
			c-0.1,0.2-0.1,0.3,0.3,0.5c8.4,5.8,18.5,10.3,29,9.6c3.5-0.2,6.9-1.4,10.3-2.5c0.1,0,0.1-0.2,0-0.1c-2.5-1.8-5.3-3.3-8.1-4.4
			C52.5,386.2,45.3,385,38.1,385.2z M35.2,374.8l-0.3,0l-0.2,0c-0.3,0.1-0.7,0.3-0.5,0.7c2,3.4,5.2,6.2,9,7.3
			c2.1,0.6,4.6,0.9,6.8,1.3c3.8,0.8,9.5,3.1,13.7,4.7c-1-1.2-2-2.2-3-3.3c-2.2-1.9-4.6-3.9-6.9-5.7
			C48.3,376.3,41.9,374.3,35.2,374.8z M52.2,367.9c-2.6-1.2-5.3-2.3-7.5-4.2c-0.1-0.1-0.4,0-0.4,0.2l0.1,0.5
			c0.1,2.1,0.6,4.1,1.3,5.9c1.1,2.5,2.9,4.4,5.2,6c0.6,0.4,1,0.7,1.6,1.1c3.8,2.1,7.2,4.8,10.2,7.8c0.3,0.3,0.6,0.4,0.9,0.7l0-0.1
			C62.9,378.5,59.1,371.1,52.2,367.9z M71.8,388.5c-0.6-0.9-2.1-1.8-2.8-2.9c-0.9-1.2-1.5-2.5-2-3.8c-0.3-0.6-0.5-1.3-0.9-1.6
			c-0.2-0.2-0.2-0.2-0.5-0.2c-0.1,0-0.1,0-0.2,0c-1.2,4.7,0.7,9.5,3.8,13c0.7,0.6,0.3,1.7-0.5,1.9l-0.2,0.1c-2.3,0.9-4.2,2.7-5.3,5
			c-0.1,0.9-0.6,1.9-0.9,2.7c-0.1,0.8-0.2,1.6-0.2,2.4c0.1,0.3,0.1,0.6,0.3,0.7c0.2,0.1,0.5,0.1,0.7,0.1c1.8-0.9,3-2.8,4.4-4.2
			c1.7-2,4.1-3.4,5.3-5.8C73.6,393.4,73.1,390.6,71.8,388.5z"/>
		<path class="st2" d="M57,406.6c0.3-0.4,0.6-0.7,1-1.1c0,0,0.1,0,0.1,0.1c-0.3,1-1.2,1.8-1.8,2.6c-1.1,1.2-2.2,2.2-3.5,3.1
			c-2.4,1.7-5.4,3-8.4,3.2c-0.4,0-0.4-0.6-0.1-0.7c1.2-0.3,2.4-0.6,3.6-1.1c1.6-0.6,3-1.3,4.4-2.2c1.2-0.8,2.4-1.7,3.4-2.7
			C56.3,407.5,56.7,407.1,57,406.6z"/>
		<path class="st2" d="M55.5,399.5c0.1,0,0.2,0.1,0.1,0.2c-1.4,1-3,1.6-4.7,2.1c-1.6,0.5-3.4,0.9-5.2,1.1c-3.5,0.5-7.2,0.5-10.7,0
			c-0.2,0-0.2-0.3,0-0.4c3.5,0.1,7,0.2,10.5-0.3c1.7-0.2,3.4-0.5,5-1C52.3,400.8,53.9,400.1,55.5,399.5z"/>
		<path class="st2" d="M65.6,398.6c-0.7,0.9-1.5,1.6-1.9,2.7c-0.2,0.5-0.3,1-0.5,1.6c-0.1,0.5-0.1,1.1-0.2,1.6c0,0.1-0.1,0-0.1,0
			c-0.2-0.5-0.1-1.2,0.1-1.7c0.1-0.6,0.3-1.1,0.5-1.6c0.4-1,1-2.2,2-2.8C65.5,398.1,65.7,398.4,65.6,398.6z"/>
		<path class="st2" d="M64.7,393.4c0.1,0,0.1,0.1,0.1,0.2c-2.4,1-5,1.5-7.6,1.8c-2.9,0.3-5.8,0-8.8-0.6c-1.7-0.4-3.5-0.9-5.1-1.5
			c-0.2-0.1-0.1-0.3,0.1-0.2c2.9,0.7,5.9,1.4,8.8,1.7c2.9,0.4,5.9,0.1,8.8-0.5C62.3,393.9,63.5,393.7,64.7,393.4z"/>
		<path class="st2" d="M47.8,386.9c-2.7-0.2-5.5-0.3-8.3-0.4c-1.4,0-2.9,0-4.4,0c-1.4,0-2.8,0.1-4.2,0.1c-0.3,0-0.3-0.5,0-0.5
			c1.4-0.2,2.7-0.2,4.2-0.2c1.5,0,3,0,4.4,0c2.8,0.1,5.6,0.4,8.4,0.8C47.9,386.7,47.9,387,47.8,386.9z"/>
		<path class="st2" d="M55.3,384.8c-1.7-0.8-3.5-1.5-5.3-1.9c-1.5-0.4-3.1-0.4-4.7-0.5c-1.5-0.1-3-0.6-4.3-1.3
			c-1.4-0.7-2.9-1.6-3.8-3c-0.1-0.2,0.1-0.4,0.3-0.3c0.7,0.5,1.3,1,1.9,1.5c0.6,0.4,1.3,0.9,2,1.3c1.4,0.7,2.9,1.1,4.5,1.3
			c3.4,0.3,6.5,1.1,9.4,2.8C55.5,384.7,55.3,384.9,55.3,384.8z"/>
		<path class="st2" d="M69.5,386.8c0.5,0.4,1,0.8,1.5,1.3c0.5,0.4,0.9,1,0.8,1.7c0,0-0.1,0-0.1,0c-0.1-0.7-0.6-1.2-1.1-1.6
			c-0.5-0.4-1-0.7-1.3-1.2C69.2,386.8,69.4,386.7,69.5,386.8z"/>
		<path class="st2" d="M49.1,367.7c-0.2-0.1-0.1-0.5,0.2-0.4c4.3,1.9,9.1,4.6,10.9,9.3c0,0.1-0.1,0.2-0.2,0.1
			c-1-2.1-2.7-3.9-4.5-5.3C53.4,369.9,51.2,368.8,49.1,367.7z"/>
	</g>
</g>
<image style="display:none;overflow:visible;" width="188" height="350" xlink:href="../../../../MINTERO Final Project Content/About/Images/carfreshenersolo.png"  transform="matrix(0.6013 0.2434 -0.2434 0.6013 157.3696 0)">
</image>
<image style="display:none;overflow:visible;" width="164" height="350" xlink:href="../../../../MINTERO Final Project Content/About/Images/essentialoil.png"  transform="matrix(0.4137 -0.1773 0.1773 0.4137 30.4241 327.9101)">
</image>
</svg>
