<?xml version="1.0" encoding="utf-8"?>
<!-- Generator: Adobe Illustrator 27.3.1, SVG Export Plug-In . SVG Version: 6.00 Build 0)  -->
<svg version="1.1" id="Layer_1" xmlns="http://www.w3.org/2000/svg" xmlns:xlink="http://www.w3.org/1999/xlink" x="0px" y="0px"
	 viewBox="0 0 504.6 431.5" style="enable-background:new 0 0 504.6 431.5;" xml:space="preserve">
<style type="text/css">
	.st0{fill:none;}
	.st1{fill:#00703C;}
</style>
<g>
	<path class="st0" d="M501.2,87.6c-2.9-1.4-5.9-2.7-9-3.9c-1.9-0.6-3.9-1.3-5.8-1.7c0.4,0.3,0.8,0.7,1.2,1.1
		c0.6,0.5,1.2,0.9,1.7,1.4c2.6,2.2,5.1,4.6,7.2,7.2c1.3,1.4,2.5,2.8,3.5,3.9c1.7,2.3,3.4,5,5.3,7c3.4,3.8,8.5,5.9,13.5,6.3
		c0.5,0,0.9-0.5,0.8-0.9c-2.7-7.2-7.7-13.7-14.3-17.9C504,89.2,502.6,88.4,501.2,87.6z M512.1,104.9c1.6,0.9,3.2,1.4,4.9,2
		c0.3,0.1,0.2,0.5-0.2,0.5c-3.6-0.2-7-2.7-9.5-5c-2.8-2.6-5.1-5.7-7.3-8.9c-0.2-0.2,0.2-0.5,0.3-0.2c2.3,2.9,4.5,5.9,7.3,8.5
		C509,102.9,510.4,104,512.1,104.9z"/>
	<path class="st0" d="M483.3,96.6c-0.6-1.3-1-2.8-1.5-4.3c0-0.1-0.1-0.2-0.1-0.2c-0.6-1.9-1.2-3.9-1.7-5.6c-0.2,0.9-0.2,1.8-0.3,2.8
		c-3.3,13.6,1.9,27.6,9.6,38.8c0,0,0.1,0.1,0.1,0.2c1.6-3.4,2.8-7,3.2-10.7c0.3-3.8-0.6-7.7-2.9-10.7
		C487.3,103.7,484.8,100.4,483.3,96.6z M489.1,124.5c0,0.2-0.2,0.1-0.2,0c0.6-2.8,1.1-5.5,1.3-8.3c0.1-2.7-0.5-5.1-1.5-7.6
		c-0.1-0.2,0.2-0.3,0.3-0.2c1.3,2.1,1.7,4.8,1.7,7.3C490.6,118.7,489.9,121.6,489.1,124.5z"/>
	<path class="st0" d="M495.6,92.6c-3.6-3.6-8.2-7.4-11.2-10.2c-0.6-0.5-1.3-0.9-2-1.3c-0.5-0.2-0.7-0.6-0.9-0.1
		c-0.2,2.9,0.2,5.8,0.8,8.5c0.2,0.5,0.2,0.9,0.3,1.2c0.4,1.4,0.9,2.8,1.3,4.1c4.4,10.8,14,19.7,23.8,25.9l1.4,0.9
		c0.5,0.4,0.8,0.2,0.8-0.2C507.4,110.9,502.5,100.8,495.6,92.6z M500.5,112.8c-1.6-1.1-3-2.4-4.3-3.7c-5.7-5.6-10.2-12.6-12.2-20.4
		c0-0.2,0.2-0.2,0.2-0.1c1.8,4.7,4,9.2,7,13.3c2.8,3.9,6.2,7.3,9.8,10.3C501.2,112.6,500.8,113.2,500.5,112.8z"/>
	<path class="st0" d="M481,79.7C481,79.6,481.1,79.6,481,79.7C481.1,79.6,481,79.6,481,79.7C481,79.6,481,79.6,481,79.7z"/>
	<path class="st0" d="M478.1,90.5c0.2-0.7,0.3-1.4,0.4-2.2h-0.1c-0.1,0.1-0.3,0.2-0.4,0.3c-0.2,0.2-0.5,0.5-0.7,0.7
		s-0.5,0.5-0.8,0.7c-4.2,3.9-7.4,8.8-9.2,14.3c-1.9,5.1-1.1,10.4-0.1,15.6c0.2,1.9,0.2,3.9,0.1,5.8c0,0.1,0,0.1,0.1,0.1
		c5.2-3.6,9.1-9.6,9.2-16.1c0.2-3.6,0.4-7.3,0.7-10.9C477.3,96.1,477.5,93.2,478.1,90.5z M471.9,99.3c-0.7,1.2-1.3,2.4-1.9,3.7
		c-1.1,2.6-2.1,5.2-3,7.9c0,0.1-0.2,0-0.1,0c0.8-2.8,1.3-5.6,2.5-8.3c0.6-1.4,1.3-2.8,2-4.1c0.7-1.2,1.4-2.4,2.5-3.3
		c0.2-0.2,0.6,0.1,0.5,0.3C473.6,96.9,472.6,98.1,471.9,99.3z"/>
	<path class="st0" d="M490.9,81.1c6.2,2.6,12.3,5.8,18.2,9.1c3,1.7,6.3,2.7,9.7,2.5c2.8-0.1,5.5-0.8,8.1-1.8
		c0.2-0.1,0.3-0.4,0.2-0.6c-0.1-0.1-0.3-0.2-0.4-0.2c-3.2-1.5-5.8-3.9-8.5-6.1c-7.5-5.9-18.2-6.2-26.9-3.1
		C491.3,80.9,491.1,81,490.9,81.1z M501,80.6c3.3-0.5,6.6-0.1,9.8,1c1.6,0.6,3,1.3,4.4,2.1c1.3,0.9,2.9,1.8,3.9,3.2
		c0.2,0.2-0.1,0.5-0.3,0.3c-1.3-0.9-2.4-2.1-3.9-2.9c-1.3-0.9-2.8-1.5-4.3-2.1c-3.1-1.1-6.3-1.7-9.6-1.5
		C500.9,80.8,500.9,80.6,501,80.6z"/>
	<path class="st0" d="M414.6,124.7c2.4-3.6,5.5-7,8.2-10.3c-0.6,0.3-1.2,0.6-1.7,0.8c-19.3,6.5-32.6,23.5-40.5,41.4
		c-0.1,0.2-0.2,0.4-0.2,0.4c0,0.1,0.1,0.2,0.2,0.2l0,0h0.2l0.6-0.1c5.2-0.8,10.4-2.2,15.1-4.7c4.9-2.7,9-6.9,10.9-12.1
		C409.2,134.9,411.2,129.3,414.6,124.7z M396.6,135.1c-3.1,3.7-5.8,7.7-8.5,11.7c-0.2,0.2-0.6,0-0.4-0.2c1.3-2.4,2.8-4.7,4.4-7
		c2.8-3.9,6-7.7,9.6-11.1c3.6-3.2,7.5-6.2,12.1-7.9c0.1-0.1,0.2,0.2,0.1,0.2c-2.4,1.3-4.7,2.7-6.9,4.3
		C403.2,127.9,399.7,131.4,396.6,135.1z"/>
	<path class="st0" d="M365.3,133.8c2.1,0.9,4.5,1.4,6.8,1.7c5.5,0.8,11.1,0,15.5-3.4c4.6-3.2,9.2-6.3,13.8-9.3
		c4.7-3.1,9.2-6.4,14.4-8.8c1.7-0.8,3.8-1.3,5.4-2.1c-1.8-1.2-5.1-1.7-7.5-2.1c-5.5-0.8-11-0.7-16.3,0.5
		c-8.1,1.7-15.3,6.1-20.7,12.2c-1.8,2.1-3.6,4.3-5.8,6.1c-1.7,1.6-3.8,3.1-5.7,4.4C365.1,133.1,365.1,133.6,365.3,133.8z
		 M380.5,121.1c1.2-1.3,2.5-2.5,3.9-3.6c3.7-2.8,7.9-4.7,12.3-5.9c2.1-0.6,4.1-0.9,6.2-1c1.5-0.1,3.2-0.3,4.7,0.1
		c0.1,0,0.1,0.2,0,0.2c-1.7,0.4-3.6,0.3-5.3,0.6c-4.5,0.6-8.8,2.1-12.8,4.3c-3.1,1.7-5.8,3.9-8.5,6.1
		C380.7,122.1,380.2,121.5,380.5,121.1z"/>
	<path class="st0" d="M411,72.2c1.8-0.2,3.6-0.6,5.3-1.1c-6.1-2.4-12.6-4.1-19.2-3.6c-1.8,0-6.8,1.5-10,1.4c3.6,0.7,7.3,1.3,11,2.3
		C402.3,72.2,406.7,72.9,411,72.2z"/>
	<path class="st0" d="M414.4,54.4c-8.5-2.5-17.6,1.3-24.1,6.8c-1,0.9-2.1,1.9-3,2.9c3-2.1,7-4.2,10.6-5.1c7.2-1.6,16.4-1.9,21.6,4.3
		c0.3,0.3,0.2,0.9-0.1,1.1c-0.2,0.2-0.6,0.2-0.9,0.2c-5.4-2.1-11.3-3.2-17.1-2.4c-5.8,0.8-11.5,2.6-16.5,5.5l0,0v0.1
		c0.2,0.4,0.8,0.5,1.3,0.6c3.7,0.3,7.2-1.1,10.8-1.5c7.4-0.8,14.9,1.2,21.9,3.6c0.8,0.2,0.7,1.3,0,1.5c-4.7,1.4-9.6,2.1-14.5,1.3
		c-6.4-1.2-12.6-2.8-19-4.1c0.1,0.2,0.2,0.2,0.2,0.2c6.6,5.8,15.2,9.9,24,10.1c3.1,0.2,6-0.6,8.8-1.9c0.7-0.4,1.4,0.6,0.8,1.1
		c-6.3,5.7-16,4.7-23.1,0.8c-3.9-2-7-5-10.2-7.8c2,3.5,4.4,6.7,7.5,9.2c6.3,5.8,16,8.5,24.2,5.1c5.1-2.2,9.6-6.9,10.3-12.5
		C428.8,65.2,422.8,56.5,414.4,54.4z M416.9,65.4c-5.6-1.7-11.4-2.2-17.2-1.6c-0.3,0-0.4-0.4-0.1-0.5c5.8-0.9,11.9-0.4,17.5,1.7
		C417.2,65.1,417.1,65.4,416.9,65.4z M406.4,78.6c-3.2-0.2-6.5-1.2-9.4-2.4c-1.6-0.7-3.1-1.4-4.5-2.3c-1-0.7-2.2-1.4-3-2.4
		c-0.2-0.2,0.1-0.3,0.2-0.2c1.1,0.7,2.1,1.6,3.2,2.3c1.4,0.9,2.8,1.7,4.3,2.4c2.9,1.3,6.1,1.9,9.2,2.4
		C406.6,78.2,406.6,78.6,406.4,78.6z M423.5,62.7c-1.3-1.7-2.8-3.4-4.7-4.7c-1.8-1.3-4-2.1-6.2-2.7c-0.1,0-0.1-0.2,0-0.2
		c4.5,0.6,8.8,3.4,11,7.3C423.7,62.7,423.6,62.8,423.5,62.7z"/>
	<path class="st0" d="M435.2,112.1l0.1-1.2c0-0.4,0-0.9,0-0.9c0-0.2-0.4-0.4-0.6-0.2c-5.3,3.4-10.6,7.2-14.5,12.1
		c-11.9,14.2-15.9,33.4-16.2,51.6c-0.2,0.9,0.6,1.3,1.1,0.9l0.8-0.9c0.9-1.2,3.8-4.3,4.9-5.4C424.6,152.7,434.4,133.1,435.2,112.1z
		 M416.9,157.6c-1.5,2.2-3,4.3-4.7,6.5c-1.5,2-2.9,3.9-4.7,5.7c-0.3,0.3-0.9-0.1-0.6-0.5c1.4-2,2.9-3.9,4.4-5.8
		c1.6-2.1,3.1-4.2,4.6-6.3c2.8-4,5.5-8.1,8.1-12.3c0.1-0.2,0.4,0,0.3,0.2C422.1,149.4,419.7,153.6,416.9,157.6z M432.3,113.9
		c-1.7,1.4-3.3,2.8-4.9,4.3c-3.8,3.6-7.4,7.4-10,12c-2.6,4.7-4.9,9.6-6.8,14.6c-0.1,0.2-0.4,0.1-0.3-0.2c0.9-3.1,2-6.2,3.3-9.1
		c2.1-4.8,4.8-9.3,8.4-13.3c3-3.3,6.4-6.3,10.2-8.7C432.3,113.6,432.5,113.8,432.3,113.9z"/>
	<path class="st0" d="M421.3,109.4c4.4,0.8,9.2,0,13-2.4l0.4-0.2c1-0.8,2.6-0.2,2.8,1.1c1.7,8.2,7.2,15.9,15.2,19
		c0.4-0.2,0.9-0.8,0.7-1.3c-1.1-3.3-3.9-6.3-4.8-9.9c-0.9-2.1-0.6-5-1.3-7c-1.7-4-5.4-7.6-9.6-9.2c-2.3-0.6-4.4-0.2-6.7,0.2
		c-2.4,0.5-4.9,0.9-7.3,1.3c-3.6,0.6-7.5,0.5-10.7,2.1c-2.3,1.7,1.4,3.6,2.8,4.4c0.4,0.2,0.7,0.4,1.1,0.6c0.5,0.1,0.9,0.2,1.4,0.3
		C419.1,108.6,420.2,108.9,421.3,109.4z M445.1,107.5c0.9,0.6,1.3,1.6,1.5,2.6c0.1,0.6,0.1,1.3,0.2,1.8c0,0.6,0.1,1.3,0.2,2
		c0,0.2-0.3,0.3-0.4,0.1c-0.5-1.1-0.3-2.4-0.4-3.6c-0.1-1-0.4-2.1-1.2-2.8C444.9,107.5,445,107.4,445.1,107.5z M414.4,105.2
		c-0.1-0.1,0-0.2,0.1-0.2c0.9,0.4,1.7,1,2.5,1.4c0.9,0.4,1.9,0.8,2.8,0.9c2,0.5,3.9,0.2,5.9,0c0.3,0,0.4,0.4,0.2,0.5
		c-2,0.6-4.2,0.3-6.2-0.2c-1-0.2-2.1-0.6-3-1C416,106.3,415,105.8,414.4,105.2z"/>
	<path class="st0" d="M441.8,122.6c0.1,1,0.2,2.1,0.2,3.1c1.1,7.2,1.5,14.5,0.6,21.6c0,1.3,0,2.7-0.1,4c-0.5,8.8,4,17.2,11.3,22.4
		c0.3,0.2,0.9-0.1,0.8-0.5c-0.1-2.6,0-5.3,0.4-7.9c1.5-7,3.1-14.3,0.8-21.4C453.6,135.6,448.4,128.2,441.8,122.6z M452,137.9
		c4.9,7.4,3.8,16.8,2.1,25c-0.1,0.4-0.6,0.3-0.6-0.1c0.6-4.5,1.4-8.9,1.2-13.4c-0.2-3.9-1-8-3-11.4
		C451.7,137.9,451.9,137.8,452,137.9z"/>
	<path class="st0" d="M439.9,127.1c-0.4-2.8-0.9-5.6-1.8-8.4c-2.1,7.7-4.8,19-7.7,25.6c-2.9,6-6.6,12.1-6.6,19
		c-0.1,4,0.7,8.1,2.3,11.8c0.2,0.6,0.4,1.2,1,1.3c0.6,0.1,0.9-0.1,1.3-0.4c3.5-4,6.3-8.6,8.5-13.4c2.6-5.9,3.9-12.3,4.2-18.8
		c0-2.4-0.1-4.7-0.2-7.1C440.5,133.5,440.2,130.3,439.9,127.1z M433.7,143.8c-0.6,1.9-1.4,3.7-2.4,5.5c-0.9,1.7-2,3.3-2.8,5.1
		c-1.1,2.2-1.8,4.7-2.1,7.1c-0.3,2.5,0,5,0,7.5c0,0.3-0.6,0.4-0.6,0.1c-0.8-2.6-0.7-5.6-0.3-8.2c0.3-2.4,1.1-4.7,2.3-6.9
		c0.9-1.7,2.1-3.3,3.1-5.1c2.1-3.9,3.4-8.2,4.2-12.6c0-0.2,0.3-0.2,0.3,0.1C435,138.9,434.5,141.4,433.7,143.8z"/>
	<path class="st0" d="M429,66.3c-0.2,0.9,0.6,2.1,0.8,3.1c0.5,2.4,0.2,4.7-0.6,6.8c-0.3,1-0.8,2.1-0.6,3.1c1.7-0.5,3.7-2.1,4.7-3.6
		C435.4,71.9,432.8,67.8,429,66.3z M432.7,71.8c0-0.1,0.2-0.1,0.2,0c0.4,0.7,0.2,1.6,0,2.3c-0.2,0.7-0.6,1.5-1.3,2
		c-0.2,0.2-0.4-0.1-0.2-0.2c0.2-0.3,0.5-0.6,0.6-0.9c0.2-0.3,0.3-0.6,0.5-0.9C432.7,73.3,432.6,72.6,432.7,71.8z"/>
	<path class="st0" d="M549.7,59.3C549.8,59.3,549.7,59.4,549.7,59.3c-11.9-2.4-23.6-6.5-34.6-11.6c-8.1-3.5-15.9-7.7-22.6-13.2
		c-0.5,2.6-0.2,5.5,1.3,7.6c1.7,2.3,4.7,2.8,6.8,4.9c1.2,1,2.1,2.1,3.2,3.3c1.5,1.7,2.1,3.9,3.3,5.7c1.7,2.6,5.1,4.3,8.3,3.9
		c3.1-0.4,6.6,0.2,9.2,2.1c2.1,1.4,3.8,3.3,5.8,4.7c2.8,1,6.1,0.7,9.2,0.4c3-0.3,6.1,0.1,9,0.9c1.5,0.4,2.8,1.1,4.1,1.4
		c2.7,0.6,5.5,0.4,8.3-0.2c3.6-0.7,7.5-0.7,11.1-0.1c-1.6-1.4-3-3-4.2-4.7c-2.3-3.2-3.3-7.5-7.1-9.4c-3.7-1.9-7.5-4-10.5-7
		c-3.7-3.9-7-8.3-12.2-9.9c-1.3-0.3-2.6,0-4-0.2c-4.7-0.6-7.4-4.5-10.3-7.7l0,0h-0.1c-0.5-0.4-1-0.8-1.5-1.1
		c-1.6-0.9-3.6-1.9-5.5-1.8c-2.5,0.3-5.6,2-8.5,2.1c-2.9,0.4-6.2-0.5-8.9-1.1c-2.4-0.5-4.7,0.9-5.8,3.1c-0.2,0.2-0.2,0.6-0.3,0.8
		c7.7,4.4,15.4,9.2,23.1,13.4C527,50.8,538.2,55.4,549.7,59.3z"/>
	<path class="st0" d="M471.2,91.7c1.7-0.4,3.2-1.1,4.3-2.1c0.4-0.4,0.8-0.8,1.3-1.1c2.3-2.4,3.5-5.8,3.1-9.2
		c-0.1-0.7,0.7-1.2,1.3-0.8c3.6,1.4,7.7,1.8,11.3,0.5c1.7-0.6,3.3-1.5,4.7-2.6c0.1-0.1,0.1-0.3-0.1-0.4c-3.5-2.5-7.7-3.9-12.1-3.8
		c-3.3-0.1-6.4,0.3-8.8,2.7C471.3,78.9,470.1,85.8,471.2,91.7z M476.6,85c0.9-1.7,1-3.7,1.5-5.6c0.1-0.3,0.6-0.2,0.6,0.1
		c-0.2,3.5-1.3,8.3-5.3,9.4c-0.2,0.1-0.5-0.3-0.2-0.4C474.7,87.6,475.8,86.4,476.6,85z"/>
	<path class="st0" d="M446.1,35.8c-5.2-0.7-10.4-0.2-15.6-0.8c-5.1-0.9-10.9-2.4-14.9-5c4.8,2,10,3.3,15.1,3.7
		c5.2,0.2,10.5-0.4,15.7,0.2c5.2,0.2,10.4,2,15.5,2.8c2,0.2,3.9,0.4,5.9,0.3c0-0.1,0.1-0.1,0.1-0.2c-0.2-0.8-2-1.7-2.9-2.2
		c-3-1.4-6.2-2.5-9.6-2.9c-1.7-0.2-3.4-0.2-5.3-0.6c-4.7-0.6-8.5-3.8-11.6-6.9c-1-0.9-2.5-1-3.9-0.9c-1.6,0.2-3.1,1.3-4.7,1.7
		c-2.8,0.7-5.8,0.7-8.6-0.4c-1.7-0.7-3-1.3-4.6-1.4c-3.6-0.4-6,1.6-9.2,3.1c-4.4,2-9.6,1.4-13.9-0.5c1.7,2.4,3.7,4.4,6,6.2
		c2.8,2.1,6.1,3.7,9.6,3.9c1.9,0.1,3.9,0.5,5.6,1.5c1.7,0.9,2.6,2.7,4.1,3.7c1.3,0.9,3,1.3,4.6,1c0.8-0.2,1.7-0.5,2.8-0.6
		c3-0.2,5.9,1.2,8.2,2.9c2.8,2,6.6,1.9,9.7,0.9c1.7-0.5,2.9-1.5,4.4-2.6c1.7-1.1,3.5-1.9,5.5-2.2c1.9-0.3,3.8,0,5.5-0.2
		s3.3-0.8,4.9-1.4c0.3-0.1,0.6-0.2,1-0.5c-1.3-0.1-2.7-0.2-4-0.4C456.3,37.5,451.4,36.1,446.1,35.8z"/>
	<g>
		<path class="st1" d="M431.9,74.4c-0.2,0.3-0.4,0.6-0.6,0.9c-0.2,0.2,0.1,0.4,0.2,0.2c0.6-0.5,1.1-1.3,1.3-2c0.2-0.7,0.3-1.7,0-2.3
			c-0.1-0.1-0.2-0.1-0.2,0c-0.1,0.7,0,1.4-0.2,2.1C432.2,73.7,432.2,74.1,431.9,74.4z"/>
		<path class="st1" d="M412.6,54.6c-0.1,0-0.1,0.2,0,0.2c2.1,0.6,4.3,1.4,6.2,2.7c1.8,1.3,3.3,2.8,4.7,4.7c0.1,0.1,0.2,0,0.2-0.1
			C421.4,58,417.1,55.2,412.6,54.6z"/>
		<path class="st1" d="M416.9,64.5c-5.5-2.1-11.6-2.7-17.5-1.7c-0.2,0-0.2,0.5,0.1,0.5c5.8-0.6,11.6-0.1,17.2,1.6
			C417,64.8,417.2,64.6,416.9,64.5z"/>
		<path class="st1" d="M406.4,77.7c-3.2-0.4-6.3-1-9.2-2.4c-1.5-0.6-3-1.5-4.3-2.4c-1.1-0.7-2.1-1.6-3.2-2.3
			c-0.2-0.1-0.3,0.1-0.2,0.2c0.9,0.9,2,1.7,3,2.4c1.4,0.9,2.9,1.7,4.5,2.3c3,1.3,6.2,2.2,9.4,2.4C406.5,78,406.6,77.7,406.4,77.7z"
			/>
		<path class="st1" d="M364.9,134.5l0.2,0.1l0.5,0.2c4.7,1.6,9.9,2.2,14.9,1.3c2.8-0.3,5.5-1.8,7.8-3.4c4-2.6,8-5.1,12-7.7
			c-7.3,7-13.3,15.4-17.9,24.3c-1.1,2.2-2.3,4.6-3.2,6.9c-0.2,0.9,0.7,1.7,1.6,1.6h0.2l0.6-0.1c2.5-0.4,5-0.9,7.4-1.6
			c6.4-1.7,12.7-5.1,16.7-10.4c-2.1,8.1-3,16.7-3.2,25v2.4c0,0.3-0.1,1,0.3,1.6c0.6,1.1,2.3,1.3,3.3,0.5c4.9-3.8,8.8-8.6,12.6-13.4
			c2.2-2.8,4.3-5.8,6.2-9c-2.6,7-3.2,13.6,0.5,22.4l0.4,0.9c0.6,1.5,2.8,2,3.8,0.6c1.7-2.1,3.4-4.2,4.9-6.4c3.3-4.9,5.6-10.2,7-15.8
			c0.2,1.3,0.3,2.6,0.6,3.9c1.6,6.2,5.7,11.3,10.7,15.2c0.6,0.5,1.3,1.1,2.1,0.8c0.6-0.2,1.2-0.9,1.1-1.6c0-2.6,0.2-5.1,0.6-7.7
			c1.8-7.2,3.5-14.6,1.3-22c-1.5-5.9-4.3-11.5-8.1-16.4c0.9,0.4,1.7,0.8,2.6,1.1c0.2,0.2,0.7,0.2,0.9,0.1c3.2-1.4,1.4-4.6,0.3-6.6
			c-1.1-2.1-2.1-4.3-2.5-6.6c-0.6-2.4,0.1-5.1-0.9-7.4c-1.5-3.8-4.5-6.7-8.1-8.5c0,0,0-0.1,0.1-0.1c3-10.9,7.4-21.4,13-31.3
			c4-7.1,8.8-13.7,14.1-20c-0.5,8.9,1.6,18,6.5,25.6c-0.2,0.1-0.3,0.2-0.4,0.3c-5.1,4.5-7.3,12-4.9,18.4c0.2,0.4,0.6,0.6,0.9,0.6
			c0.7-0.2,1.4-0.4,2.1-0.7c-5.5,6.3-9.3,14.5-8.2,22.9c0.6,3.5,1.3,7,0.9,10.6c-0.3,1.3,1.1,2.1,2.1,1.3l0.6-0.4
			c5.1-3.9,8.7-10,8.8-16.4c0.1-1.8,0.2-3.6,0.2-5.4c1.4,8.5,5.3,16.8,10.2,23.9c0.1,0.1,0.2,0.4,0.3,0.5c0.5,0.8,1.8,0.6,2.1-0.2
			c0.8-1.7,1.5-3.4,2.1-5.2c1.4-4.2,1.8-8.9,0.4-13.1c4.7,4.7,10.1,8.8,15.6,12.2c0.6,0.5,1.7,0.6,2.3-0.2c0.3-0.4,0.4-0.9,0.2-1.3
			c-0.5-1.9-1-3.8-1.7-5.7c-1.4-4.3-3.2-8.5-5.4-12.6c0.2,0.2,0.3,0.4,0.5,0.6c3.5,3.7,8.4,5.9,13.4,6.4c0.6,0.1,1.3,0.2,1.7-0.2
			c0.6-0.3,0.9-1.1,0.7-1.7c-1.4-3.9-3.3-7.3-5.8-10.5c-1.6-2.1-3.5-4-5.5-5.8c5.4,2.7,11.9,2.5,17.4,0.2l0.6-0.2
			c0.6-0.2,0.9-1.1,0.5-1.6c-0.2-0.2-0.5-0.3-0.6-0.5c-3.2-1.5-5.7-3.8-8.4-6.1c-6.2-5.1-14.6-6.4-22.5-5.1c0.4-0.2,0.8-0.6,1.2-0.8
			c0.5-0.3,0.9-0.8,0.9-1.3c0-0.6-0.6-0.9-1-1.3c-3.5-2.5-7.7-4-12.1-3.9c-2.9-0.2-6.2,0.2-8.8,1.9c-4.9-8.4-6.2-18.4-4.7-27.9
			c4.8-5.4,10.1-10.3,15.7-14.8c0.9,0.9,1.8,1.7,2.8,2.5c-1,3.7-0.6,8.1,1.6,10.9c0.9,1.3,2.4,2.4,3.8,3.1c2.6,1.3,4.5,3,6.2,5.1
			c1.3,1.6,2.1,3.7,3.2,5.5c1.8,2.7,4.9,4.4,8.1,4.8c2.2,0.2,4.3-0.6,6.5,0c3.6,0.6,5.8,3.4,8.6,5.5c0.6,0.5,1.7,1,2.3,1.1
			c3,0.7,6.2,0.4,9.1,0.1c2.8-0.3,5.6,0,8.4,0.6c2.6,0.9,5.8,2,8.8,1.7c3-0.2,5.7-1.2,8.6-1.3c2.4-0.2,5,0,7.5,0.4
			c0.3,0.1,0.6,0.2,0.9,0.2c0.3,0,0.6-0.2,0.8-0.2c0-0.2-0.1-0.5-0.2-0.7c-0.2-0.2-0.2-0.2-0.3-0.3l-0.4-0.3
			c-1.7-1.6-3.3-3.4-4.6-5.3c-2.2-3.6-3.4-8.1-7.3-10.2c-3.6-2-7.1-4-10-7c-3.2-3.6-6.6-7.6-10.9-9.9c-1.9-1.1-4.3-1-6.5-1.1
			c-4-0.5-7-5.2-9-7.2c-1.8-1.5-3.9-2.7-6.2-3.2c-3.9-1.2-7.3,1.7-11.1,1.7c-4.4,0.7-9.1-2.8-13.3-0.3c-1.7,0.9-3,2.5-3.8,4.3
			c-0.8-0.5-1.6-0.9-2.4-1.3c13.3-10.7,28.5-18.6,44.7-23.5c3.7-1.3,1.9-6.6-1.8-5.5c-21.7,7-41.3,19.6-57,35.9
			c-1.3,0.2-2.6,0.5-3.9,0.6c-0.2-3.7-6.4-5.4-9.3-6.6c-4.8-2-10.4-0.8-14.9-3.5c-2.4-1.2-3.8-3.1-5.9-4.7c-2.4-1.9-6.3-1.9-8.9-0.5
			c-2.8,1.4-6.1,1.9-9.1,0.8c-1.6-0.6-3.6-1.5-5.5-1.4c-3.8-0.4-7.3,2.1-10.2,3.7c-4.6,2.2-9.9,1.4-14.5-0.6
			c-0.6-0.2-1.1,0.4-0.7,0.9c1.9,3.2,4.3,6.1,7.3,8.4c1.5,1.2,3.1,2.2,4.8,2.9c3.2,1.8,7.3,0.9,10.4,2.8c1.6,0.9,2.4,2.6,3.9,3.7
			c1.7,1.2,3.9,1.7,5.9,1.3c2.6-0.7,5.1-0.6,7.3,0.8c1.5,0.9,3.1,2.4,4.9,2.9c4.7,1.5,10.1,0.3,13.8-2.8c3.1-2.2,6.5-1.8,10-2
			c2.1-0.2,3.9-0.8,5.6-1.5c1.5-0.6,3.4-1.4,4.3-2.8c0.9-0.1,1.7-0.2,2.6-0.3c-9.8,10.5-17.9,22.5-23.9,35.5c-2,0.9-4.3,1.6-6.6,1.6
			c-2.2,0.1-4.5-0.4-6.6-1.3c1.1-3.8-1.3-7.3-5.5-8.8c-0.5-0.2-1-0.2-1.4,0c-1.1-3-3-5.8-5.5-7.9c-7-6.4-17.9-6.4-25.9-2.1
			c-4,2.1-7.7,4.9-10.7,8.2c-0.6,0.6-1.1,1.3-1.7,1.9c-0.4,0.3-0.3,0.9,0,1.3c0.2,0.2,0.9,0.3,1.1,0c0-0.1,0.3-0.2,0.3-0.2
			c4.7-3.6,10.3-6.5,16.4-7c4.6-0.4,9.9-0.1,13.6,2.8c-4.8-1.2-9.9-1.7-14.7-0.8c-5.8,1-11.7,2.8-16.7,5.9c-0.1,0.1-0.2,0.1-0.2,0.3
			c0.2,0.4,0.4,0.7,0.8,0.9c-0.2-0.1-0.6,0.2-0.6,0.6c0,0.2,0.5,0.6,0.6,0.7c7.8,6.8,18.6,11.8,29.1,10.5c-7,3.3-15.7,0.3-21.8-3.9
			c-2.5-1.8-4.8-4-7.3-6.1c-0.2-0.1-0.4-0.1-0.6-0.1c-0.6,0.3-0.2,0.8-0.1,1.3c1.8,3.9,4.5,7.6,7.7,10.5c6.6,6.2,16.9,9.1,25.5,5.5
			c3.7-1.6,7.1-4.3,9.2-7.7c0.1,0.4,0.2,0.7,0.6,0.9c0.6,0.3,1.4,0,1.9-0.2c1.7-0.9,3.2-2.3,4.3-3.9c0.3-0.5,0.6-0.9,0.8-1.4
			c3.7,2,8.1,2.5,12.2,1.6c-3.1,7-5.5,14.1-7.3,21.5c-0.5-0.2-1-0.4-1.5-0.6c-2.5-1.2-5.5-0.4-7.9,0.3c-2.4,0.6-4.7,1.3-7.2,1.8
			c-3.6,1-7.5,0.9-10.9,2.8c-2.2,1.7-0.9,3.6,1.2,5.1c-5.5-0.8-11.2-0.6-16.7,0.6c-8.5,1.8-16,6.6-21.5,13.2
			c-3.2,4.2-7,7.7-11.3,10.7C363.4,132.4,363.6,134.1,364.9,134.5z M476.6,109.2c-0.2,6.5-4,12.4-9.2,16.1c-0.1,0-0.1,0-0.1-0.1
			c0.2-1.9,0.2-3.9-0.1-5.8c-1-5.2-1.8-10.6,0.1-15.6c1.7-5.5,5.1-10.3,9.2-14.3c0.2-0.2,0.6-0.5,0.8-0.7c0.2-0.2,0.5-0.5,0.7-0.7
			c0.1-0.1,0.3-0.2,0.4-0.3h0.1c-0.1,0.8-0.2,1.5-0.4,2.2c-0.6,2.8-0.8,5.6-0.6,8.5C477,101.9,476.7,105.6,476.6,109.2z M480.9,79
			L480.9,79L480.9,79L480.9,79z M489.4,127.6l-0.1-0.2c-7.7-11.2-13-25.2-9.6-38.8c0.2-0.9,0.2-1.8,0.3-2.8c0.5,1.7,1,3.7,1.7,5.6
			c0,0.1,0.1,0.2,0.1,0.2c0.5,1.5,0.9,3,1.5,4.3c1.5,3.7,4,7,6.4,10.1c2.4,3,3.2,7,2.9,10.7C492.2,120.6,490.9,124.2,489.4,127.6z
			 M509.8,120.7c0.1,0.4-0.2,0.6-0.8,0.2l-1.4-0.9c-9.8-6.2-19.4-15.1-23.8-25.9c-0.5-1.3-0.9-2.7-1.3-4.1c-0.1-0.2-0.2-0.7-0.3-1.2
			c-0.6-2.7-0.9-5.5-0.8-8.5c0.2-0.6,0.5-0.2,0.9,0.1c0.7,0.4,1.3,0.9,2,1.3c3,2.8,7.7,6.7,11.2,10.2
			C502.5,100.3,507.2,110.3,509.8,120.7z M519.5,107.4c0.2,0.5-0.3,0.9-0.8,0.9c-5.1-0.4-10.1-2.5-13.5-6.3c-1.9-2.1-3.6-4.7-5.3-7
			c-0.9-1.2-2.1-2.5-3.5-3.9c-2.2-2.6-4.6-5-7.2-7.2c-0.6-0.5-1.2-0.9-1.7-1.4c-0.4-0.4-0.8-0.7-1.2-1.1c2,0.5,3.9,1.1,5.8,1.7
			c3,1.3,6,2.5,9,3.9c1.4,0.8,2.8,1.6,4.1,2.4C511.8,93.7,516.8,100.2,519.5,107.4z M518.1,83.4c2.6,2.2,5.3,4.7,8.5,6.1
			c0.1,0.1,0.4,0.2,0.4,0.2c0.2,0.2,0.1,0.5-0.2,0.6c-2.6,1-5.3,1.7-8.1,1.8c-3.5,0.2-6.7-0.9-9.7-2.5c-5.9-3.3-12-6.5-18.2-9.1
			c0.2-0.1,0.3-0.2,0.4-0.2C499.9,77.2,510.6,77.4,518.1,83.4z M485,71.6c4.3-0.2,8.5,1.3,12.1,3.8c0.2,0.1,0.2,0.3,0.1,0.4
			c-1.4,1.1-3,2.1-4.7,2.6c-3.6,1.3-7.7,0.9-11.3-0.5c-0.6-0.4-1.4,0.2-1.3,0.8c0.4,3.4-0.8,6.8-3.1,9.2c-0.4,0.4-0.8,0.7-1.3,1.1
			c-1.3,1-2.8,1.7-4.3,2.1c-1.1-5.9,0.2-12.9,5.1-16.9C478.6,71.9,481.7,71.5,485,71.6z M493.5,30.4c1.1-2.2,3.5-3.6,5.8-3.1
			c2.7,0.6,6,1.5,8.9,1.1c2.8,0,5.9-1.7,8.5-2.1c1.7-0.1,3.9,0.8,5.5,1.8c0.6,0.3,1,0.7,1.5,1.1h0.1l0,0c2.8,3.2,5.6,7,10.3,7.7
			c1.4,0.2,2.7-0.1,4,0.2c5.1,1.6,8.5,6.1,12.2,9.9c3,3,6.8,5.1,10.5,7c3.8,1.9,4.8,6.2,7.1,9.4c1.2,1.7,2.6,3.3,4.2,4.7
			c-3.7-0.6-7.5-0.6-11.1,0.1c-2.8,0.6-5.6,0.9-8.3,0.2c-1.3-0.3-2.6-1-4.1-1.4c-2.9-0.8-5.9-1.1-9-0.9c-3.1,0.3-6.2,0.7-9.2-0.4
			c-2.1-1.4-3.7-3.3-5.8-4.7c-2.6-1.8-6-2.5-9.2-2.1c-3.2,0.5-6.5-1.3-8.3-3.9c-1.2-1.8-1.8-3.9-3.3-5.7c-1-1.2-2-2.3-3.2-3.3
			c-2.1-2-5.2-2.6-6.8-4.9c-1.6-2.1-1.8-4.9-1.3-7.6c6.8,5.6,14.6,9.7,22.6,13.2c11.1,5.2,22.7,9.2,34.6,11.7c0.1,0,0.1-0.1,0-0.1
			c-11.5-3.9-22.7-8.5-33.4-14.1c-7.7-4.3-15.3-9.1-23.1-13.4C493.2,30.9,493.3,30.6,493.5,30.4z M464.4,38.6
			c-1.7,0.6-3.3,1.3-4.9,1.4c-1.8,0.2-3.6-0.1-5.5,0.2c-2,0.4-3.9,1.1-5.5,2.2c-1.5,1.1-2.7,2.1-4.4,2.6c-3.2,0.9-7,1-9.7-0.9
			c-2.3-1.7-5.1-3.2-8.2-2.9c-1,0.1-2,0.4-2.8,0.6c-1.6,0.3-3.3-0.2-4.6-1c-1.4-0.9-2.4-2.8-4.1-3.7s-3.7-1.4-5.6-1.4
			c-3.6-0.2-6.9-1.7-9.6-3.9c-2.3-1.7-4.3-3.9-6-6.2c4.3,1.8,9.5,2.4,13.9,0.5c3.2-1.6,5.6-3.5,9.2-3.1c1.6,0.1,2.8,0.7,4.6,1.4
			c2.8,1.1,5.8,1.1,8.6,0.4c1.7-0.4,3.2-1.4,4.7-1.7c1.3-0.2,2.8,0.1,3.9,0.9c3.2,3.2,7,6.3,11.6,6.9c1.9,0.3,3.6,0.3,5.3,0.6
			c3.3,0.4,6.5,1.5,9.6,2.9c0.9,0.4,2.7,1.4,2.9,2.2c0,0.1-0.1,0.1-0.1,0.2c-2,0.1-3.9,0-5.9-0.3c-5.1-0.9-10.3-2.6-15.5-2.8
			c-5.2-0.6-10.5,0-15.7-0.2c-5.1-0.4-10.3-1.7-15.1-3.7c4,2.6,9.9,4.1,14.9,5c5.2,0.6,10.5,0.1,15.6,0.8c5.3,0.3,10.2,1.6,15.4,2.5
			c1.3,0.2,2.7,0.3,4,0.4C465.1,38.3,464.7,38.5,464.4,38.6z M417.4,85.6c-8.1,3.4-17.9,0.7-24.2-5.1c-3.1-2.5-5.5-5.8-7.5-9.2
			c3.2,2.8,6.3,5.8,10.2,7.8c7,4,16.7,5,23.1-0.8c0.6-0.5-0.1-1.5-0.8-1.1c-2.8,1.3-5.7,2.1-8.8,1.9c-8.8-0.3-17.4-4.4-24-10.1
			l-0.2-0.2c6.4,1.3,12.7,2.9,19.1,4.1c4.9,0.7,9.8,0.1,14.5-1.3c0.8-0.2,0.8-1.3,0-1.5c-7-2.3-14.5-4.3-21.9-3.6
			c-3.6,0.4-7.2,1.8-10.8,1.5c-0.5-0.1-1-0.2-1.3-0.6c0,0,0,0,0-0.1l0,0c5.1-2.9,10.7-4.7,16.5-5.5c5.8-0.9,11.7,0.2,17.1,2.4
			c0.3,0.1,0.6,0.1,0.9-0.2c0.3-0.3,0.4-0.8,0.1-1.1c-5.1-6.2-14.4-5.9-21.6-4.3c-3.6,0.9-7.5,3-10.6,5.1c0.9-1,2-2,3-2.9
			c6.5-5.5,15.6-9.3,24.1-6.8c8.4,2.1,14.5,10.8,13.4,19.3C427,78.7,422.5,83.4,417.4,85.6z M387.1,68.4c3.2,0.1,8.2-1.4,10-1.4
			c6.6-0.6,13.1,1.2,19.2,3.6c-1.7,0.6-3.5,0.9-5.3,1.1c-4.3,0.7-8.7-0.1-12.9-1C394.4,69.7,390.7,69.1,387.1,68.4z M433.1,75.2
			c-0.9,1.5-2.9,3.1-4.7,3.6c-0.2-0.9,0.3-2.1,0.6-3.1c0.7-2.2,1-4.5,0.6-6.8c-0.2-1.1-1-2.3-0.8-3.1
			C432.7,67.3,435.3,71.4,433.1,75.2z M396.3,151.7c-4.7,2.5-9.9,3.9-15.1,4.7l-0.6,0.1h-0.2l0,0c-0.2,0-0.2-0.2-0.2-0.2
			s0.1-0.2,0.2-0.4c7.9-17.9,21.2-34.9,40.5-41.4c0.6-0.2,1.2-0.5,1.7-0.8c-2.8,3.4-5.8,6.7-8.2,10.3c-3.3,4.7-5.5,10.2-7.3,15.6
			C405.3,144.8,401.3,149,396.3,151.7z M410.4,167.5c-1,1.1-3.9,4.2-4.9,5.4l-0.8,0.9c-0.5,0.6-1.3,0.2-1.1-0.9
			c0.3-18.2,4.3-37.4,16.2-51.6c4-4.9,9.2-8.7,14.5-12.1c0.2-0.2,0.6,0,0.6,0.2c0,0,0,0.5,0,0.9l-0.1,1.2
			C434.3,132.5,424.5,152.2,410.4,167.5z M436.7,162.1c-2.1,4.9-5,9.4-8.5,13.4c-0.3,0.3-0.7,0.5-1.3,0.4c-0.6-0.2-0.8-0.8-1-1.3
			c-1.5-3.7-2.4-7.8-2.3-11.8c0-6.9,3.7-13,6.6-19c2.9-6.6,5.6-17.9,7.7-25.6c0.9,2.7,1.3,5.5,1.8,8.4c0.3,3.2,0.6,6.4,0.8,9.6
			c0.2,2.4,0.2,4.7,0.2,7.1C440.5,149.7,439.3,156,436.7,162.1z M455.9,143.4c2.3,7.1,0.7,14.3-0.8,21.4c-0.4,2.6-0.5,5.3-0.4,7.9
			c0.1,0.4-0.5,0.7-0.8,0.5c-7.3-5.1-11.8-13.5-11.3-22.4c0-1.3,0-2.7,0.1-4c0.9-7.1,0.5-14.5-0.6-21.6c-0.1-1-0.2-2.1-0.2-3.1
			C448.4,127.6,453.6,135,455.9,143.4z M415.7,107c-1.4-0.8-5.1-2.8-2.8-4.4c3.2-1.7,7.1-1.5,10.7-2.1c2.4-0.3,5-0.8,7.3-1.3
			s4.5-0.9,6.7-0.2c4.2,1.6,7.8,5.2,9.6,9.2c0.8,2,0.5,4.9,1.3,7c0.9,3.6,3.7,6.6,4.8,9.9c0.2,0.6-0.3,1.1-0.7,1.3
			c-8.1-3.2-13.5-10.8-15.2-19c-0.2-1.3-1.8-1.9-2.8-1.1l-0.4,0.2c-3.8,2.4-8.5,3.2-13,2.4c-1.1-0.5-2.3-0.8-3.1-1
			c-0.5-0.1-0.9-0.2-1.4-0.3C416.4,107.3,416,107.2,415.7,107z M365.2,132.3c1.9-1.3,3.9-2.8,5.7-4.4c2.1-1.8,3.9-4,5.8-6.1
			c5.4-6.2,12.6-10.6,20.7-12.2c5.4-1.2,10.9-1.3,16.3-0.5c2.4,0.4,5.7,0.9,7.5,2.1c-1.6,0.8-3.6,1.4-5.4,2.1
			c-5.2,2.4-9.6,5.8-14.4,8.8c-4.7,3.1-9.2,6.2-13.8,9.3c-4.3,3.4-10.1,4.2-15.5,3.4c-2.3-0.3-4.7-0.9-6.8-1.7
			C365,133.1,365,132.5,365.2,132.3z"/>
		<path class="st1" d="M381.1,121.2c2.7-2.2,5.4-4.4,8.5-6.1c3.9-2.1,8.3-3.6,12.8-4.3c1.7-0.2,3.6-0.2,5.3-0.6c0.1,0,0.1-0.2,0-0.2
			c-1.5-0.4-3.2-0.2-4.7-0.1c-2.1,0.2-4.2,0.5-6.2,1c-4.4,1.2-8.7,3.2-12.3,5.9c-1.4,1-2.8,2.2-3.9,3.6
			C380.1,120.9,380.7,121.5,381.1,121.2z"/>
		<path class="st1" d="M413.8,120c-4.6,1.7-8.5,4.7-12.1,7.9c-3.6,3.3-6.8,7.1-9.6,11.1c-1.7,2.2-3.1,4.5-4.4,7
			c-0.2,0.2,0.2,0.5,0.4,0.2c2.8-3.9,5.5-8,8.5-11.7s6.6-7.2,10.5-10c2.2-1.6,4.5-2.9,6.9-4.3C414,120.2,413.8,120,413.8,120z"/>
		<path class="st1" d="M425.8,107.3c0.3-0.1,0.2-0.6-0.2-0.5c-2,0.2-3.9,0.4-5.9,0c-1-0.2-2-0.6-2.8-0.9c-0.9-0.4-1.7-1-2.5-1.4
			c-0.1-0.1-0.2,0.1-0.1,0.2c0.6,0.7,1.6,1.2,2.4,1.6c0.9,0.5,2,0.8,3,1C421.7,107.7,423.9,107.9,425.8,107.3z"/>
		<path class="st1" d="M432.1,113.1c-3.8,2.4-7.2,5.4-10.2,8.7c-3.6,3.9-6.2,8.5-8.4,13.3c-1.3,3-2.4,6-3.3,9.1
			c-0.1,0.2,0.2,0.3,0.3,0.2c1.9-5,4.1-10,6.8-14.6c2.6-4.6,6.2-8.5,10-12c1.6-1.5,3.2-2.9,4.9-4.3
			C432.3,113.2,432.2,113,432.1,113.1z"/>
		<path class="st1" d="M424,144.3c-2.6,4.2-5.3,8.3-8.1,12.3c-1.5,2.1-3,4.3-4.6,6.3c-1.5,2-3,3.8-4.4,5.8c-0.3,0.4,0.2,0.8,0.6,0.5
			c1.7-1.7,3.2-3.7,4.7-5.7c1.6-2.1,3.2-4.3,4.7-6.5c2.8-4,5.2-8.2,7.5-12.6C424.4,144.3,424.1,144.1,424,144.3z"/>
		<path class="st1" d="M434.9,135.7c-0.8,4.3-2.1,8.7-4.2,12.6c-0.9,1.7-2.1,3.3-3.1,5.1c-1.2,2.1-1.9,4.4-2.3,6.9
			c-0.4,2.7-0.6,5.7,0.3,8.2c0.1,0.3,0.6,0.2,0.6-0.1c0-2.5-0.3-5,0-7.5c0.3-2.4,0.9-4.9,2.1-7.1c0.9-1.7,2-3.3,2.8-5.1
			c0.9-1.7,1.7-3.6,2.4-5.5c0.8-2.4,1.3-4.9,1.7-7.5C435.2,135.6,434.9,135.6,434.9,135.7z"/>
		<path class="st1" d="M484.1,88.2c-0.1-0.1-0.2-0.1-0.2,0.1c2.1,7.7,6.6,14.8,12.2,20.4c1.3,1.3,2.8,2.6,4.3,3.7
			c0.3,0.2,0.7-0.2,0.4-0.6c-3.6-3.1-7-6.5-9.8-10.3C488.1,97.4,485.9,92.9,484.1,88.2z"/>
		<path class="st1" d="M473.8,94.7c-1.1,0.9-1.8,2.1-2.5,3.3c-0.8,1.3-1.4,2.7-2,4.1c-1.1,2.7-1.7,5.5-2.5,8.3c0,0.1,0.1,0.1,0.1,0
			c0.8-2.7,1.9-5.4,3-7.9c0.6-1.3,1.2-2.5,1.9-3.7c0.8-1.3,1.7-2.4,2.4-3.7C474.3,94.7,474,94.5,473.8,94.7z"/>
		<path class="st1" d="M488.6,108c1.1,2.4,1.6,4.9,1.5,7.6c-0.1,2.8-0.7,5.5-1.3,8.3c0,0.2,0.2,0.2,0.2,0c0.8-2.8,1.5-5.8,1.5-8.8
			c0-2.4-0.4-5.1-1.7-7.3C488.7,107.7,488.5,107.9,488.6,108z"/>
		<path class="st1" d="M500,92.9c2.1,3.2,4.3,6.3,7.3,8.9c2.5,2.3,5.9,4.7,9.5,5c0.2,0,0.4-0.4,0.2-0.5c-1.7-0.6-3.3-1.1-4.9-2
			c-1.6-0.9-3.1-2-4.3-3.2c-2.8-2.5-5-5.6-7.3-8.5C500.2,92.4,499.9,92.6,500,92.9z"/>
		<path class="st1" d="M510.5,81.7c1.5,0.6,2.9,1.3,4.3,2.1c1.3,0.9,2.5,2.1,3.9,2.9c0.2,0.2,0.5-0.1,0.3-0.3
			c-0.9-1.3-2.4-2.4-3.9-3.2c-1.4-0.9-2.9-1.6-4.4-2.1c-3.2-1.1-6.5-1.4-9.8-1c-0.1,0-0.1,0.2,0,0.2
			C504.1,80.1,507.4,80.6,510.5,81.7z"/>
		<path class="st1" d="M473.1,87.8c-0.2,0.2-0.1,0.5,0.2,0.4c3.9-1.1,5.1-5.9,5.3-9.4c0-0.3-0.5-0.4-0.6-0.1
			c-0.5,1.9-0.6,3.9-1.5,5.6C475.8,85.8,474.6,87.1,473.1,87.8z"/>
		<path class="st1" d="M446.1,109.8c0.1,1.2-0.1,2.4,0.4,3.6c0.1,0.2,0.4,0.2,0.4-0.1c-0.1-0.6-0.2-1.3-0.2-2c0-0.6-0.1-1.3-0.2-1.8
			c-0.2-1-0.6-2-1.5-2.6c-0.1-0.1-0.2,0.1-0.1,0.2C445.7,107.7,446,108.8,446.1,109.8z"/>
		<path class="st1" d="M454.6,148.9c0.2,4.5-0.6,9-1.2,13.4c-0.1,0.4,0.6,0.5,0.6,0.1c1.7-8.2,2.8-17.7-2.1-25
			c-0.1-0.2-0.3,0-0.2,0.2C453.6,140.9,454.4,144.9,454.6,148.9z"/>
	</g>
</g>
<g>
	<path class="st0" d="M211.4,303.7c3.2,0.7,6.5,0.7,9.8,0.5c0.5,0,1.1-0.1,1.7-0.1c-0.4,0.3-0.9,0.6-1.2,0.8c-9,6-20.6,6.3-30.9,4.1
		l-0.5-0.1c0,0,0,0,0-0.1l0,0c2.2-2.2,4.6-4.2,7.3-5.5c2.8-1.3,6.1-1.8,9.1-0.9C208.3,302.8,209.8,303.3,211.4,303.7z M197.4,308.8
		c-0.2,0-0.2,0.3,0,0.4c3.6,0.4,7.2,0.4,10.7-0.1c1.7-0.2,3.4-0.6,5.2-1.1c1.6-0.5,3.3-1.1,4.7-2.1c0.1-0.1,0-0.2-0.1-0.2
		c-1.6,0.7-3.2,1.4-5,1.9c-1.6,0.5-3.3,0.8-5,1C204.5,309,201,308.8,197.4,308.8z"/>
	<path class="st0" d="M221.6,295.3c2.9,1.2,5.6,2.7,8.1,4.4v0.1c-3.3,1.2-6.7,2.4-10.3,2.5c-10.4,0.8-20.5-3.7-29-9.6
		c-0.3-0.2-0.4-0.3-0.3-0.5c0.1-0.1,0.1,0,0.2,0h0.7c3.1-0.2,6.3-0.7,9.5-0.7C207.6,291.3,214.9,292.4,221.6,295.3z M210.2,292.9
		c-2.8-0.4-5.6-0.7-8.4-0.8c-1.4,0-3-0.1-4.4,0c-1.4,0-2.8,0-4.2,0.2c-0.3,0-0.2,0.5,0,0.5c1.4,0.1,2.8,0,4.2-0.1c1.4,0,2.9,0,4.4,0
		c2.8,0.1,5.5,0.2,8.3,0.4C210.3,293.2,210.3,292.9,210.2,292.9z M205.8,299.2c-0.1,0-0.2,0.2-0.1,0.2c1.7,0.6,3.4,1.2,5.1,1.5
		c2.9,0.6,5.8,1,8.8,0.6c2.6-0.2,5.2-0.8,7.6-1.8c0.1,0,0-0.2-0.1-0.2c-1.3,0.3-2.5,0.6-3.7,0.8c-2.9,0.5-5.8,0.8-8.8,0.5
		C211.6,300.6,208.6,300,205.8,299.2z"/>
	<path class="st0" d="M226,292.1c-0.3-0.3-0.6-0.4-0.9-0.7c-3.1-3-6.5-5.7-10.2-7.8c-0.5-0.4-1-0.7-1.6-1.1c-2.3-1.5-4.1-3.5-5.2-6
		c-0.8-1.9-1.3-3.9-1.3-5.9v-0.5c0-0.2,0.3-0.3,0.4-0.2c2.2,1.9,4.9,3,7.5,4.2C221.5,277.4,225.3,284.7,226,292.1L226,292.1z
		 M222.5,282.8c-1.8-4.7-6.5-7.3-10.9-9.3c-0.2-0.1-0.4,0.3-0.2,0.4c2.1,1.2,4.4,2.2,6.3,3.7c1.9,1.4,3.5,3.2,4.5,5.3
		C222.4,283,222.6,282.9,222.5,282.8z"/>
	<path class="st0" d="M221.8,307.2c0.8-0.5,1.7-1.1,2.5-1.6c-0.1,0.5-0.3,1.1-0.5,1.7c-2,4.9-5.5,9.2-10.2,11.9
		c-2.6,1.5-5.6,2.3-8.7,2.6c-2.8,0.2-5.6,0.6-8.2,1.6c-0.5,0.2-0.5,0.2-0.7,0.1c0,0-0.1-0.1-0.1-0.2c0,0,0.1-0.3,0.1-0.4
		c0.9-3.2,2.9-6.4,5.7-8.2c3.5-1.5,7.3-2.6,11-4C215.6,309.8,219.3,308.7,221.8,307.2z M210.3,319.1c-1.2,0.4-2.4,0.7-3.6,1.1
		c-0.3,0.1-0.3,0.7,0.1,0.7c3-0.2,6-1.5,8.4-3.2c1.3-0.9,2.4-2,3.5-3.1c0.7-0.7,1.5-1.6,1.8-2.6c0,0,0-0.1-0.1-0.1
		c-0.4,0.3-0.7,0.7-1,1.1c-0.4,0.4-0.8,0.9-1.3,1.3c-1.1,1-2.2,1.9-3.4,2.7C213.4,317.8,211.9,318.5,210.3,319.1z"/>
	<path class="st0" d="M223.2,291.8c1.1,1,2.1,2.1,3,3.3c-4.2-1.6-9.9-3.9-13.7-4.7c-2.2-0.4-4.7-0.7-6.8-1.3c-3.8-1.1-7-3.8-9-7.3
		c-0.1-0.3,0.3-0.7,0.5-0.7h0.2h0.2c6.7-0.5,13.2,1.5,18.7,5.1C218.6,287.9,220.9,289.8,223.2,291.8z M208.3,288.1
		c-1.6-0.2-3.1-0.6-4.5-1.3c-0.7-0.4-1.4-0.8-2-1.3c-0.7-0.5-1.2-1-1.9-1.5c-0.2-0.1-0.5,0.1-0.3,0.3c0.9,1.3,2.4,2.3,3.8,3
		c1.4,0.7,2.8,1.1,4.3,1.3c1.6,0.2,3.1,0.2,4.7,0.5c1.9,0.4,3.6,1.1,5.3,1.9c0.1,0,0.2-0.1,0.1-0.2
		C214.8,289.2,211.6,288.4,208.3,288.1z"/>
	<path class="st0" d="M230.1,307.8c-1.4,1.4-2.6,3.2-4.4,4.2c-0.3,0.1-0.5,0.1-0.7-0.1c-0.2-0.1-0.3-0.5-0.3-0.7
		c-0.1-0.8,0-1.6,0.2-2.4c0.3-0.8,0.7-1.8,0.9-2.7c1.1-2.2,3-4.1,5.3-5l0.2-0.1c0.8-0.2,1.1-1.3,0.5-1.9c-3.2-3.5-5-8.3-3.8-13
		c0,0,0.1,0,0.2,0c0.3-0.1,0.3,0,0.5,0.2c0.3,0.4,0.6,1,0.9,1.6c0.5,1.3,1.1,2.6,2,3.8c0.6,1.1,2.1,2,2.8,2.9c1.2,2,1.8,4.9,1.1,7.2
		C234.3,304.4,231.8,305.8,230.1,307.8z M227.7,304.5c-0.9,0.7-1.5,1.8-2,2.8c-0.2,0.5-0.4,1.1-0.5,1.6c-0.1,0.5-0.2,1.1-0.1,1.7
		c0,0.1,0.1,0.1,0.1,0c0.1-0.5,0.1-1.1,0.2-1.6c0.1-0.5,0.3-1.1,0.5-1.6c0.5-1.1,1.2-1.9,1.9-2.7
		C228.1,304.6,227.9,304.4,227.7,304.5z M233,294.4c0.5,0.4,1,0.9,1.1,1.6c0,0.1,0.1,0,0.2,0c0-0.7-0.3-1.3-0.8-1.7
		c-0.5-0.4-1-0.8-1.5-1.3c-0.1-0.1-0.3,0-0.2,0.2C232,293.7,232.5,294.1,233,294.4z"/>
	<g>
		<path class="st1" d="M224.6,286.5c-0.3,1.5-1.6,2.7-2.7,3.5c-1.1,0.9-2.2,1.7-3.2,2.6c-1.7,1.3-2.9,3.1-4.9,4
			c-1.4,0.4-1.9-0.6-2-1.8c-2.2,4-5.5,7.6-9.6,9.8c-3.5,2-7.6,2.6-11.6,2.8c-2.2,0.2-4.2,0.7-6.4,1.3c-0.8,0-1.5-0.7-1.3-1.5
			l0.1-0.4c0.8-2.7,2.3-5.2,4.3-7.1c1.1-1.2,2.7-1.9,4.2-2.4c2.2-0.8,4.3-1.7,6.4-2.5c-3.7,0.6-7.4,0.7-11.2,0.4
			c-2.8-0.2-5.6-0.6-8.4-1.2c-0.2-0.1-0.4-0.1-0.7-0.2c-0.5-0.2-0.6-0.9-0.2-1.3l0,0l0.2-0.2c3.4-3.5,8-6.6,13-7
			c-4.7-1.9-9.1-4.6-13.1-7.4c-1.1-0.5-1-2.2,0.3-2.5c3.4-1,6.9-1.2,10.4-1.3c1.7,0,3.3,0,5,0.1c-3.8-1.3-6.8-3.4-9.4-7.8
			c-0.5-0.9,0-2,1-2.1h0.2h0.3c1.4-0.1,2.8-0.1,4.1-0.1c3.1,0.1,6.1,0.8,9,1.8c-2.9-2.8-4.5-6.9-4.6-11.1v-0.5c0-0.6,0.6-1,1.2-0.9
			c0.2,0,0.4,0.2,0.6,0.3c2.2,1.7,4.8,2.7,7.3,3.7c5.7,2.5,9.7,7.8,11.5,13.6c0.1-0.4,0.2-0.7,0.3-1c0.3-0.7,1.2-0.8,1.8-0.7
			c1,0.4,1.4,1.6,1.8,2.3c0.6,1.3,1.4,2.3,2.2,3.3c0.9,1.1,2.4,1.6,3.2,2.9C225.6,280.3,225.5,283.6,224.6,286.5z M189.7,298.9
			c-2.9,1.7-4.8,4.9-5.7,8.2c0,0.1-0.1,0.4-0.1,0.5c0,0,0,0.1,0.1,0.2c0.2,0.1,0.2,0.1,0.7-0.1c2.6-0.9,5.4-1.4,8.2-1.6
			c3.1-0.3,6-1.1,8.7-2.6c4.6-2.8,8.1-7.1,10.1-12c0.2-0.6,0.4-1.2,0.5-1.7c-0.8,0.5-1.7,1.1-2.5,1.6c-2.5,1.4-6.2,2.6-8.8,3.6
			C197.1,296.3,193.3,297.4,189.7,298.9z M185.5,287.3c-2.8,1.3-5.2,3.3-7.3,5.5l0,0v0.1l0.5,0.1c10.3,2.2,21.9,1.8,30.9-4.1
			c0.3-0.2,0.8-0.5,1.2-0.8c-0.7,0.1-1.3,0.1-1.7,0.1c-3.2,0.2-6.6,0.2-9.8-0.5c-1.6-0.3-3.2-0.9-4.7-1.2
			C191.6,285.6,188.3,286,185.5,287.3z M188.3,275.5c-3.2,0-6.3,0.5-9.5,0.7h-0.7c-0.1,0-0.2,0-0.2,0c-0.1,0.2-0.1,0.3,0.3,0.5
			c8.4,5.8,18.5,10.3,29,9.6c3.5-0.2,6.9-1.4,10.3-2.5c0.1,0,0.1-0.2,0-0.1c-2.5-1.8-5.3-3.3-8.1-4.4
			C202.7,276.5,195.5,275.3,188.3,275.5z M185.4,265.1h-0.3h-0.2c-0.3,0.1-0.7,0.3-0.5,0.7c2,3.4,5.2,6.2,9,7.3
			c2.1,0.6,4.6,0.9,6.8,1.3c3.8,0.8,9.5,3.1,13.7,4.7c-1-1.2-2-2.2-3-3.3c-2.2-1.9-4.6-3.9-6.9-5.7
			C198.5,266.6,192.1,264.6,185.4,265.1z M202.4,258.2c-2.6-1.2-5.3-2.3-7.5-4.2c-0.1-0.1-0.4,0-0.4,0.2l0.1,0.5
			c0.1,2.1,0.6,4.1,1.3,5.9c1.1,2.5,2.9,4.4,5.2,6c0.6,0.4,1,0.7,1.6,1.1c3.8,2.1,7.2,4.8,10.2,7.8c0.3,0.3,0.6,0.4,0.9,0.7v-0.1
			C213.1,268.8,209.3,261.4,202.4,258.2z M222,278.8c-0.6-0.9-2.1-1.8-2.8-2.9c-0.9-1.2-1.5-2.5-2-3.8c-0.3-0.6-0.5-1.3-0.9-1.6
			c-0.2-0.2-0.2-0.2-0.5-0.2c-0.1,0-0.1,0-0.2,0c-1.2,4.7,0.7,9.5,3.8,13c0.7,0.6,0.3,1.7-0.5,1.9l-0.2,0.1c-2.3,0.9-4.2,2.7-5.3,5
			c-0.1,0.9-0.6,1.9-0.9,2.7c-0.1,0.8-0.2,1.6-0.2,2.4c0.1,0.3,0.1,0.6,0.3,0.7s0.5,0.1,0.7,0.1c1.8-0.9,3-2.8,4.4-4.2
			c1.7-2,4.1-3.4,5.3-5.8C223.8,283.7,223.3,280.9,222,278.8z"/>
		<path class="st1" d="M207.2,296.9c0.3-0.4,0.6-0.7,1-1.1c0,0,0.1,0,0.1,0.1c-0.3,1-1.2,1.8-1.8,2.6c-1.1,1.2-2.2,2.2-3.5,3.1
			c-2.4,1.7-5.4,3-8.4,3.2c-0.4,0-0.4-0.6-0.1-0.7c1.2-0.3,2.4-0.6,3.6-1.1c1.6-0.6,3-1.3,4.4-2.2c1.2-0.8,2.4-1.7,3.4-2.7
			C206.5,297.8,206.9,297.4,207.2,296.9z"/>
		<path class="st1" d="M205.7,289.8c0.1,0,0.2,0.1,0.1,0.2c-1.4,1-3,1.6-4.7,2.1c-1.6,0.5-3.4,0.9-5.2,1.1c-3.5,0.5-7.2,0.5-10.7,0
			c-0.2,0-0.2-0.3,0-0.4c3.5,0.1,7,0.2,10.5-0.3c1.7-0.2,3.4-0.5,5-1C202.5,291.1,204.1,290.4,205.7,289.8z"/>
		<path class="st1" d="M215.8,288.9c-0.7,0.9-1.5,1.6-1.9,2.7c-0.2,0.5-0.3,1-0.5,1.6c-0.1,0.5-0.1,1.1-0.2,1.6c0,0.1-0.1,0-0.1,0
			c-0.2-0.5-0.1-1.2,0.1-1.7c0.1-0.6,0.3-1.1,0.5-1.6c0.4-1,1-2.2,2-2.8C215.7,288.4,215.9,288.7,215.8,288.9z"/>
		<path class="st1" d="M214.9,283.7c0.1,0,0.1,0.1,0.1,0.2c-2.4,1-5,1.5-7.6,1.8c-2.9,0.3-5.8,0-8.8-0.6c-1.7-0.4-3.5-0.9-5.1-1.5
			c-0.2-0.1-0.1-0.3,0.1-0.2c2.9,0.7,5.9,1.4,8.8,1.7c2.9,0.4,5.9,0.1,8.8-0.5C212.5,284.2,213.7,284,214.9,283.7z"/>
		<path class="st1" d="M198,277.2c-2.7-0.2-5.5-0.3-8.3-0.4c-1.4,0-2.9,0-4.4,0c-1.4,0-2.8,0.1-4.2,0.1c-0.3,0-0.3-0.5,0-0.5
			c1.4-0.2,2.7-0.2,4.2-0.2s3,0,4.4,0c2.8,0.1,5.6,0.4,8.4,0.8C198.1,277,198.1,277.3,198,277.2z"/>
		<path class="st1" d="M205.5,275.1c-1.7-0.8-3.5-1.5-5.3-1.9c-1.5-0.4-3.1-0.4-4.7-0.5c-1.5-0.1-3-0.6-4.3-1.3
			c-1.4-0.7-2.9-1.6-3.8-3c-0.1-0.2,0.1-0.4,0.3-0.3c0.7,0.5,1.3,1,1.9,1.5c0.6,0.4,1.3,0.9,2,1.3c1.4,0.7,2.9,1.1,4.5,1.3
			c3.4,0.3,6.5,1.1,9.4,2.8C205.7,275,205.5,275.2,205.5,275.1z"/>
		<path class="st1" d="M219.7,277.1c0.5,0.4,1,0.8,1.5,1.3c0.5,0.4,0.9,1,0.8,1.7h-0.1c-0.1-0.7-0.6-1.2-1.1-1.6s-1-0.7-1.3-1.2
			C219.4,277.1,219.6,277,219.7,277.1z"/>
		<path class="st1" d="M199.3,258c-0.2-0.1-0.1-0.5,0.2-0.4c4.3,1.9,9.1,4.6,10.9,9.3c0,0.1-0.1,0.2-0.2,0.1c-1-2.1-2.7-3.9-4.5-5.3
			C203.6,260.2,201.4,259.1,199.3,258z"/>
	</g>
</g>
<g>
	<path class="st0" d="M4.1,376.3c-4.5,2.5-8.4,5.9-12.1,9.5c-0.6,0.5-1.2,1.3-1.9,1.9c0.2-0.8,0.4-1.6,0.6-2.2
		c4.4-16.4,17.8-28.7,32.3-36.7l0.7-0.4c0,0,0,0,0.1,0.1l0,0c-0.3,4.9-1.1,9.7-2.9,14c-2,4.4-5.3,8.4-9.8,10.4
		C8.7,374.2,6.4,375.2,4.1,376.3z M15.4,355.9c0.2-0.2-0.1-0.6-0.4-0.5c-4.7,3.2-8.9,7-12.5,11.2c-1.8,2-3.4,4.2-5,6.7
		c-1.4,2.2-2.8,4.7-3.4,7.3c0,0.2,0.2,0.2,0.3,0.1c1.2-2.5,2.3-5,3.9-7.4c1.4-2.2,3.1-4.3,4.9-6.3C6.8,363,11.2,359.6,15.4,355.9z"
		/>
	<path class="st0" d="M0.8,396.8c-4.7,1.6-9.4,2.6-14.1,3.2l-0.1-0.1c2.7-4.8,5.4-9.7,9.6-13.6c11.5-11.7,28-16.8,44.1-18.6
		c0.6-0.1,0.8-0.1,0.9,0.3c0,0.2-0.1,0.1-0.2,0.2l-0.8,0.7c-3.5,3.4-6.7,7.3-10.5,10.6C21.4,387.1,11.7,393.3,0.8,396.8z
		 M16.7,387.9c3.7-2.4,7.3-4.9,10.7-7.7c1.7-1.4,3.6-3,5.2-4.5c1.7-1.4,3.3-2.9,4.8-4.6c0.4-0.3-0.3-0.8-0.5-0.6
		c-1.8,1.3-3.3,2.9-4.9,4.4c-1.7,1.4-3.4,3-5.2,4.5c-3.4,2.8-6.7,5.4-10.2,8.1C16.3,387.6,16.6,388,16.7,387.9z M15.4,375.9
		c0.1-0.1,0-0.4-0.1-0.3c-2.6,1-5.3,2.1-7.6,3.5c-4,2.3-7.9,4.8-11,8.4c-2.9,2.9-5.3,6.3-7.1,10c-0.1,0.1,0.2,0.2,0.3,0.1
		c1.2-1.7,2.3-3.3,3.5-4.8c2.9-3.6,6-6.9,9.9-9.7C7.1,380.2,11.3,377.8,15.4,375.9z"/>
	<path class="st0" d="M-1.1,405.1c0.7,0,1.1-0.1,1.8-0.1c6.8,0.3,13.6,0,20.1-1.3c1,0,1.9-0.2,3-0.4c4.3-0.6,8.5-0.1,12.3,1.7
		c2.9,1.4,5.6,3.3,7.6,5.6l0.5,0.6c0.2,0.2,0,0.7-0.3,0.6c-4.6,0-8.9,1.5-13.2,2.8C19.3,417.8,7.3,413.1-1.1,405.1L-1.1,405.1z
		 M12.6,412.5c7,3.7,15.2,1.9,22.5-0.3c0.3-0.1,0.2-0.8-0.2-0.7c-3.7,0.7-7.5,1.9-11.3,2.1c-3.7,0.3-7.4-0.2-10.8-1.6
		C12.5,412.1,12.4,412.5,12.6,412.5z"/>
	<path class="st0" d="M-11.7,382.9c-0.4,1.4-0.9,3.1-1.3,4.5c-0.4-0.7-0.8-1.6-1.2-2.5c-2.7-7.8-3-16.5-0.2-24.6
		c1.5-4.5,4.2-8.5,7.6-12c3.1-3.1,6-6.5,8-10.3c0.4-0.8,0.4-0.8,0.7-0.8c0,0,0.2,0,0.3,0.1c0,0,0.2,0.5,0.3,0.6
		c2.2,4.7,3.2,10.5,1.7,15.6c-2.6,5.4-5.9,10.6-8.9,16.1C-7.1,373.5-10.3,378.6-11.7,382.9z M-10.4,357c1-1.7,2.1-3.3,3.1-5
		c0.3-0.4-0.4-1.1-0.8-0.7c-3.3,3.3-5.5,8-6.6,12.4c-0.6,2.4-0.8,4.8-0.9,7.3c-0.1,1.5-0.1,3.4,0.6,4.9c0,0,0.1,0.1,0.2,0
		c0.2-0.8,0.1-1.5,0-2.3c0.1-0.9,0-1.9,0.2-2.9c0.3-2.3,0.6-4.5,1.2-6.7C-12.8,361.8-11.7,359.4-10.4,357z"/>
	<path class="st0" d="M2.5,402.6c-2.3,0-4.6-0.3-6.9-0.8c6.6-2.4,15.7-5.6,21-8.6c3-1.8,6.3-4,9.4-5.5c5.6-2.6,12.2-2.7,18.2-0.7
		c0.4,0.3,0.4,1.1,0.1,1.3l-0.2,0.2l-0.2,0.2c-7.4,7.5-17.1,11.8-27.3,13.3C11.9,402.4,7.3,402.6,2.5,402.6z M23.9,391.6
		c2.1-1.4,4.3-2.5,6.7-3.1c1.2-0.2,2.5-0.5,3.7-0.5c1.3-0.1,2.4-0.1,3.8-0.2c0.3-0.1,0.5-0.6,0-0.7c-2.4-0.6-5.2-0.2-7.6,0.4
		c-2.4,0.6-4.4,1.6-6.4,2.9c-2.1,1.4-3.9,3-6.1,4.3c-2.7,1.5-5.4,2.4-8.2,3.2c-0.1,0.1-0.1,0.3,0.1,0.3
		C15.1,397,19.7,394.6,23.9,391.6z"/>
	<path class="st0" d="M-22.2,390.8c0.2-3.1-0.2-6.5,0.9-9.5c0.3-0.4,0.5-0.6,0.9-0.6c0.3-0.1,0.9,0.3,1.1,0.5c0.9,0.8,1.7,1.9,2.2,3
		c0.5,1.3,1,2.8,1.7,4.1c1,3.7,0.7,7.9-1.1,11.4l-0.1,0.3c-0.7,1.1,0,2.7,1.4,2.8c7.4,0.8,14.5,4.6,17.9,11.4c0,0-0.1,0.1-0.2,0.2
		c-0.3,0.4-0.4,0.3-0.8,0.3c-0.8-0.2-1.7-0.6-2.7-1c-1.9-1-4-1.9-6.3-2.4c-1.8-0.7-4.5-0.2-6.3-0.5c-3.5-1.1-7.2-3.9-8.7-7.4
		C-23.6,399.1-22.1,394.9-22.2,390.8z M-15.9,392.2c0.3-1.8-0.1-3.7-0.5-5.4c-0.3-0.8-0.7-1.7-1.1-2.4s-0.9-1.5-1.6-2.1
		c-0.1-0.1-0.2,0-0.1,0.1c0.4,0.7,1,1.4,1.4,2.1c0.4,0.7,0.8,1.6,1.1,2.4c0.5,1.8,0.5,3.5,0.5,5.1
		C-16.5,392.5-16.1,392.5-15.9,392.2z M-11.8,409.6c-1,0-2.1,0-2.9-0.8c-0.1-0.1-0.1,0.1-0.2,0.2c0.7,0.8,1.7,1.2,2.7,1.2
		c1,0,2-0.1,3.1,0c0.2,0,0.4-0.3,0-0.4C-9.9,409.4-10.9,409.4-11.8,409.6z"/>
	<g>
		<path class="st1" d="M6.3,410.3c-1.2-2.1-0.9-4.8-0.4-6.9c0.4-2.2,0.8-4.3,1.1-6.4c0.7-3.3,0.2-6.7,1.7-9.8
			c1.2-1.9,2.9-1.3,4.2,0.1c-1.5-7-1.3-14.6,1.2-21.5c2.1-6,6.3-10.9,10.8-15.3c2.4-2.5,4.2-5.2,6.2-8.1c0.9-0.8,2.5-0.7,3.1,0.4
			l0.3,0.6c1.8,4,2.6,8.5,2.2,12.8c-0.1,2.6-1.2,5-2.5,7.2c-1.8,3.2-3.3,6.4-5,9.6c3.8-4.5,8-8.5,12.8-12c3.5-2.7,7.2-5.1,11.2-7.2
			c0.3-0.1,0.6-0.3,1-0.5c0.8-0.3,1.6,0.4,1.6,1.3l0,0l0,0.4c-0.4,7.6-2.6,16-8.1,21.7c7.5-2.6,15.5-4,23.1-4.8
			c1.8-0.5,3.4,1.6,2.2,3.3c-3,4.7-6.9,8.5-10.9,12.3c-2,1.8-3.9,3.4-6,5c5.8-2.4,11.5-3,19.1-0.5c1.5,0.5,2.1,2.4,1,3.5l-0.2,0.2
			l-0.4,0.3c-1.6,1.6-3.2,3-4.7,4.3c-3.8,3.1-8,5.3-12.5,7.2c6.3,0.3,12.4,3.5,16.9,8.4l0.5,0.6c0.6,0.7,0.3,1.8-0.5,2.3
			c-0.2,0.2-0.7,0.2-1,0.3c-4.4,0.3-8.5,1.8-12.4,3.2c-9.3,2.9-19.5,0.8-27.6-4.2c0.3,0.6,0.5,1,0.7,1.5c0.4,1.1-0.6,2.2-1.4,2.7
			c-1.6,0.6-3.3-0.4-4.5-0.9c-2-0.9-4-1.3-6-1.6c-2.2-0.4-4.5,0.6-6.8-0.1C11.5,418.6,8.2,414.6,6.3,410.3z M34.7,359.6
			c1.7-5,0.6-10.7-1.7-15.6c-0.1-0.1-0.3-0.6-0.4-0.7c0,0-0.1-0.1-0.3-0.1c-0.3,0.1-0.3,0.1-0.7,0.8c-2.1,3.7-4.9,7.2-8,10.3
			c-3.4,3.6-6,7.5-7.6,12c-2.5,8.1-2.2,16.7,0.4,24.6c0.4,0.9,0.8,1.8,1.2,2.5c0.4-1.4,0.9-3.1,1.3-4.5c1.5-4.2,4.6-9.5,6.7-13.3
			C28.7,370.3,32,365.1,34.7,359.6z M51.6,369c2-4.4,2.7-9.3,2.9-14l0,0l-0.1-0.1l-0.7,0.4c-14.4,8-27.7,20.5-32.3,36.7
			c-0.1,0.5-0.4,1.4-0.6,2.2c0.7-0.8,1.4-1.5,1.9-1.9c3.6-3.5,7.6-7,12.1-9.5c2.2-1.3,4.7-2.2,6.8-3.4
			C46.2,377.3,49.7,373.4,51.6,369z M60.5,385.8c3.8-3.3,6.9-7.1,10.5-10.6l0.8-0.7c0.1-0.1,0.2-0.2,0.2-0.2
			c-0.1-0.3-0.2-0.5-0.9-0.3c-15.9,1.8-32.5,6.9-44.1,18.6c-3.9,3.8-6.7,8.8-9.6,13.6c-0.1,0.1,0.1,0.3,0.1,0.1
			c4.8-0.5,9.7-1.6,14.1-3.2C42.5,399.5,52.2,393.5,60.5,385.8z M74.7,395.1l0.4-0.3l0.2-0.2c0.3-0.4,0.5-1.1-0.1-1.3
			c-5.9-2-12.5-2-18.2,0.7c-3.1,1.5-6.4,3.7-9.4,5.5c-5.3,3-14.4,6.1-21,8.6c2.4,0.4,4.6,0.5,6.9,0.8c4.6,0,9.5-0.1,14-0.4
			C57.6,406.8,67.3,402.6,74.7,395.1z M61.7,420.8c4.3-1.3,8.6-2.7,13.2-2.8c0.2,0,0.5-0.4,0.3-0.6l-0.6-0.5
			c-2.3-2.4-4.9-4.2-7.6-5.6c-3.9-1.8-8-2.2-12.3-1.7c-1.1,0.1-1.9,0.2-3,0.4c-6.7,1.4-13.5,1.8-20.1,1.3c-0.7,0-1.1,0.1-1.8,0.1
			l0.1,0.1C38.1,419.3,50.2,424.1,61.7,420.8z M17.3,416.7c1.6,0.4,4.3,0,6.3,0.5c2.3,0.5,4.3,1.4,6.3,2.4c1,0.4,1.9,1,2.7,1
			c0.4,0,0.4,0,0.8-0.3c0.1-0.1,0.1-0.1,0.2-0.2c-3.4-6.8-10.6-10.5-17.9-11.4c-1.4,0-2.1-1.7-1.4-2.8l0.1-0.3
			c1.8-3.4,2.2-7.5,1.1-11.4c-0.8-1.2-1.3-2.9-1.7-4.1c-0.7-1-1.4-2.1-2.2-3c-0.4-0.3-0.7-0.6-1.1-0.5c-0.3,0.1-0.7,0.4-0.9,0.6
			c-1.2,2.9-0.7,6.4-0.9,9.5c0.1,4.1-1.3,8.2-0.3,12.3C10.1,412.7,13.6,415.5,17.3,416.7z"/>
		<path class="st1" d="M16.1,380c0.1,0.8,0,1.4,0,2.3c0,0-0.1,0.1-0.2,0c-0.7-1.5-0.4-3.4-0.6-4.9c0.1-2.6,0.3-4.9,0.9-7.3
			c1.1-4.5,3.3-9.1,6.6-12.4c0.5-0.4,1.1,0.3,0.8,0.7c-1.1,1.6-2.2,3.2-3.1,5c-1.3,2.4-2.2,4.6-2.9,7.1c-0.6,2.2-1.1,4.5-1.2,6.7
			C16,378.3,16,379.1,16.1,380z"/>
		<path class="st1" d="M25.2,386.9c-0.1,0.1-0.3,0.1-0.3-0.1c0.6-2.6,1.9-5,3.4-7.3c1.4-2.2,3.1-4.6,5-6.7c3.6-4.2,8-8,12.6-11
			c0.2-0.2,0.5,0.1,0.4,0.5c-4.2,3.5-8.5,7-12.1,11.2c-1.8,2-3.5,4.1-4.9,6.3C27.6,382,26.5,384.5,25.2,386.9z"/>
		<path class="st1" d="M14.2,398.4c-0.1-1.8,0.1-3.4-0.5-5.1c-0.3-0.8-0.7-1.5-1.1-2.4c-0.4-0.7-1-1.4-1.4-2.1
			c-0.1-0.1,0.1-0.1,0.1-0.1c0.8,0.4,1.4,1.3,1.6,2.1c0.5,0.8,0.8,1.6,1.1,2.4c0.6,1.6,1.1,3.6,0.5,5.4
			C14.8,398.8,14.3,398.7,14.2,398.4z"/>
		<path class="st1" d="M20.6,403.6c-0.1,0.1-0.2,0-0.3-0.1c1.8-3.7,4.4-6.9,7.1-10c3.1-3.3,6.8-6,11-8.4c2.4-1.3,5.1-2.5,7.6-3.5
			c0.3-0.1,0.4,0.3,0.1,0.3c-4.1,2.2-8.4,4.4-12.1,7.1c-3.8,2.5-7.1,6-9.9,9.7C23,400.5,21.7,402,20.6,403.6z"/>
		<path class="st1" d="M47.3,393.8c3.4-2.5,6.8-5.3,10.2-8.1c1.7-1.4,3.4-3,5.2-4.5c1.7-1.4,3.2-3,4.9-4.4c0.4-0.3,0.9,0.3,0.5,0.6
			c-1.4,1.7-3,3-4.8,4.6c-1.8,1.5-3.5,3.1-5.2,4.5c-3.4,2.8-7,5.3-10.7,7.7C47.4,394.2,47.1,393.8,47.3,393.8z"/>
		<path class="st1" d="M40.6,404c2.8-0.8,5.7-1.8,8.2-3.2c2.2-1.1,4.1-2.7,6.1-4.3c1.9-1.4,4.2-2.4,6.4-2.9c2.4-0.6,5.1-1.1,7.6-0.4
			c0.3,0.1,0.3,0.6,0,0.7c-1.3,0.1-2.6,0.2-3.8,0.2c-1.1,0.1-2.5,0.3-3.7,0.5c-2.4,0.6-4.6,1.7-6.7,3.1c-4.3,3.2-8.8,5.4-14,6.4
			C40.5,404.4,40.5,403.9,40.6,404z"/>
		<path class="st1" d="M21.8,416.3c-1,0-2,0.1-3.1,0c-1,0-2.1-0.3-2.7-1.2l0.1-0.1c0.8,0.7,1.9,0.8,2.9,0.8s1.9-0.2,2.8,0.1
			C22.1,416,22,416.3,21.8,416.3z"/>
		<path class="st1" d="M65.6,417.8c0.3-0.1,0.6,0.5,0.2,0.7c-7,2.2-15.5,4-22.5,0.3c-0.1-0.1-0.1-0.3,0.1-0.3
			c3.3,1.4,7.2,1.8,10.8,1.6C58.2,419.7,61.9,418.7,65.6,417.8z"/>
	</g>
</g>
<image style="display:none;overflow:visible;enable-background:new    ;" width="188" height="350" xlink:href="../../../../MINTERO Final Project Content/About/Images/carfreshenersolo.png"  transform="matrix(0.6013 0.2434 -0.2434 0.6013 319.3696 -203.4508)">
</image>
<image style="display:none;overflow:visible;enable-background:new    ;" width="164" height="350" xlink:href="../../../../MINTERO Final Project Content/About/Images/essentialoil.png"  transform="matrix(0.4137 -0.1773 0.1773 0.4137 192.4241 124.4593)">
</image>
</svg>
