<?xml version="1.0" encoding="utf-8"?>
<!-- Generator: Adobe Illustrator 27.3.1, SVG Export Plug-In . SVG Version: 6.00 Build 0)  -->
<svg version="1.1" id="Layer_1" xmlns="http://www.w3.org/2000/svg" xmlns:xlink="http://www.w3.org/1999/xlink" x="0px" y="0px"
	 viewBox="0 0 484.1 404.7" style="enable-background:new 0 0 484.1 404.7;" xml:space="preserve">
<style type="text/css">
	.st0{fill:none;}
	.st1{fill:#00703C;}
	.st2{fill:none;stroke:#007236;stroke-miterlimit:10;}
</style>
<g>
	<g>
		<g>
			<g>
				<path class="st0" d="M163.9,334.2c-2.7-3.9-5.2-7.6-6-12.2c0-0.2-0.1-0.3-0.1-0.5c0-0.2-0.1-0.5-0.1-0.7c3,3.5,6.5,8.2,7.5,13.5
					l0.1,0.4c0.1,0.7,0.2,1.4,0.4,2.1c-0.4-0.6-0.8-1.2-1.2-1.8L163.9,334.2z"/>
				<path class="st0" d="M152,322.4c0-0.6,0.2-1,0.2-1c0.2-0.3,0.3-0.3,0.3-0.3c0.5,0.6,0.7,1.8,0.8,2.9c0.1,0.5,0.1,0.9,0.2,1.3
					c1,4.6,3.5,9.1,7.2,12.6c-0.1-0.1-0.2-0.1-0.3-0.2C154.7,334.1,151.5,328.2,152,322.4z"/>
				<path class="st0" d="M95.4,349c-1.1-3.7-0.7-7-0.2-9.1c0.1-0.4,0-0.8-0.3-1.1c-0.3-0.3-0.7-0.4-1.1-0.4
					c-2.7,0.4-6.8,0.7-11.5-0.8c-5.4-1.7-9.1-5-11.2-7.5c0-0.1,0.1-0.4,0.3-0.7c0.5-0.7,1.8-0.5,4-0.1c2.1,0.4,4.7,0.8,7.9,0.5
					c1.8-0.2,2.9-0.5,3.7-0.8c0.8-0.3,1.5-0.5,2.5-0.5c0.3,0,0.5,0,0.9,0c3.3,0.3,5.8,1.8,6.7,2.4c1.8,1.1,3.3,2.4,4.4,3.9
					c1.5,2,1.6,3.3,2,6.8c0.2,1.8,0.4,4.3,1,7.7c0.2,1,0.3,1.9,0.5,2.8c0.7,3.8,1.2,6.8,0.1,7.5c-0.1,0-0.2,0.1-0.3,0.2
					C102.6,358.6,97.4,355.4,95.4,349z"/>
				<path class="st0" d="M157.8,311.8c4.3-0.3,8.5,1.5,11,4.5l0,0c4.6,5.1,4.7,12.5,2.5,18.9c0.5-4.3-0.2-8.8-2.1-12.7
					c-0.6-1.3-1.5-2.8-2.6-4.1c-0.5-0.5-1.2-1.3-2.2-1.9c-0.1-0.1-1.4-0.8-2.5-0.5c-0.4,0.1-0.7,0.4-0.9,0.9
					c-0.3,0.7,0.2,1.4,0.3,1.7c0.6,0.9,1.3,1.7,2,2.6c0.3,0.4,0.7,0.8,1,1.2c4.3,5.3,4.4,12.3,3.7,17.7c-0.3-0.7-0.8-2.2-1.4-5.5
					l-0.1-0.5c-1-5.9-4.9-10.9-8.1-14.6c-0.1-0.2-0.5-0.6-1.1-0.6c-0.5,0-1,0.5-1.1,1c-0.1,0.6,0,1.3,0.2,1.9c0,0.2,0.1,0.3,0.1,0.5
					c0.9,5,3.5,8.8,6.2,12.8l0.5,0.8c0.5,0.8,1.1,1.6,1.6,2.4c0.3,0.4,0.6,0.9,0.8,1.3c-1.6-1-3.5-2.3-3.7-2.5
					c-3.6-3.4-6.1-7.7-7-12.1c-0.1-0.3-0.1-0.7-0.2-1.2c-0.2-1.3-0.3-2.8-1.2-3.7c-0.4-0.4-0.8-0.5-1-0.5c0,0-0.1,0-0.1,0
					c-0.5,0-1,0.4-1.5,1.1c-0.1,0.2-0.3,0.7-0.4,1.5c-0.5,6.3,2.9,12.7,9.1,16.7c1,0.6,2.1,1.2,3,1.7c-2-0.4-3.9-1.1-5.6-2
					c-4.6-2.2-8.2-6.2-9.5-10.8c-1.1-3.9-0.6-7.9,1.7-11.3C151,313.7,154.1,312,157.8,311.8z"/>
				<path class="st0" d="M150.3,308.5c1.2-1.5,2.8-2,3.9-1.8c0.2,0,0.3,0.1,0.5,0.1c1,0.3,1.9,0.8,2.7,1.6c-0.3,0.1-0.7,0.1-1,0.1
					c-0.1,0-0.2,0-0.3,0c-0.3,0-0.7,0-1,0.1c-1.2,0.3-2.5,0.9-3.8,1.8v0c-0.1,0.1-0.4,0.3-0.6,0.5c-0.3,0.3-1.1,1-1.5,1.2
					c0-0.4,0.2-1,0.3-1.4C149.4,310.4,149.6,309.4,150.3,308.5z"/>
				<path class="st0" d="M48.7,290.7c-0.5,1.6-0.8,2.6-1.5,3.6c-0.8,1.2-1.8,1.8-2.3,2.2c-3.4,2.3-7.3,2.1-8.4,2
					c-2-0.2-3.9-0.8-5.7-1.8c0.8-1.3,2.7-3.6,6.2-4.2c2.1-0.4,4,0.1,5.2,0.5c0.3,0.1,0.7,0.1,0.9-0.2c0.3-0.2,0.4-0.5,0.3-0.9
					c-0.2-1.5-0.2-3.8,0.7-6.3c1.1-2.8,3-4.6,4.4-5.6c0.8,2.3,1.2,4.7,1,6.8C49.4,288.4,49,289.7,48.7,290.7z"/>
				<path class="st0" d="M164.5,320.2c-0.7-0.8-1.4-1.6-1.9-2.4c-0.2-0.2-0.2-0.3-0.2-0.3c0,0,0.1,0,0.1,0c0.2,0,0.7,0.1,1.2,0.4
					c0.8,0.4,1.4,1.1,1.8,1.6c1,1.2,1.8,2.5,2.4,3.8c1.8,3.6,2.4,7.8,2,11.8c0-4.6-1-9.5-4.4-13.6
					C165.2,320.9,164.8,320.6,164.5,320.2z"/>
				<path class="st0" d="M39.4,286.4c-0.9-0.2-1.7-0.4-2.5-0.7c-11-3.9-16.3-16.2-18.5-23.3c6.4,3.5,14.9,9.8,19.5,20
					C38.5,283.6,39,285,39.4,286.4z"/>
				<path class="st0" d="M44.9,277.1c-0.4-2.6-0.8-5.3-1.4-7.8c-0.1-0.4-0.2-1.1-0.2-2c-0.2-2-0.4-4.7-1.3-7.6c0,0-0.8-2.9-0.1-5.3
					c0.2-0.5,0.3-0.6,0.3-0.6c0,0.1,0.4,0.4,0.6,0.7c2.7,2.7,3,3.1,3.4,3.7c0.2,0.3,0.4,0.8,0.7,1.4c0.1,0.3,0.2,0.5,0.4,0.9
					c0.1,0.2,0.2,0.4,0.2,0.6c0.6,1.5,0.9,3.1,0.9,4.8c0,1-0.1,2.1-0.2,3.1C47.6,272.3,46.1,275.2,44.9,277.1z"/>
				<path class="st0" d="M34.7,269.4c-0.4-0.5-0.9-1-1.3-1.5c-1.8-2.1-3.2-3.6-4-6c-0.6-1.9-0.8-4-0.5-6.2c2.5,1.5,4.6,3.5,6.3,5.7
					c4.7,6.2,5.6,14.6,5.8,18.4c-0.4-0.7-0.8-1.4-1.2-2C37.9,274.2,36,271,34.7,269.4z"/>
				<path class="st0" d="M92.8,372.4c1.4-4.5,2.6-9.2,3.5-13.9c0,0,0.1,0,0.1,0c0,0,0,0,0,0c2.5,2.9,5.6,7.6,6.5,13.9
					c0.2,1.7,0.3,3.3,0.2,5c-0.1,2.6-0.8,5.3-2.1,7.9c-0.1,0.3-0.3,0.6-0.5,1c-0.8,1.6-1.6,2.8-2.1,3.5l-0.2,0.3
					c-1.5,2.3-2.7,4.9-3.5,7.8c0,0-0.1,0.1-0.2,0.1c-0.1,0-0.2,0-0.2,0c-3-3.2-4.8-6.7-5.2-10.4c-0.4-3.2,0.4-5.7,1.9-10.1
					C91.7,376.1,92.2,374.4,92.8,372.4z"/>
				<path class="st0" d="M24.3,282.9c1.9,2,4.6,3.7,6.5,4.9c-0.2,0-0.4-0.1-0.5-0.1c-5-0.3-9.8-2.2-14.3-5.5
					c-1.7-1.3-3.3-2.6-4.8-4.1c-1.1-1.1-2.1-2.2-3.1-3.4c1.1-0.1,2.2-0.2,3.2-0.2c3.3,0,6,0.8,8,2.3c1,0.8,1.6,1.6,2.4,2.7
					C22.3,280.5,23,281.6,24.3,282.9z"/>
				<path class="st0" d="M27.2,319.7c0.4-0.8,0.8-1.5,1.8-2.3c0.8-0.6,1.3-0.8,2-1c0.8-0.2,1.6-0.5,2.9-1.3c1.3-0.8,1.8-1.4,2.3-1.9
					c0.4-0.4,0.7-0.7,1.4-1c1.1-0.5,1.8-0.4,2.9-0.1c0.9,0.2,2.1,0.4,3.7,0.2c1.9-0.2,2.9-0.8,4.1-1.4c1-0.6,2.1-1.2,4.1-1.7
					c0.2-0.1,0.5-0.1,0.7-0.2c-4,3.4-7.9,6-11.7,7.9c-2.7,1.3-4.9,2-7.1,2.3c-0.6,0.1-1.1,0.6-1,1.3c0,0.7,0.6,1.1,1.2,1.1l0,0
					c5.5-0.5,11.4-2.8,18.2-7.3c-0.2,0.2-0.4,0.4-0.6,0.6c-1.3,1.4-1.7,2.4-2,3.2c-0.3,0.8-0.5,1.4-1.4,2.3c-2.3,2.4-4.4,3-5.8,3.1
					c-0.6,0-1.1,0-1.8-0.1c-0.9-0.1-2.1-0.2-4.3-0.2l-0.4,0c-0.1,0-0.3,0-0.4,0c-0.3,0-0.6,0-0.9,0c-2.4,0.2-3.9,0.8-5.3,1.5
					c-0.8,0.4-1.6,0.7-2.5,0.9c-2.3,0.6-4.8,0.4-7.7-0.6c2.8-0.5,4.9-1.6,6.2-3.3C26.5,320.9,26.9,320.2,27.2,319.7z"/>
				<path class="st0" d="M42.3,337.7c0.7-0.4,1.8-1.1,3.4-1.8c0.3-0.1,0.6-0.3,0.9-0.4c2.6-1.1,5.3-1.7,8.1-2c1.8-0.1,3.6-0.1,5.4,0
					c5.3,0.4,10.6,2,15.4,4.6c-4.7,0.9-9.4,2-13.9,3.3c-2,0.6-3.7,1.1-5.2,1.5c-4.5,1.3-6.9,2.1-10.4,1.9h0
					c-3.9-0.2-7.9-1.5-11.7-3.8c3-0.8,5.6-1.8,7.8-3.1L42.3,337.7z"/>
				<path class="st0" d="M17,287.9c1,0.4,2.1,0.8,3.4,1.3c2.9,1,5.8,1.9,8.9,2.7c-2.1,1.3-5.2,2.7-9.2,2.9c-1.1,0.1-2.3,0-3.4-0.1
					c-1.8-0.2-3.5-0.8-5.2-1.6c-0.2-0.1-0.4-0.2-0.6-0.3c-1.1-0.6-1.8-1.1-2.3-1.4l-0.2-0.1c-1.4-1-3.1-1.8-5-2.4
					c2.2-1.5,4.5-2.3,6.9-2.3C12.5,286.2,14.1,286.8,17,287.9z"/>
				<path class="st0" d="M48.3,352.5c10.1-7.8,25.1-9.2,30-9.4c-1.4,0.8-2.8,1.6-4.2,2.4c-5.2,3-10,5.8-12.4,7.8l0,0
					c-0.8,0.7-1.5,1.3-2.2,1.9c-3.1,2.7-5.3,4.7-9.1,6c-3,1-6.4,1.4-10,1.1c-0.3,0-0.5-0.2-0.5-0.3c-0.1-0.2,0-0.3,0-0.3
					C42.2,358.2,45,355.1,48.3,352.5z"/>
				<path class="st0" d="M79.6,369.7c1.2-0.9,2.5-1.9,3.6-2.9c2.8-2.6,4.8-5.9,6.7-9l0.3-0.5c0.4-0.6,0.7-1.2,1.1-1.7
					c0.1,6.5-1.6,13.1-5,19.3c-3.2,5.8-7.8,11-13.6,15.7c-1.5-5.1-1.3-10.4,0.7-14.4C74.6,373.5,77,371.6,79.6,369.7z"/>
				<path class="st0" d="M81.9,347.5c2.2-1,4.4-1.8,6.7-2.5c0,0,0.1,0,0.1,0c0.1,0,0.2,0,0.3,0.1c0,0,0.1,0.1,0.1,0.2
					c-0.2,1.4-0.5,2.7-0.9,4c-4.9,16.6-24.7,24.9-36.1,28.3c-0.2,0.1-0.3,0-0.4-0.1C56.4,367.7,65.5,354.8,81.9,347.5z"/>
				<path class="st1" d="M24.9,320.6c0.5-0.6,0.7-1.1,1-1.7c0.5-0.9,0.9-1.8,2.2-2.8c1-0.8,1.7-1,2.5-1.2c0.7-0.2,1.5-0.5,2.6-1.2
					c1.1-0.7,1.6-1.2,2-1.7c0.5-0.5,0.9-1,1.8-1.4c1.5-0.7,2.6-0.5,3.8-0.2c0.9,0.2,1.8,0.4,3.2,0.2c1.6-0.2,2.4-0.6,3.5-1.3
					c1.1-0.6,2.3-1.3,4.4-1.9c1.2-0.3,2.3-0.6,3.5-0.7l2.4-0.3l-1.8,1.6c-4.9,4.3-9.5,7.6-14.1,9.9c-0.3,0.2-0.7,0.3-1,0.5
					c4.8-1.7,10.1-4.8,16.1-9.4l2.3-1.8l-1.2,2.6c-0.2,0.5-0.5,1-0.8,1.5c-0.8,1.3-1.6,1.9-2.5,2.6c-0.6,0.4-1.1,0.9-1.8,1.6
					c-1.1,1.2-1.4,1.9-1.7,2.7c-0.3,0.8-0.6,1.7-1.7,2.8c-2.6,2.8-5.1,3.5-6.8,3.6c-0.7,0-1.3,0-2-0.1c-0.9-0.1-2.1-0.2-4.2-0.2
					l-0.4,0c-0.4,0-0.8,0-1.2,0c-2.1,0.2-3.4,0.7-4.8,1.3c-0.8,0.4-1.7,0.7-2.7,1c-1,0.3-2,0.4-3,0.4c-2.5,0-5.2-0.7-8.1-2.2
					l-2.4-1.2l2.7-0.2C20.7,323.5,23.3,322.5,24.9,320.6z M27.4,325.5c0.9-0.2,1.7-0.6,2.5-0.9c1.4-0.6,2.9-1.3,5.3-1.5
					c0.3,0,0.6,0,0.9,0c0.1,0,0.3,0,0.4,0l0.4,0c2.2,0,3.4,0.1,4.3,0.2c0.7,0.1,1.2,0.1,1.8,0.1c1.4-0.1,3.5-0.7,5.8-3.1
					c0.9-0.9,1.1-1.6,1.4-2.3c0.3-0.9,0.7-1.8,2-3.2c0.2-0.2,0.4-0.4,0.6-0.6c-6.8,4.5-12.6,6.9-18.2,7.3l0,0
					c-0.6,0-1.2-0.5-1.2-1.1c0-0.7,0.4-1.2,1-1.3c2.1-0.3,4.4-1,7.1-2.3c3.8-1.9,7.7-4.5,11.7-7.9c-0.2,0.1-0.5,0.1-0.7,0.2
					c-2,0.5-3.1,1.2-4.1,1.7c-1.1,0.6-2.2,1.2-4.1,1.4c-1.6,0.2-2.8-0.1-3.7-0.2c-1.1-0.2-1.8-0.4-2.9,0.1c-0.7,0.3-1,0.6-1.4,1
					c-0.5,0.5-1,1.1-2.3,1.9c-1.3,0.8-2.2,1.1-2.9,1.3c-0.7,0.2-1.3,0.4-2,1c-1,0.8-1.4,1.5-1.8,2.3c-0.3,0.6-0.6,1.2-1.2,1.9
					c-1.4,1.7-3.5,2.8-6.2,3.3C22.6,325.9,25.1,326.1,27.4,325.5z"/>
				<path class="st1" d="M50.1,291.1c-0.4,1.5-0.8,2.7-1.7,4c-1,1.4-2.1,2.1-2.7,2.5c-2.9,1.9-6,2.3-8,2.3c-0.6,0-1.1,0-1.4-0.1
					c-2.3-0.2-4.6-1-6.6-2.2c-0.3-0.2-0.4-0.4-0.5-0.7c-0.1-0.3,0-0.6,0.1-0.8c0.8-1.3,3-4.5,7.4-5.2c2-0.3,3.9,0,5.2,0.4
					c-0.1-1.7,0-3.9,0.9-6.2c1.3-3.3,3.5-5.3,5.1-6.4c0.3-0.2,0.7-0.3,1.1-0.1c0.4,0.1,0.7,0.4,0.9,0.8c1,2.6,1.3,5.2,1.1,7.6
					C50.8,288.7,50.4,290.2,50.1,291.1z M48.5,280c-1.4,1-3.3,2.8-4.4,5.6c-0.9,2.5-0.9,4.8-0.7,6.3c0,0.3-0.1,0.7-0.3,0.9
					c-0.3,0.2-0.6,0.3-0.9,0.2c-1.2-0.4-3.1-0.9-5.2-0.5c-3.4,0.6-5.3,2.9-6.2,4.2c1.8,1,3.8,1.6,5.7,1.8c1.1,0.1,5,0.3,8.4-2
					c0.5-0.3,1.5-1,2.3-2.2c0.7-1,1-2,1.5-3.6c0.3-1,0.7-2.3,0.8-3.9C49.7,284.7,49.3,282.3,48.5,280z"/>
				<path class="st1" d="M39.2,281.8c0.6,1.4,1.2,2.9,1.6,4.3c0.1,0.5,0,0.9-0.3,1.3c-0.3,0.3-0.6,0.4-1,0.4c-0.1,0-0.2,0-0.3,0
					c-1-0.2-2-0.5-2.9-0.8c-11.8-4.2-17.3-17.1-19.5-24.5c-0.2-0.5,0-1.1,0.4-1.4c0.4-0.3,1-0.4,1.5-0.1
					C25.5,264.5,34.4,271.1,39.2,281.8z M18.4,262.3c2.2,7.1,7.5,19.3,18.5,23.3c0.8,0.3,1.7,0.5,2.5,0.7c-0.4-1.4-0.9-2.7-1.5-4
					C33.3,272.1,24.8,265.8,18.4,262.3z"/>
				<path class="st1" d="M45.6,278.6c-0.2,0.3-0.6,0.5-0.9,0.5c-0.1,0-0.2,0-0.3,0c-0.5-0.1-0.8-0.5-0.8-1c-0.4-2.9-0.9-5.7-1.5-8.5
					c-0.1-0.5-0.2-1.3-0.3-2.2c-0.2-1.9-0.4-4.5-1.2-7.4c0-0.1-1-3.3-0.1-6.2c0.1-0.4,0.4-1.4,1.3-1.6c0.8-0.2,1.4,0.4,2,1
					c2.8,2.8,3.2,3.3,3.6,4c0.2,0.3,0.5,0.9,0.8,1.5c0.1,0.3,0.3,0.6,0.4,0.9c0.1,0.2,0.2,0.4,0.2,0.6c0.6,1.7,1,3.5,1,5.3
					c0,1.1-0.1,2.3-0.3,3.4C48.9,273.3,47.1,276.6,45.6,278.6z M47.5,260.9c-0.1-0.2-0.1-0.4-0.2-0.6c-0.1-0.3-0.3-0.6-0.4-0.9
					c-0.3-0.6-0.6-1.1-0.7-1.4c-0.3-0.6-0.7-1-3.4-3.7c-0.2-0.2-0.6-0.6-0.6-0.7c0,0-0.1,0.1-0.3,0.6c-0.7,2.4,0.1,5.3,0.1,5.3
					c0.9,3,1.1,5.7,1.3,7.6c0.1,0.9,0.1,1.6,0.2,2c0.6,2.5,1,5.2,1.4,7.8c1.3-1.9,2.7-4.7,3.2-8.3c0.2-1,0.2-2.1,0.2-3.1
					C48.4,264,48.1,262.4,47.5,260.9z"/>
				<path class="st1" d="M2.3,287.6c2.5-1.8,5.2-2.7,8-2.8c2.5,0,4.3,0.6,7.3,1.7c1,0.4,2.1,0.8,3.4,1.2c3,1,6.1,2,9.2,2.8h0
					c0.5,0.1,0.8,0.5,0.9,1c0.1,0.5-0.1,0.9-0.5,1.2c-2.2,1.4-5.8,3.2-10.4,3.4c-0.3,0-0.7,0-1,0c-0.9,0-1.8-0.1-2.6-0.2
					c-1.9-0.2-3.9-0.8-5.7-1.8c-0.2-0.1-0.4-0.2-0.7-0.4c-1.1-0.6-1.9-1.2-2.4-1.5l-0.2-0.1c-1.4-0.9-3-1.7-4.9-2.4
					c-0.5-0.2-0.8-0.6-0.9-1.1C1.7,288.3,1.9,287.9,2.3,287.6z M8.3,291.1l0.2,0.1c0.5,0.3,1.2,0.8,2.3,1.4c0.2,0.1,0.4,0.2,0.6,0.3
					c1.7,0.9,3.4,1.4,5.2,1.6c1.1,0.1,2.3,0.2,3.4,0.1c4-0.2,7.1-1.6,9.2-2.9c-3-0.8-6-1.7-8.9-2.7c-1.3-0.5-2.5-0.9-3.4-1.3
					c-2.9-1.1-4.5-1.7-6.7-1.6c-2.4,0.1-4.7,0.8-6.9,2.3C5.2,289.3,6.9,290.1,8.3,291.1z"/>
				<path class="st1" d="M41.8,282.3c-0.1,0-0.2,0-0.3,0c-0.4,0-0.7-0.2-0.9-0.5c-0.7-1.1-1.3-2.3-2-3.4c-1.9-3.2-3.8-6.6-5.1-8.1
					c-0.4-0.5-0.9-1-1.3-1.5c-1.9-2.1-3.4-3.8-4.2-6.5c-0.7-2.1-0.9-4.5-0.5-6.9c0.1-0.5,0.4-1,0.9-1.2c0.5-0.2,1-0.2,1.5,0.1
					c2.5,1.7,4.7,3.7,6.5,6.1c5.9,7.8,6.1,18.7,6.1,20.9C42.5,281.8,42.2,282.2,41.8,282.3z M35.3,261.3c-1.7-2.2-3.8-4.2-6.3-5.7
					c-0.3,2.2-0.1,4.3,0.5,6.2c0.8,2.4,2.1,3.9,4,6c0.4,0.5,0.8,0.9,1.3,1.5c1.4,1.6,3.2,4.9,5.2,8.3c0.4,0.7,0.8,1.4,1.2,2
					C40.9,276,40,267.5,35.3,261.3z"/>
				<path class="st1" d="M22.8,278.7c0.7,0.9,1.4,1.9,2.6,3.2c1.8,1.9,4.5,3.6,6.2,4.7c1.5,0.9,1.9,1.2,2.1,1.6l0.1,0.2
					c0,0.3-0.1,0.6-0.3,0.8c-0.2,0.2-0.5,0.3-0.9,0.3c-0.4,0-0.9-0.1-1.4-0.2c-0.4-0.1-0.7-0.1-1-0.2c-5.3-0.4-10.4-2.3-15.1-5.7
					c-1.7-1.3-3.4-2.7-5-4.3c-1.3-1.3-2.5-2.6-3.6-4c-0.2-0.3-0.3-0.7-0.2-1.1c0.1-0.4,0.5-0.6,0.9-0.7c5.6-0.8,9.9,0,12.9,2.3
					C21.3,276.7,22,277.6,22.8,278.7z M19.2,276.9c-2-1.6-4.6-2.3-8-2.3c-1,0-2.1,0.1-3.2,0.2c1,1.2,2,2.3,3.1,3.4
					c1.5,1.5,3.1,2.9,4.8,4.1c4.5,3.3,9.3,5.1,14.3,5.5c0.2,0,0.3,0,0.5,0.1c-1.8-1.1-4.6-2.9-6.5-4.9c-1.3-1.4-2-2.4-2.7-3.4
					C20.8,278.5,20.2,277.7,19.2,276.9z"/>
				<path class="st1" d="M157.7,310.4c4.7-0.3,9.4,1.6,12.2,5c6.3,7,4.8,17.8,0.5,25.3c-0.2,0.4-0.6,0.6-1.1,0.5c0,0,0,0.1,0,0.1
					l-0.1,0.3l-0.3,0.2c-0.3,0.2-0.6,0.1-0.6,0.1c-0.1,0-0.2,0-0.3,0c-0.2,0.2-0.6,0.3-0.9,0.2l0,0.1l-0.6,0.4l-0.3,0
					c-3.6-0.2-7-1.1-9.9-2.6c-5-2.3-8.8-6.7-10.3-11.7c-1.2-4.3-0.6-8.7,1.8-12.5C150,312.6,153.6,310.6,157.7,310.4z M169.9,335
					c0.4-4-0.2-8.3-2-11.8c-0.6-1.2-1.3-2.6-2.4-3.8c-0.4-0.5-1.1-1.2-1.8-1.6c-0.4-0.3-0.9-0.4-1.2-0.4c0,0-0.1,0-0.1,0
					c0,0,0,0.1,0.2,0.3c0.6,0.8,1.2,1.6,1.9,2.4c0.3,0.4,0.7,0.8,1,1.2C168.8,325.4,169.9,330.4,169.9,335z M147.6,327.9
					c1.3,4.6,4.9,8.6,9.5,10.8c1.7,0.9,3.6,1.5,5.6,2c-0.9-0.5-2-1-3-1.7c-6.1-3.9-9.6-10.3-9.1-16.7c0.1-0.8,0.3-1.4,0.4-1.5
					c0.5-0.7,0.9-1,1.5-1.1c0,0,0.1,0,0.1,0c0.3,0,0.7,0.1,1,0.5c0.9,0.9,1.1,2.4,1.2,3.7c0,0.4,0.1,0.8,0.2,1.2
					c0.9,4.4,3.4,8.7,7,12.1c0.3,0.2,2.1,1.5,3.7,2.5c-0.3-0.4-0.6-0.9-0.8-1.3c-0.5-0.8-1-1.6-1.6-2.4l-0.5-0.8
					c-2.7-4-5.3-7.8-6.2-12.8c0-0.1-0.1-0.3-0.1-0.5c-0.1-0.6-0.3-1.3-0.2-1.9c0.1-0.6,0.6-1,1.1-1c0.6-0.1,1,0.4,1.1,0.6
					c3.3,3.7,7.1,8.8,8.1,14.6l0.1,0.5c0.5,3.3,1,4.8,1.4,5.5c0.8-5.3,0.6-12.4-3.7-17.7c-0.3-0.4-0.6-0.8-1-1.2
					c-0.7-0.8-1.4-1.6-2-2.6c-0.2-0.2-0.6-0.9-0.3-1.7c0.2-0.4,0.5-0.7,0.9-0.9c1-0.3,2.3,0.4,2.5,0.5c0.9,0.5,1.7,1.3,2.2,1.9
					c1.1,1.3,1.9,2.8,2.6,4.1c1.9,3.8,2.6,8.4,2.1,12.7c2.2-6.4,2.2-13.7-2.5-18.9l0,0c-2.5-3-6.7-4.7-11-4.5
					c-3.7,0.2-6.8,1.9-8.6,4.7C147,320,146.4,324,147.6,327.9z M160.7,337.9c-3.7-3.5-6.2-8-7.2-12.6c-0.1-0.4-0.1-0.8-0.2-1.3
					c-0.1-1.1-0.3-2.3-0.8-2.9c0,0-0.1,0.1-0.3,0.3c0,0-0.2,0.4-0.2,1c-0.5,5.8,2.7,11.7,8.4,15.3
					C160.5,337.8,160.6,337.9,160.7,337.9z M165.6,336.8c-0.1-0.6-0.3-1.3-0.4-2.1l-0.1-0.4c-0.9-5.3-4.4-10-7.5-13.5
					c0,0.2,0.1,0.5,0.1,0.7c0,0.2,0.1,0.4,0.1,0.5c0.8,4.7,3.3,8.4,6,12.2l0.5,0.8C164.9,335.6,165.3,336.2,165.6,336.8z"/>
				<path class="st1" d="M154.5,305.3c0.2,0,0.4,0.1,0.6,0.1c1.3,0.4,2.5,1.1,3.6,2.2c0.3,0.3,0.4,0.6,0.4,1c0,0.2-0.1,0.6-0.4,0.9
					c-0.2,0.2-0.4,0.3-0.6,0.3c-0.6,0.2-1.2,0.2-1.7,0.2c-0.4,0-0.7,0-1,0.1c-1,0.2-2.1,0.7-3.2,1.5c-0.1,0.1-0.3,0.2-0.5,0.4
					c-1.1,1-2,1.7-2.8,1.7c-0.1,0-0.2,0-0.3,0c-0.2-0.1-0.6-0.2-0.8-0.8c-0.2-0.7,0-1.6,0.2-2.5c0.1-0.5,0.4-1.6,1.3-2.8
					C150.5,305.9,152.6,304.9,154.5,305.3z M150.5,310.9c0.3-0.2,0.5-0.4,0.6-0.5v0c1.3-0.9,2.5-1.5,3.8-1.8c0.4-0.1,0.7-0.1,1-0.1
					c0.1,0,0.2,0,0.3,0c0.4,0,0.7,0,1-0.1c-0.8-0.8-1.7-1.3-2.7-1.6c-0.2,0-0.3-0.1-0.5-0.1c-1-0.2-2.7,0.2-3.9,1.8
					c-0.7,0.9-0.9,1.8-1,2.3c-0.1,0.3-0.2,1-0.3,1.4C149.5,311.9,150.2,311.2,150.5,310.9z"/>
				<path class="st1" d="M104.4,361.2c-2.4-1.2-8.2-4.7-10.4-11.7c-1.1-3.8-0.9-7.2-0.4-9.5c-2.8,0.4-7.1,0.6-11.7-0.9
					c-5.8-1.8-9.7-5.4-12-8c-0.5-0.6-0.2-1.6,0.3-2.4c1-1.4,3-1.1,5.4-0.7c2,0.3,4.6,0.7,7.5,0.4c1.6-0.2,2.6-0.5,3.4-0.8
					c1.1-0.4,2.1-0.7,4-0.5c3.6,0.3,6.3,2,7.3,2.6c2,1.2,3.6,2.7,4.8,4.3c1.7,2.3,1.9,3.9,2.2,7.5c0.2,1.9,0.4,4.3,1,7.6
					c0.2,1,0.3,1.9,0.5,2.8c0.8,4.7,1.4,7.8-0.6,9c-0.3,0.2-0.7,0.4-1.1,0.4C104.7,361.3,104.5,361.2,104.4,361.2L104.4,361.2z
					 M95.4,349c2,6.4,7.1,9.6,9.4,10.8c0.1,0,0.2-0.1,0.3-0.2c1.1-0.7,0.6-3.7-0.1-7.5c-0.2-0.9-0.3-1.8-0.5-2.8
					c-0.5-3.4-0.8-5.9-1-7.7c-0.3-3.5-0.5-4.8-2-6.8c-1.1-1.5-2.6-2.8-4.4-3.9c-0.9-0.6-3.4-2.1-6.7-2.4c-0.3,0-0.6,0-0.9,0
					c-1,0-1.7,0.2-2.5,0.5c-0.9,0.3-1.9,0.6-3.7,0.8c-3.2,0.3-5.8-0.1-7.9-0.5c-2.2-0.4-3.5-0.5-4,0.1c-0.2,0.3-0.3,0.6-0.3,0.7
					c2.1,2.5,5.8,5.7,11.2,7.5c4.6,1.5,8.8,1.2,11.5,0.8c0.4-0.1,0.8,0.1,1.1,0.4"/>
				<path class="st1" d="M81.3,346.2c2.2-1,4.5-1.8,6.8-2.6c0.6-0.2,1.2-0.1,1.7,0.4c0.4,0.4,0.7,0.9,0.6,1.5
					c-0.2,1.4-0.5,2.9-0.9,4.3c-5.1,17.3-25.4,25.8-37,29.3c-0.2,0.1-0.4,0.1-0.5,0.1c-0.5,0-1.1-0.2-1.4-0.7
					c-0.4-0.5-0.5-1.2-0.2-1.7C55.2,366.9,64.5,353.6,81.3,346.2z M52.1,377.6c11.4-3.4,31.2-11.7,36.1-28.3c0.4-1.3,0.7-2.7,0.9-4
					c0-0.1-0.1-0.1-0.1-0.2c-0.1-0.1-0.2-0.1-0.3-0.1c0,0-0.1,0-0.1,0c-2.3,0.7-4.5,1.5-6.7,2.5c-16.4,7.3-25.5,20.2-30.2,30
					C51.7,377.6,51.9,377.7,52.1,377.6z"/>
				<path class="st1" d="M33.8,339.6c2.8-0.8,5.3-1.8,7.4-3l0.3-0.2c0.8-0.4,1.9-1.1,3.5-1.9c0.3-0.2,0.7-0.3,1-0.4
					c2.7-1.2,5.6-1.8,8.5-2.1c1.9-0.1,3.7-0.1,5.6,0c5.6,0.4,11.2,2.1,16.2,4.9c0.5,0.3,0.8,0.8,0.7,1.4c-0.1,0.6-0.5,1-1.1,1.1
					c-4.8,0.9-9.5,2-14.1,3.3c-2,0.6-3.7,1.1-5.2,1.5c-4.2,1.2-6.6,2-9.8,2c-0.4,0-0.7,0-1.1,0c-4.2-0.2-8.4-1.6-12.4-4
					c-0.5-0.3-0.8-0.9-0.7-1.4C32.8,340.2,33.2,339.7,33.8,339.6z M45.9,344.7L45.9,344.7c3.5,0.2,5.9-0.6,10.4-1.9
					c1.5-0.4,3.2-0.9,5.2-1.5c4.5-1.2,9.2-2.3,13.9-3.3c-4.8-2.6-10.1-4.2-15.4-4.6c-1.8-0.1-3.6-0.1-5.4,0c-2.8,0.2-5.5,0.9-8.1,2
					c-0.3,0.1-0.6,0.3-0.9,0.4c-1.6,0.7-2.7,1.4-3.4,1.8l-0.3,0.2c-2.2,1.3-4.8,2.3-7.8,3.1C38.1,343.3,42,344.5,45.9,344.7z"/>
				<path class="st1" d="M91.4,372c1.4-4.5,2.5-9.1,3.5-13.8c0.1-0.6,0.5-1,1.1-1.1c0.6-0.2,1.2,0,1.6,0.5c3.7,4.3,6.1,9.4,6.8,14.7
					c0.2,1.7,0.3,3.5,0.2,5.3c-0.1,2.8-0.9,5.7-2.2,8.4c-0.2,0.3-0.3,0.7-0.5,1c-0.9,1.7-1.7,2.9-2.2,3.7l-0.2,0.3
					c-1.4,2.2-2.5,4.7-3.4,7.5c-0.2,0.5-0.6,1-1.2,1.1c-0.1,0-0.3,0-0.4,0c-0.5,0-0.9-0.2-1.2-0.5c-3.2-3.5-5.1-7.2-5.6-11.2
					c-0.4-3.5,0.5-6.2,2-10.7C90.3,375.6,90.8,374,91.4,372z M89.3,387.6c0.4,3.7,2.1,7.2,5.2,10.4c0,0,0.1,0,0.2,0
					c0.1,0,0.2-0.1,0.2-0.1c0.9-2.9,2.1-5.6,3.5-7.8l0.2-0.3c0.5-0.8,1.2-1.9,2.1-3.5c0.2-0.3,0.3-0.6,0.5-1
					c1.2-2.6,1.9-5.2,2.1-7.9c0.1-1.7,0-3.4-0.2-5c-0.9-6.3-4-11.1-6.5-13.9c0,0,0,0,0,0c-0.1,0-0.1,0-0.1,0
					c-1,4.7-2.1,9.4-3.5,13.9c-0.6,2-1.2,3.7-1.6,5.1C89.7,382,88.9,384.4,89.3,387.6z"/>
				<path class="st1" d="M47.4,351.4c11.4-8.7,28.5-9.7,31.9-9.8c0.5,0,1.1,0.3,1.2,0.9c0.1,0.5-0.1,1-0.5,1.3c-1.7,1-3.4,2-5.2,3
					c-4.9,2.8-9.9,5.7-12.2,7.7c-0.8,0.7-1.5,1.3-2.1,1.9c-3.1,2.8-5.6,4.9-9.6,6.3c-2.5,0.8-5.1,1.3-8,1.3c-0.9,0-1.7,0-2.6-0.1
					c-0.7-0.1-1.4-0.5-1.7-1.1c-0.3-0.6-0.2-1.2,0.1-1.7C41,357.3,43.9,354,47.4,351.4z M39.9,362c0.1,0.1,0.2,0.3,0.5,0.3
					c3.6,0.3,7,0,10-1.1c3.8-1.3,6-3.3,9.1-6c0.7-0.6,1.4-1.2,2.2-1.9l0,0c2.3-2,7.2-4.8,12.4-7.8c1.4-0.8,2.8-1.6,4.2-2.4
					c-4.9,0.2-19.8,1.6-30,9.4c-3.3,2.6-6.2,5.7-8.4,9.2C39.9,361.7,39.8,361.8,39.9,362z"/>
				<path class="st1" d="M78.7,368.5c1.2-0.9,2.4-1.8,3.5-2.8c2.7-2.5,4.6-5.7,6.4-8.7l0.3-0.5c0.6-0.9,1.3-2.1,2.2-3.2l0.8-1
					l0.4,1.1c0.2,0.6,0.3,1.2,0.3,1.8c0.2,6.8-1.6,13.9-5.2,20.3c-3.3,6-8,11.4-14.1,16.3c-0.3,0.3-0.7,0.4-1,0.4
					c-0.3,0-0.5-0.1-0.7-0.2c-0.2-0.2-0.3-0.5-0.4-0.6c-1.7-5.5-1.5-11.4,0.6-15.8C73.5,372.5,76.1,370.5,78.7,368.5z M72.6,390.6
					c5.9-4.7,10.4-10,13.6-15.7c3.4-6.2,5.1-12.8,5-19.3c-0.4,0.5-0.7,1.1-1.1,1.7l-0.3,0.5c-1.9,3.1-3.9,6.4-6.7,9
					c-1.1,1-2.4,2-3.6,2.9c-2.6,2-5,3.8-6.3,6.5C71.4,380.1,71.1,385.5,72.6,390.6z"/>
				<path class="st2" d="M118.2,348.3c-0.1-4,2.8-4.2,4.6-9.6c1.8-5.8-0.9-7.8,0.5-16c0.2-1.5,0.5-3.4,1.1-4.7
					c2.9,6.9,4.5,14.3,4.9,21.8c0.5,8.6-0.4,17.3-2.7,25.6c-0.1,0.5,0.5,0.7,0.7,0.2c5.6-15.8,6.2-33.3,0.4-49.1
					c1.6,0.9,3.1,3.1,3.8,4.2c3.1,4.8,1.4,6.4,3.8,10.5c2,3.5,3.8,3.4,5.1,7.3c0.3,1,0.9,3,0.7,5.7c-0.5,4.4-2.7,5-3.6,9.1
					c-0.9,4.2,1,4.7-0.2,8.4c-1.4,4.1-3.7,3.6-5.3,7.9c-1.1,2.8-0.5,3.9-2.1,7.5c-0.9,1.9-1.8,3.2-2.4,4c-3.1,4.2-6.5,6.6-8.8,8
					c2.8-4.6,3.4-8.2,3.4-10.6c-0.1-5.3-2.9-6.3-2.9-11.3c-0.1-4.5,2.2-5.2,1.8-10.2C120.4,352.3,118.2,351.8,118.2,348.3z"/>
				<path class="st2" d="M146,276.9c-0.6,0.2-0.2,1,0.3,0.9c10.9-2.2,24.1,0.7,33.3,6.7c-1.9,0.1-4.2,0.1-6.6,0.1
					c-6.6-0.1-7.8-1.9-12.3-0.8c-4.6,1.3-5,3.8-8.3,3.9c-2.2,0.1-2.3-1.1-5.7-1.3c-3.6-0.2-4,1-6.6,0.7c-2.9-0.3-3.9-1.9-6.7-2.7
					c-2.4-0.7-6.5-0.6-9.9,3.5c0-7.2,3.6-10.1,6.4-11.2c3.4-1.4,6.3-0.8,10.9-3.1c0.6-0.3,1.2-0.7,2-1.1c5-2.6,5.9-3.5,8.1-4.3
					c5.2-1.7,11,0.6,12.2,1.1c4.7,2,3.6,3.6,8.5,6.1c3.4,1.8,5.6,1.9,8.2,4.3c0.5,0.5,0.9,0.9,1.3,1.4c-3.7-1.9-7.7-3.3-11.8-4.3
					C161.3,274.9,153,274.9,146,276.9z"/>
				<path class="st2" d="M72.1,281.9c-0.5-0.5-1.2,0.1-0.8,0.6c2.6,3,5.6,5.6,9,8c7.2,5,16.3,8.5,26,9.4c-1.1,0.7-2.7,1.5-4.7,1.6
					c-2.6,0.1-3.4-0.8-7.2-0.9c-1.1,0-2.2-0.1-3.5,0c-1.5,0.1-2.4,0.3-4.1,0.2c-0.4,0-1-0.1-1.7-0.3c-0.3-0.1-1.6-0.4-2.8-1.3
					c-1.4-1-1-1.4-2.2-2.5c-0.5-0.4-1.3-1.3-2.8-2c-1.9-0.9-5.1-1.8-5.7-2.4c-0.2-0.2-0.4-0.4-0.4-0.4c-0.2-0.2-0.3-0.3-0.5-0.5
					c-2.2-2.6-1.5-3.5-3.8-6.8c-1.7-2.5-2.4-2.4-3.5-4.5c-1.1-2.3-0.6-3.1-1.3-5.8c-0.5-1.8-1.2-3.3-1.6-4.2
					c0.8,0.7,2.2,1.7,3.9,2.4c2.5,1.1,3.6,0.9,5.5,1.7c1.9,0.8,2.2,1.5,4.6,3.1c4.4,2.7,6.1,2,10.5,3.8c0.8,0.3,1.3,0.5,1.8,0.8
					c1.5,0.9,1.3,1.7,2.8,2.6c0.9,0.5,1.8,0.7,2.7,0.9c1.8,0.3,2.4,0,3.9,0.2c0,0,1.9,0.2,3.6,1c2.2,1,1.6,2.1,3.5,4.1
					c2.5,2.5,5.3,2,6.3,3.8c0.6,1.1,0.1,2.3-0.5,3.1C94.3,297.3,80.8,291,72.1,281.9z"/>
				<path class="st1" d="M121.7,313c-6.6,4.2-12.8,8.9-18.6,14.1c-0.9,0.8-2.2-0.4-1.4-1.4c4.2-4.9,9-9.5,14.3-13.6
					c-2.4,0.7-4.8,1.3-7.2,1.8c-7,1.3-14.2,1.7-21.2,0.9c-7.1-0.7-14-2.5-20.5-5.2c-2-0.8-3.9-1.7-5.8-2.7c-1-0.5-2-1.1-3-1.6
					c-3.3-1.9-6.4-4-9.4-6.4c-0.4-0.3-0.5-0.9-0.1-1.3c0.3-0.4,0.9-0.4,1.2-0.2c3.2,2.3,6.5,4.4,10,6.2c1,0.5,2,1,3.1,1.5
					c1.6,0.8,3.3,1.5,5,2.1c6.4,2.5,13.1,4.1,19.9,4.7c6.8,0.6,13.7,0.3,20.4-1c6.2-1.2,12.2-3.1,17.8-5.8
					c18.1-11.2,39.7-17.3,60.1-15.1c0.5,0.1,1,0.1,1.5,0.2c0.4,0.1,0.7,0.3,1,0.6c0.6,0.8,0.3,2.3-1,2.4c-7.7,0.9-15.4,1.4-23,2.9
					C149.3,299,134.8,304.7,121.7,313z"/>
			</g>
			<path class="st2" d="M73.8,235.2c2.6,0,2.8,0.7,6.1,1.2c4.3,0.7,4.9-0.5,8.5,0.4c0.3,0.1,0.5,0.1,0.8,0.2c0,0,0.3,0.1,0.5,0.2
				c0.9,0.3,3.4,3,5.2,4.4c1.4,1.1,2.7,1.5,3.4,1.7c1.7,0.6,1.9,0,3.6,0.9c1.5,0.8,2.5,1.9,2.7,2.1c0.5,0.6,0.9,1.1,1.1,1.5
				c1,1.6,1.2,2.5,1.9,4.1c0.6,1.4,1.2,2.4,1.8,3.4c2,3.6,3.3,4,4.4,6.6c0.9,2,1,3.9,0.8,5.4c-5.7-9-13.6-16.1-22.1-20.6
				c-4-2.1-8.1-3.8-12.3-4.8c-0.7-0.2-0.9,0.9-0.2,1.1c13.2,4,26.1,14,33.5,28.1c-0.5,1-1.4,2.1-2.8,2c-2.3,0-3.2-3-6.9-4.3
				c-2.8-0.9-3.6,0.3-5.7-1.3c-1.6-1.3-2.8-3-2.8-3c-0.9-1.4-0.9-2.1-2.1-3.7c-0.6-0.8-1.2-1.6-2.2-2.2c-1.6-1-2.2-0.4-3.9-1.4
				c-0.6-0.4-1-0.7-1.7-1.4c-4-3.4-4.1-5.4-8.9-8.4c-2.7-1.5-3.6-1.5-5.3-2.9c-1.8-1.5-2.1-2.6-4.4-4.5c-1.6-1.3-3.3-2.1-4.3-2.6
				c1.1,0,2.9-0.1,4.9-0.5C70.5,236.2,71,235.3,73.8,235.2z"/>
		</g>
		<g>
			<path class="st0" d="M459.3,337.6c-3.1,1-5.9,2.7-8.5,4.5c-0.4,0.3-0.9,0.6-1.4,1c0.2-0.4,0.5-0.9,0.6-1.3
				c4.6-9.6,14.2-15.8,24-19.2l0.5-0.2c0,0,0,0,0,0l0,0c-0.7,2.9-1.7,5.9-3.4,8.4c-1.7,2.6-4.2,4.6-7.2,5.3
				C462.4,336.7,460.8,337,459.3,337.6z M468.5,326.1c0.2-0.1,0-0.4-0.2-0.3c-3.2,1.4-6.3,3.3-9,5.5c-1.4,1.1-2.6,2.3-3.8,3.6
				c-1.1,1.3-2.2,2.6-2.8,4.2c0,0.1,0.1,0.1,0.1,0.1c1-1.4,2-2.8,3.2-4.1c1.1-1.2,2.4-2.3,3.7-3.4
				C462.5,329.5,465.5,327.9,468.5,326.1z"/>
			<path class="st0" d="M454.9,349.8c-3,0.4-6.1,0.5-9.1,0.3c0,0-0.1-0.1,0-0.1c2.2-2.7,4.5-5.4,7.4-7.4c8.5-5.9,19.3-7.2,29.4-6.6
				c0.4,0,0.4,0,0.5,0.3c0,0.1-0.1,0.1-0.1,0.1l-0.5,0.4c-2.6,1.8-5,3.8-7.6,5.4C468.7,346.1,462,348.8,454.9,349.8z M465.8,346
				c2.6-1,5.1-2.2,7.5-3.6c1.3-0.7,2.5-1.4,3.8-2.2c1.1-0.7,2.3-1.4,3.4-2.3c0.2-0.2,0-0.6-0.3-0.4c-1.2,0.7-2.4,1.5-3.5,2.2
				c-1.2,0.7-2.4,1.5-3.7,2.2c-2.4,1.3-4.8,2.7-7.2,3.9C465.5,345.9,465.6,346,465.8,346z M466.3,338.4c0.1,0,0.1-0.2,0-0.2
				c-1.7,0.3-3.4,0.7-5.1,1.3c-2.8,0.9-5.4,2.1-7.7,3.9c-2.1,1.5-4,3.3-5.5,5.4c-0.1,0.1,0.1,0.2,0.1,0.1c0.9-0.8,1.8-1.7,2.8-2.5
				c2.2-1.9,4.5-3.7,7.2-4.9C460.7,340.3,463.5,339.3,466.3,338.4z"/>
			<path class="st0" d="M452.8,354.7c0.3,0.1,0.7,0.1,1,0.2c4.1,1,8.4,1.6,12.6,1.4c0.6,0,1.3,0.1,1.9,0.1c2.7,0.2,5.3,0.9,7.4,2.4
				c1.6,1.1,3.1,2.6,4.1,4.3l0.3,0.4c0.1,0.2-0.1,0.3-0.2,0.3c-2.8-0.5-5.7-0.1-8.5,0.3C464.1,364.9,457.1,360.6,452.8,354.7
				C452.8,354.8,452.8,354.7,452.8,354.7z M460.5,360.8c3.9,3.1,9.2,2.9,13.9,2.4c0.2,0,0.2-0.4,0-0.4c-2.4,0.1-4.8,0.3-7.2,0.1
				c-2.3-0.2-4.6-0.9-6.5-2.2C460.5,360.6,460.4,360.7,460.5,360.8z"/>
			<path class="st0" d="M448.7,339.8c-0.5,0.8-0.9,1.8-1.3,2.6c-0.2-0.5-0.3-1.1-0.4-1.7c-0.8-5.2,0-10.6,2.6-15.2
				c1.4-2.6,3.6-4.8,6-6.6c2.2-1.5,4.4-3.4,6.1-5.5c0.3-0.4,0.3-0.4,0.5-0.4c0.1,0,0.1,0,0.1,0.1c0,0.1,0.1,0.4,0.1,0.4
				c0.8,3.2,0.8,6.9-0.8,9.8c-2.2,3.1-4.9,5.9-7.2,9C452.6,334.5,450.1,337.3,448.7,339.8z M452.4,324c0.8-1,1.7-1.8,2.5-2.7
				c0.2-0.2-0.1-0.7-0.4-0.5c-2.5,1.7-4.3,4.3-5.5,7c-0.6,1.4-1.1,2.9-1.4,4.4c-0.2,1-0.5,2.1-0.2,3.1c0,0.1,0.1,0.1,0.1,0
				c0.2-0.4,0.2-0.9,0.3-1.4c0.1-0.6,0.2-1.2,0.4-1.7c0.4-1.4,0.9-2.8,1.5-4.1C450.4,326.6,451.3,325.2,452.4,324z"/>
			<path class="st0" d="M455.3,353.6c-1.4-0.3-2.9-0.7-4.2-1.2c4.4-0.8,10.4-1.7,14-3c2-0.8,4.3-1.8,6.4-2.3c3.8-1,7.9-0.3,11.3,1.6
				c0.3,0.2,0.1,0.7-0.1,0.9l-0.1,0.1l-0.2,0.2c-5.4,3.8-11.8,5.4-18.3,5.1C461.2,354.5,458.2,354.1,455.3,353.6z M469.8,349.1
				c1.4-0.7,2.9-1.1,4.4-1.2c0.8-0.1,1.6,0,2.4,0c0.8,0.1,1.6,0.2,2.4,0.3c0.2,0,0.3-0.3,0.1-0.4c-1.4-0.6-3.2-0.7-4.7-0.6
				c-1.5,0.1-3,0.5-4.3,1.1c-1.4,0.7-2.7,1.4-4.2,1.9c-1.8,0.6-3.6,0.9-5.5,1.1c-0.1,0-0.1,0.2,0,0.2
				C463.7,351.5,466.8,350.5,469.8,349.1z"/>
			<path class="st0" d="M441.4,343.5c0.5-1.9,0.6-4.1,1.7-5.7c0.2-0.2,0.4-0.3,0.7-0.3c0.2,0,0.4,0.2,0.6,0.4
				c0.5,0.6,0.8,1.3,1.1,2.1c0.1,0.9,0.3,1.9,0.6,2.7c0.2,2.5-0.5,5-2,6.9l-0.1,0.2c-0.6,0.6-0.3,1.7,0.6,1.9
				c4.4,1.4,8.4,4.6,9.8,9.1c0,0-0.1,0.1-0.1,0.1c-0.2,0.2-0.3,0.2-0.5,0.1c-0.5-0.1-1-0.6-1.6-0.9c-1.1-0.8-2.3-1.7-3.6-2.2
				c-1.1-0.6-2.8-0.6-3.8-1.1c-2.1-1.1-3.9-3.2-4.6-5.5C439.6,348.5,441,346.1,441.4,343.5z M445.1,345.1c0.4-1,0.4-2.3,0.2-3.4
				c-0.1-0.6-0.2-1.1-0.4-1.6c-0.2-0.5-0.4-1.1-0.8-1.5c0,0-0.1,0-0.1,0.1c0.2,0.5,0.5,1,0.7,1.5c0.2,0.5,0.3,1,0.4,1.6
				c0.2,1.1-0.1,2.2-0.3,3.3C444.7,345.2,445,345.3,445.1,345.1z M445.7,356.3c-0.6-0.1-1.3-0.3-1.7-0.8c0-0.1-0.1,0-0.1,0.1
				c0.3,0.6,0.9,0.9,1.5,1c0.6,0.1,1.3,0.2,1.9,0.3c0.1,0,0.3-0.2,0.1-0.3C446.9,356.4,446.2,356.4,445.7,356.3z"/>
			<path class="st1" d="M438.5,351.5c-0.6-1.4,0-3.1,0.6-4.4c0.5-1.3,1-2.5,1.4-3.8c0.8-1.9,0.9-4.1,2.1-5.9c1-1,1.9-0.5,2.7,0.6
				c-0.2-4.5,0.8-9.2,3.1-13.1c1.9-3.5,5.1-6,8.4-8.2c1.8-1.3,3.2-2.8,4.7-4.3c0.6-0.4,1.6-0.2,1.8,0.6c0,0,0.1,0.4,0.1,0.4
				c0.7,2.7,0.7,5.6,0,8.2c-0.3,1.5-1.3,3-2.3,4.2c-1.4,1.8-2.8,3.6-4.2,5.4c2.8-2.4,6-4.4,9.2-6c2.5-1.3,5.1-2.3,7.7-3.2
				c0.3-0.1,0.3-0.1,0.7-0.2c0.6-0.1,1,0.5,0.9,1l0,0.1c0,0-0.1,0.3-0.1,0.3c-1.1,4.7-3.4,9.7-7.4,12.5c4.9-0.7,10-0.7,14.9-0.4
				c1.2-0.1,1.9,1.4,1,2.3c-2.3,2.6-5.2,4.5-8.1,6.3c-1.4,0.9-2.8,1.7-4.3,2.5c3.9-0.8,7.5-0.6,11.9,1.9c0.9,0.4,1,1.7,0.2,2.3
				l-0.1,0.1l-0.2,0.2c-1.1,0.8-2.3,1.5-3.5,2.2c-2.7,1.5-5.5,2.5-8.5,3c3.9,1,7.3,3.6,9.5,7c0,0,0.3,0.4,0.3,0.4
				c0.3,0.5,0,1.2-0.5,1.4c-0.2,0.1-0.5,0-0.7,0c-2.7-0.3-5.4,0.2-8.1,0.6c-6,0.8-12.1-1.6-16.7-5.7c0.1,0.3,0.2,0.7,0.3,1
				c0.2,0.7-0.6,1.3-1.2,1.5c-1.1,0.2-2-0.6-2.7-1c-1.2-0.7-2.3-1.3-3.6-1.6c-1.4-0.4-2.8-0.2-4.1-0.8
				C440.8,357.2,439.1,354.4,438.5,351.5z M461.6,323.3c1.6-3,1.6-6.6,0.8-9.8c0-0.1-0.1-0.4-0.1-0.4c0,0-0.1-0.1-0.1-0.1
				c-0.2,0-0.2,0-0.5,0.4c-1.7,2.1-3.9,3.9-6.1,5.5c-2.4,1.8-4.5,4-6,6.6c-2.5,4.6-3.3,10-2.6,15.2c0.1,0.6,0.2,1.2,0.4,1.7
				c0.5-0.8,0.9-1.8,1.3-2.6c1.4-2.5,3.9-5.3,5.6-7.5C456.7,329.3,459.4,326.4,461.6,323.3z M471,330.9c1.7-2.5,2.7-5.5,3.4-8.4l0,0
				c0,0,0-0.1,0,0l-0.5,0.2c-9.8,3.4-19.5,9.5-24,19.2c-0.2,0.4-0.4,0.8-0.6,1.3c0.5-0.4,1-0.7,1.4-1c2.6-1.8,5.5-3.5,8.5-4.5
				c1.5-0.5,3.1-0.9,4.6-1.3C466.8,335.5,469.3,333.5,471,330.9z M474.7,342.3c2.7-1.6,5.1-3.6,7.6-5.4l0.5-0.4
				c0.1,0,0.1-0.1,0.1-0.1c0-0.3-0.1-0.3-0.5-0.3c-10.1-0.7-20.9,0.7-29.4,6.6c-2.9,2-5.2,4.7-7.4,7.4c-0.1,0,0,0.2,0,0.1
				c3,0.2,6.1,0.1,9.1-0.3C462,348.8,468.7,346.1,474.7,342.3z M482.4,349.7l0.2-0.2l0.1-0.1c0.2-0.2,0.4-0.6,0.1-0.9
				c-3.4-1.9-7.5-2.6-11.3-1.6c-2.1,0.5-4.4,1.5-6.4,2.3c-3.6,1.3-9.6,2.2-14,3c1.4,0.5,2.8,0.9,4.2,1.2c2.9,0.5,5.8,0.9,8.7,1.3
				C470.6,355.1,477.1,353.5,482.4,349.7z M471.5,364.1c2.8-0.3,5.7-0.7,8.5-0.3c0.2,0,0.3-0.2,0.2-0.3l-0.3-0.4
				c-1.1-1.7-2.5-3.2-4.1-4.3c-2.2-1.6-4.8-2.3-7.4-2.4c-0.6,0-1.3-0.1-1.9-0.1c-4.2,0.2-8.5-0.4-12.6-1.4c-0.3-0.1-0.7-0.1-1-0.2
				c0,0,0,0,0,0C457.1,360.6,464.1,364.9,471.5,364.1z M444.5,356.7c1,0.5,2.7,0.5,3.8,1.1c1.4,0.6,2.5,1.4,3.6,2.2
				c0.5,0.4,1.1,0.8,1.6,0.9c0.2,0,0.3,0,0.5-0.1c0,0,0.1-0.1,0.1-0.1c-1.4-4.5-5.4-7.7-9.8-9.1c-0.8-0.2-1.1-1.3-0.6-1.9l0.1-0.2
				c1.5-1.9,2.1-4.4,2-6.9c-0.3-0.8-0.5-1.9-0.6-2.7c-0.3-0.7-0.6-1.4-1.1-2.1c-0.2-0.2-0.4-0.4-0.6-0.4c-0.3,0-0.5,0.1-0.7,0.3
				c-1.1,1.6-1.1,3.8-1.7,5.7c-0.4,2.6-1.8,5-1.5,7.6C440.5,353.4,442.4,355.5,444.5,356.7z"/>
			<path class="st1" d="M447.8,333.8c-0.1,0.5-0.1,0.9-0.3,1.4c0,0.1-0.1,0.1-0.1,0c-0.2-1,0-2.1,0.2-3.1c0.3-1.5,0.7-3,1.4-4.4
				c1.2-2.7,3.1-5.3,5.5-7c0.3-0.2,0.6,0.3,0.4,0.5c-0.9,0.9-1.8,1.8-2.5,2.7c-1,1.3-1.9,2.6-2.6,4.1c-0.6,1.3-1.2,2.7-1.5,4.1
				C448.1,332.7,447.9,333.3,447.8,333.8z"/>
			<path class="st1" d="M452.8,339.1c0,0.1-0.2,0-0.1-0.1c0.7-1.6,1.7-2.9,2.8-4.2c1.1-1.3,2.4-2.5,3.8-3.6c2.8-2.2,5.8-4.1,9-5.5
				c0.2-0.1,0.3,0.2,0.2,0.3c-3,1.8-6,3.4-8.7,5.5c-1.3,1-2.6,2.1-3.7,3.4C454.8,336.3,453.8,337.7,452.8,339.1z"/>
			<path class="st1" d="M444.7,345c0.2-1.1,0.4-2.1,0.3-3.3c-0.1-0.5-0.2-1.1-0.4-1.6c-0.2-0.5-0.5-1-0.7-1.5c0-0.1,0.1-0.1,0.1-0.1
				c0.4,0.4,0.6,1,0.8,1.5c0.2,0.5,0.3,1.1,0.4,1.6c0.2,1.1,0.2,2.3-0.2,3.4C445,345.3,444.7,345.2,444.7,345z"/>
			<path class="st1" d="M448,348.9c-0.1,0.1-0.2,0-0.1-0.1c1.5-2.1,3.4-3.8,5.5-5.4c2.3-1.7,5-3,7.7-3.9c1.7-0.6,3.4-1,5.1-1.3
				c0.1,0,0.2,0.2,0,0.2c-2.8,0.8-5.6,1.8-8.3,3c-2.7,1.2-5,3-7.2,4.9C449.9,347.2,449,348,448,348.9z"/>
			<path class="st1" d="M465.7,345.8c2.4-1.2,4.8-2.6,7.2-3.9c1.2-0.7,2.5-1.4,3.7-2.2c1.2-0.7,2.3-1.5,3.5-2.2
				c0.3-0.1,0.5,0.2,0.3,0.4c-1,0.9-2.2,1.6-3.4,2.3c-1.2,0.8-2.5,1.5-3.8,2.2c-2.4,1.4-4.9,2.5-7.5,3.6
				C465.6,346,465.5,345.9,465.7,345.8z"/>
			<path class="st1" d="M460.4,351.4c1.8-0.2,3.7-0.5,5.5-1.1c1.5-0.5,2.8-1.2,4.2-1.9c1.4-0.7,2.8-1,4.3-1.1
				c1.5-0.1,3.3-0.1,4.7,0.6c0.2,0.1,0.1,0.4-0.1,0.4c-0.8,0-1.6-0.2-2.4-0.3c-0.8-0.1-1.6-0.1-2.4,0c-1.5,0.1-3,0.5-4.4,1.2
				c-3,1.4-6.1,2.4-9.4,2.5C460.3,351.6,460.3,351.4,460.4,351.4z"/>
			<path class="st1" d="M447.3,356.9c-0.6-0.1-1.3-0.2-1.9-0.3c-0.6-0.1-1.2-0.4-1.5-1c0-0.1,0.1-0.1,0.1-0.1
				c0.4,0.5,1.1,0.7,1.7,0.8c0.6,0.1,1.2,0,1.8,0.4C447.6,356.8,447.4,356.9,447.3,356.9z"/>
			<path class="st1" d="M474.3,362.7c0.2,0,0.3,0.4,0,0.4c-4.7,0.6-10,0.7-13.9-2.4c-0.1-0.1,0-0.2,0.1-0.2c1.9,1.3,4.3,1.9,6.5,2.2
				C469.5,363.1,471.9,362.8,474.3,362.7z"/>
		</g>
		<g>
			<path class="st0" d="M231.2,177c-2.5-1.2-4.9-2.4-7.3-3.8c-1.4-0.9-2.8-1.9-4.2-2.9c0.4,0.1,0.9,0.1,1.3,0.2
				c0.6,0.1,1.2,0.3,1.8,0.4c2.8,0.6,5.6,0.9,8.5,0.9c1.6,0.1,3.1,0.2,4.4,0.2c2.4-0.1,5-0.4,7.4-0.3c4.3,0.2,8.3,2.4,11.2,5.4
				c0.3,0.3,0.2,0.8-0.2,1c-6.1,2.1-13,2.2-19.2,0.2C233.6,178,232.4,177.5,231.2,177z M248.1,174.9c1.4,0.6,2.6,1.3,3.8,2.1
				c0.2,0.1,0.4-0.2,0.2-0.3c-2-2.2-5.4-3.1-8.2-3.5c-3.2-0.5-6.4-0.3-9.6,0c-0.2,0-0.2,0.4,0,0.4c3.1,0,6.3-0.2,9.4,0.2
				C245.2,174,246.7,174.4,248.1,174.9z"/>
			<path class="st0" d="M227.8,160.5c-1.1,0.3-2.3,0.8-3.6,1.2c-0.1,0-0.1,0-0.2,0.1c-1.6,0.6-3.2,1.3-4.6,1.9
				c0.5-0.6,1.1-1.1,1.6-1.7c7.2-9.3,19.1-13.3,30.5-14.2c0,0,0.1,0,0.1,0c-1.4,2.8-3.1,5.6-5.4,7.8c-2.3,2.2-5.3,3.7-8.6,3.8
				C234.5,159.4,231,159.5,227.8,160.5z M249.1,149.6c0.1-0.1,0-0.2-0.1-0.1c-1.5,1.8-3,3.6-4.8,5.2c-1.7,1.5-3.6,2.4-5.8,3
				c-0.1,0-0.1,0.3,0,0.3c2.1-0.3,4-1.4,5.6-2.7C246.1,153.6,247.6,151.7,249.1,149.6z"/>
			<path class="st0" d="M231.5,170.7c-4.2-0.5-9.1-1.4-12.5-1.9c-0.6-0.2-1.3-0.4-1.9-0.6c-0.4-0.1-0.8-0.1-0.5-0.5
				c1.9-1.6,3.9-2.9,6-4c0.4-0.2,0.7-0.3,0.9-0.4c1.1-0.5,2.3-0.9,3.4-1.3c9.4-2.8,20.2-1.3,29.4,1.8l1.3,0.5
				c0.5,0.1,0.5,0.5,0.2,0.6C249.6,168.7,240.5,170.9,231.5,170.7z M247.4,163.2c-1.5-0.4-3.1-0.7-4.7-0.9c-6.6-0.8-13.6,0-19.8,2.8
				c-0.1,0,0,0.2,0.1,0.2c4-1.3,8.1-2.2,12.3-2.5c4-0.2,8,0.2,11.9,0.9C247.6,163.8,247.7,163.3,247.4,163.2z"/>
			<path class="st0" d="M215.4,168C215.4,168.1,215.4,168.1,215.4,168C215.4,168.1,215.4,168.1,215.4,168
				C215.4,168.1,215.4,168.1,215.4,168z"/>
			<path class="st0" d="M221,160.4c-0.4,0.5-0.8,1-1.2,1.4c0,0,0,0,0-0.1c0-0.1,0-0.3,0-0.4c0-0.3,0-0.6,0.1-0.8
				c0-0.3,0.1-0.6,0.1-0.9c0.5-4.8,2-9.5,4.7-13.5c2.4-3.9,6.3-6.3,10.3-8.3c1.4-0.9,2.7-1.9,3.9-3c0,0,0.1,0,0.1,0
				c0.3,5.4-1.6,11-5.8,14.5c-2.3,2-4.6,4.1-6.8,6.3C224.3,156.9,222.6,158.6,221,160.4z M223.6,151.7c0.4-1.1,0.9-2.2,1.5-3.2
				c1.1-2.1,2.3-4.2,3.7-6.1c0,0,0-0.1-0.1-0.1c-1.4,2-3,3.8-4.2,6c-0.6,1.1-1.2,2.3-1.6,3.4c-0.4,1.1-0.9,2.2-0.9,3.4
				c0,0.2,0.4,0.3,0.5,0.1C223,154.1,223.2,152.9,223.6,151.7z"/>
			<path class="st0" d="M221.5,173.7c5,2.7,10.2,5,15.4,7.1c2.7,1.1,5,2.7,6.7,5c1.4,1.9,2.4,4,3,6.2c0.1,0.2-0.1,0.4-0.3,0.4
				c-0.1,0-0.3-0.1-0.4-0.1c-2.6-1.3-5.6-1.8-8.4-2.3c-7.8-1.8-13.5-8.6-16-15.9C221.6,174,221.5,173.9,221.5,173.7z M226.4,180.5
				c1.4,2.4,3.4,4.4,5.7,5.8c1.2,0.7,2.4,1.3,3.7,1.8c1.3,0.4,2.7,0.9,4.1,0.8c0.2,0,0.3-0.3,0-0.4c-1.3-0.4-2.6-0.5-3.9-1
				c-1.2-0.4-2.4-1-3.6-1.7c-2.3-1.4-4.4-3.3-6-5.5C226.5,180.4,226.4,180.4,226.4,180.5z"/>
			<path class="st0" d="M210.6,101c-1.1,3.5-1.7,7.2-2.5,10.8c-0.1-0.5-0.2-1.1-0.4-1.5c-5.8-16-1.5-33.6,6.2-48.3
				c0.1-0.1,0.2-0.3,0.2-0.3c0-0.1,0.2-0.1,0.3,0l0,0l0.1,0.1l0.2,0.4c2.2,3.8,4,8,4.7,12.3c0.8,4.6,0.2,9.5-2.3,13.4
				C214.5,92.1,211.9,96.3,210.6,101z M208.1,83.8c0.8-4,2.1-7.9,3.2-11.8c0.1-0.2-0.3-0.4-0.4-0.1c-0.9,2.2-1.6,4.3-2.3,6.6
				c-1.1,4-2,8-2.3,12.1c-0.3,4-0.2,8.2,1.1,12.1c0,0.1,0.2,0.1,0.2,0c-0.3-2.2-0.7-4.5-0.7-6.7C206.8,91.8,207.3,87.8,208.1,83.8z"
				/>
			<path class="st0" d="M191,64.1c1.7,1,3.3,2.2,4.7,3.5c3.3,3.1,5.8,7.3,5.8,11.9c0.3,4.6,0.6,9.3,1,14c0.5,4.7,0.5,9.4,1.7,14
				c0.4,1.5,1.1,3.2,1.4,4.6c-1.7-0.6-3.8-2.4-5.3-3.8c-3.3-3.1-6.2-6.7-8.1-10.9c-3.1-6.1-3.9-13.2-2.7-20c0.4-2.3,0.9-4.6,1-7
				c0.1-2,0.1-4.1,0-6C190.4,64.3,190.8,64,191,64.1z M190.5,80.7c-0.3,1.5-0.4,3-0.3,4.5c0.1,3.8,1,7.6,2.5,11.2
				c0.7,1.6,1.6,3.1,2.6,4.6c0.7,1,1.4,2.2,2.5,3c0.1,0,0.1,0,0.1-0.1c-0.6-1.3-1.6-2.5-2.4-3.7c-1.9-3.3-3.2-6.9-3.8-10.6
				c-0.5-2.9-0.5-5.8-0.4-8.7C191.3,80.3,190.6,80.3,190.5,80.7z"/>
			<path class="st0" d="M174.2,126.4c0.8,1.3,1.5,2.6,2,4.1c-4.7-2.7-9.3-6-12.3-10.6c-0.9-1.2-2.5-5.2-4.2-7.3c2.4,2,4.7,4.1,7.2,6
				C169.7,120.8,172.4,123.2,174.2,126.4z"/>
			<path class="st0" d="M164.2,138c-6.1-4.2-8.3-12.1-8-19.3c0-1.2,0.2-2.3,0.3-3.5c0.2,3.1,0.9,6.7,2.1,9.6
				c2.7,5.5,7.3,11.7,14,11.8c0.4,0,0.7-0.3,0.7-0.6c0-0.3-0.1-0.5-0.3-0.6c-4.2-2.4-8-5.6-10.4-9.9c-2.5-4.2-4.2-8.9-4.9-13.7l0,0
				c0,0,0,0,0,0c0.4,0,0.7,0.3,1,0.5c2.1,2.2,3,5.3,4.7,7.9c3.4,5.3,8.5,9.1,13.7,12.4c0.5,0.4,1.3-0.2,1-0.8
				c-1.5-3.8-3.7-7.3-6.6-10.1c-4.1-3.6-8.5-6.8-12.6-10.3c0.1,0,0.3,0,0.3,0c7.2,1.2,14.3,4.7,19.1,10.3c1.7,1.9,2.8,4.2,3.3,6.7
				c0.1,0.7,1.2,0.6,1.1-0.1c0.5-7.2-5.2-12.9-11.5-15.4c-3.3-1.5-6.9-2-10.4-2.5c3.3-0.6,6.7-0.7,10,0c7.1,1,13.9,5.9,15.9,13
				c1.2,4.5,0.5,9.9-2.8,13.4C178.9,141.7,170,142.4,164.2,138z M172.7,133.8c-4-2.8-7.4-6.3-10-10.4c-0.1-0.2-0.5,0-0.3,0.2
				c2.4,4.3,6,8,10.2,10.4C172.8,134.2,172.9,133.9,172.7,133.8z M176,120.1c-1.8-2-4.1-3.6-6.5-4.9c-1.3-0.7-2.5-1.3-3.9-1.7
				c-1-0.3-2.1-0.7-3.1-0.7c-0.2,0-0.1,0.2,0,0.2c1,0.4,2.1,0.6,3.1,0.9c1.3,0.4,2.6,0.9,3.9,1.6c2.4,1.2,4.4,2.9,6.3,4.8
				C175.9,120.3,176.1,120.2,176,120.1z M174.4,139.5c-1.8,0.1-3.7,0-5.5-0.6c-1.8-0.5-3.5-1.5-5-2.6c-0.1-0.1-0.1,0-0.1,0.1
				c2.7,2.6,6.8,3.9,10.5,3.3C174.5,139.7,174.5,139.5,174.4,139.5z"/>
			<path class="st0" d="M213,121c0,0-0.8,0.7-0.8,0.7c-0.2,0.2-0.6,0.5-0.6,0.5c-0.2,0.1-0.5,0-0.5-0.3c-0.5-5.3-0.7-10.7,0.4-15.9
				c3.2-15.3,13.8-28,25.5-37.8c0.6-0.6,1.2-0.3,1.1,0.3l-0.2,1c-0.3,1.2-0.8,4.7-1,6C234.2,92.7,226.4,109.5,213,121z M233.4,85.1
				c0.7-2.1,1.3-4.3,1.8-6.4c0.5-2,1-4,1.3-6c0.1-0.4-0.5-0.5-0.6-0.1c-0.6,2-1,4-1.5,6c-0.6,2.1-1.1,4.2-1.8,6.3
				c-1.2,3.9-2.5,7.9-3.9,11.8c-0.1,0.2,0.2,0.2,0.3,0.1C230.7,92.8,232.2,89,233.4,85.1z M212.7,118.3c0.1-1.8,0.2-3.7,0.3-5.5
				c0.4-4.4,1-8.8,2.7-12.9c1.7-4.2,3.8-8.3,6.1-12.1c0.1-0.2-0.1-0.3-0.2-0.1c-1.6,2.2-3,4.5-4.3,7c-2.1,3.9-3.7,8.1-4.4,12.5
				c-0.6,3.7-0.8,7.5-0.4,11.2C212.5,118.4,212.7,118.4,212.7,118.3z"/>
			<path class="st0" d="M204,113.5c2.8,2.5,4.8,6,5.2,9.7l0,0.4c0,1.1,1.2,1.8,2.2,1.3c6.3-3.2,14.2-3.7,20.4-0.1
				c0.1,0.4-0.1,1-0.5,1.2c-2.8,1-6.2,0.8-9,2.1c-1.9,0.5-3.6,2.3-5.3,2.8c-3.5,1-7.8,0.5-11-1.4c-1.6-1.2-2.5-2.8-3.3-4.5
				c-0.9-1.8-1.9-3.7-3-5.5c-1.4-2.6-3.6-5.1-4.1-8.1c-0.1-2.4,3.1-1,4.4-0.5c0.3,0.1,0.6,0.3,0.9,0.5c0.3,0.3,0.6,0.5,0.9,0.8
				C202.3,112.4,203.1,113,204,113.5z M215.1,129.9c0.9,0.3,1.7,0,2.5-0.4c0.5-0.3,0.9-0.6,1.3-0.9c0.4-0.3,0.9-0.6,1.4-0.9
				c0.2-0.1,0-0.4-0.1-0.3c-1,0.3-1.7,1.1-2.5,1.6c-0.7,0.5-1.6,0.9-2.4,0.7C215,129.8,215,129.9,215.1,129.9z M197.6,111.2
				c-0.1,0-0.1,0.1,0,0.2c0.7,0.3,1.5,0.5,2.2,0.9c0.8,0.4,1.5,0.8,2.1,1.4c1.3,1.1,2.2,2.4,3.1,3.8c0.1,0.2,0.5,0.1,0.4-0.2
				c-0.6-1.6-1.9-2.9-3.3-4c-0.7-0.5-1.4-1-2.2-1.4C199.2,111.6,198.4,111.2,197.6,111.2z"/>
			<path class="st0" d="M223.3,119.8c0.7-0.5,1.5-1,2.2-1.5c5.3-3,10.3-6.7,14.6-11c0.9-0.7,1.7-1.4,2.6-2.1
				c5.6-5,13.5-6.5,20.6-4.5c0.3,0.1,0.4,0.6,0.1,0.8c-1.8,1.3-3.5,2.8-5,4.4c-3.9,4.7-7.8,9.6-13.6,11.8
				C238,120.7,230.5,121.2,223.3,119.8z M238.7,118.3c7.4-0.7,13.1-6.4,17.6-11.8c0.2-0.3-0.1-0.6-0.4-0.4c-2.6,2.7-5.1,5.6-8.2,7.9
				c-2.7,1.9-5.8,3.5-9,4.1C238.5,118.1,238.5,118.4,238.7,118.3z"/>
			<path class="st0" d="M225.3,116.2c-2.1,1.2-4.2,2.3-6.4,3.2c4-5.5,10-13.2,12.8-18.6c2.5-5.1,4.6-10.7,9.1-14.3
				c2.6-2.2,5.7-3.8,8.9-4.8c0.5-0.1,1-0.4,1.4-0.1c0.3,0.3,0.5,0.7,0.4,1c-0.9,4.4-2.4,8.7-4.5,12.6c-2.6,4.8-6.1,9-10.2,12.6
				c-1.6,1.2-3.2,2.5-4.8,3.6C229.8,113.2,227.6,114.7,225.3,116.2z M233.1,103.3c0.9-1.4,1.7-2.9,2.4-4.4c0.7-1.5,1.1-3.1,1.8-4.5
				c0.9-1.9,2.1-3.6,3.6-5.1c1.5-1.5,3.3-2.6,4.9-4c0.2-0.2,0-0.5-0.3-0.4c-2.1,0.8-4,2.5-5.6,4.2c-1.4,1.5-2.5,3.2-3.3,5.1
				c-0.6,1.5-1.1,3.2-1.7,4.7c-1.4,3.4-3.6,6.6-6.1,9.4c-0.1,0.1,0.1,0.3,0.2,0.2C230.5,106.8,231.9,105.1,233.1,103.3z"/>
			<path class="st0" d="M179.6,141.2c0.4-0.6,1.6-0.7,2.5-1.1c1.8-0.9,3.1-2.4,4.2-4c0.5-0.7,1-1.6,1.7-2c0.6,1.4,0.6,3.5,0.1,4.9
				C186.7,142.4,182.6,142.9,179.6,141.2z M185.2,140.7c-0.1,0.1,0,0.2,0.1,0.1c0.6-0.1,1.2-0.7,1.5-1.2c0.4-0.5,0.7-1.2,0.6-1.9
				c0-0.2-0.3-0.2-0.3,0c-0.1,0.3-0.1,0.6-0.3,0.9c-0.1,0.3-0.2,0.6-0.4,0.8C186.1,140,185.7,140.3,185.2,140.7z"/>
			<path class="st0" d="M237.7,223.6C237.7,223.6,237.8,223.5,237.7,223.6c-7.8-6.5-16.5-12-25.6-16.4c-6.5-3.4-13.2-6.3-20.4-7.7
				c1.5-1.7,3.5-3,5.7-3.1c2.4-0.2,4.3,1.6,6.7,1.9c1.3,0.2,2.5,0.3,3.8,0.3c1.9,0,3.6-0.7,5.4-0.8c2.6-0.2,5.5,1,6.8,3.4
				c1.3,2.2,3.5,4.1,6.1,4.9c2.1,0.6,4.2,0.7,6.1,1.3c2.2,1.3,3.6,3.6,5,5.8c1.4,2.1,3.2,3.9,5.2,5.4c1,0.8,2.2,1.3,3.1,1.9
				c1.9,1.4,3.1,3.4,4.2,5.5c1.4,2.8,3.4,5.2,5.7,7.3c-1.7-0.3-3.5-0.4-5.3-0.2c-3.3,0.2-6.7,1.8-9.9,0.4c-3.2-1.4-6.5-2.7-10.1-3.1
				c-4.4-0.4-9.1-0.2-12.8-2.7c-0.9-0.7-1.4-1.7-2.2-2.5c-2.8-2.7-6.8-2.4-10.4-2.6c0,0,0,0,0,0l0,0c-0.5-0.1-1-0.3-1.5-0.4
				c-1.5-0.5-3.1-1.4-4-2.6c-1.1-1.8-1.6-4.7-3-6.6c-1.3-2.1-3.6-3.8-5.4-5.2c-1.6-1.3-1.9-3.5-1-5.4c0.1-0.2,0.2-0.4,0.4-0.6
				c6.9,2.7,14,5.2,20.8,7.9C220.3,213.2,229.2,218.1,237.7,223.6z"/>
			<path class="st0" d="M218.3,155.2c0.6,1.3,0.9,2.6,0.9,4c0,0.5-0.1,0.9-0.1,1.4c-0.4,2.8-2,5.3-4.5,6.9c-0.5,0.3-0.4,1.1,0.2,1.3
				c2.8,1.6,5.1,4,6.2,7.1c0.5,1.4,0.8,3,0.7,4.5c0,0.1-0.2,0.2-0.3,0.2c-3.5-0.9-6.6-2.9-8.7-5.9c-1.8-2.1-3.1-4.4-2.8-7.2
				C209.9,162.2,213.8,157.7,218.3,155.2z M216.6,162.4c-0.7,1.5-1.9,2.7-2.9,3.9c-0.2,0.2,0.1,0.5,0.3,0.3c2.2-2,4.8-5.3,3.5-8.4
				c-0.1-0.2-0.4-0.1-0.4,0.1C217.4,159.7,217.2,161.1,216.6,162.4z"/>
			<path class="st0" d="M168.5,168.5c-3.1-3-5.6-6.7-8.6-9.8c-3.2-2.9-7.2-5.8-11-7.1c3.8,2.1,7.3,4.7,10.3,7.9
				c2.8,3.3,5.2,7,8.3,10.1c2.9,3.3,6.7,5.8,9.9,8.6c1.2,1.1,2.3,2.4,3.3,3.7c0,0,0,0.1-0.1,0.1c-0.7,0.2-2.2-0.3-3-0.8
				c-2.5-1.2-4.9-2.7-6.9-4.7c-1-1-1.9-2.1-3.1-3.2c-2.8-2.7-6.9-3.5-10.6-3.9c-1.1-0.2-2-1.1-2.6-2c-0.7-1.1-0.8-2.7-1.4-4
				c-1-2.2-2.6-4.2-4.7-5.4c-1.4-0.8-2.5-1.3-3.3-2.3c-2.1-2.1-2.1-4.8-2.7-7.6c-1-3.9-4-7-7.5-8.8c2.4-0.1,4.8,0,7.2,0.6
				c2.9,0.7,5.6,2,7.6,4.2c1,1.2,2.4,2.3,3.9,2.9c1.5,0.6,3.1,0.3,4.5,0.7c1.2,0.4,2.4,1.3,3,2.5c0.3,0.6,0.6,1.4,1.1,2.1
				c1.4,2.1,3.9,3.2,6.2,3.8c2.7,0.8,4.6,3.3,5.7,5.8c0.6,1.4,0.5,2.7,0.6,4.2c0.1,1.7,0.6,3.3,1.4,4.8c0.8,1.4,1.9,2.5,2.7,3.8
				c0.7,1.2,1.2,2.5,1.6,4c0.1,0.2,0.2,0.6,0.2,0.9c-0.7-0.8-1.5-1.7-2.3-2.4C174.8,174.2,171.4,171.7,168.5,168.5z"/>
			<path class="st1" d="M186.9,138.6c0.1-0.3,0.2-0.6,0.3-0.9c0-0.2,0.3-0.1,0.3,0c0,0.7-0.2,1.4-0.6,1.9c-0.4,0.5-0.9,1.1-1.5,1.2
				c-0.1,0-0.1-0.1-0.1-0.1c0.4-0.4,0.9-0.8,1.3-1.3C186.6,139.2,186.8,138.9,186.9,138.6z"/>
			<path class="st1" d="M163.9,136.5C163.8,136.4,163.9,136.3,163.9,136.5c1.6,1,3.3,2,5.1,2.5c1.8,0.5,3.6,0.7,5.5,0.6
				c0.1,0,0.1,0.2,0,0.2C170.7,140.4,166.6,139.1,163.9,136.5z"/>
			<path class="st1" d="M172.6,134.1c-4.2-2.5-7.8-6.2-10.2-10.4c-0.1-0.2,0.2-0.4,0.3-0.2c2.6,4.1,6,7.6,10,10.4
				C172.9,133.9,172.8,134.2,172.6,134.1z"/>
			<path class="st1" d="M175.8,120.2c-1.9-1.9-4-3.5-6.3-4.8c-1.2-0.6-2.6-1.1-3.9-1.6c-1-0.3-2.1-0.5-3.1-0.9c-0.1,0-0.1-0.2,0-0.2
				c1.1,0,2.1,0.4,3.1,0.7c1.4,0.4,2.6,1.1,3.9,1.7c2.4,1.3,4.7,2.8,6.5,4.9C176.1,120.2,175.9,120.3,175.8,120.2z"/>
			<path class="st1" d="M191.6,63.2l0.2,0.1l0.4,0.2c3.5,2.2,6.6,5.3,8.5,9c1.2,2,1.7,4.6,1.8,6.9c0.4,4,0.8,7.9,1.2,11.9
				c0.7-8.4,3.2-16.8,6.7-24.5c0.9-1.9,1.8-3.9,2.9-5.7c0.5-0.6,1.5-0.4,1.8,0.2l0.1,0.1l0.2,0.4c1,1.8,2,3.7,2.8,5.7
				c2.2,5.1,3.2,11,1.9,16.4c4.3-5.6,9.4-10.7,14.7-15.3l1.6-1.3c0.2-0.2,0.7-0.6,1.2-0.6c1.1-0.1,2.1,0.8,2,1.9
				c0,5.2-1.1,10.3-2.3,15.3c-0.7,3-1.7,5.9-2.7,8.7c3.3-5.4,7.3-9.3,14.9-11.5c0,0,0.9-0.2,0.9-0.2c1.3-0.4,2.7,0.8,2.4,2.2
				c-0.4,2.2-1,4.4-1.7,6.6c-1.5,4.8-3.8,9-6.8,12.9c0.9-0.6,1.9-1.2,2.9-1.7c4.9-2.2,10.4-2.2,15.5-1.1c0.6,0.1,1.4,0.3,1.6,0.9
				c0.2,0.5,0,1.2-0.4,1.5c-1.7,1.3-3.3,2.8-4.7,4.4c-3.8,5-7.8,10-13.8,12.5c-4.7,2.2-9.8,3.3-15,3.3c0.7,0.3,1.4,0.7,2.1,1.1
				c0.2,0.1,0.5,0.4,0.5,0.6c0.8,2.9-2.3,3.3-4.2,3.7c-2,0.4-3.9,1-5.7,1.9c-2,0.9-3.3,2.7-5.4,3.4c-3.3,1-6.7,0.6-9.8-0.7
				c0,0,0,0.1,0,0.1c-5.6,7.7-10.2,16.2-13.8,25c-2.6,6.4-4.5,13-5.8,19.7c5.6-5,12.7-8.5,20.2-9.3c0-0.2,0-0.3,0-0.5
				c0.3-5.7,4.1-11.1,9.6-12.9c0.3-0.1,0.7,0,0.9,0.3c0.3,0.6,0.5,1.1,0.6,1.7c1.3-6.9,4.7-13.7,10.8-17.4c2.6-1.5,5.3-2.8,7.4-5
				c0.7-0.9,2-0.4,2,0.7c0,0,0,0.6,0,0.6c0,5.4-2,10.9-6.2,14.4c-1.1,1-2.3,2-3.4,3c6.4-3.6,13.8-5.4,21-6c0.1,0,0.4,0,0.5,0
				c0.8-0.1,1.3,0.9,0.9,1.5c-0.7,1.4-1.5,2.8-2.3,4.1c-2,3.1-4.9,5.9-8.4,7.2c5.5,0.5,11.1,1.9,16.1,3.7c0.6,0.1,1.3,0.9,1,1.6
				c-0.1,0.4-0.4,0.7-0.7,0.8c-1.5,0.7-3,1.3-4.6,1.9c-3.6,1.4-7.3,2.4-11,3.2c0.2,0,0.4,0,0.6,0c4.2,0.3,8.2,2.4,11.2,5.4
				c0.3,0.3,0.8,0.7,0.8,1.2c0.1,0.6-0.2,1.1-0.8,1.4c-3.3,1.1-6.5,1.7-9.9,1.8c-2.2,0.1-4.5-0.1-6.6-0.5c4.6,2.1,7.8,6.4,9.2,11.2
				l0.2,0.5c0.2,0.5-0.3,1.1-0.8,1.1c-0.2,0-0.5-0.1-0.6-0.2c-2.6-1.3-5.4-1.7-8.3-2.3c-6.5-1.4-11.8-6.2-15.1-11.9
				c0,0.4,0.1,0.8,0.1,1.2c0,0.5,0,1-0.4,1.3c-0.4,0.3-0.9,0.1-1.3,0c-3.5-0.9-6.7-2.9-8.9-5.8c-1.7-1.8-3.1-4.2-3.3-6.7
				c-8.1,1.3-15.4,5.7-20.7,11.7c-1,6-1.5,12-1.6,18.1c1,0.1,2.1,0.3,3.1,0.5c1.9-2.6,5-4.6,8-4.7c1.4-0.1,2.8,0.3,4,0.8
				c2.2,1.1,4.3,1.4,6.7,1.4c1.7,0,3.5-0.7,5.3-0.8c2.7-0.3,5.5,0.8,7.4,2.7c1.3,1.4,1.8,3.1,3.4,4.2c2.2,2,5.3,2,8.1,2.7
				c0.6,0.1,1.5,0.5,1.9,0.9c2,1.6,3.5,3.8,4.7,5.9c1.2,2,2.9,3.7,4.8,5.1c1.9,1.3,4.3,2.7,5.6,4.8c1.5,2,2.2,4.3,3.6,6.3
				c1.2,1.7,2.6,3.3,4.1,4.7c0.2,0.2,0.4,0.3,0.6,0.5c0.2,0.2,0.2,0.5,0.2,0.6c-0.1,0.1-0.4,0.2-0.6,0.2c-0.3,0-0.3,0-0.3,0
				c0,0-0.4-0.1-0.4-0.1c-1.9-0.3-3.9-0.4-5.9-0.2c-3.5,0.4-7,2.1-10.5,0.6c-3.2-1.3-6.3-2.5-9.7-2.8c-3.9-0.2-8.4-0.3-12.2-1.9
				c-1.8-0.7-2.9-2.3-4.1-3.6c-2.4-2.4-7.1-1.8-9.4-2.1c-1.9-0.4-3.8-1.1-5.4-2.3c-2.8-1.9-2.7-5.6-4.6-8.1
				c-1.8-3.3-6.5-4.5-7.1-8.5c-0.2-1.6,0.1-3.3,0.9-4.8c-0.7-0.3-1.4-0.6-2.1-0.9c0,14.1,2.7,28.1,7.9,41.2c1.1,3.1-3.4,4.8-4.6,1.7
				c-6.7-17.9-8.6-37.3-6-56.1c-0.5-1-1.1-1.9-1.6-2.9c-2.6,1.8-6.9-1.3-9.2-2.6c-3.8-2.1-5.9-6.4-10-7.9c-2-0.9-4-0.9-6.2-1.3
				c-2.6-0.6-4.5-3.1-5-5.6c-0.5-2.6-1.9-5-4.2-6.3c-1.2-0.7-2.8-1.6-3.8-2.8c-2.2-2.3-2.4-5.8-2.8-8.6c-0.9-4.2-4.2-7.2-7.9-9.1
				c-0.5-0.2-0.3-0.9,0.2-0.9c3.1-0.4,6.3-0.3,9.3,0.4c1.5,0.4,3,0.9,4.4,1.6c2.8,1.2,4.4,4.3,7.2,5.3c1.4,0.5,3,0.2,4.5,0.6
				c1.7,0.5,3.1,1.6,3.9,3.1c0.9,2.1,2.2,3.6,4.3,4.4c1.4,0.5,3.1,0.8,4.4,1.7c3.5,2.3,5.5,6.4,5.4,10.5c0.1,3.2,2.1,5.2,3.9,7.6
				c0.9,1.4,1.5,3,1.9,4.5c0.3,1.3,0.8,2.9,0.4,4.3c0.4,0.6,0.8,1.2,1.2,1.8c1.9-11.9,5.5-23.5,10.9-34.3c-0.4-1.8-1.2-3.6-2.4-5.1
				c-1.1-1.5-2.6-2.7-4.3-3.6c-1.9,2.7-5.4,3-8.6,1.1c-0.4-0.2-0.7-0.6-0.7-1c-2.6,0.8-5.3,1.1-8,0.6c-7.8-1.2-13.5-8.2-14.8-15.7
				c-0.8-3.7-0.8-7.6-0.2-11.3c0.1-0.7,0.3-1.4,0.4-2.1c0-0.4,0.5-0.7,0.8-0.7c0.3,0,0.7,0.4,0.6,0.7c0,0,0,0.3,0,0.3
				c0.1,5,1.1,10.1,3.9,14.3c2.1,3.2,5.1,6.5,8.8,7.4c-3.3-2.5-6.2-5.5-8.1-9.2c-2.4-4.4-4.2-9.1-4.8-14.1c0-0.1,0-0.2,0.1-0.3
				c0.3-0.1,0.7-0.1,1,0.1c-0.2-0.1-0.2-0.5,0.1-0.7c0.2-0.1,0.6,0,0.7,0c8.5,1.5,17.4,5.8,22,13.4c-1.5-6.3-8-10.4-13.9-12.1
				c-2.5-0.7-5.2-1-7.8-1.5c-0.1,0-0.2-0.1-0.2-0.2c-0.1-0.5,0.4-0.6,0.8-0.7c3.6-0.9,7.3-1.1,10.9-0.5c7.5,1,14.7,6.2,16.9,13.7
				c0.9,3.3,0.9,6.9-0.3,10.1c0.3-0.2,0.6-0.2,1-0.1c0.5,0.3,0.7,1,0.8,1.4c0.2,1.6,0.2,3.3-0.4,4.9c-0.2,0.5-0.3,0.9-0.5,1.3
				c3.2,1.4,5.9,4,7.4,7.1c3-5.6,6.4-11,10.4-16.1c-0.4-0.2-0.8-0.4-1.2-0.7c-2.1-1-3.1-3.3-3.9-5.3c-0.8-1.9-1.6-3.8-2.5-5.6
				c-1.2-2.9-3.3-5.4-3.8-8.6c0-2.3,1.9-2.5,4-1.9c-3.4-3.2-6.2-6.9-8.2-11.2c-3.2-6.5-3.9-13.9-2.5-21c1-4.3,1.4-8.6,1.2-13
				C189.5,63.3,190.7,62.6,191.6,63.2z M233,149.3c4.2-3.5,6.1-9.2,5.8-14.5c-0.1,0-0.1,0-0.1,0c-1.2,1.1-2.5,2.1-3.9,3
				c-4,2.1-7.9,4.4-10.3,8.3c-2.7,4-4.2,8.7-4.7,13.5c0,0.3,0,0.6-0.1,0.9c0,0.3,0,0.6-0.1,0.8c0,0.1,0,0.3,0,0.4c0,0,0,0,0,0.1
				c0.4-0.5,0.9-0.9,1.2-1.4c1.6-1.8,3.3-3.5,5.2-4.9C228.4,153.4,230.7,151.3,233,149.3z M215.4,168
				C215.4,168.1,215.4,168.1,215.4,168C215.4,168.1,215.4,168.1,215.4,168C215.4,168.1,215.4,168.1,215.4,168z M251.7,147.8
				c0,0-0.1,0-0.1,0c-11.4,0.9-23.3,4.9-30.5,14.2c-0.5,0.6-1.1,1.1-1.6,1.7c1.4-0.6,3-1.3,4.6-1.9c0.1,0,0.1,0,0.2-0.1
				c1.2-0.5,2.5-0.9,3.6-1.2c3.2-1,6.7-1.1,10-1.1c3.2-0.1,6.2-1.5,8.6-3.8C248.6,153.4,250.3,150.7,251.7,147.8z M257.8,164.9
				c0.3-0.2,0.3-0.5-0.2-0.6l-1.3-0.5c-9.2-3.1-20-4.7-29.4-1.8c-1.1,0.4-2.3,0.8-3.4,1.3c-0.2,0.1-0.6,0.2-0.9,0.4
				c-2.1,1-4.1,2.3-6,4c-0.3,0.4,0.1,0.4,0.5,0.5c0.6,0.2,1.3,0.4,1.9,0.6c3.4,0.5,8.4,1.4,12.5,1.9
				C240.5,170.9,249.6,168.7,257.8,164.9z M254.1,178.2c0.4-0.2,0.5-0.7,0.2-1c-2.9-3.1-6.9-5.2-11.2-5.4c-2.3-0.1-5,0.2-7.4,0.3
				c-1.3,0-2.8-0.1-4.4-0.2c-2.8-0.1-5.7-0.3-8.5-0.9c-0.6-0.1-1.2-0.2-1.8-0.4c-0.5-0.1-0.9-0.1-1.3-0.2c1.3,1,2.7,2,4.2,2.9
				c2.4,1.3,4.8,2.6,7.3,3.8c1.2,0.5,2.5,1,3.7,1.4C241.1,180.4,248,180.2,254.1,178.2z M237.6,190c2.8,0.6,5.8,1,8.4,2.3
				c0.1,0,0.3,0.2,0.4,0.1c0.2,0,0.3-0.2,0.3-0.4c-0.6-2.2-1.6-4.4-3-6.2c-1.7-2.3-4-4-6.7-5c-5.2-2.1-10.5-4.4-15.4-7.1
				c0.1,0.1,0.1,0.3,0.1,0.3C224.1,181.4,229.8,188.2,237.6,190z M212.6,174.7c2.1,2.9,5.3,4.9,8.7,5.9c0.1,0,0.3-0.1,0.3-0.2
				c0-1.5-0.2-3.1-0.7-4.5c-1.1-3.1-3.4-5.5-6.2-7.1c-0.6-0.2-0.7-1-0.2-1.3c2.5-1.5,4.1-4.1,4.5-6.9c0-0.5,0.1-0.9,0.1-1.4
				c0-1.3-0.3-2.7-0.9-4c-4.5,2.4-8.4,6.9-8.5,12.2C209.5,170.3,210.9,172.6,212.6,174.7z M189.9,201.9c-0.9,1.9-0.5,4.1,1,5.4
				c1.8,1.4,4.1,3.1,5.4,5.2c1.4,1.8,2,4.7,3,6.6c0.8,1.2,2.5,2.1,4,2.6c0.5,0.2,1,0.3,1.5,0.4l0,0c0,0,0,0,0,0
				c3.6,0.2,7.6-0.1,10.4,2.6c0.9,0.8,1.4,1.8,2.2,2.5c3.7,2.5,8.4,2.3,12.8,2.7c3.5,0.4,6.9,1.7,10.1,3.1c3.2,1.4,6.6-0.1,9.9-0.4
				c1.8-0.1,3.5,0,5.3,0.2c-2.3-2.1-4.3-4.6-5.7-7.3c-1-2.1-2.3-4.1-4.2-5.5c-0.9-0.7-2-1.2-3.1-1.9c-2-1.5-3.8-3.3-5.2-5.4
				c-1.4-2.2-2.8-4.4-5-5.8c-2-0.6-4.1-0.6-6.1-1.3c-2.5-0.7-4.8-2.6-6.1-4.9c-1.4-2.3-4.2-3.6-6.8-3.4c-1.8,0.2-3.5,0.9-5.4,0.8
				c-1.3,0-2.5-0.1-3.8-0.3c-2.4-0.3-4.4-2-6.7-1.9c-2.2,0.1-4.2,1.4-5.7,3.1c7.2,1.5,14,4.4,20.4,7.7c9.1,4.5,17.8,9.9,25.7,16.4
				c0,0,0,0.1-0.1,0.1c-8.5-5.5-17.4-10.3-26.6-14.4c-6.8-2.7-13.9-5.2-20.8-7.9C190.1,201.5,190,201.7,189.9,201.9z M180.2,178.7
				c-0.4-1.4-0.9-2.8-1.6-4c-0.8-1.3-2-2.3-2.7-3.8c-0.8-1.5-1.2-3.1-1.4-4.8c-0.1-1.6,0-2.8-0.6-4.2c-1-2.6-2.9-5-5.7-5.8
				c-2.3-0.6-4.8-1.7-6.2-3.8c-0.5-0.7-0.8-1.5-1.1-2.1c-0.6-1.2-1.8-2.1-3-2.5c-1.4-0.4-3.1-0.1-4.5-0.7c-1.5-0.6-2.9-1.7-3.9-2.9
				c-2-2.2-4.7-3.5-7.6-4.2c-2.3-0.6-4.8-0.8-7.2-0.6c3.5,1.9,6.5,4.9,7.5,8.8c0.6,2.9,0.6,5.5,2.7,7.6c0.8,1,1.9,1.5,3.3,2.3
				c2.1,1.2,3.7,3.2,4.7,5.4c0.6,1.3,0.7,2.8,1.4,4c0.6,0.9,1.5,1.8,2.6,2c3.7,0.4,7.7,1.2,10.6,3.9c1.2,1.1,2.1,2.2,3.1,3.2
				c2,2,4.4,3.4,6.9,4.7c0.8,0.4,2.3,1,3,0.8c0,0,0-0.1,0.1-0.1c-1-1.3-2.1-2.5-3.3-3.7c-3.2-2.8-7-5.3-9.9-8.6
				c-3.1-3.1-5.4-6.8-8.3-10.1c-2.9-3.2-6.5-5.7-10.3-7.9c3.8,1.3,7.8,4.2,11,7.1c3,3.1,5.5,6.8,8.6,9.8c3,3.3,6.3,5.8,9.7,8.7
				c0.8,0.8,1.6,1.6,2.3,2.4C180.4,179.3,180.3,178.9,180.2,178.7z M186.7,123.2c-2-7.1-8.8-12-15.9-13c-3.3-0.7-6.7-0.6-10,0
				c3.5,0.5,7.1,1,10.4,2.5c6.3,2.5,11.9,8.3,11.5,15.4c0,0.7-1,0.8-1.1,0.1c-0.5-2.5-1.6-4.8-3.3-6.7c-4.8-5.6-11.9-9-19.1-10.3
				c0,0-0.2,0-0.3,0c4.2,3.5,8.5,6.7,12.6,10.3c3,2.8,5.1,6.4,6.6,10.1c0.3,0.6-0.5,1.2-1,0.8c-5.2-3.4-10.3-7.1-13.7-12.4
				c-1.6-2.6-2.6-5.6-4.7-7.9c-0.3-0.3-0.6-0.6-1-0.5c0,0,0,0,0,0l0,0c0.7,4.8,2.4,9.5,4.9,13.7c2.4,4.2,6.2,7.5,10.4,9.9
				c0.2,0.1,0.4,0.4,0.3,0.6c0,0.4-0.3,0.7-0.7,0.6c-6.7-0.1-11.4-6.2-14-11.8c-1.2-2.9-1.9-6.5-2.1-9.6c-0.2,1.2-0.3,2.3-0.3,3.5
				c-0.3,7.1,1.9,15,8,19.3c5.7,4.4,14.6,3.7,19.7-1.4C187.2,133.2,187.9,127.7,186.7,123.2z M159.6,112.6c1.7,2.1,3.3,6.1,4.2,7.3
				c3.1,4.6,7.6,7.9,12.3,10.6c-0.5-1.4-1.2-2.8-2-4.1c-1.8-3.2-4.5-5.6-7.4-7.9C164.4,116.6,162,114.5,159.6,112.6z M188.1,138.9
				c0.5-1.4,0.5-3.5-0.1-4.9c-0.7,0.4-1.2,1.3-1.7,2c-1.1,1.6-2.4,3.1-4.2,4c-0.9,0.4-2,0.5-2.5,1.1
				C182.6,142.9,186.7,142.4,188.1,138.9z M219.3,74.6c-0.7-4.4-2.5-8.5-4.7-12.3l-0.2-0.4l-0.1-0.1l0,0c-0.1-0.1-0.2-0.1-0.3,0
				c0,0-0.1,0.2-0.2,0.3c-7.7,14.6-11.9,32.3-6.2,48.3c0.2,0.5,0.3,1,0.4,1.5c0.8-3.6,1.4-7.4,2.5-10.8c1.3-4.7,3.9-8.9,6.4-13
				C219.5,84,220.1,79.2,219.3,74.6z M237,75.4c0.2-1.3,0.7-4.8,1-6l0.2-1c0.1-0.6-0.6-0.9-1.1-0.3c-11.8,9.8-22.3,22.5-25.5,37.8
				c-1.1,5.2-0.9,10.6-0.4,15.9c0,0.2,0.3,0.4,0.5,0.3c0,0,0.3-0.3,0.6-0.5c0,0,0.8-0.7,0.8-0.7C226.4,109.5,234.2,92.7,237,75.4z
				 M247,95.4c2.1-3.9,3.6-8.2,4.5-12.6c0.1-0.4-0.1-0.7-0.4-1c-0.4-0.3-0.9-0.1-1.4,0.1c-3.2,1-6.3,2.6-8.9,4.8
				c-4.5,3.6-6.6,9.2-9.1,14.3c-2.8,5.4-8.9,13.1-12.8,18.6c2.2-0.9,4.3-2,6.4-3.2c2.3-1.5,4.5-3,6.7-4.6c1.7-1.1,3.2-2.3,4.8-3.6
				C240.9,104.4,244.5,100.2,247,95.4z M244.7,117.7c5.8-2.3,9.8-7.1,13.6-11.8c1.5-1.6,3.2-3.1,5-4.4c0.3-0.2,0.2-0.7-0.1-0.8
				c-7.1-2-15-0.5-20.6,4.5c-0.9,0.7-1.7,1.4-2.6,2.1c-4.3,4.3-9.3,8-14.6,11c-0.7,0.5-1.5,1-2.2,1.5
				C230.5,121.2,238,120.7,244.7,117.7z M199.9,110.8c-1.3-0.5-4.5-1.9-4.4,0.5c0.6,2.9,2.7,5.4,4.1,8.1c1,1.8,2.1,3.6,3,5.5
				c0.9,1.8,1.8,3.4,3.3,4.5c3.2,1.9,7.5,2.4,11,1.4c1.7-0.6,3.5-2.3,5.3-2.8c2.9-1.3,6.3-1.1,9-2.1c0.4-0.2,0.6-0.8,0.5-1.2
				c-6.3-3.6-14.1-3.1-20.4,0.1c-0.9,0.6-2.2-0.2-2.2-1.3l0-0.4c-0.4-3.8-2.3-7.2-5.2-9.7c-0.9-0.5-1.7-1.1-2.3-1.5
				c-0.3-0.2-0.6-0.5-0.9-0.8C200.5,111.1,200.2,111,199.9,110.8z M190.4,64.5c0.1,1.9,0.2,4.1,0,6c-0.1,2.3-0.6,4.7-1,7
				c-1.3,6.8-0.4,13.8,2.7,20c2,4.1,4.8,7.7,8.1,10.9c1.5,1.4,3.6,3.2,5.3,3.8c-0.3-1.5-1-3.1-1.4-4.6c-1.1-4.7-1.2-9.3-1.7-14
				c-0.4-4.7-0.7-9.3-1-14c0-4.6-2.5-8.8-5.8-11.9c-1.4-1.3-3-2.5-4.7-3.5C190.8,64,190.4,64.3,190.4,64.5z"/>
			<path class="st1" d="M191.3,80.8c-0.1,2.9-0.1,5.8,0.4,8.7c0.6,3.7,1.9,7.3,3.8,10.6c0.7,1.3,1.7,2.4,2.4,3.7
				c0,0.1,0,0.1-0.1,0.1c-1-0.7-1.8-1.9-2.5-3c-1-1.4-1.9-3-2.6-4.6c-1.5-3.5-2.4-7.3-2.5-11.2c0-1.5,0-3,0.3-4.5
				C190.6,80.3,191.3,80.3,191.3,80.8z"/>
			<path class="st1" d="M207.5,102.6c-1.3-3.8-1.4-8.1-1.1-12.1c0.3-4.1,1.1-8.2,2.3-12.1c0.6-2.2,1.4-4.4,2.3-6.6
				c0.1-0.2,0.4-0.1,0.4,0.1c-1.2,3.9-2.4,7.8-3.2,11.8c-0.8,4-1.3,8-1.1,12.1c0.1,2.3,0.4,4.5,0.7,6.7
				C207.7,102.7,207.5,102.7,207.5,102.6z"/>
			<path class="st1" d="M205.4,117.2c0.1,0.2-0.3,0.4-0.4,0.2c-0.9-1.4-1.8-2.8-3.1-3.8c-0.7-0.5-1.4-1-2.1-1.4
				c-0.7-0.4-1.5-0.6-2.2-0.9c-0.1,0,0-0.2,0-0.2c0.8,0,1.6,0.4,2.3,0.7c0.8,0.4,1.5,0.8,2.2,1.4
				C203.5,114.3,204.8,115.6,205.4,117.2z"/>
			<path class="st1" d="M212.5,118.3c-0.4-3.7-0.2-7.5,0.4-11.2c0.7-4.4,2.3-8.5,4.4-12.5c1.3-2.4,2.7-4.7,4.3-7
				c0.1-0.1,0.3,0,0.2,0.1c-2.3,3.9-4.4,8-6.1,12.1c-1.7,4.1-2.4,8.5-2.7,12.9c-0.2,1.8-0.2,3.7-0.3,5.5
				C212.7,118.4,212.5,118.4,212.5,118.3z"/>
			<path class="st1" d="M228.8,96.5c1.4-3.9,2.7-7.8,3.9-11.8c0.6-2.1,1.2-4.2,1.8-6.3c0.5-2,0.9-4,1.5-6c0.1-0.4,0.7-0.3,0.6,0.1
				c-0.3,2-0.8,4-1.3,6c-0.6,2.2-1.2,4.3-1.8,6.4c-1.2,4-2.7,7.8-4.4,11.6C229,96.8,228.7,96.7,228.8,96.5z"/>
			<path class="st1" d="M228.8,108.1c2.4-2.8,4.6-5.9,6.1-9.4c0.6-1.5,1.1-3.2,1.7-4.7c0.8-1.9,1.9-3.6,3.3-5.1
				c1.5-1.7,3.5-3.3,5.6-4.2c0.2-0.1,0.5,0.3,0.3,0.4c-1.6,1.4-3.4,2.4-4.9,4c-1.5,1.5-2.7,3.2-3.6,5.1c-0.7,1.5-1.2,3-1.8,4.5
				c-0.7,1.5-1.5,3-2.4,4.4c-1.2,1.8-2.5,3.5-4.1,5C228.9,108.4,228.7,108.2,228.8,108.1z"/>
			<path class="st1" d="M223,165.3c-0.1,0-0.2-0.1-0.1-0.2c6.1-2.7,13.1-3.5,19.8-2.8c1.6,0.2,3.1,0.4,4.7,0.9
				c0.4,0.1,0.2,0.6-0.1,0.5c-3.9-0.7-7.9-1.2-11.9-0.9C231.2,163,227,164,223,165.3z"/>
			<path class="st1" d="M222,155.2c0-1.2,0.5-2.3,0.9-3.4c0.5-1.2,1-2.3,1.6-3.4c1.2-2.2,2.7-4,4.2-6c0,0,0.1,0,0.1,0.1
				c-1.3,1.9-2.5,4-3.7,6.1c-0.5,1-1,2.1-1.5,3.2c-0.4,1.2-0.7,2.4-1.2,3.6C222.3,155.5,222,155.4,222,155.2z"/>
			<path class="st1" d="M238.4,157.7c2.2-0.6,4.1-1.5,5.8-3c1.8-1.5,3.3-3.4,4.8-5.2c0.1-0.1,0.2,0,0.1,0.1c-1.5,2-3,4-5,5.6
				c-1.6,1.3-3.6,2.5-5.6,2.7C238.3,158,238.3,157.8,238.4,157.7z"/>
			<path class="st1" d="M234.4,173.2c3.2-0.3,6.4-0.5,9.6,0c2.8,0.4,6.2,1.4,8.2,3.5c0.2,0.2,0,0.5-0.2,0.3
				c-1.2-0.8-2.4-1.6-3.8-2.1c-1.4-0.6-2.9-0.9-4.4-1.1c-3.1-0.5-6.2-0.3-9.4-0.2C234.2,173.5,234.2,173.2,234.4,173.2z"/>
			<path class="st1" d="M232.5,185.9c1.1,0.7,2.3,1.2,3.6,1.7c1.3,0.4,2.6,0.6,3.9,1c0.2,0.1,0.2,0.4,0,0.4
				c-1.4,0.1-2.8-0.4-4.1-0.8c-1.3-0.5-2.5-1-3.7-1.8c-2.4-1.5-4.3-3.5-5.7-5.8c0-0.1,0.1-0.1,0.1-0.1
				C228.1,182.6,230.2,184.5,232.5,185.9z"/>
			<path class="st1" d="M217.1,158.3c-0.1-0.2,0.3-0.3,0.4-0.1c1.3,3.1-1.3,6.4-3.5,8.4c-0.2,0.2-0.5-0.1-0.3-0.3
				c1-1.3,2.2-2.4,2.9-3.9C217.2,161.1,217.4,159.7,217.1,158.3z"/>
			<path class="st1" d="M217.6,129.1c0.8-0.6,1.5-1.3,2.5-1.6c0.2,0,0.3,0.2,0.1,0.3c-0.5,0.3-0.9,0.6-1.4,0.9
				c-0.4,0.3-0.8,0.6-1.3,0.9c-0.8,0.4-1.6,0.7-2.5,0.4c-0.1,0-0.1-0.2,0-0.2C216,130,216.9,129.6,217.6,129.1z"/>
			<path class="st1" d="M247.7,114c3.1-2.3,5.6-5.2,8.2-7.9c0.2-0.2,0.6,0.1,0.4,0.4c-4.5,5.4-10.2,11.2-17.6,11.8
				c-0.1,0-0.2-0.2,0-0.2C241.9,117.6,245,116,247.7,114z"/>
		</g>
		<g>
			<path class="st0" d="M361.6,293.2c0.5-1.1,1.1-2.1,1.7-3.2c0,0.4,0,0.8,0,1.2c0,0.4-0.1,0.7-0.1,1.1c-0.3,3.1-0.2,6.2,0,9.3
				c0.1,2.9,0.3,5.7,0.9,8.2c0.7,3.7,1.3,7.3,0.2,10.8c-0.8,2.8-2.2,5.9-4.4,7.9c-0.2,0-0.5-0.1-0.6-0.2c-1.5-3.2-2.6-6.9-3-10.5
				c-0.6-4.9,0-9.8,1.4-14.6C358.9,299.7,360.1,296.4,361.6,293.2z M361.8,305.5c0.3,3.4,0.9,6.8,0.8,10.2c0,1.7-0.2,3.4-0.7,5.1
				c-0.4,1.7-1.3,3.2-1.9,4.8c-0.1,0.3,0.3,0.6,0.6,0.4c2.3-2.4,2.9-6.5,3-9.7c0.2-3.7-0.4-7.3-1.3-10.9
				C362.3,305.1,361.8,305.2,361.8,305.5z"/>
			<path class="st0" d="M353.8,309.2c-1.3,5.6-5.5,9.8-10.7,12c0,0-0.7,0.4-0.8,0.2c-0.2-0.1,0-0.4,0-0.5c1.1-3.1,1.3-6.5,1.6-9.8
				c0.9-8.8,7.7-15.8,15.4-19.5C357.2,297.4,355.4,303.3,353.8,309.2z M353.2,297.6c0.1-0.1,0-0.2-0.1-0.2c-2.6,1.9-4.6,4.3-6,7.3
				c-0.7,1.5-1.2,3-1.6,4.6c-0.3,1.4-0.7,3.1-0.3,4.5c0.1,0.3,0.6,0.2,0.6,0c0.4-1.4,0.3-3,0.6-4.4c0.3-1.5,0.8-3,1.5-4.4
				C349.2,302.2,351,299.6,353.2,297.6z"/>
			<path class="st0" d="M378.5,307.5c-0.5-5.5-2.1-11.4-5-16.2c-0.4-0.7-1-1.7-1.5-2.7c0.3,0.3,0.7,0.6,1.1,0.8
				c11.2,6.9,17.2,19.5,19.6,32.1c-3.2-1.2-6.3-2.7-8.9-4.9C380.9,314.2,378.9,311,378.5,307.5z M383.7,314.3c2,2,4.4,3.4,6.9,4.8
				c0.1,0.1,0.3-0.1,0.1-0.2c-2.2-1.5-4.4-3-6.4-4.8c-0.9-0.8-1.7-1.8-2.4-2.8c-0.7-1-1.2-2.1-1.7-3.3c-0.1-0.3-0.5-0.1-0.4,0.1
				C380.3,310.5,382,312.7,383.7,314.3z"/>
			<path class="st0" d="M373.8,287.7c0.2,0,0.5,0,0.7,0c0.4,0,0.7,0,1.1,0c8.6-0.1,18.1,2.7,23.4,9.8c1.9,2.8,4,5.8,6.7,8
				c-5.7,0.7-12.2-0.5-16.5-4.7c-2.4-2.2-4.9-4.4-7.4-6.5c-1.9-2.1-4.1-4-6.6-5.7C374.7,288.4,374.2,288,373.8,287.7z M380.9,289.9
				c1.2,0.5,2.6,0.6,3.9,0.9c1.4,0.3,2.7,0.8,4,1.3c2.5,1,5,2,7.4,3.2c0.1,0,0.2-0.1,0.1-0.1c-1.2-0.7-2.4-1.6-3.6-2.3
				c-1.2-0.7-2.4-1.3-3.7-1.8c-1.3-0.5-2.6-1-3.9-1.4c-1.2-0.3-2.7-0.8-4-0.6C380.7,289.2,380.5,289.7,380.9,289.9z"/>
			<path class="st0" d="M365.6,277.4c5.9-0.6,11.1,3.3,14.6,7.8c-1.5,0.7-3,1.1-4.5,1.3c-0.4,0-0.8,0-1.1,0c-1,0-2-0.2-3-0.5
				c-0.3-0.2-0.7-0.4-1.1-0.4c-1.4-0.7-2.8-1.7-4.1-3.2c-0.3-0.5-1-0.7-1.5-0.3c-0.4,0.3-0.7,1.4-1.1,2.1c-1.3,2.5-3.4,4.6-5.8,5.9
				c-0.2,0.1-0.3,0.2-0.5,0.3c-1.5,0.8-3.2,1.3-4.9,1.4c0.5-4,2.5-7.7,5.5-10.5C360.2,279.2,362.5,277.5,365.6,277.4z M367.1,281.8
				c2.4,2.3,6.7,4.8,10,2.8c0.3-0.2,0.1-0.6-0.3-0.5c-1.5,0.5-3.1,0.4-4.5-0.1c-1.8-0.6-3.2-1.8-4.8-2.8
				C367.1,281,366.8,281.5,367.1,281.8z"/>
			<path class="st0" d="M302,324.4c0,0.1,0.1,0.2,0.1,0.1c6.5-9.5,11.7-19.9,15.7-30.7c3-7.4,5.6-15.1,6.1-23.1
				c1.6,1.3,2.9,3.1,3.3,5.1c0.4,2.6-1.2,5-1.2,7.7c-0.2,2.9,0.2,6.1,1.3,8.7c0.4,1.1,0.7,2.3,0.7,3.5c0,1.7-0.7,3.4-1.7,4.8
				c-0.8,1-2.1,1.7-2.9,2.7c-3.6,3.6-3.2,8.6-3.7,13.2c-1.2,2.5-3.4,4.3-5.7,6.1c-3.3,2.6-5.7,6.7-7.3,10.4c-2,3.5-6,5.2-8.9,8
				c-1.4,1.3-2.6,2.7-3.7,4.2c0.1-3.1-0.4-6.2-1.4-9.1c-1.6-3.8-0.7-7.1,0.6-10.7c1.6-5,0.9-10.8,1-15.8c0.2-2.2,0.5-5,1.6-6.8
				c0.7-1,1.7-1.7,2.5-2.8c2.7-3.6,2-8.1,1.8-12.2c0,0,0-0.3,0-0.3c0,0.1,0,0.2,0,0.3c0,0,0,0,0,0l0,0l0-0.1l0-0.2l0.1-0.4
				c0.3-1.9,1.1-4.2,2.4-5.4c1.8-1.3,5.2-2.4,7-4.2c2.2-1.7,3.9-4.6,5.3-6.8c1.2-1.8,3.3-2.3,5.4-1.7c0.1,0,0.2,0.1,0.3,0.1
				c-2.4,7.9-4.2,15.9-6.2,23.9C311.1,303.5,306.8,314.1,302,324.4z"/>
			<path class="st0" d="M390.1,246.6c0,0-0.1,0.1-0.1,0.1c-0.2,0.1-0.4,0.3-0.6,0.5c-0.5,0.3-1,0.5-1.5,0.9c-1.3,1-2.1,2.1-2.9,3.4
				c-0.8,1.2-1.5,3.3-2.3,4.2c-0.8-1.4-1.2-3.4-0.9-5C382.6,246.9,386.7,245.7,390.1,246.6z M383.8,248.9c0.2-0.3,0.4-0.5,0.6-0.8
				c0.1-0.1-0.1-0.2-0.2-0.2c-0.7,0.2-1.3,1-1.6,1.7c-0.3,0.7-0.5,1.6-0.3,2.3c0.1,0.2,0.4,0.2,0.5,0c0.1-0.3,0.1-0.7,0.1-1
				c0.1-0.3,0.2-0.7,0.3-1C383.4,249.5,383.6,249.2,383.8,248.9z"/>
			<path class="st0" d="M390.2,246.5C390.2,246.5,390.2,246.5,390.2,246.5C390.2,246.4,390.2,246.4,390.2,246.5z"/>
			<path class="st0" d="M407.3,200.9c-0.6,1.3-1.2,2.9-1.7,4.3c-3.7-10.6-2.1-25.6,5.5-35c2.3-2.9,5.5-5.7,8.3-8.1
				c2.5-2.3,4.7-4.8,6.7-7.6c0.5-0.7,0.4-0.7,0.7-0.7c0.1,0,0.1,0,0.2,0.1c0.7,2,1.3,4.1,1.6,6.3c0.5,3.7,0.2,7.8-1.3,11.1
				c-3.4,5.6-7.6,10.7-11.2,16.2C413.4,191.3,409.4,196.5,407.3,200.9z M405.2,191.1c0.1-1,0.2-2,0.4-3c0.5-2.5,1.2-5.1,2.2-7.4
				c1.1-2.6,2.5-5.1,4.1-7.4c1.2-1.6,2.5-3.1,3.7-4.6c0.4-0.5-0.2-1.4-0.8-0.9c-3.9,3-6.7,7.8-8.4,12.3c-0.9,2.5-1.6,5.1-1.8,7.8
				c-0.2,1.7-0.6,3.9,0,5.6c0,0.1,0.2,0.1,0.2,0C405.2,192.6,405.2,191.8,405.2,191.1z"/>
			<path class="st0" d="M411.1,204.5c-0.5,0.4-1,0.8-1.6,1.3c0.2-0.5,0.4-1,0.6-1.5c6.2-16.4,21-27.8,36.5-34.9l1.8-0.8
				c0,0,0.9-0.3,0.7-0.3c-0.9,5.1-2.2,10.2-4.8,14.7c-2.6,4.6-6.6,8.3-11.5,10C425.1,195.2,417.3,199.1,411.1,204.5z M439,174.7
				c-5.3,2.7-10.2,6.3-14.6,10.4c-2.2,2-4.3,4.3-6.1,6.7c-1.7,2.3-3.3,4.7-4.3,7.5c-0.1,0.2,0.2,0.3,0.3,0.1c1.6-2.5,3.2-5,5-7.4
				c1.8-2.2,3.8-4.2,5.9-6.2c4.4-4,9.3-7.1,14.1-10.5C439.7,175,439.4,174.5,439,174.7z"/>
			<path class="st0" d="M413.3,258.3c3.6,3.7,5.7,8.6,6.8,13.6c-1.7-4.2-4.1-8.2-6.9-11.8c-2.5-3.3-5.8-5.9-9.4-8
				C407.4,252.9,410.7,255.6,413.3,258.3z"/>
			<path class="st0" d="M355,191.5c0-0.1-0.1-0.1-0.2,0c-2.3,9.1-3.1,18.5-2.9,27.9c-0.2,6.3,0.1,12.7,2.1,18.7
				c-1.3-0.5-2.4-1.3-3.1-2.5c-1.1-1.8-0.5-4.1-1.3-6.1c-0.8-2.3-2-4.6-3.6-6.3c-0.6-0.7-1.2-1.5-1.5-2.3c-0.6-1.6-0.6-3.7,0.4-5.1
				c0.3-0.5,0.6-1.1,0.9-1.8c1.7-3.8-0.1-7.6-1.1-11.2c0.2-2.1,1.3-4.2,2.4-6.2c1.7-3,2.3-6.8,2.4-10.1c0.4-3.2,2.9-5.7,4.3-8.6
				c0.6-1.2,1-2.5,1.4-3.8c0.9,2.2,2.1,4.3,3.6,6.1c2.3,2.3,2.5,5.1,2.7,8.2c0.2,4.2,2.6,8.5,4,12.2c0.5,1.6,1.1,3.8,0.8,5.4
				c-0.2,1-0.8,1.7-1.1,2.8c-1,3.6,0.9,6.9,2.3,9.9c0,0,0.1,0.3,0.1,0.3c0-0.1-0.1-0.2-0.1-0.3c0.1,0.3,0.1,0.4,0.2,0.6
				c0.3,1.4,0.4,3.4-0.2,4.6c-0.9,1.4-3.2,3.4-4,5.3c-2.4,3.9-0.8,9-5.2,9.4c-0.3-6.6-1.5-13-2.5-19.6
				C354.8,209.9,354.7,200.7,355,191.5z"/>
			<path class="st0" d="M434.5,224.5c-4.9-0.2-9.7-0.6-14.6-1.1c-2-0.4-4-0.8-6-1.3c8.5-2.2,19.2-4.6,26.3-8.5
				c8.1-4.5,17-6,25.7-2.2c0.5,0.2,1.1,0.3,1.1,0.9c0,0.5-0.2,0.7-0.6,1c-7.8,6.4-17.4,10.4-27.4,11.1
				C437.5,224.4,436,224.4,434.5,224.5z M451.8,211.6c1.4-0.2,2.7-0.3,4.1-0.3c1.4,0,2.8,0.2,4.2,0.1c0.4,0,0.6-0.6,0.2-0.8
				c-2.4-0.9-5.4-0.8-7.9-0.4c-2.6,0.4-5.1,1.2-7.4,2.6c-2.3,1.4-4.5,2.8-7,3.8c-2.9,1.2-6,2-9,2.5c-0.2,0-0.2,0.4,0,0.4
				c5.6-0.5,10.7-2.5,15.5-5.3C446.7,213,449.2,212.1,451.8,211.6z"/>
			<path class="st0" d="M403.9,218.8c3.5-4.8,7-9.7,11.7-13.4c13-10.6,30.3-14.4,46.8-14.9l2.3,0c0.7,0,0.7,0,0.7,0.4
				c0,0.1-0.1,0.1-0.2,0.2c-4.5,3.4-8.5,7.6-13.2,10.9C438.3,212.1,420.9,218.8,403.9,218.8z M437.2,196c-3.1,0.8-6,1.7-8.9,3
				c-8.5,3.6-16.1,9.5-21,17.4c-0.1,0.2,0.1,0.3,0.3,0.2c3.9-4.1,7.7-8.3,12.3-11.6c2.5-1.8,5.3-3.2,8.1-4.5c3.1-1.4,6.2-2.8,9.3-4
				C437.6,196.4,437.4,196,437.2,196z M437.3,209.4c4.2-2.1,8.3-4.3,12.2-6.9c2.2-1.4,4.3-2.9,6.4-4.4c1.8-1.4,3.7-2.7,5.4-4.3
				c0.4-0.4-0.2-1.1-0.7-0.8c-2,1.3-3.8,2.8-5.7,4.2c-2,1.4-4,2.9-6,4.2c-3.8,2.6-7.8,5.1-11.7,7.6
				C436.9,209.1,437.1,209.5,437.3,209.4z"/>
			<path class="st0" d="M417.8,226.2c7.3,1.2,14.8,1.6,22,0.7c1.1,0,2.2,0,3.3,0c8.1-0.4,15.8,3.5,20.6,9.9c0,0,0.5,0.7,0.5,0.7
				c0,0.1,0.1,0.2,0,0.2c-0.1,0.3-0.5,0.2-0.8,0.2c-4.7-0.4-9.4,0.6-14,1.5c-12.4,2.2-24.6-4.2-32.6-13.4
				C417.1,226.1,417.4,226.1,417.8,226.2z M430.1,235.3c6.9,4.8,16.1,3.9,23.9,2.3c0.5-0.1,0.5-0.9-0.1-0.8c-4,0.4-7.9,1.1-12,1
				c-4-0.1-8.2-0.9-11.7-2.8C430.1,234.9,430,235.1,430.1,235.3z"/>
			<path class="st0" d="M408.1,247.3c8.1,3.7,12,12.9,12.8,21.5c-1.7-5.7-4.8-10.9-9.5-14.7c-3.3-2.9-7.9-5-12.4-4.2
				c-1.1,0.1-1.3,1.8-0.2,2.1c5.1,1.8,10,4.6,13.5,8.8c3.6,4.1,6.4,9,8.1,14.2c-0.4,0.1-0.7-0.2-1.1-0.4c-2.8-2.1-4.4-5.3-6.7-7.9
				c-4.8-5.3-11.2-8.5-17.6-11.4c-0.9-0.5-2,0.7-1.4,1.6c2.5,3.9,5.6,7.4,9.5,10c3.5,2.3,7.3,3.9,10.9,6c1.6,0.9,3.2,1.8,4.8,2.7
				c-10.4,0-23.7-4.3-27.9-14.5c-0.2-0.5-0.7-0.7-1.2-0.5c-0.4,0.2-0.6,0.6-0.6,1c0.2,1.6,0.7,3.1,1.3,4.6
				c4.5,9.6,15.7,11.6,25.5,11.4c-3.2,1-6.4,1.5-9.8,1.4c-5.4,0.1-10.9-1.7-15-5.1c-6.1-4.9-8.8-14.6-4.4-21.3
				C391.4,246.1,401,243.6,408.1,247.3z M399.5,253.4c2.6,1.3,5.1,2.7,7.4,4.4c2.1,1.6,4,3.4,5.8,5.3c0.2,0.3,0.7-0.1,0.5-0.4
				c-3.4-4.4-8.2-7.9-13.4-9.7C399.4,252.9,399.2,253.3,399.5,253.4z M398.6,269.4c2.4,1.9,5.2,3.2,8.1,4.1c1.6,0.5,3.2,1,4.8,1.3
				c1.2,0.2,2.4,0.4,3.6,0.2c0.2,0,0.2-0.3,0-0.4c-1.2-0.3-2.4-0.2-3.6-0.4c-1.5-0.2-3-0.4-4.5-0.9c-3-0.9-5.6-2.5-8.2-4.2
				C398.6,268.9,398.4,269.2,398.6,269.4z M396.6,247.4c2.1-0.4,4.2-0.6,6.2-0.4c1.1,0.1,2.1,0.4,3.1,0.7c1,0.3,2,0.7,2.9,1.2
				c0.1,0.1,0.2-0.1,0.1-0.2c-0.5-0.3-0.9-0.7-1.4-0.9c-0.5-0.3-1-0.5-1.6-0.7c-1-0.3-2-0.6-3.1-0.7c-2.1-0.3-4.4-0.2-6.4,0.6
				C396.4,247.1,396.4,247.4,396.6,247.4z"/>
			<path class="st0" d="M397,258.3c6.9,2.5,13.5,6.1,17.6,12.2c0.9,1.2,1.9,2.4,3,3.4c-2.7-1.6-5.6-3.4-8.4-4.9
				C404.1,266.5,399.9,263,397,258.3z"/>
			<path class="st0" d="M395.5,208.3c0.6-3.3,0.5-7.1,2-10c0.3-0.4,0.6-0.6,1-0.6c0.4,0,0.7,0.4,1,0.6c0.8,0.9,1.4,1.9,1.9,3
				c0.3,1.7,0.7,3.8,1.5,5.3c0.5,4-0.4,8.2-2.6,11.5c0,0-0.2,0.3-0.2,0.3c-1,1.2-0.2,3.2,1.3,3.4c7.5,1.8,14.6,6.4,17.6,13.7
				c0,0,0,0.1,0.1,0.2c-0.2,0.2-0.5,0.5-0.9,0.4c-0.8-0.2-1.8-0.8-2.8-1.4c-3-1.9-6.5-3.9-10.3-4.3c-1.4-0.1-1.9-0.2-2.8-0.5
				c-3.6-1.6-7.1-4.9-8.5-8.7C393.3,217,395.2,212.6,395.5,208.3z M401.2,228.5c0.6,0.9,1.6,1.4,2.6,1.5c0.6,0.1,1.2,0.1,1.7,0.2
				c0.6,0,1.1,0.1,1.7,0.2c0.3,0,0.5-0.4,0.2-0.5c-1-0.5-2.1-0.3-3.2-0.4c-1-0.1-2.2-0.3-2.9-1.1
				C401.3,228.3,401.1,228.4,401.2,228.5z M401.3,210.3c0,0.4,0.5,0.6,0.7,0.2c0.7-1.8,0.4-3.9,0-5.8c-0.2-1-0.5-1.9-1-2.8
				c-0.4-0.8-0.8-1.8-1.6-2.3c-0.1-0.1-0.3,0-0.2,0.1c0.3,0.9,0.9,1.6,1.3,2.4c0.4,0.8,0.7,1.7,0.9,2.6c0.2,0.9,0.3,1.9,0.2,2.8
				C401.5,208.5,401.4,209.4,401.3,210.3z"/>
			<path class="st0" d="M365.7,287.2c0,0,0-0.1,0-0.1c0.1-0.7,0.3-1.4,0.4-2.2c2.2,2,4,4.2,5.4,6.7c0.1,0.2,0.2,0.4,0.3,0.5
				c0.2,0.4,0.4,0.7,0.6,1.1c0.2,0.4,0.5,0.8,0.7,1.3c0.1,0.1,0.1,0.3,0.2,0.4c5,10.8,4.4,24.1,1.7,35.5c-0.1,0.4-0.1,0.3-0.1,0.3
				c-0.1,0-0.1,0-0.1,0l-0.4-0.7c-5.1-8.4-8.5-18.2-9.3-28.1C365.1,297,365.6,291.1,365.7,287.2z M373.9,305.1
				c0.8,4.5,0.8,9,0.5,13.6c0,0.6,0.8,0.8,0.9,0.2c0.8-4.6,0.5-9.5-0.4-14c-0.9-4.7-2.4-9.2-4.9-13.2c-0.1-0.1-0.3,0-0.3,0.1
				C371.5,296,373.1,300.5,373.9,305.1z"/>
			<path class="st1" d="M382.8,251.8c0,0.2-0.4,0.3-0.5,0c-0.2-0.7,0-1.6,0.3-2.3c0.3-0.6,0.8-1.5,1.6-1.7c0.1,0,0.2,0.1,0.2,0.2
				c-0.2,0.3-0.4,0.6-0.6,0.8c-0.2,0.3-0.4,0.6-0.5,0.9c-0.1,0.3-0.2,0.6-0.3,1C382.9,251.1,382.9,251.5,382.8,251.8z"/>
			<path class="st1" d="M403,246.4c1,0.1,2.1,0.4,3.1,0.7c0.5,0.2,1,0.4,1.6,0.7c0.5,0.3,0.9,0.6,1.4,0.9c0.1,0.1,0,0.2-0.1,0.2
				c-0.9-0.5-1.9-0.8-2.9-1.2c-1-0.4-2.1-0.6-3.1-0.7c-2.1-0.3-4.2,0-6.2,0.4c-0.2,0-0.2-0.2-0.1-0.3
				C398.6,246.3,400.8,246.2,403,246.4z"/>
			<path class="st1" d="M399.7,253c5.2,1.8,10,5.3,13.4,9.7c0.2,0.3-0.2,0.7-0.5,0.4c-1.8-1.9-3.7-3.7-5.8-5.3
				c-2.3-1.7-4.8-3.2-7.4-4.4C399.2,253.3,399.4,252.9,399.7,253z"/>
			<path class="st1" d="M398.8,269c2.6,1.7,5.2,3.3,8.2,4.2c1.4,0.4,3,0.7,4.5,0.9c1.2,0.2,2.4,0.1,3.6,0.4c0.2,0.1,0.2,0.3,0,0.4
				c-1.2,0.2-2.4,0-3.6-0.2c-1.7-0.2-3.2-0.7-4.8-1.3c-2.9-0.9-5.7-2.2-8.1-4.1C398.4,269.2,398.6,268.9,398.8,269z"/>
			<path class="st1" d="M369.7,291.7c-0.1-0.2,0.2-0.3,0.3-0.1c2.5,4,4,8.6,4.9,13.2c0.9,4.6,1.2,9.4,0.4,14
				c-0.1,0.6-0.9,0.4-0.9-0.2c0.3-4.6,0.3-9.1-0.5-13.6C373.1,300.5,371.5,296,369.7,291.7z"/>
			<path class="st1" d="M385,289.7c1.3,0.4,2.6,0.8,3.9,1.4c1.3,0.5,2.5,1.1,3.7,1.8c1.2,0.7,2.4,1.5,3.6,2.3c0.1,0.1,0,0.2-0.1,0.1
				c-2.4-1.2-4.9-2.3-7.4-3.2c-1.3-0.5-2.6-0.9-4-1.3c-1.3-0.3-2.7-0.4-3.9-0.9c-0.4-0.2-0.2-0.7,0.1-0.8
				C382.3,288.9,383.8,289.4,385,289.7z"/>
			<path class="st1" d="M380.2,308c0.5,1.1,1,2.3,1.7,3.3c0.7,1,1.5,1.9,2.4,2.8c2,1.8,4.2,3.3,6.4,4.8c0.1,0.1,0,0.3-0.1,0.2
				c-2.5-1.4-4.9-2.8-6.9-4.8c-1.7-1.6-3.4-3.8-3.9-6.1C379.7,307.9,380.1,307.8,380.2,308z"/>
			<path class="st1" d="M362.4,305.4c0.8,3.6,1.4,7.2,1.3,10.9c-0.1,3.2-0.7,7.3-3,9.7c-0.3,0.3-0.7,0-0.6-0.4
				c0.7-1.6,1.5-3.1,1.9-4.8c0.4-1.6,0.6-3.4,0.7-5.1c0.1-3.4-0.5-6.8-0.8-10.2C361.8,305.2,362.3,305.1,362.4,305.4z"/>
			<path class="st1" d="M345.8,313.7c-0.1,0.3-0.5,0.4-0.6,0c-0.4-1.4,0-3.1,0.3-4.5c0.3-1.6,0.9-3.1,1.6-4.6c1.4-2.9,3.4-5.4,6-7.3
				c0.1-0.1,0.2,0.1,0.1,0.2c-2.2,2.1-4,4.6-5.3,7.4c-0.7,1.4-1.1,2.9-1.5,4.4C346.1,310.8,346.2,312.3,345.8,313.7z"/>
			<path class="st1" d="M367.4,281.2c1.6,0.9,3.1,2.1,4.8,2.8c1.5,0.5,3.1,0.6,4.5,0.1c0.3-0.1,0.6,0.3,0.3,0.5
				c-3.3,2-7.6-0.5-10-2.8C366.8,281.5,367.1,281,367.4,281.2z"/>
			<path class="st1" d="M404.7,193.3c-0.6-1.6-0.2-3.9,0-5.6c0.3-2.7,0.9-5.3,1.8-7.8c1.7-4.5,4.5-9.3,8.4-12.3
				c0.6-0.4,1.2,0.4,0.8,0.9c-1.2,1.5-2.5,3-3.7,4.6c-1.7,2.3-3,4.8-4.1,7.4c-1,2.4-1.7,4.9-2.2,7.4c-0.2,1-0.3,2-0.4,3
				c-0.1,0.8-0.1,1.5-0.4,2.3C404.8,193.4,404.7,193.4,404.7,193.3z"/>
			<path class="st1" d="M425.2,185.8c-2.1,1.9-4.1,3.9-5.9,6.2c-1.9,2.3-3.4,4.9-5,7.4c-0.1,0.2-0.3,0.1-0.3-0.1
				c0.9-2.7,2.5-5.2,4.3-7.5c1.8-2.4,3.9-4.6,6.1-6.7c4.4-4,9.3-7.6,14.6-10.4c0.4-0.2,0.7,0.3,0.4,0.5
				C434.6,178.6,429.6,181.8,425.2,185.8z"/>
			<path class="st1" d="M400.5,202.2c-0.4-0.8-1-1.6-1.3-2.4c0-0.1,0.1-0.2,0.2-0.1c0.7,0.6,1.2,1.5,1.6,2.3c0.4,0.9,0.8,1.8,1,2.8
				c0.4,1.9,0.7,4,0,5.8c-0.1,0.4-0.7,0.1-0.7-0.2c0.1-0.9,0.2-1.8,0.3-2.7c0-1,0-1.9-0.2-2.8C401.1,203.9,400.8,203,400.5,202.2z"
				/>
			<path class="st1" d="M428,200.5c-2.8,1.3-5.6,2.7-8.1,4.5c-4.7,3.3-8.4,7.5-12.3,11.6c-0.1,0.1-0.4,0-0.3-0.2
				c4.9-7.9,12.5-13.7,21-17.4c2.9-1.2,5.9-2.2,8.9-3c0.3-0.1,0.4,0.3,0.1,0.4C434.1,197.7,431,199.1,428,200.5z"/>
			<path class="st1" d="M448.8,201.4c2-1.4,4-2.8,6-4.2c1.9-1.4,3.7-2.9,5.7-4.2c0.5-0.3,1.1,0.3,0.7,0.8c-1.6,1.6-3.5,3-5.4,4.3
				c-2.1,1.5-4.2,3-6.4,4.4c-3.9,2.6-8,4.8-12.2,6.9c-0.2,0.1-0.4-0.3-0.2-0.4C441,206.5,444.9,204,448.8,201.4z"/>
			<path class="st1" d="M428.9,219.6c-0.3,0-0.3-0.3,0-0.4c3.1-0.6,6.1-1.4,9-2.5c2.5-1,4.7-2.5,7-3.8c2.3-1.3,4.8-2.2,7.4-2.6
				c2.5-0.3,5.5-0.5,7.9,0.4c0.4,0.2,0.2,0.8-0.2,0.8c-1.4,0.1-2.8-0.1-4.2-0.1c-1.4,0-2.8,0.1-4.1,0.3c-2.6,0.4-5.1,1.3-7.4,2.7
				C439.6,217.1,434.4,219.1,428.9,219.6z"/>
			<path class="st1" d="M401.4,228.4c0.7,0.8,1.8,1,2.9,1.1c1.1,0.1,2.2-0.1,3.2,0.4c0.3,0.1,0.1,0.5-0.2,0.5
				c-0.6-0.1-1.1-0.1-1.7-0.2c-0.6,0-1.2-0.1-1.7-0.2c-1-0.2-2.1-0.6-2.6-1.5C401.1,228.4,401.3,228.3,401.4,228.4z"/>
			<path class="st1" d="M430.3,235c3.5,1.9,7.7,2.7,11.7,2.8c4,0.1,8-0.6,12-1c0.5-0.1,0.6,0.7,0.1,0.8c-7.9,1.6-17,2.5-23.9-2.3
				C430,235.1,430.1,234.9,430.3,235z"/>
			<path class="st1" d="M243,276.6c25.8-5.2,51.7-10.1,76.8-18c12.6-3.9,25-8.6,37-13.9c-0.5-0.9-0.9-1.8-1.3-2.8
				c-3-0.5-6-2.2-7.5-4.7c-0.7-1.2-1.1-2.7-1.1-3.9c-0.1-2.2-0.7-3.8-1.7-5.7c-0.7-1.4-2-2.5-2.9-3.9c-1.5-2.2-1.8-5.1-1-7.7
				c0.3-1.2,1.1-2,1.5-3.1c0.5-1.3,0.8-2.7,0.5-4.1c-0.3-1.9-1.3-3.8-1.5-5.8c0.2-5.1,4.4-8.5,4.9-13.5c0.2-2,0.4-4.8,1.6-6.8
				c2.2-3.6,4.7-6.7,5.6-10.9l0.1-0.4c0,0,0-0.1,0-0.1c0-0.4,0.5-0.9,0.8-0.9c0.2,0,0.6,0.2,0.7,0.5c0.2,0.4,0.1,0.3,0.2,0.4
				l0.1,0.4c0.6,1.7,1.4,3.3,2.4,4.7c1.9,2.6,4.8,4.9,5.2,8.4c0,0,0.4,3.1,0.4,3.1c0.5,5.4,4.1,9.5,5.1,14.8c0.3,1,0.5,2.5,0.2,3.7
				c-0.1,1.1-0.8,2.2-1.1,3.1c-0.7,2.9,1.3,5.5,2.4,8l-0.1-0.3c0.1,0.1,0.1,0.2,0.1,0.3c0.1,0.3,0.2,0.6,0.3,0.9
				c0.5,2.3,0.7,4.5-0.4,6.8c-0.7,1.4-1.7,2.2-2.3,3c-2.2,2.4-2.7,5.2-3.3,8.4c-0.8,3.3-3.5,4.9-6.4,5.1c0,0.7,0,1.4,0,2
				c4-1.8,7.9-3.7,11.8-5.6c0.1-0.1,0.2-0.1,0.3-0.2c7.3-3.7,14.5-7.6,21.5-11.8c0.4-0.2,0.8-0.3,1.2-0.2c-0.7-1.3-1.3-2.7-1.7-4.1
				c-0.5-1.2-0.8-2.7-0.5-4c0.7-3.6,2-6.7,2.9-10.3c1.1-3.4,1.1-7.1,2.9-10.3c1.5-1.8,3.1-1.2,4.5,0.3c-0.8-7.6,0.3-15.6,3.7-22.5
				c2.3-4.9,6.1-9.1,10.2-12.6c1.8-1.4,4.3-3.5,5.9-5.1c1.4-1.4,2.6-2.9,3.8-4.4c0.4-0.7,1.3-1.6,2.4-1.4c0.7,0,1.5,0.6,1.7,1.3
				c0,0,0.2,0.7,0.2,0.7c1.5,4.5,2,9.4,1,14.1c-0.4,2.7-1.8,5.3-3.4,7.4c-1.9,2.9-3.9,5.8-5.8,8.8c4.3-4,9.1-7.5,14.2-10.5
				c4.1-2.5,8.3-4.7,12.7-6.5c0.4-0.2,0.6-0.3,1.1-0.4c1-0.2,1.9,0.8,1.7,1.7l0,0.1l-0.1,0.5c-1.2,8-4.4,16.6-10.7,22
				c8.2-1.8,16.6-2.4,24.9-2.4c2.1-0.3,3.6,2.2,2.2,3.9c-3.5,4.7-8.3,8.3-12.9,11.9c-2,1.5-4,2.8-6.1,4.2c4.9-1.2,10-1.4,14.8,0.3
				c1.3,0.4,2.5,0.8,3.7,1.4c1.2,0.4,2.6,1.2,2.5,2.7c0,1-0.8,1.7-1.5,2.2c-5.8,5-12.3,8.3-19.2,10.2c6.6,1.3,12.5,5.3,16.5,10.8
				l0.6,0.7c0.6,0.8,0.2,2.1-0.8,2.5c-0.3,0.2-0.8,0.1-1.1,0.1c-4.7-0.2-9.1,1-13.7,2c-10,2.1-20.6-1.1-28.9-7.2
				c0.1,0.2,0.2,0.4,0.3,0.6c0.2,0.5,0.4,1.1,0.2,1.5c-1.5,3.3-4.7,1.5-6.8,0.4c-2.1-1.1-4.1-1.8-6.3-2.2c-2.4-0.6-4.8,0.1-7.2-0.8
				c-2.8-1.1-5-3-6.7-5.4c-0.1,0.4-0.3,0.8-0.8,1c-6.8,3.8-13.7,7.4-20.7,11c1.5,3.4,4.5,6.1,8.2,7.5c0.7-1.4,1.7-2.7,3.3-3.2
				c2.5-0.7,4.9-0.6,7.1,0.7c0.1,0.1,0.2,0.2,0.3,0.4c5.3-2.7,11.9-2.9,17.2-0.1c8.1,3.9,12.3,12.7,13.3,21.2
				c0.3,2.2,0.4,4.5,0.2,6.7c0,0.2,0,0.4-0.2,0.6c-0.3,0.5-0.9,0.6-1.3,0.3c0.1,0.2,0.1,0.4,0.2,0.5c0,0.1,0.1,0.2,0,0.4
				c-0.2,0.2-0.3,0.2-0.3,0.2c-0.2,0.1-0.4,0.1-0.6,0.1c0.1,0.3-0.1,0.8-0.5,0.8c-9.1,0.2-20.3-2.7-26.9-9.6
				c3.3,5.9,10.5,8.7,17,9.5c2.9,0.3,5.9,0.1,8.9,0.2c0.2,0,0.4,0.1,0.5,0.3c0.3,0.7-0.3,0.9-0.8,1.1c-3.8,1.8-8,2.7-12.1,2.8
				c-8.6,0.3-17.9-4.1-21.8-12.1c-1.6-3.4-2.3-7.3-1.7-11c-0.4,0.1-0.8,0.1-1.2-0.3c-0.5-0.5-0.6-0.9-0.8-1.3
				c-0.6-1.8-0.8-3.7-0.5-5.7c0.1-0.4,0.2-0.9,0.3-1.4c-4.1-0.9-8-3.6-10.4-7.4c-5.7,2.8-11.5,5.6-17.3,8.2c-1.2,0.5-2.4,1-3.5,1.6
				c7.7,5.9,13.6,14.4,15.7,23.9c0.1,0,0.3,0,0.4,0c6.5-0.4,13.3,3.3,15.8,9.4c0.2,0.4,0.1,0.9-0.3,1.3c-0.4,0.3-0.8,0.5-1.3,0.7
				c7.7,0.7,15.6,3.7,20.4,10c2,2.8,3.8,5.5,6.5,7.7c0.2,0.2,0.5,0.4,0.6,0.8c0.4,0.9-0.4,1.9-1.3,2c-2.8,0.3-5.7,0.3-8.5-0.3
				c-3.5-0.7-6.7-2.5-9.3-4.9c-0.8-0.7-1.6-1.5-2.4-2.2c4,6,6.6,13,8,20.1c0.1,0.3,0.3,1.6,0.4,1.9c0.2,0.7-0.4,1.5-1.1,1.5
				c-0.5,0.1-0.7-0.1-1-0.2c-5.2-1.8-10.6-5-13.4-9.8c0,5.4-0.6,10.9-1.8,16.1c-0.2,0.7-0.3,2.1-0.9,2.7c-0.7,0.7-2.1,0.5-2.6-0.4
				l-0.4-0.7c-1.9-3.2-3.6-6.6-5.1-10.1c-0.7-1.6-1.2-3.2-1.8-4.8c-0.2,4.6-1.6,9-4.6,12.6c-0.7,1.2-2.4,1.6-3.2,0.3
				c-1.7-3.6-2.7-7.2-3.3-10.9c-0.3-2.1-0.4-4.1-0.3-6.2c-1.1,2.5-2.7,4.7-4.7,6.5c-2.1,1.8-4.4,3.2-7,4.2c-0.8,0.4-1.8-0.5-1.5-1.4
				c2.2-6.3,0.7-13.6,4.7-19.4c2-3.3,4.6-6.2,7.6-8.6c-0.4,0-0.7,0.1-1.1,0.1c-0.4,0-0.8-0.2-1-0.5c-0.4-0.4-0.3-1.1-0.2-1.7
				c0.6-4.1,2.5-8,5.4-10.9c1.7-2.1,4.3-4,7-4.6c-2.7-9.4-9.3-17.2-17.4-22.4c-0.1-0.1-0.2-0.2-0.3-0.3c-7.3,3.2-14.7,6.2-22.1,9
				c0.1,1.6,0.2,3.2,0.1,4.8c3.2,1.9,5.8,5.2,6.3,8.6c0.6,3-1.1,5.7-1.3,8.4c-0.1,1.2,0,2.6,0.1,3.8c0.2,1.9,1.2,3.8,1.5,5.9
				c0.6,3.1-0.3,6.5-2.2,9c-0.9,1.2-2.2,1.8-3.1,2.8c-1.2,1.3-2.2,2.9-2.5,4.7c-0.5,2.3-0.3,4.9-0.8,7.3c-2.5,5.7-9,7.7-11.8,13.2
				c-1.1,2.3-2.6,5.3-4.8,7c-2.1,1.9-4.6,2.9-6.7,4.8c-1.8,1.5-3.3,3.3-4.7,5.2l-0.3,0.4c0,0-0.1,0.1-0.1,0.1
				c-0.1,0.4-0.8,0.7-1.1,0.6c-0.2-0.1-0.5-0.5-0.5-0.8c0-0.4,0-0.3,0-0.5c0,0,0-0.5,0-0.5c0.1-2.2-0.1-4.4-0.6-6.6
				c-0.5-2.6-1.9-4.9-2.2-7.6c-0.5-2.7,0.6-5.6,1.2-8.1c1.9-6.4-0.4-12.8,1-19.4c0.2-1.3,0.6-2.9,1.4-4.2c0.7-1.2,1.9-2.1,2.6-3
				c2.3-2.9,0.9-8.3,1-10.6c0.4-3.2,1.2-6.1,3.6-8.5c2.5-2.1,4.8-2.3,7-4.3c3.4-2.5,4.3-8,8.9-9.2c1.8-0.5,3.6-0.3,5.4,0.2
				c0.4-1,0.7-2.1,1.1-3.1c-32.7,12.2-66.9,20.5-102,19.2c-0.4,0-0.4-0.6,0-0.6C220.7,280.9,243,276.6,243,276.6z M363.3,229.3
				c0.8-1.9,3.1-3.8,4-5.3c0.6-1.2,0.5-3.2,0.2-4.6c-0.1-0.3-0.1-0.3-0.2-0.6c0,0,0.1,0.2,0.1,0.3c0,0-0.1-0.3-0.1-0.3
				c-1.5-3.1-3.3-6.3-2.3-9.9c0.3-1.1,0.9-1.9,1.1-2.8c0.3-1.6-0.3-3.8-0.8-5.4c-1.4-3.7-3.7-8-4-12.2c-0.2-3.1-0.4-5.8-2.7-8.2
				c-1.5-1.8-2.8-3.8-3.6-6.1c-0.4,1.3-0.8,2.6-1.4,3.8c-1.3,2.9-3.8,5.4-4.3,8.6c-0.1,3.3-0.7,7.1-2.4,10.1c-1.2,2-2.2,4-2.4,6.2
				c1.1,3.6,2.8,7.4,1.1,11.2c-0.2,0.6-0.6,1.3-0.9,1.8c-0.9,1.3-0.9,3.5-0.4,5.1c0.3,0.8,0.8,1.6,1.5,2.3c1.6,1.7,2.9,4,3.6,6.3
				c0.8,2,0.3,4.4,1.3,6.1c0.7,1.2,1.8,2,3.1,2.5c-2-6-2.2-12.4-2.1-18.7c-0.2-9.4,0.7-18.8,2.9-27.9c0-0.1,0.2-0.1,0.2,0
				c-0.3,9.3-0.3,18.5,0.6,27.6c1,6.5,2.1,13,2.5,19.6C362.5,238.4,360.9,233.2,363.3,229.3z M428.6,160.1c-0.3-2.1-0.8-4.2-1.6-6.3
				c0-0.1,0-0.1-0.2-0.1c-0.3,0-0.2,0-0.7,0.7c-2,2.7-4.2,5.3-6.7,7.6c-2.9,2.4-6.1,5.2-8.3,8.1c-7.6,9.4-9.3,24.4-5.5,35
				c0.6-1.3,1.1-2.9,1.7-4.3c2-4.4,6-9.5,8.7-13.5c3.6-5.4,7.8-10.6,11.2-16.2C428.8,167.8,429.1,163.7,428.6,160.1z M449.1,168.2
				c0.1,0-0.7,0.3-0.7,0.3l-1.8,0.8c-15.5,7.1-30.3,18.6-36.5,34.9c-0.1,0.5-0.3,1-0.6,1.5c0.6-0.5,1.2-1,1.6-1.3
				c6.2-5.3,14-9.3,21.7-11.6c5-1.7,8.9-5.4,11.5-10C446.9,178.4,448.2,173.3,449.1,168.2z M465.2,191c0.1,0,0.2-0.1,0.2-0.2
				c-0.1-0.3-0.1-0.4-0.7-0.4l-2.3,0c-16.5,0.5-33.8,4.3-46.8,14.9c-4.7,3.7-8.2,8.6-11.7,13.4c17,0,34.4-6.7,48.1-17
				C456.7,198.6,460.7,194.4,465.2,191z M466.4,213.2c0.3-0.3,0.5-0.4,0.6-1c0-0.6-0.7-0.7-1.1-0.9c-8.7-3.8-17.6-2.2-25.7,2.2
				c-7.1,3.8-17.8,6.2-26.3,8.5c2,0.5,4,1,6,1.3c4.9,0.5,9.7,0.9,14.6,1.1c1.5,0,3-0.1,4.5-0.2C449,223.5,458.7,219.5,466.4,213.2z
				 M449.4,239.4c4.6-0.9,9.3-1.9,14-1.5c0.2,0,0.7,0.1,0.8-0.2c0-0.1,0-0.2,0-0.2c0,0-0.5-0.7-0.5-0.7c-4.8-6.4-12.5-10.3-20.6-9.9
				c-1.1,0-2.2,0-3.3,0c-7.2,0.9-14.7,0.5-22-0.7c-0.3,0-0.7,0-1-0.1C424.8,235.3,437,241.6,449.4,239.4z M402.5,230
				c0.9,0.4,1.4,0.4,2.8,0.5c3.8,0.4,7.3,2.3,10.3,4.3c1,0.6,2,1.2,2.8,1.4c0.4,0.1,0.7-0.2,0.9-0.4c0-0.1-0.1-0.2-0.1-0.2
				c-3-7.3-10.2-12-17.6-13.7c-1.6-0.2-2.3-2.2-1.3-3.4c0,0,0.2-0.3,0.2-0.3c2.2-3.3,3.1-7.5,2.6-11.5c-0.8-1.5-1.2-3.7-1.5-5.3
				c-0.5-1.1-1.2-2.1-1.9-3c-0.3-0.3-0.6-0.7-1-0.6c-0.4,0-0.7,0.2-1,0.6c-1.6,2.9-1.4,6.7-2,10c-0.3,4.4-2.2,8.8-1.5,13.1
				C395.4,225.1,398.9,228.4,402.5,230z M390.2,246.5C390.2,246.5,390.2,246.5,390.2,246.5C390.2,246.4,390.2,246.4,390.2,246.5z
				 M391.2,274c4.1,3.4,9.6,5.2,15,5.1c3.3,0.1,6.6-0.5,9.8-1.4c-9.7,0.3-21-1.8-25.5-11.4c-0.6-1.5-1.1-3-1.3-4.6
				c-0.1-0.4,0.2-0.8,0.6-1c0.5-0.2,1,0,1.2,0.5c4.2,10.3,17.5,14.6,27.9,14.5c-1.6-0.9-3.2-1.8-4.8-2.7c-3.6-2.1-7.4-3.8-10.9-6
				c-3.9-2.6-7-6.1-9.5-10c-0.6-0.9,0.4-2.1,1.4-1.6c6.4,2.9,12.9,6.1,17.6,11.4c2.3,2.6,3.9,5.8,6.7,7.9c0.3,0.2,0.7,0.4,1.1,0.4
				c-1.7-5.2-4.5-10-8.1-14.2c-3.5-4.2-8.4-7-13.5-8.8c-1.1-0.3-0.9-2,0.2-2.1c4.5-0.8,9.1,1.3,12.4,4.2c4.7,3.8,7.8,9,9.5,14.7
				c-0.7-8.6-4.7-17.8-12.8-21.5c-7.1-3.7-16.7-1.2-21.2,5.3C382.4,259.4,385.1,269,391.2,274z M417.6,274c-1.1-1.1-2-2.3-3-3.4
				c-4.1-6.2-10.8-9.8-17.6-12.2c2.9,4.7,7.1,8.2,12.2,10.8C412,270.6,414.8,272.4,417.6,274z M420.1,271.9c-1.1-5-3.1-10-6.8-13.6
				c-2.6-2.7-5.9-5.4-9.6-6.2c3.6,2.1,6.9,4.7,9.4,8C415.9,263.8,418.4,267.7,420.1,271.9z M381.7,250.7c-0.3,1.6,0.1,3.6,0.9,5
				c0.8-1,1.5-3,2.3-4.2c0.8-1.3,1.6-2.4,2.9-3.4c0.5-0.4,1-0.6,1.5-0.9c0.2-0.2,0.4-0.3,0.6-0.5c0,0,0.1-0.1,0.1-0.1
				C386.7,245.7,382.6,246.9,381.7,250.7z M389.1,300.8c4.4,4.2,10.8,5.5,16.5,4.7c-2.7-2.2-4.7-5.2-6.7-8
				c-5.3-7.1-14.8-9.9-23.4-9.8c-0.4,0-0.7,0-1.1,0c-0.2,0-0.5,0-0.7,0c0.4,0.3,0.9,0.6,1.3,0.9c2.4,1.6,4.6,3.6,6.6,5.7
				C384.2,296.4,386.7,298.6,389.1,300.8z M392.6,321.4c-2.4-12.6-8.4-25.2-19.6-32.1c-0.4-0.2-0.7-0.5-1.1-0.8c0.5,1,1.2,2,1.5,2.7
				c2.9,4.9,4.6,10.7,5,16.2c0.5,3.6,2.5,6.7,5.2,9C386.3,318.7,389.4,320.2,392.6,321.4z M374.4,329.9l0.4,0.7
				c0.1,0.1,0.1,0.1,0.1,0c0,0,0,0,0.1-0.3c2.7-11.4,3.3-24.7-1.7-35.5c-0.1-0.1-0.1-0.3-0.2-0.4c-0.2-0.4-0.4-0.8-0.7-1.3
				c-0.2-0.4-0.4-0.7-0.6-1.1c-0.1-0.1-0.2-0.3-0.3-0.5c-1.5-2.4-3.2-4.6-5.4-6.7c-0.2,0.7-0.3,1.4-0.4,2.2c0,0,0,0.1,0,0.1
				c-0.1,3.9-0.6,9.8-0.7,14.7C365.9,311.7,369.3,321.5,374.4,329.9z M356.3,317.7c0.4,3.6,1.5,7.3,3,10.5c0.1,0.2,0.4,0.3,0.6,0.2
				c2.2-2,3.6-5.1,4.4-7.9c1-3.5,0.4-7.2-0.2-10.8c-0.5-2.4-0.8-5.2-0.9-8.2c-0.3-3.1-0.3-6.2,0-9.3c0-0.4,0.1-0.7,0.1-1.1
				c0-0.4,0-0.8,0-1.2c-0.6,1-1.2,2.1-1.7,3.2c-1.4,3.3-2.7,6.6-3.9,9.9C356.3,307.8,355.7,312.7,356.3,317.7z M344,311.2
				c-0.3,3.2-0.5,6.7-1.6,9.8c0,0.2-0.2,0.4,0,0.5c0.1,0.1,0.7-0.2,0.8-0.2c5.2-2.2,9.4-6.5,10.7-12c1.6-5.9,3.4-11.8,5.6-17.5
				C351.7,295.4,344.9,302.4,344,311.2z M358.1,281.4c-3,2.7-4.9,6.5-5.5,10.5c1.7-0.1,3.4-0.6,4.9-1.4c0.2-0.1,0.3-0.2,0.5-0.3
				c2.5-1.4,4.6-3.4,5.8-5.9c0.4-0.7,0.7-1.7,1.1-2.1c0.5-0.4,1.2-0.2,1.5,0.3c1.3,1.5,2.6,2.5,4.1,3.2c0.4,0,0.8,0.2,1.1,0.4
				c1,0.3,2,0.5,3,0.5c0.4,0,0.8,0,1.1,0c1.5-0.1,3-0.6,4.5-1.3c-3.5-4.5-8.7-8.3-14.6-7.8C362.5,277.5,360.2,279.2,358.1,281.4z
				 M320.3,268.5c-2.1-0.7-4.3-0.1-5.4,1.7c-1.4,2.2-3.1,5.1-5.3,6.8c-1.8,1.8-5.2,2.9-7,4.2c-1.3,1.2-2.1,3.6-2.4,5.4l-0.1,0.4
				l0,0.2l0,0.1l0,0c0,0,0,0,0,0c0-0.1,0-0.2,0-0.3c0,0,0,0.3,0,0.3c0.3,4.1,1,8.7-1.8,12.2c-0.8,1.1-1.8,1.8-2.5,2.8
				c-1.2,1.8-1.4,4.6-1.6,6.8c-0.1,5,0.7,10.8-1,15.8c-1.2,3.7-2.2,7-0.6,10.7c1,2.9,1.5,6,1.4,9.1c1.1-1.5,2.4-2.9,3.7-4.2
				c2.9-2.7,6.9-4.4,8.9-8c1.6-3.7,4-7.7,7.3-10.4c2.3-1.8,4.5-3.6,5.7-6.1c0.5-4.6,0.1-9.6,3.7-13.2c0.8-1.1,2.2-1.7,2.9-2.7
				c1-1.4,1.7-3.1,1.7-4.8c0-1.2-0.2-2.3-0.7-3.5c-1.1-2.6-1.4-5.8-1.3-8.7c0-2.7,1.7-5.2,1.2-7.7c-0.3-2-1.6-3.7-3.3-5.1
				c-0.6,8-3.1,15.7-6.1,23.1c-4,10.8-9.2,21.2-15.7,30.7c0,0.1-0.2,0-0.1-0.1c4.8-10.4,9-20.9,12.3-31.8c2-8,3.7-16.1,6.2-23.9
				C320.4,268.6,320.4,268.6,320.3,268.5z"/>
		</g>
	</g>
	
		<image style="display:none;overflow:visible;" width="1082" height="2029" xlink:href="../../../../Raw Images/Edited/IMG_3626 Crop 02.png"  transform="matrix(0.126 4.523796e-02 -4.523796e-02 0.126 297.6846 5.1815)">
	</image>
	
		<image style="display:none;overflow:visible;" width="854" height="1998" xlink:href="../../../../Raw Images/Edited/IMG_3629 Crop.png"  transform="matrix(0.1029 -5.273151e-02 5.273151e-02 0.1029 83.8188 180.116)">
	</image>
</g>
</svg>
