<?xml version="1.0" encoding="UTF-8"?><svg id="Layer_1" xmlns="http://www.w3.org/2000/svg" viewBox="0 0 150 50"><defs><style>.cls-1{fill:none;}.cls-2{fill:#163a24;}</style></defs><g><path class="cls-2" d="m3.32999,27.36548c0-6.7385,5.65472-11.23121,13.68333-11.23121,4.53844,0,7.54038,1.66686,9.42528,3.18824v-5.43441c0-5.21712-3.4214-7.31856-8.16843-7.31856-4.18927,0-7.26074,2.02888-8.5176,5.57952h-1.32639l-4.53768-3.76792C6.89045,3.81625,12.54517,1.06258,18.61934,1.06258c7.19045,0,11.86871,4.27505,11.86871,12.39057v12.3184c0,3.91265.55776,5.43441,2.23407,5.43441,1.39592,0,2.16379-1.01425,2.58249-2.82585l1.18732.43495c-.20935,4.70962-1.67556,8.47754-5.23602,8.47754-2.72306,0-4.2588-1.88377-4.74779-5.65169-2.44342,3.91265-6.49287,5.65169-11.2399,5.65169-7.40056,0-11.93824-4.3476-11.93824-9.92712Zm12.63658,4.13032c5.44537,0,10.47203-2.75329,10.47203-6.23137v-2.46383c-2.58324-1.15936-6.00389-2.02888-9.28547-2.02888-4.6775,0-9.28547,1.73904-9.28547,5.72463,0,2.97058,2.79259,4.99946,8.0989,4.99946Z"/><path class="cls-2" d="m42.70291,23.67011v-4.85473c0-6.01409-1.74584-9.27489-4.8876-11.73872v-2.0285l8.0989-3.98559h2.02472c-.27964,1.01463-.55852,3.47808-.76787,6.52159,3.83934-4.13032,9.355-6.52159,14.38166-6.52159,6.5624,0,10.54232,4.3476,10.54232,10.94175v11.15866c0,6.37648,1.81462,9.34744,5.58519,11.01393v2.02888h-15.91816v-2.02888c4.18851-1.73904,6.28352-5.57952,6.28352-12.46313v-4.85473c0-6.59377-2.79259-9.92712-8.37778-9.92712-4.18927,0-9.84398,2.02888-12.70686,4.63744-.06953,1.73904-.13906,3.55064-.13906,5.28968v6.81105c0,5.86936,1.95444,8.84031,6.28352,10.5068v2.02888h-15.98769v-2.02888c3.83934-1.66649,5.58519-4.49271,5.58519-10.5068Z"/><path class="cls-2" d="m78.65442,27.36548c0-6.7385,5.65472-11.23121,13.68333-11.23121,4.53768,0,7.54038,1.66686,9.42528,3.18824v-5.43441c0-5.21712-3.4214-7.31856-8.16843-7.31856-4.18927,0-7.26074,2.02888-8.5176,5.57952h-1.32639l-4.53768-3.76792c3.00194-4.56489,8.65666-7.31856,14.73083-7.31856,7.19045,0,11.86795,4.27505,11.86795,12.39057v12.3184c0,3.91265.55927,5.43441,2.23407,5.43441,1.39667,0,2.16454-1.01425,2.58324-2.82585l1.18732.43495c-.20935,4.70962-1.67556,8.47754-5.23602,8.47754-2.72306,0-4.2588-1.88377-4.74779-5.65169-2.44342,3.91265-6.49287,5.65169-11.2399,5.65169-7.40056,0-11.93824-4.3476-11.93824-9.92712Zm12.63582,4.13032c5.44612,0,10.47279-2.75329,10.47279-6.23137v-2.46383c-2.58324-1.15936-6.00464-2.02888-9.28547-2.02888-4.6775,0-9.28547,1.73904-9.28547,5.72463,0,2.97058,2.79259,4.99946,8.09814,4.99946Z"/><g><path class="cls-1" d="m130.04566,15.21049c-.00005-.00537.00083-.01061.00106-.01598-.00422.00331-.00838.00664-.01259.00991.00391.00194.00764.00414.01153.00607Z"/><path class="cls-1" d="m133.52898,5.14088c-.0332.06522-.06847.12952-.09745.19655-.19162.47707-.41527.98414-.78779,1.37401-.07275.09178-.24891.21225-.37408.25141-.56273.23052-1.19959.33305-1.59726.82137-.27664.27854-.33879.65359-.55852.97898-.3387.45549-.87429.76857-1.44419.8052-.38089.03339-.77156-.05383-1.1326.0123-.48964.07532-.92153.20869-1.33668.49989-.21621.14578-.50907.27762-.79624.30469-.61814.06928-1.32393-.23272-1.80916-.71553-.20373.07099-.4093.1368-.61687.19686.20656,1.25.50819,2.48424.9097,3.68596.6306.51384,1.3292.94661,2.08694,1.25083.82349.3295,1.71192.50441,2.60657.50629-.04159-.53282.1821-1.07617.46665-1.5029.36699-.66132.96448-1.18581,1.65371-1.49316.08048-.03802.19061-.09486.27741-.04233.1006.03961.12094.15472.13277.25289.01352.08301.01868.16668.02422.25025.4861-1.30193,1.42312-2.46635,2.73245-2.96798.57936-.21024,1.14708-.38642,1.65359-.74313.03473-.02146.08028-.05763.12498-.06133.11735-.01903.22475.09236.20829.207l-.01371.11535c-.11871,1.04434-.65993,2.05031-1.54254,2.63664,1.11207-.38913,2.31172-.48726,3.48431-.28289.17843.05147.2622.2779.16224.43217-.12719.18658-.26324.35641-.41661.52104-.50937.58182-1.20315.91966-1.9398,1.09472.80748.02235,1.61361.12285,2.40054.29137.34018.0711.67888.15752,1.01366.25104.26366.07423.25727.43423.01447.52001-.9849.54111-2.08613,1.00899-3.22158,1.29434.7674.15633,1.46577.63731,1.98622,1.21718.22589.24171.42962.504.62166.77279.09715.10558.032.32781-.13724.33353-.01929.00069-.07789.00748-.09833.00845-1.52277.11955-3.12617-.01357-4.56494-.5529.26731.17421.53667.34611.80775.51685,1.02616.60828,1.62544,1.74582,1.78678,2.90572.03624.22756-.21022.3635-.39121.20406-.51682-.3747-1.11755-.55704-1.70606-.78231-1.38876-.57374-2.33252-1.86256-2.82109-3.26282-.01359.12682-.03825.25361-.07604.37896-.02892.073-.10787.10788-.17488.09407-1.18403-.18746-2.16145-1.18674-2.4086-2.35585-.00797-.03207-.01047-.0646-.01626-.09687-.91947.04288-1.85089-.09403-2.72688-.39894-.62048-.21663-1.2091-.51786-1.76179-.87571.49593,1.354,1.11216,2.66457,1.8548,3.90555,1.02343,1.72076,2.26416,3.31626,3.68286,4.73792.00433.00433.0059.01007.00977.01466.59802-.37632,1.29651-.58371,2.01477-.47466.4557.06662.78631.40137,1.22274.51904.38984.1289.80521.18558,1.23679.20392.26386.0276.64079-.02179.87599.21102.11389.14263.18181.33237.08896.50804-.14281.12704-.29463.24476-.45276.35403,1.07138-.15983,2.1778-.09627,3.21653.19776.53715.14497,1.04932.37767,1.51916.6727.59121-2.49989.76422-5.23654.56426-7.87687-.36194-4.78594-2.78177-9.85718-6.42036-12.02125Z"/><path class="cls-1" d="m136.49392,30.23018c.11508.2023.22439.40751.33089.61435.03482-.0464.06731-.0954.10153-.14249-.14987-.1489-.29331-.30653-.43242-.47186Z"/><path class="cls-1" d="m138.21677,18.20435s.02246-.00185.02839-.00234c-.38654-.53873-.83417-1.05365-1.38269-1.4292-.55456-.38651-1.22971-.59203-1.89997-.5017-.67702.09556-1.39827.19255-2.1048.09215-.55634-.0658-1.26263-.25279-1.83329-.39556.12239.10206.26655.18373.39031.29325,1.80352,1.69235,4.40784,2.13772,6.80205,1.94339Zm-3.05566-1.61261c-.03623-.00385-.03777-.05638,0-.05758.46106-.0148.92987.18387,1.31749.41858.43525.26354.8066.6086,1.16617.96515.01632.01618-.00787.03938-.02489.02489-.36878-.3139-.73232-.64357-1.14353-.90192-.40886-.25687-.83672-.3982-1.31524-.44912Z"/><path class="cls-1" d="m135.06925,20.85607c.3173.13482.61666.30441.90093.49503.01125.00584.01234.0069.0229-.00201-.11149-1.12121-.69853-2.22545-1.6805-2.82218-.54269-.34696-1.08416-.70282-1.61537-1.0736-.4383-.23392-.85505-.51134-1.23913-.84331-.09253-.08949-.19743-.17199-.30485-.25224-.00048.00486-.0015.00952-.00046.01482.00357.0148.01308.06949.01685.08583.01107.05541.02603.11005.03851.1652.02056.07264.03834.14605.05143.2205.25433.9693.72754,1.88525,1.40577,2.624.62048.7387,1.5134,1.09199,2.40392,1.38795Zm-2.92206-2.48329c-.12792-.21362-.27467-.45085-.31508-.69957-.00935-.05744.06124-.09113.09503-.04006.1408.21292.22716.46266.35449.68494.12227.21341.25958.41791.40691.61478.29977.40052.62379.79747.96772,1.16073.00921.00972-.00519.02417-.0147.0147-.36713-.36507-.74454-.70523-1.06467-1.11505-.15499-.19838-.30031-.40439-.42971-.62046Z"/><path class="cls-1" d="m122.937,9.62652c.13511-.08382.26919-.16879.40545-.25117-.20628-.28933-.334-.61944-.33536-.96298-.02853-.58818.48827-1.02679.82114-1.41075.30124-.36782.50427-.80678.59825-1.2734.00526-.0232.00928-.04878.01392-.07289-.63347.4104-1.2202.8933-1.75528,1.44692.04114.8451.12237,1.68818.25187,2.52427Z"/><path class="cls-1" d="m138.91822,14.60679c.10002-.03938.09482-.11128.02806-.13584-1.81092-.51888-3.7586-.67418-5.61388-.34537-.88733.24082-1.82026.58703-2.57044.8188-.12603.06055-.25205.12121-.37579.18773-.07812.043-.15537.05534-.09044.12843.45342.28597.9297.49251,1.4192.63739.06434.01632.1207.03065.16018.04071.23686.05826.47493.10623.71374.147,2.05096.29352,4.25559-.38816,6.07074-1.3383l.25863-.14055Zm-2.07147.55517c-.29373.13073-.59562.23547-.90486.32323-1.36255.38663-2.85941.45639-4.2333.08898-.02448-.00655-.01357-.04068.01021-.03704.88189.13526,1.77925.19017,2.66837.09968.83083-.08456,1.62954-.30371,2.41397-.58304.06312-.02248.10644.08111.04561.10818Z"/><path class="cls-1" d="m126.01262,20.7941c.19169-.35321.2979-.74588.32077-1.13805-1.4728-2.06189-2.61448-4.35354-3.39089-6.76445-.0562.14055-.11533.27995-.1796.41705.14362.26831.09602.61923.06761.90667-.0477.32687-.11049.6644-.25418.98893-.29322.55266-.64417,1.04855-.56623,1.70381.15435.83875-.12281,1.76626-.76707,2.35021-.36169.33742-.88221.39246-1.20966.75785-.23529.22726-.31054.46118-.40548.78245-.11561.33011-.36884.59043-.67679.75433.09354.93507.24069,1.83422.4362,2.69367.30198-.73216.79606-1.37991,1.47952-1.81037.71155-.4403,1.5918-.60627,2.41849-.47324-.00173-.08467.04189-.17101.12373-.22219.60416-.4883,1.34145-.5597,1.83135-.05289.31962-.24247.58621-.54824.77223-.89377Z"/><path class="cls-1" d="m120.72437,13.91826c.44659-.34073,1.22761-1.12371,1.82382-.84008.09442-.21447.17703-.43363.24916-.657-.43173-1.43652-.73422-2.9118-.90213-4.40309-1.53317,1.98576-2.53713,4.64516-2.91401,7.81951.73725-.47202,1.04524-1.37433,1.74317-1.91933Z"/><path class="cls-1" d="m128.3732,25.82344c-.20355.59571-.57281,1.18621-.59337,1.81312.05696.44171.54815.18106.83172.0163l.09357-.30952c-.00343.00241-.00648.00533-.00993.00773-.13869.0965-.29871.20228-.46628.23772-.01892.00401-.02883-.02005-.01294-.0307.14358-.09634.30316-.16486.44472-.26606.02751-.01966.05249-.04258.07912-.06342l.58116-1.92227.90049-.65466c-.00019-.00349-.00069-.0126-.00069-.0126-.03897-.22592.19369-.41879.40849-.33106,1.40325.47702,3.14013.26798,4.24272-.64311.00201-.01501-.00086-.05305-.01176-.08585-.02778-.08451-.05182-.11135-.13041-.14319-.15772-.05332-.3848-.04684-.59765-.04378-.43432.01063-.89217.00977-1.3412-.08991-.40314-.04779-.82222-.35224-1.19528-.41126-.76612-.08769-1.63629.14865-2.24039.64894-.28707.29537-.41747.65267-.54102,1.0505-.13189.41342-.28262.8269-.44108,1.23309Zm2.85932-2.69914c.18312-.09472.38496-.05948.56804.01656.19264.08004.37289.18567.56697.26315.03355.0134.03332.07395-.00935.06912-.38545-.04351-.69756-.46658-1.11271-.31814-.01808.00648-.02962-.02207-.01296-.0307Z"/><polygon class="cls-1" points="130.8912 14.1178 130.89032 14.11696 130.88918 14.11974 130.8912 14.1178"/><path class="cls-1" d="m130.93156,12.44344c-.00104-.00787-.00773-.01825-.02155-.02485-.02881-.02378-.11044.03828-.13696.04441-.64915.31348-1.19179.81607-1.5256,1.45796-.29834.49915-.50151,1.01019-.35099,1.58726.20067,1.09891,1.15812,1.90122,2.16868,2.26021.08495-.2837.09736-.57396.05172-.853-.0251-.09512-.04783-.1904-.06879-.28568-.17609-.55135-.58571-1.02788-1.13679-1.26979-.11537-.03513-.16162-.18725-.05594-.26699.0887-.06962.18111-.14918.26108-.22802.63058-.58117.95615-1.46591.83123-2.31709l-.01609-.10442Zm-.14189,4.74278c-.01049.04254-.08004.03387-.07699-.01042.02202-.31999-.08944-.6318-.28097-.88571-.19523-.25884-.45889-.44803-.69439-.66653-.03869-.03591.01208-.10125.05622-.07287.52418.33699,1.16724.94172.99613,1.63553Z"/><path class="cls-1" d="m125.33117,22.15123c-.40399-.68226-1.26741-.64296-1.82433-.19158.10899.10987.3588.09687.5491.15229.27373.08886.49797.23872.7068.4096.25504.1881.44014.52377.71763.65095.07558-.30978.00236-.74619-.1492-1.02126Zm-.15117.28067c-.02667-.05932-.05105-.12017-.08264-.17713-.03086-.05562-.06847-.1067-.11068-.15423-.0423-.04763-.08989-.0907-.14247-.12674-.05411-.03709-.11223-.06773-.16571-.10553-.01317-.00929-.00995-.03369.00889-.03279.13858.0066.26845.10667.36144.20288.09678.10014.17982.23605.19229.37699.0028.0316-.04793.04587-.06111.01655Z"/><path class="cls-1" d="m130.13703,31.50016c.05369.85221.11968,1.70256.15624,2.52728.02257.15777.03029.31445.02845.46998.02074-.00155.04075-.00083.06154-.00252.28255-.02302.556-.06177.82505-.10801-.45627-.92033-.82556-1.88949-1.07127-2.88673Z"/><path class="cls-1" d="m126.96819,33.4921c-.33008-1.96619.33634-4.01729,1.54505-5.57123-.41224.17618-.81625.20966-.88761-.26909.01491-.67788.35775-1.26937.51585-1.90849.12702-.4129.22841-.82968.33265-1.25078.10007-.4355.24089-.94561.63308-1.22369.07044-.06358.14473-.12323.21961-.18206-.9818-.92232-1.8768-1.92723-2.67939-2.99912-.20838.71036-.67607,1.3361-1.30212,1.72299.05573.07344.10829.15365.15485.24552.17092.3117.23964.65748.24157,1.00114-.00401.09155-.02225.24326-.12751.31408-.06712.04638-.13885.04309-.20654.01743.3518.62701.48404,1.38271.40314,2.09225-.19648,1.62425-1.53118,2.93952-3.05224,3.39938-.48014.15918-.98416.24409-1.49057.26849,1.45516,2.50186,3.47808,4.26366,5.84297,4.99613-.05775-.21447-.1094-.43085-.14277-.65295Z"/><path class="cls-1" d="m133.78135,32.52485c.11501.27155.20086.55424.25935.84396.13462-.07826.26481-.16293.39455-.24826-.22392-.19245-.44094-.39212-.65391-.59569Z"/><path class="cls-1" d="m137.81409,12.03107c.04682-.07245.00593-.18111-.0762-.20311-1.33608-.22557-2.77464-.02366-3.99009.59719-.24743.12242-.48746.25852-.7225.40276-.47408.33096-.9389.6726-1.39316,1.02899-.26592.23186-.52087.47588-.76506.72963.10663-.03112.21741-.06386.33277-.09866.10118-.04013.20075-.08465.30325-.12075.56398-.20977,1.14439-.36342,1.73333-.46924.32705-.08208.63613-.14883.90152-.18433.49584-.05525,1.06039-.08456,1.54122-.18817.87735-.17975,1.63474-.76325,2.13494-1.49431Zm-4.00581,1.48765c-.04297.00266-.05286-.06909-.01021-.07543.67003-.09945,1.35444-.17039,2.00123-.38089.28989-.09435.57054-.21737.8313-.37586.25583-.15548.4713-.35384.69546-.54979.0358-.03128.09833.00979.06911.05332-.32821.48901-.94093.78839-1.4819.97476-.67834.23369-1.39306.3098-2.105.35389Z"/><path class="cls-1" d="m119.48022,24.64249c.00077.0031.00162.00611.00239.00919.02272-.07187.04689-.14314.073-.21353-.02677.06731-.05214.13531-.07539.20434Z"/><path class="cls-1" d="m119.57932,24.37388c.00488-.01259.01075-.02464.01575-.03716-.00532.01237-.01056.02471-.01575.03716Z"/><path class="cls-1" d="m135.71951,9.30729s.01537-.1116.01537-.1116c.00896-.05495-.05319-.09658-.09848-.0633-.51481.37398-1.13607.57653-1.7197.79059-1.55903.62384-2.51472,2.22835-2.79032,3.82917-.00114.01202-.00653.043-.01213.0756.94307-.72435,1.95515-1.37093,2.97231-1.97659.93748-.51744,1.49661-1.49925,1.63296-2.54387Zm-1.24425.83516c-.25044.12693-.52522.1982-.77538.33022-.25081.13235-.48739.29176-.70353.47538-.43104.3662-.79747.81732-1.05323,1.32238-.00732.01445-.03239.00401-.02632-.01109.21941-.54602.55892-1.02783,1.00732-1.41008.22385-.19083.46771-.3584.72762-.49621.2421-.12837.5247-.27151.80169-.29111.04244-.00301.0593.06148.02181.08049Z"/><path class="cls-1" d="m138.20982,27.86755c.06613.06372.12917.13087.19352.19656.01396-.03263.02924-.06411.04302-.09692-.07976-.03128-.15803-.06569-.23654-.09965Z"/><path class="cls-2" d="m146.54775,16.52899c-.61032-8.06173-5.35315-12.76139-10.92447-14.58367.05205-.14869.10871-.29605.18363-.43879.18986-.39267.43201-.7635.705-1.10465.03197-.04031.07298-.08572.10429-.13138.02904-.0443.0288-.10961.02274-.13934-.02484-.01563-.08243-.03867-.13332-.02876-.05872.0129-.052.0157-.07104.02061l-.08454.02804c-.39302.12598-.805.20848-1.21638.23106-.48968.03939-.96448-.0966-1.46361-.02199-.50337.04402-.94513.37334-1.36361.61124-.11896.07384-.23951.1368-.36099.19415-.63609-.06671-1.27352-.10294-1.90806-.10294-.48133,0-.96664.01952-1.44.05818-4.78784.38968-8.98196,2.46841-11.8102,5.8529-3.18525,3.81201-4.54637,9.13258-3.93274,15.41302.65479,8.65512,6.8529,14.74428,15.14131,14.96534.00891.07697.01978.15585.04249.24814.08403.22494.39227.31045.56262.12447.13707-.11799.27035-.24413.3986-.37683.45482-.01412.91537-.03983,1.39255-.09041.78619-.06405,1.58197-.14944,2.37716-.26602.09331.13077.1862.26192.28285.38998.09799.18488.3632.19188.44759-.0101l.00827-.02234.0329-.08901c.05235-.13779.09847-.27824.14583-.41816,7.17754-1.2882,13.9849-5.48223,12.86112-20.31274Zm-13.22598,20.74805l-.00794.02186-.00315.00611c-.00968.01978-.04332.02387-.05569.01102.00002.00261-.02512-.03156-.04265-.05506-2.06965-2.78015-3.54201-6.30619-2.86918-9.81111.017-.10545.02429-.21709.03065-.32844.27789.7219.52393,1.47853.87583,2.15795.43284.92216,1.10458,1.7234,1.7579,2.48132.64185.74449.93191,1.73245.91845,2.71506-.0113.92773-.24847,1.84665-.57232,2.71359l-.0319.08771Zm-5.05768.23559c-.02149-.1448-.03818-.36194-.06238-.52045-.08657-.73655-.31779-1.45952-.57248-2.14925-.48352-1.36386-.54694-2.85031-.09847-4.22948.27271-.92016.74551-1.76665,1.33259-2.52312.26236-.33101.6328-.77779.97302-.95235-.01334.30726-.10164.68221-.12948,1.00635-.08187,1.00685.05596,1.9733.11464,2.96775.07307.97791.15905,1.9567.24634,2.93156.14914.96293-.22585,1.9037-.80995,2.66047-.25066.32392-.54227.62449-.86047.88011-.04189.02406-.12075-.02408-.13337-.07161Zm3.33161-14.62171c.37306.05902.79214.36347,1.19528.41126.44903.09968.90688.10054,1.3412.08991.21285-.00306.43993-.00954.59765.04378.07859.03184.10264.05869.13041.14319.0109.03279.01376.07083.01176.08585-1.10259.91109-2.83947,1.12014-4.24272.64311-.2148-.08773-.44747.10514-.40849.33106,0,0,.00049.00912.00069.0126.00097.01753.0035.06342.0035.06342.04283.80815-.26298,1.60267-.78073,2.21976-.19546.14575-.39396.34497-.55762.52835-.05844.04399-.11422.09151-.17546.13149-.02855.01648-.06251.0366-.09961.05816-.28357.16476-.77476.42541-.83172-.0163.02056-.6269.38982-1.21741.59337-1.81312.15846-.40619.30918-.81967.44108-1.23309.12355-.39783.25395-.75514.54102-1.0505.60411-.50029,1.47427-.73664,2.24039-.64894Zm4.89822,7.33927c.13911.16534.28255.32297.43242.47186-.03422.04709-.06671.09609-.10153.14249-.10649-.20684-.2158-.41205-.33089-.61435Zm1.49086,1.04679c-1.05193-.60168-1.67394-1.69883-2.35125-2.66737-.75531-1.02677-2.2675-2.42256-3.27171-3.42809.48998.1113.96847.2766,1.43909.45857.52085.2339,1.03865.47463,1.54908.73086.37252.17171.73331.36945,1.09239.5714.97469.61988,1.85748,1.37623,2.55438,2.30306.56494.75019,1.01436,1.58809,1.33907,2.4694.02311.07284.01079.15104-.05017.22416-.0725.0828-.18736.04564-.28813.03425-.70715-.09936-1.40244-.32587-2.01276-.69626Zm.22504-3.40941c.07851.03395.15678.06837.23654.09965-.01378.03281-.02906.06428-.04302.09692-.06435-.06569-.12739-.13284-.19352-.19656Zm-.43576-.51421c-.18753-.11125-.37783-.21992-.56676-.32997-1.04643-.77906-2.23291-1.37866-3.46202-1.84382-.15745-.07451-.31383-.15171-.47232-.22353,1.43624-.52463,3.01898-.66241,4.50798-.27361.82276.20015,1.57975.60617,2.23832,1.1515.34064.26868.63597.59003.98312.85417.37037.28801.76888.53328,1.18173.74926.06766.02966.07256.13351.00544.16624-1.41066.65195-3.09924.60247-4.41548-.25023Zm-3.99271,5.17152c.21297.20357.42999.40325.65391.59569-.12975.08534-.25993.17-.39455.24826-.05849-.28972-.14434-.57241-.25935-.84396Zm-2.49124-4.31232c-.40573-1.04195-.53729-2.17051-.60291-3.28051-.00773-.04781.0536-.0856.08776-.0718-.00053-.00495.07912.0446.13707.07923,0,0,.18083.11146.18081.11147,3.15124,1.95381,5.33972,5.17803,6.48813,8.66348.08268.26014.30807.97111.40496,1.21357l.0718.19957c.04342.11656-.08727.20375-.22357.09271-2.7648-1.64797-5.37796-3.94068-6.54405-7.00773Zm8.09498-3.17354c-.46984-.29503-.98201-.52773-1.51916-.6727-1.03873-.29403-2.14515-.35759-3.21653-.19776.15814-.10927.30996-.227.45276-.35403.09285-.17567.02492-.3654-.08896-.50804-.2352-.23281-.61214-.18342-.87599-.21102-.43157-.01834-.84695-.07502-1.23679-.20392-.43643-.11767-.76703-.45241-1.22274-.51904-.71826-.10905-1.41675.09834-2.01477.47466-.00387-.00459-.00544-.01033-.00977-.01466-1.4187-1.42166-2.65943-3.01716-3.68286-4.73792-.74264-1.24097-1.35887-2.55155-1.8548-3.90555.55269.35785,1.14131.65908,1.76179.87571.87599.30491,1.80741.44182,2.72688.39894.00579.03226.00829.06479.01626.09687.24715,1.1691,1.22457,2.16838,2.4086,2.35585.06701.01382.14596-.02107.17488-.09407.03779-.12535.06245-.25213.07604-.37896.48857,1.40026,1.43233,2.68907,2.82109,3.26282.58851.22527,1.18924.40761,1.70606.78231.18099.15944.42745.0235.39121-.20406-.16134-1.1599-.76063-2.29744-1.78678-2.90572-.27107-.17074-.54044-.34264-.80775-.51685,1.43877.53933,3.04218.67246,4.56494.5529.02044-.00097.07903-.00776.09833-.00845.16925-.00572.23439-.22795.13724-.33353-.19204-.26879-.39577-.53108-.62166-.77279-.52045-.57987-1.21881-1.06085-1.98622-1.21718,1.13545-.28535,2.23668-.75323,3.22158-1.29434.24281-.08578.24919-.44578-.01447-.52001-.33478-.09352-.67348-.17995-1.01366-.25104-.78693-.16852-1.59305-.26901-2.40054-.29137.73665-.17505,1.43043-.51289,1.9398-1.09472.15337-.16463.28942-.33446.41661-.52104.09996-.15427.01619-.3807-.16224-.43217-1.17259-.20438-2.37223-.10625-3.48431.28289.88261-.58633,1.42383-1.5923,1.54254-2.63664l.01371-.11535c.01646-.11464-.09093-.22603-.20829-.207-.04469.0037-.09025.03987-.12498.06133-.5065.35671-1.07423.53289-1.65359.74313-1.30932.50163-2.24634,1.66605-2.73245,2.96798-.00554-.08358-.0107-.16724-.02422-.25025-.01183-.09817-.03218-.21329-.13277-.25289-.0868-.05253-.19693.00431-.27741.04233-.68923.30735-1.28672.83185-1.65371,1.49316-.28456.42673-.50825.97008-.46665,1.5029-.89465-.00188-1.78309-.1768-2.60657-.50629-.75774-.30422-1.45634-.73699-2.08694-1.25083-.40151-1.20172-.70314-2.43595-.9097-3.68596.20757-.06006.41314-.12587.61687-.19686.48522.48281,1.19102.78481,1.80916.71553.28716-.02707.58003-.15891.79624-.30469.41515-.29119.84704-.42457,1.33668-.49989.36104-.06613.7517.02109,1.1326-.0123.56991-.03663,1.10549-.3497,1.44419-.8052.21973-.32539.28188-.70045.55852-.97898.39767-.48832,1.03454-.59085,1.59726-.82137.12517-.03916.30133-.15963.37408-.25141.37252-.38987.59617-.89694.78779-1.37401.02897-.06703.06425-.13133.09745-.19655,3.63859,2.16407,6.05842,7.23531,6.42036,12.02125.19996,2.64033.02695,5.37699-.56426,7.87687Zm-13.90472-1.86651c-.27748-.12718-.46259-.46285-.71763-.65095-.20883-.17088-.43307-.32075-.7068-.4096-.1903-.05543-.44011-.04242-.5491-.15229.55692-.45137,1.42034-.49068,1.82433.19158.15156.27507.22478.71148.1492,1.02126Zm-5.555,5.61356c-.01968-1.02591.19553-2.05001.56913-3.00377.35954-.95886,1.04673-1.75536,1.83482-2.39183.11626-.08805.02353-.28621-.11989-.25235-1.59657.27296-2.51641,2.226-2.6554,3.69346-.03732.38806-.03077.86856.01111,1.27592-.22899-.7256-.34131-1.49013-.30227-2.24867.00204-.0818.01083-.16233.01764-.24325.01137-.08905.02392-.17799.03755-.26657.03649-.23721.09278-.47037.16456-.69733-.00077-.00308-.00162-.00609-.00239-.00919.02325-.06904.04862-.13703.07539-.20434.00841-.02118.01494-.04328.02371-.06427.00519-.01244.01044-.02478.01575-.03716.59476-1.38577,1.93239-2.35761,3.57517-2.11132.49431.06974.97708.24736,1.37201.54785.8022.60406,1.13017,1.70256,1.02408,2.67853-.17845,1.53514-1.42775,2.77587-2.87425,3.22698-.65362.2412-1.3505.33293-2.04496.32765,1.51654-.45576,3.10317-1.19479,3.76436-2.73164.23353-.53259.27437-1.13994.16506-1.70824-.02315-.13774-.23446-.12508-.24189.01375-.13392,1.94223-1.90208,3.27611-3.533,4.05288-.20232.09236-.41275.16747-.62868.22087.75292-.86133,1.5472-1.67394,2.28405-2.55077.52456-.68328.85672-1.48925,1.04404-2.32506.03902-.13045-.13494-.23568-.23298-.14029-.3879.34845-.77024.70379-1.1183,1.09269-.52997.57343-1.00275,1.2122-1.31468,1.93262-.25321.59008-.34453,1.2483-.70856,1.78365-.0537.06745-.11443.14302-.20112.14349l-.00005-.00431Zm.37287-.22497c.29148-.47068.46986-1.32703.64267-1.65174.48301-1.04869,1.31209-1.88814,2.20633-2.60812-.06624.31524-.15398.62261-.28538.91276-.26356.71467-.75769,1.31165-1.26843,1.87112-.44449.46935-.87055.99162-1.29519,1.47598Zm-.22311.25286c-.02808.02433-.02903.05443-.02068.08215-.02144-.01213-.04328-.02371-.06405-.03684.02917-.01102.05733-.02647.08474-.04531Zm.76894-.08655c1.23761-.58151,2.41605-1.38524,3.1621-2.55854.16444-.23437.29232-.49483.38794-.76742-.10711,1.3458-1.29056,2.45502-2.49992,2.99706-.50024.22888-1.0386.37843-1.56545.56959-.01725.00563-.0291.01971-.0364.03647-.04226-.01516-.08711-.02681-.12711-.04515.23307-.05349.46134-.13425.67885-.23201Zm2.56498-6.98662c-.08183.05119-.12545.13753-.12373.22219-.82669-.13304-1.70694.03293-2.41849.47324-.68346.43046-1.17754,1.07821-1.47952,1.81037-.19551-.85945-.34266-1.7586-.4362-2.69367.30795-.16389.56118-.42421.67679-.75433.09495-.32128.1702-.55519.40548-.78245.32745-.36539.84797-.42043,1.20966-.75785.64426-.58395.92142-1.51147.76707-2.35021-.07794-.65526.27301-1.15115.56623-1.70381.14369-.32453.20647-.66205.25418-.98893.02841-.28744.07601-.63836-.06761-.90667.06427-.1371.12339-.2765.1796-.41705.77642,2.41091,1.9181,4.70256,3.39089,6.76445-.02287.39218-.12908.78485-.32077,1.13805-.18602.34553-.45261.6513-.77223.89377-.48991-.5068-1.22719-.43541-1.83135.05289ZM136.23832.4088c-.24601.30867-.46639.63838-.64693.98976-.34782.66147-.44812,1.46371-.99166,2.00273-.58436.47339-1.17333,1.07599-1.47887,1.7962-.21255.50126-.43527,1.01097-.84288,1.3588-.03436.0216-.09213.04524-.14485.06684-.75.2493-1.58545.48531-2.00415,1.23166-.14793.206-.19792.47619-.34212.66614-.20463.26138-.50143.47924-.81908.57133-.48584.14703-.98155-.02093-1.49154.06897-.27389.04392-.52025.09713-.78332.18496-.48846.14152-.84558.56179-1.33888.60803-.46023.05073-.91616-.15706-1.27878-.46039,1.4431-.5388,2.75216-1.36687,3.98349-2.28104,1.75184-1.22633,3.37044-2.64746,4.79099-4.24259.00873-.00896-.00583-.02294-.0145-.01445-1.58283,1.414-3.26282,2.71058-5.04659,3.85434-1.31374.78059-2.70622,1.52692-4.06087,2.32921-.03211-.0402-.06567-.08-.0943-.12103-.24094-.36681-.24909-.84021.03663-1.16331.32481-.35958.7444-.78436.9401-1.26347.23687-.42798.25338-1.05054.41578-1.46035.13684-.27525.45704-.51265.742-.66767.09352-.05128.19864-.09894.29792-.13724l.00908-.00329c.0004-.00016.00076-.00028.00136-.00051.73333-.15926,1.57264-.23712,2.07022-.88911.15615-.20206.22379-.42103.38195-.59608.69231-.64505,1.66197-.75941,2.57105-.98523.72088-.19017,1.37957-.57443,1.98905-.97326.6186-.40372,1.36718-.18542,2.0627-.24736.36989-.03209.73384-.11024,1.08701-.22258Zm-11.81183,5.31943c-.09398.46662-.297.90558-.59825,1.2734-.33288.38396-.84968.82257-.82114,1.41075.00136.34354.12908.67365.33536.96298-.13626.08238-.27034.16734-.40545.25117-.1295-.83609-.21073-1.67916-.25187-2.52427.53507-.55363,1.12181-1.03652,1.75528-1.44692-.00465.02412-.00866.04969-.01392.07289Zm-1.62914,6.69295c-.07213.22337-.15474.44254-.24916.657-.59621-.28362-1.37723.49936-1.82382.84008-.69793.545-1.00591,1.44731-1.74317,1.91933.37688-3.17435,1.38084-5.83375,2.91401-7.81951.16791,1.4913.4704,2.96657.90213,4.40309Zm-7.28734,9.32643c.03329-.61719-.05421-1.16379.31297-1.67367.14293-.23467.34881-.3731.61483-.57661.40585-.31899.66976-.78103.79955-1.27239.08222-.28727.05385-.61242.15455-.86638.09218-.20977.25446-.41761.47672-.5054.75496-.20355,1.56795-.50728,2.06759-1.16576.21343-.26027.36278-.52764.53599-.76021.34192-.47427.79613-.85737,1.27067-1.19774.15291-.10443.44145-.29515.58723-.2549.00539.00525.00912.01387.01391.02033-.16152.30614-.33983.60296-.55014.8771-.57869.68455-1.28757,1.33279-1.77872,2.10459-.55935.77228-.89863,1.59321-1.3782,2.37507-.50349.752-1.15011,1.40529-1.86788,1.97316.74802-.38999,1.48665-1.13466,2.05663-1.83517.52914-.74871.91507-1.58672,1.46836-2.32085.50471-.77959,1.12373-1.40802,1.71856-2.12718.14583-.18498.27903-.37834.40091-.57829-.00387.07277-.01084.14149-.0192.19574-.03971.30834-.09317.60997-.20707.87647-.12193.29317-.32971.55162-.4403.86821-.11677.33798-.15705.68543-.12851,1.03469.03399.32615.08947.58909.01313.9002-.13041.56992-.4424,1.14077-.98367,1.39726-.46408.19253-.93668.50664-1.15812.98599-.07847.16518-.11447.33763-.15909.4738-.08562.26574-.30633.4876-.54908.61215-.27544.13369-.63613.12688-.91827.29887-.30316.16653-.54496.43923-.71919.72234-.3324.52713-.86499.88782-1.43439,1.12883-.4647.19801-.96166.31552-1.46681.36732.65839-.49916,1.19648-1.22987,1.26708-2.07757Zm15.74956-4.90349c-.0131-.07446-.03087-.14786-.05143-.2205-.01248-.05515-.02744-.10979-.03851-.1652-.00377-.01633-.01327-.07102-.01685-.08583-.00104-.0053-.00002-.00996.00046-.01482.10743.08025.21232.16275.30485.25224.38408.33196.80083.60939,1.23913.84331.53122.37077,1.07268.72664,1.61537,1.0736.98198.59673,1.56901,1.70097,1.6805,2.82218-.01056.00891-.01165.00785-.0229.00201-.28428-.19061-.58364-.36021-.90093-.49503-.89051-.29596-1.78344-.64926-2.40392-1.38795-.67823-.73875-1.15143-1.6547-1.40577-2.624Zm-1.2139-1.63363c-.00389-.00194-.00762-.00414-.01153-.00607.00421-.00327.00836-.0066.01259-.00991-.00023.00537-.00111.01061-.00106.01598Zm.97875.75721c.57066.14277,1.27695.32976,1.83329.39556.70654.1004,1.42779.00341,2.1048-.09215.67026-.09033,1.34541.11519,1.89997.5017.54852.37554.99615.89046,1.38269,1.4292-.00593.00049-.02841.00236-.02839.00234-2.3942.19433-4.99852-.25104-6.80205-1.94339-.12376-.10952-.26792-.1912-.39031-.29325Zm1.56443.11793c-.23881-.04077-.47688-.08873-.71374-.147-.03948-.01007-.09584-.0244-.16018-.04071-.4895-.14488-.96578-.35143-1.4192-.63739-.06493-.07308.01232-.08542.09044-.12843.12374-.06652.24976-.12718.37579-.18773.75017-.23177,1.68311-.57799,2.57044-.8188,1.85527-.32881,3.80296-.17351,5.61388.34537.06677.02456.07196.09646-.02806.13584l-.25863.14055c-1.81516.95013-4.01979,1.63181-6.07074,1.3383Zm1.54908-2.37209c-.26539.0355-.57447.10225-.90152.18433-.58894.10582-1.16935.25947-1.73333.46924-.1025.0361-.20207.08062-.30325.12075-.11537.0348-.22614.06754-.33277.09866.2442-.25375.49915-.49777.76506-.72963.45426-.35639.91908-.69803,1.39316-1.02899.23504-.14423.47507-.28033.7225-.40276,1.21545-.62085,2.65401-.82276,3.99009-.59719.08213.022.12302.13066.0762.20311-.5002.73106-1.25759,1.31455-2.13494,1.49431-.48082.10361-1.04538.13291-1.54122.18817Zm-3.02369.1142c.0056-.0326.01098-.06358.01213-.0756.2756-1.60082,1.23129-3.20533,2.79032-3.82917.58364-.21406,1.20489-.41661,1.7197-.79059.04529-.03329.10744.00834.09848.0633,0,0-.01533.11162-.01537.1116-.13635,1.04462-.69548,2.02644-1.63296,2.54387-1.01716.60566-2.02924,1.25224-2.97231,1.97659Zm-.22304.29005c-.00069.00065-.00134.00128-.00202.00194.00042-.00092.00074-.00187.00114-.00278.00025.00032.00062.00053.00088.00084Zm-.77478.74714c-.07997.07884-.17238.1584-.26108.22802-.10568.07974-.05943.23186.05594.26699.55107.24191.96069.71843,1.13679,1.26979.02096.09528.04369.19056.06879.28568.04564.27905.03323.56931-.05172.853-1.01056-.359-1.96802-1.16131-2.16868-2.26021-.15052-.57707.05265-1.08812.35099-1.58726.33381-.64188.87645-1.14448,1.5256-1.45796.02653-.00613.10815-.06819.13696-.04441.01382.0066.02051.01699.02155.02485l.01609.10442c.12492.85117-.20065,1.73591-.83123,2.31709Zm-10.34171,13.82787c.03915-.03476.06745-.09403.05196-.14149-.00297-.00928-.00741-.06244-.01072-.06999-.15244-1.03709-.11012-2.13869.34595-3.09658.33129-.73259.83959-1.50657,1.59071-1.82421-.59562.63027-1.10822,1.34986-1.38704,2.17366-.34106.96487-.56007,1.98472-.53048,3.01287-.02038-.01778-.04114-.03499-.06039-.05427Zm1.49329.45611c.50642-.0244,1.01044-.10931,1.49057-.26849,1.52106-.45986,2.85577-1.77513,3.05224-3.39938.0809-.70955-.05135-1.46524-.40314-2.09225.0677.02566.13943.02896.20654-.01743.10526-.07081.1235-.22253.12751-.31408-.00194-.34367-.07066-.68944-.24157-1.00114-.04656-.09187-.09912-.17208-.15485-.24552.62606-.3869,1.09375-1.01264,1.30212-1.72299.80259,1.07189,1.69759,2.0768,2.67939,2.99912-.07488.05883-.14916.11848-.21961.18206-.3922.27808-.53301.78819-.63308,1.22369-.10424.4211-.20563.83788-.33265,1.25078-.1581.63912-.50094,1.23061-.51585,1.90849.07136.47875.47537.44527.88761.26909-1.20871,1.55394-1.87513,3.60504-1.54505,5.57123.03337.2221.08502.43849.14277.65295-2.36489-.73246-4.38781-2.49427-5.84297-4.99613Zm9.11526,5.34597c-.02079.00169-.0408.00097-.06154.00252.00185-.15553-.00588-.31221-.02845-.46998-.03656-.82472-.10255-1.67506-.15624-2.52728.24571.99724.615,1.9664,1.07127,2.88673-.26905.04624-.5425.08498-.82505.10801Z"/><path class="cls-2" d="m124.68738,21.83548c-.01883-.0009-.02206.0235-.00889.03279.05348.03779.1116.06844.16571.10553.05258.03603.10017.0791.14247.12674.04221.04753.07983.09861.11068.15423.0316.05696.05598.11781.08264.17713.01318.02933.06391.01505.06111-.01655-.01246-.14094-.09551-.27685-.19229-.37699-.09299-.09621-.22286-.19628-.36144-.20288Z"/><path class="cls-2" d="m122.47026,22.43343c-.79353-.01605-1.60501.39908-2.0771,1.0286-.00931.01243.01091.02755.02135.01648.26155-.27759.57945-.52397.92093-.69448.35491-.17722.74188-.26924,1.13482-.31061.02508-.00264.0263-.03946,0-.03999Z"/><path class="cls-2" d="m120.5849,26.20231c.40899-.94749.99354-1.77802,1.73484-2.4951.0272-.02632-.01255-.0636-.04071-.04071-.79861.64885-1.41839,1.53787-1.77015,2.50376-.01593.04378.05731.07544.07602.03205Z"/><path class="cls-2" d="m123.39735,26.43684c-.33476.44704-.70462.86214-1.15397,1.19783-.23091.17252-.48526.31418-.74111.44601-.2083.1073-.43196.18414-.63757.29566-.02658.01443-.00767.05238.01973.04679.2242-.04577.43969-.15819.64121-.26303.27829-.14476.53476-.32515.78318-.51594.43273-.33235.83327-.72301,1.13411-1.18067.01905-.02897-.02572-.05318-.04559-.02665Z"/><path class="cls-2" d="m127.75681,34.14236c.03635.09866.17666.06036.15736-.04337-.12214-.65653-.22135-1.31003-.19667-1.98048.02778-.75485.18364-1.50839.46014-2.21156.10461-.26608.26465-.51715.34543-.79092.0041-.01391-.01403-.02406-.02406-.01401-.1766.17678-.28406.42546-.3911.64803-.14578.30313-.27026.618-.36678.94029-.23745.79295-.30719,1.64028-.20941,2.46171.04019.33754.10746.67098.2251.99032Z"/><path class="cls-2" d="m131.29401,32.91835c-.29855-.79126-.53231-1.61506-.63078-2.45664-.05511-.47104-.06117-.94684-.06647-1.42057-.00025-.02081-.03404-.02714-.03772-.0051-.13779.82694-.01919,1.69328.16608,2.50425.19287.84433.50203,1.65813.86247,2.44421.20776.45313.43683.88995.69525,1.31617.02864.04723.09662.00591.07323-.04281-.37076-.77196-.75938-1.53731-1.06207-2.33951Z"/><path class="cls-2" d="m129.6457,26.08406c.01056-.04747-.06177-.08493-.08333-.03513-.13876.32041-.27558.63394-.51318.89608-.0941.10382-.19898.19727-.30938.28361-.02663.02084-.05161.04376-.07912.06342-.14156.1012-.30114.16972-.44472.26606-.01589.01065-.00598.03471.01294.0307.16757-.03543.3276-.14122.46628-.23772.00345-.00239.0065-.00532.00993-.00773.14376-.10109.27745-.21661.39707-.34534.23816-.25627.4663-.56665.5435-.91394Z"/><path class="cls-2" d="m132.34013,29.32227c-.4798-.79567-.76042-1.67679-.98176-2.57338-.09171-.37144-.16611-.74718-.24363-1.12177-.00473-.02281-.04217-.0179-.04085.00553.04416.79101.21475,1.57498.46579,2.3252.30052.89808.77591,1.70481,1.33937,2.46213.33601.45162.70245.87084,1.09489,1.27391.0263.027.06405-.01271.04073-.04073-.60909-.73188-1.18264-1.51522-1.67454-2.33089Z"/><path class="cls-2" d="m136.53442,31.86495c-.3908-.79057-.8256-1.54583-1.30642-2.28442-.0207-.03182-.06953-.00375-.05112.02987.41742.76163.81676,1.53868,1.19692,2.31966.20133.41363.39262.83207.57807,1.25305.17312.39299.32719.79467.51295,1.1819.03265.06809.14309.02017.12133-.05115-.1229-.40321-.29352-.79087-.4606-1.17736-.18551-.42912-.38397-.85249-.59114-1.27155Z"/><path class="cls-2" d="m138.03931,30.80931c-.33194-.22719-.63474-.50566-.88416-.82167-.2283-.28926-.385-.62044-.5789-.93183-.19994-.32112-.42472-.62884-.67214-.91503-.31999-.37014-.68068-.69524-1.07534-.98375-.02329-.01704-.05328.02153-.03102.0402.64639.54208,1.24025,1.16536,1.6664,1.89757.18813.32325.33596.66658.55783.96969.22906.31293.50372.5817.81497.81248.34955.25918.76371.51369,1.1926.60891.06073.01348.09943-.06909.04314-.10234-.34039-.20114-.70513-.34956-1.03339-.57424Z"/><path class="cls-2" d="m136.80115,15.05378c-.78443.27933-1.58314.49848-2.41397.58304-.88912.09049-1.78649.03557-2.66837-.09968-.02378-.00364-.03469.03049-.01021.03704,1.37389.36741,2.87075.29765,4.2333-.08898.30924-.08776.61113-.1925.90486-.32323.06083-.02707.01751-.13066-.04561-.10818Z"/><path class="cls-2" d="m133.64157,20.1083c.00951.00947.0239-.00498.0147-.0147-.34393-.36326-.66795-.76021-.96772-1.16073-.14733-.19686-.28465-.40137-.40691-.61478-.12733-.22228-.21369-.47202-.35449-.68494-.0338-.05106-.10438-.01737-.09503.04006.04041.24872.18716.48594.31508.69957.12939.21607.27472.42208.42971.62046.32013.40982.69754.74998,1.06467,1.11505Z"/><path class="cls-2" d="m137.64477,17.91789c-.35956-.35655-.73091-.70161-1.16617-.96515-.38762-.23471-.85644-.43338-1.31749-.41858-.03777.0012-.03623.05372,0,.05758.47852.05092.90637.19225,1.31524.44912.41121.25835.77474.58802,1.14353.90192.01702.01449.04121-.00871.02489-.02489Z"/><path class="cls-2" d="m137.39517,12.19007c.02922-.04353-.0333-.0846-.06911-.05332-.22416.19595-.43963.39431-.69546.54979-.26076.15849-.54141.28151-.8313.37586-.64679.21051-1.3312.28144-2.00123.38089-.04265.00634-.03276.07808.01021.07543.71194-.04409,1.42666-.12021,2.105-.35389.54097-.18637,1.15369-.48575,1.4819-.97476Z"/><path class="cls-2" d="m134.45345,10.06195c-.27699.01959-.55959.16273-.80169.29111-.25991.13781-.50378.30538-.72762.49621-.4484.38225-.78791.86406-1.00732,1.41008-.00607.0151.01899.02554.02632.01109.25576-.50506.62219-.95619,1.05323-1.32238.21614-.18363.45271-.34303.70353-.47538.25016-.13202.52493-.20329.77538-.33022.03749-.01901.02063-.0835-.02181-.08049Z"/><path class="cls-2" d="m129.73732,15.62357c.2355.2185.49916.40769.69439.66653.19153.25391.30299.56572.28097.88571-.00305.04429.0665.05297.07699.01042.17111-.69381-.47195-1.29853-.99613-1.63553-.04415-.02837-.09491.03696-.05622.07287Z"/><path class="cls-2" d="m132.35819,23.47314c.04267.00482.0429-.05573.00935-.06912-.19408-.07749-.37433-.18312-.56697-.26315-.18308-.07604-.38493-.11128-.56804-.01656-.01667.00863-.00512.03718.01296.0307.41515-.14844.72725.27463,1.11271.31814Z"/><path class="cls-2" d="m136.51029,24.75384c-.03056.00195-.03119.04779,0,.048.74216.00489,1.48517.2628,2.13045.61506.66668.36394,1.24509.85126,1.84948,1.30568.04915.03695.11239-.0451.06592-.08542-1.12334-.97518-2.48234-1.98331-4.04585-1.88332Z"/></g></g><g><path class="cls-2" d="m9.08069,42.58295c-.38373-.21271-.86786-.31921-1.45233-.31921h-2.67743v7.51166h1.13342v-2.64093h1.54047c.58191,0,1.06543-.10681,1.45062-.32074.38495-.21387.67352-.50482.86554-.87311.19202-.36798.28772-.78296.28772-1.24518,0-.45959-.09509-.87341-.28595-1.24139-.19055-.36798-.47803-.65833-.86206-.87109Zm-.15375,2.87177c-.10767.22266-.27637.39807-.50635.52649-.22992.12836-.52936.19226-.8985.19226h-1.43774v-2.93768h1.42285c.37677,0,.68054.06244.91168.18701.23108.12463.40039.29712.50806.51715.10736.22003.16138.47186.16138.75549s-.05402.53693-.16138.75928Z"/><path class="cls-2" d="m14.57153,42.26373l-2.70306,7.51166h1.20288l.68793-1.98785h2.93506l.68683,1.98785h1.20288l-2.70312-7.51166h-1.30939Zm-.48224,4.57013l1.10938-3.20563h.05865l1.10754,3.20563h-2.27557Z"/><path class="cls-2" d="m25.86108,46.22137c-.21533-.16376-.44879-.29596-.70062-.3963-.25183-.1001-.49756-.1795-.73712-.2384l-.73364-.19061c-.14679-.03674-.29968-.08374-.45844-.14124-.15906-.05743-.30762-.12952-.44562-.21649-.13831-.08667-.24951-.19495-.33386-.32452-.08429-.12958-.12665-.28363-.12665-.46222,0-.21277.06189-.40271.1853-.57025.12347-.16748.29767-.29938.52264-.396.22504-.09656.49146-.14502.79962-.14502.43042,0,.78729.09601,1.07092.28802.28369.19202.44507.46136.48413.80865h1.0932c-.00995-.40332-.12726-.76105-.35223-1.07275-.22504-.31195-.53229-.55707-.92242-.73535-.38989-.17859-.83929-.26788-1.34796-.26788-.50366,0-.95599.08984-1.35693.26959-.40125.17981-.71906.43103-.95367.75378-.23486.32275-.35217.70068-.35217,1.13342,0,.52325.17535.94373.52643,1.26154.35077.31805.82697.55884,1.42841.72253l.88776.24219c.26904.07092.51038.15295.72424.24573.21393.09308.38403.21039.50983.35223.1261.14185.18909.32391.18909.54626,0,.24457-.07233.45789-.21649.64026-.14417.18213-.34174.32391-.59241.42548-.25067.10126-.53607.15204-.85651.15204-.29095,0-.55792-.04321-.80133-.13013-.24335-.08667-.44269-.22003-.5979-.39984-.15527-.17975-.24371-.40533-.26587-.6767h-1.1369c.02448.45233.15259.84308.38519,1.17194.2323.32886.55383.58246.96448.76105.41083.17834.89734.26764,1.45996.26764.58679,0,1.08728-.09515,1.50195-.28601.41437-.19086.73102-.45117.94989-.78119.21887-.33008.32831-.70795.32831-1.13342,0-.33734-.06683-.62714-.19995-.86932-.13336-.24194-.30756-.44501-.52264-.6087Z"/><path class="cls-2" d="m31.69659,42.26373l-2.70312,7.51166h1.20288l.68793-1.98785h2.93512l.68683,1.98785h1.20288l-2.70312-7.51166h-1.30939Zm-.48224,4.57013l1.10938-3.20563h.05865l1.10754,3.20563h-2.27557Z"/><polygon class="cls-2" points="39.60803 42.26373 38.47461 42.26373 38.47461 49.77539 43.01184 49.77539 43.01184 48.79987 39.60803 48.79987 39.60803 42.26373"/><path class="cls-2" d="m50.81647,47.11255c0,.33997-.07379.64203-.22174.90613s-.36072.47125-.63824.62152c-.27753.15033-.60699.22559-.98865.22559-.37909,0-.70648-.07526-.98285-.22559-.27637-.15027-.48969-.35742-.63995-.62152-.15057-.2641-.22559-.56616-.22559-.90613v-4.84882h-1.13342v4.94043c0,.52588.12341.99103.3703,1.39581.24719.40472.59448.72253,1.04181.95361.44733.23083.97058.34644,1.5697.34644.60168,0,1.1261-.1156,1.57349-.34644.44763-.23108.79492-.54889,1.04175-.95361.24689-.40479.37036-.86993.37036-1.39581v-4.94043h-1.13696v4.84882Z"/><path class="cls-2" d="m59.87421,46.13495c-.2384-.14764-.48236-.22791-.73157-.24017v-.07324c.22968-.05865.44061-.15228.63263-.2807s.34521-.29944.46021-.51331c.11499-.21393.17249-.47742.17249-.79053,0-.37152-.08698-.70593-.26031-1.00299-.17365-.29706-.43536-.53314-.78497-.70795s-.79114-.26233-1.32397-.26233h-2.75098v7.51166h2.87909c.58215,0,1.06018-.08868,1.43427-.26587.37408-.17743.65106-.41815.83081-.72253.17975-.30432.26935-.64868.26935-1.03241,0-.38904-.07819-.71906-.23462-.99048-.15643-.27136-.354-.4809-.59241-.62915Zm-3.45306-2.90649h1.54779c.44971,0,.78351.10504,1.00122.31549.21771.21008.32654.4707.32654.78119,0,.24188-.06067.45172-.18176.62885-.12085.17743-.28369.31488-.48767.41266-.20422.09802-.43335.14673-.68781.14673h-1.51831v-2.28491Zm2.802,5.25946c-.23462.21039-.62329.31543-1.16638.31543h-1.63562v-2.40601h1.67621c.30316,0,.56525.05865.78674.17596.22119.11755.3916.27515.51154.47333.11963.19812.17975.41553.17975.65277,0,.31543-.11731.57837-.35223.78851Z"/><path class="cls-2" d="m68.60718,42.625c-.50983-.30933-1.08881-.46399-1.73694-.46399-.65045,0-1.23029.15466-1.74011.46399-.51007.30933-.91162.75201-1.2049,1.32776-.29358.57574-.44037,1.26471-.44037,2.06696,0,.79956.14679,1.48767.44037,2.06488.29327.5769.69482,1.0202,1.2049,1.32953.50983.30933,1.08966.46399,1.74011.46399.64813,0,1.22711-.15466,1.73694-.46399.50977-.30933.91132-.75201,1.2049-1.32776.29327-.57574.44006-1.26477.44006-2.06665,0-.80225-.14679-1.49121-.44006-2.06696-.29358-.57574-.69513-1.01843-1.2049-1.32776Zm.22729,4.94043c-.19696.41937-.46576.73743-.80688.95367-.34113.21655-.72693.32483-1.15735.32483-.43274,0-.81909-.10828-1.15881-.32483-.33997-.21625-.6084-.5343-.80511-.95367-.19696-.41931-.29529-.93469-.29529-1.54572,0-.61139.09833-1.12671.29529-1.54608.19672-.41931.46515-.73712.80511-.95367.33972-.21649.72607-.32446,1.15881-.32446.43042,0,.81622.10797,1.15735.32446.34113.21655.60992.53436.80688.95367.19672.41937.29535.93469.29535,1.54608,0,.61102-.09863,1.1264-.29535,1.54572Z"/><polygon class="cls-2" points="78.28442 47.78021 78.21466 47.78021 74.39301 42.26373 73.34393 42.26373 73.34393 49.77539 74.47736 49.77539 74.47736 44.26648 74.54712 44.26648 78.36523 49.77539 79.40674 49.77539 79.40674 42.26373 78.28442 42.26373 78.28442 47.78021"/><path class="cls-2" d="m86.08588,46.86682h1.84998c-.00769.38898-.086.73151-.2453,1.02136-.16748.30469-.40356.53992-.70795.70624-.30432.16632-.66095.24951-1.06921.24951-.44006,0-.83252-.10889-1.17749-.32654-.3446-.21771-.61603-.53668-.81415-.95746-.19812-.42053-.29706-.9353-.29706-1.54401,0-.60645.09833-1.11914.29529-1.53876.19672-.41937.46515-.73773.80511-.95544.33972-.21741.72113-.32623,1.14423-.32623.24951,0,.47858.03296.68781.09894.20898.06592.39545.16193.55945.28802.1637.12573.30493.27753.4234.45465.11877.17743.21332.37732.28424.59967h1.1629c-.0636-.36682-.18591-.70093-.36682-1.00299-.18091-.302-.40912-.56317-.68402-.7832-.27521-.22003-.58832-.38989-.93909-.50983-.35077-.11963-.72925-.17975-1.13513-.17975-.48676,0-.93469.08868-1.34412.26581-.40973.17743-.76544.43311-1.0675.7666-.302.33386-.53607.7392-.70239,1.216-.16632.47687-.24951,1.01465-.24951,1.61377,0,.7923.14331,1.47632.42926,2.05206.28601.57605.68518,1.02051,1.19763,1.33331.51215.31311,1.10803.46954,1.78796.46954.60638,0,1.14484-.12604,1.61578-.37793.47046-.25183.8399-.60931,1.10748-1.07269.26788-.46338.40179-1.01056.40179-1.64148v-.85443h-2.95258v.93524Z"/><path class="cls-2" d="m98.56543,43.52173c.34119-.21741.72809-.32623,1.16089-.32623.23956,0,.46631.03296.68024.09894.21417.06592.40796.1637.58154.29327.17365.12982.32013.28741.44006.47333.11969.18585.20166.40094.24573.64551h1.14423c-.0636-.40363-.18561-.76227-.36652-1.07654-.18121-.31427-.40973-.58069-.6861-.79956-.27631-.21887-.5874-.38519-.93347-.49872-.34583-.11383-.7182-.17072-1.11682-.17072-.64783,0-1.2262.15466-1.73486.46399-.50861.30933-.90961.75201-1.20288,1.32776-.29358.57574-.44031,1.26471-.44031,2.06696,0,.79956.14618,1.48767.43829,2.06488.29242.5769.69275,1.0202,1.20142,1.32953.50836.30933,1.08789.46399,1.73834.46399.41321,0,.79462-.06128,1.14453-.18353.34961-.12201.66064-.29504.93323-.51886.27283-.22382.4964-.4903.67145-.79962.1748-.30933.29272-.64868.3537-1.01782l-1.14423-.00354c-.04639.23962-.13013.45178-.25122.63617-.12115.18475-.26849.34058-.44183.46783-.17395.1272-.36768.22321-.5816.28772-.21393.06506-.43945.09747-.6767.09747-.42786,0-.81305-.10773-1.15533-.32306-.34229-.21509-.61194-.53284-.80859-.95337-.19702-.42053-.29535-.93677-.29535-1.54779,0-.60638.09833-1.12.29535-1.54053.19666-.42053.4657-.73975.80682-.95746Z"/><polygon class="cls-2" points="106.99225 46.50006 110.32251 46.50006 110.32251 45.52802 106.99225 45.52802 106.99225 43.23926 110.56824 43.23926 110.56824 42.26373 105.85883 42.26373 105.85883 49.77539 110.61224 49.77539 110.61224 48.79987 106.99225 48.79987 106.99225 46.50006"/><polygon class="cls-2" points="118.71082 47.78021 118.64105 47.78021 114.8194 42.26373 113.77032 42.26373 113.77032 49.77539 114.90375 49.77539 114.90375 44.26648 114.97351 44.26648 118.79163 49.77539 119.83313 49.77539 119.83313 42.26373 118.71082 42.26373 118.71082 47.78021"/><polygon class="cls-2" points="122.79681 43.23926 125.1366 43.23926 125.1366 49.77539 126.26654 49.77539 126.26654 43.23926 128.61011 43.23926 128.61011 42.26373 122.79681 42.26373 122.79681 43.23926"/><polygon class="cls-2" points="132.70697 46.50006 136.03717 46.50006 136.03717 45.52802 132.70697 45.52802 132.70697 43.23926 136.2829 43.23926 136.2829 42.26373 131.57355 42.26373 131.57355 49.77539 136.32697 49.77539 136.32697 48.79987 132.70697 48.79987 132.70697 46.50006"/><path class="cls-2" d="m145.04907,49.77539l-1.67273-3.05457c.07526-.02838.16425-.04327.23322-.07782.38489-.19318.67352-.46399.86554-.81238.19202-.34845.28772-.75232.28772-1.21222,0-.46198-.09515-.86963-.28595-1.22302-.19055-.35339-.47858-.63031-.86383-.83081-.38519-.2005-.86871-.30084-1.45062-.30084h-2.67743v7.51166h1.13342v-2.84259h1.54053c.02539,0,.04468-.00598.0697-.00635l1.52948,2.84894h1.29095Zm-4.43066-6.53961h1.42291c.37415,0,.67676.05573.90784.16687.23114.11121.401.27081.50983.47864.10883.20776.16339.45343.16339.73712,0,.28131-.05396.52203-.16138.72253-.10767.20074-.27692.35339-.50806.45844-.23108.10535-.52991.1579-.89673.1579h-1.43781v-2.7215Z"/></g></svg>