<?xml version="1.0" encoding="utf-8"?>
<!-- Generator: Adobe Illustrator 27.3.1, SVG Export Plug-In . SVG Version: 6.00 Build 0)  -->
<svg version="1.1" id="Layer_1" xmlns="http://www.w3.org/2000/svg" xmlns:xlink="http://www.w3.org/1999/xlink" x="0px" y="0px"
	 viewBox="0 0 403.1 379.4" style="enable-background:new 0 0 403.1 379.4;" xml:space="preserve">
<style type="text/css">
	.st0{fill:#569348;}
	.st1{fill:none;}
	.st2{fill:#F9F3EF;}
</style>
<g>
	<circle class="st0" cx="204.5" cy="213.1" r="153.1"/>
	<g>
		<g>
			<g>
				<path class="st1" d="M111.7,233.1c0.1,4.1,0.2,8.1,2,11.8c0.1,0.1,0.1,0.3,0.2,0.4c0.1,0.2,0.2,0.4,0.3,0.6
					c0.4-4.1,0.5-9.2-1.5-13.5l-0.2-0.4c-0.3-0.6-0.6-1.2-0.8-1.7c0,0.6,0.1,1.2,0.1,1.9L111.7,233.1z"/>
				<path class="st1" d="M109.1,247.6c0.3,0.4,0.6,0.6,0.6,0.6c0.3,0.1,0.4,0,0.4,0c0.1-0.7-0.5-1.6-0.9-2.5c-0.2-0.4-0.4-0.7-0.5-1
					c-1.6-3.8-2.1-8.3-1.3-12.7c0,0.1-0.1,0.2-0.1,0.3C105.1,237.9,105.8,243.7,109.1,247.6z"/>
				<path class="st1" d="M55,257.5c1.1,3.2,3,5.4,4.5,6.7c0.3,0.2,0.4,0.6,0.3,0.9c0,0.3-0.3,0.6-0.6,0.8c-2.1,1-5.2,3-7.8,6.4
					c-3,4-4,8.2-4.2,11.1c0.1,0.1,0.3,0.2,0.6,0.3c0.7,0.2,1.5-0.5,2.9-1.9c1.3-1.3,3-3,5.4-4.4c1.4-0.8,2.3-1.1,3.1-1.3
					c0.7-0.2,1.3-0.4,2.1-0.9c0.2-0.1,0.4-0.3,0.6-0.5c2.2-1.9,3.2-4.2,3.6-5.1c0.7-1.8,1.1-3.5,1.2-5.1c0.1-2.2-0.5-3.2-2-5.9
					c-0.8-1.4-1.9-3.3-3.2-6c-0.4-0.8-0.7-1.5-1.1-2.2c-1.5-3.1-2.6-5.5-3.8-5.4c-0.1,0-0.2,0-0.3,0C55.2,247,53.1,251.9,55,257.5z"
					/>
				<path class="st1" d="M118.7,252.3c3.2-2,5.3-5.4,5.6-8.8l0,0c0.7-6-3-11.3-7.9-14.8c2.5,2.8,4.3,6.5,4.9,10.2
					c0.2,1.3,0.4,2.8,0.2,4.3c-0.1,0.6-0.2,1.6-0.6,2.5c-0.1,0.1-0.6,1.3-1.5,1.6c-0.4,0.1-0.8,0.1-1.1-0.2
					c-0.6-0.4-0.6-1.1-0.6-1.4c0-1,0.1-1.9,0.2-2.9c0-0.4,0.1-0.9,0.1-1.3c0.4-6-3.1-11.1-6.4-14.5c0.1,0.7,0.5,2,1.8,4.6l0.2,0.4
					c2.3,4.7,2,10.3,1.6,14.6c0,0.2-0.1,0.7-0.5,1c-0.4,0.3-0.9,0.2-1.3-0.2c-0.4-0.4-0.6-1-0.9-1.5c-0.1-0.1-0.1-0.3-0.2-0.4
					c-1.9-4-2-8.1-2.1-12.4l0-0.8c0-0.9-0.1-1.7-0.1-2.6c0-0.5,0-0.9-0.1-1.4c-0.6,1.5-1.3,3.4-1.4,3.7c-0.8,4.3-0.4,8.6,1.1,12.2
					c0.1,0.3,0.3,0.6,0.5,0.9c0.6,1,1.2,2.2,1,3.3c-0.1,0.5-0.3,0.7-0.5,0.9c0,0-0.1,0-0.1,0.1c-0.4,0.2-0.9,0.2-1.6,0
					c-0.2-0.1-0.6-0.4-1.1-0.9c-3.6-4.3-4.4-10.6-2-16.6c0.4-1,0.9-1.9,1.3-2.7c-1.2,1.3-2.2,2.7-3,4.3c-2.2,3.9-2.7,8.6-1.3,12.6
					c1.2,3.4,3.6,5.9,7,7.3C112.9,254.4,115.9,254,118.7,252.3z"/>
				<path class="st1" d="M115,258.5c1.6,0.5,3,0,3.7-0.7c0.1-0.1,0.2-0.2,0.3-0.3c0.6-0.7,0.9-1.6,1.1-2.5c-0.3,0.1-0.5,0.3-0.8,0.5
					c-0.1,0.1-0.2,0.1-0.2,0.2c-0.2,0.2-0.5,0.3-0.8,0.5c-1,0.4-2.2,0.7-3.6,0.7l0,0c-0.1,0-0.4,0-0.7-0.1c-0.4,0-1.3-0.2-1.7-0.1
					c0.2,0.3,0.7,0.7,0.9,0.9C113.4,257.6,114.1,258.2,115,258.5z"/>
				<path class="st1" d="M51.2,323.2c-1.2-0.9-1.9-1.4-2.9-1.8c-1.2-0.4-2.2-0.4-2.8-0.4c-3.6,0.1-6.3,2.2-7,2.9
					c-1.3,1.1-2.4,2.6-3.2,4.3c1.2,0.5,3.8,1.2,6.5-0.2c1.7-0.8,2.8-2.1,3.5-3.1c0.2-0.3,0.5-0.4,0.8-0.4c0.3,0,0.6,0.2,0.7,0.4
					c0.6,1.2,1.8,2.9,3.7,4.2c2.2,1.5,4.5,1.8,6,1.8c-0.6-2-1.5-3.9-2.8-5.4C52.9,324.5,51.9,323.7,51.2,323.2z"/>
				<path class="st1" d="M119.3,242.9c-0.1,0.9-0.2,1.8-0.1,2.7c0,0.3,0,0.3,0,0.3c0,0,0.1,0,0.1,0c0.2-0.1,0.5-0.5,0.6-0.9
					c0.3-0.7,0.4-1.5,0.5-2.1c0.1-1.3,0-2.7-0.2-3.9c-0.6-3.5-2.2-6.9-4.6-9.5c2.3,3.3,4.1,7.4,3.8,12
					C119.3,242,119.3,242.4,119.3,242.9z"/>
				<path class="st1" d="M46.8,331c-0.5,0.6-1,1.2-1.5,1.8c-5.9,8.5-3.4,19.9-1.4,26.1c2.8-5.8,5.7-14.7,3.8-24.3
					C47.5,333.5,47.2,332.2,46.8,331z"/>
				<path class="st1" d="M55.5,334.9c1.1,2.1,2.1,4.2,3,6.3c0.2,0.4,0.5,0.9,0.9,1.6c0.9,1.5,2.1,3.6,3,6.1c0,0,0.9,2.5,2.7,3.9
					c0.4,0.3,0.5,0.3,0.5,0.3c0-0.1,0.1-0.5,0.1-0.8c0.5-3.3,0.6-3.8,0.5-4.4c0-0.3-0.1-0.8-0.2-1.4c0-0.2-0.1-0.5-0.2-0.8
					c0-0.2-0.1-0.4-0.1-0.5c-0.4-1.4-1-2.7-1.8-3.9c-0.5-0.8-1.1-1.5-1.8-2.1C59.8,336.9,57.4,335.6,55.5,334.9z"/>
				<path class="st1" d="M52.1,345.6c-0.1,0.6-0.1,1.2-0.2,1.7c-0.2,2.4-0.4,4.2,0.2,6.3c0.5,1.7,1.5,3.3,2.8,4.7
					c1-2.4,1.5-4.8,1.6-7.3c0.2-6.9-3.4-13.4-5.2-16.1c0.1,0.7,0.1,1.4,0.2,2.1C51.9,340.5,52.2,343.8,52.1,345.6z"/>
				<path class="st1" d="M41.2,242c3.3,2.5,6.5,5.3,9.6,8.2c0,0,0.1,0,0.1,0c0,0,0,0,0,0c0.3-3.3,0.1-8.3-2.5-13.3
					c-0.7-1.3-1.5-2.6-2.4-3.7c-1.5-1.8-3.3-3.4-5.5-4.6c-0.3-0.1-0.5-0.3-0.8-0.4c-1.4-0.7-2.6-1.2-3.3-1.5l-0.3-0.1
					c-2.2-0.9-4.4-2.2-6.5-3.8c0,0-0.1,0-0.2,0c-0.1,0-0.1,0.1-0.1,0.1c-0.5,3.9,0,7.3,1.6,10.1c1.4,2.5,3.2,3.8,6.5,6.3
					C38.5,240,39.7,240.9,41.2,242z"/>
				<path class="st1" d="M37.7,341.2c0.3-2.4,1.4-5,2.1-6.8c-0.1,0.1-0.2,0.2-0.3,0.3c-3.4,2.8-5.9,6.6-7.5,11.2
					c-0.6,1.8-1,3.6-1.3,5.4c-0.2,1.3-0.4,2.7-0.5,4c0.9-0.5,1.7-1,2.4-1.5c2.4-1.7,3.9-3.6,4.5-5.7c0.3-1.1,0.3-2,0.3-3.1
					C37.5,344,37.5,342.8,37.7,341.2z"/>
				<path class="st1" d="M21,313.4c0.7,0.4,1.4,0.7,2.5,0.7c0.9,0,1.3-0.1,2-0.3c0.7-0.2,1.4-0.5,2.8-0.5c1.3-0.1,2,0.1,2.6,0.2
					c0.5,0.1,0.9,0.2,1.5,0.1c1.1-0.2,1.5-0.7,2.1-1.4c0.6-0.6,1.3-1.4,2.5-2.1c1.4-0.8,2.5-0.9,3.7-1c1-0.1,2.1-0.2,3.8-0.8
					c0.2-0.1,0.4-0.2,0.6-0.2c-4.6-0.4-8.7-0.3-12.4,0.3c-2.6,0.4-4.6,1.1-6.2,2c-0.5,0.3-1.1,0.1-1.4-0.4c-0.3-0.5-0.1-1.1,0.3-1.4
					l0,0c4.2-2.5,9.6-3.8,16.8-4c-0.2,0-0.5-0.1-0.7-0.1c-1.7-0.3-2.4-0.9-3.1-1.3c-0.6-0.4-1.1-0.7-2.2-1c-2.9-0.6-4.7,0.1-5.8,0.7
					c-0.4,0.3-0.8,0.5-1.2,1c-0.6,0.5-1.4,1.2-3,2.3l-0.3,0.2c-0.1,0.1-0.2,0.1-0.3,0.2c-0.2,0.2-0.5,0.3-0.7,0.4
					c-1.8,1.1-3.2,1.4-4.5,1.7c-0.8,0.2-1.5,0.3-2.2,0.6c-1.9,0.7-3.7,2.2-5.2,4.4c2.3-1,4.3-1.3,6.2-0.8
					C19.9,312.8,20.5,313.1,21,313.4z"/>
				<path class="st1" d="M22.7,292.7c0.7-0.1,1.9-0.2,3.4-0.5c0.3-0.1,0.6-0.1,0.9-0.2c2.4-0.5,4.7-1.4,6.8-2.7
					c1.3-0.8,2.6-1.7,3.9-2.7c3.6-3,6.6-6.8,8.7-11.2c-3.9,1.8-7.8,3.4-11.6,4.8c-1.7,0.6-3.2,1.1-4.5,1.6c-3.9,1.3-6,2.1-8.4,4l0,0
					c-2.7,2.2-4.9,5.1-6.5,8.7c2.5-1,4.9-1.5,7.1-1.8L22.7,292.7z"/>
				<path class="st1" d="M29.9,341.3c0.5-0.8,1.1-1.6,1.8-2.7c1.5-2.2,3.2-4.4,5-6.5c-2.1,0.2-5.1,0.8-8,2.6
					c-0.8,0.5-1.6,1.2-2.4,1.8c-1.2,1.1-2.1,2.4-2.9,3.8c-0.1,0.2-0.2,0.4-0.3,0.6c-0.5,1-0.7,1.7-0.9,2.2l-0.1,0.2
					c-0.5,1.4-1.3,2.9-2.3,4.3c2.4-0.1,4.4-0.7,6.1-1.8C27.6,344.8,28.4,343.6,29.9,341.3z"/>
				<path class="st1" d="M19.4,279c11.2,0.4,22.7-6.2,26.3-8.6c-1.4,0.1-2.8,0.3-4.2,0.4c-5.2,0.5-10.2,1-12.9,0.7l0,0
					c-0.9-0.1-1.7-0.2-2.5-0.3c-3.6-0.4-6.2-0.7-9.6,0.4c-2.7,0.8-5.3,2.3-7.7,4.3c-0.2,0.2-0.2,0.4-0.2,0.5c0,0.2,0.1,0.2,0.2,0.2
					C12.1,278.1,15.7,278.9,19.4,279z"/>
				<path class="st1" d="M33.1,250.7c1.3,0,2.7,0.1,4.1,0.3c3.4,0.4,6.4,1.8,9.4,3.1l0.4,0.2c0.6,0.3,1.1,0.5,1.6,0.7
					c-3.2-4.7-7.8-8.6-13.4-11.3c-5.2-2.5-11.2-4-17.8-4.3c1.5,4.4,4.4,8.1,7.8,10C27.6,250.6,30.2,250.6,33.1,250.7z"/>
				<path class="st1" d="M46,265.5c2-0.4,4.1-1,6.1-1.6c0,0,0.1,0,0.1,0c0.1-0.1,0.1-0.1,0.1-0.2c0,0,0-0.1,0-0.2
					c-0.8-0.9-1.7-1.7-2.7-2.5c-12-9.4-30.4-5.2-40.3-1.9c-0.2,0.1-0.2,0.2-0.2,0.3C17.4,264,30.6,268.6,46,265.5z"/>
				<path class="st2" d="M18.9,313.9c0.6,0.2,1.1,0.4,1.6,0.7c0.8,0.4,1.6,0.8,3,0.9c1.1,0,1.7-0.2,2.4-0.4c0.6-0.2,1.3-0.4,2.5-0.5
					c1.1-0.1,1.7,0.1,2.3,0.2c0.6,0.1,1.1,0.2,2,0.1c1.5-0.3,2.1-1,2.8-1.8c0.5-0.6,1.1-1.2,2.2-1.8c1.2-0.7,2.1-0.8,3.2-0.9
					c1.1-0.1,2.3-0.2,4.1-0.9c1-0.4,2-0.8,2.9-1.3l1.9-1l-2.1-0.2c-5.7-0.6-10.7-0.6-15.2,0.1c-0.3,0.1-0.7,0.1-1,0.2
					c4.3-1.3,9.7-1.7,16.4-1.5l2.5,0.1l-2.2-1.3c-0.4-0.3-0.9-0.5-1.3-0.7c-1.2-0.5-2.2-0.5-3.1-0.6c-0.6,0-1.3-0.1-2.1-0.2
					c-1.4-0.3-2-0.7-2.6-1.1c-0.6-0.4-1.3-0.9-2.7-1.2c-3.3-0.6-5.4,0.1-6.7,0.9c-0.5,0.3-0.9,0.7-1.4,1.1c-0.6,0.5-1.4,1.2-2.9,2.3
					l-0.3,0.2c-0.3,0.2-0.6,0.4-0.9,0.6c-1.6,1-2.8,1.2-4.1,1.5c-0.8,0.2-1.6,0.3-2.4,0.7c-0.8,0.3-1.6,0.7-2.3,1.3
					c-1.8,1.3-3.4,3.2-4.7,5.7l-1.1,2.1l2-1.3C14.4,313.9,16.8,313.3,18.9,313.9z M18.2,309.1c0.8-0.3,1.5-0.4,2.2-0.6
					c1.3-0.3,2.7-0.6,4.5-1.7c0.2-0.1,0.4-0.3,0.7-0.4c0.1-0.1,0.2-0.1,0.3-0.2l0.3-0.2c1.6-1.1,2.4-1.8,3-2.3
					c0.5-0.4,0.8-0.7,1.2-1c1-0.6,2.9-1.3,5.8-0.7c1.1,0.2,1.6,0.6,2.2,1c0.7,0.5,1.4,1,3.1,1.3c0.3,0.1,0.5,0.1,0.7,0.1
					c-7.2,0.2-12.6,1.5-16.8,4l0,0c-0.5,0.3-0.6,0.9-0.3,1.4c0.3,0.5,0.9,0.7,1.4,0.4c1.7-0.9,3.6-1.5,6.2-2
					c3.7-0.6,7.8-0.7,12.4-0.3c-0.2,0.1-0.4,0.2-0.6,0.2c-1.7,0.6-2.8,0.7-3.8,0.8c-1.1,0.1-2.2,0.2-3.7,1c-1.3,0.7-2,1.5-2.5,2.1
					c-0.7,0.7-1.1,1.2-2.1,1.4c-0.6,0.1-1,0.1-1.5-0.1c-0.6-0.1-1.3-0.3-2.6-0.2c-1.3,0.1-2.1,0.3-2.8,0.5c-0.6,0.2-1.1,0.4-2,0.3
					c-1.1,0-1.8-0.4-2.5-0.7c-0.5-0.3-1.1-0.6-1.8-0.8c-1.8-0.5-3.9-0.2-6.2,0.8C14.5,311.3,16.2,309.8,18.2,309.1z"/>
				<path class="st2" d="M52,322.1c-1.1-0.9-2-1.6-3.3-2c-1.4-0.5-2.6-0.5-3.2-0.4c-3,0.1-5.5,1.5-6.9,2.4c-0.4,0.3-0.8,0.6-1,0.8
					c-1.5,1.3-2.8,3.1-3.6,5c-0.1,0.2-0.1,0.5,0,0.8c0.1,0.2,0.3,0.4,0.5,0.5c1.2,0.6,4.4,1.7,7.9,0c1.6-0.8,2.8-2,3.6-2.9
					c0.8,1.3,2,2.8,3.8,4c2.6,1.7,5.2,2,6.9,2c0.3,0,0.7-0.2,0.9-0.5c0.2-0.3,0.3-0.7,0.2-1c-0.6-2.3-1.7-4.4-3-6
					C53.8,323.5,52.7,322.7,52,322.1z M56.6,330.9c-1.5,0-3.8-0.3-6-1.8c-1.9-1.3-3.1-3-3.7-4.2c-0.1-0.3-0.4-0.4-0.7-0.4
					c-0.3,0-0.6,0.1-0.8,0.4c-0.6,0.9-1.8,2.2-3.5,3.1c-2.7,1.3-5.3,0.6-6.5,0.2c0.8-1.6,1.9-3.1,3.2-4.3c0.7-0.6,3.4-2.8,7-2.9
					c0.5,0,1.6,0,2.8,0.4c1.1,0.4,1.8,0.9,2.9,1.8c0.7,0.6,1.7,1.3,2.6,2.4C55,327,56,328.9,56.6,330.9z"/>
				<path class="st2" d="M49,334.4c-0.3-1.3-0.6-2.7-1-4c-0.1-0.4-0.5-0.7-0.9-0.8c-0.3-0.1-0.7,0-0.9,0.2c-0.1,0-0.1,0.1-0.2,0.2
					c-0.6,0.6-1.2,1.3-1.7,2.1c-6.3,9-3.6,21.1-1.5,27.5c0.2,0.5,0.6,0.8,1,0.8c0.5,0,0.9-0.2,1.1-0.7C48,353.8,51,344.6,49,334.4z
					 M44,359c-2.1-6.2-4.5-17.7,1.4-26.1c0.4-0.6,0.9-1.3,1.5-1.8c0.4,1.2,0.7,2.4,0.9,3.6C49.7,344.3,46.8,353.2,44,359z"/>
				<path class="st2" d="M55.2,333.4c-0.3-0.1-0.7-0.1-0.9,0.1c-0.1,0-0.1,0.1-0.2,0.2c-0.3,0.3-0.3,0.7-0.1,1.1
					c1.2,2.3,2.3,4.6,3.3,6.9c0.2,0.4,0.5,1,0.9,1.7c0.9,1.5,2,3.5,2.9,5.9c0,0.1,1,2.9,3.1,4.5c0.3,0.2,1,0.8,1.8,0.5
					c0.7-0.3,0.8-1,0.9-1.8c0.6-3.5,0.6-4,0.5-4.7c0-0.3-0.1-0.9-0.2-1.5c-0.1-0.3-0.1-0.6-0.2-0.9c0-0.2-0.1-0.4-0.1-0.6
					c-0.4-1.5-1.1-3-2-4.3c-0.6-0.8-1.2-1.6-1.9-2.3C60.3,335.6,57.3,334.1,55.2,333.4z M65.6,345.2c0,0.2,0.1,0.3,0.1,0.5
					c0.1,0.3,0.1,0.6,0.2,0.8c0.1,0.6,0.2,1.1,0.2,1.4c0.1,0.6,0,1.1-0.5,4.4c0,0.3-0.1,0.7-0.1,0.8c0,0-0.2,0-0.5-0.3
					c-1.8-1.4-2.6-3.8-2.7-3.9c-0.9-2.6-2.1-4.6-3-6.1c-0.4-0.7-0.7-1.2-0.9-1.6c-0.9-2.1-1.9-4.2-3-6.3c1.9,0.7,4.4,2,6.6,4.3
					c0.6,0.7,1.2,1.4,1.8,2.1C64.6,342.5,65.2,343.8,65.6,345.2z"/>
				<path class="st2" d="M19.5,349.1c2.7,0,5.1-0.7,7.2-2.1c1.8-1.2,2.7-2.6,4.3-5c0.5-0.8,1.1-1.6,1.8-2.6c1.6-2.3,3.4-4.5,5.2-6.7
					l0,0c0.3-0.3,0.3-0.8,0.1-1.2c-0.2-0.4-0.6-0.6-1-0.6c-2.3,0.1-5.7,0.7-9.2,2.9c-0.3,0.2-0.5,0.3-0.8,0.5
					c-0.6,0.4-1.2,0.9-1.8,1.5c-1.3,1.2-2.3,2.6-3.2,4.2c-0.1,0.2-0.2,0.4-0.3,0.6c-0.5,1-0.8,1.8-1,2.3l-0.1,0.2
					c-0.5,1.4-1.3,2.8-2.3,4.2c-0.3,0.4-0.3,0.8-0.1,1.2C18.7,348.9,19.1,349.1,19.5,349.1z M22.1,343.5l0.1-0.2
					c0.2-0.5,0.5-1.2,0.9-2.2c0.1-0.2,0.2-0.4,0.3-0.6c0.8-1.5,1.7-2.8,2.9-3.8c0.7-0.7,1.5-1.3,2.4-1.8c3-1.9,5.9-2.5,8-2.6
					c-1.8,2.1-3.4,4.3-5,6.5c-0.7,1-1.3,1.9-1.8,2.7c-1.5,2.3-2.4,3.5-4,4.6c-1.7,1.2-3.8,1.8-6.1,1.8
					C20.8,346.4,21.6,344.9,22.1,343.5z"/>
				<path class="st2" d="M50.6,332.7c-0.1,0-0.2,0.1-0.2,0.1c-0.3,0.2-0.4,0.5-0.4,0.8c0.1,1.1,0.2,2.3,0.3,3.5
					c0.3,3.3,0.7,6.6,0.5,8.4c-0.1,0.6-0.1,1.2-0.2,1.7c-0.3,2.5-0.5,4.5,0.3,6.9c0.6,1.9,1.6,3.6,3.1,5.2c0.3,0.3,0.8,0.5,1.3,0.4
					c0.5-0.1,0.8-0.4,1-0.8c1-2.5,1.5-5.1,1.6-7.7c0.3-8.6-5.2-16.6-6.3-18.1C51.4,332.7,50.9,332.6,50.6,332.7z M56.6,351.1
					c-0.1,2.5-0.6,4.9-1.6,7.3c-1.3-1.4-2.3-3-2.8-4.7c-0.7-2.1-0.5-3.9-0.2-6.3c0.1-0.5,0.1-1.1,0.2-1.7c0.2-1.9-0.2-5.1-0.5-8.6
					c-0.1-0.7-0.1-1.4-0.2-2.1C53.2,337.7,56.8,344.2,56.6,351.1z"/>
				<path class="st2" d="M38.8,345c0-1,0-2.1,0.2-3.6c0.3-2.3,1.4-4.8,2.1-6.5c0.6-1.4,0.8-1.9,0.7-2.2l-0.1-0.2
					c-0.1-0.3-0.4-0.4-0.6-0.4c-0.3,0-0.5,0.1-0.8,0.3c-0.3,0.2-0.6,0.5-0.9,0.9c-0.2,0.2-0.4,0.5-0.6,0.6c-3.6,3-6.3,7-7.9,11.8
					c-0.6,1.8-1.1,3.7-1.4,5.6c-0.3,1.6-0.5,3.2-0.5,4.8c0,0.3,0.1,0.7,0.4,0.9c0.3,0.2,0.7,0.2,1,0.1c4.4-2.3,7.1-5,8.1-8.3
					C38.8,347.2,38.8,346.2,38.8,345z M37.2,348.1c-0.6,2.1-2.1,4-4.5,5.7c-0.7,0.5-1.5,1-2.4,1.5c0.1-1.4,0.3-2.7,0.5-4
					c0.3-1.8,0.8-3.6,1.3-5.4c1.5-4.6,4-8.4,7.5-11.2c0.1-0.1,0.2-0.2,0.3-0.3c-0.7,1.7-1.8,4.4-2.1,6.8c-0.2,1.6-0.2,2.8-0.2,3.8
					C37.5,346.1,37.5,347,37.2,348.1z"/>
				<path class="st2" d="M119.4,253.4c3.5-2.2,5.9-6,6.2-9.8c0.9-8.3-5.7-15.2-12.6-18.4c-0.4-0.2-0.8-0.1-1,0.2
					c0,0-0.1-0.1-0.1-0.1l-0.2-0.2l-0.3,0c-0.3,0-0.5,0.2-0.5,0.2c-0.1,0-0.1,0.1-0.2,0.2c-0.3,0-0.6,0.1-0.8,0.3l-0.1-0.1l-0.6,0
					l-0.2,0.2c-2.5,2-4.4,4.4-5.8,6.9c-2.4,4.2-2.9,9.3-1.4,13.6c1.3,3.7,4,6.6,7.7,8C112.8,255.7,116.3,255.3,119.4,253.4z
					 M115.5,229.5c2.4,2.7,4,6,4.6,9.5c0.2,1.2,0.4,2.6,0.2,3.9c-0.1,0.6-0.2,1.4-0.5,2.1c-0.2,0.4-0.5,0.7-0.6,0.9c0,0-0.1,0-0.1,0
					c0,0,0-0.1,0-0.3c0-0.9,0.1-1.8,0.1-2.7c0-0.5,0.1-0.9,0.1-1.4C119.7,236.9,117.9,232.8,115.5,229.5z M103.1,246
					c-1.4-3.9-0.9-8.6,1.3-12.6c0.8-1.5,1.8-2.9,3-4.3c-0.4,0.8-0.9,1.7-1.3,2.7c-2.4,6-1.6,12.3,2,16.6c0.5,0.5,0.9,0.8,1.1,0.9
					c0.7,0.2,1.2,0.2,1.6,0c0,0,0.1,0,0.1-0.1c0.2-0.1,0.4-0.4,0.5-0.9c0.2-1.1-0.5-2.3-1-3.3c-0.2-0.3-0.3-0.6-0.5-0.9
					c-1.6-3.6-2-8-1.1-12.2c0.1-0.3,0.8-2.2,1.4-3.7c0,0.5,0,0.9,0.1,1.4c0,0.9,0.1,1.7,0.1,2.6l0,0.8c0.1,4.3,0.2,8.3,2.1,12.4
					c0.1,0.1,0.1,0.2,0.2,0.4c0.2,0.5,0.5,1.1,0.9,1.5c0.4,0.4,0.9,0.4,1.3,0.2c0.4-0.3,0.5-0.8,0.5-1c0.4-4.3,0.6-9.9-1.6-14.6
					l-0.2-0.4c-1.3-2.6-1.7-4-1.8-4.6c3.3,3.4,6.8,8.5,6.4,14.5c0,0.4-0.1,0.9-0.1,1.3c-0.1,0.9-0.2,1.9-0.2,2.9c0,0.2,0,1,0.6,1.4
					c0.3,0.2,0.7,0.3,1.1,0.2c0.9-0.3,1.5-1.5,1.5-1.6c0.4-0.9,0.5-1.8,0.6-2.5c0.2-1.5,0-3-0.2-4.3c-0.6-3.7-2.4-7.3-4.9-10.2
					c4.8,3.4,8.6,8.7,7.9,14.8l0,0c-0.3,3.5-2.4,6.8-5.6,8.8c-2.8,1.7-5.8,2.1-8.6,1C106.8,251.9,104.3,249.4,103.1,246z
					 M107.5,232.1c-0.8,4.4-0.4,8.9,1.3,12.7c0.1,0.3,0.3,0.7,0.5,1c0.5,0.8,1,1.8,0.9,2.5c0,0-0.1,0-0.4,0c0,0-0.3-0.2-0.6-0.6
					c-3.3-3.9-4-9.8-1.8-15.3C107.4,232.3,107.4,232.2,107.5,232.1z M111.6,230.4c0.2,0.5,0.5,1.1,0.8,1.7l0.2,0.4
					c2,4.3,1.9,9.4,1.5,13.5c-0.1-0.2-0.2-0.4-0.3-0.6c-0.1-0.1-0.1-0.3-0.2-0.4c-1.8-3.8-1.9-7.7-2-11.8l0-0.8
					C111.6,231.6,111.6,231,111.6,230.4z"/>
				<path class="st2" d="M119.6,258.7c0.1-0.1,0.2-0.3,0.3-0.4c0.8-1,1.2-2.1,1.4-3.4c0-0.3,0-0.7-0.2-0.9c-0.1-0.2-0.3-0.4-0.7-0.4
					c-0.2,0-0.4,0-0.6,0.1c-0.5,0.2-0.9,0.5-1.3,0.7c-0.3,0.2-0.5,0.4-0.8,0.5c-0.9,0.4-1.9,0.6-3.1,0.6c-0.1,0-0.3,0-0.6-0.1
					c-1.3-0.2-2.3-0.2-2.9,0.2c-0.1,0.1-0.1,0.1-0.2,0.2c-0.1,0.2-0.3,0.5-0.2,1c0.2,0.6,0.8,1.1,1.4,1.7c0.3,0.3,1.1,0.9,2.3,1.3
					C116.5,260.3,118.5,259.9,119.6,258.7z M114,256.6c0.3,0,0.6,0.1,0.7,0.1l0,0c1.4,0,2.6-0.2,3.6-0.7c0.3-0.1,0.6-0.3,0.8-0.5
					c0.1-0.1,0.2-0.1,0.2-0.2c0.3-0.2,0.5-0.4,0.8-0.5c-0.2,1-0.6,1.8-1.1,2.5c-0.1,0.1-0.2,0.2-0.3,0.3c-0.6,0.7-2.1,1.2-3.7,0.7
					c-0.9-0.3-1.6-0.8-1.9-1.1c-0.2-0.2-0.7-0.6-0.9-0.9C112.7,256.5,113.6,256.6,114,256.6z"/>
				<path class="st2" d="M55.2,244.2c-1.1,2.1-3.5,7.5-1.4,13.7c1.1,3.3,3,5.6,4.6,7c-2.3,1.1-5.4,3.2-7.9,6.6
					c-3.2,4.3-4.2,8.8-4.5,11.8c-0.1,0.7,0.7,1.3,1.5,1.6c1.5,0.5,2.7-0.7,4.2-2.2c1.3-1.3,2.9-2.9,5.2-4.2c1.3-0.7,2.1-1,2.9-1.2
					c1-0.3,1.8-0.6,3.1-1.7c2.4-2.1,3.5-4.6,3.9-5.6c0.8-1.9,1.2-3.8,1.3-5.5c0.1-2.5-0.6-3.8-2.2-6.5c-0.8-1.5-1.9-3.3-3.2-5.9
					c-0.4-0.8-0.7-1.5-1.1-2.2c-1.8-3.8-3-6.3-5-6.2c-0.3,0-0.7,0-1,0.3C55.4,244,55.3,244.1,55.2,244.2L55.2,244.2z M55,257.5
					c-1.9-5.6,0.2-10.5,1.3-12.6c0.1,0,0.2,0,0.3,0c1.2-0.1,2.3,2.4,3.8,5.4c0.3,0.7,0.7,1.4,1.1,2.2c1.3,2.7,2.4,4.6,3.2,6
					c1.5,2.7,2.1,3.7,2,5.9c0,1.6-0.4,3.3-1.2,5.1c-0.4,0.9-1.4,3.2-3.6,5.1c-0.2,0.2-0.4,0.3-0.6,0.5c-0.8,0.5-1.3,0.7-2.1,0.9
					c-0.8,0.2-1.7,0.5-3.1,1.3c-2.4,1.4-4.1,3-5.4,4.4c-1.4,1.4-2.2,2.2-2.9,1.9c-0.3-0.1-0.5-0.3-0.6-0.3c0.3-2.9,1.2-7.1,4.2-11.1
					c2.6-3.4,5.7-5.4,7.8-6.4c0.3-0.2,0.5-0.4,0.6-0.8"/>
				<path class="st2" d="M46.3,266.7c2.1-0.4,4.2-1,6.2-1.7c0.5-0.2,0.9-0.6,1.1-1.1c0.1-0.5,0-1-0.3-1.4c-0.9-0.9-1.8-1.8-2.8-2.6
					c-12.5-9.8-31.4-5.5-41.5-2.1c-0.2,0.1-0.3,0.1-0.4,0.2c-0.4,0.3-0.6,0.7-0.7,1.2c0,0.6,0.2,1.1,0.7,1.4
					C17,265.2,30.5,270,46.3,266.7z M9.3,259.1c9.9-3.3,28.3-7.5,40.3,1.9c0.9,0.7,1.9,1.6,2.7,2.5c0,0,0,0.1,0,0.2
					c0,0.1-0.1,0.1-0.1,0.2c0,0-0.1,0-0.1,0c-2,0.7-4,1.2-6.1,1.6c-15.4,3.2-28.6-1.5-37-6.1C9.1,259.3,9.1,259.2,9.3,259.1z"/>
				<path class="st2" d="M15.6,295.7c2.4-0.9,4.7-1.5,6.8-1.7l0.3,0c0.8-0.1,1.9-0.2,3.5-0.5c0.3-0.1,0.6-0.1,0.9-0.2
					c2.5-0.6,4.9-1.5,7.2-2.9c1.4-0.8,2.7-1.8,4-2.8c3.8-3.2,7-7.2,9.1-11.8c0.2-0.5,0.1-1-0.2-1.4c-0.4-0.4-0.9-0.4-1.4-0.2
					c-3.9,1.8-7.9,3.4-11.8,4.8c-1.7,0.6-3.2,1.1-4.5,1.6c-3.6,1.2-5.8,2-8,3.6c-0.3,0.2-0.5,0.4-0.8,0.6c-2.9,2.3-5.2,5.4-6.9,9.2
					c-0.2,0.5-0.1,1,0.2,1.4C14.6,295.8,15.1,295.9,15.6,295.7z M21.7,285.8L21.7,285.8c2.4-1.9,4.5-2.6,8.4-4
					c1.3-0.4,2.8-0.9,4.5-1.6c3.8-1.4,7.8-3,11.6-4.8c-2.1,4.3-5.1,8.2-8.7,11.2c-1.2,1-2.5,1.9-3.9,2.7c-2.1,1.3-4.4,2.2-6.8,2.7
					c-0.3,0.1-0.6,0.1-0.9,0.2c-1.5,0.3-2.6,0.4-3.4,0.5l-0.3,0c-2.2,0.2-4.6,0.8-7.1,1.8C16.8,290.9,18.9,288,21.7,285.8z"/>
				<path class="st2" d="M40.4,243c3.3,2.5,6.5,5.3,9.6,8.1c0.4,0.3,0.9,0.4,1.4,0.2c0.5-0.2,0.8-0.6,0.9-1.1c0.5-5-0.4-9.9-2.6-14
					c-0.7-1.4-1.6-2.7-2.6-3.9c-1.6-2-3.5-3.6-5.9-4.9c-0.3-0.2-0.6-0.3-0.9-0.5c-1.5-0.8-2.7-1.2-3.4-1.5l-0.3-0.1
					c-2.1-0.8-4.2-2.1-6.2-3.6c-0.4-0.3-1-0.4-1.5-0.2c-0.1,0-0.2,0.1-0.3,0.2c-0.3,0.2-0.5,0.6-0.6,1c-0.6,4.1,0,7.8,1.8,10.9
					c1.5,2.7,3.5,4.2,6.9,6.7C37.7,241,38.9,241.9,40.4,243z M30.9,232.9c-1.6-2.8-2.1-6.2-1.6-10.1c0,0,0.1-0.1,0.1-0.1
					c0.1,0,0.2,0,0.2,0c2.1,1.6,4.3,2.9,6.5,3.8l0.3,0.1c0.7,0.3,1.9,0.7,3.3,1.5c0.3,0.1,0.6,0.3,0.8,0.4c2.2,1.2,4.1,2.8,5.5,4.6
					c0.9,1.2,1.7,2.4,2.4,3.7c2.6,5,2.8,10,2.5,13.3c0,0,0,0,0,0c0,0-0.1,0-0.1,0c-3.1-2.9-6.3-5.6-9.6-8.2c-1.5-1.1-2.7-2-3.8-2.9
					C34.1,236.8,32.2,235.4,30.9,232.9z"/>
				<path class="st2" d="M19.4,280.3c12.6,0.5,25.4-7.6,27.8-9.3c0.4-0.3,0.6-0.8,0.4-1.3c-0.2-0.4-0.6-0.7-1-0.7
					c-1.7,0.1-3.5,0.3-5.2,0.5c-4.9,0.5-10,1-12.6,0.7c-0.9-0.1-1.7-0.2-2.5-0.3c-3.6-0.4-6.5-0.7-10.1,0.4
					c-2.2,0.7-4.3,1.7-6.4,3.2c-0.6,0.4-1.2,0.9-1.8,1.4c-0.5,0.4-0.7,1.1-0.6,1.7c0.1,0.5,0.4,1,0.9,1.2
					C11.7,279.4,15.5,280.2,19.4,280.3z M8.5,276.5c0-0.1,0-0.3,0.2-0.5c2.4-2.1,5-3.5,7.7-4.3c3.4-1,6-0.7,9.6-0.4
					c0.8,0.1,1.6,0.2,2.5,0.3l0,0c2.7,0.2,7.6-0.2,12.9-0.7c1.4-0.1,2.8-0.3,4.2-0.4c-3.6,2.3-15.1,9-26.3,8.6
					c-3.7-0.1-7.3-0.9-10.7-2.3C8.7,276.7,8.6,276.7,8.5,276.5z"/>
				<path class="st2" d="M33,252c1.3,0,2.7,0.1,3.9,0.3c3.2,0.4,6.2,1.7,9.1,3l0.4,0.2c0.9,0.4,2,0.9,3.2,1.2l1.1,0.3l-0.3-1
					c-0.1-0.5-0.4-1-0.7-1.4c-3.3-5-8.2-9.1-14.1-12c-5.4-2.6-11.6-4.1-18.4-4.5c-0.4,0-0.7,0.1-0.9,0.2c-0.2,0.1-0.3,0.3-0.4,0.5
					c-0.1,0.3,0,0.5,0,0.6c1.6,4.8,4.8,9,8.5,11C27.2,251.8,30.2,251.9,33,252z M17.4,239.3c6.6,0.4,12.6,1.8,17.8,4.3
					c5.6,2.7,10.2,6.6,13.4,11.3c-0.5-0.2-1.1-0.4-1.6-0.7l-0.4-0.2c-3-1.3-6-2.6-9.4-3.1c-1.3-0.2-2.7-0.2-4.1-0.3
					c-2.8-0.1-5.5-0.2-7.9-1.4C21.8,247.4,18.9,243.7,17.4,239.3z"/>
				<g>
					<path class="st2" d="M105.3,286.2l0.7,1c3.8,5.3,8,5.6,10.8,5c1.4-0.3,2.5-0.9,3.6-1.4c1.6-0.8,3.2-1.5,5.8-1.9
						c0.4-0.1,0.8-0.1,1.2-0.1c0.2,0,0.5-0.1,0.8-0.1c2-0.3,3.4-0.4,4.5-0.5c1.5-0.1,2.4-0.2,3.6-0.6c5-1.6,8.1-6.7,8.4-7.3
						c1.2-2,1.4-3.2,1.6-4.4c0.2-1.1,0.3-2.3,1.4-4.3c0.6-1.1,1.1-2,1.6-2.8c0.9-1.4,1.7-2.6,2.1-4.6c0.1-0.6,0.2-1.1,0.2-1.7l0.1-2
						l-1,1.8c-1.7,3.3-3.8,6.3-6.2,9c-4.4,5-9.8,9-15.4,11.2c8.4-4.2,16-12.5,19.6-21.6l0.5-1.3l-1.2,0.8c-1.7,1.1-3.3,2.2-4.8,3.3
						c-2.1,1.5-3.3,2.8-4.2,3.8c-1.2,1.3-2.1,2.2-4.1,3c-1.8,0.7-3.1,0.6-4.3,0.6c-1.3,0-2.4,0-3.7,0.9c-0.9,0.5-1.2,1.1-1.6,1.7
						c-0.4,0.6-0.8,1.3-1.9,2.2c-1.2,1-2,1.3-2.8,1.5c-0.7,0.3-1.5,0.5-2.3,1.3c-1.1,1-1.6,2.1-2.1,3.1c-0.3,0.7-0.7,1.5-1.3,2.3
						c-0.7,0.9-3.4,3.7-8.4,2.4L105.3,286.2z M123.5,277c0.2-0.1,0.4-0.3,0.6-0.5c1.2-1,1.7-1.8,2.1-2.4c0.3-0.6,0.6-1,1.3-1.4
						c1.1-0.7,2-0.7,3.2-0.7c1.2,0,2.6,0,4.6-0.7c2.2-0.9,3.2-1.9,4.5-3.2c1-1,2.1-2.2,4.1-3.7c1.1-0.8,2.3-1.6,3.5-2.5
						c-3.8,8.7-11.4,16.6-19.6,20.2c-0.5,0.2-0.6,0.8-0.4,1.2c0.2,0.4,0.6,0.6,1,0.5l0,0c6.1-2.2,12.2-6.5,17-12
						c1.9-2.1,3.5-4.4,5-6.8c-0.4,1.2-1,2.1-1.7,3.2c-0.5,0.8-1.1,1.7-1.6,2.8c-1.1,2.1-1.3,3.4-1.5,4.6c-0.2,1.2-0.3,2.2-1.5,4.1
						c-0.3,0.6-3.3,5.4-7.9,6.8c-1.1,0.3-1.9,0.4-3.4,0.5c-1.1,0.1-2.5,0.2-4.5,0.5c-0.3,0-0.5,0.1-0.8,0.1c-0.5,0-0.9,0.1-1.2,0.2
						c-2.7,0.4-4.4,1.3-6,2c-1.1,0.5-2.2,1-3.5,1.3c-2.4,0.6-5.8,0.3-9.1-3.6c4.8,0.7,7.4-2,8.2-3c0.7-0.9,1.1-1.7,1.4-2.5
						c0.5-1,0.9-1.9,1.9-2.8c0.8-0.7,1.3-0.9,2-1.2C121.7,278,122.5,277.7,123.5,277z M128.1,283.4l-0.2-0.4c0,0,0,0,0,0
						L128.1,283.4z"/>
				</g>
				<path class="st2" d="M92.2,269.9c-6.8,0.4-13.7,0.1-20.6-0.6c-1-0.1-1.4,1.5-0.3,1.7c5.5,1.4,11.3,2.2,17.2,2.5
					c-2.1,0.7-4.1,1.5-6.1,2.4c-5.7,2.6-11,6-15.7,10.2c-4.7,4.1-8.8,9-12.1,14.3c-1,1.6-1.9,3.2-2.8,4.9c-0.5,0.9-0.9,1.8-1.3,2.7
					c-1.4,3-2.6,6.2-3.5,9.4c-0.1,0.4,0.1,0.9,0.5,1c0.4,0.1,0.8-0.1,1-0.5c1.1-3.3,2.4-6.5,4-9.6c0.5-0.9,0.9-1.8,1.4-2.7
					c0.8-1.4,1.6-2.7,2.5-4.1c3.3-5,7.3-9.6,11.9-13.5c4.6-3.9,9.7-7.2,15.1-9.7c5-2.3,10.3-4,15.7-5c18.7-1.2,37.3-7.9,50.8-19.9
					c0.3-0.3,0.7-0.6,1-0.9c0.3-0.3,0.4-0.6,0.4-0.9c0-0.9-1-1.8-2-1.2c-6,3.3-11.8,6.8-18,9.7C119.2,265.8,105.8,269.1,92.2,269.9z
					"/>
			</g>
			<g>
				<path class="st2" d="M93,241.9c0.6,2.1,0.4,3.3,0.2,4.6c-0.1,0.9-0.3,1.9-0.1,3.4c0.2,1.8,0.7,2.9,1.2,4
					c0.6,1.3,1.3,2.7,1.4,5.5c0.1,1.3,0.1,3.7-0.7,5.2l-0.6,1.2l-0.4-1.3c-3.2-11.9-10.4-22.7-20.4-31.1c4.1,3.9,7.7,8.4,10.7,13.2
					c3.6,5.7,6.2,11.9,7.6,18.3l0.3,1.2l-1-0.6c-1.1-0.7-2.2-1.8-3.2-2.7l-0.2-0.2c-2.6-2.6-3.7-4.6-4.6-6.4c-1-1.8-1.7-3.2-3.8-4.8
					c-1.8-1.3-3.2-1.7-4.4-2.1c-1.5-0.4-2.7-0.8-3.9-2.6c-0.9-1.3-1.1-2.4-1.2-3.5c-0.1-1.1-0.3-2.3-1.3-4c-1.1-1.9-2.2-2.6-3.3-3.3
					c-1-0.7-2.1-1.4-3.2-3c-1.3-1.9-1.6-3.4-1.9-4.9c-0.3-1.5-0.5-2.8-1.8-4.7c-1.6-2.3-4.2-4.3-7.6-5.7l-2-0.8l2.1-0.2
					c3.6-0.3,7.2,0.1,10.6,1.2c0.9,0.3,2.2,0.8,3.8,1.7c1.8,1,2.6,1.8,3.4,2.6c0.6,0.6,1.1,1.1,2,1.7c1.6,1.1,2.7,1.2,3.8,1.4
					c1.2,0.2,2.4,0.4,4,1.5c1.5,1.1,2,2.1,2.4,3.1c0.4,0.9,0.8,1.8,2.1,2.9c1.2,1.1,2.2,1.5,3.3,2c1.2,0.5,2.5,1.1,4,2.7
					C92.2,239.2,92.8,241.2,93,241.9z M89.8,238c-1.3-1.5-2.5-2-3.7-2.5c-1.1-0.5-2.2-1-3.6-2.2c-1.4-1.3-1.9-2.3-2.3-3.2
					c-0.4-0.9-0.8-1.7-2.1-2.6c-1.4-1-2.4-1.2-3.6-1.4c-1.2-0.2-2.5-0.4-4.3-1.6c-1-0.6-1.6-1.2-2.1-1.8c-0.7-0.7-1.5-1.5-3.2-2.4
					c-1.6-0.9-2.8-1.3-3.6-1.6c-2.6-0.8-5.3-1.3-8.1-1.3c2.7,1.4,4.8,3.1,6.2,5.2c1.4,2,1.7,3.6,1.9,5.1c0.3,1.4,0.5,2.8,1.7,4.5
					c1,1.5,1.9,2.1,2.9,2.8c1.1,0.8,2.3,1.6,3.6,3.7c1.1,1.9,1.3,3.2,1.4,4.4c0.1,1.1,0.3,1.9,1,3.1l0,0c1,1.4,2,1.7,3.4,2.1
					c1.2,0.4,2.8,0.8,4.7,2.3c2.3,1.7,3.1,3.3,4.1,5.1c0.9,1.7,2,3.6,4.5,6.2l0.2,0.2c0.6,0.6,1.2,1.2,1.9,1.8
					c-1.5-5.8-3.9-11.4-7.2-16.6c-4-6.4-9-12.1-14.9-16.9c-0.4-0.3-0.4-0.8-0.2-1.2c0.3-0.4,0.8-0.4,1.2-0.2
					c12.2,8.5,21,20.4,25,33.5c0.2-1.2,0.1-2.4,0.1-3.1c-0.1-2.6-0.7-3.8-1.3-5.1c-0.6-1.1-1.1-2.3-1.3-4.4c-0.2-1.6,0-2.6,0.1-3.6
					c0.2-1.2,0.3-2.3-0.2-4.1C91.7,241.1,91.1,239.5,89.8,238z"/>
				<path class="st2" d="M92.3,292.3c-0.6,0.9-1.3,1.8-1.5,3.3c-0.1,0.9-0.1,1.5,0,2.1c0.1,0.8,0.2,1.6-0.5,2.8
					c-0.7,1.3-1.7,2.3-2.1,2.6l-0.1,0.1c-0.5,0.4-0.8,0.7-1.2,0.9c-0.4,0.3-0.9,0.6-1.5,1.2c-0.6,0.6-1.1,1.1-1.4,1.9
					c-0.3,0.6-0.3,1-0.3,1.4c0,0.5,0,1-0.4,1.8c-0.2,0.5-0.4,0.9-0.8,1.4l-0.1,0.2c-0.9,1.5-1.8,2.5-2.5,3.3c-1.1,1.3-2,2.3-3.1,4.7
					c-0.4,0.9-0.6,1.6-0.7,2.2c-0.2,0.8-0.4,1.5-1,2.4c-0.5,0.8-0.9,1.3-1.4,1.8c-0.5,0.6-1,1.2-1.7,2.2c-0.7,1.1-1.2,2.4-1.5,3.6
					l-0.6,2.3l-0.4-2.3c-0.1-0.5-0.4-2.1-1-3.7c-0.3-1-0.7-1.6-1-2.1c-0.4-0.8-0.8-1.5-1-2.8c-0.2-1.2-0.1-1.9,0-2.6
					c0.1-0.6,0.2-1.3,0.2-2.5c0-1.7-0.2-2.6-0.4-3.5c-0.2-0.9-0.4-1.8-0.3-3.4c0-0.3,0.1-0.5,0.1-0.7c0,0,0-0.2,0.1-0.5
					c0.1-0.5,0.7-1.3,1.5-2.6c0.5-0.8,1-1.5,1.4-2.2c0.6-1.2,0.8-2.2,0.9-2.7c0.1-0.6,0.1-0.9,0.1-1.2c0-0.5-0.1-0.9,0.2-1.8
					c0.4-1.3,1.2-2.2,1.5-2.6c0.4-0.4,0.7-0.8,1.1-1.2c0.9-0.7,1.5-1.1,2.2-1.5c0.3-0.2,0.6-0.3,0.9-0.5c0.9-0.5,1.6-1.1,2.3-1.6
					l0.2-0.2c1.3-1,2-1.7,2.6-2.4c0.5-0.6,1-1.1,1.8-1.7c0.1-0.1,0.3-0.2,0.4-0.3c1.3-0.8,2.8-1.3,4.5-1.3l1.5-0.1l-1.1,1
					c-6.2,5.4-11,12.2-13.7,19.8c-0.7,2-1.3,4-1.7,6c2.6-10.2,9-19.7,17.8-26.1l0.2-0.2l0.3,0.1c1.4,0.5,2.2,1.3,2.3,2.4
					C93.5,290.6,93,291.4,92.3,292.3z M91,288.2c-9.6,7.1-16.4,18.1-18,29.4c-0.1,0.6-0.6,0.9-1.1,0.9c-0.5-0.1-0.9-0.5-0.8-1
					c0.3-3.4,1.2-7,2.4-10.5c2.6-7.2,7-13.8,12.7-19.1c-0.8,0.2-1.6,0.5-2.3,1c-0.9,0.6-1.4,1.1-2,1.7c-0.6,0.7-1.3,1.5-2.7,2.5
					l-0.2,0.2c-0.4,0.3-0.8,0.6-1.2,0.9c-0.3,0.2-0.7,0.5-1.1,0.7c-0.3,0.2-0.6,0.4-0.9,0.6c-0.7,0.4-1.2,0.7-2,1.4
					c-0.4,0.3-0.7,0.6-1,1c-0.2,0.2-0.9,1.1-1.3,2.2c-0.2,0.7-0.2,1-0.2,1.4c0,0.4,0,0.8-0.1,1.5c-0.1,0.6-0.3,1.7-1,3
					c-0.4,0.7-0.9,1.5-1.5,2.3c-0.6,0.9-1.3,1.9-1.4,2.3c-0.1,0.2-0.1,0.4-0.1,0.4c0,0.2-0.1,0.4-0.1,0.6c-0.1,1.4,0.1,2.2,0.3,3.1
					c0.2,0.9,0.5,1.9,0.4,3.7c0,1.2-0.1,2-0.2,2.6c-0.1,0.7-0.2,1.3,0,2.3c0.2,1.2,0.5,1.8,0.9,2.5c0.3,0.6,0.7,1.2,1,2.3
					c0.3,0.7,0.5,1.4,0.6,2c0.3-0.7,0.6-1.4,1-2.1c0.7-1.1,1.3-1.8,1.8-2.4c0.5-0.5,0.9-1,1.3-1.7c0.5-0.8,0.7-1.4,0.9-2.2
					c0.2-0.6,0.4-1.3,0.8-2.3c1.1-2.5,2.1-3.7,3.2-5c0.8-0.9,1.5-1.8,2.4-3.2l0.1-0.2c0.3-0.5,0.5-0.8,0.7-1.3
					c0.3-0.6,0.3-1,0.3-1.4c0-0.5,0-1,0.4-1.8c0.4-0.9,1-1.5,1.6-2.1c0.7-0.7,1.2-1,1.6-1.3c0.3-0.2,0.7-0.4,1.1-0.8l0,0
					c0.2-0.2,1.3-1.2,2-2.4c0.5-0.9,0.5-1.4,0.4-2.1c-0.1-0.6-0.2-1.3,0-2.4c0.3-1.7,1.1-2.8,1.7-3.7c0.6-0.8,1-1.4,0.9-2.1
					C92.3,289,91.8,288.5,91,288.2z"/>
				<path class="st2" d="M113.3,313.7c-0.1,1-0.1,2.1,0.1,3.9l0,0.3c0.1,1,0.2,1.9,0.4,3c0.1,0.4,0.2,0.8,0.3,1.1
					c0.2,0.9,0.4,1.6,0.5,2.8c0,0.6,0,1.2,0,1.8c-0.1,0.5-0.3,1.8-0.9,3.1c-0.5,0.9-0.9,1.2-1.2,1.6c-0.3,0.2-0.5,0.5-0.9,1
					c-0.4,0.5-1,1.4-1.4,2.8c-0.2,0.8-0.5,1.8-0.7,2.8c-0.4,1.7-0.6,2.7-0.9,3.2c-0.1,0.2-0.3,0.4-0.3,0.4c-0.1,0.2-0.3,0.4-0.5,0.6
					c-1.1,1.3-2,1.8-2.9,2.3c-0.9,0.5-1.7,1-3,2.3c-0.9,0.9-1.4,1.5-1.8,2c-0.5,0.7-1,1.2-2,2l0,0c-1.2,0.8-2.1,1-3,1.3
					c-0.7,0.2-1.4,0.4-2.4,0.8c-1.2,0.5-2.4,1.2-3.7,2.1l-1.9,1.3l1.2-2c0.8-1.2,1.4-2.6,1.7-4c0.3-1.3,0.4-2.2,0.5-3
					c0.1-0.8,0.1-1.5,0.4-2.5c0.3-1.2,0.7-1.8,1.1-2.6c0.3-0.6,0.7-1.2,1.2-2.2c1.1-2.6,1.3-4.2,1.4-6c0.1-1.3,0.2-2.6,0.7-4.5
					l0.1-0.2c0.2-0.7,0.3-1.1,0.5-1.7c0.4-0.9,0.8-1.3,1.1-1.6c0.3-0.4,0.6-0.7,0.9-1.3c0.3-0.8,0.4-1.6,0.4-2.5
					c0-1-0.1-1.5-0.2-2.1c-0.1-0.5-0.2-0.9-0.2-1.6l0-0.1l0,0c0-0.6,0-2.1,0.5-3.6c0.4-1.5,1.1-2,1.8-2.5c0.5-0.4,1-0.8,1.7-1.6
					c1-1.3,1.2-2.6,1.4-3.7c0.2-1.2,0.5-2.2,1.4-2.9c0,0,0,0,0.1,0c0.9-0.7,2.2-0.7,3.5,0.1l0.2,0.1l0,0.3c1.7,12.7-1.5,26-8.6,36.1
					c1.9-2.4,3.6-5.1,5-8.1c3.9-7.9,5.7-16.8,5.2-25.8l-0.1-1.5l1,1.1c1.2,1.3,1.9,2.8,2.3,4.5C113.4,311.8,113.3,312.7,113.3,313.7
					z M105.6,332.7c-1.8,3.7-4,7-6.4,9.8c-0.4,0.4-0.9,0.5-1.3,0.1c-0.4-0.3-0.5-1-0.1-1.5c7.7-9.9,11.3-23.6,9.6-36.6
					c-0.9-0.4-1.7-0.4-2.3,0c-0.6,0.5-0.8,1.2-1,2.3c-0.2,1.2-0.5,2.6-1.6,4.1c-0.7,0.9-1.4,1.4-1.9,1.8c-0.7,0.5-1.1,0.8-1.4,1.9
					c-0.4,1.4-0.4,3-0.4,3.4l0,0c0,0.6,0.1,1,0.2,1.4c0.1,0.6,0.2,1.2,0.2,2.3c0,1-0.1,1.9-0.5,2.9c-0.3,0.9-0.8,1.3-1.1,1.7
					c-0.3,0.3-0.6,0.7-0.9,1.3c-0.2,0.5-0.3,0.9-0.4,1.5l-0.1,0.2c-0.4,1.8-0.6,3.1-0.7,4.3c-0.2,1.8-0.3,3.5-1.5,6.3
					c-0.5,1-0.9,1.7-1.2,2.3c-0.5,0.8-0.8,1.3-1,2.4c-0.2,0.9-0.3,1.5-0.4,2.3c-0.1,0.9-0.2,1.8-0.5,3.2c-0.2,0.8-0.5,1.7-0.9,2.5
					c0.7-0.4,1.5-0.8,2.2-1.1c1.1-0.5,1.9-0.7,2.6-0.9c0.9-0.2,1.6-0.4,2.7-1.1c1-0.6,1.3-1.1,1.8-1.8c0.4-0.5,0.9-1.2,1.9-2.1
					c1.4-1.4,2.4-2,3.2-2.5c0.9-0.5,1.6-0.9,2.6-2.1c0.2-0.2,0.3-0.4,0.4-0.5c0,0,0.1-0.2,0.3-0.4c0.2-0.3,0.5-1.7,0.7-2.8
					c0.2-1,0.4-2,0.7-2.9c0.5-1.6,1.2-2.6,1.6-3.1c0.4-0.6,0.8-0.9,1.1-1.1c0.3-0.3,0.6-0.5,1-1.2c0.6-1.1,0.8-2.3,0.8-2.7
					c0.1-0.5,0.1-1.1,0-1.6c-0.1-1.1-0.2-1.8-0.5-2.7c-0.1-0.4-0.2-0.7-0.3-1.2c-0.3-1.2-0.4-2.2-0.5-3.1l0-0.3
					c-0.2-1.9-0.1-3-0.1-4.1c0.1-1,0.1-1.7-0.1-2.9c-0.2-1-0.6-1.9-1.1-2.7C111.3,316.6,109.4,325.1,105.6,332.7z"/>
			</g>
		</g>
		<g>
			<path class="st1" d="M361.3,332.6c-4.3,1.4-8.2,3.8-11.9,6.3c-0.5,0.4-1.2,0.9-2,1.4c0.3-0.6,0.6-1.3,0.9-1.8
				c6.4-13.5,19.9-22,33.6-26.8l0.7-0.2c0,0,0.1,0,0.1,0.1l0,0c-1,4.1-2.4,8.2-4.8,11.7c-2.4,3.6-5.9,6.4-10,7.5
				C365.6,331.4,363.4,331.9,361.3,332.6z M374.2,316.7c0.3-0.2,0.1-0.5-0.2-0.4c-4.5,2-8.8,4.6-12.6,7.6c-1.9,1.5-3.7,3.2-5.3,5
				c-1.6,1.8-3,3.7-4,5.8c-0.1,0.1,0.1,0.2,0.2,0.1c1.4-2,2.8-3.9,4.5-5.7c1.6-1.7,3.3-3.2,5.2-4.7
				C365.8,321.4,370,319.2,374.2,316.7z"/>
			<path class="st1" d="M355.3,349.7c-4.2,0.6-8.5,0.8-12.7,0.5c0,0-0.1-0.1,0-0.2c3.1-3.8,6.3-7.5,10.3-10.3
				c11.8-8.2,26.9-10.1,41-9.1c0.6,0,0.6,0.1,0.7,0.4c0,0.1-0.1,0.2-0.2,0.2l-0.8,0.5c-3.6,2.5-6.9,5.3-10.7,7.6
				C374.5,344.6,365.1,348.4,355.3,349.7z M370.4,344.4c3.6-1.4,7.1-3.1,10.5-5c1.8-1,3.5-2,5.2-3.1c1.6-1,3.2-2,4.7-3.2
				c0.3-0.3-0.1-0.8-0.4-0.6c-1.7,0.9-3.3,2-5,3.1c-1.7,1-3.4,2.1-5.1,3c-3.3,1.9-6.7,3.7-10,5.4
				C370.1,344.2,370.2,344.5,370.4,344.4z M371.2,333.9c0.2-0.1,0.1-0.3-0.1-0.3c-2.4,0.5-4.8,1-7.2,1.8c-3.8,1.3-7.5,3-10.8,5.4
				c-2.9,2.1-5.5,4.6-7.7,7.5c-0.1,0.1,0.1,0.2,0.2,0.1c1.3-1.2,2.6-2.4,3.9-3.5c3.1-2.7,6.3-5.2,10-6.8
				C363.3,336.4,367.2,335,371.2,333.9z"/>
			<path class="st1" d="M352.3,356.6c0.5,0.1,1,0.2,1.5,0.2c5.8,1.4,11.7,2.2,17.6,1.9c0.9,0.1,1.8,0.1,2.7,0.2
				c3.8,0.2,7.3,1.2,10.4,3.4c2.3,1.6,4.3,3.7,5.8,6l0.4,0.6c0.1,0.2-0.1,0.5-0.3,0.4c-3.9-0.6-7.9-0.1-11.9,0.4
				C368,370.8,358.3,364.8,352.3,356.6C352.3,356.7,352.3,356.6,352.3,356.6z M363,365.1c5.4,4.3,12.9,4.1,19.4,3.3
				c0.3,0,0.3-0.6-0.1-0.6c-3.4,0.1-6.7,0.5-10.1,0.1c-3.2-0.3-6.4-1.3-9.1-3C363,364.8,362.9,365,363,365.1z"/>
			<path class="st1" d="M346.6,335.7c-0.6,1.1-1.2,2.5-1.8,3.6c-0.3-0.6-0.5-1.5-0.6-2.4c-1.1-7.2,0-14.8,3.6-21.2
				c2-3.7,5-6.7,8.4-9.2c3.1-2.1,6.1-4.7,8.5-7.6c0.4-0.5,0.4-0.6,0.7-0.5c0.1,0,0.2,0.1,0.2,0.1c0,0.1,0.1,0.5,0.2,0.6
				c1.2,4.5,1.1,9.6-1,13.7c-3.1,4.3-6.8,8.3-10.1,12.5C352.1,328.3,348.5,332.3,346.6,335.7z M351.7,313.7c1.1-1.3,2.3-2.6,3.5-3.8
				c0.3-0.3-0.1-1-0.5-0.7c-3.4,2.3-6,6-7.7,9.8c-0.9,2-1.5,4-1.9,6.1c-0.2,1.3-0.7,3-0.3,4.3c0,0.1,0.1,0.1,0.2,0
				c0.2-0.6,0.3-1.3,0.4-1.9c0.1-0.8,0.3-1.6,0.5-2.4c0.5-1.9,1.2-3.9,2.1-5.7C349,317.4,350.2,315.4,351.7,313.7z"/>
			<path class="st1" d="M355.8,355c-2-0.5-4-1-5.9-1.7c6.1-1.1,14.5-2.4,19.6-4.2c2.9-1.1,6-2.5,9-3.2c5.3-1.4,11.1-0.4,15.8,2.2
				c0.4,0.3,0.2,1-0.1,1.2l-0.2,0.1l-0.3,0.2c-7.5,5.3-16.5,7.5-25.6,7.2C364,356.3,359.9,355.7,355.8,355z M376,348.8
				c1.9-0.9,4-1.5,6.2-1.7c1.1-0.1,2.2-0.1,3.3,0c1.1,0.1,2.2,0.3,3.3,0.4c0.3,0,0.5-0.4,0.2-0.6c-2-0.9-4.4-0.9-6.5-0.8
				c-2.1,0.1-4.2,0.7-6.1,1.6c-1.9,1-3.8,2-5.9,2.7c-2.5,0.8-5.1,1.2-7.6,1.5c-0.2,0-0.1,0.3,0,0.3
				C367.5,352.1,371.8,350.8,376,348.8z"/>
			<path class="st1" d="M336.3,341c0.7-2.7,0.8-5.7,2.3-8c0.3-0.3,0.5-0.5,0.9-0.5c0.3,0,0.6,0.3,0.8,0.6c0.7,0.9,1.1,1.9,1.5,2.9
				c0.1,1.2,0.4,2.7,0.8,3.8c0.2,3.4-0.7,7-2.8,9.6l-0.2,0.3c-0.8,0.8-0.4,2.4,0.8,2.6c6.1,1.9,11.7,6.4,13.6,12.7
				c0,0.1-0.1,0.1-0.2,0.2c-0.3,0.2-0.4,0.2-0.7,0.2c-0.6-0.2-1.5-0.8-2.2-1.3c-1.5-1.1-3.2-2.3-5.1-3.1c-1.5-0.8-3.9-0.8-5.3-1.5
				c-2.9-1.6-5.5-4.5-6.4-7.7C333.9,348,335.8,344.5,336.3,341z M341.5,343.2c0.6-1.4,0.5-3.2,0.3-4.7c-0.1-0.8-0.3-1.5-0.6-2.3
				c-0.3-0.7-0.6-1.5-1.1-2.1c-0.1-0.1-0.2,0-0.2,0.1c0.2,0.7,0.7,1.3,0.9,2c0.3,0.7,0.4,1.4,0.5,2.2c0.2,1.6-0.1,3-0.4,4.6
				C341,343.3,341.4,343.5,341.5,343.2z M342.3,358.8c-0.9-0.1-1.8-0.4-2.4-1.1c-0.1-0.1-0.2,0-0.1,0.1c0.4,0.8,1.3,1.2,2.2,1.4
				c0.9,0.2,1.8,0.3,2.7,0.4c0.2,0,0.4-0.2,0.2-0.4C344,358.9,343.1,358.9,342.3,358.8z"/>
			<path class="st2" d="M332.3,352c-0.8-2,0-4.3,0.8-6.1c0.7-1.8,1.4-3.5,2-5.3c1.1-2.7,1.3-5.7,3-8.2c1.4-1.5,2.7-0.7,3.7,0.8
				c-0.3-6.3,1.1-12.8,4.4-18.3c2.7-4.8,7.2-8.4,11.7-11.5c2.5-1.7,4.4-3.9,6.5-6.1c0.9-0.6,2.2-0.3,2.5,0.8c0,0,0.1,0.6,0.2,0.6
				c0.9,3.8,1,7.8,0,11.5c-0.5,2.1-1.8,4.2-3.2,5.8c-2,2.5-3.9,5-5.8,7.5c3.9-3.3,8.3-6.1,12.9-8.3c3.5-1.8,7.1-3.3,10.7-4.5
				c0.4-0.1,0.5-0.2,0.9-0.3c0.8-0.1,1.4,0.7,1.2,1.4l0,0.1c0,0-0.1,0.4-0.1,0.4c-1.5,6.6-4.7,13.5-10.3,17.4c6.9-1,14-1,20.8-0.5
				c1.6-0.1,2.7,1.9,1.5,3.2c-3.2,3.6-7.3,6.2-11.3,8.8c-1.9,1.2-4,2.4-6,3.4c5.4-1.2,10.4-0.8,16.6,2.6c1.2,0.6,1.5,2.4,0.3,3.2
				l-0.2,0.1l-0.3,0.2c-1.5,1.1-3.2,2.1-4.8,3c-3.8,2.1-7.7,3.4-11.8,4.2c5.4,1.4,10.2,5,13.2,9.8c0,0,0.4,0.6,0.4,0.6
				c0.4,0.7,0,1.7-0.7,1.9c-0.3,0.1-0.6,0-0.9,0c-3.8-0.5-7.5,0.2-11.3,0.8c-8.4,1.1-16.9-2.3-23.3-7.9c0.2,0.5,0.3,0.9,0.4,1.4
				c0.2,1-0.8,1.8-1.7,2.1c-1.5,0.3-2.8-0.9-3.8-1.4c-1.6-1-3.3-1.8-5-2.3c-1.9-0.6-3.9-0.2-5.8-1.1
				C335.5,360,333.2,356.1,332.3,352z M364.6,312.8c2.2-4.1,2.2-9.2,1-13.7c0-0.1-0.1-0.5-0.2-0.6c0,0-0.1-0.1-0.2-0.1
				c-0.3,0-0.3,0-0.7,0.5c-2.4,2.9-5.4,5.5-8.5,7.6c-3.3,2.5-6.3,5.6-8.4,9.2c-3.5,6.4-4.7,14-3.6,21.2c0.1,0.8,0.3,1.7,0.6,2.4
				c0.6-1.1,1.2-2.5,1.8-3.6c1.9-3.4,5.5-7.4,7.9-10.5C357.8,321.1,361.5,317.1,364.6,312.8z M377.8,323.3c2.4-3.5,3.8-7.6,4.8-11.7
				l0,0c0,0,0-0.1-0.1-0.1l-0.7,0.2c-13.7,4.8-27.2,13.3-33.6,26.8c-0.2,0.5-0.5,1.2-0.9,1.8c0.7-0.5,1.4-1,2-1.4
				c3.7-2.5,7.6-4.9,11.9-6.3c2.1-0.7,4.3-1.3,6.4-1.8C371.9,329.7,375.4,326.9,377.8,323.3z M382.9,339.3c3.7-2.2,7.1-5.1,10.7-7.6
				l0.8-0.5c0.1,0,0.2-0.1,0.2-0.2c0-0.4-0.1-0.4-0.7-0.4c-14.1-0.9-29.2,0.9-41,9.1c-4,2.7-7.3,6.5-10.3,10.3c-0.1,0.1,0,0.2,0,0.2
				c4.2,0.3,8.5,0.1,12.7-0.5C365.1,348.4,374.5,344.6,382.9,339.3z M393.6,349.6l0.3-0.2l0.2-0.1c0.3-0.2,0.6-0.9,0.1-1.2
				c-4.8-2.6-10.5-3.6-15.8-2.2c-2.9,0.8-6.1,2.1-9,3.2c-5.1,1.8-13.5,3.1-19.6,4.2c1.9,0.7,3.9,1.3,5.9,1.7
				c4.1,0.7,8.1,1.3,12.2,1.8C377.1,357.1,386.2,354.9,393.6,349.6z M378.4,369.8c3.9-0.5,7.9-1,11.9-0.4c0.2,0,0.5-0.2,0.3-0.4
				l-0.4-0.6c-1.5-2.4-3.5-4.4-5.8-6c-3.1-2.2-6.6-3.2-10.4-3.4c-0.9-0.1-1.8-0.1-2.7-0.2c-5.9,0.2-11.8-0.5-17.6-1.9
				c-0.5-0.1-1-0.1-1.5-0.2c0,0,0,0.1,0,0.1C358.3,364.8,368,370.8,378.4,369.8z M340.7,359.3c1.4,0.7,3.8,0.7,5.3,1.5
				c1.9,0.8,3.6,2,5.1,3.1c0.8,0.6,1.6,1.1,2.2,1.3c0.3,0.1,0.4,0.1,0.7-0.2c0.1,0,0.1-0.1,0.2-0.2c-1.9-6.3-7.5-10.8-13.6-12.7
				c-1.2-0.2-1.6-1.8-0.8-2.6l0.2-0.3c2.1-2.7,3-6.2,2.8-9.6c-0.4-1.2-0.7-2.6-0.8-3.8c-0.4-1-0.9-2-1.5-2.9
				c-0.2-0.2-0.5-0.6-0.8-0.6c-0.4,0-0.6,0.1-0.9,0.5c-1.5,2.3-1.6,5.4-2.3,8c-0.6,3.6-2.5,7-2.1,10.6
				C335.2,354.8,337.8,357.7,340.7,359.3z"/>
			<path class="st2" d="M345.4,327.5c-0.1,0.6-0.2,1.3-0.4,1.9c0,0.1-0.1,0.1-0.2,0c-0.3-1.3,0.1-3,0.3-4.3c0.4-2.1,1-4.2,1.9-6.1
				c1.7-3.7,4.3-7.4,7.7-9.8c0.4-0.3,0.8,0.4,0.5,0.7c-1.2,1.3-2.4,2.5-3.5,3.8c-1.4,1.8-2.7,3.7-3.7,5.7c-0.9,1.8-1.6,3.7-2.1,5.7
				C345.7,325.9,345.5,326.7,345.4,327.5z"/>
			<path class="st2" d="M352.3,334.8c-0.1,0.1-0.2,0-0.2-0.1c1-2.2,2.4-4.1,4-5.8c1.6-1.8,3.4-3.5,5.3-5c3.9-3,8.1-5.7,12.6-7.6
				c0.3-0.1,0.5,0.3,0.2,0.4c-4.1,2.4-8.4,4.7-12.2,7.7c-1.8,1.4-3.6,3-5.2,4.7C355.1,330.9,353.7,332.9,352.3,334.8z"/>
			<path class="st2" d="M341,343c0.3-1.5,0.6-3,0.4-4.6c-0.1-0.7-0.3-1.5-0.5-2.2c-0.3-0.7-0.7-1.3-0.9-2c0-0.1,0.1-0.1,0.2-0.1
				c0.6,0.5,0.9,1.4,1.1,2.1c0.3,0.7,0.5,1.5,0.6,2.3c0.2,1.5,0.3,3.2-0.3,4.7C341.4,343.5,341,343.3,341,343z"/>
			<path class="st2" d="M345.6,348.5c-0.1,0.1-0.3,0-0.2-0.1c2.1-2.9,4.8-5.4,7.7-7.5c3.3-2.4,6.9-4.1,10.8-5.4
				c2.3-0.8,4.7-1.4,7.2-1.8c0.2,0,0.3,0.3,0.1,0.3c-3.9,1.2-7.9,2.5-11.6,4.2c-3.7,1.7-7,4.1-10,6.8
				C348.2,346.1,346.9,347.3,345.6,348.5z"/>
			<path class="st2" d="M370.2,344.1c3.4-1.7,6.7-3.6,10-5.4c1.7-1,3.4-2,5.1-3c1.7-1,3.3-2.1,5-3.1c0.4-0.2,0.7,0.3,0.4,0.6
				c-1.5,1.2-3.1,2.2-4.7,3.2c-1.7,1.1-3.5,2.1-5.2,3.1c-3.4,1.9-6.9,3.5-10.5,5C370.2,344.5,370.1,344.2,370.2,344.1z"/>
			<path class="st2" d="M362.9,351.9c2.6-0.3,5.2-0.7,7.6-1.5c2.1-0.7,3.9-1.7,5.9-2.7c1.9-0.9,4-1.5,6.1-1.6
				c2.1-0.1,4.6-0.1,6.5,0.8c0.3,0.1,0.1,0.6-0.2,0.6c-1.1,0-2.2-0.3-3.3-0.4c-1.1-0.1-2.2-0.1-3.3,0c-2.2,0.2-4.3,0.7-6.2,1.7
				c-4.2,2-8.4,3.3-13.1,3.4C362.7,352.2,362.7,351.9,362.9,351.9z"/>
			<path class="st2" d="M344.6,359.7c-0.9-0.2-1.8-0.3-2.7-0.4c-0.9-0.2-1.7-0.6-2.2-1.4c0-0.1,0.1-0.2,0.1-0.1
				c0.5,0.7,1.5,1,2.4,1.1c0.8,0.1,1.7,0.1,2.4,0.5C345,359.4,344.8,359.7,344.6,359.7z"/>
			<path class="st2" d="M382.3,367.8c0.3,0,0.4,0.6,0.1,0.6c-6.5,0.8-14,1-19.4-3.3c-0.1-0.1,0-0.3,0.1-0.2c2.7,1.8,6,2.7,9.1,3
				C375.6,368.3,378.9,367.9,382.3,367.8z"/>
		</g>
		<g>
			<path class="st1" d="M327.7,164.3c-0.1-1.2-0.1-2.5-0.1-3.7c0.2,0.3,0.4,0.7,0.6,1.1c0.2,0.3,0.3,0.7,0.4,1
				c1.3,2.9,2.9,5.7,4.7,8.3c1.5,2.6,3.2,5,4.9,6.9c2.5,2.9,4.8,5.9,5.7,9.6c0.7,3,1,6.4,0,9.3c-0.2,0.2-0.5,0.2-0.7,0.1
				c-2.9-2.1-5.8-4.9-7.9-7.9c-3-4.2-4.9-8.9-6.1-13.8C328.5,171.5,328,167.9,327.7,164.3z M334.1,175.3c2,2.9,4.2,5.7,5.9,8.8
				c0.8,1.5,1.5,3.2,1.9,4.9c0.5,1.8,0.5,3.5,0.7,5.3c0,0.4,0.6,0.4,0.7,0.1c0.9-3.3-0.7-7.3-2.1-10.2c-1.7-3.4-4.1-6.4-6.6-9.2
				C334.3,174.6,333.9,175,334.1,175.3z"/>
			<path class="st1" d="M328.7,182.6c1.6,5.7,0,11.6-3.6,16.2c0,0-0.4,0.7-0.6,0.6c-0.2,0-0.2-0.3-0.3-0.5c-0.6-3.4-2.1-6.5-3.5-9.6
				c-3.6-8.4-1-18.1,4.1-25.3C325.8,170.3,327.2,176.5,328.7,182.6z M322.3,172.5c0-0.1-0.2-0.2-0.2-0.1c-1.4,3-2,6.2-1.7,9.5
				c0.1,1.7,0.4,3.3,0.9,4.9c0.4,1.4,0.9,3.1,2,4.2c0.3,0.3,0.6-0.1,0.5-0.4c-0.3-1.5-1.2-2.8-1.6-4.3c-0.5-1.5-0.8-3.1-0.9-4.7
				C321.1,178.6,321.4,175.4,322.3,172.5z"/>
			<path class="st1" d="M350,168.6c-3.2-4.7-7.6-9.2-12.7-12.1c-0.7-0.4-1.7-1.1-2.7-1.7c0.4,0.1,0.9,0.2,1.4,0.2
				c13.5,0.5,25.3,8.9,33.8,18.9c-3.5,0.5-7.1,0.7-10.5,0C355.6,173.4,352.2,171.6,350,168.6z M358.2,172.1c2.8,0.8,5.7,0.9,8.6,0.9
				c0.2,0,0.2-0.3,0-0.3c-2.7-0.3-5.5-0.4-8.1-1.1c-1.2-0.3-2.4-0.7-3.6-1.3c-1.1-0.6-2.1-1.3-3.1-2.1c-0.2-0.2-0.5,0.1-0.3,0.3
				C353.2,170.5,355.8,171.5,358.2,172.1z"/>
			<path class="st1" d="M335.9,153.2c0.2-0.1,0.4-0.3,0.6-0.4c0.3-0.2,0.6-0.4,1-0.6c7.7-4.4,17.6-6.7,26-2.9
				c3.1,1.5,6.5,3.2,10,3.8c-4.8,3.5-11.2,5.6-17.2,4.1c-3.3-0.7-6.6-1.5-9.9-2.1c-2.8-0.9-5.7-1.6-8.8-1.8
				C337,153.4,336.5,153.3,335.9,153.2z M343.4,151.7c1.4-0.1,2.7-0.8,4-1.2c1.4-0.4,2.8-0.7,4.2-0.9c2.7-0.4,5.5-0.7,8.3-0.8
				c0.1,0,0.1-0.2,0-0.2c-1.5,0-2.9-0.2-4.4-0.2c-1.4,0-2.8,0.1-4.2,0.2c-1.4,0.2-2.8,0.4-4.2,0.7c-1.3,0.3-2.8,0.6-3.9,1.5
				C342.8,151.1,342.9,151.7,343.4,151.7z"/>
			<path class="st1" d="M323.4,148.1c5-3.5,11.7-2.6,17-0.4c-1,1.3-2.1,2.5-3.4,3.4c-0.3,0.2-0.7,0.4-1,0.6c-0.9,0.5-1.9,0.9-3,1.1
				c-0.4,0-0.8,0-1.2,0.2c-1.6,0.1-3.4-0.1-5.2-0.8c-0.5-0.3-1.3-0.1-1.5,0.5c-0.2,0.5,0.1,1.6,0,2.4c0.1,2.9-0.7,5.8-2.3,8.3
				c-0.1,0.2-0.2,0.3-0.3,0.5c-1,1.5-2.2,2.8-3.7,3.7c-1.5-3.8-1.6-8.2-0.3-12.2C319.4,152.4,320.6,149.7,323.4,148.1z M326.9,151.3
				c3.3,0.9,8.5,1,10.4-2.5c0.2-0.3-0.3-0.6-0.5-0.3c-1.1,1.2-2.6,1.9-4.1,2.2c-1.9,0.3-3.8,0-5.7,0
				C326.5,150.6,326.5,151.2,326.9,151.3z"/>
			<path class="st1" d="M289.9,222.3c0,0.1,0.2,0.1,0.2,0c1.1-11.8,0.5-23.8-1.4-35.5c-1-8.2-2.6-16.4-6.1-23.8
				c2.1,0.4,4.2,1.3,5.5,2.9c1.7,2.1,1.4,5.1,2.8,7.5c1.3,2.7,3.3,5.4,5.5,7.2c0.9,0.8,1.8,1.7,2.3,2.8c0.8,1.5,1.1,3.4,0.9,5.2
				c-0.2,1.3-1.1,2.5-1.3,3.9c-1.5,5.1,1.4,9.3,3.3,13.7c0.2,2.8-0.9,5.6-2,8.4c-1.7,4-1.8,8.8-1.3,13c0,4.2-2.8,7.7-4,11.6
				c-0.6,1.8-1,3.7-1.3,5.7c-1.5-2.8-3.5-5.4-5.9-7.5c-3.4-2.6-4.1-6-4.9-9.9c-1-5.3-4.7-10.1-7.1-14.7c-0.9-2.1-2.1-4.7-2-6.9
				c0.1-1.3,0.7-2.4,0.9-3.8c0.7-4.6-2.3-8.3-4.6-11.9c0,0-0.2-0.3-0.2-0.3c0.1,0.1,0.1,0.2,0.2,0.3c0,0,0,0,0,0l0,0l0-0.1l-0.1-0.2
				l-0.2-0.4c-0.7-1.8-1.1-4.4-0.5-6.1c1-2.1,3.4-4.8,4.1-7.3c1.1-2.6,1.2-6.1,1.4-8.7c0.2-2.2,1.8-3.8,4-4.2c0.1,0,0.2,0,0.3,0
				c1.8,8.3,4.2,16.4,6.5,24.6C287.5,199,289,210.6,289.9,222.3z"/>
			<path class="st1" d="M329.9,108.2c0,0.1,0,0.1-0.1,0.2c-0.1,0.2-0.2,0.5-0.3,0.7c-0.3,0.5-0.6,0.9-0.9,1.5
				c-0.7,1.5-0.9,3-0.9,4.5c-0.1,1.5,0.3,3.7,0.1,5c-1.4-0.9-2.8-2.5-3.3-4.1C323.3,112.1,326.4,109,329.9,108.2z M325.4,113.4
				c0-0.3,0.1-0.7,0.1-1c0-0.1-0.2-0.2-0.2-0.1c-0.6,0.5-0.6,1.5-0.6,2.3c0,0.8,0.3,1.7,0.9,2.2c0.2,0.2,0.5,0,0.4-0.3
				c-0.1-0.3-0.3-0.7-0.4-1c-0.1-0.3-0.2-0.7-0.2-1C325.3,114.1,325.3,113.7,325.4,113.4z"/>
			<path class="st1" d="M329.9,107.9C329.9,107.9,329.9,107.9,329.9,107.9C329.9,107.9,329.9,107.9,329.9,107.9z"/>
			<path class="st1" d="M322.4,58.4c0.1,1.5,0.4,3.2,0.6,4.7c-8.7-7.6-14.8-22-12.6-34.3c0.6-3.8,2-7.9,3.4-11.5
				c1.1-3.3,1.8-6.7,2.2-10.2c0.1-0.9,0.1-0.8,0.3-1c0.1-0.1,0.1,0,0.2,0c1.7,1.4,3.2,3.1,4.6,4.8c2.3,3.1,4.1,6.9,4.4,10.7
				c-0.3,6.7-1.4,13.5-2,20.2C323,46.8,322,53.4,322.4,58.4z M315.6,50.6c-0.4-0.9-0.8-1.9-1.1-2.9c-0.9-2.5-1.5-5.1-1.8-7.8
				c-0.3-2.9-0.4-5.8,0-8.7c0.2-2,0.7-4,1-6c0.1-0.7-0.9-1.1-1.2-0.4c-2,4.7-2.1,10.3-1.3,15.3c0.4,2.7,1.2,5.4,2.2,7.9
				c0.7,1.6,1.5,3.8,2.8,5c0.1,0.1,0.2,0,0.2-0.1C316.2,52,315.9,51.3,315.6,50.6z"/>
			<path class="st1" d="M327.5,59.7c-0.2,0.6-0.5,1.3-0.8,2c-0.1-0.6-0.1-1.1-0.3-1.6c-2.6-17.8,4.9-35.5,15.3-49.8l1.2-1.7
				c0,0,0.6-0.7,0.5-0.7c1.8,5,3.1,10.3,3.1,15.6c0,5.4-1.7,10.8-5.3,14.8C335.4,44.3,330.5,51.8,327.5,59.7z M337.7,18.9
				c-3.4,5.1-6,10.8-7.9,16.6c-1,2.9-1.7,6-2.1,9.1c-0.4,2.9-0.6,5.9-0.1,8.8c0,0.2,0.3,0.2,0.3,0c0.2-3.1,0.3-6.1,0.8-9.1
				c0.5-2.9,1.3-5.7,2.2-8.5c1.9-5.8,4.8-11.1,7.4-16.6C338.4,18.8,337.9,18.5,337.7,18.9z"/>
			<path class="st1" d="M356.6,107c5.1,1.5,9.4,4.9,13,8.8c-3.7-3-7.8-5.2-12.1-7.1c-3.9-1.7-8.2-2.4-12.5-2.5
				C348.6,105.1,352.9,105.8,356.6,107z"/>
			<path class="st1" d="M270.7,76.2c0-0.1-0.2,0-0.1,0.1c2.5,9.3,6.5,18.2,11.4,26.5c3,5.7,6.5,11.3,11.3,15.7c-1.4,0.2-2.8,0-4-0.7
				c-1.8-1.1-2.5-3.4-4.3-4.8c-1.8-1.7-4.1-3.1-6.4-3.8c-0.9-0.3-1.8-0.8-2.5-1.3c-1.3-1.1-2.4-3.1-2.2-4.7c0-0.6,0-1.4-0.1-2
				c-0.4-4.3-3.9-6.8-6.6-9.5c-0.9-2-1-4.4-0.9-6.8c0-3.5-1.4-7.3-2.9-10.2c-1.3-3.1-0.2-6.6-0.5-9.9c-0.1-1.4-0.3-2.8-0.7-4.1
				c1.9,1.5,4,2.8,6.3,3.6c3.2,0.9,4.8,3.3,6.5,6c2.3,3.7,6.6,6.3,9.7,9c1.2,1.2,2.9,2.9,3.5,4.5c0.3,1,0.2,1.9,0.5,3.1
				c0.9,3.7,4.2,5.7,7.1,7.7c0,0,0.3,0.2,0.3,0.2c-0.1,0-0.2-0.1-0.2-0.2c0.2,0.2,0.3,0.3,0.5,0.5c1,1.1,2.1,2.9,2.2,4.2
				c-0.1,1.8-1.1,4.7-0.9,6.7c-0.2,4.7,3.8,8.5,0,11c-3.6-5.7-7.9-11-12.1-16.3C279.7,92.9,275,84.7,270.7,76.2z"/>
			<path class="st1" d="M358.6,65.9c-4.5,2.2-9,4.4-13.7,6.3c-2,0.7-4,1.3-6.1,1.8c6.5-6.3,14.9-13.8,19.4-20.8
				c5-8.1,12.2-13.9,21.9-14.9c0.5,0,1.1-0.3,1.4,0.2c0.2,0.5,0.2,0.8,0,1.2c-3.8,9.6-10.4,18.1-19.1,23.8
				C361.3,64.3,360,65.1,358.6,65.9z M367.7,45.7c1.1-0.9,2.3-1.6,3.6-2.3c1.3-0.7,2.6-1.2,3.8-2c0.3-0.2,0.2-0.9-0.3-0.8
				c-2.6,0.4-5.3,2-7.3,3.6c-2.2,1.6-4,3.7-5.4,6c-1.4,2.4-2.6,4.8-4.4,7c-2,2.5-4.4,4.8-6.8,6.8c-0.2,0.2,0,0.5,0.2,0.3
				c4.7-3.2,8.4-7.6,11.3-12.5C363.8,49.4,365.6,47.4,367.7,45.7z"/>
			<path class="st1" d="M328.3,76.2c0.7-6.1,1.4-12.2,3.7-17.9c6.3-16.1,20-28.2,34.5-37l2-1.2c0.6-0.4,0.6-0.3,0.8,0
				c0,0.1,0,0.2-0.1,0.2c-2.4,5.4-3.8,11.1-6.4,16.4C355.8,52.9,343.6,67.7,328.3,76.2z M346.7,39c-2.3,2.3-4.5,4.6-6.5,7.2
				c-5.8,7.5-9.7,16.6-10.1,26.2c0,0.2,0.3,0.2,0.3,0c1.5-5.6,2.7-11.3,5.3-16.6c1.4-2.9,3.2-5.5,5.1-8.1c2-2.8,4.1-5.6,6.3-8.3
				C347.3,39.1,346.9,38.8,346.7,39z M353.6,51c2.8-4,5.3-8,7.5-12.3c1.2-2.4,2.4-4.7,3.5-7.2c1-2.1,2-4.3,2.6-6.6
				c0.2-0.6-0.7-0.8-1-0.3c-1.2,2.1-2,4.4-3.1,6.6c-1.1,2.3-2.2,4.6-3.3,6.8c-2.2,4.3-4.4,8.5-6.7,12.7
				C353.1,50.9,353.4,51.2,353.6,51z"/>
			<path class="st1" d="M344.5,75.8c7.2-2.6,14.1-6,20.2-10.4c1-0.6,2-1.1,2.9-1.7c7-4.4,15.9-4.8,23.5-1.4c0,0,0.8,0.4,0.8,0.4
				c0.1,0.1,0.1,0.1,0.1,0.2c0.1,0.3-0.4,0.4-0.6,0.5c-4.4,2-8.1,5.3-11.8,8.4c-10.1,8.2-24.2,8.6-36,4.4
				C343.8,76.1,344.2,76,344.5,75.8z M360.1,77.8c8.6,0.8,16.4-4.6,22.7-10c0.4-0.3,0-1-0.5-0.7c-3.4,2.4-6.6,5-10.2,6.9
				c-3.6,1.9-7.8,3.3-11.9,3.3C360,77.4,359.9,77.8,360.1,77.8z"/>
			<path class="st1" d="M346.4,99.7c9.2-0.7,17.3,5.5,22.3,12.9c-4.4-4.3-9.8-7.4-15.9-8.4c-4.4-1-9.6-0.5-13.2,2.4
				c-1,0.7-0.3,2.3,0.8,2c5.5-1,11.3-0.9,16.5,1.1c5.3,1.9,10.3,4.8,14.4,8.6c-0.3,0.2-0.7,0.2-1.2,0.2c-3.5-0.5-6.6-2.6-9.9-3.7
				c-6.9-2.3-14.4-2-21.6-1.4c-1.1,0-1.4,1.6-0.4,2.1c4.2,2.3,8.8,3.9,13.6,4.2c4.3,0.3,8.5-0.2,12.8-0.1c1.9,0,3.8,0.1,5.7,0
				c-9.3,5.3-23.5,8.1-32.4,1c-0.4-0.3-1-0.3-1.3,0.2c-0.3,0.4-0.3,0.8,0,1.2c1,1.3,2.2,2.4,3.5,3.4c8.9,6.3,20,2.5,28.6-2.6
				c-2.4,2.4-5,4.6-8,6.2c-4.8,2.8-10.6,4-16.1,3c-8-1.3-15.2-8.6-14.7-17C330.8,107,338.2,100,346.4,99.7z M341.8,109.5
				c2.9-0.2,5.9-0.1,8.9,0.3c2.7,0.4,5.3,1,7.8,1.8c0.4,0.1,0.6-0.5,0.2-0.6c-5.3-2.2-11.3-2.9-16.9-2
				C341.4,109.1,341.5,109.5,341.8,109.5z M348.9,124.3c3.1,0.5,6.3,0.2,9.3-0.4c1.7-0.3,3.4-0.7,5-1.3c1.1-0.4,2.4-0.9,3.3-1.6
				c0.2-0.1,0.1-0.4-0.2-0.4c-1.2,0.3-2.3,1-3.4,1.4c-1.4,0.6-2.9,1.1-4.4,1.4c-3.1,0.7-6.3,0.6-9.5,0.4
				C348.7,123.9,348.7,124.3,348.9,124.3z M336.1,105.5c1.6-1.4,3.4-2.7,5.4-3.5c1-0.4,2.1-0.7,3.2-0.9c1-0.2,2.1-0.4,3.2-0.4
				c0.1,0,0.1-0.2,0-0.2c-0.6-0.1-1.1-0.2-1.7-0.1c-0.6,0-1.2,0.1-1.7,0.2c-1.1,0.2-2.1,0.5-3.1,0.9c-2.1,0.8-4,2.1-5.4,3.8
				C335.8,105.4,336,105.6,336.1,105.5z"/>
			<path class="st1" d="M342,115.2c7.4-1.2,15.2-1.3,22,2.1c1.4,0.6,2.9,1.2,4.4,1.6c-3.3-0.1-6.7-0.2-10-0.1
				C352.5,119,347,117.9,342,115.2z"/>
			<path class="st1" d="M315.5,71c-1.1-3.3-3.1-6.6-3.2-10c0.1-0.5,0.2-0.8,0.6-1.1c0.3-0.2,0.8,0,1.2,0.1c1.2,0.4,2.3,1,3.3,1.7
				c1.1,1.4,2.6,3,4,4c2.4,3.4,3.7,7.6,3.4,11.6c0,0,0,0.4,0,0.4c-0.3,1.6,1.4,3,2.9,2.4c7.6-2.2,16.4-1.6,22.7,3.5
				c0,0,0.1,0.1,0.2,0.2c0,0.3-0.2,0.7-0.6,0.8c-0.8,0.2-2,0.2-3.2,0.1c-3.7-0.2-7.8-0.2-11.4,1.4c-1.3,0.6-1.8,0.8-2.8,0.9
				c-4,0.3-8.8-0.8-12-3.5C317.9,79.9,317.4,75.1,315.5,71z M330.8,86.3c1,0.6,2.1,0.4,3.1,0c0.6-0.2,1.1-0.5,1.6-0.7
				c0.5-0.2,1.1-0.5,1.6-0.7c0.3-0.1,0.2-0.6-0.1-0.5c-1.1,0-2.1,0.8-3.1,1.2c-0.9,0.5-2.1,0.8-3.1,0.5
				C330.7,86,330.6,86.2,330.8,86.3z M321.7,69.9c0.2,0.3,0.8,0.3,0.7-0.1c-0.3-2-1.6-3.7-2.9-5.2c-0.7-0.8-1.5-1.5-2.3-2
				c-0.8-0.5-1.7-1.2-2.6-1.3c-0.1,0-0.2,0.1-0.1,0.2c0.7,0.6,1.6,1,2.4,1.5c0.8,0.6,1.4,1.2,2.1,1.9c0.7,0.7,1.2,1.6,1.6,2.4
				C321,68.1,321.3,69,321.7,69.9z"/>
			<path class="st1" d="M328.4,156.8c0,0-0.1-0.1-0.1-0.1c-0.2-0.7-0.5-1.4-0.7-2.2c3,0.7,5.7,1.8,8.2,3.3c0.2,0.1,0.4,0.2,0.5,0.3
				c0.4,0.2,0.7,0.5,1.1,0.7c0.4,0.3,0.8,0.5,1.2,0.8c0.1,0.1,0.3,0.2,0.4,0.3c9.9,7.2,16,19.4,19.3,31.1c0.1,0.4,0.1,0.3,0.1,0.3
				c0,0-0.1,0.1-0.2,0l-0.7-0.4c-8.8-5-16.8-12.1-22.5-20.5C332.7,165.9,330.2,160.4,328.4,156.8z M344.7,168.8
				c3,3.7,5.2,7.7,7.3,12c0.3,0.5,1.1,0.3,0.9-0.3c-1.6-4.5-4.3-8.7-7.4-12.4c-3.1-3.7-6.8-7-11-9.4c-0.1-0.1-0.3,0.1-0.2,0.2
				C338.1,161.8,341.7,165,344.7,168.8z"/>
			<path class="st2" d="M326,116.5c0.1,0.2-0.2,0.4-0.4,0.3c-0.6-0.5-0.8-1.5-0.9-2.2c0-0.7,0-1.7,0.6-2.3c0.1-0.1,0.2,0,0.2,0.1
				c0,0.4-0.1,0.7-0.1,1c0,0.4,0,0.7,0,1.1c0,0.4,0.1,0.7,0.2,1C325.7,115.8,325.9,116.1,326,116.5z"/>
			<path class="st2" d="M341.3,101.5c1-0.4,2.1-0.7,3.1-0.9c0.6-0.1,1.1-0.2,1.7-0.2c0.6,0,1.1,0.1,1.7,0.1c0.1,0,0.1,0.2,0,0.2
				c-1,0-2.1,0.2-3.2,0.4c-1.1,0.2-2.1,0.5-3.2,0.9c-2,0.8-3.8,2.1-5.4,3.5c-0.1,0.1-0.3-0.1-0.2-0.2
				C337.3,103.5,339.3,102.3,341.3,101.5z"/>
			<path class="st2" d="M341.7,109c5.6-1,11.7-0.2,16.9,2c0.3,0.1,0.1,0.7-0.2,0.6c-2.6-0.8-5.2-1.5-7.8-1.8
				c-2.9-0.4-5.9-0.4-8.9-0.3C341.5,109.5,341.4,109.1,341.7,109z"/>
			<path class="st2" d="M349,123.9c3.2,0.2,6.4,0.3,9.5-0.4c1.5-0.3,3-0.9,4.4-1.4c1.2-0.4,2.3-1.1,3.4-1.4c0.2-0.1,0.3,0.2,0.2,0.4
				c-0.9,0.8-2.2,1.2-3.3,1.6c-1.6,0.6-3.3,1-5,1.3c-3,0.6-6.2,0.9-9.3,0.4C348.7,124.3,348.7,123.9,349,123.9z"/>
			<path class="st2" d="M334.3,158.9c-0.1-0.1,0-0.3,0.2-0.2c4.3,2.4,7.9,5.7,11,9.4c3.1,3.7,5.8,7.9,7.4,12.4
				c0.2,0.6-0.6,0.8-0.9,0.3c-2.1-4.2-4.3-8.3-7.3-12C341.7,165,338.1,161.8,334.3,158.9z"/>
			<path class="st2" d="M347,149.4c1.4-0.3,2.8-0.6,4.2-0.7c1.4-0.2,2.8-0.3,4.2-0.2c1.5,0,2.9,0.2,4.4,0.2c0.1,0,0.1,0.2,0,0.2
				c-2.8,0.1-5.6,0.4-8.3,0.8c-1.4,0.2-2.8,0.5-4.2,0.9c-1.3,0.4-2.6,1-4,1.2c-0.4,0-0.5-0.5-0.2-0.7
				C344.1,150,345.7,149.7,347,149.4z"/>
			<path class="st2" d="M351.9,168.3c1,0.8,2,1.5,3.1,2.1c1.1,0.6,2.4,1,3.6,1.3c2.7,0.6,5.4,0.8,8.1,1.1c0.2,0,0.1,0.3,0,0.3
				c-2.9,0-5.8-0.1-8.6-0.9c-2.3-0.6-4.9-1.7-6.6-3.5C351.4,168.4,351.7,168.1,351.9,168.3z"/>
			<path class="st2" d="M334.5,174.9c2.5,2.8,4.9,5.8,6.6,9.2c1.5,2.9,3,6.9,2.1,10.2c-0.1,0.4-0.6,0.3-0.7-0.1
				c-0.2-1.8-0.2-3.6-0.7-5.3c-0.4-1.7-1.1-3.3-1.9-4.9c-1.7-3.1-3.9-5.9-5.9-8.8C333.9,175,334.3,174.6,334.5,174.9z"/>
			<path class="st2" d="M323.9,190.7c0.1,0.3-0.3,0.6-0.5,0.4c-1.1-1-1.6-2.8-2-4.2c-0.5-1.6-0.8-3.3-0.9-4.9
				c-0.2-3.3,0.4-6.5,1.7-9.5c0.1-0.1,0.2,0,0.2,0.1c-0.9,3-1.2,6.2-1,9.3c0.1,1.6,0.4,3.2,0.9,4.7
				C322.7,187.8,323.5,189.2,323.9,190.7z"/>
			<path class="st2" d="M326.9,150.6c1.9,0,3.8,0.4,5.7,0c1.6-0.3,3-1,4.1-2.2c0.2-0.2,0.7,0,0.5,0.3c-2,3.5-7.1,3.4-10.4,2.5
				C326.5,151.2,326.5,150.6,326.9,150.6z"/>
			<path class="st2" d="M316.2,52.9c-1.4-1.2-2.2-3.4-2.8-5c-1.1-2.5-1.8-5.2-2.2-7.9c-0.8-4.9-0.7-10.6,1.3-15.3
				c0.3-0.7,1.3-0.3,1.2,0.4c-0.3,2-0.8,4-1,6c-0.3,2.9-0.3,5.8,0,8.7c0.3,2.6,0.9,5.3,1.8,7.8c0.3,1,0.7,1.9,1.1,2.9
				c0.3,0.7,0.7,1.4,0.8,2.2C316.4,52.9,316.3,53,316.2,52.9z"/>
			<path class="st2" d="M330.9,35.8c-0.9,2.8-1.7,5.6-2.2,8.5c-0.5,3-0.6,6.1-0.8,9.1c0,0.2-0.3,0.2-0.3,0c-0.5-2.9-0.3-5.9,0.1-8.8
				c0.4-3.1,1.2-6.1,2.1-9.1c1.9-5.8,4.5-11.5,7.9-16.6c0.2-0.4,0.8-0.1,0.6,0.3C335.7,24.7,332.8,30,330.9,35.8z"/>
			<path class="st2" d="M316.8,63c-0.8-0.6-1.7-0.9-2.4-1.5c-0.1-0.1,0-0.2,0.1-0.2c0.9,0.1,1.8,0.8,2.6,1.3c0.8,0.6,1.6,1.3,2.3,2
				c1.3,1.5,2.6,3.2,2.9,5.2c0.1,0.4-0.5,0.5-0.7,0.1c-0.4-0.9-0.7-1.8-1.1-2.6c-0.5-0.9-1-1.7-1.6-2.4
				C318.3,64.2,317.6,63.5,316.8,63z"/>
			<path class="st2" d="M340.7,47.6c-1.9,2.6-3.7,5.2-5.1,8.1c-2.5,5.3-3.8,11-5.3,16.6c0,0.2-0.3,0.2-0.3,0
				c0.4-9.6,4.3-18.7,10.1-26.2c2-2.6,4.2-4.9,6.5-7.2c0.2-0.2,0.5,0.1,0.3,0.3C344.8,42,342.8,44.8,340.7,47.6z"/>
			<path class="st2" d="M359.9,38c1.1-2.3,2.2-4.5,3.3-6.8c1-2.2,1.9-4.5,3.1-6.6c0.3-0.5,1.1-0.2,1,0.3c-0.7,2.3-1.7,4.4-2.6,6.6
				c-1.1,2.4-2.3,4.8-3.5,7.2c-2.2,4.3-4.7,8.4-7.5,12.3c-0.2,0.2-0.5,0-0.4-0.3C355.5,46.5,357.7,42.3,359.9,38z"/>
			<path class="st2" d="M351.1,64.3c-0.2,0.1-0.4-0.2-0.2-0.3c2.5-2.1,4.8-4.3,6.8-6.8c1.8-2.2,3-4.6,4.4-7c1.4-2.4,3.2-4.4,5.4-6
				c2.1-1.6,4.7-3.2,7.3-3.6c0.4-0.1,0.6,0.6,0.3,0.8c-1.2,0.8-2.6,1.3-3.8,2c-1.2,0.7-2.4,1.4-3.6,2.3c-2.2,1.7-3.9,3.8-5.3,6.1
				C359.5,56.7,355.9,61.1,351.1,64.3z"/>
			<path class="st2" d="M330.9,86.1c1,0.4,2.2,0,3.1-0.5c1-0.5,1.9-1.2,3.1-1.2c0.3,0,0.4,0.4,0.1,0.5c-0.5,0.2-1.1,0.5-1.6,0.7
				c-0.5,0.3-1.1,0.5-1.6,0.7c-1,0.4-2.1,0.5-3.1,0C330.6,86.2,330.7,86,330.9,86.1z"/>
			<path class="st2" d="M360.2,77.4c4.1,0,8.3-1.4,11.9-3.3c3.7-1.9,6.8-4.6,10.2-6.9c0.5-0.3,0.9,0.4,0.5,0.7
				c-6.3,5.4-14,10.8-22.7,10C359.9,77.8,360,77.4,360.2,77.4z"/>
			<path class="st2" d="M212.8,209.1c20.5-17.7,41.3-35.1,60-54.8c9.3-9.9,18.1-20.3,26.3-31.1c-0.9-0.6-1.8-1.2-2.6-1.8
				c-3,1.1-6.5,1-9.1-0.5c-1.2-0.7-2.3-1.9-3-2.9c-1.2-1.9-2.5-3.1-4.4-4.3c-1.3-0.9-3.1-1.2-4.6-2.1c-2.4-1.3-4.2-3.7-4.8-6.4
				c-0.3-1.3,0-2.4-0.2-3.5c-0.2-1.4-0.7-2.8-1.6-3.9c-1.2-1.5-3-2.7-4.3-4.4c-2.4-4.7-0.3-9.9-2.4-14.6c-0.9-1.9-2.1-4.6-2-6.9
				c0.2-4.3,0.9-8.4-0.4-12.6l-0.1-0.4c0,0,0-0.1,0-0.1c-0.2-0.3,0-1,0.3-1.2c0.2-0.1,0.6-0.1,0.9,0.1c0.3,0.2,0.3,0.2,0.3,0.3
				l0.3,0.3c1.4,1.2,2.9,2.2,4.5,3c3,1.4,6.8,2,8.9,5c0,0,1.9,2.6,1.9,2.6c3.1,4.6,8.5,6.5,12.1,10.8c0.7,0.8,1.6,2,2.1,3.3
				c0.4,1.1,0.4,2.4,0.6,3.3c0.8,2.9,3.9,4.2,6.2,6l-0.3-0.2c0.1,0.1,0.2,0.1,0.3,0.2c0.2,0.2,0.5,0.5,0.7,0.7
				c1.6,1.9,2.8,3.7,3.1,6.3c0.1,1.6-0.4,2.8-0.6,3.8c-0.8,3.3,0.1,6,1.2,9.2c0.9,3.4-0.7,6.1-3.2,7.8c0.3,0.6,0.7,1.2,1,1.8
				c2.7-3.6,5.3-7.3,7.8-11c0.1-0.1,0.1-0.2,0.2-0.3c4.7-7,9.2-14.1,13.4-21.4c0.3-0.4,0.6-0.7,1-0.8c-1.3-0.8-2.5-1.8-3.6-2.8
				c-1-0.9-2.1-2-2.5-3.4c-1.2-3.6-1.5-7.1-2.6-10.7c-0.8-3.6-2.6-6.9-2.6-10.7c0.4-2.4,2.2-2.6,4.2-2c-4.6-6.4-7.6-14.1-8-22.1
				c-0.4-5.6,0.9-11.2,2.8-16.5c0.9-2.2,2.1-5.3,2.7-7.6c0.5-1.9,0.9-3.9,1.2-5.9c0-0.8,0.4-2.1,1.4-2.4c0.6-0.3,1.6-0.2,2.2,0.3
				c0,0,0.6,0.5,0.6,0.5c3.6,3.3,6.5,7.5,8,12.1c1,2.6,1,5.7,0.7,8.4c-0.3,3.6-0.5,7.2-0.8,10.8c1.9-5.8,4.4-11.4,7.5-16.6
				c2.4-4.3,5.1-8.4,8.2-12.2c0.3-0.4,0.4-0.5,0.8-0.9c0.8-0.7,2.1-0.3,2.4,0.7l0,0.1l0.2,0.5c2.9,7.8,4.4,17.2,1.5,25.1
				c6.4-5.7,13.7-10.5,21.1-14.7c1.7-1.3,4.3,0.2,3.9,2.4c-0.8,6-3.3,11.7-5.7,17.2c-1,2.3-2.2,4.6-3.4,6.8
				c3.8-3.5,8.3-6.2,13.4-7.2c1.3-0.3,2.7-0.5,4.1-0.7c1.3-0.2,2.9-0.2,3.6,1.2c0.5,0.9,0.2,1.9-0.2,2.7
				c-2.7,7.4-6.9,13.6-12.1,18.8c6.6-2.1,13.9-1.5,20.2,1.4l0.9,0.4c1,0.4,1.2,1.8,0.6,2.6c-0.2,0.3-0.7,0.5-1,0.7
				c-4.3,2.2-7.7,5.5-11.3,8.7c-8,7-19.1,9.4-29.5,8.1c0.2,0.1,0.4,0.3,0.6,0.4c0.4,0.3,0.9,0.7,1,1.3c0.3,3.7-3.5,3.8-5.9,3.8
				c-2.4,0.1-4.6,0.4-6.8,1.1c-2.4,0.7-4.3,2.6-6.9,2.9c-3.1,0.4-6-0.2-8.7-1.5c0.1,0.4,0.1,0.9-0.2,1.3
				c-4.2,6.8-8.6,13.6-13.1,20.3c3.1,2.2,7.1,3.3,11.1,2.6c-0.1-1.6,0.2-3.3,1.3-4.5c1.9-1.9,4.1-3,6.8-3c0.2,0,0.3,0.1,0.4,0.2
				c3.4-5.1,9.2-8.6,15.4-8.8c9.3-0.6,17.4,5.2,22.6,12.4c1.4,1.8,2.6,3.8,3.6,5.9c0.1,0.2,0.2,0.4,0.2,0.7c0,0.6-0.5,1-1,1
				c0.1,0.1,0.3,0.3,0.4,0.4c0.1,0.1,0.2,0.1,0.2,0.4c-0.1,0.3-0.2,0.3-0.2,0.4c-0.1,0.2-0.3,0.3-0.5,0.4c0.3,0.2,0.3,0.8-0.1,1
				c-8.1,4.8-19.6,7.8-29,4.9c5.9,3.7,13.8,2.6,20.1,0c2.8-1.2,5.4-2.8,8.1-4.3c0.2-0.1,0.4-0.1,0.6,0c0.6,0.5,0.1,1-0.2,1.4
				c-2.5,3.5-5.8,6.5-9.5,8.6c-7.6,4.7-18.1,5.3-25.6,0.1c-3.1-2.2-5.7-5.4-7.1-9c-0.3,0.3-0.7,0.5-1.3,0.4c-0.7-0.1-1-0.4-1.4-0.7
				c-1.4-1.3-2.6-2.9-3.3-4.8c-0.2-0.4-0.3-0.9-0.4-1.4c-4.2,1.3-9,0.8-13-1.4c-3.7,5.4-7.5,10.8-11.5,16.1
				c-0.8,1.1-1.6,2.1-2.4,3.2c9.9,1.5,19.5,6.1,26.1,13.6c0.1-0.1,0.2-0.2,0.4-0.3c5.7-3.6,13.6-3.8,18.9,0.5
				c0.4,0.3,0.6,0.8,0.4,1.3c-0.2,0.4-0.5,0.8-0.8,1.2c7.3-3.3,15.9-4.5,23.3-1.3c3.2,1.5,6.2,3,9.7,3.6c0.3,0.1,0.7,0.1,1,0.4
				c0.8,0.6,0.6,1.9-0.2,2.4c-2.4,1.7-5,3.1-7.8,4c-3.4,1.1-7.3,1.1-10.8,0.3c-1.1-0.3-2.2-0.5-3.3-0.8c6.6,3.4,12.5,8.4,17.3,14
				c0.2,0.3,1.1,1.3,1.3,1.5c0.5,0.6,0.4,1.6-0.2,2c-0.4,0.3-0.7,0.3-1.1,0.3c-5.6,1-12,0.8-17-2.1c2.8,4.9,4.9,10.1,6.5,15.3
				c0.2,0.8,0.8,2,0.5,2.9c-0.3,1-1.6,1.5-2.5,1l-0.7-0.4c-3.3-1.9-6.6-4.1-9.6-6.5c-1.4-1.1-2.7-2.2-4-3.4
				c2.1,4.2,3.1,8.9,2.1,13.6c0,1.4-1.3,2.6-2.7,1.9c-3.3-2.3-6-5.1-8.5-8.2c-1.3-1.7-2.4-3.5-3.4-5.4c0.3,2.8,0,5.6-1,8.2
				c-0.9,2.7-2.4,5.1-4.2,7.3c-0.6,0.8-1.9,0.5-2.1-0.5c-1.2-6.8-6.2-12.6-5.5-19.8c0.1-4,1-7.9,2.5-11.5c-0.3,0.2-0.6,0.5-0.9,0.7
				c-0.4,0.2-0.8,0.2-1.2,0.1c-0.6-0.2-0.9-0.8-1-1.4c-1.5-3.9-1.8-8.4-0.6-12.5c0.5-2.7,1.8-5.7,4-7.7c-7.2-7-17-10.8-26.9-11.3
				c-0.1,0-0.3-0.1-0.4-0.1c-5,6.5-10.1,12.9-15.4,19.2c0.9,1.4,1.7,2.8,2.5,4.2c3.8,0.1,7.8,1.8,10,4.6c2.1,2.4,1.9,5.7,3.1,8.2
				c0.5,1.1,1.3,2.3,2,3.4c1.1,1.6,3,2.9,4.3,4.5c2.2,2.5,3,6,2.5,9.2c-0.2,1.6-1.1,2.7-1.4,4.1c-0.4,1.8-0.5,3.7,0.1,5.4
				c0.7,2.3,2.2,4.5,2.9,7c0.6,6.4-4.2,11.4-3.9,17.8c0.1,2.6,0.3,6.1-0.8,8.7c-1,2.8-2.7,5-3.6,7.7c-0.8,2.3-1.4,4.6-1.7,7
				l-0.1,0.5c0,0,0,0.1,0,0.1c0,0.4-0.4,1-0.7,1.1c-0.2,0-0.6-0.2-0.9-0.5c-0.2-0.4-0.2-0.3-0.2-0.4c0,0-0.2-0.4-0.2-0.4
				c-1-2-2.3-3.9-3.8-5.6c-1.8-2.1-4.2-3.4-5.8-5.7c-1.8-2.2-2.3-5.3-3-7.9c-1.5-6.7-6.8-11.3-8.9-17.9c-0.5-1.2-0.9-2.9-0.8-4.5
				c0-1.4,0.7-2.8,0.8-4.1c0.6-3.8-3.4-7.9-4.4-10c-1.3-3-2-6.1-1.1-9.5c1.3-3.1,3.2-4.5,4.1-7.4c1.8-4-0.2-9.3,3.4-12.7
				c1.4-1.3,3.1-2.1,4.9-2.5c-0.2-1.1-0.4-2.2-0.6-3.3c-23.2,27.4-49.8,52.1-82,68.5c-0.3,0.2-0.6-0.3-0.4-0.5
				C194.9,224.1,212.8,209.1,212.8,209.1z M297.1,106.1c-0.2-2.1,0.8-5,0.9-6.7c-0.1-1.4-1.2-3.1-2.2-4.2c-0.2-0.2-0.2-0.3-0.5-0.5
				c0,0,0.2,0.1,0.2,0.2c0,0-0.3-0.2-0.3-0.2c-2.8-2-6.2-4-7.1-7.7c-0.3-1.2-0.2-2.1-0.5-3.1c-0.5-1.6-2.2-3.2-3.5-4.5
				c-3.1-2.7-7.4-5.3-9.7-9c-1.7-2.7-3.3-5.1-6.5-6c-2.3-0.8-4.4-2.1-6.3-3.6c0.3,1.4,0.6,2.7,0.7,4.1c0.3,3.3-0.7,6.8,0.5,9.9
				c1.6,3,3,6.7,2.9,10.2c0,2.4,0,4.8,0.9,6.8c2.8,2.7,6.2,5.2,6.6,9.5c0.1,0.7,0.1,1.4,0.1,2c-0.2,1.7,0.9,3.6,2.2,4.7
				c0.7,0.6,1.6,1,2.5,1.3c2.3,0.7,4.6,2.1,6.4,3.8c1.8,1.4,2.5,3.8,4.3,4.8c1.2,0.7,2.6,0.8,4,0.7c-4.8-4.4-8.2-10-11.3-15.7
				c-4.9-8.3-8.8-17.2-11.4-26.5c0-0.1,0.1-0.1,0.1-0.1c4.4,8.5,9,16.7,14.4,24.5c4.2,5.4,8.4,10.6,12.1,16.3
				C300.9,114.6,296.9,110.7,297.1,106.1z M320.9,11c-1.3-1.8-2.9-3.4-4.6-4.8c-0.1,0-0.1,0-0.2,0c-0.2,0.2-0.2,0.1-0.3,1
				c-0.4,3.4-1.1,6.9-2.2,10.2c-1.4,3.6-2.8,7.7-3.4,11.5c-2.1,12.3,4,26.6,12.6,34.3c-0.1-1.5-0.5-3.2-0.6-4.7
				c-0.4-5,0.6-11.6,1-16.5c0.5-6.7,1.7-13.5,2-20.2C325,17.9,323.2,14.1,320.9,11z M343.5,8c0.1-0.1-0.5,0.7-0.5,0.7l-1.2,1.7
				c-10.4,14.2-17.9,31.9-15.3,49.8c0.1,0.5,0.2,1.1,0.3,1.6c0.3-0.8,0.6-1.5,0.8-2c2.9-7.9,7.9-15.4,13.6-21.3
				c3.6-4,5.3-9.4,5.3-14.8C346.6,18.3,345.2,13,343.5,8z M369.4,20.3c0.1-0.1,0.1-0.1,0.1-0.2c-0.2-0.3-0.3-0.3-0.8,0l-2,1.2
				c-14.6,8.7-28.2,20.9-34.5,37c-2.3,5.7-3,11.9-3.7,17.9c15.2-8.5,27.5-23.3,34.7-39.4C365.6,31.5,367.1,25.7,369.4,20.3z
				 M381.6,39.7c0.2-0.4,0.2-0.7,0-1.2c-0.3-0.5-0.9-0.3-1.4-0.2c-9.7,1-16.9,6.8-21.9,14.9c-4.5,7-12.8,14.5-19.4,20.8
				c2-0.5,4.1-1.1,6.1-1.8c4.6-2,9.2-4.1,13.7-6.3c1.3-0.8,2.7-1.6,4-2.4C371.2,57.7,377.9,49.3,381.6,39.7z M379.5,71.9
				c3.7-3.1,7.4-6.4,11.8-8.4c0.2-0.1,0.7-0.2,0.6-0.5c0-0.1-0.1-0.2-0.1-0.2c0,0-0.8-0.4-0.8-0.4c-7.5-3.4-16.4-3-23.5,1.4
				c-1,0.6-2,1.1-2.9,1.7c-6,4.4-12.9,7.8-20.2,10.4c-0.3,0.1-0.6,0.3-0.9,0.4C355.3,80.5,369.5,80,379.5,71.9z M332.7,87
				c1-0.1,1.5-0.3,2.8-0.9c3.6-1.6,7.7-1.6,11.4-1.4c1.2,0.1,2.4,0.1,3.2-0.1c0.4-0.1,0.5-0.5,0.6-0.8c-0.1-0.1-0.2-0.2-0.2-0.2
				c-6.4-5.1-15.2-5.7-22.7-3.5c-1.5,0.6-3.2-0.8-2.9-2.4c0,0,0-0.4,0-0.4c0.3-4-1-8.3-3.4-11.6c-1.5-1-2.9-2.7-4-4
				c-1-0.7-2.1-1.3-3.3-1.7c-0.4-0.1-0.9-0.3-1.2-0.1c-0.4,0.3-0.6,0.6-0.6,1.1c0.1,3.4,2.1,6.7,3.2,10c1.9,4.1,2.4,9,5.2,12.5
				C323.8,86.2,328.7,87.3,332.7,87z M329.9,107.9C329.9,107.9,329.9,107.9,329.9,107.9C329.9,107.9,329.9,107.9,329.9,107.9z
				 M344.7,132.1c5.4,1,11.2-0.1,16.1-3c3-1.6,5.7-3.8,8-6.2c-8.6,5.1-19.7,8.9-28.6,2.6c-1.3-1-2.5-2.1-3.5-3.4
				c-0.3-0.3-0.3-0.8,0-1.2c0.3-0.4,0.9-0.5,1.3-0.2c8.9,7.1,23.1,4.3,32.4-1c-1.9,0-3.8,0-5.7,0c-4.3-0.1-8.5,0.3-12.8,0.1
				c-4.8-0.3-9.4-1.9-13.6-4.2c-1-0.4-0.7-2.1,0.4-2.1c7.2-0.7,14.6-1,21.6,1.4c3.4,1.1,6.4,3.2,9.9,3.7c0.4,0,0.9,0,1.2-0.2
				c-4.1-3.8-9.1-6.7-14.4-8.6c-5.3-2-11.1-2.1-16.5-1.1c-1.1,0.2-1.8-1.4-0.8-2c3.6-3,8.8-3.4,13.2-2.4c6.1,1,11.5,4.2,15.9,8.4
				c-5-7.4-13.1-13.6-22.3-12.9c-8.2,0.3-15.6,7.3-16.4,15.5C329.4,123.5,336.7,130.8,344.7,132.1z M368.3,118.9
				c-1.5-0.4-3-1-4.4-1.6c-6.8-3.4-14.6-3.4-22-2.1c5,2.8,10.5,3.8,16.4,3.6C361.6,118.7,365.1,118.8,368.3,118.9z M369.5,115.8
				c-3.5-4-7.8-7.4-13-8.8c-3.7-1.1-8-1.9-11.7-0.7c4.3,0.1,8.6,0.7,12.5,2.5C361.7,110.5,365.9,112.8,369.5,115.8z M324.4,116
				c0.5,1.5,1.9,3.1,3.3,4.1c0.3-1.3-0.1-3.5-0.1-5c0.1-1.5,0.3-3,0.9-4.5c0.3-0.6,0.6-1,0.9-1.5c0.1-0.2,0.2-0.5,0.3-0.7
				c0-0.1,0-0.1,0.1-0.2C326.4,109,323.3,112.1,324.4,116z M356.2,157.3c6,1.6,12.5-0.5,17.2-4.1c-3.5-0.7-6.9-2.3-10-3.8
				c-8.4-3.7-18.3-1.5-26,2.9c-0.3,0.2-0.6,0.4-1,0.6c-0.2,0.1-0.4,0.3-0.6,0.4c0.5,0.1,1.1,0.1,1.6,0.1c3,0.2,5.9,0.9,8.8,1.8
				C349.7,155.8,353,156.5,356.2,157.3z M369.8,174.1c-8.5-10.1-20.3-18.4-33.8-18.9c-0.5,0-0.9-0.1-1.4-0.2c1,0.6,2.1,1.2,2.7,1.7
				c5.1,2.9,9.5,7.3,12.7,12.1c2.2,3,5.6,4.8,9.2,5.5C362.7,174.8,366.3,174.6,369.8,174.1z M357.6,190.9l0.7,0.4c0.1,0,0.1,0,0.2,0
				c0,0,0,0-0.1-0.3c-3.3-11.6-9.4-23.9-19.3-31.1c-0.1-0.1-0.3-0.2-0.4-0.3c-0.4-0.3-0.8-0.5-1.2-0.8c-0.4-0.2-0.7-0.5-1.1-0.7
				c-0.1-0.1-0.3-0.2-0.5-0.3c-2.5-1.4-5.2-2.5-8.2-3.3c0.2,0.7,0.4,1.4,0.7,2.2c0,0,0.1,0.1,0.1,0.1c1.8,3.5,4.3,9.1,6.8,13.5
				C340.9,178.8,348.8,185.9,357.6,190.9z M335.2,188.9c2.2,3,5,5.8,7.9,7.9c0.2,0.1,0.5,0.1,0.7-0.1c1-2.9,0.6-6.3,0-9.3
				c-0.8-3.7-3.2-6.7-5.7-9.6c-1.7-1.9-3.3-4.3-4.9-6.9c-1.8-2.6-3.4-5.4-4.7-8.3c-0.2-0.3-0.3-0.7-0.4-1c-0.2-0.4-0.4-0.7-0.6-1.1
				c0,1.2,0,2.5,0.1,3.7c0.4,3.6,0.9,7.2,1.5,10.9C330.3,180.1,332.3,184.8,335.2,188.9z M320.9,189.3c1.4,3,2.9,6.2,3.5,9.6
				c0,0.2,0,0.5,0.3,0.5c0.1,0.1,0.5-0.6,0.6-0.6c3.5-4.6,5.2-10.5,3.6-16.2c-1.6-6.1-2.9-12.3-3.8-18.6
				C319.9,171.2,317.3,180.9,320.9,189.3z M318.6,155.5c-1.3,3.9-1.2,8.3,0.3,12.2c1.5-1,2.7-2.3,3.7-3.7c0.1-0.2,0.2-0.3,0.3-0.5
				c1.5-2.5,2.4-5.4,2.3-8.3c0.1-0.8-0.2-1.9,0-2.4c0.2-0.6,1-0.8,1.5-0.5c1.9,0.7,3.6,0.9,5.2,0.8c0.4-0.2,0.8-0.2,1.2-0.2
				c1.1-0.2,2.1-0.6,3-1.1c0.3-0.2,0.7-0.4,1-0.6c1.3-0.9,2.4-2,3.4-3.4c-5.4-2.3-12-3.1-17,0.4
				C320.6,149.7,319.4,152.4,318.6,155.5z M278.2,162.9c-2.2,0.5-3.9,2.1-4,4.2c-0.1,2.6-0.2,6.1-1.4,8.7c-0.7,2.5-3.2,5.2-4.1,7.3
				c-0.6,1.7-0.1,4.3,0.5,6.1l0.2,0.4l0.1,0.2l0,0.1l0,0c0,0,0,0,0,0c0-0.1-0.1-0.2-0.2-0.3c0,0,0.2,0.3,0.2,0.3
				c2.3,3.5,5.2,7.3,4.6,11.9c-0.2,1.4-0.8,2.5-0.9,3.8c-0.1,2.2,1.1,4.8,2,6.9c2.4,4.5,6,9.4,7.1,14.7c0.7,3.9,1.5,7.4,4.9,9.9
				c2.4,2.1,4.4,4.7,5.9,7.5c0.3-1.9,0.7-3.8,1.3-5.7c1.2-3.9,4-7.4,4-11.6c-0.4-4.1-0.3-8.9,1.3-13c1.1-2.7,2.2-5.5,2-8.4
				c-1.9-4.4-4.7-8.7-3.3-13.7c0.2-1.4,1.1-2.7,1.3-3.9c0.2-1.7-0.1-3.7-0.9-5.2c-0.6-1-1.4-2-2.3-2.8c-2.3-1.8-4.2-4.5-5.5-7.2
				c-1.4-2.5-1.1-5.5-2.8-7.5c-1.3-1.6-3.3-2.6-5.5-2.9c3.5,7.5,5.1,15.7,6.1,23.8c1.9,11.7,2.5,23.7,1.4,35.5c0,0.1-0.2,0.1-0.2,0
				c-0.9-11.7-2.4-23.3-5-34.8c-2.2-8.2-4.7-16.3-6.5-24.6C278.4,162.9,278.3,162.9,278.2,162.9z"/>
		</g>
	</g>
	
		<image style="display:none;overflow:visible;" width="351" height="750" xlink:href="../../../../Raw Images/New edit/essentialoil.png"  transform="matrix(0.4627 0 0 0.4627 123.2647 31.7851)">
	</image>
</g>
</svg>
