<?xml version="1.0" encoding="utf-8"?>
<!-- Generator: Adobe Illustrator 27.3.1, SVG Export Plug-In . SVG Version: 6.00 Build 0)  -->
<svg version="1.1" id="Layer_1" xmlns="http://www.w3.org/2000/svg" xmlns:xlink="http://www.w3.org/1999/xlink" x="0px" y="0px"
	 viewBox="0 0 197.3 250" style="enable-background:new 0 0 197.3 250;" xml:space="preserve">
<style type="text/css">
	.st0{fill:#F4DF6C;}
</style>
<g>
	<g>
		<path class="st0" d="M129.1,135.4c-0.1,0.6,0.8,0.8,1,0.2c0.6-2.6,1.8-5.1,3.3-7.6c3.3-5.1,7.4-9.7,11.9-13.8
			c-0.3,1.1-0.6,2.3-1.1,3.6c-1.6,4.5-3.5,4.8-4.2,8.2c-0.7,3.6,0.7,4.8-0.6,7.3c-0.9,1.6-1.7,1.4-3.6,3.6c-1.9,2.5-1.5,3.4-3.1,5.1
			c-1.7,1.8-3.1,1.6-4.9,2.8c-1.6,1.1-3.6,3.5-4.5,8.6c-2.1-5.6-1.6-9.1-0.7-11.5c1-2.6,2.6-4.1,3.4-7.8c0.1-0.5,0.1-1.1,0.2-1.6
			c0.4-4.1,0.1-5,0.4-6.6c0.6-3.6,3.6-5.8,4.2-6.3c2.6-1.9,3.4-0.8,6.3-3c2.1-1.6,2.6-2.8,4.8-4c0.5-0.3,1.1-0.5,1.6-0.6
			C136.8,118.7,130.6,126.8,129.1,135.4z"/>
		<path class="st0" d="M160.4,129.5c-0.2-0.1-0.4,0.1-0.3,0.4c0.4,1.3,0.6,3.6,0,6c-1.2,4.3-4.6,6.2-5.8,6.8c-0.2,0.1-0.4,0-0.5-0.2
			c-0.6-1.5-1.6-3.9-1.6-7c0-0.7,0.1-5.5,3.1-9.2c0.5-0.6,1.4-1.6,2.7-2.4c1.4-0.8,2.6-1,4.2-1.4c1.1-0.2,2.6-0.5,4.4-0.5
			c1.5,0,4.2,0.3,7.6,1.9c0.4,0.2,0.5,0.6,0.3,0.9c-1.1,1.4-3.4,3.6-6.9,4.6C164.6,130.3,161.9,129.9,160.4,129.5z"/>
		<path class="st0" d="M165.8,136.6c-0.3-1-0.4-2-0.5-3.1c-0.1-0.5,0.5-0.8,0.9-0.6c1.5,0.6,2.8,1.4,4.4,2.1
			c11.1,6.4,16.9,16.8,19.7,23.4c0.3,0.5-0.4,1.1-0.8,0.8C183.3,156.8,169.2,149.9,165.8,136.6z"/>
		<path class="st0" d="M184.4,131.8c-2.1-0.6-5.1-1.6-8.9-2.5c-0.4-0.1-0.5-0.6-0.1-0.8c2.1-1.3,5.7-2.8,10.3-3.1
			c1.3-0.1,2.5,0,3.5,0.1c1.8,0.2,3.6,0.7,5.3,1.6c0.2,0.1,0.4,0.2,0.6,0.4c0.4,0.2,0.6,0.4,0.9,0.5c0.6,0.4,1.2,0.7,1.5,0.9
			c0.6,0.5,1.1,0.9,3.7,4.1c0.5,0.6,0.8,1.1,0.7,1.5c-0.1,0.4-0.5,0.6-1.3,0.7c-2.9,0.6-6.1-0.6-6.1-0.6
			C190.1,132.6,186,132.3,184.4,131.8z"/>
		<path class="st0" d="M159.8,143.2c0.6,4.3,1.5,7.8,2,10.2c1.5,5.9,2.4,8.1,2.1,11.4c-0.4,3.4-2.1,6-3.6,7.8
			c-0.4,0.4-0.9,0.1-1-0.4c-0.6-2.6-1.4-4.4-2.1-5.7c-0.3-0.5-0.8-1.5-1.5-2.8c-0.1-0.3-0.2-0.5-0.3-0.7c-0.7-1.9-1.2-3.9-1.3-6
			c0-1.1,0-2.4,0.2-3.8c0.7-4.8,2.9-8.3,4.6-10.3C159.2,142.5,159.8,142.7,159.8,143.2z"/>
		<path class="st0" d="M183.1,140.9c-2.1-2.1-7.3-5.7-11.6-8.8c-0.3-0.2-0.1-0.6,0.2-0.6c4.1,0.4,14.3,2.2,21.1,8.5
			c2.6,2.6,4.5,5.2,5.7,7.4c0.3,0.5-0.1,1.3-0.7,1.3c-2,0.1-4.4-0.1-6.9-1.2C187.5,146.1,186,143.9,183.1,140.9z"/>
		<path class="st0" d="M171.2,165c-1.6-2-2.9-3.8-3.9-5.6c-2.2-3.6-4.6-9.3-4.4-16.2c0-1.1-0.5-3.1,0.3-3c0.6,0.4,2.6,5.9,5.6,9.3
			c2.7,3.2,4.5,3.8,6,6.1c1.6,2.4,2.8,6.4,1.1,13.3c-0.1,0.3-0.5,0.4-0.6,0.2C173.9,168,172.5,166.6,171.2,165z"/>
		<path class="st0" d="M94.1,56.6c-0.1-0.3,0.1-0.5,0.4-0.8c1.5-1.8,5.6-0.2,11.8,1.4c10.1,2.6,12.2,1.8,15.4,4.8
			c2.2,2.1,3.5,4.5,3.8,5.3c0.6,1.2,1.9,4.1,1.9,7.8c0,3.4-1.3,3.6-2.1,7.6c-1.4,6.9,1.1,11.9-1.3,13.2c-0.6,0.4-1.4,0.5-1.6,0.2
			c-2.1-2.2-5.7-6.6-7-13.1c-1.1-5.5-0.4-10,0.4-12.6c0.1-0.4-0.2-0.6-0.5-0.6c-2.1,0.4-6,0.5-10.1-1.3C97.9,65.3,95,58.8,94.1,56.6
			z"/>
		<path class="st0" d="M104.1,74.6c1.4-0.3,2.9-0.5,4.6-0.5c0.7,0,1.3,0.8,0.9,1.6c-0.9,2.3-2.1,4.6-3.4,6.9
			c-9.9,17.5-25.3,25.6-35.3,29.4c-0.8,0.4-1.6-0.6-1.2-1.6C73.7,100.7,84.7,78.2,104.1,74.6z"/>
		<path class="st0" d="M103.9,120.6c0.3-5.1,2.1-8,5.3-16.4c1.4-3.4,3.1-8.4,5-14.7c0.2-0.6,1-0.7,1.3-0.1c1.6,3.7,3.6,9.8,3.5,17.4
			c-0.1,2.1-0.3,4.1-0.6,5.8c-0.5,3.1-1.6,5.9-3,8.6c-0.2,0.4-0.4,0.6-0.5,1c-1.1,1.9-2.1,3.1-2.6,3.8c-1.1,1.6-2.6,4.1-4,7.8
			c-0.3,0.6-1.1,0.7-1.4,0.1C105.3,130.5,103.7,125.9,103.9,120.6z"/>
		<path class="st0" d="M81.4,56.3c6.9,1.6,11.8,5.7,14.5,8.6c0.5,0.5,0.1,1.4-0.5,1.5C89,67,83.9,68,80.3,68.7
			c-8.8,1.7-12.2,3.1-16.9,2.1c-4.9-1.1-8.6-4.1-10.9-6.8c-0.5-0.5-0.1-1.6,0.6-1.6c3.8-0.7,6.6-1.8,8.5-2.8
			c0.8-0.4,2.3-1.2,4.4-2.1c0.4-0.1,0.7-0.3,1.1-0.4c2.9-1.1,5.9-1.6,8.8-1.5C77.8,55.6,79.5,55.9,81.4,56.3z"/>
		<path class="st0" d="M96.7,102.4c3.1-3,8.5-10.9,13.2-17.4c0.4-0.4,0.9-0.1,0.8,0.4c-0.8,6.6-4.1,22.4-13.5,32.4
			c-3.7,4-7.7,6.6-10.9,8.1c-0.8,0.4-1.7-0.4-1.7-1.4c0.1-3.1,0.5-7,2.3-10.8C89.2,108.9,92.3,106.6,96.7,102.4z"/>
		<path class="st0" d="M100,71C99.9,71,99.9,71.1,100,71c-1.2,0.8-2.4,1.5-3.6,1.9c-3.7,1.8-7.5,3.6-10.7,6.3
			c-3.7,3.3-6.6,7.9-11.2,9.8c-5.1,1.8-11.2,1.2-16.3-0.9C58.1,88,58,88,57.9,87.9c-0.2-0.3,0.1-0.6,0.3-0.8
			c5.4-5.6,11.7-10.2,18.5-13.1s14.4-4.3,21.7-3.4C98.9,70.7,99.5,70.7,100,71z"/>
		<path class="st0" d="M115.1,19.6c2.8,0,4.9,0.8,5.9,1.3c4,1.8,3.8,3.7,7.3,6.1c4.1,3,6,1.4,10.8,5.1c1.1,0.8,3.4,2.7,4.1,4.6
			c-16.1-7.8-34.8-9-52.2-4.7c-0.5,0.1-0.4,0.8,0.1,0.7c9.1-1.6,18.4-1.6,27.5-0.2c7.8,1.2,15.5,3.7,22.6,7.6
			c-1.6,0.5-3.6,0.6-5.1,0.6c-8.8,0.6-10.8-2.5-17.1-1.1c-5.8,1.4-6.4,4.4-10.7,3.8c-3.7-0.4-4-2.7-8.8-3.7c-5.3-0.9-6.2,1.5-11,0.8
			c-5.3-0.5-6-3.6-11.8-4.3c-2.6-0.4-6.6,0-11.7,2.5c1.6-2.3,4.6-5.7,9.4-8.6c0.8-0.5,2.4-1.4,4.5-2.1c4-1.4,5.1-0.6,8.1-1.5
			c4.7-1.3,4.6-3.8,8.9-4.8c4.1-0.8,4.5,1.3,8.9,0.6C109.6,21.9,110.4,19.7,115.1,19.6z"/>
		<path class="st0" d="M175.3,108.9c-2.1-1.4-1.9-2.1-4.4-4.2c-3.2-2.8-4.3-2.2-6.8-4.8c-0.2-0.2-0.4-0.4-0.5-0.6
			c0,0-0.2-0.2-0.4-0.5c-0.5-0.7-1.2-4.3-1.9-6.3c-0.6-1.6-1.4-2.6-1.8-3.2c-1.1-1.4-1.6-1-2.5-2.6c-0.8-1.4-1.1-2.8-1.1-3.1
			c-0.1-0.8-0.1-1.4-0.1-1.8c0.1-1.8,0.4-2.7,0.6-4.3c0.3-1.4,0.3-2.6,0.4-3.7c0.3-4.1-0.6-5-0.2-7.8c0.4-2.1,1.3-3.7,2.2-4.8
			c-0.1,10.5,2.6,20.4,7.3,28.5c2.1,3.8,4.7,7.4,7.6,10.5c0.5,0.5,1.2-0.3,0.6-0.8c-8.8-10.2-14-25.2-12.8-40.7
			c0.9-0.5,2.2-1,3.4-0.2c1.8,1.2,1,4.2,3.4,7.1c1.8,2.2,3.1,1.6,3.9,4.1c0.6,1.9,0.6,3.9,0.6,3.9c0,1.6-0.4,2.2-0.2,4.1
			c0.1,0.9,0.2,1.9,0.6,3c0.7,1.6,1.6,1.6,2.4,3.2c0.4,0.6,0.5,1.1,0.6,2c1.5,4.8,0.5,6.6,2.9,11.6c1.4,2.6,2.1,3.1,2.8,5.2
			c0.6,2.1,0.4,3.3,1.3,6c0.6,1.9,1.6,3.5,2.2,4.5c-0.9-0.5-2.5-1.5-4.3-2.1C178.5,109.8,177.7,110.3,175.3,108.9z"/>
		<path class="st0" d="M177.4-24.3c0,0.5,0,1.1,0,1.6c0.3,21.9-8.6,44.3-22.2,62.4c-3.4,5.8-6.1,11.9-8,18.4
			c-2.1,7-3.2,14.2-3.2,21.5c-0.1,7.3,0.9,14.6,2.9,21.6c0.5,1.8,1.1,3.6,1.7,5.5c0.4,1.1,0.8,2.3,1.4,3.4c1.6,3.8,3.4,7.7,5.6,11.2
			c0.3,0.5,0.1,1-0.4,1.4c-0.5,0.3-1.1,0.1-1.4-0.3c-2.2-3.4-4.1-7-5.8-10.7c-0.5-1.1-0.9-2.2-1.4-3.4c-0.8-2.1-1.6-4.3-2.3-6.5
			c-2.2-7.2-3.4-14.8-3.5-22.4s1.1-15.2,3.1-22.4c0.7-2.6,1.6-5.1,2.6-7.6c-4.9,5.2-10.3,9.8-16,13.8c-1.1,0.7-2.3-0.8-1.4-1.6
			c6.1-5.7,11.8-11.8,17-18.3c10.3-12.9,17.9-27.8,22.5-43.6c2.4-7.9,3.7-16,5.5-24.2c0.3-1.4,1.8-1.6,2.6-0.8
			C177.1-25.1,177.4-24.7,177.4-24.3z"/>
	</g>
</g>
<g>
	<path class="st0" d="M99.3,203.3c0-0.2-0.2-0.4-0.4-0.3c-1.3,0.5-3.5,1.2-6.3,0.8c-4.6-0.6-7.1-4-7.8-5.2c-0.1-0.2-0.1-0.5,0.1-0.5
		c1.5-0.9,3.9-2.2,7-2.5c0.7-0.1,5.6-0.6,10,2.1c0.6,0.4,1.8,1.1,2.8,2.5c1,1.3,1.4,2.5,1.9,4.2c0.4,1.1,0.8,2.6,1.1,4.5
		c0.2,1.5,0.3,4.4-1,8.2c-0.1,0.4-0.6,0.6-1,0.4c-1.5-0.9-4.1-3-5.5-6.5C99.1,207.7,99.2,205,99.3,203.3z"/>
	<path class="st0" d="M92.8,209.9c1-0.4,2-0.7,3.1-1c0.5-0.1,1,0.4,0.8,0.8c-0.5,1.6-1,3.2-1.6,4.8c-5.2,12.4-15.2,19.7-21.8,23.5
		c-0.5,0.4-1.2-0.2-1-0.8C74.1,230.7,79.4,215,92.8,209.9z"/>
	<path class="st0" d="M100.2,228.6c0.4-2.3,1-5.5,1.4-9.6c0.1-0.4,0.5-0.5,0.8-0.2c1.6,2.1,3.7,5.5,4.5,10.3
		c0.3,1.4,0.4,2.5,0.4,3.6c0.1,1.9-0.3,3.8-0.8,5.6c-0.1,0.2-0.1,0.5-0.3,0.6c-0.1,0.4-0.3,0.7-0.4,1c-0.3,0.6-0.6,1.4-0.8,1.6
		c-0.4,0.7-0.8,1.3-3.8,4.4c-0.6,0.6-1,1.1-1.5,1c-0.4-0.1-0.6-0.4-0.9-1.2c-1-2.9-0.1-6.4-0.1-6.4
		C100.1,234.6,99.9,230.2,100.2,228.6z"/>
	<path class="st0" d="M85.2,204.5c-4.4,1.3-7.9,2.5-10.3,3.5c-6,2.3-8.1,3.5-11.5,3.5c-3.5,0-6.5-1.4-8.5-2.7
		c-0.4-0.3-0.3-0.9,0.2-1.1c2.5-1,4.4-2.1,5.5-2.9c0.5-0.4,1.5-1.1,2.8-1.8c0.3-0.1,0.5-0.3,0.7-0.4c1.9-1.1,4-1.8,6-2.1
		c1.2-0.2,2.5-0.3,3.9-0.3c5.1,0.1,9,1.9,11.3,3.4C85.8,203.8,85.7,204.4,85.2,204.5z"/>
	<path class="st0" d="M90.5,228.4c1.9-2.4,4.9-8.3,7.5-13.2c0.2-0.4,0.6-0.2,0.6,0.1c0.1,4.3-0.4,15.2-6,23
		c-2.3,3.1-4.8,5.3-6.9,6.8c-0.5,0.4-1.4,0.1-1.4-0.6c-0.4-2.1-0.5-4.5,0.4-7.4C85.8,233.7,87.8,231.7,90.5,228.4z"/>
	<path class="st0" d="M64.1,219.2c1.8-1.9,3.6-3.5,5.3-4.8c3.5-2.8,9-6,16.3-6.7c1.1-0.1,3.2-0.9,3.1-0.1c-0.3,0.6-5.8,3.5-9,7
		c-2.9,3.3-3.4,5.1-5.5,7c-2.4,1.9-6.3,3.7-13.7,2.8c-0.4-0.1-0.5-0.4-0.4-0.6C61.3,222.3,62.5,220.8,64.1,219.2z"/>
</g>
</svg>
