<?xml version="1.0" encoding="utf-8"?>
<!-- Generator: Adobe Illustrator 27.3.1, SVG Export Plug-In . SVG Version: 6.00 Build 0)  -->
<svg version="1.1" id="Layer_1" xmlns="http://www.w3.org/2000/svg" xmlns:xlink="http://www.w3.org/1999/xlink" x="0px" y="0px"
	 viewBox="0 0 306.3 350" style="enable-background:new 0 0 306.3 350;" xml:space="preserve">
<style type="text/css">
	.st0{fill:#F4DF6C;}
</style>
<g>
	<g>
		<path class="st0" d="M199.8,204.5c-0.1,0.9,1.3,1.2,1.5,0.3c0.9-4,2.8-7.7,4.9-11.3c4.9-7.7,11.1-14.5,17.8-20.7
			c-0.4,1.6-0.9,3.4-1.7,5.4c-2.5,6.7-5.2,7.2-6.3,12.3c-1.1,5.3,1.1,7.2-1,10.9c-1.4,2.5-2.6,2-5.4,5.5c-2.9,3.7-2.2,5.1-4.6,7.6
			c-2.6,2.8-4.7,2.5-7.4,4.3c-2.5,1.7-5.5,5.2-6.7,12.9c-3.2-8.3-2.4-13.7-1.1-17.2c1.5-4,4-6.1,5-11.8c0.1-0.7,0.2-1.6,0.3-2.5
			c0.6-6.2,0.1-7.5,0.5-9.8c0.9-5.3,5.3-8.7,6.3-9.5c3.8-2.9,5.1-1.2,9.5-4.5c3.1-2.4,3.8-4.3,7.2-6c0.8-0.4,1.6-0.7,2.3-1
			C211.5,179.5,202.2,191.6,199.8,204.5z"/>
		<path class="st0" d="M246.8,195.8c-0.3-0.1-0.5,0.2-0.4,0.5c0.5,1.9,1,5.3,0,9c-1.8,6.5-6.9,9.3-8.8,10.2c-0.3,0.1-0.6,0-0.8-0.3
			c-1-2.2-2.4-5.9-2.4-10.5c0-1.1,0.1-8.2,4.7-13.8c0.7-0.9,2-2.4,4.1-3.6c2-1.2,3.8-1.5,6.3-2c1.6-0.3,3.9-0.7,6.6-0.7
			c2.2,0,6.3,0.4,11.4,2.9c0.5,0.3,0.7,1,0.4,1.4c-1.6,2-5,5.3-10.4,6.8C253.1,196.9,249.1,196.3,246.8,195.8z"/>
		<path class="st0" d="M255,206.4c-0.4-1.5-0.6-3-0.8-4.6c-0.1-0.8,0.7-1.3,1.4-1c2.2,0.9,4.3,2,6.6,3.2
			c16.7,9.6,25.3,25.2,29.6,35.2c0.4,0.8-0.5,1.7-1.3,1.3C281.3,236.7,260,226.3,255,206.4z"/>
		<path class="st0" d="M282.9,199.1c-3.1-1-7.7-2.4-13.4-3.7c-0.6-0.1-0.7-0.9-0.2-1.2c3.2-1.9,8.6-4.3,15.4-4.7
			c1.9-0.1,3.7,0,5.2,0.1c2.8,0.3,5.4,1.1,7.9,2.3c0.3,0.1,0.6,0.3,0.9,0.5c0.5,0.3,1,0.5,1.4,0.8c0.9,0.5,1.8,1.1,2.2,1.4
			c1,0.7,1.6,1.4,5.6,6.1c0.8,1,1.3,1.6,1.1,2.2c-0.2,0.5-0.7,0.9-1.9,1.1c-4.4,0.9-9.2-1-9.2-1
			C291.4,200.4,285.2,199.9,282.9,199.1z"/>
		<path class="st0" d="M246,216.2c1,6.5,2.2,11.7,3,15.3c2.2,8.9,3.6,12.2,3.1,17.1c-0.6,5.1-3.1,9-5.4,11.7
			c-0.5,0.5-1.4,0.2-1.5-0.5c-0.9-3.9-2.1-6.6-3.1-8.5c-0.4-0.8-1.2-2.2-2.2-4.3c-0.2-0.4-0.3-0.7-0.4-1.1c-1.1-2.9-1.8-5.9-1.9-9
			c0-1.7,0-3.6,0.3-5.7c1.1-7.2,4.4-12.4,6.8-15.5C245,215.2,245.9,215.5,246,216.2z"/>
		<path class="st0" d="M280.9,212.9c-3.1-3.2-11-8.5-17.4-13.2c-0.4-0.3-0.2-1,0.3-0.9c6.2,0.6,21.5,3.3,31.6,12.7
			c4,3.8,6.7,7.8,8.5,11.1c0.4,0.8-0.2,1.9-1.1,1.9c-3,0.1-6.6-0.2-10.4-1.8C287.6,220.6,285.2,217.4,280.9,212.9z"/>
		<path class="st0" d="M263.1,249c-2.4-3-4.4-5.8-5.9-8.4c-3.3-5.5-6.9-14-6.6-24.3c0-1.6-0.7-4.7,0.4-4.5c0.9,0.5,3.9,8.9,8.4,14
			c4.1,4.8,6.7,5.7,9,9.2c2.3,3.6,4.2,9.6,1.6,20c-0.1,0.4-0.7,0.6-1,0.3C267,253.5,265,251.4,263.1,249z"/>
		<path class="st0" d="M228.6-10.1c8.9,9.1,8.2,27-3.8,33.1c-14.7,7.5-30.5-2-35.7-16.5c-2-5.1-2.8-10.5-2.6-15.8
			c0-0.1,0.1-0.2,0.2-0.2c0.4,0,1.9,5,2.1,5.5c0.7,1.8,1.4,3.6,2.3,5.3c4.7,9.1,13.6,16.3,24.1,16.5c1.1,0,1.9-0.2,1.9-0.2
			c0.9-0.5,1.9-1.3,1-2.3c-1.5-1.7-4.9-2-7-2.6c-7.5-2.4-14-7.3-18.7-13.5c-0.7-0.8-4.5-8-5.1-10.1c-0.1-0.2,0.2-0.4,0.4-0.2
			c2.8,2.4,5.7,4.5,8.5,6.9c6.3,5.2,12.1,10.4,20.2,12.6c1,0.3,2.3,0.8,3.4,0.7c0.3,0,0.7-0.2,0.7-0.6c0.1-0.3-0.2-0.6-0.4-0.9
			c-5.9-6.3-13-12.6-21.5-15c-2.2-0.6-11-2.7-10.8-5.1c0-0.1-0.1-0.3,0.1-0.3c10.7-0.8,22.4,1,30.3,8.8c1.8,1.8,3.4,3.7,5.4,5.3
			c0.4,0.4,1,0.7,1.5,0.6c1.5-0.4,0.9-2.8,0.4-3.7c-0.6-1.3-1.5-2.4-2.5-3.5c-1.7-1.8-3.8-3.3-5.9-4.6c-8-4.9-18.5-6.5-27.6-4.1
			c-0.4,0.1-0.6-0.5-0.2-0.6C201.8-20,218.7-20.9,228.6-10.1z"/>
		<path class="st0" d="M233.5,19.1c1.4-1.6,2.6-3.4,3.2-5.3c0.4-1.4,0.2-2.8,0.7-4.2c0.1-0.2,0.2-0.4,0.3-0.5
			c0.5-0.4,0.9-0.2,1.2,0.1c0.9,1.1,2.2,2.9,2.7,5.5c0.1,0.3,0.1,0.6,0.1,0.8c0.3,2.3-1.1,5.2-4,7c-1.7,1.1-3.4,1.3-4.2,1.5
			c-1,0.2-2.5,0.4-3.4,0C228.5,23.2,232.8,19.9,233.5,19.1z"/>
		<path class="st0" d="M147.3,86.2c-0.1-0.4,0.2-0.8,0.6-1.3c2.2-2.7,8.3-0.3,17.6,2.1c15.2,4,18.3,2.8,23.1,7.2
			c3.3,3.1,5.2,6.7,5.8,8c0.9,1.8,2.9,6.1,2.9,11.6c0,5.1-1.9,5.3-3.1,11.4c-2.1,10.4,1.6,17.8-1.9,19.8c-0.9,0.5-2.1,0.7-2.5,0.3
			c-3.2-3.3-8.5-9.9-10.6-19.7c-1.7-8.2-0.5-15.1,0.6-18.9c0.1-0.5-0.3-1-0.8-0.9c-3.2,0.5-9,0.7-15.2-1.9
			C153,99.4,148.6,89.6,147.3,86.2z"/>
		<path class="st0" d="M162.3,113.2c2.1-0.4,4.4-0.7,6.8-0.8c1.1,0,1.9,1.3,1.4,2.4c-1.4,3.4-3.1,6.9-5.1,10.4
			c-14.9,26.3-38.1,38.5-52.9,44.1c-1.2,0.5-2.4-1-1.8-2.3C116.6,152.5,133.1,118.7,162.3,113.2z"/>
		<path class="st0" d="M162.1,182.3c0.4-7.7,3.1-12.1,7.9-24.7c2-5.1,4.7-12.6,7.5-22c0.3-1,1.5-1.1,1.9-0.1
			c2.4,5.6,5.5,14.8,5.2,26.2c-0.1,3.2-0.4,6.1-0.9,8.7c-0.8,4.6-2.3,8.9-4.5,12.9c-0.3,0.5-0.5,1-0.8,1.5c-1.7,2.9-3.1,4.7-3.8,5.8
			c-1.7,2.5-3.9,6.1-6,11.6c-0.4,1-1.6,1.1-2.1,0.1C164.1,197.2,161.7,190.3,162.1,182.3z"/>
		<path class="st0" d="M128.3,85.9c10.4,2.5,17.6,8.5,21.8,12.9c0.7,0.7,0.2,2.1-0.8,2.2c-9.6,1-17.3,2.4-22.7,3.4
			c-13.2,2.6-18.2,4.8-25.3,3.3c-7.4-1.6-12.8-6.2-16.4-10.2c-0.7-0.8-0.2-2.3,0.9-2.5c5.7-1.1,9.9-2.8,12.7-4.3
			c1.2-0.6,3.4-1.8,6.6-3.1c0.6-0.2,1.1-0.4,1.6-0.6c4.4-1.6,8.9-2.4,13.3-2.2C122.7,84.8,125.4,85.2,128.3,85.9z"/>
		<path class="st0" d="M151.2,155c4.7-4.5,12.7-16.4,19.8-26.1c0.5-0.6,1.4-0.2,1.3,0.6c-1.2,9.8-6.2,33.7-20.2,48.6
			c-5.6,6-11.5,9.8-16.3,12.2c-1.2,0.6-2.6-0.5-2.6-2c0.1-4.7,0.8-10.5,3.4-16.2C139.9,164.8,144.5,161.4,151.2,155z"/>
		<path class="st0" d="M156.1,107.9c-0.1,0-0.1,0.1-0.2,0.1c-1.6,1.1-3.4,2-5.2,2.8c-5.6,2.7-11.2,5.3-16,9.4
			c-5.6,4.9-9.9,11.9-16.9,14.6c-7.7,2.8-16.9,1.8-24.5-1.4c-0.1-0.1-0.3-0.1-0.4-0.3c-0.3-0.4,0.1-0.9,0.4-1.2
			c8.1-8.4,17.5-15.3,27.8-19.7c10.3-4.4,21.6-6.4,32.6-5C154.5,107.4,155.3,107.5,156.1,107.9z"/>
		<path class="st0" d="M178.9,30.7c4.3,0,7.4,1.3,8.9,1.9c6,2.7,5.7,5.6,10.9,9.2c6.1,4.5,9,2.1,16.2,7.7c1.7,1.3,5,4.1,6.1,6.8
			c-24.2-11.8-52.2-13.6-78.3-7.1c-0.8,0.2-0.6,1.3,0.2,1.1c13.7-2.4,27.7-2.5,41.3-0.3c11.8,1.8,23.3,5.6,33.9,11.3
			c-2.3,0.7-5.3,0.9-7.7,1c-13.3,0.9-16.1-3.7-25.6-1.7c-8.8,2-9.6,6.6-16,5.8c-5.6-0.6-6-4.1-13.3-5.6c-7.9-1.4-9.3,2.2-16.5,1.3
			c-8-0.8-9.1-5.4-17.6-6.4c-3.9-0.5-9.8,0-17.5,3.7c2.5-3.4,6.9-8.5,14.1-12.8c1.3-0.8,3.6-2,6.7-3.2c6-2.1,7.7-1,12.2-2.2
			c7.1-1.9,6.8-5.7,13.4-7.3c6.1-1.3,6.7,1.9,13.4,1C170.5,34.3,171.8,30.9,178.9,30.7z"/>
		<path class="st0" d="M269.2,164.8c-3.2-2-2.9-3.1-6.6-6.3c-4.8-4.3-6.4-3.3-10.2-7.2c-0.3-0.3-0.6-0.6-0.8-0.9
			c0,0-0.3-0.3-0.5-0.7c-0.8-1.1-1.8-6.4-2.9-9.5c-0.9-2.5-2.1-4-2.8-4.8c-1.6-2-2.3-1.5-3.7-3.9c-1.2-2.1-1.6-4.3-1.7-4.7
			c-0.2-1.2-0.2-2.1-0.2-2.8c0.1-2.8,0.5-4.1,0.9-6.5c0.4-2.1,0.4-3.8,0.5-5.6c0.4-6.1-0.9-7.5-0.3-11.6c0.5-3.2,1.9-5.6,3.3-7.3
			c-0.1,15.7,4,30.6,10.9,42.9c3.2,5.8,7,11.1,11.4,15.7c0.7,0.8,1.8-0.4,1-1.2c-13.2-15.3-21.1-37.8-19.1-61.1
			c1.4-0.8,3.3-1.5,5-0.3c2.8,1.8,1.5,6.3,5.1,10.7c2.8,3.3,4.7,2.5,5.9,6.2c1,2.9,1,5.9,1,5.9c0,2.4-0.5,3.3-0.3,6.2
			c0.1,1.4,0.3,2.9,0.9,4.5c1.1,2.5,2.4,2.3,3.6,4.8c0.5,0.9,0.7,1.7,1,3c2.2,7.3,0.8,9.9,4.4,17.4c2.1,4,3.2,4.7,4.2,7.8
			c1,3.2,0.6,4.9,1.9,9.1c1,2.9,2.3,5.2,3.3,6.7c-1.4-0.8-3.7-2.2-6.4-3.2C274,166.2,272.7,166.9,269.2,164.8z"/>
		<path class="st0" d="M272.3-35.2c0,0.8,0,1.7,0,2.5c0.4,32.9-12.8,66.5-33.4,93.6c-5.1,8.7-9.2,17.9-12,27.6
			c-3.1,10.5-4.8,21.4-4.8,32.3c-0.1,10.9,1.4,21.9,4.4,32.5c0.8,2.8,1.7,5.5,2.6,8.2c0.6,1.7,1.3,3.4,2,5.1
			c2.4,5.8,5.1,11.5,8.4,16.9c0.4,0.7,0.2,1.5-0.5,2c-0.7,0.4-1.6,0.2-2-0.4c-3.3-5.1-6.2-10.5-8.8-16c-0.7-1.6-1.4-3.3-2.1-5
			c-1.3-3.2-2.4-6.4-3.4-9.7c-3.3-10.8-5.1-22.2-5.2-33.6c-0.1-11.4,1.6-22.8,4.7-33.7c1.1-3.8,2.5-7.6,4-11.3
			c-7.4,7.8-15.5,14.7-23.9,20.6c-1.6,1.1-3.4-1.2-2-2.5c9.2-8.5,17.7-17.7,25.4-27.5c15.3-19.5,26.6-41.9,33.6-65.6
			c3.5-11.9,5.6-24.1,8.2-36.3c0.4-2.1,2.8-2.4,4-1.3C272-36.4,272.3-35.9,272.3-35.2z"/>
	</g>
</g>
<g>
	<path class="st0" d="M80.8,299.5c0-0.3-0.3-0.5-0.6-0.4c-1.9,0.8-5.4,1.8-9.4,1.2c-7-1-10.7-6-11.8-7.8c-0.2-0.3-0.1-0.7,0.2-0.8
		c2.2-1.4,5.9-3.3,10.6-3.9c1.1-0.1,8.5-1,15,3.1c1,0.6,2.7,1.7,4.3,3.8c1.5,1.9,2.1,3.7,2.9,6.3c0.5,1.6,1.3,4,1.6,6.8
		c0.3,2.3,0.4,6.6-1.5,12.3c-0.2,0.6-0.9,0.9-1.5,0.6c-2.3-1.4-6.2-4.5-8.4-9.9C80.5,306.1,80.6,301.9,80.8,299.5z"/>
	<path class="st0" d="M70.9,309.4c1.5-0.6,3-1.1,4.7-1.5c0.8-0.2,1.5,0.5,1.3,1.3c-0.7,2.4-1.5,4.8-2.5,7.3
		c-7.8,18.7-22.9,29.7-32.8,35.5c-0.8,0.5-1.8-0.3-1.5-1.2C42.7,340.8,50.8,317.2,70.9,309.4z"/>
	<path class="st0" d="M82.1,337.5c0.6-3.4,1.5-8.3,2.1-14.5c0.1-0.6,0.8-0.8,1.2-0.3c2.4,3.1,5.6,8.4,6.9,15.4
		c0.4,2,0.5,3.8,0.6,5.5c0.1,2.9-0.4,5.8-1.3,8.5c-0.1,0.3-0.2,0.7-0.4,1c-0.2,0.6-0.4,1.1-0.6,1.5c-0.4,1-0.9,2-1.2,2.5
		c-0.6,1.1-1.2,1.9-5.7,6.7c-0.9,1-1.5,1.6-2.2,1.5c-0.5-0.1-1-0.6-1.4-1.8c-1.5-4.4-0.1-9.7-0.1-9.7C82,346.5,81.7,340,82.1,337.5z
		"/>
	<path class="st0" d="M59.5,301.3c-6.6,1.9-11.9,3.8-15.5,5.2c-9,3.4-12.2,5.4-17.4,5.4c-5.4,0-9.8-2.1-12.9-4.1
		c-0.6-0.4-0.4-1.4,0.3-1.7c3.9-1.5,6.6-3.1,8.4-4.4c0.8-0.6,2.2-1.6,4.2-2.8c0.4-0.2,0.7-0.4,1.1-0.6c2.9-1.6,6-2.7,9.1-3.1
		c1.8-0.3,3.8-0.4,5.9-0.4c7.7,0.2,13.5,2.9,17,5C60.4,300.2,60.2,301.1,59.5,301.3z"/>
	<path class="st0" d="M67.5,337.2c2.9-3.6,7.4-12.5,11.4-19.9c0.3-0.5,1-0.3,1,0.2c0.2,6.5-0.6,22.8-9.1,34.6
		c-3.4,4.7-7.2,8-10.4,10.3c-0.8,0.6-2,0.1-2.1-0.9c-0.5-3.1-0.7-6.9,0.6-11.1C60.4,345.2,63.4,342.3,67.5,337.2z"/>
	<path class="st0" d="M27.6,323.4c2.8-2.9,5.5-5.3,8-7.3c5.3-4.2,13.6-9.1,24.5-10.1c1.6-0.2,4.8-1.4,4.7-0.2
		c-0.4,1-8.7,5.3-13.5,10.6c-4.4,4.9-5.1,7.7-8.4,10.6c-3.5,2.9-9.5,5.6-20.7,4.3c-0.5-0.1-0.7-0.6-0.5-1
		C23.4,328.1,25.3,325.8,27.6,323.4z"/>
</g>
</svg>
