<?xml version="1.0" encoding="utf-8"?>
<!-- Generator: Adobe Illustrator 27.2.0, SVG Export Plug-In . SVG Version: 6.00 Build 0)  -->
<svg version="1.1" id="Layer_1" xmlns="http://www.w3.org/2000/svg" xmlns:xlink="http://www.w3.org/1999/xlink" x="0px" y="0px"
	 viewBox="0 0 90 90" style="enable-background:new 0 0 90 90;" xml:space="preserve">
<style type="text/css">
	.st0{fill:#F4DF6C;}
</style>
<g>
	<path class="st0" d="M72,18.3c0-0.3-0.3-0.5-0.6-0.4c-1.9,0.8-5.3,1.8-9.3,1.2c-6.9-1-10.6-6-11.7-7.8c-0.2-0.3-0.1-0.7,0.2-0.8
		c2.2-1.4,5.8-3.2,10.5-3.8c1.1-0.1,8.5-1,14.9,3c1,0.6,2.7,1.7,4.3,3.8c1.5,1.9,2.1,3.7,2.9,6.3c0.5,1.6,1.3,3.9,1.6,6.7
		c0.3,2.2,0.4,6.6-1.5,12.2c-0.2,0.6-0.9,0.9-1.4,0.6c-2.3-1.4-6.1-4.5-8.3-9.9C71.7,24.9,71.7,20.7,72,18.3z"/>
	<path class="st0" d="M62.1,28.1c1.5-0.6,3-1.1,4.7-1.5c0.8-0.2,1.5,0.5,1.3,1.3c-0.7,2.3-1.5,4.8-2.5,7.2
		C57.9,53.6,42.8,64.6,33,70.3c-0.8,0.5-1.8-0.3-1.5-1.2C34.2,59.3,42.2,35.8,62.1,28.1z"/>
	<path class="st0" d="M73.3,56c0.6-3.4,1.4-8.3,2.1-14.4c0.1-0.6,0.8-0.8,1.2-0.3c2.3,3.1,5.5,8.3,6.8,15.3c0.4,2,0.5,3.8,0.6,5.4
		c0.1,2.9-0.4,5.8-1.3,8.4c-0.1,0.3-0.2,0.7-0.4,1c-0.2,0.6-0.4,1.1-0.6,1.5c-0.4,1-0.9,2-1.2,2.5c-0.6,1.1-1.2,1.9-5.6,6.6
		c-0.9,0.9-1.5,1.6-2.2,1.5c-0.5-0.1-1-0.6-1.4-1.8c-1.5-4.4-0.1-9.6-0.1-9.6C73.1,64.9,72.8,58.5,73.3,56z"/>
	<path class="st0" d="M50.8,20.1C44.3,22,39,23.9,35.4,25.2c-8.9,3.4-12.1,5.4-17.3,5.4c-5.4,0-9.8-2.1-12.8-4.1
		c-0.6-0.4-0.4-1.4,0.3-1.7c3.9-1.5,6.5-3.1,8.3-4.4c0.8-0.6,2.1-1.6,4.2-2.8c0.4-0.2,0.7-0.4,1.1-0.6c2.8-1.6,5.9-2.6,9-3.1
		c1.8-0.3,3.8-0.4,5.9-0.4c7.6,0.2,13.4,2.9,16.9,5C51.7,18.9,51.5,19.9,50.8,20.1z"/>
	<path class="st0" d="M58.7,55.7C61.6,52.1,66,43.3,70.1,36c0.3-0.5,1-0.3,1,0.2c0.2,6.5-0.6,22.7-9,34.4c-3.4,4.7-7.2,8-10.4,10.2
		c-0.8,0.6-1.9,0.1-2.1-0.9c-0.5-3-0.7-6.9,0.5-11C51.7,63.7,54.7,60.8,58.7,55.7z"/>
	<path class="st0" d="M19.1,42.1c2.8-2.9,5.5-5.3,8-7.2c5.3-4.1,13.5-9,24.3-10.1c1.6-0.2,4.8-1.4,4.7-0.2c-0.4,1-8.7,5.2-13.4,10.5
		c-4.4,4.9-5,7.7-8.4,10.5c-3.4,2.9-9.4,5.6-20.5,4.3c-0.5-0.1-0.7-0.6-0.4-1C15,46.7,16.9,44.4,19.1,42.1z"/>
</g>
</svg>
