<?xml version="1.0" encoding="utf-8"?>
<!-- Generator: Adobe Illustrator 27.3.1, SVG Export Plug-In . SVG Version: 6.00 Build 0)  -->
<svg version="1.1" id="Layer_1" xmlns="http://www.w3.org/2000/svg" xmlns:xlink="http://www.w3.org/1999/xlink" x="0px" y="0px"
	 viewBox="0 0 179.2 250" style="enable-background:new 0 0 179.2 250;" xml:space="preserve">
<style type="text/css">
	.st0{fill:#EFDF7D;}
	.st1{fill:#F4DF6C;}
</style>
<g>
	<g>
		<path class="st0" d="M126.1,149.7c0.5,0.2,0.9-0.6,0.4-0.8c-2.2-1.1-4.1-2.7-5.9-4.3c-3.8-3.9-6.9-8.4-9.6-13.1
			c0.9,0.5,1.9,1.1,2.9,1.6c3.5,2.4,3.5,4.1,6.3,5.3c2.9,1.4,4.3,0.4,6.2,2c1.3,1.2,0.8,1.8,2.4,3.9c1.7,2.2,2.6,1.9,3.8,3.8
			c1.3,1.9,0.8,3.1,1.4,4.9c0.7,1.6,2.2,3.9,6.6,5.7c-5.3,0.7-8.3-0.5-10.1-1.6c-2.1-1.4-3-3.2-6.2-4.5c-0.5-0.2-0.9-0.3-1.4-0.5
			c-3.5-1.2-4.3-1.1-5.6-1.6c-2.9-1.3-4.3-4.2-4.6-5c-1.2-2.6,0-3.2-1.4-6.2c-1-2.1-1.9-2.8-2.5-5c-0.2-0.5-0.2-1.1-0.2-1.4
			C113.1,139.5,118.9,146.4,126.1,149.7z"/>
		<path class="st0" d="M127.5,121.1c-0.1,0.2,0,0.3,0.2,0.3c1.2,0,3.2,0.2,5.3,1.3c3.5,1.9,4.4,5.3,4.7,6.5c0,0.2-0.1,0.4-0.3,0.5
			c-1.4,0.3-3.8,0.6-6.5-0.1c-0.6-0.2-4.7-1.2-7.4-4.6c-0.5-0.5-1.1-1.4-1.5-2.9c-0.4-1.4-0.4-2.4-0.3-4c0.1-1,0.1-2.3,0.5-4
			c0.3-1.3,1.1-3.6,3.3-6.2c0.2-0.3,0.7-0.3,0.9,0c1,1.3,2.3,3.7,2.5,6.9C129,117.7,128.1,119.9,127.5,121.1z"/>
		<path class="st0" d="M134.8,117.8c-0.9,0-1.8,0-2.8-0.2c-0.5-0.1-0.7-0.6-0.5-1c0.8-1.1,1.7-2.2,2.8-3.4
			c7.9-8.4,18.1-11.3,24.5-12.3c0.5-0.1,0.9,0.5,0.6,1C156.1,106.7,147,117.7,134.8,117.8z"/>
		<path class="st0" d="M134.4,100.7c-1.1,1.6-2.4,4.2-4.1,7.3c-0.2,0.3-0.6,0.3-0.8-0.1c-0.7-2.1-1.4-5.6-0.6-9.6
			c0.2-1.1,0.5-2.1,0.8-3c0.5-1.5,1.4-3,2.4-4.2c0.2-0.2,0.3-0.3,0.4-0.5c0.2-0.3,0.5-0.5,0.7-0.8c0.5-0.5,0.9-0.9,1.1-1.1
			c0.5-0.5,1.1-0.8,4.3-2.4c0.7-0.4,1.1-0.5,1.4-0.4c0.3,0.2,0.4,0.5,0.4,1.3c-0.1,2.6-1.8,5.2-1.8,5.2
			C136.3,95.9,135.1,99.4,134.4,100.7z"/>
		<path class="st0" d="M139.2,124.4c3.9,0.3,7.1,0.4,9.3,0.4c5.5,0,7.5-0.5,10.3,0.6c2.9,1.1,4.8,3.1,6.1,4.7
			c0.2,0.4-0.1,0.8-0.5,0.8c-2.3,0-4.1,0.3-5.3,0.7c-0.5,0.2-1.4,0.5-2.9,0.7c-0.2,0.1-0.5,0.1-0.7,0.2c-1.8,0.3-3.8,0.2-5.5-0.2
			c-1.1-0.2-2.1-0.5-3.2-1c-4.1-1.6-6.7-4.2-8-6.1C138.5,124.9,138.8,124.4,139.2,124.4z"/>
		<path class="st0" d="M142.2,103.8c-2.2,1.4-6.5,5.2-10,8.3c-0.2,0.2-0.6,0-0.5-0.3c1.2-3.5,4.9-12.1,11.8-16.6
			c2.8-1.8,5.4-2.9,7.6-3.5c0.6-0.2,1.1,0.4,1,0.9c-0.4,1.7-1.1,3.8-2.5,5.8C147.5,100.9,145.4,101.8,142.2,103.8z"/>
		<path class="st0" d="M160.6,119c-2,1.1-4.1,1.7-5.7,2.2c-3.7,1.2-9.1,2.1-15.1,0.5c-0.9-0.2-2.9-0.2-2.6-0.8
			c0.4-0.5,5.7-1.1,9.3-2.9c3.4-1.7,4.2-3.2,6.6-4c2.4-0.9,6.2-1.1,11.9,1.8c0.2,0.2,0.3,0.5,0.1,0.6
			C163.8,117.4,162.4,118.2,160.6,119z"/>
		<path class="st0" d="M5.3,103.4c6.5-4,16.8-1.1,18.7,6.8c2.3,9.6-5.3,17.4-14.6,18.4c-3.2,0.5-6.5,0.2-9.6-0.7
			c-0.1,0-0.2-0.1-0.1-0.2c0.1-0.2,3.2-0.5,3.5-0.5c1.2-0.2,2.2-0.3,3.5-0.6c5.9-1.4,11.3-5.6,12.8-11.8c0.2-0.7,0.2-1.2,0.2-1.2
			c-0.2-0.6-0.5-1.3-1.2-0.9c-1.3,0.6-1.8,2.6-2.5,3.7c-2.4,4.1-6.2,7.1-10.4,9c-0.6,0.3-5.3,1.4-6.6,1.5c-0.2,0-0.2-0.2-0.1-0.3
			c1.8-1.4,3.5-2.7,5.2-4.1c4-2.9,7.7-5.6,10.1-10c0.3-0.5,0.8-1.3,0.9-1.8c0-0.2-0.1-0.5-0.2-0.5c-0.2-0.1-0.4,0-0.6,0.2
			c-4.4,2.6-9.1,5.8-11.7,10.4c-0.7,1.2-3.1,6-4.4,5.6c0,0-0.2,0-0.2-0.1c1.1-6.3,3.7-12.8,9.3-16.4c1.3-0.8,2.6-1.4,3.8-2.4
			c0.3-0.2,0.6-0.5,0.5-0.8c-0.1-1-1.4-0.9-2.1-0.8c-0.8,0.2-1.6,0.5-2.3,1c-1.4,0.8-2.4,1.7-3.5,2.8c-4,4-6.4,9.8-6.2,15.5
			c0,0.2-0.4,0.3-0.5,0C-4.1,117.5-2.3,107.6,5.3,103.4z"/>
		<path class="st0" d="M23,104.4c-0.8-1.1-1.6-1.9-2.6-2.6c-0.8-0.5-1.6-0.5-2.3-1.1c-0.1-0.1-0.2-0.2-0.3-0.3
			c-0.2-0.3,0-0.6,0.3-0.7c0.8-0.4,1.9-0.9,3.6-0.8c0.2,0,0.4,0,0.5,0.1c1.4,0.2,2.9,1.4,3.5,3.3c0.4,1.2,0.3,2.1,0.3,2.6
			c-0.1,0.6-0.2,1.5-0.5,1.9C24.6,108,23.4,105,23,104.4z"/>
		<path class="st0" d="M50,163.9c-0.2,0-0.5-0.2-0.7-0.5c-1.4-1.6,1-4.9,3.7-9.9c4.4-8.3,4.2-10.2,7.4-12.5c2.2-1.5,4.6-2,5.5-2.2
			c1.2-0.3,4-0.9,7.1-0.1c2.9,0.8,2.9,1.8,6.2,3.4c5.7,2.6,10.5,1.5,11.3,3.8c0.2,0.6,0.2,1.4-0.2,1.4c-2.3,1.4-6.9,3.6-12.9,3.5
			c-5-0.2-8.9-1.7-10.9-2.9c-0.3-0.2-0.6,0-0.6,0.3c-0.2,1.9-0.8,5.3-3.2,8.6C58.5,162.4,52.2,163.6,50,163.9z"/>
		<path class="st0" d="M67.8,158.8c0.1-1.4,0.2-2.6,0.5-4.1c0.2-0.7,1.1-1,1.6-0.5c1.8,1.4,3.6,2.8,5.3,4.3
			c13.2,12.3,17.1,27.5,18.3,36.9c0.1,0.8-0.9,1.3-1.6,0.8C84.5,190.8,67,176.6,67.8,158.8z"/>
		<path class="st0" d="M107.9,168.5c-4.3-1.3-6.6-3.5-13.3-8c-2.7-1.8-6.7-4.4-11.8-7.4c-0.5-0.3-0.5-1.1,0.2-1.1
			c3.6-0.7,9.4-1.2,15.9,0.6c1.8,0.5,3.5,1.1,5,1.6c2.6,1.1,4.9,2.6,6.9,4.3c0.2,0.2,0.5,0.5,0.8,0.7c1.4,1.4,2.3,2.4,2.9,3
			c1.2,1.4,3,3.2,5.9,5.1c0.5,0.4,0.4,1.1-0.2,1.3C116.9,169.4,112.6,169.9,107.9,168.5z"/>
		<path class="st0" d="M47.2,174.8c2.9-5.7,7.4-9.1,10.4-10.9c0.5-0.3,1.3,0.2,1.2,0.8c-0.8,5.7-1.1,10.4-1.2,13.7
			c-0.3,8,0.3,11.3-1.6,15.2c-1.9,4.1-5.3,6.6-8.2,8.1c-0.6,0.3-1.4-0.2-1.4-0.9c0.2-3.5-0.3-6.2-0.8-8c-0.2-0.8-0.6-2.2-0.9-4.2
			c-0.1-0.4-0.1-0.8-0.2-1.1c-0.3-2.8-0.2-5.5,0.6-8C45.9,178,46.4,176.4,47.2,174.8z"/>
		<path class="st0" d="M90.6,171.1c-1.9-3.4-7.7-9.7-12.5-15.2c-0.3-0.4,0.1-0.8,0.6-0.7c5.5,2,18.7,8.3,25.5,18.4
			c2.7,4.1,4.1,8,4.8,11.1c0.2,0.8-0.7,1.4-1.5,1.3c-2.7-0.7-6-1.9-9-4.2C94.7,179,93.4,175.9,90.6,171.1z"/>
		<path class="st0" d="M63.9,161.8c0,0.1,0,0.1,0.1,0.2c0.5,1.1,0.7,2.2,1,3.5c0.8,3.6,1.5,7.2,3.3,10.6c2.1,4,5.6,7.4,6.2,11.9
			c0.6,4.8-1.4,10.1-4.2,14.1c-0.1,0.1-0.2,0.2-0.2,0.2c-0.2,0.1-0.5-0.2-0.7-0.4c-3.8-5.9-6.5-12.3-7.6-18.9
			c-1.2-6.6-0.8-13.4,1.6-19.7C63.4,162.6,63.6,162.1,63.9,161.8z"/>
		<path class="st0" d="M22.2,137.8c0.6-2.5,1.7-4.2,2.3-4.9c2.4-3.1,4.1-2.5,6.9-5c3.5-2.9,2.5-5,6.8-8.3c1.1-0.8,3.1-2.3,4.7-2.6
			c-10.1,12.5-15.1,28.5-15,44.6c0,0.5,0.7,0.5,0.7,0c0.5-8.3,2.3-16.5,5.5-24c2.7-6.7,6.5-12.8,11.3-18.1c0.1,1.4-0.2,3.2-0.5,4.6
			c-1.4,7.9-4.3,8.9-4.5,14.7c-0.1,5.4,2.5,6.5,1.2,10.1c-1.1,3.2-3.2,2.9-5.1,6.9c-1.9,4.3,0,5.7-1.5,9.7c-1.6,4.5-4.3,4.5-6.2,9.3
			c-0.8,2.2-1.4,5.7-0.2,10.7c-1.6-1.9-4-5.2-5.5-9.9c-0.3-0.9-0.8-2.3-0.9-4.3c-0.4-3.8,0.5-4.6,0.4-7.4c-0.2-4.3-2.4-4.7-2.4-8.8
			c0.1-3.8,1.9-3.6,2.4-7.7C23.1,143.2,21.3,142,22.2,137.8z"/>
		<path class="st1" d="M38.1,76.1c0.5,0.3,1.1-0.5,0.6-0.8c-5.7-3.9-13.2-6.6-21-7.4c-4.1-0.5-8.1-0.4-12.1,0.2
			c0.5-0.3,1-0.6,1.5-0.8c3.1-1.4,5.1-0.8,8.8-1.4c5.2-0.8,4.7-2.6,9.6-2.9c1.4-0.2,7.2-0.4,11.4,2.8c1.7,1.4,2.3,2.5,6,6.5
			c0.6,0.7,1.1,1.2,1.4,1.6c3.5,3.5,6.2,4,8.9,6.2c2.2,1.9,4.5,5.7,2.3,12.3c-1.8-4.8-5.5-6.2-7.9-6.3c-2.7-0.2-4.2,1-6.9,0.4
			c-2.5-0.5-2.5-1.7-5.8-2.7c-3.2-0.8-3.7,0.2-5.6-0.6c-2.9-1.1-2.5-3.5-6.3-6.1c-3.8-2.4-5.4-1.1-11.4-3.2
			c-2.2-0.7-4.2-1.4-5.9-2.1C16.1,69.2,28.9,70.6,38.1,76.1z"/>
		<path class="st0" d="M112.6,103.8c-1.6,1.6-2.2,1.3-4.5,3c-3.2,2.2-2.9,3.3-5.6,4.9c-0.2,0.2-0.5,0.2-0.7,0.4c0,0-0.2,0.1-0.5,0.2
			c-0.8,0.3-4.1,0.2-5.9,0.4c-1.5,0.2-2.6,0.7-3.2,1c-1.4,0.7-1.3,1.1-2.8,1.6c-1.4,0.5-2.7,0.4-3,0.3c-0.8-0.1-1.3-0.2-1.6-0.3
			c-1.6-0.5-2.2-0.9-3.7-1.4c-1.2-0.5-2.2-0.8-3.2-1.1c-3.5-1.1-4.4-0.5-6.8-1.4c-1.8-0.8-3-1.9-3.8-2.9c9.1,2.2,18.3,1.9,26.4-0.5
			c3.8-1.1,7.4-2.6,10.7-4.4c0.6-0.3,0.1-1.1-0.5-0.8c-10.7,5.6-24.9,7-38.1,2.6c-0.3-1-0.4-2.1,0.5-3c1.4-1.4,3.9,0,6.9-1.4
			c2.3-1.2,2.1-2.4,4.3-2.6c1.7-0.2,3.6,0.2,3.6,0.2c1.4,0.3,1.8,0.8,3.6,1.1c0.8,0.2,1.7,0.2,2.7,0.1c1.6-0.3,1.6-1.1,3.3-1.4
			c0.6-0.2,1.1-0.2,1.9-0.2c4.5-0.3,5.9,0.9,10.7-0.2c2.6-0.7,3.2-1.3,5-1.4c1.9-0.2,2.9,0.4,5.6,0.2c1.8-0.2,3.4-0.7,4.3-1.1
			c-0.7,0.7-1.7,1.8-2.8,3.3C114.1,101.2,114.3,102.1,112.6,103.8z"/>
		<path class="st0" d="M-3.3,74.4c0.5,0.1,1,0.2,1.4,0.3C17.3,79,35,91.3,47.8,107c4.3,4.2,9.2,7.8,14.4,10.7
			c5.6,3.3,11.8,5.7,18.1,7.2c6.4,1.6,12.9,2.2,19.5,1.9c1.6-0.1,3.5-0.2,5.1-0.4c1.1-0.2,2.2-0.3,3.3-0.5c3.8-0.6,7.4-1.4,11-2.6
			c0.5-0.2,1,0.1,1.1,0.5c0.2,0.5-0.1,1-0.5,1.1c-3.5,1.3-6.9,2.2-10.5,2.9c-1.1,0.2-2.1,0.4-3.2,0.5c-2,0.3-4.1,0.5-6.2,0.7
			c-6.8,0.5-13.6-0.2-20.2-1.6c-6.7-1.4-13-4.1-18.9-7.4c-2-1.2-4.1-2.5-6-3.9c3.5,5.4,6.5,11,8.7,16.8c0.5,1.1-1.2,1.8-1.6,0.8
			c-3.7-6.5-7.8-12.7-12.5-18.5C40.1,103.6,28.7,94,15.9,86.6c-6.5-3.8-13.2-6.6-20-9.8c-1.2-0.5-1.1-1.9-0.2-2.6
			C-3.9,74.5-3.5,74.4-3.3,74.4z"/>
	</g>
</g>
</svg>
